<svg width="60" height="32" viewBox="0 0 60 32" fill="none" xmlns="http://www.w3.org/2000/svg">
<path d="M53.3921 7.31286C51.9464 7.31286 50.6979 6.83749 49.5808 5.88675C48.9894 5.41138 48.4637 4.8681 47.938 4.32482C47.5438 3.91736 47.1495 3.57781 46.6895 3.30617C45.8353 2.7629 45.0467 2.83081 44.2582 3.30617C43.8639 3.57781 43.4697 3.84945 43.1411 4.189C42.6154 4.73228 42.024 5.27556 41.4326 5.75093C39.527 7.38077 37.4899 7.72032 35.19 6.76958C34.6643 6.56585 34.2043 6.2263 33.8101 5.88675C33.2187 5.34347 32.6273 4.80019 32.0359 4.25691C31.7073 3.91736 31.313 3.57781 30.9188 3.30617C30.1302 2.7629 29.4074 2.69498 28.5532 3.17035C27.896 3.57781 27.2389 4.12109 26.7132 4.66437C25.9904 5.41138 25.2676 6.09048 24.3476 6.56585C22.442 7.5845 20.6021 7.51659 18.6964 6.49794C17.9079 6.02257 17.2508 5.41138 16.5937 4.73228C16.068 4.189 15.5423 3.71363 14.9509 3.30617C14.2281 2.83081 13.5052 2.76289 12.7167 3.17035C12.0596 3.5099 11.5339 4.05318 11.0082 4.52855C10.5482 4.93601 10.154 5.34347 9.69397 5.75093C8.1169 7.10913 6.34269 7.65241 4.30563 7.10913C3.5171 6.9054 2.79427 6.49794 2.13716 6.02257C1.54575 5.5472 0.954352 5.00392 0.42866 4.46064C-0.097031 3.84945 -0.162742 3.03454 0.362949 2.42335C0.88864 1.81216 1.74289 1.81216 2.33429 2.35544C2.79427 2.7629 3.18854 3.17036 3.58281 3.57782C3.97708 3.98527 4.43706 4.189 4.89704 4.32482C5.94842 4.59646 6.93409 4.39273 7.78834 3.57782C8.37974 3.10245 8.90544 2.55917 9.43113 2.0838C10.2197 1.33679 11.0739 0.725598 12.0596 0.318139C13.3081 -0.157231 14.4909 -0.0893202 15.6737 0.453959C16.5937 0.861419 17.3165 1.54052 17.9736 2.21962C18.4993 2.69499 19.025 3.23827 19.5507 3.71364C20.6021 4.59646 21.7192 4.66437 22.902 4.12109C23.8219 3.64572 24.4133 2.83081 25.1362 2.21962C26.0561 1.47261 26.9104 0.725598 28.0275 0.318139C29.3417 -0.0893207 30.5245 -0.0214108 31.7073 0.657688C32.4958 1.06515 33.2187 1.60843 33.8101 2.28753C34.27 2.83081 34.8615 3.30618 35.3871 3.78154C36.4385 4.66437 37.8185 4.73228 38.9356 3.98527C39.6584 3.5099 40.3155 2.83081 40.9069 2.21962C41.6297 1.54052 42.4183 0.929329 43.2725 0.521869C44.9153 -0.22514 46.4267 -0.0893199 47.938 0.861419C48.858 1.47261 49.6465 2.21962 50.4351 3.03454C50.9608 3.57782 51.5522 4.12109 52.275 4.32482C53.3921 4.59646 54.3777 4.39273 55.232 3.57782C55.7577 3.03454 56.3491 2.62708 56.8748 2.0838C57.5319 1.4047 58.4519 1.60843 58.9118 2.15171C59.4375 2.76289 59.3718 3.64573 58.7804 4.25691C58.1233 4.8681 57.4662 5.47929 56.8091 6.02257C55.9548 6.83749 54.772 7.31286 53.3921 7.31286Z" fill="#E7C873"/>
<path d="M53.6216 31.3808C52.36 31.3808 51.0983 30.9113 49.9695 29.9724C49.3719 29.5029 48.8406 28.9663 48.3094 28.4298C47.911 28.0274 47.5126 27.6921 47.0478 27.4238C46.1845 26.8873 45.3877 26.9543 44.5909 27.4238C43.9933 27.7591 43.5284 28.2286 43.0636 28.6981C42.5324 29.2346 42.0012 29.7041 41.4036 30.1735C39.6107 31.5149 37.6186 31.7832 35.4937 30.9113C34.7633 30.643 34.2321 30.1736 33.6345 29.7041C32.904 29.0334 32.24 28.2957 31.4432 27.6921C30.3807 26.8202 29.5175 26.8202 28.3886 27.625C27.459 28.2286 26.795 29.0334 25.9982 29.7711C24.6701 30.8442 23.2092 31.582 21.4828 31.4478C20.8188 31.3808 20.1547 31.2466 19.4907 30.9784C18.4947 30.5089 17.6314 29.8382 16.901 29.0334C16.4362 28.4969 15.8386 28.0945 15.3073 27.625C14.4441 26.9543 13.5145 26.8873 12.5848 27.4909C11.9872 27.8933 11.3896 28.3627 10.8584 28.8993C9.86233 29.8382 8.86629 30.7101 7.53824 31.1796C6.4758 31.5149 5.41336 31.5149 4.35092 31.3137C3.48769 31.1125 2.69086 30.643 1.96043 30.1065C1.42921 29.5699 0.897987 29.1005 0.433169 28.5639C-0.0980515 28.0274 -0.164454 27.1555 0.366766 26.5519C0.831584 26.0154 1.69482 25.8812 2.29244 26.4178C2.75726 26.8202 3.15567 27.2897 3.62049 27.6921C4.88214 28.8322 6.4758 28.8322 7.80385 27.8262C8.46788 27.2897 9.13191 26.6861 9.72953 26.0824C10.8584 25.0764 12.0536 24.3387 13.5809 24.2046C14.2449 24.1375 14.9089 24.2716 15.5066 24.4728C16.569 24.8752 17.4322 25.5459 18.2291 26.3507C18.7603 26.8202 19.2251 27.3567 19.8227 27.7591C20.8852 28.631 22.014 28.7651 23.2757 28.1615C24.1389 27.6921 24.7365 26.9543 25.4669 26.3507C26.5294 25.4788 27.5918 24.5399 28.9863 24.2716C30.1815 24.0034 31.3104 24.2716 32.3064 24.8752C33.1032 25.3447 33.8337 25.9483 34.4313 26.619C34.8961 27.0885 35.3609 27.4909 35.8921 27.8933C36.9546 28.7651 38.2826 28.7651 39.4115 28.0945C40.2083 27.5579 40.8723 26.8873 41.5364 26.2166C42.3332 25.4788 43.1964 24.8752 44.1925 24.4728C45.5205 23.9363 46.8486 24.0704 48.1102 24.8082C48.907 25.2776 49.6375 25.8142 50.2351 26.4178C50.6335 26.8202 51.0319 27.2226 51.4303 27.5579C52.9576 28.8993 54.5513 28.8993 56.0785 27.5579C56.6097 27.0885 57.141 26.619 57.6722 26.1495C58.2034 25.68 59.0002 25.68 59.5315 26.1495C60.0627 26.619 60.1291 27.3567 59.7971 27.9603C59.6643 28.1615 59.5315 28.2957 59.3986 28.4298C58.8674 28.8993 58.4026 29.3687 57.8714 29.8382C56.6761 30.7772 55.3481 31.3808 53.6216 31.3808Z" fill="#E7C873"/>
<path d="M53.5559 19.0192C52.1007 19.0192 50.844 18.5948 49.7195 17.6854C49.1242 17.2611 48.5951 16.7761 48.0659 16.2911C47.6691 15.9273 47.206 15.6242 46.743 15.3211C45.9493 14.8967 45.2217 15.018 44.428 15.3817C43.965 15.6242 43.5681 15.9273 43.2374 16.2305C42.6421 16.7761 42.0468 17.2611 41.3853 17.7461C39.5333 19.0798 37.549 19.3223 35.3662 18.5948C34.7047 18.3523 34.1756 17.9885 33.7126 17.6248C32.8527 16.9579 32.1251 16.1698 31.1991 15.5636C30.2731 14.9574 29.4132 14.8967 28.4872 15.4423C27.8919 15.8061 27.2966 16.2305 26.8336 16.7154C26.0398 17.4429 25.1138 18.1098 24.0555 18.5342C22.2696 19.2616 20.4837 19.1404 18.7639 18.2917C17.9702 17.9279 17.3749 17.3823 16.7796 16.7761C16.2504 16.2911 15.7213 15.8667 15.126 15.4423C14.3984 14.9574 13.6047 14.8967 12.7448 15.3211C12.0833 15.6242 11.5542 16.1092 11.025 16.5336C10.562 16.8973 10.099 17.3823 9.56985 17.7461C7.71781 19.0798 5.66733 19.3829 3.48456 18.5948C2.22782 18.1098 1.23565 17.2611 0.30963 16.2911C-0.153381 15.8061 -0.0872362 15.018 0.441919 14.5936C0.971075 14.1086 1.76481 14.1086 2.36011 14.533C2.75697 14.8967 3.15384 15.2605 3.61685 15.6242C4.93974 16.7154 6.72564 16.7154 8.11468 15.5636C8.77612 15.018 9.43756 14.4724 10.099 13.9874C11.025 13.2599 12.0833 12.7143 13.2739 12.5324C14.1338 12.4112 14.9937 12.5324 15.8536 12.8355C16.7796 13.1993 17.5072 13.7449 18.1686 14.3511C18.6978 14.7755 19.1608 15.1999 19.69 15.6242C20.8806 16.6548 22.6003 16.6548 23.9232 15.6848C24.3201 15.3817 24.7169 15.018 25.1138 14.7149C25.643 14.2299 26.2383 13.8055 26.8997 13.3811C28.8179 12.2293 30.8022 12.0474 32.7866 13.3205C33.3819 13.6843 33.911 14.048 34.374 14.533C34.837 15.018 35.4323 15.4424 35.9615 15.8061C36.9537 16.5336 38.3427 16.5942 39.4671 15.9273C40.1947 15.503 40.79 14.9574 41.4515 14.4117C42.1791 13.7449 42.9728 13.2599 43.8988 12.8962C45.4863 12.2293 47.0738 12.3505 48.5951 13.2599C49.3888 13.7449 50.1164 14.2905 50.7778 14.8967C51.1747 15.3211 51.6377 15.6848 52.1669 15.988C53.2913 16.6548 54.8788 16.5942 56.0694 15.5636C56.5986 15.1392 57.1277 14.7149 57.6569 14.2299C58.2522 13.7449 59.1782 13.8055 59.6412 14.2905C60.1704 14.8361 60.1042 15.6242 59.5089 16.1698C58.9136 16.7154 58.2522 17.2004 57.5907 17.6854C56.2678 18.5948 55.0111 19.0798 53.5559 19.0192Z" fill="#E7C873"/>
</svg>
