<svg width="67" height="66" viewBox="0 0 67 66" fill="none" xmlns="http://www.w3.org/2000/svg">
<path d="M66.0559 64.0491L57.8704 56.9326C57.2198 56.5603 56.5796 56.7858 56.2648 57.1529C55.8975 57.5777 55.9028 58.165 56.312 58.6737L62.0681 63.682H3.90385C3.97207 63.5667 4.06651 63.4513 4.15571 63.3412C4.20294 63.2835 4.25017 63.2258 4.29214 63.1681L4.8221 62.4601C7.31448 59.1457 10.7199 54.6094 14.2039 53.2354C19.4773 51.1535 23.717 53.3665 28.2032 55.716C29.7302 56.5131 31.3095 57.3417 32.9414 57.9867L28.9326 59.5338L28.8591 59.5862C28.4289 60.053 28.3344 60.6508 28.6178 61.1123C28.9011 61.5686 29.473 61.7521 30.0817 61.5791C32.1018 61.0599 34.3529 60.2051 36.7351 59.2926C41.3578 57.5305 46.1379 55.7055 50.0785 55.9992C50.3723 56.0201 50.8498 56.1355 51.3483 56.2614C52.5604 56.5603 53.3842 56.7334 53.7882 56.4974C54.0925 56.3191 54.2866 55.9729 54.3181 55.5744C54.3444 55.1915 54.2027 54.8349 53.9351 54.6252C53.7042 54.4416 53.0536 54.2528 52.4397 54.0902C49.9315 53.4295 47.1348 53.5344 43.8921 54.4101L37.7268 26.8672C39.6472 25.6033 40.8593 24.1507 41.3368 22.5459C41.4207 22.5564 41.4837 22.6141 41.5939 22.74C41.6673 22.8186 41.7461 22.9078 41.851 22.9707C44.2279 24.4706 47.2503 24.8796 49.9368 24.0615C52.1773 23.385 53.9246 21.9166 54.8743 19.9133C55.1209 20.0129 55.3466 20.1703 55.5774 20.3328C55.8136 20.5007 56.0602 20.6737 56.3593 20.8048C58.3322 21.6859 60.7091 21.6282 62.7188 20.6475C64.5028 19.7822 65.7306 18.3085 66.1819 16.5098C66.7433 14.2757 65.9982 13.4838 64.7704 12.1727C64.634 12.0259 64.4923 11.8738 64.3401 11.7112C51.6893 -2.0917 29.174 -3.9639 14.1515 7.5368C14.12 7.56302 10.9245 10.0173 10.51 10.8092C10.2843 11.2393 10.3368 11.7375 10.6464 12.1098C10.956 12.4822 11.4282 12.629 11.8847 12.4926C12.1576 12.4087 12.8239 11.8056 13.8052 10.8931C14.1777 10.547 14.5293 10.2166 14.7077 10.0803C15.8148 9.19923 16.9902 8.40735 18.1288 7.67839L16.2188 10.3425C13.7369 14.3386 12.1103 19.2578 11.2341 25.3621L3.13253 27.2081C4.16621 23.815 5.84004 20.422 8.1068 17.1181C8.196 16.9922 8.32717 16.8297 8.47409 16.6514C9.01979 15.9801 9.77013 15.0623 9.56024 14.3596C9.4658 14.0449 9.1982 13.8142 8.76269 13.6778C7.84444 13.3894 7.05738 14.5536 6.53266 15.3245C6.44871 15.4504 6.37 15.5658 6.29654 15.6654C4.81685 17.7002 3.50508 20.0339 2.39794 22.5931C1.89421 23.7573 1.42197 24.9898 0.98646 26.2851C0.734599 27.0403 0.514214 27.6853 0.472237 28.3723C0.435507 28.9597 0.540453 29.5208 0.787067 30.0924C1.19634 31.0312 2.11459 31.7444 2.62356 32.0905C3.9983 33.0135 5.8138 33.4016 7.60306 33.1551C10.1794 32.7985 12.2677 31.2147 13.0968 29.0069C13.2227 29.0855 13.4116 29.2271 13.5323 29.3163C13.6635 29.4159 13.7894 29.5103 13.8629 29.5523C16.1979 30.9105 19.1677 31.1885 21.8123 30.297C24.058 29.5365 25.7791 28.0314 26.6921 26.0386C27.9776 27.2867 29.7616 28.0629 31.6558 28.194L38.0048 56.3663L36.0529 56.9431C34.1115 56.1617 32.2068 55.1601 30.3651 54.1951C24.5722 51.1482 19.0995 48.2691 12.3307 51.552C10.384 52.496 8.95683 53.8805 7.69752 55.244L1.13862 63.4565C0.90775 63.745 0.671631 64.0281 0.451252 64.3218C0.41977 64.3638 0.388291 64.4005 0.356808 64.4425C0.283348 64.5316 0.215133 64.6208 0.157415 64.7151C0.0524727 64.883 0 65.056 0 65.2238C0.00524711 65.6172 0.272854 65.8951 0.692623 65.958C0.960226 65.9948 1.21733 66 1.43771 66H65.4525L65.4892 65.9843C65.9457 65.7955 66.2658 65.4703 66.3603 65.098C66.418 64.862 66.418 64.4896 66.0559 64.0544V64.0491ZM56.1546 17.8051L63.8784 16.085C63.5268 17.4642 62.3305 18.5498 60.6776 18.9536C58.9146 19.3889 57.1778 18.9379 56.1546 17.8051ZM34.6939 27.979C34.9825 27.9318 35.2659 27.8898 35.481 27.8059L41.7513 55.1076C41.7513 55.2492 41.0324 55.4223 40.7648 55.4852C40.5392 55.5377 40.3346 55.5901 40.1667 55.6478L33.9593 28.1678C34.017 28.0839 34.4421 28.0157 34.6939 27.979ZM27.3847 6.18902C27.6313 5.25029 28.3134 3.08965 29.4048 3.08965C29.4153 3.08965 29.4258 3.08965 29.4363 3.08965C30.7533 3.13685 32.7787 5.7957 33.7652 7.35849C36.0267 10.9351 37.6795 15.0886 39.1225 19.069L27.0016 21.8642L26.6291 17.181C26.6344 16.5307 26.6291 15.8752 26.6291 15.2144C26.6239 12.2042 26.6186 9.09435 27.3794 6.18902H27.3847ZM52.9539 18.5236C52.1668 20.8625 49.1707 22.8029 45.4295 22.0058C44.4326 21.7907 43.614 21.2978 42.7535 20.7629L52.9539 18.5236ZM60.6042 11.3546C61.1499 11.8476 62.4826 13.0748 63.0126 13.767C63.0441 13.809 63.0808 13.8457 63.1175 13.8771L54.8586 15.5448C51.4794 10.3215 47.8537 6.54039 43.7714 3.99167L41.1006 2.539C48.3154 3.37284 55.2049 6.4827 60.5937 11.3546H60.6042ZM33.1828 2.84317C38.2357 3.06867 45.5345 5.64361 52.5289 16.2108L41.4417 18.6756C39.4793 13.3475 37.244 7.35325 33.1828 2.84317ZM39.2327 21.6019C38.561 23.6262 36.6773 25.1943 34.2374 25.7292C31.787 26.2694 29.4153 25.6348 27.9619 24.0825L39.2327 21.6019ZM13.6163 24.8272C13.653 23.5371 14.0885 22.0267 14.4348 20.831C14.5293 20.4954 14.6237 20.186 14.6972 19.9028C15.2953 17.6478 16.0772 15.5448 17.0216 13.6621C19.0943 9.51913 22.0116 6.38306 25.4747 4.55805C23.8954 9.73415 24.2417 15.2459 24.5775 20.5793C24.6195 21.2086 24.6562 21.8327 24.6929 22.4568L13.6163 24.8272ZM24.6142 24.8114C23.9741 26.6784 22.1113 28.0786 19.7659 28.4195C18.3492 28.624 15.7099 28.4038 14.4138 27.1766L24.6142 24.8114ZM14.12 26.841C13.9888 26.6627 13.8786 26.4634 13.7999 26.2536C13.6897 25.9495 13.632 25.5981 13.6163 25.231H13.6425L14.1357 26.841H14.12ZM11.0504 27.8793C10.6884 29.2481 9.54975 30.3022 7.95463 30.7322C6.21259 31.199 4.44955 30.8004 3.35291 29.7096L11.0504 27.8741V27.8793Z" fill="#E7C873"/>
<path d="M11.6327 59.6334C11.2077 60.0005 10.9715 60.6718 11.4543 61.2696C11.6746 61.5424 11.958 61.6839 12.2676 61.6839C12.3305 61.6839 12.3935 61.6787 12.4565 61.6682C12.9077 61.5896 13.3118 61.2329 13.4639 60.7767C13.5951 60.3834 13.5059 59.9796 13.2226 59.6701C12.7451 59.1562 12.0629 59.2611 11.6327 59.6282V59.6334Z" fill="#E7C873"/>
<path d="M16.901 55.1339C16.1716 55.1758 15.7676 55.7999 15.7991 56.3872C15.8253 56.9064 16.1926 57.4204 16.9587 57.4204C16.9797 57.4204 17.0059 57.4204 17.0321 57.4204C17.4467 57.4046 17.772 57.2106 17.9451 56.875C18.1393 56.5026 18.1078 55.9992 17.8664 55.6216C17.6513 55.2859 17.2997 55.1076 16.9115 55.1286L16.901 55.1339Z" fill="#E7C873"/>
<path d="M51.065 59.3293C50.6242 59.3555 50.1887 59.6701 49.9998 60.0949C49.8267 60.4882 49.8896 60.9183 50.173 61.2749C50.3986 61.5581 50.7029 61.6734 50.9968 61.6734C51.2486 61.6734 51.4953 61.5895 51.6999 61.4479C52.1407 61.1438 52.403 60.5354 52.0042 59.8589C51.7891 59.4918 51.4585 59.3083 51.0702 59.3293H51.065Z" fill="#E7C873"/>
</svg>
