<svg width="62" height="62" viewBox="0 0 62 62" fill="none" xmlns="http://www.w3.org/2000/svg">
<path d="M0 1.93202V60.057C0 60.5709 0.204127 61.0637 0.567479 61.427C0.930831 61.7904 1.42364 61.9945 1.9375 61.9945H60.0625C60.5764 61.9945 61.0692 61.7904 61.4325 61.427C61.7959 61.0637 62 60.5709 62 60.057C62 59.5432 61.7959 59.0504 61.4325 58.687C61.0692 58.3237 60.5764 58.1195 60.0625 58.1195H54.25V52.307C56.3054 52.307 58.2767 51.4905 59.7301 50.0371C61.1835 48.5837 62 46.6125 62 44.557V29.057C62 27.0016 61.1835 25.0303 59.7301 23.5769C58.2767 22.1235 56.3054 21.307 54.25 21.307H50.375C48.3196 21.307 46.3483 22.1235 44.8949 23.5769C43.4415 25.0303 42.625 27.0016 42.625 29.057V44.557C42.625 46.6125 43.4415 48.5837 44.8949 50.0371C46.3483 51.4905 48.3196 52.307 50.375 52.307V58.1195H38.75V15.4945C38.7488 15.1042 38.6299 14.7234 38.4086 14.4019C38.1873 14.0804 37.8741 13.8332 37.51 13.6927L2.635 0.130164C2.34193 0.0170732 2.02574 -0.0230733 1.7137 0.0132092C1.40167 0.0494916 1.10315 0.161092 0.843843 0.338412C0.584536 0.515732 0.372221 0.753446 0.225218 1.03106C0.0782144 1.30868 0.000926901 1.61789 0 1.93202ZM54.25 48.432V36.807C54.25 36.2932 54.0459 35.8004 53.6825 35.437C53.3192 35.0737 52.8264 34.8695 52.3125 34.8695C51.7986 34.8695 51.3058 35.0737 50.9425 35.437C50.5791 35.8004 50.375 36.2932 50.375 36.807V48.432C49.3473 48.432 48.3617 48.0238 47.635 47.2971C46.9083 46.5704 46.5 45.5847 46.5 44.557V29.057C46.5 28.0293 46.9083 27.0437 47.635 26.317C48.3617 25.5903 49.3473 25.182 50.375 25.182H54.25C55.2777 25.182 56.2633 25.5903 56.99 26.317C57.7167 27.0437 58.125 28.0293 58.125 29.057V44.557C58.125 45.5847 57.7167 46.5704 56.99 47.2971C56.2633 48.0238 55.2777 48.432 54.25 48.432ZM3.875 4.76079L34.875 16.812V58.1195H31V52.307C31 51.7932 30.7959 51.3004 30.4325 50.937C30.0692 50.5737 29.5764 50.3695 29.0625 50.3695C28.5486 50.3695 28.0558 50.5737 27.6925 50.937C27.3291 51.3004 27.125 51.7932 27.125 52.307V58.1195H11.625V52.307C11.625 51.7932 11.4209 51.3004 11.0575 50.937C10.6942 50.5737 10.2014 50.3695 9.6875 50.3695C9.17364 50.3695 8.68083 50.5737 8.31748 50.937C7.95413 51.3004 7.75 51.7932 7.75 52.307V58.1195H3.875V4.76079Z" fill="#E7C873"/>
<path d="M31 34.8699H27.125V38.7449H31V34.8699Z" fill="#E7C873"/>
<path d="M21.313 34.8699H17.438V38.7449H21.313V34.8699Z" fill="#E7C873"/>
<path d="M11.6245 34.8699H7.74951V38.7449H11.6245V34.8699Z" fill="#E7C873"/>
<path d="M31 42.6194H27.125V46.4944H31V42.6194Z" fill="#E7C873"/>
<path d="M21.313 42.6194H17.438V46.4944H21.313V42.6194Z" fill="#E7C873"/>
<path d="M21.313 50.3691H17.438V54.2441H21.313V50.3691Z" fill="#E7C873"/>
<path d="M11.6245 42.6194H7.74951V46.4944H11.6245V42.6194Z" fill="#E7C873"/>
<path d="M31 19.3694H27.125V23.2444H31V19.3694Z" fill="#E7C873"/>
<path d="M21.313 19.3694H17.438V23.2444H21.313V19.3694Z" fill="#E7C873"/>
<path d="M11.6245 19.3694H7.74951V23.2444H11.6245V19.3694Z" fill="#E7C873"/>
<path d="M11.6245 11.6194H7.74951V15.4944H11.6245V11.6194Z" fill="#E7C873"/>
<path d="M31 27.1191H27.125V30.9941H31V27.1191Z" fill="#E7C873"/>
<path d="M21.313 27.1191H17.438V30.9941H21.313V27.1191Z" fill="#E7C873"/>
<path d="M11.6245 27.1191H7.74951V30.9941H11.6245V27.1191Z" fill="#E7C873"/>
</svg>
