<svg width="81" height="66" viewBox="0 0 81 66" fill="none" xmlns="http://www.w3.org/2000/svg">
<path d="M79.8055 47.787C79.3516 46.8372 78.7109 46.0207 77.9474 45.4337C77.878 45.3803 77.8299 45.3376 77.7872 45.3056C77.8139 45.2523 77.8513 45.1775 77.8993 45.0922C78.2571 44.4144 78.4493 43.646 78.4493 42.8722C78.4493 41.2126 77.563 39.6438 76.1374 38.7846C74.6531 37.8881 72.8644 37.8721 71.2306 38.7312C70.5205 39.1048 69.9492 39.6704 69.5755 40.3588C68.9935 41.4314 68.7853 42.6374 68.9935 43.7474C69.0896 44.2437 69.2605 44.7293 69.5167 45.1882C69.5488 45.2416 69.5701 45.2843 69.5862 45.3216C69.5007 45.4017 69.41 45.4764 69.3245 45.5511C68.9882 45.8393 68.6037 46.1701 68.262 46.613C67.3757 47.7817 66.8898 49.2385 66.8898 50.706C66.8898 53.0647 68.0858 55.2206 70.0934 56.4693C70.8782 56.9602 71.7325 57.2697 72.6188 57.4138V63.2198H65.6351V7.75906H66.9219C67.6907 7.75906 68.3101 7.14004 68.3101 6.3716C68.3101 5.60317 67.6907 4.98415 66.9219 4.98415H54.5509V2.7749H55.9497C56.7186 2.7749 57.3379 2.15589 57.3379 1.38745C57.3379 0.61902 56.7186 0 55.9497 0H22.1043C21.3355 0 20.7161 0.61902 20.7161 1.38745C20.7161 2.15589 21.3355 2.7749 22.1043 2.7749H23.5726V4.98415H11.2016C10.4327 4.98415 9.81338 5.60317 9.81338 6.3716C9.81338 7.14004 10.4327 7.75906 11.2016 7.75906H12.4883V63.2198H11.1856C10.4167 63.2198 9.79736 63.8388 9.79736 64.6072C9.79736 65.3756 10.4167 65.9947 11.1856 65.9947H76.6606C77.4295 65.9947 78.0488 65.3756 78.0488 64.6072C78.0488 63.8388 77.4295 63.2198 76.6606 63.2198H74.7599V57.4031C75.5127 57.2857 76.2655 57.0616 76.997 56.6987C78.177 56.1224 79.1434 55.1512 79.7093 53.9665C80.6864 51.9334 80.7291 49.6761 79.8215 47.7763L79.8055 47.787ZM62.848 7.76439V63.2251H54.5348V7.76439H62.848ZM15.2487 7.76439H23.5619V63.2251H15.2487V7.76439ZM43.1836 52.0348V63.2198H40.3859V52.0348H43.1836ZM37.7162 63.2198H34.9185V52.0348H37.7162V63.2198ZM45.8532 63.2251V50.7007C45.8532 49.9642 45.2552 49.3666 44.5184 49.3666H33.5837C32.8469 49.3666 32.2489 49.9642 32.2489 50.7007V63.2251H26.3383V2.78024H51.7638V63.2251H45.8532ZM71.2146 54.6656C69.8371 53.8064 69.0149 52.3336 69.0149 50.7167C69.0149 49.7081 69.3512 48.7102 69.9546 47.9098C70.1521 47.6483 70.4031 47.4295 70.6967 47.184C70.7768 47.1146 70.8569 47.0453 70.937 46.9759L72.6028 49.3719V52.6057V55.2419C72.1169 55.1298 71.6471 54.9431 71.2093 54.6709L71.2146 54.6656ZM77.7712 53.0487C77.4081 53.8011 76.7941 54.4201 76.0413 54.7883C75.6142 54.9964 75.1763 55.1459 74.7439 55.2419V53.1554L77.627 51.1969C78.1129 50.8661 78.2411 50.1991 77.91 49.7134C77.579 49.2278 76.9169 49.0998 76.4257 49.4306L74.7439 50.5726V43.7741C74.7439 43.1871 74.2633 42.7068 73.676 42.7068C73.0887 42.7068 72.6082 43.1871 72.6082 43.7741V45.6205L71.4816 44.0036C71.4015 43.8862 71.3 43.7901 71.1879 43.7154C71.1452 43.598 71.1132 43.4753 71.0865 43.3525C70.969 42.7228 71.0972 42.0184 71.4442 41.3727C71.6151 41.0579 71.8927 40.7857 72.2237 40.615C72.7043 40.3588 73.2008 40.2361 73.6813 40.2361C74.1619 40.2361 74.6211 40.3588 75.0322 40.6096C75.8331 41.0899 76.3083 41.9384 76.3083 42.8669C76.3083 43.2938 76.2015 43.7154 76.0039 44.0889C75.2938 45.439 75.454 46.2021 76.6393 47.1146C77.1305 47.4935 77.5683 48.0538 77.878 48.6995C78.508 50.0123 78.4653 51.5972 77.7712 53.0433V53.0487Z" fill="#E7C873"/>
<path d="M46.3348 40.1934C45.598 40.1934 45 40.791 45 41.5274V43.7794C45 44.5158 45.598 45.1135 46.3348 45.1135C47.0716 45.1135 47.6696 44.5158 47.6696 43.7794V41.5274C47.6696 40.791 47.0716 40.1934 46.3348 40.1934Z" fill="#E7C873"/>
<path d="M46.3348 32.0769C45.598 32.0769 45 32.6746 45 33.411V35.6629C45 36.3993 45.598 36.997 46.3348 36.997C47.0716 36.997 47.6696 36.3993 47.6696 35.6629V33.411C47.6696 32.6746 47.0716 32.0769 46.3348 32.0769Z" fill="#E7C873"/>
<path d="M46.3348 23.9548C45.598 23.9548 45 24.5525 45 25.2889V27.5409C45 28.2773 45.598 28.8749 46.3348 28.8749C47.0716 28.8749 47.6696 28.2773 47.6696 27.5409V25.2889C47.6696 24.5525 47.0716 23.9548 46.3348 23.9548Z" fill="#E7C873"/>
<path d="M46.3348 15.8384C45.598 15.8384 45 16.4361 45 17.1725V19.4244C45 20.1608 45.598 20.7585 46.3348 20.7585C47.0716 20.7585 47.6696 20.1608 47.6696 19.4244V17.1725C47.6696 16.4361 47.0716 15.8384 46.3348 15.8384Z" fill="#E7C873"/>
<path d="M46.3348 7.72168C45.598 7.72168 45 8.31935 45 9.05577V11.3077C45 12.0441 45.598 12.6418 46.3348 12.6418C47.0716 12.6418 47.6696 12.0441 47.6696 11.3077V9.05577C47.6696 8.31935 47.0716 7.72168 46.3348 7.72168Z" fill="#E7C873"/>
<path d="M39.3348 40.1934C38.598 40.1934 38 40.791 38 41.5274V43.7794C38 44.5158 38.598 45.1135 39.3348 45.1135C40.0716 45.1135 40.6696 44.5158 40.6696 43.7794V41.5274C40.6696 40.791 40.0716 40.1934 39.3348 40.1934Z" fill="#E7C873"/>
<path d="M39.3348 32.0769C38.598 32.0769 38 32.6746 38 33.411V35.6629C38 36.3993 38.598 36.997 39.3348 36.997C40.0716 36.997 40.6696 36.3993 40.6696 35.6629V33.411C40.6696 32.6746 40.0716 32.0769 39.3348 32.0769Z" fill="#E7C873"/>
<path d="M39.3348 23.9548C38.598 23.9548 38 24.5525 38 25.2889V27.5409C38 28.2773 38.598 28.8749 39.3348 28.8749C40.0716 28.8749 40.6696 28.2773 40.6696 27.5409V25.2889C40.6696 24.5525 40.0716 23.9548 39.3348 23.9548Z" fill="#E7C873"/>
<path d="M39.3348 15.8384C38.598 15.8384 38 16.4361 38 17.1725V19.4244C38 20.1608 38.598 20.7585 39.3348 20.7585C40.0716 20.7585 40.6696 20.1608 40.6696 19.4244V17.1725C40.6696 16.4361 40.0716 15.8384 39.3348 15.8384Z" fill="#E7C873"/>
<path d="M39.3348 7.72168C38.598 7.72168 38 8.31935 38 9.05577V11.3077C38 12.0441 38.598 12.6418 39.3348 12.6418C40.0716 12.6418 40.6696 12.0441 40.6696 11.3077V9.05577C40.6696 8.31935 40.0716 7.72168 39.3348 7.72168Z" fill="#E7C873"/>
<path d="M32.3348 40.1934C31.598 40.1934 31 40.791 31 41.5274V43.7794C31 44.5158 31.598 45.1135 32.3348 45.1135C33.0716 45.1135 33.6696 44.5158 33.6696 43.7794V41.5274C33.6696 40.791 33.0716 40.1934 32.3348 40.1934Z" fill="#E7C873"/>
<path d="M32.3348 32.0769C31.598 32.0769 31 32.6746 31 33.411V35.6629C31 36.3993 31.598 36.997 32.3348 36.997C33.0716 36.997 33.6696 36.3993 33.6696 35.6629V33.411C33.6696 32.6746 33.0716 32.0769 32.3348 32.0769Z" fill="#E7C873"/>
<path d="M32.3348 23.9548C31.598 23.9548 31 24.5525 31 25.2889V27.5409C31 28.2773 31.598 28.8749 32.3348 28.8749C33.0716 28.8749 33.6696 28.2773 33.6696 27.5409V25.2889C33.6696 24.5525 33.0716 23.9548 32.3348 23.9548Z" fill="#E7C873"/>
<path d="M32.3348 15.8384C31.598 15.8384 31 16.4361 31 17.1725V19.4244C31 20.1608 31.598 20.7585 32.3348 20.7585C33.0716 20.7585 33.6696 20.1608 33.6696 19.4244V17.1725C33.6696 16.4361 33.0716 15.8384 32.3348 15.8384Z" fill="#E7C873"/>
<path d="M32.3348 7.72168C31.598 7.72168 31 8.31935 31 9.05577V11.3077C31 12.0441 31.598 12.6418 32.3348 12.6418C33.0716 12.6418 33.6696 12.0441 33.6696 11.3077V9.05577C33.6696 8.31935 33.0716 7.72168 32.3348 7.72168Z" fill="#E7C873"/>
<path d="M19.5204 48.3098C18.7835 48.3098 18.1855 48.9075 18.1855 49.6439V51.8958C18.1855 52.6323 18.7835 53.2299 19.5204 53.2299C20.2572 53.2299 20.8552 52.6323 20.8552 51.8958V49.6439C20.8552 48.9075 20.2572 48.3098 19.5204 48.3098Z" fill="#E7C873"/>
<path d="M19.5204 40.1934C18.7835 40.1934 18.1855 40.791 18.1855 41.5274V43.7794C18.1855 44.5158 18.7835 45.1135 19.5204 45.1135C20.2572 45.1135 20.8552 44.5158 20.8552 43.7794V41.5274C20.8552 40.791 20.2572 40.1934 19.5204 40.1934Z" fill="#E7C873"/>
<path d="M19.5204 32.0769C18.7835 32.0769 18.1855 32.6746 18.1855 33.411V35.6629C18.1855 36.3993 18.7835 36.997 19.5204 36.997C20.2572 36.997 20.8552 36.3993 20.8552 35.6629V33.411C20.8552 32.6746 20.2572 32.0769 19.5204 32.0769Z" fill="#E7C873"/>
<path d="M19.5204 23.9548C18.7835 23.9548 18.1855 24.5525 18.1855 25.2889V27.5409C18.1855 28.2773 18.7835 28.8749 19.5204 28.8749C20.2572 28.8749 20.8552 28.2773 20.8552 27.5409V25.2889C20.8552 24.5525 20.2572 23.9548 19.5204 23.9548Z" fill="#E7C873"/>
<path d="M19.5204 15.8384C18.7835 15.8384 18.1855 16.4361 18.1855 17.1725V19.4244C18.1855 20.1608 18.7835 20.7585 19.5204 20.7585C20.2572 20.7585 20.8552 20.1608 20.8552 19.4244V17.1725C20.8552 16.4361 20.2572 15.8384 19.5204 15.8384Z" fill="#E7C873"/>
<path d="M58.785 53.2299C59.5218 53.2299 60.1198 52.6323 60.1198 51.8958V49.6439C60.1198 48.9075 59.5218 48.3098 58.785 48.3098C58.0482 48.3098 57.4502 48.9075 57.4502 49.6439V51.8958C57.4502 52.6323 58.0482 53.2299 58.785 53.2299Z" fill="#E7C873"/>
<path d="M58.785 45.1135C59.5218 45.1135 60.1198 44.5158 60.1198 43.7794V41.5274C60.1198 40.791 59.5218 40.1934 58.785 40.1934C58.0482 40.1934 57.4502 40.791 57.4502 41.5274V43.7794C57.4502 44.5158 58.0482 45.1135 58.785 45.1135Z" fill="#E7C873"/>
<path d="M58.785 36.997C59.5218 36.997 60.1198 36.3993 60.1198 35.6629V33.411C60.1198 32.6746 59.5218 32.0769 58.785 32.0769C58.0482 32.0769 57.4502 32.6746 57.4502 33.411V35.6629C57.4502 36.3993 58.0482 36.997 58.785 36.997Z" fill="#E7C873"/>
<path d="M58.785 28.8749C59.5218 28.8749 60.1198 28.2773 60.1198 27.5409V25.2889C60.1198 24.5525 59.5218 23.9548 58.785 23.9548C58.0482 23.9548 57.4502 24.5525 57.4502 25.2889V27.5409C57.4502 28.2773 58.0482 28.8749 58.785 28.8749Z" fill="#E7C873"/>
<path d="M58.785 20.7585C59.5218 20.7585 60.1198 20.1608 60.1198 19.4244V17.1725C60.1198 16.4361 59.5218 15.8384 58.785 15.8384C58.0482 15.8384 57.4502 16.4361 57.4502 17.1725V19.4244C57.4502 20.1608 58.0482 20.7585 58.785 20.7585Z" fill="#E7C873"/>
<path d="M6.62066 63.2251H1.3882C0.619352 63.2251 0 63.8441 0 64.6126C0 65.381 0.619352 66 1.3882 66H6.62066C7.38951 66 8.00886 65.381 8.00886 64.6126C8.00886 63.8441 7.38951 63.2251 6.62066 63.2251Z" fill="#E7C873"/>
</svg>
