<svg width="95" height="50" viewBox="0 0 95 50" fill="none" xmlns="http://www.w3.org/2000/svg">
<g clip-path="url(#clip0_478_281)">
<path d="M77.0547 38.8579C75.15 38.8579 73.6016 40.4015 73.6016 42.3002C73.6016 44.199 75.15 45.7425 77.0547 45.7425C78.9594 45.7425 80.5078 44.199 80.5078 42.3002C80.5078 40.4015 78.9594 38.8579 77.0547 38.8579ZM77.0547 43.4704C76.4106 43.4704 75.8854 42.9468 75.8854 42.3048C75.8854 41.6628 76.4106 41.1391 77.0547 41.1391C77.6987 41.1391 78.224 41.6628 78.224 42.3048C78.224 42.9468 77.6987 43.4704 77.0547 43.4704Z" fill="#E7C873"/>
<path d="M18.2285 45.7472C20.1332 45.7472 21.6816 44.2036 21.6816 42.3049C21.6816 40.4061 20.1332 38.8625 18.2285 38.8625C16.3238 38.8625 14.7754 40.4061 14.7754 42.3049C14.7754 44.2036 16.3238 45.7472 18.2285 45.7472ZM18.2285 41.1347C18.8725 41.1347 19.3978 41.6583 19.3978 42.3003C19.3978 42.9423 18.8725 43.466 18.2285 43.466C17.5845 43.466 17.0592 42.9423 17.0592 42.3003C17.0592 41.6583 17.5845 41.1347 18.2285 41.1347Z" fill="#E7C873"/>
<path d="M86.971 2.34951L84.6278 0.286859C84.4177 0.104726 84.1482 0 83.8696 0H52.5906C52.2892 0 52.0014 0.118386 51.7867 0.327839L49.7678 2.30853H5.28847C2.41088 2.30853 0.0722656 4.64439 0.0722656 7.51298V41.2895C0.0722656 43.507 1.88561 45.3146 4.11003 45.3146H11.1259C12.3043 48.0648 15.0449 50 18.2285 50C21.4121 50 24.1527 48.0648 25.3311 45.3146H29.2958C29.9261 45.3146 30.4377 44.8047 30.4377 44.1763C30.4377 43.5479 29.9261 43.038 29.2958 43.038H25.9067C25.9295 42.7966 25.9432 42.5508 25.9432 42.3049C25.9432 38.0612 22.4809 34.6098 18.2239 34.6098C13.9669 34.6098 10.5047 38.0612 10.5047 42.3049C10.5047 42.5508 10.5184 42.7966 10.5412 43.038H4.10089C3.13256 43.038 2.34693 42.2548 2.34693 41.2895V41.2166H4.44803C5.95534 41.2166 7.18403 39.9918 7.18403 38.4892V36.8272C7.18403 35.3246 5.95534 34.0998 4.44803 34.0998H2.34693V7.51298C2.34693 5.9011 3.6624 4.58975 5.27934 4.58975H86.2082C88.9168 4.58975 91.2326 6.26992 92.1781 8.63765H60.1272V8.5056C60.1272 7.87724 59.6156 7.36727 58.9853 7.36727H35.5078C34.8774 7.36727 34.3659 7.87724 34.3659 8.5056V8.63765H6.96935C6.33902 8.63765 5.82745 9.14762 5.82745 9.77598V20.194C5.82745 20.5264 5.96905 20.836 6.22026 21.0546L18.2833 31.4725C18.4889 31.6501 18.7583 31.7503 19.0324 31.7503H21.435H34.3704V43.038H32.379C31.7486 43.038 31.237 43.5479 31.237 44.1763C31.237 44.8047 31.7486 45.3146 32.379 45.3146H69.9475C71.126 48.0648 73.8665 50 77.0501 50C80.2338 50 82.9743 48.0648 84.1528 45.3146H90.8854C93.1099 45.3146 94.9232 43.5115 94.9232 41.2895V10.9917C94.9232 6.45661 91.4153 2.72744 86.9619 2.34951H86.971ZM18.2285 36.8864C21.2249 36.8864 23.664 39.3179 23.664 42.3049C23.664 45.2919 21.2249 47.7233 18.2285 47.7233C15.2322 47.7233 12.7931 45.2919 12.7931 42.3049C12.7931 39.3179 15.2322 36.8864 18.2285 36.8864ZM2.70777 36.3765H4.45717C4.70839 36.3765 4.90936 36.5768 4.90936 36.8272V38.4892C4.90936 38.7396 4.70839 38.94 4.45717 38.94H2.70777V36.3765ZM53.0611 2.27666H83.4402L83.4768 2.30853H53.0245L53.0611 2.27666ZM92.644 10.9917V29.4736H87.8297V10.9143H92.6394C92.6394 10.9416 92.6394 10.9644 92.6394 10.9917H92.644ZM71.9984 10.9143V29.4736H60.1363V10.9143H71.9984ZM57.8525 29.4736H48.3975V9.63938H57.8525V29.4736ZM57.8525 31.7503V43.038H48.3975V31.7503H57.8525ZM46.1137 9.63938V29.4736H36.6588V9.63938H46.1137ZM8.11125 19.6749V10.9143H20.2931V29.4736H19.4572L8.11125 19.6749ZM22.5769 29.4736V10.9143H34.3704V29.4736H22.5769ZM36.6588 31.7503H46.1137V43.038H36.6588V31.7503ZM60.1363 43.038V31.7503H72.382L73.8848 35.2973C71.2082 36.5085 69.34 39.1904 69.34 42.3049C69.34 42.5508 69.3537 42.7966 69.3766 43.038H60.1409H60.1363ZM77.0547 47.7233C74.0584 47.7233 71.6193 45.2919 71.6193 42.3049C71.6193 39.3179 74.0584 36.8864 77.0547 36.8864C80.0511 36.8864 82.4902 39.3179 82.4902 42.3049C82.4902 45.2919 80.0511 47.7233 77.0547 47.7233ZM90.89 43.038H84.7374C84.7603 42.7966 84.774 42.5508 84.774 42.3049C84.774 38.0612 81.3117 34.6098 77.0547 34.6098C76.7304 34.6098 76.4107 34.6371 76.0955 34.6735L74.8577 31.7503H75.3099C75.9402 31.7503 76.4518 31.2403 76.4518 30.612C76.4518 29.9836 75.9402 29.4736 75.3099 29.4736H74.2776V10.9143H85.5459V29.4736H79.3659C78.7356 29.4736 78.224 29.9836 78.224 30.612C78.224 31.2403 78.7356 31.7503 79.3659 31.7503H92.644V34.241H90.721C89.2639 34.241 88.0809 35.4203 88.0809 36.8728V38.4346C88.0809 39.8871 89.2639 41.0664 90.721 41.0664H92.644V41.2849C92.644 42.2503 91.8583 43.0334 90.89 43.0334V43.038ZM92.644 38.7943H90.721C90.5246 38.7943 90.3647 38.6349 90.3647 38.4391V36.8773C90.3647 36.6815 90.5246 36.5222 90.721 36.5222H92.644V38.7988V38.7943Z" fill="#E7C873"/>
</g>
<defs>
<clipPath id="clip0_478_281">
<rect width="95" height="50" fill="white"/>
</clipPath>
</defs>
</svg>
