<svg width="67" height="66" viewBox="0 0 67 66" fill="none" xmlns="http://www.w3.org/2000/svg">
<g clip-path="url(#clip0_478_270)">
<path d="M41.6713 25.9001C41.9399 25.9001 42.2135 25.814 42.4466 25.6366C44.2862 24.2126 45.3453 22.0588 45.3453 19.7328C45.3453 18.2935 44.7423 17.0216 44.2153 15.9016C43.8605 15.1516 43.5261 14.4472 43.3791 13.7479C43.0396 12.1414 43.5159 10.4792 44.6612 9.29845C45.1477 8.79675 45.1325 7.99099 44.6308 7.50449C44.1291 7.018 43.3233 7.0332 42.8369 7.5349C41.1088 9.32378 40.3892 11.8424 40.901 14.2698C41.1088 15.2631 41.5243 16.1347 41.9247 16.9861C42.3808 17.9489 42.8115 18.8611 42.8115 19.7328C42.8115 21.2683 42.1122 22.6923 40.8959 23.6349C40.3436 24.0605 40.2422 24.8612 40.6679 25.4136C40.9162 25.7379 41.2912 25.9052 41.6713 25.9052V25.9001Z" fill="#E7C873"/>
<path d="M32.1545 25.9001C32.4231 25.9001 32.6967 25.814 32.9299 25.6366C35.4434 23.6906 36.8826 20.7564 36.8826 17.5841C36.8826 15.5013 36.0819 13.8543 35.3066 12.263C34.7897 11.1988 34.2981 10.1904 34.065 9.08561C33.538 6.59739 34.2779 4.01795 36.0515 2.18346C36.538 1.68176 36.5228 0.875998 36.0211 0.389503C35.5194 -0.0969929 34.7137 -0.0817899 34.2272 0.419909C31.8707 2.85745 30.8825 6.29333 31.5869 9.60758C31.8859 11.0113 32.4687 12.2073 33.0312 13.3678C33.7103 14.7665 34.3539 16.0841 34.3539 17.579C34.3539 19.9608 33.2694 22.1703 31.3842 23.6298C30.8318 24.0555 30.7305 24.8562 31.1562 25.4086C31.4045 25.7329 31.7795 25.9001 32.1596 25.9001H32.1545Z" fill="#E7C873"/>
<path d="M23.4076 25.9002C23.6762 25.9002 23.9499 25.814 24.183 25.6366C26.6965 23.6907 28.1357 20.7565 28.1357 17.5841C28.1357 15.5013 27.2996 13.7884 26.5648 12.2783C26.2607 11.6499 25.5006 11.3864 24.8722 11.6955C24.2438 11.9996 23.9803 12.7597 24.2894 13.3881C24.9634 14.7766 25.6019 16.0892 25.6019 17.5892C25.6019 19.971 24.5174 22.1805 22.6323 23.64C22.0799 24.0657 21.9785 24.8663 22.4042 25.4187C22.6525 25.7431 23.0275 25.9103 23.4076 25.9103V25.9002Z" fill="#E7C873"/>
<path d="M54.3507 63.4313H44.8184C47.4283 61.9212 49.6428 59.8029 51.2695 57.2691C52.5517 57.7353 53.8895 57.9836 55.273 57.9836C61.6633 57.9836 66.8627 52.8501 66.8627 46.5459C66.8627 40.2417 61.6633 35.1082 55.273 35.1082C54.9335 35.1082 54.5939 35.1285 54.2595 35.1538V32.7771C54.2595 31.4747 53.2003 30.4155 51.8979 30.4155H15.1574C13.855 30.4155 12.7958 31.4747 12.7958 32.7771V47.0983C12.7958 48.3551 12.9225 49.6068 13.1658 50.8281C12.0408 50.5696 10.7941 50.676 9.52214 51.1625C7.72819 51.8517 6.07613 53.2251 4.87509 55.0393C3.67406 56.8485 3.05073 58.9059 3.11661 60.8266C3.14702 61.7894 3.35986 62.6661 3.7146 63.4313H1.26692C0.567578 63.4313 0 63.9989 0 64.6983C0 65.3976 0.567578 65.9652 1.26692 65.9652H22.1913C22.1913 65.9652 22.1964 65.9652 22.2014 65.9652C22.2065 65.9652 22.2014 65.9652 22.2065 65.9652H54.3507C55.05 65.9652 55.6176 65.3976 55.6176 64.6983C55.6176 63.9989 55.05 63.4313 54.3507 63.4313ZM54.2595 43.2316C54.6547 43.0898 55.0754 43.0137 55.5061 43.0137C57.4926 43.0137 59.1042 44.5948 59.1042 46.5408C59.1042 48.4868 57.4876 50.0679 55.5061 50.0679C55.0247 50.0679 54.5585 49.9767 54.1176 49.7943C54.0973 49.7892 54.0821 49.7841 54.0618 49.7791C54.1885 48.9024 54.2544 48.0054 54.2544 47.0932V43.2266L54.2595 43.2316ZM55.273 37.6369C60.2647 37.6369 64.3289 41.6303 64.3289 46.5408C64.3289 51.4514 60.2647 55.4447 55.273 55.4447C54.3253 55.4447 53.398 55.2978 52.5061 55.019C52.9165 54.1373 53.2561 53.22 53.5297 52.2724C54.1632 52.4852 54.827 52.6018 55.5061 52.6018C58.8862 52.6018 61.638 49.8804 61.638 46.5408C61.638 43.2012 58.8862 40.4799 55.5061 40.4799C55.0804 40.4799 54.6649 40.5255 54.2595 40.6117V37.6978C54.5939 37.6623 54.9335 37.642 55.273 37.642V37.6369ZM51.7256 32.9443V36.7957H15.3297V32.9443H51.7256ZM24.4211 59.134C24.644 60.5529 23.6254 62.2607 21.8366 63.4313H14.4479C14.828 63.0158 15.1827 62.5648 15.502 62.0834C16.5206 60.5478 17.1186 58.835 17.2402 57.1779C17.3213 57.1474 17.4024 57.1069 17.4834 57.0765C19.6271 56.3113 21.8264 56.4785 23.1694 57.34L18.2487 60.6948L24.4211 59.139V59.134ZM5.65044 60.7404C5.60484 59.3417 6.0812 57.8164 6.98831 56.438C7.89542 55.0596 9.12179 54.0308 10.4293 53.5291C11.1691 53.2453 11.8685 53.1643 12.4867 53.2758L10.186 58.5613L14.1591 54.3856C14.5037 54.9126 14.6962 55.5917 14.7266 56.3822C14.7722 57.7809 14.3009 59.3063 13.3888 60.6847C12.6134 61.8553 11.5745 62.808 10.4647 63.3655C10.4242 63.3857 10.3938 63.4111 10.3583 63.4364H6.88695C6.13187 62.9094 5.69605 61.9567 5.65551 60.7455L5.65044 60.7404ZM31.6577 63.4313C29.7624 63.4313 27.9228 63.107 26.1694 62.4837C27.0056 60.9887 27.2336 59.3468 26.7015 57.862C25.5461 54.6187 21.3957 53.2149 17.1186 54.5376C15.9479 52.247 15.3246 49.698 15.3246 47.1033V39.3346H51.7206V47.1033C51.7206 56.1086 44.3927 63.4364 35.3875 63.4364H31.6526L31.6577 63.4313Z" fill="#E7C873"/>
<path d="M65.5909 63.4314H58.3289C57.6296 63.4314 57.062 63.999 57.062 64.6983C57.062 65.3976 57.6296 65.9652 58.3289 65.9652H65.5909C66.2902 65.9652 66.8578 65.3976 66.8578 64.6983C66.8578 63.999 66.2902 63.4314 65.5909 63.4314Z" fill="#E7C873"/>
</g>
<defs>
<clipPath id="clip0_478_270">
<rect width="66.8627" height="66" fill="white"/>
</clipPath>
</defs>
</svg>
