<svg width="76" height="71" viewBox="0 0 76 71" fill="none" xmlns="http://www.w3.org/2000/svg">
<g clip-path="url(#clip0_64_347)">
<path d="M41.8381 0.005752C46.5748 2.96233 47.2249 9.12374 43.4595 13.171C46.4215 15.9658 46.699 20.8363 44.2258 24.0348C43.553 24.9044 41.3751 27.2012 40.378 25.6716C39.523 24.3599 41.104 23.833 41.7623 23.1875C43.9435 21.051 44.0177 17.2455 41.901 15.0465C41.1718 14.2889 39.9747 14.0695 40.228 12.7178C40.3183 12.2405 42.0349 11.0761 42.5125 10.3458C44.0161 8.04425 43.6966 5.09088 41.8413 3.11609C40.862 2.07504 39.2326 1.65541 40.8701 0.00415039H41.8365L41.8381 0.005752Z" fill="#E7C873"/>
<path d="M0.0888513 70.1054C0.156611 70.2687 0.261476 70.4225 0.400221 70.5618C0.977787 71.14 1.949 70.9686 2.69435 70.9798C2.89602 70.983 3.09768 70.9798 3.29935 70.9798H57.0598C57.3696 70.9798 57.6809 70.9798 57.9907 70.9798C58.0004 70.9798 58.0084 70.9798 58.0181 70.9798C58.0649 70.9798 58.7425 70.5826 58.8183 70.4945C59.4895 69.7114 58.7651 68.4221 57.8568 68.4221H50.371C53.5799 66.0837 56.4371 63.2601 58.2585 59.7013C59.4491 59.7942 60.6462 60.3259 61.8836 60.4284C71.0182 61.1796 78.0103 52.856 75.4758 44.0567C73.706 37.9161 67.1704 33.9745 60.8366 35.1741C61.1673 33.478 60.0493 31.9052 58.3263 31.6714C57.0856 31.5032 53.9848 31.5321 52.699 31.6506C51.6697 31.7451 50.9663 32.1279 51.2164 33.2938C51.3245 33.7951 52.0956 34.2148 52.5441 34.2148H58.4198V36.4522H16.7237L16.7463 34.4758L17.1255 34.2132L47.2363 34.2196C48.9384 34.3493 49.9419 32.6244 48.2511 31.7627L16.4317 31.7659C15.2718 32.1183 14.3328 33.02 14.3021 34.2868C14.5861 39.6811 13.9472 45.4117 14.3021 50.7643C14.336 51.28 14.9136 54.07 14.791 54.1933C12.9018 53.7481 9.89941 54.3359 8.42969 55.63C7.42136 56.5173 8.14252 57.9427 9.22666 57.869C10.2882 57.7969 12.2549 55.859 13.8262 56.5941L9.44123 63.1896C8.89432 64.6278 10.648 65.6352 11.5676 64.3411L15.7606 58.0324C16.1413 57.7169 16.5108 59.2897 16.5447 59.5683C16.8431 61.974 15.8606 64.4517 14.3038 66.2599C13.6568 67.011 12.1758 68.3051 11.1723 68.4269C10.6093 68.4941 7.77307 68.5166 7.33909 68.39C6.32592 68.0969 5.76126 65.7538 5.76126 64.8264C5.76126 62.9557 6.75345 61.8939 7.14871 60.4348C7.60206 58.7659 5.79837 58.1813 4.83683 59.5779C3.29935 61.8106 2.79922 66.0164 4.1657 68.4237H1.18752C0.790643 68.4237 0.406674 68.6927 0.20017 69.0179C-0.0289206 69.3782 -0.0547336 69.7626 0.0888513 70.107V70.1054ZM60.835 51.5571V43.3248C65.0731 41.3307 69.5323 45.3364 67.6754 49.7168C66.5751 52.3114 63.313 53.3909 60.8285 52.0343L60.6946 51.8566C60.6688 51.7156 60.8366 51.6003 60.8366 51.5571H60.835ZM60.1929 54.5136C66.0831 56.828 72.1249 51.5555 70.218 45.4373C68.9999 41.5293 64.7198 39.5962 60.835 40.6068V37.8088C62.074 37.1714 63.8454 37.3571 65.2151 37.6166C68.9693 38.3261 72.0314 41.1786 73.1123 44.8014C75.571 53.0385 67.3947 60.2907 59.3862 57.3885L60.1929 54.512V54.5136ZM16.7237 39.0084H58.4198C58.2101 45.1426 59.2523 51.3264 56.7872 57.1291C54.998 61.3381 49.0078 68.0665 44.1791 68.4285C40.6347 68.6927 34.3234 68.728 30.8031 68.4285C30.2885 68.3852 29.9206 68.2251 29.4415 68.1001C32.7536 61.9499 27.1861 58.0308 21.3136 58.3543C20.7748 58.3831 19.3728 58.8524 19.0534 58.5177C15.8203 52.4748 16.9012 45.6071 16.7237 39.0116V39.0084ZM17.8789 65.3325C18.458 64.0705 18.8985 62.7732 19.0517 61.3814C21.6524 60.3115 25.6212 60.5789 27.349 62.983L19.5293 64.5718C18.2064 65.1115 18.7065 67.0479 20.1407 66.9422L27.8298 65.3838C27.8217 66.6763 26.6537 67.5652 25.818 68.4205H15.7557L17.8773 65.3325H17.8789Z" fill="#E7C873"/>
<path d="M74.5095 70.7635C75.3872 70.4288 75.4372 69.1139 74.7096 68.5981C74.111 68.1737 72.6284 68.3387 71.8734 68.3098C70.7005 68.265 69.5244 68.2506 68.3515 68.249C66.401 68.2458 64.336 68.1417 62.4032 68.4604C60.4108 68.7887 61.1271 70.9797 62.2032 70.9797C65.4121 70.9797 68.6193 70.9797 71.8282 70.9797C72.6284 70.9797 73.448 71.0054 74.2353 70.8436C74.3353 70.8228 74.4273 70.7971 74.5095 70.7651V70.7635Z" fill="#E7C873"/>
<path d="M31.9757 11.8577C32.9904 11.6752 34.7602 13.6163 35.3007 14.4091C37.3206 17.3769 37.1834 21.429 34.9119 24.219C34.252 25.0294 31.9143 27.2797 31.1351 25.5788C30.5059 24.203 32.0257 23.7353 32.7242 23.0066C34.5521 21.1007 34.7618 17.9407 33.2776 15.7769C32.8807 15.1987 31.1658 13.9078 31.0851 13.6403C30.8689 12.926 31.1561 12.0051 31.9757 11.8577Z" fill="#E7C873"/>
<path d="M49.6853 11.8594C50.2822 11.7537 51.1308 12.4199 51.5729 12.7995C55.2609 15.9563 55.3674 21.8695 51.7423 25.1079C50.9517 25.8142 49.9176 26.7384 48.9948 25.7502C47.7622 24.4288 50.2483 23.3574 50.9872 22.2795C52.486 20.0949 52.2295 17.252 50.5339 15.2692C49.9499 14.5853 48.4801 13.839 48.6269 12.9084C48.6866 12.5304 49.2965 11.9282 49.6837 11.8594H49.6853Z" fill="#E7C873"/>
</g>
<defs>
<clipPath id="clip0_64_347">
<rect width="76" height="71" fill="white"/>
</clipPath>
</defs>
</svg>
