<svg width="76" height="76" viewBox="0 0 76 76" fill="none" xmlns="http://www.w3.org/2000/svg">
<g clip-path="url(#clip0_40_78)">
<path d="M11.3068 59.2539C10.7805 58.183 10.4932 56.9551 10.8223 55.766C10.8681 55.6056 11.2291 54.6959 11.2786 54.6464L12.6359 53.2891C10.9691 51.647 9.25217 50.2189 8.98586 47.766C8.7237 45.3008 9.90995 43.5167 11.7284 41.9357C9.55194 38.076 12.6361 33.231 17.1431 33.7774C17.6977 33.8452 19.2989 34.3243 19.6552 34.6806L26.5637 41.589L41.527 26.6257L34.6185 19.7173C34.2622 19.361 33.779 17.7639 33.7153 17.2051C33.1607 12.6982 38.014 9.61399 41.8737 11.7905C43.4588 9.97609 45.2388 8.78575 47.704 9.04791C50.1692 9.31006 51.585 11.0311 53.227 12.6979L54.5843 11.3406C55.3517 10.5733 57.7558 10.6672 58.683 11.1405C59.6553 11.6343 62.6529 14.6401 63.4139 15.5826C64.0522 16.3777 64.3883 17.7369 64.2366 18.7486C64.1987 18.9913 63.7745 20.3246 63.6714 20.4277L62.3141 21.785C64.0219 23.4598 65.7306 24.8879 65.9679 27.4025C66.2014 29.8391 65.0029 31.578 63.2174 33.1424C63.9687 34.4878 64.1231 36.0861 63.6614 37.5634L62.8867 39.1981L61.8595 40.2253C60.2691 41.2424 58.4014 41.685 56.5954 41.0175C56.3861 40.9402 55.3889 40.4877 55.2948 40.3935L43.0135 28.1122L28.0502 43.0756L31.9446 46.97L44.8039 34.1107C45.6167 33.298 47.2064 34.6732 46.1915 35.688L33.423 48.4566L40.3314 55.365C40.4256 55.4592 40.8782 56.4563 40.9555 56.6657C41.6229 58.4717 41.1762 60.3353 40.1633 61.9297L39.136 62.957C37.2697 64.1435 35.0246 64.382 33.0804 63.2877C31.516 65.0732 29.777 66.2716 27.3405 66.0381C24.8218 65.7967 23.4018 64.088 21.7229 62.3843L20.3656 63.7416C20.2831 63.8241 18.9909 64.2564 18.7811 64.2942C17.6789 64.4873 16.743 64.1291 15.7581 63.7135L11.3067 59.2621L11.3068 59.2539ZM31.5933 61.9573L17.7354 48.0995C17.3259 47.69 18.1296 45.9689 19.5107 47.0694L34.0652 61.492C37.4697 63.4112 40.9581 59.2757 38.38 56.2025L18.9037 36.7261C15.5562 33.849 11.4595 37.9786 13.569 41.037C14.2191 41.9759 16.2524 43.4316 16.5164 44.2814C16.8252 45.2668 15.5322 45.8881 15.2333 45.5891L13.0547 43.4105C10.6718 45.3512 10.211 47.704 12.2327 50.0722C16.1943 54.6939 21.5011 59.0188 25.7637 63.397C26.6978 64.2073 29.2912 64.2512 30.1411 63.4013L31.5892 61.9532L31.5933 61.9573ZM36.6533 14.1198C35.3907 15.4315 35.3999 17.388 36.4922 18.7773L56.0545 38.3397C59.3241 41.1636 63.5472 37.3337 61.2707 33.8443L41.3562 13.9051C40.0329 12.7468 37.887 12.8369 36.6574 14.1239L36.6533 14.1198ZM61.8953 31.6553L63.3434 30.2072C64.1932 29.3574 64.1494 26.764 63.339 25.8298C59.0226 21.5465 54.7502 16.482 50.2027 12.4707C49.0146 11.4229 47.6445 10.6717 46.0192 11.1586C45.8464 11.2086 44.8625 11.6109 44.8089 11.6645L43.3608 13.1126L61.9035 31.6553L61.8953 31.6553ZM14.0282 54.6814C12.6141 55.8334 12.1369 57.0806 13.3974 58.5474C14.1627 59.4365 15.7555 61.0788 16.6448 61.7948C18.0095 62.879 19.3232 62.2041 20.3265 60.9879L14.0241 54.6855L14.0282 54.6814ZM60.9217 20.3927C62.138 19.3894 62.8169 18.0798 61.7286 16.711C61.0168 15.8176 59.3703 14.2207 58.4812 13.4636C57.0144 12.203 55.7672 12.6803 54.6152 14.0944L60.9176 20.3968L60.9217 20.3927Z" fill="#E7C873"/>
</g>
<defs>
<clipPath id="clip0_40_78">
<rect width="67.8309" height="38.2636" fill="white" transform="translate(0 47.9637) rotate(-45)"/>
</clipPath>
</defs>
</svg>
