<svg width="79" height="65" viewBox="0 0 79 65" fill="none" xmlns="http://www.w3.org/2000/svg">
<path d="M76.0172 22.1908C78.9297 20.0175 79.8856 15.9705 78.0948 12.6947L77.0433 10.7699C76.0937 9.03003 74.5196 7.76175 72.6204 7.2009C71.059 6.74202 69.4276 6.81213 67.9363 7.37298L67.8917 7.2965C65.2214 2.40821 59.32 0.381509 54.279 2.42095C53.3995 1.42035 52.2587 0.674679 50.9523 0.292283C49.136 -0.243071 47.2177 -0.0391266 45.5543 0.87225C43.891 1.77725 42.6801 3.28134 42.1448 5.09772C41.6095 6.9141 41.8134 8.83245 42.7247 10.4959L48.078 20.3107L24.6127 33.1146L19.2594 23.2998C18.3544 21.6363 16.8504 20.4254 15.0341 19.8901C13.2178 19.3547 11.2995 19.5587 9.63618 20.47C7.97283 21.375 6.76195 22.8791 6.22662 24.6955C5.84424 26.0084 5.84423 27.3659 6.21386 28.6469C1.76552 31.7889 0.274247 37.8435 2.93816 42.7318L2.98277 42.8083C0.0703155 44.9816 -0.885639 49.0222 0.905171 52.3045L1.95671 54.2292C2.90629 55.9691 4.48042 57.2374 6.37957 57.7982C7.07422 58.0022 7.78162 58.1041 8.48265 58.1041C9.36212 58.1041 10.2352 57.9384 11.0637 57.6261L11.102 57.7026C13.0712 61.3163 16.8122 63.3684 20.6678 63.3684C22.0253 63.3684 23.4018 63.1071 24.721 62.5782C25.6005 63.5788 26.7413 64.3181 28.0477 64.7068C28.7105 64.9044 29.3861 65 30.0616 65C31.2342 65 32.3941 64.7068 33.452 64.1269C35.1154 63.2219 36.3262 61.7178 36.8616 59.9014C37.3969 58.085 37.193 56.1667 36.2817 54.5032L30.9283 44.6884L50.4042 34.0642C51.0988 33.6818 51.3538 32.815 50.9778 32.1203C50.6018 31.4257 49.7286 31.1707 49.034 31.5468L29.5581 42.171L25.9956 35.6384L49.461 22.8345L59.7534 41.6994C60.6583 43.3628 62.1624 44.5737 63.9787 45.1091C64.6415 45.3066 65.317 45.4022 65.9925 45.4022C67.1652 45.4022 68.3251 45.1091 69.383 44.5291C72.3464 42.9103 73.6975 39.4687 72.8053 36.3522C77.2536 33.2102 78.7449 27.1556 76.081 22.2673L76.0364 22.1908H76.0172ZM4.46767 52.8653L3.41613 50.9406C2.83619 49.8699 2.70235 48.6398 3.04649 47.4735C3.28866 46.6514 3.74753 45.9312 4.37208 45.3704L9.66803 55.0768C7.67966 55.6186 5.50009 54.7518 4.46767 52.8653ZM34.1021 59.092C33.7834 60.1754 33.0633 61.0677 32.0691 61.6094C30.0234 62.7247 27.455 61.9727 26.3334 59.9269L14.384 38.022C14.008 37.3273 13.1349 37.0724 12.4403 37.4484C11.7456 37.8308 11.4907 38.6976 11.8667 39.3922L23.1596 60.099C19.5589 61.2908 15.4929 59.7803 13.6129 56.3324L7.27178 44.7139L5.44912 41.368C4.42307 39.4878 4.19363 37.3273 4.79906 35.2751C5.26429 33.6882 6.18837 32.3179 7.45023 31.3046L9.45135 34.9692C9.83373 35.6639 10.7005 35.9188 11.3951 35.5428C12.0898 35.1604 12.3447 34.2936 11.9687 33.5989L9.31753 28.7361C8.77582 27.7419 8.65473 26.6011 8.97338 25.5177C9.29203 24.4342 10.0122 23.5419 11.0064 23.0002C12.0006 22.4585 13.1413 22.3374 14.2247 22.6561C15.3081 22.9747 16.2004 23.6949 16.7421 24.6891L33.7643 55.8862C34.306 56.8805 34.4271 58.0213 34.1085 59.1047L34.1021 59.092ZM69.332 9.92865C71.3203 9.38693 73.4999 10.2537 74.5323 12.1402L75.5839 14.0649C76.1638 15.1356 76.2977 16.3656 75.9535 17.532C75.7113 18.3541 75.2525 19.0807 74.6279 19.6351L74.2456 18.9341L69.332 9.92865ZM67.9937 42.0117C66.9995 42.5534 65.8587 42.6745 64.7753 42.3558C63.6919 42.0371 62.7997 41.317 62.2579 40.3227L51.2773 20.2024L45.2357 9.12562C44.694 8.13139 44.5729 6.99058 44.8915 5.90713C45.2102 4.82367 45.9303 3.93141 46.9245 3.38969C47.5555 3.04553 48.2437 2.87345 48.9448 2.87345C49.3463 2.87345 49.7478 2.93081 50.1429 3.04553C51.2263 3.3642 52.1185 4.08437 52.6602 5.0786L61.1682 20.6803L69.6761 36.2821C70.7914 38.3279 70.033 40.9027 67.9873 42.018L67.9937 42.0117ZM71.5498 33.7073L65.4954 22.6114L55.834 4.90015C57.3699 4.39029 59.0205 4.35842 60.6073 4.82367C62.6594 5.42913 64.3547 6.79301 65.3807 8.67312L69.4594 16.1553L73.5445 23.6375C75.4245 27.0855 74.5005 31.3237 71.5498 33.7073Z" fill="#E7C873"/>
</svg>
