<svg width="65" height="65" viewBox="0 0 65 65" fill="none" xmlns="http://www.w3.org/2000/svg">
<g clip-path="url(#clip0_476_9)">
<path d="M37.5537 50.8003H27.4517C26.4518 50.8003 25.6385 49.9869 25.6385 48.9871V39.3669H16.0183C15.0184 39.3669 14.2051 38.5535 14.2051 37.5537V27.4517C14.2051 26.4518 15.0184 25.6385 16.0183 25.6385H25.6385V16.0183C25.6385 15.0184 26.4518 14.2051 27.4517 14.2051H37.5537C38.5535 14.2051 39.3669 15.0184 39.3669 16.0183V25.6385H48.9871C49.9869 25.6385 50.8003 26.4518 50.8003 27.4517V37.5537C50.8003 38.5535 49.9869 39.3669 48.9871 39.3669H39.3669V48.9871C39.3669 49.9869 38.5535 50.8003 37.5537 50.8003ZM29.2649 47.1739H35.7405V37.5537C35.7405 36.5538 36.5538 35.7405 37.5537 35.7405H47.1739V29.2649H37.5537C36.5538 29.2649 35.7405 28.4515 35.7405 27.4517V17.8314H29.2649V27.4517C29.2649 28.4515 28.4515 29.2649 27.4517 29.2649H17.8314V35.7405H27.4517C28.4515 35.7405 29.2649 36.5538 29.2649 37.5537V47.1739Z" fill="#E7C873"/>
<path d="M32.5026 65C14.578 65 0 50.422 0 32.5026C0 14.5832 14.578 0 32.5026 0C39.9056 0 47.1479 2.554 52.8983 7.19574C53.6754 7.82259 53.7997 8.96748 53.1729 9.74456C52.546 10.5216 51.4011 10.646 50.6241 10.0191C45.5161 5.89543 39.0819 3.62636 32.5026 3.62636C16.5777 3.62636 3.62636 16.5777 3.62636 32.5026C3.62636 48.4275 16.5777 61.3788 32.5026 61.3788C48.4275 61.3788 61.3788 48.4275 61.3788 32.5026C61.3788 27.6484 60.151 22.8513 57.8353 18.6292C57.3535 17.7536 57.6747 16.6502 58.5502 16.1684C59.4258 15.6866 60.5292 16.0078 61.011 16.8833C63.622 21.639 65.0052 27.0423 65.0052 32.5026C65.0052 50.422 50.4272 65.0052 32.5026 65.0052V65Z" fill="#E7C873"/>
</g>
<defs>
<clipPath id="clip0_476_9">
<rect width="65" height="65" fill="white"/>
</clipPath>
</defs>
</svg>
