<svg width="52" height="51" viewBox="0 0 52 51" fill="none" xmlns="http://www.w3.org/2000/svg">
<path d="M50.4766 16.0039H35.6823V1.49414C35.6823 0.668977 35.0002 0 34.1588 0H17.8412C16.9998 0 16.3177 0.668977 16.3177 1.49414V16.0039H1.52344C0.682094 16.0039 0 16.6729 0 17.4981V33.5019C0 34.3271 0.682094 34.9961 1.52344 34.9961H16.3177V49.5059C16.3177 50.331 16.9998 51 17.8412 51H34.1588C35.0002 51 35.6823 50.331 35.6823 49.5059V34.9961H50.4766C51.3179 34.9961 52 34.3271 52 33.5019V17.4981C52 16.6729 51.3179 16.0039 50.4766 16.0039ZM48.9531 32.0078H34.1588C33.3175 32.0078 32.6354 32.6768 32.6354 33.5019V48.0117H19.3646V33.5019C19.3646 32.6768 18.6825 32.0078 17.8412 32.0078H3.04688V18.9922H17.8412C18.6825 18.9922 19.3646 18.3232 19.3646 17.4981V2.98828H32.6354V17.4981C32.6354 18.3232 33.3175 18.9922 34.1588 18.9922H48.9531V32.0078Z" fill="#E7C873"/>
</svg>
