<svg width="162" height="34" viewBox="0 0 162 34" fill="none" xmlns="http://www.w3.org/2000/svg">
<path d="M11.2326 0V8.14147L22.5913 8.13962C25.2371 8.28248 27.3355 10.0729 27.7697 12.6983C27.9163 17.9806 27.7901 23.2834 27.8346 28.5731C27.6751 31.3117 25.6694 33.4305 22.9364 33.7088H0V0H11.2326ZM16.6002 15.5872H11.2326V26.2594H16.6002V15.5872Z" fill="#9DB3BE"/>
<path d="M138.503 8.15596L156.478 8.14111C159.097 8.36376 161.2 10.4641 161.422 13.0802V28.7675C161.211 31.4597 159.031 33.599 156.327 33.7548H138.783C136.02 33.5916 133.853 31.4727 133.641 28.7156L133.638 13.275C133.762 10.6125 135.849 8.41571 138.501 8.1541L138.503 8.15596ZM150.192 15.6369H144.874V26.2609H150.192V15.6369Z" fill="#9DB3BE"/>
<path d="M131.554 33.7571H120.371V15.6373H115.004V33.7571H103.845L103.771 33.6829V8.21572L103.942 8.13965H126.511C128.798 8.2788 130.808 9.88743 131.39 12.1028C131.429 12.2549 131.554 12.7132 131.554 12.8338V33.7571Z" fill="#9DB3BE"/>
<path d="M88.5138 19.459H77.3313L77.2812 15.6369H71.9637V26.2609H77.2812L77.3313 22.3887H88.5138V28.7694C88.2188 31.662 86.0684 33.6175 83.174 33.7586H66.0227C63.2043 33.6676 60.8999 31.4987 60.7292 28.6711V13.2286C60.887 10.5067 63.0188 8.37304 65.724 8.14111H83.5209C86.1797 8.33779 88.3153 10.4771 88.5156 13.1303V19.4609L88.5138 19.459Z" fill="#9DB3BE"/>
<path d="M41.1511 0.0498047V8.14118H45.823V15.2399H41.1511V26.4595H45.823V33.7568H34.9615C32.2711 33.6046 30.0911 31.5062 29.8684 28.8196V0.0498047H41.1529H41.1511Z" fill="#9DB3BE"/>
<path d="M58.6957 8.14111H47.4631V33.7567H58.6957V8.14111Z" fill="#9DB3BE"/>
<path d="M101.786 8.14111H90.5532V33.7567H101.786V8.14111Z" fill="#9DB3BE"/>
</svg>
