<svg width="183" height="29" viewBox="0 0 183 29" fill="none" xmlns="http://www.w3.org/2000/svg">
<path d="M179.265 0C177.181 0 175.531 1.70784 175.531 3.72966V3.74869C175.531 5.78478 177.157 7.46883 179.265 7.46883C181.374 7.46883 183 5.76099 183 3.72966V3.71063C183 1.6793 181.369 0 179.265 0ZM182.57 3.72966C182.57 5.54692 181.13 7.06447 179.265 7.06447C177.401 7.06447 175.961 5.56594 175.961 3.74869V3.72966C175.961 1.9124 177.396 0.409121 179.265 0.409121C181.135 0.409121 182.57 1.89337 182.57 3.70587V3.7249V3.72966ZM180.341 4.18635C180.81 3.99131 181.111 3.5917 181.111 3.00656C181.111 2.15502 180.475 1.73163 179.548 1.73163H178.199C177.941 1.73163 177.721 1.95046 177.721 2.22162V5.21391C177.721 5.46129 177.936 5.68012 178.199 5.68012C178.462 5.68012 178.668 5.46129 178.668 5.21391V4.36713H179.294L180.188 5.48507C180.298 5.58497 180.418 5.67536 180.58 5.67536C180.863 5.67536 181.049 5.48507 181.049 5.22818C181.049 5.09974 181.03 4.99508 180.92 4.88091L180.346 4.18159L180.341 4.18635ZM179.485 3.61073H178.663V2.5356H179.485C179.887 2.5356 180.145 2.72589 180.145 3.06841C180.145 3.3919 179.911 3.61073 179.485 3.61073ZM95.4498 26.531C95.4498 27.7679 96.4779 28.7526 97.7211 28.7526C98.9644 28.7526 99.9925 27.7726 99.9925 26.531V7.25H106.238C107.376 7.25 108.284 6.30807 108.284 5.17585C108.284 4.04364 107.376 3.11122 106.238 3.11122H89.2382C88.0762 3.11122 87.1533 4.04839 87.1533 5.17585C87.1533 6.30331 88.0762 7.25 89.2382 7.25H95.4498V26.531ZM9.53972 3.11122H2.2618C0.980272 3.11122 0 4.10072 0 5.3709V26.3122C0 27.5871 0.980272 28.5719 2.2618 28.5719H9.53494C17.5732 28.5719 23.1296 23.0059 23.1296 15.8415V15.7702C23.1296 8.60581 17.5732 3.11598 9.53494 3.11598L9.53972 3.11122ZM18.4195 15.9081C18.4195 20.8937 14.9049 24.4949 9.53494 24.4949H4.47578V7.17864H9.53494C14.9001 7.17864 18.4195 10.856 18.4195 15.8368V15.9081ZM60.5999 26.531C60.5999 27.7679 61.5945 28.7526 62.8713 28.7526C64.148 28.7526 65.0948 27.7726 65.0948 26.531V21.2648L69.2741 17.2544L77.5036 27.6918C77.9722 28.3054 78.5174 28.7479 79.3972 28.7479C80.6788 28.7479 81.6686 27.7964 81.6686 26.5738C81.6686 25.8745 81.4008 25.4416 81.0422 24.9611L72.4158 14.3097L80.3871 6.66486C80.8939 6.19865 81.1952 5.68012 81.1952 4.99508C81.1952 3.89616 80.3536 2.92093 79.1055 2.92093C78.307 2.92093 77.7475 3.21112 77.2358 3.75344L65.0948 15.9081V5.14255C65.0948 3.89616 64.1145 2.92093 62.8713 2.92093C61.628 2.92093 60.5999 3.89616 60.5999 5.14255V26.5262V26.531ZM126.909 2.66404C119.048 2.66404 113.492 8.67241 113.492 15.8368V15.9081C113.492 23.082 118.972 29 126.838 29C134.704 29 140.255 23.0011 140.255 15.8368V15.7654C140.255 8.60105 134.761 2.66404 126.909 2.66404ZM135.536 15.9081C135.536 20.8556 131.988 24.8517 126.909 24.8517C121.831 24.8517 118.206 20.7843 118.206 15.8368V15.7654C118.206 10.8227 121.755 6.78379 126.838 6.78379C131.921 6.78379 135.536 10.8893 135.536 15.8415V15.9129V15.9081ZM149.102 26.5738C149.102 27.7679 150.087 28.7479 151.335 28.7479C152.583 28.7479 153.525 27.7679 153.525 26.5738V10.4135L166.684 27.3588C167.311 28.1627 167.966 28.7098 169.032 28.7098H169.209C170.453 28.7098 171.404 27.7298 171.404 26.4882V5.11401C171.404 3.90092 170.409 2.92093 169.171 2.92093C167.933 2.92093 166.981 3.89616 166.981 5.11401V20.751L154.185 4.27198C153.558 3.50607 152.951 2.95423 151.851 2.95423H151.373C150.087 2.95423 149.102 3.98179 149.102 5.20915V26.5738ZM48.3919 15.8225C48.3919 14.7141 47.4882 13.8102 46.3836 13.8102H40.5689C39.4547 13.8102 38.5558 14.7093 38.5558 15.8225C38.5558 16.9357 39.4547 17.8301 40.5689 17.8301H46.3836C47.493 17.8301 48.3919 16.9309 48.3919 15.8225ZM36.7817 24.5663H49.6257C50.7111 24.5663 51.6245 25.4797 51.6245 26.5691C51.6245 27.6585 50.7111 28.5671 49.6257 28.5671H34.5534C33.2766 28.5671 32.3012 27.5823 32.3012 26.3074V5.36614C32.3012 4.09596 33.2766 3.10646 34.5534 3.10646H49.4296C50.5438 3.10646 51.4523 4.01509 51.4523 5.10925C51.4523 6.20341 50.5438 7.10728 49.4296 7.10728H36.7817V24.5615V24.5663Z" fill="#9DB3BE"/>
</svg>
