<svg width="14" height="11" viewBox="0 0 14 11" fill="none" xmlns="http://www.w3.org/2000/svg">
<g clip-path="url(#clip0_78_2224)">
<path d="M13.8608 0.486979C13.8608 0.486979 13.8608 0.386719 13.8309 0.34375C13.816 0.300781 13.7713 0.257813 13.7414 0.214844C13.7414 0.200521 13.7265 0.171875 13.7116 0.157552C13.6519 0.10026 13.5923 0.0572917 13.5177 0.0429688C13.4431 0.0143229 13.3686 0 13.294 0H0.705922C0.705922 0 0.661177 0 0.631348 0C0.586603 0 0.526944 0 0.4822 0.0286458C0.407626 0.0572917 0.347967 0.10026 0.288308 0.157552C0.228649 0.214844 0.198819 0.272135 0.16899 0.34375C0.154075 0.386719 0.13916 0.44401 0.13916 0.486979C0.13916 0.515625 0.13916 0.529948 0.13916 0.558594V10.4414C0.13916 10.7422 0.392711 11 0.720836 11H13.3089C13.6221 11 13.8906 10.7565 13.8906 10.4414V0.558594C13.8906 0.558594 13.8906 0.515625 13.8906 0.486979H13.8608ZM11.8771 1.11719L6.97013 5.74349L2.10791 1.11719H11.8771ZM1.2876 9.88281V1.89063L6.56743 6.91797C6.68675 7.03255 6.82098 7.07552 6.97013 7.07552C7.11927 7.07552 7.26842 7.01823 7.37283 6.91797L12.7123 1.8763V9.86849H1.2876V9.88281Z" fill="#B0C4CC"/>
</g>
<defs>
<clipPath id="clip0_78_2224">
<rect width="14" height="11" fill="white"/>
</clipPath>
</defs>
</svg>
