<svg width="10" height="18" viewBox="0 0 10 18" fill="none" xmlns="http://www.w3.org/2000/svg">
<path d="M6.28502 13.8256C6.28502 15.0972 6.28502 16.3689 6.28502 17.6169C6.28502 17.8053 6.2363 17.876 6.01705 17.876C5.06699 17.876 4.11693 17.876 3.14251 17.876C2.87454 17.876 2.85018 17.7818 2.85018 17.5698C2.85018 15.0737 2.85018 12.5775 2.85018 10.1049C2.85018 9.85376 2.72026 9.72817 2.46041 9.72817C1.7296 9.72817 0.998781 9.72817 0.267965 9.72817C0.0487202 9.72817 0 9.65752 0 9.46913C0 8.57429 0 7.67945 0 6.80815C0 6.61976 0.0487202 6.54912 0.267965 6.54912C1.0475 6.54912 1.80268 6.54912 2.58222 6.54912C2.80146 6.54912 2.87454 6.47847 2.87454 6.26653C2.87454 5.58363 2.87454 4.87717 2.87454 4.19426C2.87454 3.34652 3.02071 2.54587 3.48356 1.81586C4.11693 0.779729 5.06699 0.238113 6.26066 0.0732738C7.33252 -0.0680173 8.40439 0.0261768 9.47625 0.0968223C9.64677 0.0968223 9.6955 0.167468 9.6955 0.332308C9.6955 1.13296 9.6955 1.95716 9.6955 2.7578C9.6955 2.94619 9.62241 2.96974 9.45189 2.96974C8.79415 2.96974 8.13642 2.92264 7.47868 2.99329C6.79659 3.06394 6.38246 3.46426 6.3581 4.12362C6.30938 4.85362 6.3581 5.60718 6.3581 6.36073C6.3581 6.54912 6.50426 6.52557 6.62607 6.52557C7.50305 6.52557 8.40439 6.52557 9.28137 6.52557C9.64677 6.52557 9.62241 6.52557 9.57369 6.8788C9.45189 7.72654 9.33009 8.57429 9.23264 9.42204C9.20828 9.63397 9.1352 9.72817 8.8916 9.72817C8.13642 9.72817 7.38124 9.72817 6.60171 9.72817C6.38246 9.72817 6.33374 9.79881 6.33374 9.9872C6.33374 11.2588 6.33374 12.5304 6.33374 13.8021L6.28502 13.8256Z" fill="#7192A2"/>
</svg>
