<svg width="19" height="18" viewBox="0 0 19 18" fill="none" xmlns="http://www.w3.org/2000/svg">
<path d="M9.14129 17.8733C7.55786 17.8498 5.87698 17.9675 4.1961 17.6614C1.88185 17.2611 0.274056 15.4949 0.127893 13.2107C-0.0426309 10.3849 -0.0426309 7.55907 0.127893 4.7097C0.274056 2.19001 2.19854 0.306131 4.85384 0.141291C7.82582 -0.047097 10.7734 -0.047097 13.7454 0.141291C16.2789 0.306131 18.2278 2.19001 18.3739 4.66261C18.5688 7.53553 18.5688 10.432 18.3739 13.3049C18.2034 15.7775 16.2058 17.6143 13.648 17.8027C12.1864 17.8969 10.7247 17.8733 9.14129 17.8969V17.8733ZM16.8149 9.01908C16.8149 7.79456 16.8392 6.59358 16.8149 5.36906C16.7418 3.13195 15.743 1.93098 13.4775 1.74259C10.7004 1.50711 7.87454 1.53065 5.09744 1.74259C2.95372 1.90743 1.97929 2.84937 1.80877 4.92164C1.58953 7.58262 1.58953 10.2672 1.80877 12.9281C1.97929 15.1181 2.92935 16.0365 5.17052 16.2014C7.8989 16.4133 10.6516 16.4133 13.38 16.2014C15.743 16.013 16.7661 14.7885 16.8149 12.4572C16.8149 11.3033 16.8149 10.173 16.8149 9.01908Z" fill="#7192A2"/>
<path d="M9.31172 4.38009C11.9183 4.38009 14.0133 6.45236 13.9889 9.01914C13.9889 11.5153 11.8209 13.5405 9.21428 13.5405C6.6077 13.5405 4.5127 11.4446 4.5127 8.87785C4.5127 6.38171 6.68078 4.35654 9.28736 4.38009H9.31172ZM9.21428 11.9156C10.9439 11.9156 12.2837 10.6675 12.3324 9.01914C12.3568 7.37075 11.017 6.00493 9.36044 5.98139C7.58212 5.95784 6.21793 7.22946 6.19357 8.9485C6.19357 10.5969 7.50904 11.8921 9.23864 11.9156H9.21428Z" fill="#7192A2"/>
<path d="M5.43854 4.19141C5.43854 4.80367 4.97569 5.25109 4.34232 5.25109C3.7333 5.25109 3.24609 4.78012 3.24609 4.19141C3.24609 3.6027 3.70894 3.15527 4.31796 3.15527C4.95133 3.15527 5.43854 3.6027 5.43854 4.21496V4.19141Z" fill="#7192A2"/>
</svg>
