<svg width="155" height="47" viewBox="0 0 155 47" fill="none" xmlns="http://www.w3.org/2000/svg">
<path d="M132.991 0.701487V5.54738C132.59 5.15921 132.17 4.79608 131.732 4.45799C128.475 1.90983 124.441 0.688965 120.401 0.688965C120.32 0.688965 120.239 0.695226 120.157 0.695226H114.908V34.7166H120.257V6.01694C126.64 6.06077 132.321 9.62945 132.972 17.875L132.991 18.0691V34.7166H138.34V0.701487H132.991Z" fill="#9DB3BE"/>
<path d="M23.5754 34.7102L6.51388 12.5405C8.24884 8.42716 12.0069 5.45326 18.1074 5.39065H18.7588V0.0939778L18.1262 0.0751953C18.0824 0.0751953 18.0573 0.0751953 18.0385 0.0751953C12.9589 0.0751953 8.7186 1.83449 5.69337 4.63935V0.713801H0.0500488V34.7227H5.7059V20.0786L16.6919 34.7102H23.5816H23.5754Z" fill="#9DB3BE"/>
<path d="M49.5811 0.0751953C49.5372 0.0751953 49.5122 0.0751953 49.4934 0.0751953C44.2259 0.0751953 39.8603 1.97223 36.8163 4.95239V0.713801H31.1604V34.7227H36.8163V18.1127C36.9791 11.3948 40.9188 5.47204 49.556 5.38439H50.2074V0.100239L49.5748 0.0751953H49.5811Z" fill="#9DB3BE"/>
<path d="M91.0885 5.45946C91.2827 5.45946 91.4831 5.45945 91.6836 5.47198C96.688 5.72867 100.834 8.95927 102.507 13.3606V4.20103C99.6443 1.77182 95.9928 0.231651 91.9529 0.0250434C91.6522 0.0125217 91.3579 0 91.0635 0C86.6979 0 82.6643 1.59652 79.5576 4.25737V13.5422C81.2738 8.79022 85.821 5.45319 91.0885 5.45319" fill="#9DB3BE"/>
<path d="M91.0635 29.5825C90.8631 29.5825 90.6626 29.5762 90.4622 29.57C85.8899 29.3195 81.2926 26.3456 79.5576 21.5874V30.7533C82.5828 33.3077 86.3847 34.8228 90.1929 35.0169L90.2305 34.3595L90.1991 35.0169C90.4935 35.0294 90.7879 35.0357 91.0885 35.0357C95.4165 35.0357 99.4126 33.4642 102.507 30.8409V21.6751C100.747 26.3269 96.2558 29.5762 91.0697 29.5762" fill="#9DB3BE"/>
<path d="M67.3941 0.701172V34.7288H62.0452V0.701172" fill="#9DB3BE"/>
<path d="M147.653 6.10439H148.311C149.081 6.10439 149.702 5.84769 149.702 5.22787C149.702 4.67691 149.301 4.31379 148.418 4.31379C148.054 4.31379 147.797 4.35135 147.647 4.38892V6.11065L147.653 6.10439ZM147.616 9.47272H146.225V3.50614C146.777 3.39344 147.541 3.28701 148.53 3.28701C149.664 3.28701 150.178 3.46857 150.616 3.76283C150.948 4.01953 151.205 4.49535 151.205 5.0463C151.205 5.74126 150.691 6.25465 149.958 6.47378V6.54891C150.541 6.73047 150.873 7.20629 151.054 8.01394C151.236 8.92803 151.349 9.29742 151.493 9.47898H149.99C149.808 9.25985 149.695 8.74646 149.514 8.05151C149.407 7.39412 149.038 7.09986 148.267 7.09986H147.61V9.47898L147.616 9.47272ZM148.53 1.56528C145.893 1.56528 143.92 3.72527 143.92 6.36108C143.92 8.99689 145.893 11.1569 148.605 11.1569C151.242 11.1945 153.184 9.03446 153.184 6.36108C153.184 3.6877 151.242 1.56528 148.568 1.56528H148.53ZM148.605 0.356934C152.05 0.356934 154.719 3.03031 154.719 6.36108C154.719 9.69185 152.044 12.3965 148.568 12.3965C145.092 12.3965 142.38 9.76072 142.38 6.36108C142.38 2.96144 145.123 0.356934 148.568 0.356934H148.605Z" fill="#9DB3BE"/>
<path d="M0.0814242 42.7366V44.3644C0.0814242 44.7776 0.0751608 45.1908 0.0501072 45.5915C0.0375804 45.9922 0.0187902 46.3929 0 46.7811C0.144058 46.7685 0.300643 46.7623 0.463492 46.7623C0.62634 46.7623 0.782925 46.7685 0.926983 46.7811C0.908193 46.3929 0.889403 45.9922 0.870613 45.5915C0.858086 45.1908 0.851823 44.7776 0.851823 44.3644V43.8447C0.977091 43.8573 1.10236 43.8635 1.22136 43.876H1.62222C1.8477 43.876 2.1045 43.851 2.39888 43.8009C2.69326 43.7446 2.97512 43.6507 3.23191 43.5067C3.49498 43.3627 3.7142 43.1623 3.89584 42.9056C4.07747 42.6489 4.17143 42.3108 4.17143 41.8914C4.17143 41.6284 4.13384 41.403 4.05868 41.2277C3.98352 41.0461 3.88331 40.8959 3.75804 40.7769C3.63904 40.658 3.50124 40.5703 3.35092 40.5014C3.2006 40.4388 3.04401 40.3887 2.88743 40.3574C2.73711 40.3261 2.59305 40.3074 2.45525 40.3011C2.31746 40.2948 2.19845 40.2886 2.1045 40.2886C2.03561 40.2886 1.94792 40.2886 1.8477 40.3011C1.74749 40.3074 1.64101 40.3136 1.52827 40.3199C1.42179 40.3199 1.31531 40.3199 1.20884 40.3324C1.10236 40.3387 1.00841 40.3449 0.933247 40.3449C0.782925 40.3449 0.62634 40.3449 0.469755 40.3324C0.319433 40.3199 0.169112 40.3074 0.0125268 40.2948C0.031317 40.7081 0.0501072 41.1213 0.062634 41.522C0.0814242 41.9227 0.093951 42.3234 0.093951 42.7428M0.858086 43.4503V40.6454H1.70991C1.95418 40.6454 2.1734 40.6642 2.37383 40.7018C2.56799 40.7331 2.73711 40.7957 2.86864 40.8959C3.00643 40.9898 3.11291 41.1213 3.18807 41.2903C3.26323 41.4656 3.30081 41.6785 3.30081 41.954C3.30081 42.2733 3.24444 42.5425 3.1317 42.7428C3.02522 42.9432 2.88116 43.106 2.70579 43.2249C2.53668 43.3376 2.34878 43.419 2.14208 43.4566C1.93539 43.5004 1.7287 43.5254 1.5408 43.5254C1.30905 43.5254 1.08357 43.4941 0.870613 43.4503" fill="#9DB3BE"/>
<path d="M10.9672 43.5503C10.9672 44.0762 10.8983 44.527 10.7668 44.9089C10.6353 45.2908 10.4474 45.6038 10.2094 45.8543C9.97761 46.0985 9.69576 46.28 9.37632 46.399C9.06315 46.5179 8.71866 46.5743 8.34286 46.5743C7.96706 46.5743 7.6351 46.5179 7.3094 46.399C6.99623 46.28 6.71438 46.0985 6.47637 45.8543C6.24462 45.6038 6.05672 45.2845 5.92519 44.9089C5.79366 44.527 5.72476 44.0762 5.72476 43.5503C5.72476 43.0244 5.78739 42.5799 5.92519 42.1979C6.05672 41.8098 6.23836 41.4967 6.47637 41.2526C6.71438 41.0021 6.99623 40.8143 7.3094 40.6953C7.62883 40.5764 7.97332 40.52 8.34286 40.52C8.7124 40.52 9.05689 40.5826 9.37632 40.6953C9.69576 40.8143 9.97761 41.0021 10.2094 41.2526C10.4474 41.4967 10.6353 41.816 10.7668 42.1979C10.8983 42.5736 10.9672 43.0244 10.9672 43.5503ZM4.8103 43.5503C4.8103 44.0887 4.89799 44.5645 5.0671 44.9903C5.24248 45.4035 5.48675 45.7604 5.79366 46.0484C6.10683 46.3426 6.48263 46.5555 6.92107 46.6995C7.35951 46.8435 7.83552 46.9061 8.34912 46.9061C8.86272 46.9061 9.35127 46.8372 9.78344 46.6995C10.2219 46.5555 10.5914 46.3426 10.8983 46.0484C11.2115 45.7541 11.4558 45.4035 11.6311 44.9903C11.8065 44.5645 11.8942 44.0887 11.8942 43.5503C11.8942 43.0119 11.8065 42.5423 11.6311 42.1291C11.462 41.7033 11.2178 41.3465 10.8983 41.0585C10.5914 40.7642 10.2219 40.5451 9.78344 40.3948C9.35127 40.2446 8.86899 40.1694 8.34912 40.1694C7.82926 40.1694 7.35324 40.2446 6.92107 40.3948C6.48889 40.5451 6.11309 40.7642 5.79366 41.0585C5.48675 41.3465 5.24248 41.7033 5.0671 42.1291C4.89799 42.5423 4.8103 43.0181 4.8103 43.5503Z" fill="#9DB3BE"/>
<path d="M13.9924 43.2813V42.7429C13.9924 42.4048 13.9987 42.0667 14.0112 41.7224C14.0238 41.3843 14.0363 41.0337 14.0488 40.6894C14.149 40.6768 14.2743 40.6706 14.4183 40.6581C14.5624 40.6455 14.744 40.6393 14.9633 40.6393C15.1261 40.6393 15.2952 40.6581 15.4643 40.6956C15.6334 40.7269 15.79 40.7895 15.9341 40.8834C16.0782 40.9774 16.1972 41.1088 16.2848 41.2716C16.3788 41.4281 16.4289 41.6285 16.4289 41.8727C16.4289 42.1544 16.3725 42.3923 16.2473 42.5801C16.1345 42.768 15.9905 42.912 15.8088 43.0246C15.6334 43.1311 15.4393 43.2062 15.2201 43.25C15.0134 43.2939 14.8129 43.3189 14.6125 43.3189C14.4872 43.3189 14.3682 43.3127 14.2618 43.3064C14.1616 43.3064 14.0676 43.2876 13.9799 43.2688M13.2158 42.7367V44.3645C13.2158 44.7777 13.2095 45.1909 13.1845 45.5916C13.1719 45.9923 13.1531 46.393 13.1344 46.7812C13.2784 46.7686 13.435 46.7624 13.5978 46.7624C13.7607 46.7624 13.9173 46.7686 14.0613 46.7812C14.0425 46.393 14.0238 45.9923 14.005 45.5916C13.9924 45.1909 13.9862 44.7777 13.9862 44.3645V43.6758H14.3432C14.5436 43.8824 14.7691 44.1391 15.0008 44.4396C15.2451 44.7401 15.4894 45.0344 15.7211 45.3412C15.9529 45.6479 16.1658 45.9297 16.3537 46.1926C16.5479 46.4556 16.692 46.6559 16.7859 46.7874C16.8736 46.7749 16.9676 46.7686 17.0615 46.7686H17.6189C17.7129 46.7686 17.8068 46.7749 17.9008 46.7874C17.8131 46.6998 17.6941 46.5683 17.5501 46.3992C17.406 46.2302 17.2494 46.0424 17.0866 45.842C16.9237 45.6354 16.7546 45.4163 16.573 45.1972C16.3976 44.9718 16.2285 44.7589 16.0656 44.5523C15.9028 44.3457 15.7525 44.1579 15.6209 43.9888C15.4894 43.8198 15.3829 43.6883 15.3078 43.5881C15.4894 43.5631 15.6898 43.513 15.909 43.4379C16.1345 43.3502 16.3475 43.2438 16.5416 43.106C16.7358 42.962 16.8987 42.7805 17.0365 42.5676C17.1742 42.3485 17.2431 42.0855 17.2431 41.785C17.2431 41.4845 17.1868 41.2654 17.0803 41.0775C16.9801 40.8897 16.836 40.7394 16.6544 40.6205C16.479 40.5015 16.2723 40.4139 16.0343 40.3701C15.7963 40.3137 15.5395 40.2949 15.2764 40.2949C15.0948 40.2949 14.9132 40.3074 14.7378 40.3262C14.5624 40.3387 14.3808 40.345 14.1991 40.345C14.0175 40.345 13.8359 40.345 13.6605 40.3387C13.4851 40.3262 13.3035 40.3137 13.1218 40.3012C13.1406 40.7144 13.1531 41.1276 13.1719 41.5283C13.1907 41.929 13.2032 42.3297 13.2032 42.7492" fill="#9DB3BE"/>
<path d="M23.8824 46.3993L23.9701 45.8421L23.9325 45.8045C23.8449 45.8734 23.7321 45.9548 23.6006 46.0487C23.4753 46.1364 23.3313 46.2178 23.1622 46.3054C23.0056 46.3805 22.8302 46.4431 22.6298 46.5058C22.4419 46.5621 22.2352 46.5934 22.0034 46.5934C21.6339 46.5934 21.2831 46.5308 20.9637 46.4118C20.6505 46.2929 20.3749 46.1113 20.1369 45.8671C19.9052 45.6167 19.7173 45.2974 19.5857 44.9218C19.4542 44.5398 19.3853 44.0828 19.3853 43.5632C19.3853 43.0435 19.448 42.5865 19.5857 42.2108C19.7173 41.8226 19.8989 41.5096 20.1369 41.2654C20.3749 41.015 20.6568 40.8272 20.9637 40.7082C21.2831 40.5893 21.6339 40.5329 22.0034 40.5329C22.2289 40.5329 22.4419 40.5642 22.6298 40.6268C22.8177 40.6832 22.9868 40.752 23.1434 40.846C23.2937 40.9336 23.4252 41.0213 23.538 41.1214C23.6507 41.2153 23.7384 41.2967 23.801 41.3781L23.8574 41.3593C23.8762 41.2592 23.9012 41.1339 23.9325 40.9837C23.9639 40.8334 24.0014 40.7145 24.0578 40.6268C23.7948 40.5079 23.4878 40.4077 23.1434 40.3263C22.8051 40.2386 22.4231 40.1948 22.0097 40.1948C21.4836 40.1948 21.0075 40.27 20.5754 40.4202C20.1432 40.5705 19.7674 40.7959 19.448 41.0839C19.141 41.3719 18.8968 41.7287 18.7214 42.1482C18.5523 42.5677 18.4646 43.0435 18.4646 43.5819C18.4646 44.1204 18.5523 44.5962 18.7214 45.0157C18.8968 45.4289 19.1348 45.7858 19.4417 46.0738C19.7486 46.368 20.1181 46.5809 20.5378 46.7249C20.9637 46.8626 21.4209 46.9315 21.9157 46.9315C22.1475 46.9315 22.373 46.9127 22.5859 46.8751C22.7989 46.8376 22.993 46.8 23.1622 46.7499C23.3375 46.6998 23.4878 46.6498 23.6069 46.5871C23.7321 46.5245 23.8261 46.4682 23.8824 46.4181" fill="#9DB3BE"/>
<path d="M25.2979 42.7307V44.3523C25.2979 44.7655 25.2916 45.1787 25.2666 45.5794C25.254 45.9801 25.2353 46.3808 25.2227 46.7815C25.5108 46.7689 25.799 46.7627 26.0808 46.7627H27.7907C28.0726 46.7627 28.3544 46.7689 28.6425 46.7815C28.6238 46.7189 28.6112 46.6375 28.6112 46.5373V46.3933C28.6112 46.3369 28.63 46.2869 28.6425 46.243C28.4922 46.2743 28.3106 46.2994 28.1039 46.3182C27.9035 46.3307 27.6842 46.3432 27.4525 46.3557C27.227 46.3557 26.989 46.362 26.751 46.362H26.0871C26.0871 46.243 26.0746 46.0677 26.0683 45.8298V43.7575C26.0683 43.6886 26.0746 43.626 26.0746 43.5697C26.1873 43.5697 26.3376 43.5697 26.5255 43.5822C26.7197 43.5822 26.9264 43.5822 27.1393 43.5947C27.3586 43.5947 27.5778 43.5947 27.7907 43.6135C28.0099 43.626 28.2041 43.6448 28.367 43.6573C28.3482 43.5634 28.3356 43.4695 28.3356 43.3756C28.3356 43.2754 28.3419 43.1752 28.367 43.0813C28.2292 43.0938 28.0788 43.1064 27.9223 43.1189C27.7719 43.1251 27.6028 43.1377 27.4212 43.1502C27.2395 43.1564 27.0329 43.1627 26.8136 43.169C26.5944 43.1752 26.3439 43.1752 26.0683 43.1752C26.0683 43.0563 26.0683 42.881 26.062 42.6431V41.9231C26.062 41.6914 26.062 41.4848 26.0683 41.297C26.0808 41.1154 26.0871 40.9213 26.0933 40.721C26.4065 40.721 26.6696 40.7272 26.8888 40.7398C27.108 40.7398 27.3147 40.7523 27.4963 40.7711C27.6842 40.7836 27.8596 40.7961 28.0287 40.8086C28.1978 40.8211 28.3857 40.8337 28.5862 40.8462C28.5674 40.7523 28.5549 40.6584 28.5549 40.5645C28.5549 40.4705 28.5611 40.3766 28.5862 40.2827C28.3043 40.2952 28.0225 40.314 27.7406 40.3203C27.465 40.3265 27.1832 40.3328 26.9013 40.3328C26.6195 40.3328 26.3376 40.3328 26.0495 40.3203C25.7739 40.3078 25.4921 40.2952 25.2102 40.2827C25.229 40.6897 25.2415 41.0904 25.254 41.4911C25.2728 41.8918 25.2854 42.305 25.2854 42.7182" fill="#9DB3BE"/>
<path d="M30.0268 42.7366V44.3644C30.0268 44.7776 30.0143 45.1908 30.0018 45.5915C29.9892 45.9922 29.9705 46.3929 29.9517 46.7811C30.2523 46.7685 30.5404 46.7623 30.8223 46.7623H32.5698C32.8579 46.7623 33.146 46.7685 33.4404 46.7811C33.4091 46.6809 33.3965 46.5995 33.3965 46.5244C33.3965 46.4492 33.4153 46.3553 33.4404 46.2426C32.9706 46.3052 32.5259 46.3428 32.1188 46.3553C31.7054 46.3616 31.2795 46.3679 30.8348 46.3679C30.8348 45.9108 30.8223 45.3912 30.816 44.8089C30.8097 44.2204 30.8035 43.5317 30.8035 42.7366C30.8035 42.3234 30.8097 41.9164 30.8223 41.5157C30.8411 41.115 30.8599 40.7018 30.8786 40.2886C30.7972 40.3011 30.7158 40.3136 30.6406 40.3261C30.5655 40.3324 30.4903 40.3324 30.4152 40.3324C30.34 40.3324 30.2648 40.3324 30.1897 40.3261C30.1145 40.3136 30.0331 40.3011 29.9517 40.2886C29.9705 40.7018 29.983 41.115 30.0018 41.5157C30.0206 41.9164 30.0268 42.3171 30.0268 42.7366Z" fill="#9DB3BE"/>
<path d="M39.9732 46.7875C39.8855 46.775 39.7978 46.7688 39.7164 46.7688H39.2153C39.1401 46.7688 39.0587 46.775 38.971 46.7875C38.9272 46.6435 38.8645 46.4682 38.7894 46.2679C38.7142 46.0613 38.6265 45.8422 38.5326 45.623C38.4449 45.3976 38.3509 45.166 38.257 44.9406C38.163 44.7089 38.0754 44.4898 37.9939 44.2769C37.7935 44.2707 37.5868 44.2644 37.3801 44.2644C37.1734 44.2644 36.9667 44.2582 36.7538 44.2582C36.5596 44.2582 36.3654 44.2582 36.1775 44.2644C35.9896 44.2644 35.7955 44.2644 35.6013 44.2769C35.4009 44.7653 35.213 45.2411 35.0564 45.6856C34.8935 46.1239 34.7683 46.4933 34.6869 46.7813C34.5804 46.7688 34.4614 46.7625 34.3361 46.7625C34.2108 46.7625 34.0918 46.7688 33.9854 46.7813C34.4927 45.6794 34.9938 44.5837 35.4823 43.4943C35.9646 42.3987 36.4531 41.2905 36.9479 40.1636H37.1296C37.2799 40.5267 37.4427 40.9211 37.6244 41.3531C37.7998 41.7789 37.9814 42.2046 38.163 42.6366C38.3447 43.0686 38.5263 43.5006 38.7142 43.9263C38.8959 44.3583 39.065 44.759 39.2216 45.1284C39.3844 45.4916 39.5285 45.8234 39.66 46.1114C39.7915 46.4056 39.898 46.6248 39.9794 46.7688M35.7892 43.8449C35.9521 43.8449 36.1212 43.8449 36.2965 43.8512C36.4719 43.8575 36.6473 43.8637 36.8101 43.8637H37.3425C37.5179 43.8575 37.6933 43.8512 37.8749 43.8449L36.8227 41.447L35.7892 43.8449Z" fill="#9DB3BE"/>
<path d="M46.3868 46.9064H46.5183V46.5934C46.5183 46.4431 46.5183 46.2678 46.512 46.0612C46.512 45.8546 46.512 45.6292 46.4995 45.3976C46.4995 45.1596 46.4995 44.928 46.4932 44.6901V43.4504C46.4932 43.2689 46.4932 43.0247 46.512 42.7242C46.5246 42.4237 46.5371 42.1106 46.5496 41.7976C46.5684 41.4783 46.5809 41.184 46.5997 40.9085C46.6185 40.6331 46.631 40.4202 46.6436 40.2824C46.5183 40.3138 46.4181 40.3325 46.3429 40.3325C46.2552 40.3325 46.1488 40.3138 46.0235 40.2824C46.0548 40.8397 46.0736 41.4282 46.0799 42.0605C46.0924 42.6803 46.0987 43.3252 46.0987 43.9826V45.2723C45.8043 44.9781 45.4661 44.6275 45.0777 44.2205C44.6894 43.8073 44.2823 43.3628 43.8501 42.9057C43.4179 42.4424 42.9857 41.9729 42.5473 41.497C42.1151 41.015 41.7017 40.5704 41.3197 40.1572H41.1694C41.1819 40.3701 41.1881 40.6957 41.1881 41.1277C41.1881 41.5659 41.1944 42.0856 41.1944 42.6929C41.1944 42.8995 41.1944 43.1374 41.1881 43.4003C41.1819 43.6633 41.1694 43.9325 41.1568 44.208C41.1506 44.4835 41.138 44.7652 41.1193 45.0407C41.1067 45.3224 41.0942 45.5791 41.0817 45.817C41.0691 46.0487 41.0566 46.249 41.0378 46.4181C41.0253 46.5871 41.0128 46.6998 41.0002 46.7687C41.1067 46.7562 41.2195 46.7499 41.351 46.7499C41.4825 46.7499 41.5827 46.7562 41.683 46.7687C41.683 46.7186 41.6704 46.6247 41.6642 46.4869C41.6642 46.3429 41.6516 46.1802 41.6454 45.9923C41.6454 45.7982 41.6328 45.5979 41.6266 45.3788C41.6203 45.1534 41.6141 44.9405 41.6078 44.7276C41.6078 44.5085 41.6078 44.3082 41.5953 44.1141V43.6257C41.5953 43.1123 41.5953 42.7117 41.6078 42.4174C41.6141 42.1231 41.6203 41.8852 41.6266 41.7099C42.4471 42.5802 43.2676 43.4567 44.0881 44.3395C44.9086 45.216 45.679 46.0737 46.4056 46.9127" fill="#9DB3BE"/>
<path d="M54.0468 43.5503C54.0468 44.0762 53.9779 44.527 53.8464 44.9089C53.7149 45.2908 53.527 45.6038 53.2889 45.8543C53.0572 46.0985 52.7753 46.28 52.4559 46.399C52.1427 46.5179 51.7983 46.5743 51.4225 46.5743C51.0466 46.5743 50.7147 46.5179 50.389 46.399C50.0758 46.28 49.794 46.0985 49.556 45.8543C49.3242 45.6038 49.1426 45.2845 49.0048 44.9089C48.8733 44.527 48.8044 44.0762 48.8044 43.5503C48.8044 43.0244 48.867 42.5799 49.0048 42.1979C49.1363 41.8098 49.318 41.4967 49.556 41.2526C49.794 41.0021 50.0758 40.8143 50.389 40.6953C50.7084 40.5764 51.0529 40.52 51.4225 40.52C51.792 40.52 52.1365 40.5826 52.4559 40.6953C52.7753 40.8143 53.0572 41.0021 53.2889 41.2526C53.527 41.4967 53.7149 41.816 53.8464 42.1979C53.9779 42.5736 54.0468 43.0244 54.0468 43.5503ZM47.8899 43.5503C47.8899 44.0887 47.9776 44.5645 48.1467 44.9903C48.3221 45.4035 48.5663 45.7604 48.8732 46.0484C49.1927 46.3426 49.5622 46.5555 50.0007 46.6995C50.4391 46.8435 50.9151 46.9061 51.4287 46.9061C51.9423 46.9061 52.4309 46.8372 52.863 46.6995C53.3015 46.5555 53.671 46.3426 53.9779 46.0484C54.2974 45.7541 54.5354 45.4035 54.7107 44.9903C54.8861 44.5645 54.9738 44.0887 54.9738 43.5503C54.9738 43.0119 54.8861 42.5423 54.7107 42.1291C54.5416 41.7033 54.2974 41.3465 53.9779 41.0585C53.671 40.7642 53.3015 40.5451 52.863 40.3948C52.4309 40.2446 51.9486 40.1694 51.4287 40.1694C50.9089 40.1694 50.4328 40.2446 50.0007 40.3948C49.5685 40.5451 49.1927 40.7642 48.8732 41.0585C48.5663 41.3465 48.3221 41.7033 48.1467 42.1291C47.9776 42.5423 47.8899 43.0181 47.8899 43.5503Z" fill="#9DB3BE"/>
<path d="M56.0888 45.5604H55.9761C55.9573 45.742 55.9322 45.8922 55.9072 46.0112C55.8884 46.1239 55.8508 46.2554 55.7944 46.3994C55.9573 46.5371 56.1577 46.6498 56.3957 46.7562C56.64 46.8564 56.9594 46.9065 57.354 46.9065C57.7173 46.9065 58.043 46.8564 58.3248 46.7562C58.613 46.6498 58.8572 46.4995 59.0514 46.3117C59.2518 46.1176 59.4022 45.886 59.5024 45.6355C59.6088 45.3789 59.6652 45.1034 59.6652 44.8091C59.6652 44.4585 59.5901 44.183 59.4397 43.9764C59.2957 43.7698 59.114 43.6008 58.8886 43.463C58.6693 43.3316 58.4313 43.2189 58.1683 43.1312C57.9177 43.0373 57.6797 42.9309 57.4605 42.8182C57.2413 42.6992 57.0534 42.5552 56.9031 42.3862C56.759 42.2171 56.6838 41.9792 56.6838 41.685C56.6838 41.5159 56.7152 41.3594 56.7715 41.2154C56.8342 41.0714 56.9218 40.9462 57.0283 40.846C57.1411 40.7396 57.2726 40.6582 57.4167 40.6018C57.567 40.5455 57.7298 40.5142 57.9115 40.5142C58.0931 40.5142 58.2372 40.5455 58.3624 40.6081C58.4877 40.6644 58.5942 40.7333 58.6819 40.8272C58.7758 40.9149 58.851 41.015 58.9011 41.1215C58.9575 41.2217 59.0013 41.3156 59.0326 41.4032H59.1454C59.1829 41.2217 59.2205 41.0714 59.2581 40.9462C59.2957 40.8272 59.3458 40.7145 59.4022 40.6081C59.2143 40.4578 59.0076 40.3451 58.7883 40.2763C58.5691 40.2011 58.3061 40.1636 58.0054 40.1636C57.7048 40.1636 57.4041 40.2074 57.1536 40.2951C56.9031 40.3827 56.6838 40.5017 56.5022 40.6644C56.3268 40.821 56.189 41.0088 56.0951 41.2279C56.0011 41.447 55.951 41.685 55.951 41.9479C55.951 42.3173 56.0262 42.6178 56.1702 42.837C56.3206 43.0561 56.5085 43.2376 56.7277 43.3816C56.9469 43.5194 57.1849 43.6383 57.4354 43.7323C57.6922 43.8262 57.9303 43.9263 58.1557 44.039C58.375 44.1517 58.5629 44.2957 58.7069 44.4648C58.8572 44.6338 58.9324 44.8655 58.9324 45.1535C58.9324 45.3413 58.9011 45.5229 58.8384 45.6919C58.7758 45.8547 58.6819 45.9987 58.5629 46.1239C58.4501 46.2429 58.3061 46.343 58.1369 46.4182C57.9741 46.487 57.7862 46.5183 57.5795 46.5183C57.3728 46.5183 57.1974 46.487 57.0346 46.4307C56.8717 46.3681 56.7277 46.2867 56.5961 46.199C56.4771 46.1051 56.3707 45.9987 56.283 45.886C56.2016 45.767 56.1327 45.6481 56.0888 45.5354" fill="#9DB3BE"/>
<path d="M66.2416 46.7875C66.1539 46.775 66.0663 46.7688 65.9848 46.7688H65.4838C65.4086 46.7688 65.3272 46.775 65.2395 46.7875C65.1956 46.6435 65.133 46.4682 65.0579 46.2679C64.9827 46.0613 64.895 45.8422 64.801 45.623C64.7134 45.3976 64.6257 45.166 64.5255 44.9406C64.4315 44.7089 64.3438 44.4898 64.2624 44.2769C64.062 44.2707 63.8553 44.2644 63.6486 44.2644C63.4419 44.2644 63.2352 44.2582 63.0222 44.2582C62.8281 44.2582 62.6339 44.2582 62.446 44.2644C62.2581 44.2644 62.0639 44.2644 61.8698 44.2769C61.6693 44.7653 61.4814 45.2411 61.3186 45.6856C61.1558 46.1239 61.0305 46.4933 60.9491 46.7813C60.8426 46.7688 60.7236 46.7625 60.5983 46.7625C60.473 46.7625 60.354 46.7688 60.2476 46.7813C60.7549 45.6794 61.256 44.5837 61.7382 43.4943C62.2268 42.3987 62.7153 41.2905 63.2039 40.1636H63.3855C63.5358 40.5267 63.6987 40.9211 63.8803 41.3531C64.0557 41.7789 64.2373 42.2046 64.419 42.6366C64.6006 43.0686 64.7823 43.5006 64.9702 43.9263C65.1518 44.3583 65.3209 44.759 65.4775 45.1284C65.6403 45.4916 65.7844 45.8234 65.9097 46.1114C66.0412 46.4056 66.1477 46.6248 66.2291 46.7688M62.0514 43.8449C62.2143 43.8449 62.3834 43.8449 62.5588 43.8512C62.7341 43.8575 62.9095 43.8637 63.0724 43.8637H63.6047C63.7801 43.8575 63.9555 43.8512 64.1371 43.8449L63.0849 41.447L62.0514 43.8449Z" fill="#9DB3BE"/>
<path d="M135.264 41.5156C135.246 41.1086 135.233 40.7017 135.208 40.2947C135.496 40.3073 135.784 40.3135 136.066 40.326C136.348 40.3386 136.636 40.3386 136.924 40.3386C137.212 40.3386 137.494 40.3386 137.776 40.326C138.058 40.3135 138.34 40.3073 138.628 40.2947C138.609 40.3886 138.596 40.4826 138.596 40.5827C138.596 40.6829 138.609 40.7706 138.628 40.8645C138.421 40.852 138.233 40.8457 138.064 40.8269C137.895 40.8144 137.713 40.8019 137.525 40.7893C137.337 40.7768 137.131 40.7643 136.912 40.758C136.686 40.7455 136.417 40.7393 136.104 40.7393C136.097 40.9459 136.085 41.1399 136.079 41.3278C136.072 41.5156 136.066 41.7222 136.066 41.9539C136.066 42.2043 136.066 42.4485 136.066 42.6864C136.066 42.918 136.066 43.0996 136.066 43.2248C136.348 43.2248 136.598 43.2185 136.824 43.2123C137.049 43.206 137.256 43.1998 137.438 43.1872C137.626 43.181 137.795 43.1685 137.951 43.1559C138.108 43.1434 138.258 43.1372 138.396 43.1184C138.377 43.2185 138.365 43.3125 138.365 43.4189C138.365 43.5128 138.371 43.613 138.396 43.7069C138.233 43.6881 138.039 43.6693 137.82 43.6568C137.601 43.6443 137.381 43.638 137.156 43.638C136.937 43.638 136.73 43.6318 136.536 43.6255C136.342 43.6255 136.185 43.6255 136.072 43.6255C136.072 43.6818 136.072 43.7445 136.072 43.8133C136.072 43.8822 136.072 43.9636 136.072 44.07V45.0154C136.072 45.3785 136.072 45.6791 136.072 45.917C136.072 46.1549 136.079 46.3302 136.085 46.4554H136.755C136.999 46.4554 137.237 46.4554 137.469 46.4429C137.701 46.4304 137.926 46.4241 138.127 46.4053C138.333 46.3928 138.515 46.3678 138.672 46.3364C138.659 46.3803 138.653 46.4304 138.647 46.4867C138.647 46.5431 138.647 46.5869 138.647 46.637C138.647 46.7371 138.653 46.8185 138.678 46.8874C138.39 46.8749 138.102 46.8686 137.82 46.8686H136.079C135.79 46.8686 135.502 46.8749 135.208 46.8874C135.227 46.4804 135.246 46.0735 135.264 45.6665C135.277 45.2596 135.289 44.8526 135.289 44.4269V42.7803C135.289 42.3608 135.283 41.9476 135.264 41.5344M133.579 46.6495C133.454 46.7058 133.304 46.7622 133.128 46.8123C132.953 46.8624 132.753 46.8999 132.54 46.9437C132.321 46.9813 132.095 47.0001 131.857 47.0001C131.35 47.0001 130.886 46.9312 130.46 46.781C130.034 46.637 129.665 46.4178 129.352 46.1236C129.045 45.8293 128.8 45.4725 128.625 45.0467C128.45 44.621 128.362 44.1389 128.362 43.5942C128.362 43.0495 128.45 42.5737 128.625 42.1479C128.8 41.7222 129.051 41.3653 129.364 41.0711C129.677 40.7768 130.059 40.5577 130.498 40.4012C130.936 40.2509 131.425 40.1758 131.957 40.1758C132.383 40.1758 132.765 40.2133 133.11 40.301C133.46 40.3886 133.761 40.4951 134.03 40.614C133.98 40.7017 133.936 40.8206 133.905 40.9772C133.874 41.1274 133.849 41.2589 133.83 41.3591L133.774 41.3779C133.711 41.3027 133.617 41.2151 133.504 41.1212C133.392 41.021 133.254 40.9333 133.103 40.8394C132.953 40.7518 132.778 40.6766 132.584 40.614C132.389 40.5514 132.183 40.5264 131.951 40.5264C131.575 40.5264 131.224 40.5827 130.905 40.708C130.579 40.8269 130.297 41.0147 130.059 41.2714C129.821 41.5219 129.634 41.8412 129.502 42.2293C129.364 42.6112 129.302 43.0745 129.302 43.6005C129.302 44.1264 129.37 44.5897 129.502 44.9778C129.634 45.366 129.821 45.6853 130.059 45.9358C130.297 46.1862 130.579 46.374 130.905 46.4992C131.224 46.6182 131.575 46.6808 131.951 46.6808C132.183 46.6808 132.396 46.6495 132.59 46.5931C132.784 46.5368 132.959 46.4679 133.128 46.3865C133.291 46.3114 133.435 46.2175 133.567 46.1298C133.698 46.0422 133.805 45.9545 133.899 45.8857L133.936 45.9232L133.849 46.4867C133.792 46.5368 133.698 46.5931 133.579 46.6558M127.767 46.205C127.635 45.9107 127.491 45.5789 127.329 45.2032C127.166 44.8276 126.99 44.4269 126.809 43.9949C126.621 43.5629 126.439 43.1246 126.251 42.6864C126.07 42.2481 125.888 41.8099 125.706 41.3779C125.525 40.9459 125.362 40.5452 125.205 40.1758H125.024C124.529 41.3153 124.034 42.4422 123.539 43.5441C123.044 44.6523 122.543 45.7605 122.023 46.8811C122.136 46.8686 122.255 46.8624 122.38 46.8624C122.506 46.8624 122.625 46.8686 122.738 46.8811C122.819 46.5869 122.944 46.2112 123.113 45.7667C123.276 45.3159 123.464 44.8464 123.664 44.3455C123.859 44.3392 124.059 44.333 124.247 44.333C124.441 44.333 124.635 44.333 124.829 44.333C125.036 44.333 125.249 44.333 125.462 44.333C125.669 44.333 125.882 44.3392 126.082 44.3455C126.164 44.5584 126.258 44.7775 126.351 45.0154C126.445 45.2471 126.539 45.4787 126.633 45.7041C126.727 45.9295 126.815 46.1486 126.89 46.3552C126.965 46.5618 127.028 46.7371 127.072 46.8874C127.159 46.8749 127.247 46.8686 127.329 46.8686H127.836C127.911 46.8686 127.999 46.8749 128.093 46.8874C128.011 46.7309 127.905 46.5117 127.773 46.2175M124.886 41.4593L125.951 43.8947C125.769 43.901 125.594 43.9072 125.412 43.9072C125.23 43.9072 125.055 43.9135 124.873 43.9135C124.704 43.9135 124.535 43.9072 124.353 43.901C124.172 43.8947 124.003 43.8885 123.834 43.8885L124.88 41.453L124.886 41.4593ZM118.51 41.5344C118.497 41.1274 118.478 40.7142 118.46 40.2947C118.748 40.3073 119.036 40.3135 119.318 40.326C119.6 40.3386 119.888 40.3386 120.176 40.3386C120.464 40.3386 120.752 40.3386 121.046 40.326C121.341 40.3135 121.66 40.3073 122.005 40.2947C121.986 40.3886 121.973 40.4826 121.973 40.5827C121.973 40.6829 121.986 40.7706 122.005 40.8645C121.829 40.8457 121.623 40.8269 121.378 40.8144C121.134 40.7956 120.89 40.7831 120.639 40.7706C120.382 40.7643 120.144 40.758 119.906 40.7518C119.668 40.7455 119.481 40.7393 119.33 40.7393C119.324 40.9646 119.318 41.1775 119.311 41.3841C119.311 41.5907 119.311 41.7911 119.311 41.9977C119.311 42.2231 119.311 42.4297 119.311 42.6175C119.311 42.8116 119.311 43.0057 119.311 43.206C119.731 43.206 120.151 43.1998 120.558 43.1872C120.971 43.1747 121.378 43.1497 121.779 43.1121C121.754 43.206 121.742 43.3062 121.742 43.4001C121.742 43.494 121.754 43.5942 121.779 43.6881C121.623 43.6693 121.441 43.6568 121.241 43.6443C121.034 43.6318 120.827 43.6255 120.614 43.6192C120.395 43.6192 120.176 43.6067 119.95 43.6067H119.311V44.4206C119.311 44.8401 119.311 45.2533 119.336 45.6665C119.355 46.0735 119.368 46.4742 119.393 46.8749C119.243 46.8624 119.086 46.8561 118.923 46.8561C118.76 46.8561 118.597 46.8624 118.453 46.8749C118.472 46.4742 118.491 46.0735 118.503 45.6665C118.522 45.2596 118.528 44.8401 118.528 44.4206V42.774C118.528 42.3483 118.522 41.9413 118.503 41.5344M113.762 43.3563C113.869 43.3625 113.981 43.3688 114.113 43.3688C114.307 43.3688 114.514 43.3438 114.733 43.2999C114.946 43.2561 115.14 43.181 115.322 43.0683C115.497 42.9556 115.647 42.8116 115.766 42.6175C115.885 42.4297 115.942 42.1918 115.942 41.9038C115.942 41.6596 115.898 41.4467 115.804 41.2839C115.71 41.1212 115.591 40.9897 115.441 40.8958C115.297 40.8019 115.134 40.733 114.958 40.7017C114.783 40.6704 114.62 40.6453 114.451 40.6453C114.232 40.6453 114.044 40.6453 113.894 40.6579C113.75 40.6704 113.624 40.6766 113.524 40.6954C113.512 41.046 113.499 41.3904 113.486 41.741C113.474 42.0791 113.468 42.4297 113.468 42.774V43.3187C113.555 43.3375 113.649 43.35 113.762 43.3563ZM112.66 41.5344C112.641 41.1274 112.628 40.7142 112.603 40.2947C112.791 40.3073 112.967 40.3135 113.148 40.326C113.33 40.3386 113.512 40.3386 113.693 40.3386C113.875 40.3386 114.056 40.3323 114.238 40.3135C114.413 40.301 114.601 40.2947 114.783 40.2947C115.052 40.2947 115.309 40.3198 115.547 40.3699C115.791 40.4262 116.004 40.5076 116.186 40.6266C116.368 40.7455 116.512 40.8958 116.618 41.0899C116.725 41.2777 116.775 41.5156 116.775 41.8099C116.775 42.1166 116.706 42.3796 116.568 42.5987C116.43 42.8179 116.261 42.9994 116.061 43.1434C115.867 43.2874 115.654 43.3939 115.422 43.4752C115.196 43.5566 114.99 43.613 114.802 43.6318C114.877 43.7319 114.99 43.8634 115.121 44.0387C115.253 44.214 115.403 44.4018 115.572 44.6085C115.735 44.8151 115.91 45.0342 116.086 45.2596C116.267 45.485 116.437 45.7041 116.606 45.9107C116.768 46.1173 116.925 46.3114 117.075 46.4804C117.226 46.6558 117.345 46.7872 117.432 46.8749C117.338 46.8624 117.238 46.8561 117.144 46.8561H116.581C116.48 46.8561 116.393 46.8624 116.299 46.8749C116.205 46.7371 116.054 46.5368 115.86 46.2738C115.666 46.0046 115.447 45.7166 115.215 45.4098C114.977 45.1031 114.739 44.7963 114.489 44.4958C114.244 44.189 114.019 43.9323 113.812 43.7194H113.449V44.4206C113.449 44.8401 113.449 45.2533 113.474 45.6665C113.493 46.0735 113.505 46.4742 113.53 46.8749C113.38 46.8624 113.223 46.8561 113.061 46.8561C112.898 46.8561 112.735 46.8624 112.591 46.8749C112.61 46.4742 112.628 46.0735 112.647 45.6665C112.66 45.2596 112.672 44.8401 112.672 44.4206V42.774C112.672 42.3483 112.666 41.9413 112.647 41.5344M110.211 41.309C110.211 40.8144 110.192 40.4763 110.167 40.2947C110.236 40.3073 110.305 40.3135 110.367 40.326C110.43 40.3386 110.493 40.3386 110.555 40.3386C110.637 40.3386 110.737 40.3198 110.843 40.2947C110.825 40.5201 110.806 40.7831 110.787 41.0961C110.768 41.4029 110.749 41.7347 110.737 42.0916C110.724 42.4485 110.712 42.8116 110.699 43.1872C110.687 43.5629 110.674 43.9198 110.668 44.2766C110.668 44.7024 110.599 45.0843 110.474 45.4224C110.348 45.7605 110.167 46.0485 109.941 46.2801C109.71 46.518 109.428 46.6933 109.096 46.8185C108.758 46.9437 108.376 47.0001 107.943 47.0001C106.985 47.0001 106.29 46.781 105.858 46.349C105.419 45.917 105.206 45.2283 105.206 44.2892C105.206 43.9949 105.213 43.7257 105.231 43.4878C105.244 43.2561 105.256 43.0182 105.256 42.7803C105.256 42.2419 105.256 41.766 105.238 41.3528C105.225 40.9396 105.213 40.589 105.2 40.301C105.275 40.3135 105.357 40.3198 105.451 40.3323C105.538 40.3448 105.626 40.3448 105.701 40.3448C105.77 40.3448 105.839 40.3448 105.908 40.3323C105.977 40.3198 106.046 40.3135 106.114 40.301C106.102 40.4387 106.089 40.6266 106.077 40.8519C106.064 41.0773 106.052 41.334 106.039 41.622C106.027 41.9038 106.014 42.2168 106.008 42.5486C106.002 42.8805 106.002 43.2248 106.002 43.5817C106.002 43.8008 106.002 44.0262 106.008 44.2578C106.008 44.4895 106.039 44.7211 106.077 44.9403C106.114 45.1594 106.177 45.3723 106.265 45.5726C106.352 45.773 106.471 45.9483 106.634 46.0985C106.797 46.2488 106.998 46.3678 107.236 46.4554C107.474 46.5431 107.781 46.5806 108.138 46.5806C108.495 46.5806 108.783 46.5243 109.027 46.4304C109.265 46.3302 109.465 46.1924 109.616 46.0297C109.772 45.8606 109.885 45.6728 109.979 45.4537C110.067 45.2345 110.123 45.0091 110.167 44.7712C110.211 44.5396 110.229 44.3017 110.229 44.0638C110.236 43.8321 110.242 43.613 110.242 43.4126C110.242 42.5048 110.242 41.8099 110.229 41.3153M100.434 45.9733C100.521 46.0923 100.628 46.1987 100.747 46.2989C100.872 46.3928 101.016 46.4742 101.185 46.5305C101.354 46.5869 101.536 46.6244 101.743 46.6244C101.949 46.6244 102.143 46.5869 102.313 46.5118C102.482 46.4429 102.626 46.3427 102.745 46.2175C102.864 46.0923 102.951 45.9483 103.014 45.7792C103.077 45.6102 103.108 45.4286 103.108 45.2408C103.108 44.9465 103.033 44.7086 102.883 44.5396C102.732 44.3705 102.544 44.2265 102.325 44.1076C102.1 43.9949 101.862 43.8885 101.605 43.7945C101.348 43.7006 101.104 43.5754 100.884 43.4314C100.659 43.2874 100.471 43.1059 100.327 42.8867C100.177 42.6613 100.102 42.3608 100.102 41.9852C100.102 41.7159 100.152 41.4718 100.246 41.2526C100.34 41.0335 100.477 40.8394 100.659 40.6829C100.841 40.5201 101.06 40.4012 101.317 40.3073C101.573 40.2196 101.862 40.1758 102.181 40.1758C102.5 40.1758 102.751 40.2133 102.976 40.2885C103.202 40.3573 103.409 40.47 103.603 40.6266C103.546 40.733 103.496 40.8519 103.459 40.9646C103.421 41.0836 103.384 41.2401 103.346 41.4279H103.233C103.202 41.3403 103.158 41.2401 103.102 41.1337C103.045 41.0273 102.97 40.9333 102.883 40.8394C102.789 40.7518 102.682 40.6766 102.551 40.614C102.425 40.5514 102.269 40.5264 102.093 40.5264C101.918 40.5264 101.755 40.5577 101.599 40.614C101.448 40.6704 101.317 40.7518 101.204 40.8582C101.091 40.9584 101.004 41.0836 100.947 41.2339C100.885 41.3779 100.853 41.5406 100.853 41.7159C100.853 42.0165 100.928 42.2544 101.079 42.4234C101.229 42.5925 101.417 42.7427 101.642 42.8617C101.862 42.9806 102.106 43.0871 102.363 43.1747C102.619 43.2686 102.864 43.3813 103.083 43.5128C103.308 43.6505 103.496 43.8196 103.647 44.0325C103.797 44.2453 103.872 44.5208 103.872 44.8714C103.872 45.1657 103.816 45.4411 103.716 45.7041C103.609 45.9608 103.459 46.1924 103.258 46.3865C103.058 46.5806 102.814 46.7371 102.519 46.8373C102.225 46.9438 101.899 47.0001 101.523 47.0001C101.129 47.0001 100.809 46.9438 100.565 46.8373C100.321 46.7371 100.114 46.6119 99.945 46.4804C100.001 46.3364 100.045 46.1987 100.064 46.086C100.083 45.9671 100.108 45.8105 100.127 45.629H100.239C100.289 45.7417 100.358 45.8606 100.446 45.9796M91.17 46.4491C91.3015 46.4804 91.4831 46.5055 91.7149 46.518C91.9466 46.5368 92.1846 46.5431 92.4226 46.5431C92.7734 46.5431 93.1241 46.4992 93.4749 46.4178C93.8256 46.3364 94.1388 46.1799 94.4144 45.9483C94.6963 45.7166 94.9217 45.4036 95.0971 45.0029C95.2725 44.6022 95.3602 44.0888 95.3602 43.4565C95.3602 42.8992 95.2913 42.4422 95.1535 42.0853C95.0157 41.7285 94.8278 41.4467 94.5898 41.2401C94.3518 41.0335 94.0637 40.8895 93.7317 40.8081C93.3997 40.7267 93.0365 40.6892 92.6419 40.6892C92.3537 40.6892 92.0844 40.7017 91.8339 40.7205C91.5833 40.7393 91.3641 40.7643 91.1637 40.7893C91.1449 41.0961 91.1261 41.4154 91.1199 41.7535C91.1136 42.0853 91.1073 42.4297 91.1073 42.774V44.4206C91.1073 45.1093 91.1261 45.7855 91.1637 46.4491M90.2994 41.5344C90.2806 41.1274 90.268 40.7142 90.243 40.2947C90.4873 40.3073 90.7253 40.3135 90.9633 40.326C91.2075 40.3386 91.4455 40.3386 91.6836 40.3386C91.9216 40.3386 92.1658 40.3323 92.4101 40.3135C92.6481 40.301 92.8924 40.2947 93.1304 40.2947C93.6878 40.2947 94.1701 40.3636 94.571 40.5139C94.9718 40.6641 95.2975 40.8707 95.5543 41.1399C95.8111 41.4154 95.999 41.741 96.118 42.1354C96.2371 42.5299 96.2934 42.9744 96.2934 43.4627C96.2934 44.1013 96.1807 44.6398 95.9615 45.078C95.7422 45.5163 95.4604 45.8669 95.1222 46.1361C94.7839 46.4053 94.4019 46.5931 93.9948 46.7058C93.5814 46.8185 93.1868 46.8749 92.811 46.8749C92.5918 46.8749 92.3788 46.8749 92.1721 46.8624C91.9654 46.8498 91.7462 46.8498 91.5332 46.8498H90.8881C90.6752 46.8498 90.4622 46.8561 90.2492 46.8686C90.268 46.4679 90.2868 46.0672 90.3056 45.6603C90.3244 45.2533 90.3307 44.8338 90.3307 44.4144V42.7678C90.3307 42.342 90.3244 41.9351 90.3056 41.5281M87.6374 41.5344C87.6186 41.1274 87.6061 40.7142 87.581 40.2947C87.6625 40.3073 87.7439 40.3135 87.819 40.326C87.8942 40.3386 87.9694 40.3386 88.0508 40.3386C88.1322 40.3386 88.2011 40.3386 88.2825 40.326C88.3577 40.3135 88.4391 40.3073 88.5205 40.2947C88.5018 40.7142 88.483 41.1274 88.4642 41.5344C88.4516 41.9413 88.4454 42.3483 88.4454 42.774V44.4206C88.4454 44.8401 88.4516 45.2533 88.4642 45.6665C88.483 46.0735 88.5018 46.4742 88.5205 46.8749C88.3702 46.8624 88.2199 46.8561 88.0508 46.8561C87.8817 46.8561 87.7314 46.8624 87.581 46.8749C87.5998 46.4742 87.6186 46.0735 87.6374 45.6665C87.6499 45.2596 87.6625 44.8401 87.6625 44.4206V42.774C87.6625 42.3483 87.6562 41.9413 87.6374 41.5344ZM82.8522 41.5344C82.8334 41.1274 82.8208 40.7142 82.7958 40.2947C82.8772 40.3073 82.9586 40.3135 83.0401 40.326C83.1152 40.3386 83.1904 40.3386 83.2718 40.3386C83.3532 40.3386 83.4221 40.3386 83.5036 40.326C83.5787 40.3135 83.6601 40.3073 83.7416 40.2947C83.7228 40.7142 83.704 41.1274 83.6852 41.5344C83.6664 41.9413 83.6601 42.3483 83.6601 42.774C83.6601 43.5754 83.6601 44.2704 83.6664 44.8652C83.6664 45.4537 83.6789 45.9858 83.6852 46.4491C84.1362 46.4491 84.5746 46.4491 84.988 46.4366C85.4014 46.4241 85.8523 46.3928 86.3284 46.3239C86.297 46.4366 86.2782 46.5305 86.2782 46.6119C86.2782 46.6808 86.297 46.7684 86.3284 46.8686C86.034 46.8561 85.7396 46.8498 85.4452 46.8498H83.6789C83.3971 46.8498 83.1027 46.8561 82.7895 46.8686C82.8083 46.4679 82.8271 46.0672 82.8459 45.6603C82.8584 45.2533 82.871 44.8338 82.871 44.4144V42.7678C82.871 42.342 82.8647 41.9351 82.8459 41.5281M80.3906 42.2231C80.2529 41.8349 80.0712 41.5156 79.8269 41.2652C79.5889 41.0085 79.3071 40.8269 78.9876 40.7017C78.6619 40.5765 78.3175 40.5201 77.9417 40.5201C77.5659 40.5201 77.2214 40.5765 76.9019 40.7017C76.5825 40.8206 76.3006 41.0085 76.0626 41.2652C75.8246 41.5156 75.6367 41.8349 75.5052 42.2231C75.3674 42.605 75.3048 43.0683 75.3048 43.5942C75.3048 44.1201 75.3737 44.5834 75.5052 44.9716C75.6367 45.3598 75.8246 45.6791 76.0626 45.9295C76.3006 46.1799 76.5825 46.3678 76.9019 46.493C77.2276 46.6119 77.5721 46.6745 77.9417 46.6745C78.3112 46.6745 78.6682 46.6119 78.9876 46.493C79.3071 46.374 79.5889 46.1862 79.8269 45.9295C80.065 45.6791 80.2529 45.3598 80.3906 44.9716C80.5222 44.5897 80.5911 44.1326 80.5911 43.5942C80.5911 43.0558 80.5222 42.605 80.3906 42.2231ZM74.6221 42.1479C74.7974 41.7222 75.0417 41.3653 75.3549 41.0711C75.6743 40.7768 76.0501 40.5577 76.4948 40.4012C76.9333 40.2509 77.4155 40.1758 77.9417 40.1758C78.4678 40.1758 78.9563 40.2509 79.3948 40.4012C79.8332 40.5577 80.2153 40.7768 80.5284 41.0711C80.8416 41.3653 81.0922 41.7222 81.2675 42.1479C81.4429 42.5737 81.5306 43.0558 81.5306 43.5942C81.5306 44.1326 81.4429 44.621 81.2675 45.0467C81.0922 45.4725 80.8416 45.8293 80.5284 46.1236C80.2153 46.4178 79.8332 46.637 79.3948 46.781C78.9563 46.925 78.4678 47.0001 77.9417 47.0001C77.4155 47.0001 76.9333 46.9312 76.4948 46.781C76.0501 46.637 75.6743 46.4178 75.3549 46.1236C75.0417 45.8293 74.7912 45.4725 74.6221 45.0467C74.4467 44.621 74.359 44.1389 74.359 43.5942C74.359 43.0495 74.4467 42.5737 74.6221 42.1479ZM70.0999 45.9733C70.1876 46.0923 70.2878 46.1987 70.4131 46.2989C70.5383 46.3928 70.6824 46.4742 70.8515 46.5305C71.0143 46.5931 71.2022 46.6244 71.4089 46.6244C71.6156 46.6244 71.8098 46.5869 71.9789 46.5118C72.148 46.4429 72.2921 46.3427 72.4111 46.2175C72.5301 46.0923 72.6178 45.9483 72.6804 45.7792C72.743 45.6102 72.7806 45.4286 72.7806 45.2408C72.7806 44.9465 72.7055 44.7086 72.5551 44.5396C72.4048 44.3705 72.2169 44.2265 71.9914 44.1076C71.7722 43.9949 71.5279 43.8885 71.2711 43.7945C71.0143 43.7006 70.7701 43.5754 70.5508 43.4314C70.3316 43.2874 70.1375 43.1059 69.9871 42.8867C69.8368 42.6613 69.7679 42.3608 69.7679 41.9852C69.7679 41.7159 69.8118 41.4718 69.912 41.2526C70.0122 41.0335 70.1437 40.8394 70.3316 40.6829C70.5133 40.5201 70.7325 40.4012 70.9893 40.3073C71.2461 40.2196 71.5279 40.1758 71.8536 40.1758C72.1793 40.1758 72.4236 40.2133 72.6491 40.2885C72.8746 40.3573 73.0813 40.47 73.2754 40.6266C73.2191 40.733 73.1689 40.8519 73.1314 40.9646C73.0938 41.0836 73.0562 41.2401 73.0186 41.4279H72.9059C72.8746 41.3403 72.8307 41.2401 72.7744 41.1337C72.718 41.0273 72.6491 40.9333 72.5551 40.8394C72.4612 40.7518 72.3547 40.6766 72.2232 40.614C72.0916 40.5514 71.9413 40.5264 71.7659 40.5264C71.5906 40.5264 71.4215 40.5577 71.2711 40.614C71.1208 40.6704 70.9893 40.7518 70.8828 40.8582C70.7701 40.9584 70.6824 41.0836 70.6197 41.2339C70.5634 41.3779 70.5321 41.5406 70.5321 41.7159C70.5321 42.0165 70.6072 42.2544 70.7575 42.4234C70.9079 42.5925 71.0958 42.7427 71.3212 42.8617C71.5467 42.9806 71.7847 43.0871 72.0415 43.1747C72.2983 43.2686 72.5426 43.3813 72.7618 43.5128C72.9873 43.6505 73.1752 43.8196 73.3255 44.0325C73.4759 44.2453 73.551 44.5208 73.551 44.8714C73.551 45.1657 73.4946 45.4411 73.3944 45.7041C73.288 45.9608 73.1376 46.1924 72.9372 46.3865C72.7368 46.5806 72.4925 46.7371 72.1981 46.8373C71.91 46.9438 71.578 47.0001 71.2085 47.0001C70.8139 47.0001 70.4945 46.9438 70.2439 46.8373C69.9997 46.7371 69.793 46.6119 69.6301 46.4804C69.6865 46.3364 69.7241 46.1987 69.7491 46.086C69.7679 45.9671 69.793 45.8105 69.8118 45.629H69.9245C69.9746 45.7417 70.0435 45.8606 70.1312 45.9796" fill="#9DB3BE"/>
</svg>
