<svg width="191" height="47" viewBox="0 0 191 47" fill="none" xmlns="http://www.w3.org/2000/svg">
<path d="M100.404 10.8419H92.6731V13.3398H92.5922C91.0627 10.9829 88.7215 10.0693 86.1636 10.0693C79.5001 10.0693 74.9951 15.9446 74.9951 22.8456C74.9951 29.7466 79.3748 34.8676 85.7564 34.8676C88.6327 34.8676 90.6842 33.8184 92.6783 31.6624V32.7561C92.6783 36.5876 91.8718 39.5109 87.6983 39.5109C86.9832 39.5109 86.1688 39.323 85.4954 38.9706C84.809 38.5974 84.2478 38.0023 84.0547 37.1749H75.3762C76.0574 43.3712 82.7731 46.1744 87.7871 46.1744C95.8182 46.1744 100.412 42.1288 100.412 32.1166H100.404V10.8419ZM87.9541 27.7499C84.809 27.7499 82.9872 25.4531 82.9872 22.4698C82.9872 19.4865 84.809 17.1348 87.9541 17.1348C91.0992 17.1348 92.9263 19.5856 92.9263 22.4698C92.9263 25.3539 91.0966 27.7499 87.9541 27.7499Z" fill="#9DB3BE"/>
<path d="M74.6009 23.1512C74.6009 15.1148 70.229 10.0591 62.6651 10.0591C55.5683 10.0591 50.6013 14.7911 50.6013 22.6501C50.6013 30.509 55.9963 35.194 63.2262 35.194C68.1854 35.194 73.074 32.6571 74.3138 27.1107H66.8829C66.0347 28.6741 64.8392 29.2744 63.1845 29.2744C59.9923 29.2744 58.3454 27.4317 58.3454 24.0282H74.6009V23.1538V23.1512ZM58.4733 19.2048C58.9483 16.7826 60.8171 15.4854 63.0592 15.4854C65.2334 15.4854 67.0865 17.0593 67.4389 19.2048H58.4733Z" fill="#9DB3BE"/>
<path d="M49.727 1.25537H41.9829V34.4137H49.727V1.25537Z" fill="#9DB3BE"/>
<path d="M190.24 3.82636C190.23 2.39604 189.06 1.245 187.63 1.25544C186.181 1.25544 185.041 2.40387 185.041 3.85246C185.041 3.8629 185.041 3.87595 185.041 3.88639C185.049 5.30888 186.207 6.45731 187.63 6.44948C189.086 6.44948 190.24 5.30105 190.24 3.85246V3.82636ZM187.63 6.02143C186.448 6.02143 185.461 5.07397 185.461 3.85246C185.461 2.63095 186.45 1.67566 187.63 1.67566C188.81 1.67566 189.812 2.62312 189.812 3.85246C189.812 5.0818 188.818 6.02143 187.63 6.02143Z" fill="#9DB3BE"/>
<path d="M188.87 3.18388C188.87 2.57052 188.395 2.40869 187.862 2.40869H186.633V5.33197H187.053V3.99039H187.594L188.34 5.33197H188.82L188.087 3.98256C188.473 3.96168 188.867 3.74766 188.867 3.18127L188.87 3.18388ZM187.51 3.55712H187.056V2.83674H187.789C188.136 2.83674 188.444 2.86284 188.444 3.23086C188.444 3.62498 187.909 3.55712 187.51 3.55712Z" fill="#9DB3BE"/>
<path d="M175.96 13.1442C174.345 11.0823 171.714 10.0722 169.198 10.0722C162.735 10.0722 158.277 15.8613 158.277 22.6162C158.277 29.371 162.824 35.1993 169.287 35.1993C171.837 35.1993 174.507 34.137 175.882 31.801H175.963V34.4111H183.707V1.25537H175.963V13.1442H175.96ZM171.239 27.9381C168.088 27.9381 166.272 25.6412 166.272 22.6579C166.272 19.6746 168.088 17.323 171.239 17.323C174.389 17.323 176.198 19.7608 176.198 22.6579C176.198 25.5551 174.376 27.9381 171.239 27.9381Z" fill="#9DB3BE"/>
<path d="M134.463 16.7435C134.463 15.2688 132.814 10.9152 125.43 10.829C122.164 10.7951 118.774 10.829 118.774 10.829V16.1562C118.774 16.1562 123.806 15.8613 125.73 16.8975C127.071 17.6309 126.805 18.641 126.977 19.1813C125.85 17.8736 124.041 17.6204 121.196 17.6204C116.717 17.6204 113.627 21.6321 113.627 26.325C113.627 31.0179 116.777 35.0427 121.256 35.0427C123.018 35.0427 125.717 34.9957 127.045 32.6858L127.126 34.5285H134.51V17.2107L134.463 17.1898V16.7435ZM123.697 29.4388C121.502 29.4388 120.217 28.2695 120.217 26.1867C120.217 24.1039 121.499 22.7623 123.697 22.7623C125.894 22.7623 127.176 24.1587 127.176 26.1867C127.168 28.2695 125.9 29.4388 123.697 29.4388Z" fill="#9DB3BE"/>
<path d="M150.238 10.6805C147.226 10.7797 145.37 11.0199 143.582 13.8779H143.488V10.8398H135.765V34.4113H143.488V23.4307C143.488 20.4996 143.467 18.2758 146.599 17.9626C149.656 17.6546 149.776 21.9143 149.776 24.1642V34.4191H157.512V19.8523C157.512 12.9774 155.168 10.5396 150.235 10.6805H150.238Z" fill="#9DB3BE"/>
<path d="M8.95776 11.5672H8.8925V2.38232H0V33.2438H17.3048V24.286H8.95776V11.5672Z" fill="#9DB3BE"/>
<path d="M117.633 10.9619H116.198C112.992 11.4082 110.836 11.8963 109.396 14.6734H109.323V10.9619H101.879V34.4082H109.323V25.2494C109.323 21.35 111.152 19.121 113.582 17.5054C115.172 16.4431 116.158 16.1298 117.636 16.0046V10.9645L117.633 10.9619Z" fill="#9DB3BE"/>
<path d="M13.5049 11.3349H21.9224V24.0589H21.9302V33.2438H30.8827V2.38232H13.5049V11.3349Z" fill="#9DB3BE"/>
<path d="M11.897 0H10.1404V11.3695H11.897V0Z" fill="#9DB3BE"/>
<path d="M20.4551 24.2393H18.6985V35.5957H20.4551V24.2393Z" fill="#9DB3BE"/>
</svg>
