<svg width="102" height="49" viewBox="0 0 102 49" fill="none" xmlns="http://www.w3.org/2000/svg">
<path fill-rule="evenodd" clip-rule="evenodd" d="M24.2907 0C10.8745 0 0 10.8315 0 24.1946C0 37.5577 10.8745 48.3892 24.2907 48.3892C37.7069 48.3892 48.5814 37.5577 48.5814 24.1946C48.5814 10.8315 37.7008 0 24.2907 0ZM30.2049 32.7028V34.5602H25.1769V34.5725H23.3122V13.7738H25.1769V32.709H30.2049V32.7028ZM24.2907 44.4415C13.0593 44.4415 3.95716 35.3755 3.95716 24.1885C3.95716 13.0014 13.0593 3.9415 24.2907 3.9415C24.5861 3.9415 24.8815 3.94763 25.1769 3.95989V5.80498C24.8815 5.79273 24.5861 5.78659 24.2907 5.78659C14.0809 5.78659 5.80958 14.0313 5.80958 24.1946C5.80958 34.3579 14.087 42.6026 24.2907 42.6026C34.4944 42.6026 42.3226 34.8054 42.7534 25.0221V24.9669H30.2357V23.1096H44.5935C44.6119 23.4713 44.6243 23.8268 44.6243 24.1946C44.6243 35.3816 35.5222 44.4477 24.2907 44.4477V44.4415ZM19.5581 16.5323C19.5581 18.1015 18.278 19.3765 16.7026 19.3765C15.1271 19.3765 13.847 18.1015 13.847 16.5323C13.847 14.963 15.1271 13.688 16.7026 13.688C18.278 13.688 19.5581 14.963 19.5581 16.5323Z" fill="#9DB3BE"/>
<path fill-rule="evenodd" clip-rule="evenodd" d="M60.6375 36.0682H77.9924V30.8455H67.5179H67.0132V30.3429V12.1494H60.6375V36.0682Z" fill="#9DB3BE"/>
<path fill-rule="evenodd" clip-rule="evenodd" d="M98.9659 13.8352C96.972 12.3027 94.4118 11.5181 91.3532 11.5181C87.7222 11.5181 84.6881 12.6276 82.5834 14.7301C80.3802 16.9246 79.217 20.155 79.217 24.0782C79.217 28.2649 80.4479 31.8018 82.688 34.0269C84.442 35.774 86.7867 36.6996 89.4638 36.6996C95.3411 36.6996 96.695 33.1871 96.695 33.1871V36.0682H102V22.558H91.4332V26.7814H96.295C96.295 26.7814 96.3442 32.1022 91.3224 32.1022C90.0485 32.1022 88.9099 31.6424 88.036 30.772C86.676 29.4173 85.9559 27.137 85.9559 24.1701C85.9559 19.2662 87.913 16.3361 91.187 16.3361C93.2364 16.3361 94.7688 17.5866 95.1688 19.4869H101.926C101.575 16.7285 100.818 15.2941 98.9659 13.829V13.8352Z" fill="#9DB3BE"/>
</svg>
