<svg width="74" height="14" viewBox="0 0 74 14" fill="none" xmlns="http://www.w3.org/2000/svg">
<g opacity="0.9">
<path d="M12.3487 5.43623V5.42346L8.55825 0.527344H0V2.41636L1.67101 2.42944L1.65793 11.065H0V12.9795H5.62874V11.065L3.97081 11.0519L3.98389 5.47487L4.00945 5.48765L10.023 13.3394H10.0358L15.1498 5.29476L15.1629 5.30784L15.1498 11.065H13.6206V12.9795H23.2067V11.065L21.7417 11.0519L21.7547 2.41636H23.2067V0.527344H15.4841L12.3487 5.43623Z" fill="#9DB3BE"/>
<path d="M32.6252 3.62451H24.4785V5.53909L26.0208 5.55217L26.0078 11.065H24.4785V12.9795H34.27V11.065L32.6252 11.0519V3.62451Z" fill="#9DB3BE"/>
<path d="M31.2375 1.73477C30.9701 1.14911 30.6872 0.570752 30.3894 0L27.3057 1.51632L28.1541 3.23832C29.1823 2.73723 30.2102 2.24863 31.2378 1.73446L31.2375 1.73477Z" fill="#9DB3BE"/>
<path d="M57.476 11.0519V0.527344H49.3555V2.41636L50.9742 2.42944L50.9614 11.065H49.3555V12.9795H59.0697V11.065L57.476 11.0519Z" fill="#9DB3BE"/>
<path d="M48.1987 5.80914C47.788 5.20492 47.1708 4.7294 46.5797 4.39565C44.0359 3.00741 40.296 3.09746 37.6238 4.13826C36.0818 4.70384 34.6426 6.23325 34.617 7.95554C34.4497 9.85673 35.4655 11.6046 37.1614 12.4269C39.3971 13.584 42.5581 13.6996 45.0507 12.9928C46.5158 12.6195 47.9678 11.3734 48.5838 9.94709H44.8317C44.7115 10.4533 44.4271 10.9054 44.0225 11.2328C43.4567 11.6566 42.5057 11.7467 41.9025 11.3737C41.0924 10.8981 40.6686 10.0241 40.7973 9.08609H48.8539C48.9817 7.90382 48.8539 6.70877 48.1981 5.80914H48.1987ZM42.9697 7.28743H40.7979L40.8101 5.70631C40.8618 5.39781 41.1183 5.08962 41.427 4.974C41.8763 4.80698 42.4288 4.89703 42.7503 5.26942C43.1233 5.72152 42.9694 6.17149 42.9694 7.28743H42.9697Z" fill="#9DB3BE"/>
<path d="M73.7565 9.08529C73.9493 7.69705 73.6795 6.34806 72.7285 5.35837L72.2528 4.89623C69.7473 2.99443 65.7765 3.04555 62.8598 4.00968C61.305 4.4852 59.6735 5.96289 59.5448 7.67241C59.275 9.65117 60.226 11.4888 61.9736 12.3881C64.2345 13.609 67.4725 13.6991 69.9916 12.9792C71.4436 12.5938 72.8697 11.3476 73.4994 9.94629L69.7212 9.95937C69.6016 10.4857 69.2959 10.9512 68.8603 11.2703C68.2692 11.7075 67.3313 11.7075 66.7275 11.3211C65.9569 10.8201 65.5839 9.9977 65.7126 9.08529H73.7562H73.7565ZM65.7132 5.7052C65.7649 5.3967 66.0214 5.08851 66.3296 4.9729C66.7798 4.80587 67.3322 4.89593 67.6538 5.26831C68.0258 5.72041 67.8719 6.17038 67.8719 7.28633H65.7002L65.7132 5.7052Z" fill="#9DB3BE"/>
</g>
</svg>
