<svg width="74" height="15" viewBox="0 0 74 15" fill="none" xmlns="http://www.w3.org/2000/svg">
<g opacity="0.9">
<g clip-path="url(#clip0_78_2265)">
<path d="M73.8083 1.14734C72.9076 0.713952 72.5381 0.571457 71.8841 0.365575C71.0414 0.120384 70.2454 0.0176891 69.3433 0.0176891C67.7655 0.0176891 66.9258 0.243717 65.9425 0.91836C65.5116 1.22595 65.1637 1.57531 64.9392 1.92467C64.6114 2.4352 64.407 3.13147 64.407 3.80857C64.407 5.28462 65.1436 6.18235 67.5409 7.55571L69.6307 8.74481C70.5107 9.23667 70.8183 9.62386 70.8183 10.1963C70.8183 11.0159 70.0395 11.5495 68.8504 11.5495C68.3183 11.5495 67.5817 11.4075 66.9041 11.1609C66.3735 10.9564 65.9632 10.752 64.9799 10.2199L63.8935 12.5937C64.2837 12.7779 64.5898 12.9214 64.7736 13.004C66.1877 13.6594 66.6383 13.8029 67.6014 13.9464C67.99 13.9857 68.4003 14.0275 68.8082 14.0275C71.8001 14.0275 73.5616 12.6148 73.5616 10.1963C73.5616 9.25534 73.2137 8.3532 72.6393 7.78174C72.004 7.14493 70.6527 6.28504 68.5846 5.17849C67.62 4.66649 67.2923 4.32008 67.2923 3.74567C67.2923 2.98553 68.0711 2.49711 69.2804 2.49711C70.181 2.49711 71.35 2.82338 72.7813 3.45871L73.8083 1.14734ZM62.8288 7.00145C62.8288 2.82485 59.9199 0 55.6607 0C51.4016 0 48.4706 2.82485 48.4706 7.00145C48.4907 11.1201 51.4404 14.0275 55.6607 14.0275C59.8811 14.0275 62.8288 11.1201 62.8288 7.00145ZM60.085 7.00145C60.085 9.74965 58.1996 11.7755 55.6602 11.7755C53.1209 11.7755 51.2154 9.74965 51.2154 7.00145C51.2154 4.25325 53.1007 2.23178 55.6602 2.23178C58.2198 2.23178 60.085 4.27929 60.085 7.00145ZM43.9083 2.43618H47.966V0.243717H37.2724V2.43618H41.3301V13.7636H43.9098V2.43618H43.9083ZM33.0059 13.8869H35.7089V0.243717H33.2712V10.2789L33.1494 10.0366L33.0275 9.68725C33.0059 9.64499 32.9636 9.56392 32.9027 9.41896C32.8418 9.27549 32.7794 9.17377 32.7592 9.13348L27.0845 0.243717H24.1161V13.7636H26.5729V3.84886C26.6339 4.07488 26.6761 4.15793 26.7572 4.32008C26.7773 4.33875 26.8181 4.44193 26.9213 4.60556C27.0648 4.89546 27.168 5.07973 27.2083 5.13771L33.0059 13.8869ZM19.9513 13.7636H22.6543L17.7584 0.243717H15.4455L10.5496 13.7636H13.2525L14.3591 10.4253H18.8851L19.9513 13.7636ZM18.1893 8.23281H15.0539L16.613 3.33538L18.1893 8.23281ZM8.8966 3.46019L9.92208 1.14734C9.01993 0.713952 8.6519 0.571457 7.99642 0.365575C7.15619 0.120384 6.35723 0.0171978 5.45656 0.0171978C3.87879 0.0171978 3.03905 0.243717 2.05583 0.917869C1.6249 1.22694 1.27701 1.57482 1.05246 1.92418C0.724719 2.43618 0.520312 3.13097 0.520312 3.80807C0.520312 5.28413 1.25687 6.18333 3.65423 7.55522L5.74401 8.74432C6.62404 9.23618 6.93016 9.62337 6.93016 10.1973C6.93016 11.0154 6.1543 11.549 4.96519 11.549C4.43157 11.549 3.69502 11.4085 3.0189 11.1604C2.48528 10.956 2.07646 10.7515 1.09324 10.2209L0.00683594 12.5947C0.396979 12.7789 0.703099 12.9224 0.888344 13.0049C2.30102 13.6589 2.7516 13.8024 3.71467 13.9474C4.10334 13.9867 4.51363 14.027 4.92392 14.027C7.91436 14.027 9.67492 12.6158 9.67492 10.1973C9.67492 9.25632 9.32704 8.35418 8.75263 7.78272C8.11877 7.14591 6.76604 6.28603 4.69789 5.17947C3.73482 4.666 3.40708 4.31958 3.40708 3.74518C3.40708 2.98651 4.18589 2.49662 5.39366 2.49662C6.29433 2.49662 7.46182 2.82436 8.89562 3.4597" fill="#AEC5CF"/>
</g>
</g>
<defs>
<clipPath id="clip0_78_2265">
<rect width="73.8149" height="14.0275" fill="white"/>
</clipPath>
</defs>
</svg>
