<svg width="118" height="34" viewBox="0 0 118 34" fill="none" xmlns="http://www.w3.org/2000/svg">
<path d="M15.1614 7.29493C14.8756 5.29231 13.1588 5.14943 11.8717 5.14943C10.7275 5.14943 9.86906 5.14943 9.29754 5.29231C7.8676 5.57807 7.72472 6.15074 7.72472 7.15205C7.72472 8.29624 7.8676 9.15466 11.8728 9.29754C20.025 9.44042 23.7445 9.87022 23.7445 16.7353C23.7445 23.6005 18.3093 24.8876 11.8728 24.8876C5.43634 24.8876 0 25.0304 0 17.0211H8.00932C8.00932 19.7381 10.0119 19.7381 11.8717 19.7381C15.4471 19.7381 16.0198 19.4524 16.0198 17.5926C16.0198 15.1614 14.5899 15.1614 11.8717 15.1614C1.85974 15.1614 0 12.873 0 8.00932C0 0.14288 5.14943 0 11.8717 0C16.3056 0 22.5992 0 22.5992 6.0067V7.43665L15.1614 7.29377V7.29493Z" fill="#9DB3BE"/>
<path d="M37.9034 14.7313H42.1944V19.5938H37.7606C36.6164 19.5938 34.328 19.5938 34.328 17.3054C34.4709 15.017 36.0448 14.7313 37.9034 14.7313ZM50.2038 24.7444V9.583C50.2038 1.14389 46.7712 0.142578 38.6178 0.142578C32.8969 0.142578 27.4617 0.142578 27.4617 7.58038H35.471C35.471 5.43488 36.7581 5.00625 38.7607 5.00625C42.1933 5.00625 42.3362 6.43619 42.3362 8.72457V10.1545C42.3362 10.1545 37.6165 9.86876 35.3281 9.86876C29.6072 9.86876 26.6033 11.7285 26.6033 17.4494C26.6033 23.6002 29.893 25.0301 35.3281 25.0301C38.0452 25.0301 50.2038 24.7444 50.2038 24.7444Z" fill="#9DB3BE"/>
<path d="M92.9698 14.7313H97.2608V19.5938H92.827C91.6828 19.5938 89.3944 19.5938 89.3944 17.3054C89.5373 15.017 90.9672 14.7313 92.9698 14.7313ZM105.27 24.7444V9.583C105.27 1.14389 101.838 0.142578 93.6842 0.142578C87.9633 0.142578 82.5281 0.142578 82.5281 7.58038H90.5374C90.5374 5.43488 91.8245 5.00625 93.8271 5.00625C97.2597 5.00625 97.4026 6.43619 97.4026 8.72457V10.1545C97.4026 10.1545 92.6829 9.86876 90.3945 9.86876C84.6736 9.86876 81.6697 11.7285 81.6697 17.4494C81.6697 23.6002 84.9594 25.0301 90.3945 25.0301C93.1116 25.0301 105.27 24.7444 105.27 24.7444Z" fill="#9DB3BE"/>
<path d="M66.0795 6.29333C70.2276 6.29333 70.5134 7.86615 70.5134 12.5869C70.5134 18.0221 69.3692 18.8806 66.0795 18.8806C64.6496 18.8806 62.0743 18.5948 62.0743 18.5948V12.5881C62.2172 7.43867 62.7898 6.29448 66.0795 6.29448V6.29333ZM54.209 33.755H62.2183V24.6015C62.2183 24.6015 66.3664 25.0301 69.3704 25.0301C75.9497 25.0301 78.5239 22.0262 78.5239 14.7324V9.15438C78.5239 2.71788 75.2342 0.286621 69.3704 0.286621C67.2249 0.286621 65.2222 0.57238 63.9352 1.28793C62.6481 2.00348 62.2183 2.43212 62.2183 2.43212V0.57238H54.3519V33.755H54.209Z" fill="#9DB3BE"/>
<path d="M118 7.00787C118 9.15336 116.283 10.8702 114.138 10.8702C111.992 10.8702 110.275 9.15336 110.275 7.00787C110.275 4.86237 111.992 3.14551 114.138 3.14551C116.283 3.14551 118 4.86237 118 7.00787Z" fill="#9DB3BE"/>
<path d="M118 21.025C118 23.1705 116.283 24.8873 114.138 24.8873C111.992 24.8873 110.275 23.1705 110.275 21.025C110.275 18.8795 111.992 17.1626 114.138 17.1626C116.283 17.1626 118 18.8795 118 21.025Z" fill="#9DB3BE"/>
</svg>
