<svg width="93" height="57" viewBox="0 0 93 57" fill="none" xmlns="http://www.w3.org/2000/svg">
<path d="M1.1677 0.566345L0.0172992 17.1755L0 17.3873H1.53963L1.55693 17.2058C2.49108 6.05661 5.73901 2.10535 13.9648 2.10535H19.8638V54.7082H14.008V56.2472H32.3798V54.7082H26.7662L26.684 2.10535H32.6652C40.8304 2.10535 44.0524 6.05661 44.9909 17.2058L45.0082 17.3873H46.5435L45.3758 0.566345H1.1677Z" fill="white"/>
<path d="M90.8296 44.3026L88.8791 49.7496H62.7746C79.8922 36.6076 88.572 24.5333 88.572 13.8554C88.572 5.17901 82.2362 0 71.6188 0C62.567 0 55.4787 6.48025 55.4787 14.7502C55.4787 18.1352 57.0442 20.1541 59.6651 20.1541C62.2859 20.1541 63.4449 18.1136 63.4449 16.2158C63.4449 14.8151 63.2374 13.7127 63.0341 12.6406C62.8352 11.5901 62.6319 10.505 62.6319 9.14325C62.6319 5.35626 65.3868 1.539 71.541 1.539C78.1017 1.539 81.4275 5.68481 81.4275 13.8597C81.4275 25.3028 73.366 38.674 58.7266 51.5091L57.8962 52.2224C56.4431 53.4718 54.2504 55.3653 53.5325 55.8884L53.0352 56.2515H88.3558L92.4773 44.3069H90.8339L90.8296 44.3026Z" fill="white"/>
</svg>
