<svg width="172" height="90" viewBox="0 0 172 90" fill="none" xmlns="http://www.w3.org/2000/svg">
<g opacity="0.4">
<path d="M94.9443 23.8627L96.8374 27.6487L98.5438 23.8627H94.9443Z" fill="#4B8CA6"/>
</g>
<g opacity="0.4">
<path d="M114.595 89.2252V29.0352H93.0515V31.4214H67.8823V89.2252" fill="#C4D4DB"/>
</g>
<path d="M38.5002 73.8411H37.967V65.9224H20.3299V68.1887H2.74614V73.8411H2.21289V67.6421H19.7833V65.3759H38.5002V73.8411Z" fill="#4B8CA6"/>
<path d="M151.668 14.8775H133.245V7.81201H133.791V14.3443H151.122V9.87836H146.882V7.81201H147.429V9.34512H151.668V14.8775Z" fill="#4B8CA6"/>
<path d="M38.5001 14.8775H20.0898V9.34512H24.3158V7.81201H24.8624V9.87836H20.6231V14.3443H37.9669V7.81201H38.5001V14.8775Z" fill="#4B8CA6"/>
<path d="M85.8125 16.9571H69.1353V8.91846H85.8125V16.9571ZM69.6818 16.4239H85.2659V9.47834H69.6818V16.4239Z" fill="#4B8CA6"/>
<path d="M122.233 20.3566H97.584V8.91846H122.233V20.3566ZM98.1172 19.8233H121.687V9.47834H98.1172V19.8233Z" fill="#4B8CA6"/>
<path d="M170.572 73.5745H0.52002V74.121H170.572V73.5745Z" fill="#4B8CA6"/>
<path d="M115.114 89.2252H114.088V29.555H93.5713V31.928H68.4022V89.2252H67.3623V30.9015H92.5448V28.5286H115.114V89.2252Z" fill="#4B8CA6"/>
<path d="M47.219 7.54541H0.52002V8.09199H47.219V7.54541Z" fill="#4B8CA6"/>
<path d="M115.114 29.0352H114.088V20.8899H122.726V8.31861H121.447V0H171.078V7.81202H170.052V1.03983H122.473V7.29213H123.766V21.9297H115.114V29.0352Z" fill="#4B8CA6"/>
<path d="M68.4019 14.4642H49.5384V3.9993H47.2188V2.97278H50.5649V13.4377H67.3621V7.29209H123.246V8.31858H68.4019V14.4642Z" fill="#4B8CA6"/>
<path d="M170.558 7.54541H123.246V8.09199H170.558V7.54541Z" fill="#4B8CA6"/>
<path d="M171.078 89.7452H0V7.81201H1.02649V88.7187H170.052V7.81201H171.078V89.7452Z" fill="#4B8CA6"/>
<path d="M60.1634 89.2253H59.1236V29.5551H47.5388V8.31861H46.699V1.03983H1.02649V7.81202H0V0H47.7388V7.29213H48.5653V28.5286H60.1634V89.2253Z" fill="#4B8CA6"/>
<path d="M169.545 73.8411H168.999V68.1887H151.415V65.9224H133.791V68.1887H86.7188V73.4145H84.6658V68.1887H39.5666V73.8411H39.02V67.6421H85.2124V72.8679H86.1722V67.6421H133.244V65.3759H151.961V67.6421H169.545V73.8411Z" fill="#4B8CA6"/>
</svg>
