<svg width="171" height="67" viewBox="0 0 171 67" fill="none" xmlns="http://www.w3.org/2000/svg">
<path d="M0 0V66.5197H170.729V0H0ZM133.518 1.0244H146.596V2.58096H150.813V7.02448H133.518V1.0244ZM115.784 21.1932H92.8615V23.9604H78.4001V21.1932H55.0916V13.2906H68.2492V1.0244H122.476V13.57H115.784V21.1799V21.1932ZM49.2911 1.0244H67.2381V12.2529H49.2911V1.0244ZM55.1049 31.2776V22.2043H77.389V24.9715H85.1319V59.8278H39.7256V31.2776H55.0916H55.1049ZM39.7256 60.3733H84.5465V65.4953H39.7256V60.3733ZM85.5842 60.3733H85.8104V65.4953H85.5842V60.3733ZM86.8348 60.3733H131.669V65.4953H86.8348V60.3733ZM131.669 59.8411H86.1563V24.9848H93.8992V22.2176H115.797V31.4505H131.682V59.8411H131.669ZM24.8118 1.0244H37.8896V7.02448H20.5945V2.58096H24.8118V1.0244ZM1.0244 1.0244H24.2664V2.0355H20.049V7.55664H38.4351V1.0244H48.2667V13.2773H54.0805V30.2532H38.7145V65.4953H38.4351V57.5661H19.7563V59.8278H2.20845V65.4953H1.0244V1.0244ZM37.8896 65.4953H2.74061V60.3733H20.2752V58.1116H37.8763V65.4953H37.8896ZM168.654 60.3733V65.4953H133.518V58.1116H151.119V60.3733H168.654ZM169.705 65.4953H169.199V59.8278H151.665V57.5661H132.986V65.4953H132.707V30.4128H116.822V14.5944H123.514V1.0244H132.973V7.56994H151.359V2.04881H147.142V1.03771H169.718V65.5086L169.705 65.4953Z" fill="#4B8CA6"/>
<path d="M68.9941 9.64532H85.6374V1.62305H68.9941V9.64532ZM69.5396 2.16851H85.0919V9.09986H69.5396V2.16851Z" fill="#4B8CA6"/>
<path d="M97.3848 13.0378H121.984V1.62305H97.3848V13.0378ZM97.9302 2.16851H121.452V12.4924H97.9302V2.16851Z" fill="#4B8CA6"/>
</svg>
