<?xml version="1.0" encoding="UTF-8"?>
<svg id="Camada_1" data-name="Camada 1" xmlns="http://www.w3.org/2000/svg" width="10.9cm" height="11.97cm" viewBox="0 0 309.06 339.33">
  <defs>
    <style>
      .cls-1 {
        fill: #468aa3;
      }

      .cls-2 {
        fill: #e0b35e;
      }

      .cls-3 {
        fill: #77a5b8;
      }

      .cls-4 {
        fill: #034d67;
      }

      .cls-5 {
        fill: #c0d4dc;
      }

      .cls-6 {
        fill: #227493;
      }
    </style>
  </defs>
  <g>
    <g>
      <path class="cls-4" d="M51.96,15.84h-3.21v.35h.13c.78.05.78.14.78.43v6.73c0,.29,0,.38-.78.42h-.13v.36h3.09c2.79,0,4.82-1.78,4.82-4.24s-1.89-4.04-4.69-4.04ZM55.4,20.2c0,2.05-1.41,3.48-3.44,3.48-1.18,0-1.18-.15-1.18-.43v-6.95h1.03c2.11,0,3.59,1.6,3.59,3.9Z"/>
      <path class="cls-4" d="M65.2,22c-.74,1.42-1.22,1.67-2.22,1.67h-1.53c-.26,0-.36-.09-.36-.31v-3.21h1.37c.9,0,1.09.29,1.26,1.27l.02.12h.33v-3.18h-.33l-.02.11c-.17.94-.37,1.23-1.26,1.23h-1.37v-3.41h1.61c1.16,0,1.54.29,2.06,1.55l.03.09h.35l-.4-1.98-.02-.11h-5.68v.35h.13c.78.05.78.14.78.43v6.73c0,.29,0,.38-.78.42h-.13v.36h5.87l.67-2.2h-.35l-.04.08Z"/>
      <path class="cls-4" d="M71.34,19.47l-.65-.28c-1.23-.52-1.48-1.04-1.48-1.66,0-1,.77-1.36,1.42-1.36.85,0,1.54.65,1.96,1.84l.03.09h.33l-.23-2.23v-.04h-.33l-.02.11c-.03.14-.05.16-.06.16-.05,0-.17-.05-.28-.09-.31-.12-.77-.29-1.39-.29-1.32,0-2.32.99-2.32,2.31,0,.97.61,1.72,1.82,2.24l.65.28c1.06.45,1.53.97,1.53,1.7,0,.94-.69,1.54-1.76,1.54s-1.77-.67-2.24-2.06l-.03-.09h-.34l.27,2.37.02.12h.33l.02-.11c.04-.17.06-.17.07-.17.05,0,.16.04.29.08h.01c.34.12.9.3,1.61.3,1.52,0,2.66-1.06,2.66-2.46,0-1.02-.61-1.77-1.88-2.31Z"/>
      <path class="cls-4" d="M83.32,21.52c-.66,1.29-1.73,2.03-2.94,2.03-1.92,0-3.21-1.54-3.21-3.82,0-2.04,1.26-3.52,3-3.52,1.39,0,2.45.79,2.98,2.23l.03.09h.33l-.29-2.55-.02-.12h-.34l-.02.12c-.04.36-.12.36-.15.36-.04,0-.18-.06-.28-.11-.38-.17-1.1-.49-2.26-.49-2.38,0-4.24,1.92-4.24,4.38s1.67,4.13,3.97,4.13c1.68,0,3.06-.93,3.79-2.56l.06-.13-.36-.15-.06.11Z"/>
      <path class="cls-4" d="M91.64,22.41l-1.61-2.41c.91-.26,1.95-.84,1.95-2.1,0-.94-.56-2.05-3.21-2.05h-2.66v.35h.13c.78.07.78.14.78.42v6.74c0,.29,0,.38-.78.42h-.13v.36h3.08v-.35h-.13c-.91-.05-.91-.15-.91-.43v-3.18h.49c.2,0,.28,0,.51.39l1.5,2.42c.63,1.02,1.06,1.2,1.75,1.2.23,0,.55-.02.73-.04l.12-.02v-.33h-.13c-.46-.05-.86-.42-1.49-1.38ZM88.7,19.73h-.54v-3.43h.42c1.02,0,2.24.31,2.24,1.76,0,1.03-.81,1.66-2.12,1.66Z"/>
      <path class="cls-4" d="M95.13,16.19h.13c.81.05.81.14.81.43v6.73c0,.29,0,.38-.81.42h-.13v.36h3.03v-.35h-.13c-.81-.05-.81-.14-.81-.43v-6.73c0-.29,0-.38.81-.42h.13v-.36h-3.03v.35Z"/>
      <path class="cls-4" d="M103.29,15.84h-2.67v.35h.13c.78.05.78.14.78.43v6.73c0,.29,0,.38-.78.42h-.13v.36h3.22v-.35h-.13c-1.04-.05-1.04-.14-1.04-.44v-7.04h.42c1.42,0,2.24.72,2.24,1.97,0,1.17-.79,1.78-2.41,1.88h-.13v.41h.14c2.27,0,3.57-.9,3.57-2.47,0-1.45-1.14-2.25-3.2-2.25Z"/>
      <path class="cls-4" d="M115.4,15.75l-.14.03c-.2.04-.58.06-1.03.06h-4.05c-.45,0-.84-.02-1.04-.06l-.14-.03-.43,2.18h.34l.03-.09c.55-1.35.95-1.55,2.03-1.55h.66v7.06c0,.29,0,.38-.78.42h-.13v.36h2.95v-.35h-.13c-.78-.05-.78-.14-.78-.43v-7.06h.66c1.17,0,1.49.25,2.03,1.55l.03.09h.35l-.44-2.14v-.05Z"/>
      <path class="cls-4" d="M118.03,16.19h.13c.81.05.81.14.81.43v6.73c0,.29,0,.38-.81.42h-.13v.36h3.03v-.35h-.13c-.81-.05-.81-.14-.81-.43v-6.73c0-.29,0-.38.81-.42h.13v-.36h-3.03v.35Z"/>
      <path class="cls-4" d="M127.66,15.73c-2.43,0-4.19,1.83-4.19,4.35s1.7,4.16,4.03,4.16c2.46,0,4.24-1.83,4.24-4.35s-1.72-4.16-4.09-4.16ZM130.5,20.2c0,2.11-1.15,3.58-2.8,3.58s-2.99-1.72-2.99-4c0-2.11,1.13-3.58,2.75-3.58,1.73,0,3.03,1.72,3.03,4Z"/>
      <path class="cls-4" d="M139.2,15.84v.35h.13c1.11.07,1.27.28,1.27,1.01v4.87l-4.45-6.17-.04-.06h-2.05v.34h.13c.77.07.95.26.95,1.02v5.57c0,.75-.18.94-.95,1h-.13v.36h2.99v-.35h-.13c-1.11-.07-1.25-.27-1.25-1.01v-5.59l5.12,7,.04.06h.29v-7.04c0-.75.18-.94.95-1h.13v-.36h-2.99Z"/>
    </g>
    <g>
      <polygon class="cls-3" points="22.32 42.22 22.32 48.98 23.17 48.98 23.17 41.33 22.54 41.33 20.68 41.97 20.89 42.66 22.32 42.22"/>
      <path class="cls-3" d="M24.66,72.98h-4.03l2.03-1.8c.72-.64,1.22-1.16,1.5-1.56.28-.41.42-.87.42-1.39,0-.63-.22-1.15-.67-1.56-.44-.41-1.01-.61-1.69-.61-.63,0-1.15.13-1.56.4-.41.26-.8.67-1.17,1.22l.63.46c.32-.45.64-.78.95-.99s.68-.31,1.09-.31.79.13,1.08.4.45.62.45,1.05c0,.38-.12.74-.35,1.08-.23.35-.64.78-1.24,1.3l-2.76,2.43v.66h5.31v-.78Z"/>
      <path class="cls-3" d="M22.22,97.9c-.87,0-1.61-.38-2.22-1.13l-.62.55c.69.9,1.64,1.36,2.83,1.36.72,0,1.32-.21,1.81-.65.49-.43.73-.98.73-1.64s-.24-1.18-.71-1.54c-.47-.36-1.07-.57-1.8-.62l2.39-2.65v-.63h-4.85v.77h3.71l-2.4,2.7.17.51h.49c.64,0,1.15.13,1.54.39.39.26.59.62.59,1.08s-.16.81-.48,1.08-.71.41-1.18.41Z"/>
      <path class="cls-3" d="M24.35,120.82v-5.13h-.75l-4.3,5.23.22.62h4v1.8h.82v-1.8h1.18v-.72h-1.18ZM23.52,120.82h-3.19l3.19-3.92v3.92Z"/>
      <path class="cls-3" d="M22.13,147.47c-.72,0-1.44-.35-2.16-1.04l-.56.62c.8.8,1.71,1.2,2.71,1.2.8,0,1.45-.23,1.95-.69.51-.46.76-1.06.76-1.8s-.25-1.29-.74-1.71c-.5-.42-1.12-.63-1.88-.63-.48,0-.98.11-1.5.34l.16-2.43h3.62v-.79h-4.37l-.22,3.7.58.38c.54-.29,1.07-.43,1.6-.43.56,0,1.01.15,1.36.44.35.3.53.68.53,1.15,0,.5-.17.91-.51,1.23s-.78.48-1.32.48Z"/>
      <path class="cls-3" d="M22.55,168.15c-.91,0-1.63.39-2.16,1.16v-.03c0-.98.2-1.78.61-2.4.4-.61.94-.92,1.62-.92.6,0,1.2.25,1.79.75l.5-.66c-.71-.58-1.46-.87-2.25-.87-.97,0-1.74.39-2.31,1.17-.57.78-.85,1.76-.85,2.95,0,1.29.26,2.23.79,2.83s1.25.9,2.16.9c.77,0,1.42-.24,1.94-.72.52-.48.78-1.08.78-1.81s-.25-1.27-.76-1.7c-.51-.43-1.13-.65-1.86-.65ZM23.79,171.78c-.34.33-.78.5-1.33.5s-1.02-.16-1.38-.49c-.36-.33-.54-.73-.54-1.21,0-.45.18-.84.54-1.18.36-.34.81-.5,1.36-.5s.99.15,1.33.46c.35.31.52.7.52,1.17,0,.51-.17.93-.5,1.26Z"/>
      <polygon class="cls-3" points="21.27 197.69 24.73 190.74 24.73 190.1 19.57 190.1 19.57 190.88 23.75 190.88 20.32 197.69 21.27 197.69"/>
      <path class="cls-3" d="M23.54,218.55c.87-.4,1.3-.98,1.3-1.75,0-.59-.26-1.07-.77-1.45-.51-.38-1.12-.58-1.83-.58s-1.32.19-1.83.58c-.51.38-.76.86-.76,1.43,0,.78.43,1.37,1.3,1.77-.48.17-.86.42-1.14.74s-.42.69-.42,1.13c0,.64.27,1.16.81,1.56.54.41,1.22.61,2.04.61s1.5-.2,2.04-.6c.54-.4.81-.92.81-1.56,0-.86-.52-1.49-1.56-1.88ZM20.52,216.86c0-.39.16-.71.49-.96s.74-.37,1.24-.37.9.12,1.24.37c.33.25.5.56.5.94,0,.42-.17.76-.5,1.02-.33.26-.75.39-1.24.39s-.91-.13-1.24-.39c-.33-.26-.5-.59-.5-1ZM23.7,221.43c-.36.28-.84.41-1.45.41s-1.09-.14-1.45-.41c-.36-.27-.54-.61-.54-1.01,0-.43.19-.78.57-1.05.38-.28.85-.41,1.42-.41s1.03.14,1.41.41c.38.27.58.62.58,1.04s-.18.76-.54,1.03Z"/>
    </g>
    <g>
      <path class="cls-6" d="M54.71,47.02h-.35l-.04.08c-.7,1.35-1.16,1.59-2.11,1.59h-1.46c-.24,0-.33-.08-.33-.29v-3.05h1.3c.86,0,1.03.27,1.2,1.21l.02.12h.33v-3.05h-.33l-.02.12c-.16.89-.35,1.17-1.2,1.17h-1.3v-3.24h1.53c1.1,0,1.47.28,1.96,1.48l.03.09h.35l-.38-1.9-.02-.11h-5.43v.34h.13c.74.05.74.13.74.4v6.42c0,.27,0,.35-.74.4h-.13v.35h5.61l.64-2.12Z"/>
      <path class="cls-6" d="M59.46,48.8h-.13c-1.05-.07-1.19-.25-1.19-.96v-5.31l4.87,6.67.04.06h.29v-6.72c0-.71.17-.89.9-.95h.13v-.35h-2.86v.34h.13c1.06.07,1.2.26,1.2.96v4.63l-4.23-5.87-.04-.06h-1.96v.34h.13c.73.07.9.25.9.96v5.31c0,.71-.17.89-.9.95h-.13v.35h2.86v-.34Z"/>
      <path class="cls-6" d="M66.5,43.14c.53-1.3.87-1.48,1.93-1.48h.63v6.73c0,.27,0,.35-.74.4h-.13v.35h2.83v-.34h-.13c-.74-.05-.74-.13-.74-.4v-6.73h.63c1.06,0,1.4.17,1.93,1.48l.03.09h.35l-.42-2.05v-.05s-.15.03-.15.03c-.2.04-.55.06-.98.06h-3.86c-.43,0-.8-.02-.99-.06l-.14-.03-.42,2.1h.34l.03-.09Z"/>
      <path class="cls-6" d="M77.93,48.79h-.13c-.87-.05-.87-.14-.87-.4v-3.03h.46c.19,0,.26,0,.48.37l1.44,2.31c.6.98,1.02,1.15,1.67,1.15.23,0,.53-.02.7-.04h.12v-.34h-.13c-.44-.05-.82-.4-1.42-1.31l-1.53-2.29c.86-.25,1.86-.8,1.86-2.01,0-.9-.53-1.97-3.07-1.97h-2.54v.34h.13c.74.06.74.13.74.39v6.43c0,.27,0,.35-.74.4h-.13v.35h2.96v-.35ZM76.94,44.93v-3.26h.4c.97,0,2.13.29,2.13,1.68,0,.98-.77,1.58-2.01,1.58h-.51Z"/>
      <path class="cls-6" d="M85.54,48.8h-.13c-.41-.04-.66-.12-.76-.26-.08-.12-.07-.34.05-.66l.62-1.73h2.47l.76,2.13c.07.21.09.32.06.37-.08.12-.54.14-.68.14h-.13v.35h2.89v-.34h-.13c-.61-.07-.7-.16-1-.97l-2-5.51c-.25-.69-.3-.84-.38-1.2l-.03-.11h-.24l-.04.05c-.15.19-.45.33-.67.38l-.16.04.23.58-2.04,5.66c-.31.82-.62,1.01-1.05,1.07l-.12.02v.34h2.5v-.34ZM85.49,45.67l1.06-2.97,1.06,2.97h-2.12Z"/>
      <path class="cls-6" d="M95.21,48.8h-.13c-1.05-.07-1.19-.25-1.19-.96v-5.31l4.87,6.67.04.06h.28v-6.72c0-.71.17-.89.9-.95h.13v-.35h-2.86v.34h.13c1.06.07,1.2.26,1.2.96v4.63l-4.23-5.87-.04-.06h-1.96v.34h.13c.73.07.9.25.9.96v5.31c0,.71-.17.89-.9.95h-.13v.35h2.86v-.34Z"/>
      <path class="cls-6" d="M105.83,49.25c1.6,0,2.92-.89,3.62-2.44l.06-.13-.36-.14-.06.11c-.62,1.23-1.64,1.93-2.8,1.93-1.83,0-3.05-1.46-3.05-3.64,0-1.94,1.2-3.36,2.85-3.36,1.32,0,2.33.75,2.84,2.12l.03.09h.33l-.28-2.44-.02-.12h-.33l-.02.12c-.04.34-.11.34-.13.34-.04,0-.14-.05-.25-.09h-.02c-.37-.17-1.05-.48-2.16-.48-2.27,0-4.06,1.84-4.06,4.18s1.59,3.95,3.79,3.95Z"/>
      <path class="cls-6" d="M117.8,47.02h-.35l-.04.08c-.7,1.35-1.16,1.59-2.11,1.59h-1.46c-.24,0-.33-.08-.33-.29v-3.05h1.3c.86,0,1.03.27,1.2,1.21l.02.12h.33v-3.05h-.33l-.02.12c-.16.89-.35,1.17-1.2,1.17h-1.3v-3.24h1.53c1.1,0,1.47.28,1.96,1.48l.03.09h.35l-.38-1.9-.02-.11h-5.43v.34h.13c.74.05.74.13.74.4v6.42c0,.27,0,.35-.74.4h-.13v.35h5.61l.64-2.12Z"/>
      <path class="cls-6" d="M126.6,48.8h-.13c-.74-.05-.74-.13-.74-.4v-3.03h3.94v3.03c0,.27,0,.35-.74.4h-.13v.35h2.83v-.34h-.13c-.74-.05-.74-.13-.74-.4v-6.42c0-.27,0-.35.74-.4h.13v-.35h-2.83v.34h.13c.74.05.74.13.74.4v2.92h-3.94v-2.92c0-.27,0-.35.74-.4h.13v-.35h-2.83v.34h.13c.74.05.74.13.74.4v6.42c0,.27,0,.35-.74.4h-.13v.35h2.83v-.34Z"/>
      <path class="cls-6" d="M135.91,48.8h-.13c-.41-.04-.66-.12-.75-.26-.08-.13-.07-.34.05-.66l.62-1.73h2.47l.76,2.13c.07.2.09.32.06.38-.08.12-.54.14-.68.14h-.13v.35h2.89v-.34h-.13c-.61-.07-.7-.16-1-.97l-2.01-5.51c-.26-.71-.3-.85-.38-1.2l-.03-.11h-.24l-.04.05c-.15.19-.45.33-.67.38l-.16.04.23.58-2.04,5.66c-.31.82-.62,1.01-1.05,1.07l-.12.02v.34h2.49v-.34ZM135.87,45.67l1.06-2.97,1.06,2.97h-2.12Z"/>
      <path class="cls-6" d="M148.75,47.07l.02-.06h-.35l-.04.08c-.66,1.27-1.12,1.62-2.13,1.62h-1.16c-.25,0-.33-.07-.33-.29v-6.43c0-.27,0-.35.74-.4h.13v-.35h-2.83v.34h.13c.74.05.74.13.74.4v6.42c0,.26,0,.35-.74.4h-.13v.35h5.32l.62-2.07Z"/>
      <path class="cls-6" d="M156.54,47.07l.02-.06h-.35l-.04.08c-.66,1.27-1.12,1.62-2.13,1.62h-1.16c-.25,0-.33-.07-.33-.29v-6.43c0-.27,0-.35.74-.4h.13v-.35h-2.83v.34h.13c.74.05.74.13.74.4v6.42c0,.26,0,.35-.74.4h-.13v.35h5.33l.62-2.07Z"/>
      <path class="cls-6" d="M54.4,71.85l.02-.06h-.35l-.04.08c-.66,1.27-1.12,1.62-2.13,1.62h-1.16c-.25,0-.33-.07-.33-.29v-6.43c0-.27,0-.35.74-.4h.13v-.35h-2.83v.34h.13c.74.05.74.13.74.4v6.42c0,.26,0,.35-.74.4h-.13v.35h5.33l.62-2.07Z"/>
      <path class="cls-6" d="M59.12,73.58h-.13c-.77-.05-.77-.13-.77-.4v-6.42c0-.27,0-.35.77-.4h.13v-.35h-2.9v.34h.13c.77.05.77.13.77.4v6.42c0,.27,0,.35-.77.4h-.13v.35h2.9v-.34Z"/>
      <path class="cls-6" d="M64.98,72.23l-1.96-5.35c-.06-.15-.11-.32-.07-.38.08-.11.52-.13.67-.14h.13v-.35h-2.89v.34h.13c.62.07.73.17,1.04.97l2.46,6.62.03.09h.33l2.46-6.61c.31-.79.53-1.01,1.11-1.07h.12v-.35h-2.63v.34h.13c.46.04.75.12.84.27.08.12.06.32-.07.65l-1.83,4.96Z"/>
      <path class="cls-6" d="M70.24,66.35h.13c.77.05.77.13.77.4v6.42c0,.27,0,.35-.77.4h-.13v.35h2.9v-.34h-.13c-.77-.05-.77-.13-.77-.4v-6.42c0-.27,0-.35.77-.4h.13v-.35h-2.9v.34Z"/>
      <path class="cls-6" d="M80.09,66.35h.13c1.06.07,1.2.26,1.2.96v4.63l-4.23-5.87-.04-.06h-1.96v.34h.13c.73.07.9.25.9.96v5.31c0,.71-.17.89-.9.95h-.13v.35h2.86v-.34h-.13c-1.05-.07-1.19-.25-1.19-.96v-5.31l4.87,6.67.04.06h.28v-6.72c0-.71.17-.89.9-.95h.13v-.35h-2.86v.34Z"/>
      <path class="cls-6" d="M84.88,70.1c0,2.35,1.7,3.93,4.22,3.93,1.13,0,2.49-.36,3.39-.9l.11-.07-.15-.29-.12.04c-.15.05-.2.04-.2.04,0,0-.02-.03-.02-.13v-1.64c0-.27,0-.34.71-.38h.13v-.36h-3.07v.36h.13c1.01.05,1.01.13,1.01.4v1.79c0,.44-1.07.68-1.8.68-1.52,0-3.15-1.21-3.15-3.85,0-1.95,1.2-3.37,2.85-3.37,1.3,0,2.33.76,2.83,2.08l.03.09h.33l-.28-2.4-.02-.12h-.32l-.02.12c-.05.34-.11.34-.13.34-.04,0-.16-.05-.27-.1-.4-.17-1.06-.47-2.15-.47-2.27,0-4.06,1.85-4.06,4.2Z"/>
      <path class="cls-6" d="M98.96,66.35h.13c.74.06.74.13.74.39v6.43c0,.27,0,.35-.74.4h-.13v.35h2.96v-.35h-.13c-.87-.05-.87-.14-.87-.4v-3.03h.46c.19,0,.26,0,.48.37l1.44,2.31c.6.98,1.02,1.15,1.67,1.15.23,0,.53-.02.7-.04h.12v-.34h-.13c-.44-.05-.82-.4-1.42-1.31l-1.53-2.29c.86-.25,1.86-.8,1.86-2.01,0-.9-.53-1.97-3.07-1.97h-2.54v.34ZM100.92,69.71v-3.26h.4c.97,0,2.13.29,2.13,1.68,0,.98-.77,1.58-2.01,1.58h-.51Z"/>
      <path class="cls-6" d="M107.21,70.06c0,2.3,1.62,3.97,3.86,3.97,2.35,0,4.06-1.75,4.06-4.16s-1.64-3.97-3.91-3.97-4,1.75-4,4.16ZM108.41,69.77c0-2.01,1.08-3.41,2.62-3.41,1.64,0,2.88,1.64,2.88,3.81,0,2.01-1.1,3.41-2.66,3.41s-2.84-1.64-2.84-3.81Z"/>
      <path class="cls-6" d="M121.37,74.03c2.35,0,4.06-1.75,4.06-4.16s-1.64-3.97-3.91-3.97-4,1.75-4,4.16,1.62,3.97,3.86,3.97ZM118.71,69.77c0-2.01,1.08-3.41,2.62-3.41,1.64,0,2.88,1.64,2.88,3.81,0,2.01-1.09,3.41-2.66,3.41s-2.84-1.64-2.84-3.81Z"/>
      <path class="cls-6" d="M129.78,66.1l-.03-.1h-2.27v.34h.13c.76.07.91.15.9.86l-.13,5.42c0,.73-.17.89-.9.95h-.13v.35h2.72v-.34h-.13c-.9-.07-1.07-.23-1.05-.96l.12-5.4,2.49,6.61.03.09h.33l2.53-6.7.12,5.95c0,.28-.02.35-.73.39h-.13v.35h2.82v-.34h-.13c-.72-.05-.72-.13-.73-.41l-.13-6.42c0-.28.02-.35.73-.39h.13v-.35h-2.14l-.02.12c-.03.2-.17.65-.39,1.24l-1.78,4.79-1.86-5c-.16-.4-.27-.75-.38-1.05Z"/>
      <path class="cls-6" d="M54.22,97.36l-2.59-3.23,1.61-1.66c1.07-1.08,1.73-1.28,2.18-1.32h.12v-.35h-2.71v.35h.14c.39.01.45.1.47.13.02.06.01.26-.58.88l-2.44,2.53v-3.14c0-.27,0-.35.74-.4h.13v-.35h-2.83v.34h.13c.74.05.74.13.74.4v6.43c0,.27,0,.35-.74.4h-.13v.35h2.83v-.34h-.13c-.74-.05-.74-.13-.74-.4v-2.62l.27-.29c.09-.09.12-.11.14-.11.02,0,.06,0,.12.08l2.35,2.91c.17.23.15.29.15.3,0,0-.06.1-.54.11h-.14v.35h2.9v-.34h-.12c-.54-.07-.76-.24-1.33-1.01Z"/>
      <path class="cls-6" d="M60.19,91.14h.13v-.35h-2.9v.34h.13c.77.05.77.13.77.4v6.43c0,.27,0,.35-.77.4h-.13v.35h2.9v-.34h-.13c-.77-.05-.77-.13-.77-.4v-6.43c0-.27,0-.35.77-.4Z"/>
      <path class="cls-6" d="M64.39,98.36h-.13v.35h2.83v-.34h-.13c-.74-.05-.74-.13-.74-.4v-6.73h.63c1.06,0,1.4.17,1.93,1.48l.03.09h.35l-.4-1.96-.03-.14-.14.03c-.19.04-.55.06-.98.06h-3.86c-.44,0-.8-.02-.99-.06l-.14-.03-.42,2.1h.34l.03-.09c.53-1.3.87-1.48,1.93-1.48h.63v6.73c0,.27,0,.35-.74.4Z"/>
      <path class="cls-6" d="M75.06,91.14c1.32,0,2.33.75,2.84,2.12l.03.09h.33l-.28-2.44-.02-.12h-.33l-.02.12c-.04.34-.11.34-.13.34-.04,0-.15-.05-.27-.1-.37-.16-1.05-.47-2.16-.47-2.27,0-4.06,1.84-4.06,4.18s1.59,3.95,3.79,3.95c1.6,0,2.92-.89,3.62-2.44l.06-.13-.36-.14-.06.11c-.62,1.23-1.64,1.93-2.8,1.93-1.83,0-3.05-1.46-3.05-3.64,0-1.94,1.2-3.36,2.85-3.36Z"/>
      <path class="cls-6" d="M88.25,91.14h.13v-.35h-2.83v.34h.13c.74.05.74.13.74.4v2.93h-3.94v-2.93c0-.27,0-.35.74-.4h.13v-.35h-2.83v.34h.13c.74.05.74.13.74.4v6.43c0,.27,0,.35-.74.4h-.13v.35h2.83v-.34h-.13c-.74-.05-.74-.13-.74-.4v-3.03h3.94v3.03c0,.27,0,.35-.74.4h-.13v.35h2.83v-.34h-.13c-.74-.05-.74-.13-.74-.4v-6.43c0-.27,0-.35.74-.4Z"/>
      <path class="cls-6" d="M96.79,96.6h-.35l-.04.08c-.7,1.35-1.17,1.59-2.11,1.59h-1.46c-.24,0-.33-.08-.33-.29v-3.05h1.3c.86,0,1.03.27,1.2,1.21l.02.12h.33v-3.05h-.33l-.02.12c-.16.89-.35,1.17-1.2,1.17h-1.3v-3.24h1.53c1.1,0,1.47.28,1.96,1.48l.03.09h.35l-.38-1.9-.02-.11h-5.43v.34h.13c.74.05.74.13.74.4v6.43c0,.27,0,.35-.74.4h-.13v.35h5.61l.64-2.12Z"/>
      <path class="cls-6" d="M98.8,98.36h-.13v.35h2.86v-.34h-.13c-1.05-.07-1.19-.25-1.19-.96v-5.31l4.87,6.67.04.06h.29v-6.72c0-.71.17-.89.9-.95h.13v-.35h-2.86v.34h.13c1.06.07,1.2.26,1.2.96v4.63l-4.23-5.87-.04-.06h-1.96v.34h.13c.73.07.9.25.9.96v5.31c0,.71-.17.89-.9.95Z"/>
      <path class="cls-6" d="M51.01,123.17c-.99,0-1.69-.64-2.14-1.96l-.03-.09h-.34l.26,2.27.02.12h.32l.02-.11c.03-.13.05-.15.06-.15.04,0,.17.04.29.08.34.11.86.28,1.54.28,1.45,0,2.54-1.01,2.54-2.35,0-.97-.59-1.7-1.8-2.21l-.62-.26c-1.17-.49-1.41-.99-1.41-1.58,0-.95.73-1.29,1.35-1.29.81,0,1.47.62,1.86,1.75l.03.09h.33l-.22-2.13v-.04h-.33l-.02.11c-.03.13-.04.15-.05.15-.04,0-.16-.05-.27-.09-.29-.11-.73-.28-1.33-.28-1.26,0-2.22.95-2.22,2.21,0,.93.59,1.65,1.74,2.14l.62.26c1.01.42,1.46.92,1.46,1.61,0,.89-.66,1.47-1.68,1.47Z"/>
      <path class="cls-6" d="M59.79,123.6c2.35,0,4.06-1.75,4.06-4.16s-1.64-3.97-3.91-3.97-4,1.75-4,4.16,1.62,3.97,3.86,3.97ZM57.14,119.34c0-2.01,1.08-3.41,2.62-3.41,1.64,0,2.88,1.64,2.88,3.81,0,2.01-1.1,3.41-2.66,3.41s-2.84-1.64-2.84-3.81Z"/>
      <path class="cls-6" d="M66.22,119.65c0,2.29,1.59,3.95,3.79,3.95,1.6,0,2.92-.89,3.62-2.44l.06-.13-.36-.14-.06.11c-.62,1.23-1.64,1.93-2.8,1.93-1.83,0-3.05-1.46-3.05-3.64,0-1.94,1.2-3.36,2.85-3.36,1.32,0,2.33.75,2.84,2.12l.03.09h.33l-.28-2.44-.02-.12h-.33l-.02.12c-.04.34-.11.34-.13.34-.04,0-.14-.05-.25-.09h-.02c-.37-.17-1.05-.47-2.16-.47-2.27,0-4.06,1.84-4.06,4.18Z"/>
      <path class="cls-6" d="M78.48,115.93h.13v-.35h-2.9v.34h.13c.77.05.77.13.77.4v6.43c0,.27,0,.35-.77.4h-.13v.35h2.9v-.34h-.13c-.77-.05-.77-.13-.77-.4v-6.43c0-.27,0-.35.77-.4Z"/>
      <path class="cls-6" d="M85.24,123.15h-.13v.35h2.89v-.34h-.13c-.61-.07-.7-.16-1-.97l-2.01-5.51c-.26-.7-.3-.85-.38-1.2l-.03-.11h-.24l-.04.05c-.15.19-.45.33-.67.38l-.16.04.23.58-2.04,5.66c-.31.82-.62,1.01-1.05,1.07l-.12.02v.34h2.49v-.34h-.13c-.41-.04-.66-.12-.75-.26-.08-.13-.07-.34.05-.66l.62-1.73h2.47l.76,2.13c.07.2.09.32.06.37-.08.12-.54.14-.68.14ZM84.93,120.03h-2.12l1.06-2.97,1.06,2.97Z"/>
      <path class="cls-6" d="M95.7,121.42l.02-.06h-.35l-.04.08c-.66,1.27-1.12,1.62-2.13,1.62h-1.16c-.25,0-.33-.07-.33-.29v-6.44c0-.27,0-.35.74-.4h.13v-.35h-2.83v.34h.13c.74.05.74.13.74.4v6.43c0,.26,0,.35-.74.4h-.13v.35h5.33l.62-2.07Z"/>
      <path class="cls-6" d="M106.65,117.47c0-1.2-1-1.89-2.74-1.89h-2.63v.34h.13c.74.05.74.13.74.4v6.43c0,.27,0,.35-.74.4h-.13v.35h2.73c1.87,0,3.12-.93,3.12-2.31s-1.04-1.82-1.77-2c.54-.22,1.29-.71,1.29-1.72ZM103.24,119.05v-3.03h.58c1.12,0,1.77.57,1.77,1.56,0,.93-.66,1.47-1.81,1.47h-.53ZM103.24,119.5h.65c1.32,0,2.11.67,2.11,1.79s-.76,1.76-2.04,1.76c-.71,0-.71-.09-.71-.33v-3.22Z"/>
      <path class="cls-6" d="M110.88,120.49h2.47l.76,2.13c.07.2.09.32.06.37-.08.12-.54.14-.68.14h-.13v.35h2.89v-.34h-.13c-.61-.07-.7-.16-1-.97l-2.01-5.51c-.26-.7-.3-.85-.38-1.2l-.03-.11h-.24l-.04.05c-.15.19-.45.33-.67.38l-.16.04.23.58-2.04,5.66c-.31.82-.62,1.01-1.05,1.07l-.12.02v.34h2.49v-.34h-.13c-.41-.04-.66-.12-.75-.26-.08-.13-.07-.34.05-.66l.62-1.73ZM113.18,120.03h-2.12l1.06-2.97,1.06,2.97Z"/>
      <path class="cls-6" d="M121.28,116.02c1.06,0,1.4.17,1.93,1.48l.03.09h.35l-.4-1.96-.03-.14-.14.03c-.19.04-.55.06-.98.06h-3.86c-.44,0-.8-.02-.99-.06l-.14-.03-.42,2.1h.34l.03-.09c.53-1.3.87-1.48,1.93-1.48h.63v6.73c0,.27,0,.35-.74.4h-.13v.35h2.83v-.34h-.13c-.74-.05-.74-.13-.74-.4v-6.73h.63Z"/>
      <path class="cls-6" d="M133.22,115.93h.13v-.35h-2.83v.34h.13c.74.05.74.13.74.4v2.93h-3.94v-2.93c0-.27,0-.35.74-.4h.13v-.35h-2.83v.34h.13c.74.05.74.13.74.4v6.43c0,.27,0,.35-.74.4h-.13v.35h2.83v-.34h-.13c-.74-.05-.74-.13-.74-.4v-3.03h3.94v3.03c0,.27,0,.35-.74.4h-.13v.35h2.83v-.34h-.13c-.74-.05-.74-.13-.74-.4v-6.43c0-.27,0-.35.74-.4Z"/>
      <path class="cls-6" d="M141.12,117.54c0-.9-.53-1.97-3.07-1.97h-2.54v.34h.13c.74.06.74.13.74.39v6.44c0,.27,0,.35-.74.4h-.13v.35h2.96v-.35h-.13c-.87-.05-.87-.14-.87-.4v-3.03h.46c.19,0,.26,0,.48.37l1.44,2.31c.6.98,1.02,1.15,1.67,1.15.21,0,.51-.02.7-.04l.12-.02v-.33h-.13c-.44-.05-.82-.4-1.42-1.31l-1.53-2.29c.86-.25,1.86-.8,1.86-2ZM137.47,119.28v-3.26h.4c.97,0,2.13.29,2.13,1.68,0,.98-.77,1.58-2.01,1.58h-.51Z"/>
      <path class="cls-6" d="M143.76,119.63c0,2.3,1.62,3.97,3.86,3.97,2.35,0,4.06-1.75,4.06-4.16s-1.64-3.97-3.91-3.97-4,1.75-4,4.16ZM150.47,119.74c0,2.01-1.1,3.41-2.66,3.41s-2.84-1.64-2.84-3.81c0-2.01,1.08-3.41,2.62-3.41,1.64,0,2.88,1.64,2.88,3.81Z"/>
      <path class="cls-6" d="M161.97,119.44c0-2.3-1.64-3.97-3.91-3.97s-4,1.75-4,4.16,1.62,3.97,3.86,3.97c2.35,0,4.06-1.75,4.06-4.16ZM160.77,119.74c0,2.01-1.1,3.41-2.66,3.41s-2.84-1.64-2.84-3.81c0-2.01,1.08-3.41,2.62-3.41,1.64,0,2.88,1.64,2.88,3.81Z"/>
      <path class="cls-6" d="M172.89,123.15c-.72-.04-.72-.12-.73-.4l-.13-6.43c0-.28.02-.35.73-.39h.13v-.35h-2.14l-.02.12c-.03.2-.17.65-.39,1.24l-1.78,4.79-1.86-5c-.16-.4-.28-.76-.38-1.05l-.03-.1h-2.27v.34h.13c.76.07.91.15.9.86l-.13,5.42c0,.73-.17.89-.9.95h-.13v.35h2.72v-.34h-.13c-.9-.07-1.07-.23-1.05-.96l.12-5.4,2.49,6.61.03.09h.33l2.53-6.7.12,5.95c0,.28-.02.35-.73.39h-.13v.35h2.82v-.34h-.13Z"/>
      <path class="cls-6" d="M54.4,146.21l.02-.06h-.35l-.04.08c-.66,1.27-1.12,1.62-2.13,1.62h-1.16c-.25,0-.33-.07-.33-.29v-6.43c0-.27,0-.35.74-.4h.13v-.35h-2.83v.34h.13c.74.05.74.13.74.4v6.42c0,.26,0,.35-.74.4h-.13v.35h5.32l.62-2.07Z"/>
      <path class="cls-6" d="M62.37,146.97l-2-5.51c-.25-.69-.3-.84-.38-1.2l-.03-.11h-.24l-.04.05c-.15.19-.45.33-.67.38l-.16.04.23.58-2.04,5.66c-.31.82-.62,1.01-1.05,1.07l-.12.02v.34h2.5v-.34h-.13c-.41-.04-.66-.12-.76-.26-.08-.12-.07-.34.05-.66l.62-1.73h2.47l.76,2.13c.07.21.09.32.06.37-.08.12-.54.14-.68.14h-.13v.35h2.89v-.34h-.13c-.61-.07-.7-.16-1-.97ZM60.43,144.81h-2.12l1.06-2.97,1.06,2.97Z"/>
      <path class="cls-6" d="M71.27,145.39v-3.73c0-.71.17-.89.9-.95h.13v-.35h-2.76v.34h.13c.91.07,1.1.23,1.1.96v3.73c0,1.59-.72,2.4-2.13,2.4s-2.08-.84-2.08-2.42v-4.26c0-.27,0-.35.74-.4h.13v-.35h-2.83v.34h.13c.74.05.74.13.74.4v4.32c0,1.93.99,2.95,2.86,2.95s2.93-1.04,2.93-3Z"/>
      <path class="cls-6" d="M80.58,148.33l.04.06h.29v-6.72c0-.71.17-.89.9-.95h.13v-.35h-2.86v.34h.13c1.06.07,1.2.26,1.2.96v4.63l-4.23-5.87-.04-.06h-1.96v.34h.13c.73.07.9.25.9.96v5.31c0,.71-.17.89-.9.95h-.13v.35h2.86v-.34h-.13c-1.05-.07-1.19-.25-1.19-.96v-5.31l4.87,6.67Z"/>
      <path class="cls-6" d="M87.02,140.36h-3.07v.34h.13c.74.05.74.13.74.4v6.42c0,.27,0,.35-.74.4h-.13v.35h2.95c2.67,0,4.6-1.71,4.6-4.06s-1.8-3.87-4.49-3.87ZM90.31,144.52c0,1.95-1.35,3.31-3.27,3.31-1.12,0-1.12-.14-1.12-.41v-6.62h.97c2.01,0,3.42,1.53,3.42,3.71Z"/>
      <path class="cls-6" d="M100.41,147.94h-.13c-.44-.05-.82-.4-1.42-1.31l-1.53-2.29c.86-.25,1.86-.8,1.86-2.01,0-.9-.53-1.97-3.07-1.97h-2.54v.34h.13c.74.06.74.13.74.39v6.43c0,.27,0,.35-.74.4h-.13v.35h2.96v-.35h-.13c-.87-.05-.87-.14-.87-.4v-3.03h.46c.19,0,.26,0,.48.37l1.44,2.31c.6.98,1.02,1.15,1.67,1.15.23,0,.53-.02.7-.04h.12v-.34ZM95.54,144.07v-3.26h.4c.97,0,2.13.29,2.13,1.68,0,.98-.77,1.58-2.01,1.58h-.51Z"/>
      <path class="cls-6" d="M106.92,141.84c.49-.9.81-1.07,1.34-1.12h.12v-.35h-2.63v.34h.13c.42.04.67.12.74.25.06.12,0,.33-.17.66l-1.49,2.72-1.69-3.09c-.06-.1-.19-.34-.16-.4.01-.02.09-.09.57-.11h.13v-.35h-2.9v.34h.13c.61.07.81.18,1.25,1.03l1.81,3.31v2.49c0,.27,0,.35-.74.4h-.13v.35h2.83v-.34h-.13c-.74-.05-.74-.13-.74-.4v-2.59l1.73-3.11Z"/>
      <path class="cls-6" d="M51.01,172.74c-.99,0-1.69-.64-2.14-1.96l-.03-.09h-.34l.26,2.27.02.12h.32l.02-.11c.03-.13.05-.15.06-.15.04,0,.15.04.26.07h.02c.32.12.86.29,1.54.29,1.45,0,2.54-1.01,2.54-2.36,0-.97-.59-1.7-1.8-2.21l-.62-.26c-1.17-.49-1.41-.99-1.41-1.58,0-.89.68-1.29,1.35-1.29.81,0,1.47.62,1.86,1.75l.03.09h.33l-.22-2.13v-.04h-.33l-.02.11c-.03.13-.04.15-.05.15-.04,0-.16-.05-.27-.09-.29-.11-.73-.28-1.33-.28-1.26,0-2.22.95-2.22,2.21,0,.93.59,1.65,1.74,2.14l.62.26c1.01.42,1.46.92,1.46,1.61,0,.89-.66,1.47-1.68,1.47Z"/>
      <path class="cls-6" d="M56.56,165.9v4.32c0,1.93.99,2.95,2.86,2.95s2.93-1.04,2.93-3v-3.73c0-.71.17-.89.9-.95h.13v-.35h-2.76v.34h.13c.91.07,1.1.23,1.1.96v3.73c0,1.59-.72,2.4-2.13,2.4s-2.08-.84-2.08-2.42v-4.26c0-.27,0-.35.74-.4h.13v-.35h-2.83v.34h.13c.74.05.74.13.74.4Z"/>
      <path class="cls-6" d="M68.02,165.5h.13v-.35h-2.9v.34h.13c.77.05.77.13.77.4v6.42c0,.27,0,.35-.77.4h-.13v.35h2.9v-.34h-.13c-.77-.05-.77-.13-.77-.4v-6.42c0-.27,0-.35.77-.4Z"/>
      <path class="cls-6" d="M74.67,165.59c1.06,0,1.4.17,1.93,1.48l.03.09h.35l-.42-2.05v-.05s-.15.03-.15.03c-.2.04-.55.06-.98.06h-3.86c-.43,0-.8-.02-.99-.06l-.14-.03-.42,2.1h.34l.03-.09c.53-1.3.87-1.48,1.93-1.48h.63v6.73c0,.27,0,.35-.74.4h-.13v.35h2.83v-.34h-.13c-.74-.05-.74-.13-.74-.4v-6.73h.63Z"/>
      <path class="cls-6" d="M82.36,165.59c1.1,0,1.47.28,1.96,1.48l.03.09h.35l-.38-1.9-.02-.11h-5.43v.34h.13c.74.05.74.13.74.4v6.42c0,.27,0,.35-.74.4h-.13v.35h5.61l.64-2.12h-.35l-.04.08c-.7,1.35-1.16,1.59-2.11,1.59h-1.46c-.24,0-.33-.08-.33-.29v-3.05h1.3c.86,0,1.03.27,1.2,1.21l.02.12h.33v-3.05h-.33l-.02.12c-.16.89-.35,1.17-1.2,1.17h-1.3v-3.24h1.53Z"/>
      <polygon class="cls-6" points="93.41 166.81 93.41 168.9 91.38 168.9 91.38 169.4 93.41 169.4 93.41 171.49 93.91 171.49 93.91 169.4 95.94 169.4 95.94 168.9 93.91 168.9 93.91 166.81 93.41 166.81"/>
      <path class="cls-6" d="M109.55,170.57c-.62,1.23-1.64,1.93-2.8,1.93-1.83,0-3.05-1.46-3.05-3.64,0-1.94,1.2-3.36,2.85-3.36,1.32,0,2.33.75,2.84,2.12l.03.09h.33l-.28-2.45-.02-.12h-.33l-.02.12c-.04.34-.11.34-.13.34-.04,0-.14-.05-.25-.09h-.02c-.37-.17-1.05-.48-2.16-.48-2.27,0-4.06,1.84-4.06,4.18s1.59,3.95,3.79,3.95c1.6,0,2.92-.89,3.62-2.44l.06-.13-.36-.14-.06.11Z"/>
      <path class="cls-6" d="M117.95,171l.02-.06h-.35l-.04.08c-.66,1.27-1.12,1.62-2.13,1.62h-1.16c-.25,0-.33-.07-.33-.29v-6.43c0-.27,0-.35.74-.4h.13v-.35h-2.83v.34h.13c.74.05.74.13.74.4v6.42c0,.26,0,.35-.74.4h-.13v.35h5.33l.62-2.07Z"/>
      <path class="cls-6" d="M127.66,169.01c0-2.3-1.64-3.97-3.91-3.97s-4,1.75-4,4.16,1.62,3.97,3.86,3.97c2.35,0,4.06-1.75,4.06-4.16ZM126.46,169.31c0,2.01-1.1,3.41-2.66,3.41s-2.84-1.64-2.84-3.81c0-2.01,1.08-3.41,2.62-3.41,1.64,0,2.88,1.64,2.88,3.81Z"/>
      <path class="cls-6" d="M135.03,170.82c0-.97-.59-1.7-1.8-2.21l-.62-.26c-1.17-.49-1.41-.99-1.41-1.58,0-.95.73-1.29,1.35-1.29.81,0,1.47.62,1.86,1.75l.03.09h.33l-.22-2.13v-.04h-.33l-.02.11c-.03.13-.04.15-.05.15-.04,0-.16-.05-.27-.09-.29-.11-.73-.28-1.33-.28-1.26,0-2.22.95-2.22,2.21,0,.93.59,1.65,1.74,2.14l.62.26c1.01.42,1.46.92,1.46,1.61,0,.89-.66,1.47-1.68,1.47s-1.69-.64-2.14-1.96l-.03-.09h-.34l.26,2.27.02.12h.32l.02-.11c.03-.13.05-.15.06-.15.04,0,.17.04.29.08.34.11.86.29,1.54.29,1.45,0,2.54-1.01,2.54-2.36Z"/>
      <path class="cls-6" d="M143.17,170.95l-.04.08c-.7,1.35-1.16,1.59-2.11,1.59h-1.46c-.24,0-.33-.08-.33-.29v-3.05h1.3c.86,0,1.03.27,1.2,1.21l.02.12h.33v-3.05h-.33l-.02.12c-.16.89-.35,1.17-1.2,1.17h-1.3v-3.24h1.53c1.1,0,1.47.28,1.96,1.48l.03.09h.35l-.38-1.9-.02-.11h-5.43v.34h.13c.74.05.74.13.74.4v6.42c0,.27,0,.35-.74.4h-.13v.35h5.61l.64-2.12h-.35Z"/>
      <path class="cls-6" d="M147.4,172.72h-.13v.35h2.83v-.34h-.13c-.74-.05-.74-.13-.74-.4v-6.73h.63c1.06,0,1.4.17,1.93,1.48l.03.09h.35l-.42-2.05v-.05s-.15.03-.15.03c-.2.04-.55.06-.98.06h-3.86c-.43,0-.8-.02-.99-.06l-.14-.03-.42,2.1h.34l.03-.09c.53-1.3.87-1.48,1.93-1.48h.63v6.73c0,.27,0,.35-.74.4Z"/>
      <path class="cls-6" d="M54.31,195.54c0-1.33-1.04-1.82-1.77-2,.54-.22,1.29-.71,1.29-1.72,0-1.2-1-1.89-2.74-1.89h-2.63v.34h.13c.74.05.74.13.74.4v6.42c0,.27,0,.35-.74.4h-.13v.35h2.73c1.87,0,3.12-.93,3.12-2.31ZM50.41,193.85h.65c1.32,0,2.11.67,2.11,1.79s-.76,1.76-2.04,1.76c-.71,0-.71-.09-.71-.33v-3.22ZM50.41,193.41v-3.03h.57c1.13,0,1.77.57,1.77,1.56,0,.93-.66,1.47-1.81,1.47h-.53Z"/>
      <path class="cls-6" d="M62.29,196.54l-2-5.51c-.25-.69-.3-.84-.38-1.2l-.03-.11h-.24l-.04.05c-.15.19-.45.33-.67.38l-.16.04.23.58-2.04,5.66c-.31.82-.62,1.01-1.05,1.07l-.12.02v.34h2.5v-.34h-.13c-.41-.04-.66-.12-.76-.26-.08-.12-.07-.34.05-.66l.62-1.73h2.47l.76,2.13c.07.21.09.32.06.37-.08.12-.54.14-.68.14h-.13v.35h2.89v-.34h-.13c-.61-.07-.7-.16-1-.97ZM60.35,194.38h-2.12l1.06-2.97,1.06,2.97Z"/>
      <path class="cls-6" d="M66.75,190.38v6.73c0,.27,0,.35-.74.4h-.13v.35h2.83v-.34h-.13c-.74-.05-.74-.13-.74-.4v-6.73h.63c1.06,0,1.4.17,1.93,1.48l.03.09h.35l-.42-2.05v-.05s-.15.03-.15.03c-.2.04-.55.06-.98.06h-3.86c-.43,0-.8-.02-.99-.06l-.14-.03-.42,2.1h.34l.03-.09c.53-1.3.87-1.48,1.93-1.48h.63Z"/>
      <path class="cls-6" d="M75.5,197.51h-.13c-.74-.05-.74-.13-.74-.4v-3.03h3.94v3.03c0,.27,0,.35-.74.4h-.13v.35h2.83v-.34h-.13c-.74-.05-.74-.13-.74-.4v-6.42c0-.27,0-.35.74-.4h.13v-.35h-2.83v.34h.13c.74.05.74.13.74.4v2.92h-3.94v-2.92c0-.27,0-.35.74-.4h.13v-.35h-2.83v.34h.13c.74.05.74.13.74.4v6.42c0,.27,0,.35-.74.4h-.13v.35h2.83v-.34Z"/>
      <path class="cls-6" d="M87.97,196.2l-1.53-2.29c.86-.25,1.86-.8,1.86-2.01,0-.9-.53-1.97-3.07-1.97h-2.54v.34h.13c.74.06.74.13.74.39v6.43c0,.27,0,.35-.74.4h-.13v.35h2.96v-.35h-.13c-.87-.05-.87-.14-.87-.4v-3.03h.46c.19,0,.26,0,.48.37l1.44,2.31c.6.98,1.02,1.15,1.67,1.15.23,0,.53-.02.7-.04h.12v-.34h-.13c-.44-.05-.82-.4-1.42-1.31ZM84.64,193.64v-3.26h.4c.97,0,2.13.29,2.13,1.68,0,.98-.77,1.58-2.01,1.58h-.51Z"/>
      <path class="cls-6" d="M94.94,189.83c-2.32,0-4,1.75-4,4.16s1.62,3.97,3.86,3.97c2.35,0,4.06-1.75,4.06-4.16s-1.64-3.97-3.91-3.97ZM97.65,194.09c0,2.01-1.09,3.41-2.66,3.41s-2.84-1.64-2.84-3.81c0-2.01,1.08-3.41,2.62-3.41,1.64,0,2.88,1.64,2.88,3.81Z"/>
      <path class="cls-6" d="M105.24,189.83c-2.32,0-4,1.75-4,4.16s1.62,3.97,3.86,3.97c2.35,0,4.06-1.75,4.06-4.16s-1.64-3.97-3.91-3.97ZM107.95,194.09c0,2.01-1.1,3.41-2.66,3.41s-2.84-1.64-2.84-3.81c0-2.01,1.08-3.41,2.62-3.41,1.64,0,2.88,1.64,2.88,3.81Z"/>
      <path class="cls-6" d="M119.33,197.1l-.13-6.42c0-.28.02-.35.73-.39h.13v-.35h-2.14l-.02.12c-.03.2-.17.64-.39,1.24l-1.78,4.79-1.86-5c-.15-.37-.26-.7-.36-.99l-.05-.16h-2.27v.34h.13c.76.07.91.15.9.86l-.13,5.42c0,.73-.17.89-.9.95h-.13v.35h2.73v-.34h-.13c-.9-.07-1.07-.23-1.06-.96l.12-5.4,2.49,6.61.03.09h.33l2.53-6.7.12,5.95c0,.28-.02.35-.73.39h-.13v.35h2.82v-.34h-.13c-.72-.05-.72-.13-.73-.41Z"/>
      <path class="cls-6" d="M129.6,193.4l-.62-.26c-1.17-.49-1.41-.99-1.41-1.58,0-.95.73-1.29,1.35-1.29.81,0,1.47.62,1.86,1.75l.03.09h.33l-.22-2.13v-.04h-.33l-.02.11c-.03.13-.04.15-.05.15-.04,0-.16-.05-.27-.09-.29-.11-.73-.28-1.33-.28-1.26,0-2.22.95-2.22,2.21,0,.93.59,1.65,1.74,2.14l.62.26c1.01.42,1.46.92,1.46,1.61,0,.89-.66,1.47-1.68,1.47s-1.69-.64-2.14-1.96l-.03-.09h-.34l.26,2.27.02.12h.32l.02-.11c.03-.13.05-.15.06-.15.04,0,.17.04.29.08.34.11.86.29,1.54.29,1.45,0,2.54-1.01,2.54-2.36,0-.97-.59-1.7-1.8-2.21Z"/>
      <path class="cls-6" d="M138.47,190.28h.13c.91.07,1.1.23,1.1.96v3.73c0,1.59-.72,2.4-2.13,2.4s-2.08-.84-2.08-2.42v-4.26c0-.27,0-.35.74-.4h.13v-.35h-2.83v.34h.13c.74.05.74.13.74.4v4.32c0,1.93.99,2.95,2.86,2.95s2.93-1.04,2.93-3v-3.73c0-.71.17-.89.9-.95h.13v-.35h-2.76v.34Z"/>
      <path class="cls-6" d="M143.09,190.28h.13c.77.05.77.13.77.4v6.42c0,.27,0,.35-.77.4h-.13v.35h2.9v-.34h-.13c-.77-.05-.77-.13-.77-.4v-6.42c0-.27,0-.35.77-.4h.13v-.35h-2.9v.34Z"/>
      <path class="cls-6" d="M154.39,189.85l-.14.03c-.2.04-.55.06-.98.06h-3.86c-.43,0-.8-.02-.99-.06l-.14-.03-.42,2.1h.34l.03-.09c.53-1.3.87-1.48,1.93-1.48h.63v6.73c0,.27,0,.35-.74.4h-.13v.35h2.83v-.34h-.13c-.74-.05-.74-.13-.74-.4v-6.73h.63c1.06,0,1.4.17,1.93,1.48l.03.09h.35l-.42-2.05v-.05Z"/>
      <path class="cls-6" d="M162.58,195.81c-.7,1.35-1.16,1.59-2.11,1.59h-1.46c-.24,0-.33-.08-.33-.29v-3.05h1.3c.86,0,1.03.27,1.2,1.21l.02.12h.33v-3.05h-.33l-.02.12c-.16.89-.35,1.17-1.2,1.17h-1.3v-3.24h1.53c1.1,0,1.47.28,1.96,1.48l.03.09h.35l-.38-1.9-.02-.11h-5.43v.34h.13c.74.05.74.13.74.4v6.42c0,.27,0,.35-.74.4h-.13v.35h5.61l.64-2.12h-.35l-.04.08Z"/>
      <path class="cls-6" d="M54.73,214.63l-.14.03c-.19.04-.55.06-.98.06h-3.86c-.44,0-.8-.02-.99-.06l-.14-.03-.42,2.1h.34l.03-.09c.53-1.3.87-1.48,1.93-1.48h.63v6.73c0,.27,0,.35-.74.4h-.13v.35h2.83v-.34h-.13c-.74-.05-.74-.13-.74-.4v-6.73h.63c1.06,0,1.4.17,1.93,1.48l.03.09h.35l-.4-1.96-.03-.14Z"/>
      <path class="cls-6" d="M62.92,220.6c-.7,1.35-1.17,1.59-2.11,1.59h-1.46c-.24,0-.33-.08-.33-.29v-3.05h1.3c.86,0,1.03.27,1.2,1.21l.02.12h.33v-3.05h-.33l-.02.12c-.16.89-.35,1.17-1.2,1.17h-1.3v-3.24h1.53c1.1,0,1.47.28,1.96,1.48l.03.09h.35l-.38-1.9-.02-.11h-5.43v.34h.13c.74.05.74.13.74.4v6.43c0,.27,0,.35-.74.4h-.13v.35h5.61l.64-2.12h-.35l-.04.08Z"/>
      <path class="cls-6" d="M70.56,220.98l-1.53-2.29c.86-.25,1.86-.8,1.86-2,0-.9-.53-1.97-3.07-1.97h-2.54v.34h.13c.74.06.74.13.74.39v6.44c0,.27,0,.35-.74.4h-.13v.35h2.96v-.35h-.13c-.87-.05-.87-.14-.87-.4v-3.03h.46c.19,0,.26,0,.48.37l1.44,2.31c.6.98,1.02,1.15,1.67,1.15.21,0,.51-.02.7-.04l.12-.02v-.33h-.13c-.44-.05-.82-.4-1.42-1.31ZM67.24,218.42v-3.26h.4c.97,0,2.13.29,2.13,1.68,0,.98-.77,1.58-2.01,1.58h-.51Z"/>
      <path class="cls-6" d="M78.99,220.98l-1.53-2.29c.86-.25,1.86-.8,1.86-2,0-.9-.53-1.97-3.07-1.97h-2.54v.34h.13c.74.06.74.13.74.39v6.44c0,.27,0,.35-.74.4h-.13v.35h2.96v-.35h-.13c-.87-.05-.87-.14-.87-.4v-3.03h.46c.19,0,.26,0,.48.37l1.44,2.31c.6.98,1.02,1.15,1.67,1.15.21,0,.51-.02.7-.04l.12-.02v-.33h-.13c-.44-.05-.82-.4-1.42-1.31ZM75.66,218.42v-3.26h.4c.97,0,2.13.29,2.13,1.68,0,.98-.77,1.58-2.01,1.58h-.51Z"/>
      <path class="cls-6" d="M88.28,221.33l-2-5.51c-.25-.67-.3-.84-.38-1.2l-.03-.11h-.24l-.04.05c-.15.19-.45.33-.67.38l-.16.04.23.58-2.04,5.66c-.31.82-.62,1.01-1.05,1.07l-.12.02v.34h2.5v-.34h-.13c-.41-.04-.66-.12-.76-.26-.08-.12-.07-.34.05-.66l.62-1.73h2.47l.76,2.13c.07.21.09.32.06.37-.08.12-.54.14-.68.14h-.13v.35h2.89v-.34h-.13c-.61-.07-.7-.16-1-.97ZM86.34,219.17h-2.12l1.06-2.97,1.06,2.97Z"/>
      <path class="cls-6" d="M97.91,220.14c-.62,1.23-1.64,1.93-2.8,1.93-1.83,0-3.05-1.46-3.05-3.64,0-1.94,1.2-3.36,2.85-3.36,1.32,0,2.33.75,2.84,2.12l.03.09h.33l-.28-2.44-.02-.12h-.33l-.02.12c-.04.34-.11.34-.13.34-.04,0-.15-.05-.27-.1-.37-.16-1.05-.47-2.16-.47-2.27,0-4.06,1.84-4.06,4.18s1.59,3.95,3.79,3.95c1.6,0,2.92-.89,3.62-2.44l.06-.13-.36-.14-.06.11Z"/>
      <path class="cls-6" d="M106.23,220.6c-.7,1.35-1.17,1.59-2.11,1.59h-1.46c-.24,0-.33-.08-.33-.29v-3.05h1.3c.86,0,1.03.27,1.2,1.21l.02.12h.33v-3.05h-.33l-.02.12c-.16.89-.35,1.17-1.2,1.17h-1.3v-3.24h1.53c1.1,0,1.47.28,1.96,1.48l.03.09h.35l-.38-1.9-.02-.11h-5.43v.34h.13c.74.05.74.13.74.4v6.43c0,.27,0,.35-.74.4h-.13v.35h5.61l.64-2.12h-.35l-.04.08Z"/>
    </g>
    <g>
      <path class="cls-4" d="M20.82,244.2h.13c1.01.05,1.01.13,1.01.4v1.79c0,.44-1.07.68-1.8.68-1.52,0-3.15-1.21-3.15-3.85,0-1.95,1.2-3.37,2.85-3.37,1.3,0,2.33.76,2.83,2.08l.03.09h.33l-.28-2.4-.02-.12h-.32l-.02.12c-.05.34-.11.34-.13.34-.04,0-.16-.05-.27-.1-.4-.17-1.06-.46-2.15-.46-2.27,0-4.06,1.85-4.06,4.2s1.7,3.93,4.22,3.93c1.13,0,2.49-.36,3.39-.9l.11-.07-.14-.29-.12.04c-.15.05-.2.04-.2.04,0,0-.02-.03-.02-.13v-1.64c0-.27,0-.34.71-.38h.13v-.36h-3.07v.36Z"/>
      <path class="cls-4" d="M32.71,247.41v-.33h-.13c-.44-.05-.82-.4-1.42-1.31l-1.53-2.29c.86-.25,1.86-.8,1.86-2,0-.9-.53-1.97-3.07-1.97h-2.54v.34h.13c.74.06.74.13.74.39v6.44c0,.27,0,.35-.74.4h-.13v.35h2.96v-.35h-.13c-.87-.05-.87-.14-.87-.4v-3.03h.46c.19,0,.26,0,.48.37l1.44,2.31c.6.98,1.02,1.15,1.67,1.15.21,0,.51-.02.7-.04l.12-.02ZM27.83,243.21v-3.26h.4c.97,0,2.13.29,2.13,1.68,0,.98-.77,1.58-2.01,1.58h-.51Z"/>
      <path class="cls-4" d="M37.98,247.53c2.35,0,4.06-1.75,4.06-4.16s-1.64-3.97-3.91-3.97-4,1.75-4,4.16,1.62,3.97,3.86,3.97ZM35.33,243.27c0-2.01,1.08-3.41,2.62-3.41,1.64,0,2.88,1.64,2.88,3.81,0,2.01-1.1,3.41-2.66,3.41s-2.84-1.64-2.84-3.81Z"/>
      <path class="cls-4" d="M49.41,245.18c0-.97-.59-1.7-1.8-2.21l-.62-.26c-1.17-.49-1.41-.99-1.41-1.58,0-.89.68-1.29,1.35-1.29.81,0,1.47.62,1.86,1.75l.03.09h.33l-.22-2.13v-.04h-.33l-.02.11c-.03.13-.04.15-.05.15-.04,0-.16-.05-.27-.09-.29-.11-.73-.28-1.33-.28-1.26,0-2.22.95-2.22,2.21,0,.93.59,1.65,1.74,2.14l.62.26c1.01.42,1.46.92,1.46,1.61,0,.89-.66,1.47-1.68,1.47s-1.69-.64-2.14-1.96l-.03-.09h-.34l.26,2.27.02.12h.32l.02-.11c.03-.13.05-.15.06-.15.05,0,.18.05.28.08.32.11.86.29,1.54.29,1.45,0,2.54-1.01,2.54-2.35Z"/>
      <path class="cls-4" d="M54.97,242.97l-.62-.26c-1.17-.49-1.41-.99-1.41-1.58,0-.95.73-1.29,1.35-1.29.81,0,1.47.62,1.86,1.75l.03.09h.33l-.22-2.13v-.04h-.33l-.02.11c-.03.13-.04.15-.05.15-.04,0-.16-.05-.27-.09-.29-.11-.73-.28-1.33-.28-1.26,0-2.22.95-2.22,2.21,0,.93.59,1.65,1.74,2.14l.62.26c1.01.42,1.46.92,1.46,1.61,0,.89-.66,1.47-1.68,1.47s-1.69-.64-2.14-1.96l-.03-.09h-.34l.26,2.27.02.12h.32l.02-.11c.03-.13.05-.15.06-.15.04,0,.17.04.29.08.34.11.86.28,1.54.28,1.45,0,2.54-1.01,2.54-2.35,0-.97-.59-1.7-1.8-2.21Z"/>
      <path class="cls-4" d="M67.11,243.11c.54-.22,1.29-.71,1.29-1.72,0-1.2-1-1.89-2.74-1.89h-2.63v.34h.13c.74.05.74.13.74.4v6.43c0,.27,0,.35-.74.4h-.13v.35h2.73c1.87,0,3.12-.93,3.12-2.31s-1.04-1.82-1.77-2ZM64.99,243.43h.65c1.32,0,2.11.67,2.11,1.79s-.76,1.76-2.04,1.76c-.71,0-.71-.09-.71-.33v-3.22ZM64.99,242.98v-3.03h.58c1.12,0,1.77.57,1.77,1.56,0,.93-.66,1.47-1.81,1.47h-.53Z"/>
      <path class="cls-4" d="M78.54,239.85v-.34h-2.76v.34h.13c.91.07,1.1.23,1.1.96v3.73c0,1.59-.72,2.4-2.13,2.4s-2.08-.84-2.08-2.42v-4.26c0-.27,0-.35.74-.4h.13v-.35h-2.83v.34h.13c.74.05.74.13.74.4v4.33c0,1.93.99,2.95,2.86,2.95s2.93-1.04,2.93-3v-3.73c0-.71.17-.89.9-.95h.13Z"/>
      <path class="cls-4" d="M83.31,247.08h-.13c-.77-.05-.77-.13-.77-.4v-6.43c0-.27,0-.35.77-.4h.13v-.35h-2.9v.34h.13c.77.05.77.13.77.4v6.43c0,.27,0,.35-.77.4h-.13v.35h2.9v-.34Z"/>
      <path class="cls-4" d="M91.38,245.35l.02-.06h-.35l-.04.08c-.66,1.27-1.12,1.62-2.13,1.62h-1.16c-.25,0-.33-.07-.33-.29v-6.44c0-.27,0-.35.74-.4h.13v-.35h-2.83v.34h.13c.74.05.74.13.74.4v6.43c0,.26,0,.35-.74.4h-.13v.35h5.32l.62-2.07Z"/>
      <path class="cls-4" d="M100.78,243.37c0-2.31-1.8-3.87-4.49-3.87h-3.07v.34h.13c.74.05.74.13.74.4v6.43c0,.27,0,.35-.74.4h-.13v.35h2.95c2.67,0,4.6-1.71,4.6-4.06ZM99.57,243.66c0,1.95-1.35,3.31-3.27,3.31-1.12,0-1.12-.14-1.12-.41v-6.62h.97c2.01,0,3.42,1.53,3.42,3.71Z"/>
      <path class="cls-4" d="M102.82,239.85h.13c.77.05.77.13.77.4v6.43c0,.27,0,.35-.77.4h-.13v.35h2.9v-.34h-.13c-.77-.05-.77-.13-.77-.4v-6.43c0-.27,0-.35.77-.4h.13v-.35h-2.9v.34Z"/>
      <path class="cls-4" d="M112.67,239.85h.13c1.06.07,1.2.26,1.2.96v4.63l-4.23-5.87-.04-.06h-1.96v.34h.13c.73.07.9.25.9.96v5.31c0,.71-.17.89-.9.95h-.13v.35h2.86v-.34h-.13c-1.05-.07-1.19-.25-1.19-.96v-5.31l4.87,6.67.04.06h.28v-6.72c0-.71.17-.89.9-.95h.13v-.35h-2.86v.34Z"/>
      <path class="cls-4" d="M122.46,244.2h.13c1.01.05,1.01.13,1.01.4v1.79c0,.44-1.07.68-1.8.68-1.52,0-3.15-1.21-3.15-3.85,0-1.95,1.2-3.37,2.85-3.37,1.3,0,2.33.76,2.83,2.08l.03.09h.33l-.28-2.4-.02-.12h-.32l-.02.12c-.05.34-.11.34-.13.34-.04,0-.16-.05-.27-.1-.4-.17-1.06-.46-2.15-.46-2.27,0-4.06,1.85-4.06,4.2s1.7,3.93,4.22,3.93c1.13,0,2.49-.36,3.39-.9l.11-.07-.14-.29-.12.04c-.15.05-.2.04-.2.04,0,0-.02-.03-.02-.13v-1.64c0-.27,0-.34.71-.38h.13v-.36h-3.07v.36Z"/>
      <path class="cls-4" d="M137.32,246.11l-2.01-5.51c-.26-.7-.3-.85-.38-1.2l-.03-.11h-.24l-.04.05c-.15.19-.45.33-.67.38l-.16.04.23.58-2.04,5.66c-.31.82-.62,1.01-1.05,1.07l-.12.02v.34h2.49v-.34h-.13c-.41-.04-.66-.12-.75-.26-.08-.13-.07-.34.05-.66l.62-1.73h2.47l.76,2.13c.07.2.09.32.06.37-.08.12-.54.14-.68.14h-.13v.35h2.89v-.34h-.13c-.61-.07-.7-.16-1-.97ZM135.38,243.95h-2.12l1.06-2.97,1.06,2.97Z"/>
      <path class="cls-4" d="M145.48,245.77l-1.53-2.29c.86-.25,1.86-.8,1.86-2,0-.9-.53-1.97-3.07-1.97h-2.54v.34h.13c.74.06.74.13.74.39v6.44c0,.27,0,.35-.74.4h-.13v.35h2.96v-.35h-.13c-.87-.05-.87-.14-.87-.4v-3.03h.46c.19,0,.26,0,.48.37l1.44,2.31c.6.98,1.02,1.15,1.67,1.15.21,0,.51-.02.7-.04l.12-.02v-.33h-.13c-.44-.05-.82-.4-1.42-1.31ZM142.16,243.21v-3.26h.4c.97,0,2.13.29,2.13,1.68,0,.98-.77,1.58-2.01,1.58h-.51Z"/>
      <path class="cls-4" d="M154.49,245.38c-.7,1.35-1.17,1.59-2.11,1.59h-1.46c-.24,0-.33-.08-.33-.29v-3.05h1.3c.86,0,1.03.27,1.2,1.21l.02.12h.33v-3.05h-.33l-.02.12c-.16.89-.35,1.17-1.2,1.17h-1.3v-3.24h1.53c1.1,0,1.47.28,1.96,1.48l.03.09h.35l-.38-1.9-.02-.11h-5.43v.34h.13c.74.05.74.13.74.4v6.43c0,.27,0,.35-.74.4h-.13v.35h5.61l.64-2.12h-.35l-.04.08Z"/>
      <path class="cls-4" d="M163.92,247.07c-.61-.06-.7-.15-1-.96l-2-5.51c-.25-.67-.3-.84-.38-1.2l-.03-.11h-.24l-.04.05c-.15.19-.45.33-.67.38l-.16.04.23.58-2.04,5.66c-.31.82-.62,1.01-1.05,1.07l-.12.02v.34h2.5v-.34h-.13c-.41-.04-.66-.12-.76-.26-.08-.12-.07-.34.05-.66l.62-1.73h2.47l.76,2.13c.07.21.09.32.06.37-.08.12-.54.14-.68.14h-.13v.35h2.89v-.34h-.13ZM160.98,243.95h-2.12l1.06-2.97,1.06,2.97Z"/>
      <path class="cls-4" d="M20.54,264.63h.13c.91.07,1.1.23,1.1.96v3.73c0,1.59-.72,2.4-2.13,2.4s-2.08-.84-2.08-2.42v-4.26c0-.27,0-.35.74-.4h.13v-.35h-2.83v.34h.13c.74.05.74.13.74.4v4.32c0,1.93.99,2.95,2.86,2.95s2.93-1.04,2.93-3v-3.73c0-.71.17-.89.9-.95h.13v-.35h-2.76v.34Z"/>
      <path class="cls-4" d="M28.39,267.75l-.62-.26c-1.17-.49-1.41-.99-1.41-1.58,0-.95.73-1.29,1.35-1.29.81,0,1.47.62,1.86,1.75l.03.09h.33l-.22-2.13v-.04h-.33l-.02.11c-.03.13-.04.15-.05.15-.04,0-.16-.05-.27-.09-.29-.11-.73-.28-1.33-.28-1.26,0-2.22.95-2.22,2.21,0,.93.59,1.65,1.74,2.14l.62.26c1.01.42,1.46.92,1.46,1.61,0,.89-.66,1.47-1.68,1.47s-1.69-.64-2.14-1.96l-.03-.09h-.34l.26,2.27.02.12h.32l.02-.11c.03-.13.05-.15.06-.15.04,0,.17.04.29.08.34.11.86.29,1.54.29,1.45,0,2.54-1.01,2.54-2.36,0-.97-.59-1.7-1.8-2.21Z"/>
      <path class="cls-4" d="M38.29,270.17c-.7,1.35-1.16,1.59-2.11,1.59h-1.46c-.24,0-.33-.08-.33-.29v-3.05h1.3c.86,0,1.03.27,1.2,1.21l.02.12h.33v-3.05h-.33l-.02.12c-.16.89-.35,1.17-1.2,1.17h-1.3v-3.24h1.53c1.1,0,1.47.28,1.96,1.48l.03.09h.35l-.38-1.9-.02-.11h-5.43v.34h.13c.74.05.74.13.74.4v6.42c0,.27,0,.35-.74.4h-.13v.35h5.61l.64-2.12h-.35l-.04.08Z"/>
      <path class="cls-4" d="M45.89,264.29h-5.24v.34h.13c.74.05.74.13.74.4v6.42c0,.27,0,.35-.74.4h-.13v.35h3.08v-.35h-.13c-.99-.05-.99-.13-.99-.41v-3.03h1.19c.86,0,1.03.27,1.2,1.21l.02.12h.33v-3.05h-.33l-.02.12c-.16.89-.35,1.17-1.2,1.17h-1.19v-3.24h1.34c1.1,0,1.47.28,1.96,1.48l.03.09h.35l-.38-1.9-.02-.11Z"/>
      <path class="cls-4" d="M53.09,264.63h.13c.91.07,1.1.23,1.1.96v3.73c0,1.59-.72,2.4-2.13,2.4s-2.08-.84-2.08-2.42v-4.26c0-.27,0-.35.74-.4h.13v-.35h-2.83v.34h.13c.74.05.74.13.74.4v4.32c0,1.93.99,2.95,2.86,2.95s2.93-1.04,2.93-3v-3.73c0-.71.17-.89.9-.95h.13v-.35h-2.76v.34Z"/>
      <path class="cls-4" d="M63.32,270.15c-.66,1.27-1.12,1.62-2.13,1.62h-1.16c-.25,0-.33-.07-.33-.29v-6.43c0-.27,0-.35.74-.4h.13v-.35h-2.83v.34h.13c.74.05.74.13.74.4v6.42c0,.26,0,.35-.74.4h-.13v.35h5.32l.62-2.07.02-.06h-.35l-.04.08Z"/>
      <path class="cls-4" d="M75.05,270.9l-2-5.51c-.25-.69-.3-.84-.38-1.2l-.03-.11h-.24l-.04.05c-.15.19-.45.33-.67.38l-.16.04.23.58-2.04,5.66c-.31.82-.62,1.01-1.05,1.07l-.12.02v.34h2.5v-.34h-.13c-.41-.04-.66-.12-.76-.26-.08-.12-.07-.34.05-.66l.62-1.73h2.47l.76,2.13c.07.21.09.32.06.37-.08.12-.54.14-.68.14h-.13v.35h2.89v-.34h-.13c-.61-.07-.7-.16-1-.97ZM73.12,268.74h-2.12l1.06-2.97,1.06,2.97Z"/>
      <path class="cls-4" d="M83.22,270.56l-1.53-2.29c.86-.25,1.86-.8,1.86-2.01,0-.9-.53-1.97-3.07-1.97h-2.54v.34h.13c.74.06.74.13.74.39v6.43c0,.27,0,.35-.74.4h-.13v.35h2.96v-.35h-.13c-.87-.05-.87-.14-.87-.4v-3.03h.46c.19,0,.26,0,.48.37l1.44,2.31c.6.98,1.02,1.15,1.67,1.15.23,0,.53-.02.7-.04h.12v-.34h-.13c-.44-.05-.82-.4-1.42-1.31ZM79.89,268v-3.26h.4c.97,0,2.13.29,2.13,1.68,0,.98-.77,1.58-2.01,1.58h-.51Z"/>
      <path class="cls-4" d="M92.23,270.17c-.7,1.35-1.16,1.59-2.11,1.59h-1.46c-.24,0-.33-.08-.33-.29v-3.05h1.3c.86,0,1.03.27,1.2,1.21l.02.12h.33v-3.05h-.33l-.02.12c-.16.89-.35,1.17-1.2,1.17h-1.3v-3.24h1.53c1.1,0,1.47.28,1.96,1.48l.03.09h.35l-.38-1.9-.02-.11h-5.43v.34h.13c.74.05.74.13.74.4v6.42c0,.27,0,.35-.74.4h-.13v.35h5.61l.64-2.12h-.35l-.04.08Z"/>
      <path class="cls-4" d="M100.65,270.9l-2.01-5.51c-.26-.71-.3-.85-.38-1.2l-.03-.11h-.24l-.04.05c-.15.19-.45.33-.67.38l-.16.04.23.58-2.04,5.66c-.31.82-.62,1.01-1.05,1.07l-.12.02v.34h2.49v-.34h-.13c-.41-.04-.66-.12-.75-.26-.08-.13-.07-.34.05-.66l.62-1.73h2.47l.76,2.13c.07.2.09.32.06.38-.08.12-.54.14-.68.14h-.13v.35h2.89v-.34h-.13c-.61-.07-.7-.16-1-.97ZM98.72,268.74h-2.12l1.06-2.97,1.06,2.97Z"/>
    </g>
    <g>
      <path class="cls-6" d="M19.63,293.62c1.04-1.02,1.25-1.67,1.25-2.39,0-1.28-.97-2.07-2.54-2.07-1.15,0-2.11.39-2.71,1.09h-.01s.57.51.57.51h.02s.01,0,.01,0c.49-.56,1.16-.84,2.06-.84,1.12,0,1.76.51,1.76,1.4,0,.53-.17,1.03-1.01,1.86l-3.16,3.09h0v.59h5.37v-.73h-4.15l2.55-2.5Z"/>
      <path class="cls-6" d="M28.55,289.22h-2.86v7.63h.84v-2.4h2.02c.95,0,1.74-.24,2.29-.69.55-.46.83-1.12.83-1.92,0-1.64-1.17-2.62-3.12-2.62ZM30.83,291.84c0,1.2-.82,1.87-2.3,1.87h-2v-3.76h2c1.48,0,2.3.67,2.3,1.89Z"/>
      <path class="cls-6" d="M34.9,293.59c-.83,0-2.22.21-2.22,1.64,0,1.02.83,1.68,2.1,1.68.88,0,1.57-.32,1.94-.89v.84h.78v-3.56c0-1.46-.81-2.23-2.33-2.23-.9,0-1.75.28-2.33.77h-.01s.36.6.36.6v.02s.03-.02.03-.02c.48-.42,1.17-.67,1.88-.67,1.04,0,1.6.51,1.6,1.49v.33h-1.79ZM34.92,294.21h1.77v.91c-.3.74-.94,1.14-1.79,1.14s-1.42-.39-1.42-1.05.47-1,1.44-1ZM33.95,294.37s.07-.03.1-.04c-.03.01-.07.03-.1.04ZM33.47,295.05s.02-.09.03-.14c-.01.04-.02.09-.03.14ZM33.61,294.66s.07-.09.12-.13c-.04.04-.08.09-.12.13Z"/>
      <path class="cls-6" d="M40.34,292.16v-1.05h-.78v5.75h.81v-2.93c0-1.33.69-2.09,1.9-2.09.02,0,.05,0,.08,0,.03,0,.07,0,.1,0h.02v-.79h-.02c-1.01,0-1.74.38-2.12,1.1Z"/>
      <polygon class="cls-6" points="44.63 295.22 45.96 294 48.24 296.85 48.25 296.85 49.24 296.85 46.56 293.46 48.99 291.14 49.03 291.11 48.01 291.11 44.63 294.2 44.63 288.76 43.82 288.76 43.82 296.85 44.63 296.85 44.63 295.22"/>
      <path class="cls-6" d="M50.67,289.9c.33,0,.58-.25.58-.58,0-.3-.26-.55-.58-.55s-.58.25-.58.56.26.57.58.57Z"/>
      <rect class="cls-6" x="50.26" y="291.11" width=".81" height="5.75"/>
      <path class="cls-6" d="M53.99,293.84c0-1.28.74-2.04,1.98-2.04,1.09,0,1.69.64,1.69,1.8v3.25h.81v-3.33c0-1.56-.86-2.46-2.36-2.46-.96,0-1.72.37-2.15,1.04v-1h-.78v5.75h.81v-3.01Z"/>
      <path class="cls-6" d="M65.87,296.14v-5.03h-.78v1.05c-.48-.71-1.27-1.09-2.24-1.09-1.67,0-2.88,1.17-2.88,2.78s1.21,2.8,2.88,2.8c.93,0,1.73-.39,2.2-1.06v.66c0,1.4-.66,2.05-2.08,2.05-.87,0-1.68-.28-2.23-.78l-.02-.02-.4.61h0s.01.03.01.03c.58.55,1.58.88,2.67.88,1.93,0,2.87-.94,2.87-2.87ZM65.08,293.84c0,1.22-.88,2.07-2.15,2.07s-2.14-.85-2.14-2.07.88-2.06,2.14-2.06,2.15.85,2.15,2.06Z"/>
      <path class="cls-6" d="M75.96,294.83c0-1.5-1.38-1.83-2.6-2.13-1.07-.26-2.08-.51-2.08-1.46,0-.32.14-1.36,1.99-1.36.71,0,1.46.23,2.07.63h.02s.28-.65.28-.65h0s-.01-.02-.01-.02c-.61-.42-1.49-.68-2.37-.68-2.08,0-2.82,1.09-2.82,2.1,0,1.53,1.39,1.86,2.61,2.16,1.06.26,2.06.5,2.06,1.45,0,.83-.75,1.33-2.02,1.33-.95,0-1.92-.36-2.49-.92l-.02-.02-.33.64h0s0,.02,0,.02c.57.59,1.71.99,2.84.99,2.1,0,2.85-1.08,2.85-2.09Z"/>
      <path class="cls-6" d="M77.71,296.11c.04.08.08.15.13.21.07.09.15.17.24.25.07.05.14.1.21.14.11.06.23.1.36.13.08.02.16.03.25.04.08,0,.14.04.23.04.23,0,.48-.04.7-.12h.01s-.06-.66-.06-.66v-.03s-.03.01-.03.01c-.1.05-.29.1-.51.1-.62,0-.93-.34-.93-1.02v-6.42h-.81v6.49c0,.09.03.15.04.23,0,.09.02.17.04.25.03.14.07.26.13.37Z"/>
      <path class="cls-6" d="M83.11,291.06c-1.7,0-2.93,1.23-2.93,2.92s1.23,2.93,2.93,2.93,2.92-1.23,2.92-2.93-1.23-2.92-2.92-2.92ZM85.2,293.98c0,1.3-.86,2.21-2.1,2.21s-2.11-.91-2.11-2.21.87-2.2,2.11-2.2,2.1.91,2.1,2.2Z"/>
      <path class="cls-6" d="M87.69,295.23c0,1.07.62,1.68,1.69,1.68.48,0,.93-.15,1.22-.41h.01s-.28-.58-.28-.58v-.02s-.03.02-.03.02c-.2.18-.51.29-.83.29-.62,0-.97-.36-.97-1.02v-3.39h1.74v-.69h-1.74v-1.25h-.81v1.25h-1.02v.69h1.02v3.43Z"/>
      <path class="cls-6" d="M95.89,295.26c0-1.21-1.12-1.41-2.11-1.59-.82-.15-1.59-.29-1.59-.98,0-.59.54-.92,1.47-.92.64,0,1.21.17,1.67.49h.02s.35-.63.35-.63v-.02s0,0,0,0c-.48-.33-1.27-.53-2.03-.53-1.38,0-2.28.65-2.28,1.65,0,1.26,1.14,1.47,2.15,1.65.83.15,1.55.28,1.55.92,0,.61-.51.91-1.51.91-.73,0-1.53-.25-2.02-.64h-.02s-.36.61-.36.61h0s.01.03.01.03c.49.42,1.43.71,2.33.71,1.46,0,2.37-.63,2.37-1.65Z"/>
      <polygon class="cls-6" points="16.55 314.59 16.53 314.6 16.75 315.33 18.17 314.89 18.17 321.64 19.06 321.64 19.06 313.95 18.41 313.95 16.55 314.59"/>
      <path class="cls-6" d="M28.55,317.48c-1.07-.26-2.08-.51-2.08-1.46,0-.32.14-1.36,1.99-1.36.71,0,1.46.23,2.07.63h.02s.28-.65.28-.65h0s-.01-.02-.01-.02c-.61-.42-1.49-.68-2.37-.68-2.08,0-2.82,1.09-2.82,2.1,0,1.53,1.39,1.86,2.61,2.16,1.06.26,2.06.5,2.06,1.45,0,.83-.75,1.33-2.02,1.33-.95,0-1.92-.36-2.49-.92l-.02-.02-.33.64h0s0,.02,0,.02c.57.59,1.71.99,2.84.99,2.1,0,2.85-1.08,2.85-2.09,0-1.5-1.38-1.83-2.6-2.13Z"/>
      <path class="cls-6" d="M35.45,320.69l-.02.02c-.2.18-.51.29-.83.29-.62,0-.97-.36-.97-1.02v-3.39h1.74v-.69h-1.74v-1.25h-.81v1.25h-1.02v.69h1.02v3.43c0,1.07.62,1.68,1.69,1.68.48,0,.93-.15,1.22-.41h.01s-.28-.58-.28-.58v-.02Z"/>
      <path class="cls-6" d="M39.24,315.85c-1.7,0-2.93,1.23-2.93,2.92s1.23,2.93,2.93,2.93,2.92-1.23,2.92-2.93-1.23-2.92-2.92-2.92ZM41.34,318.77c0,1.3-.86,2.21-2.1,2.21s-2.11-.91-2.11-2.21.87-2.2,2.11-2.2,2.1.91,2.1,2.2Z"/>
      <path class="cls-6" d="M44.47,316.95v-1.05h-.78v5.75h.81v-2.93c0-1.33.69-2.09,1.9-2.09.03,0,.05,0,.08,0,.03,0,.07,0,.1,0h.02v-.79h-.02c-1.01,0-1.74.38-2.12,1.1Z"/>
      <path class="cls-6" d="M49.97,315.85c-.9,0-1.75.28-2.33.77h-.01s.36.6.36.6v.02s.03-.02.03-.02c.48-.42,1.17-.67,1.88-.67,1.04,0,1.6.51,1.6,1.49v.33h-1.79c-.83,0-2.22.21-2.22,1.64,0,1.02.83,1.68,2.1,1.68.88,0,1.57-.32,1.94-.89v.84h.78v-3.56c0-1.46-.81-2.23-2.33-2.23ZM49.72,318.99h1.77v.91c-.3.74-.94,1.14-1.79,1.14s-1.42-.39-1.42-1.05.47-1,1.44-1ZM48.74,319.16s.07-.03.1-.04c-.03.01-.07.03-.1.04ZM48.27,319.84s.02-.09.03-.14c-.01.04-.02.09-.03.14ZM48.4,319.45s.07-.09.12-.13c-.04.04-.08.09-.12.13Z"/>
      <path class="cls-6" d="M58.92,316.94c-.48-.71-1.27-1.09-2.24-1.09-1.67,0-2.88,1.17-2.88,2.78s1.21,2.8,2.88,2.8c.93,0,1.73-.39,2.2-1.06v.66c0,1.4-.66,2.05-2.08,2.05-.87,0-1.68-.28-2.23-.78l-.02-.02-.4.61h0s.01.03.01.03c.58.55,1.58.88,2.67.88,1.93,0,2.87-.94,2.87-2.87v-5.03h-.78v1.05ZM58.91,318.63c0,1.22-.88,2.07-2.15,2.07s-2.14-.85-2.14-2.07.88-2.06,2.14-2.06,2.15.85,2.15,2.06Z"/>
      <path class="cls-6" d="M64.05,315.85c-1.63,0-2.81,1.23-2.81,2.92s1.24,2.93,3.01,2.93c.92,0,1.71-.33,2.22-.94h.01s-.45-.52-.45-.52v-.02s-.03.02-.03.02c-.42.49-1.02.74-1.73.74-1.24,0-2.13-.78-2.22-1.95h4.77v-.02s0-.09,0-.13c0-.04,0-.07,0-.1,0-1.72-1.15-2.92-2.79-2.92ZM62.06,318.41c.11-1.1.92-1.86,2-1.86s1.9.75,2.01,1.86h-4Z"/>
      <path class="cls-6" d="M77.37,316.63c0-1.64-1.17-2.62-3.12-2.62h-2.86v7.63h.84v-2.41h2.02c.21,0,.4,0,.6-.03l1.73,2.43h0s.93,0,.93,0l-1.86-2.61c1.11-.37,1.72-1.22,1.72-2.4ZM76.52,316.63c0,1.21-.82,1.88-2.3,1.88h-2v-3.77h2c1.48,0,2.3.67,2.3,1.89Z"/>
      <path class="cls-6" d="M81.42,315.85c-1.7,0-2.93,1.23-2.93,2.92s1.23,2.93,2.93,2.93,2.92-1.23,2.92-2.93-1.23-2.92-2.92-2.92ZM83.51,318.77c0,1.3-.86,2.21-2.1,2.21s-2.11-.91-2.11-2.21.87-2.2,2.11-2.2,2.1.91,2.1,2.2Z"/>
      <path class="cls-6" d="M88.22,315.85c-1.7,0-2.93,1.23-2.93,2.92s1.23,2.93,2.93,2.93,2.92-1.23,2.92-2.93-1.23-2.92-2.92-2.92ZM90.32,318.77c0,1.3-.86,2.21-2.1,2.21s-2.11-.91-2.11-2.21.87-2.2,2.11-2.2,2.1.91,2.1,2.2Z"/>
      <path class="cls-6" d="M99.81,315.85c-1,0-1.82.43-2.25,1.18-.35-.76-1.07-1.18-2.03-1.18s-1.65.37-2.07,1.03v-.99h-.78v5.75h.81v-3.01c0-1.26.72-2.04,1.89-2.04,1.05,0,1.63.64,1.63,1.8v3.25h.81v-3.01c0-1.28.71-2.04,1.89-2.04,1.04,0,1.62.64,1.62,1.8v3.25h.81v-3.33c0-1.56-.84-2.46-2.32-2.46Z"/>
    </g>
  </g>
  <g>
    <rect class="cls-2" x="11.22" y="32.49" width="286.63" height=".6"/>
    <rect class="cls-5" x="11.22" y="57.43" width="286.63" height=".15"/>
    <rect class="cls-5" x="11.22" y="82.15" width="286.63" height=".15"/>
    <rect class="cls-5" x="11.22" y="106.86" width="286.63" height=".15"/>
    <rect class="cls-5" x="11.22" y="131.58" width="286.63" height=".15"/>
    <rect class="cls-5" x="11.22" y="156.29" width="286.63" height=".15"/>
    <rect class="cls-5" x="11.22" y="181" width="286.63" height=".15"/>
    <rect class="cls-5" x="11.22" y="205.72" width="286.63" height=".15"/>
    <rect class="cls-2" x="11.22" y="230.21" width="286.63" height=".6"/>
    <rect class="cls-5" x="11.22" y="255.15" width="286.63" height=".15"/>
    <rect class="cls-5" x="11.22" y="279.87" width="286.63" height=".15"/>
    <rect class="cls-5" x="11.22" y="304.58" width="286.63" height=".15"/>
  </g>
  <g>
    <g>
      <path class="cls-4" d="M180.01,16.07h.12c.96.07,1.17.25,1.17,1.03v3.91c0,1.68-.76,2.54-2.25,2.54s-2.2-.88-2.2-2.56v-4.47c0-.31.03-.39.79-.44h.12v-.33h-2.92v.32h.12c.76.05.79.13.79.44v4.53c0,2.04,1,3.07,2.97,3.07s3.05-1.08,3.05-3.12v-3.91c0-.77.18-.96.96-1.02h.12v-.33h-2.85v.32Z"/>
      <path class="cls-4" d="M188.43,19.38l-.65-.28c-1.23-.52-1.49-1.05-1.49-1.68,0-.95.72-1.37,1.44-1.37.86,0,1.56.66,1.97,1.85l.03.08h.3l-.23-2.2v-.04h-.31l-.02.1c-.04.18-.06.18-.08.18-.05,0-.16-.04-.27-.09h-.01c-.31-.12-.77-.3-1.38-.3-1.31,0-2.3.99-2.3,2.29,0,.96.61,1.71,1.81,2.23l.65.27c1.07.45,1.54.98,1.54,1.71,0,.95-.7,1.56-1.78,1.56s-1.79-.68-2.26-2.07l-.03-.08h-.32l.28,2.42v.04h.3l.02-.1c.04-.17.06-.17.09-.17.05,0,.16.04.29.08h.02c.36.12.9.3,1.61.3,1.51,0,2.64-1.05,2.64-2.45,0-1.01-.61-1.76-1.87-2.29Z"/>
      <path class="cls-4" d="M199.05,21.9c-.74,1.43-1.23,1.68-2.23,1.68h-1.53c-.27,0-.37-.09-.37-.33v-3.22h1.38c.92,0,1.1.29,1.27,1.28l.02.1h.31v-3.15h-.3l-.02.1c-.17.95-.37,1.24-1.27,1.24h-1.38v-3.44h1.62c1.17,0,1.55.29,2.07,1.56l.03.08h.33l-.39-1.96-.02-.1h-5.65v.32h.12c.76.05.79.13.79.44v6.73c0,.31-.03.39-.8.44h-.12v.33h5.84l.66-2.17h-.32l-.03.07Z"/>
      <path class="cls-4" d="M207.19,15.75h-5.45v.32h.12c.76.05.79.13.79.44v6.73c0,.31-.03.39-.8.44h-.12v.33h3.19v-.32h-.12c-1.06-.05-1.06-.15-1.06-.45v-3.2h1.27c.91,0,1.11.3,1.27,1.28l.02.1h.31v-3.15h-.31l-.02.1c-.17.95-.37,1.24-1.27,1.24h-1.27v-3.44h1.43c1.17,0,1.56.29,2.07,1.56l.03.08h.33l-.39-1.96-.02-.1Z"/>
      <path class="cls-4" d="M214.99,16.07h.12c.96.07,1.17.25,1.17,1.03v3.91c0,1.68-.76,2.54-2.25,2.54s-2.2-.88-2.2-2.56v-4.47c0-.31.03-.39.79-.44h.12v-.33h-2.92v.32h.12c.76.05.79.13.79.44v4.53c0,2.04,1,3.07,2.97,3.07s3.05-1.08,3.05-3.12v-3.91c0-.77.18-.96.96-1.02h.12v-.33h-2.85v.32Z"/>
      <path class="cls-4" d="M225.93,21.88c-.7,1.34-1.18,1.7-2.25,1.7h-1.21c-.28,0-.37-.08-.37-.33v-6.74c0-.31.03-.39.8-.44h.12v-.33h-2.92v.32h.12c.76.05.79.13.79.44v6.73c0,.3-.03.39-.8.44h-.12v.33h5.54l.61-2.04.05-.16h-.32l-.03.07Z"/>
      <path class="cls-4" d="M238.62,22.66l-2.1-5.78c-.26-.71-.32-.88-.4-1.26l-.02-.1h-.23l-.04.05c-.16.2-.47.35-.71.41l-.14.03.23.6-2.14,5.94c-.33.87-.66,1.07-1.12,1.13h-.11v.33h2.57v-.32h-.12c-.45-.04-.71-.13-.81-.28-.09-.14-.08-.36.05-.71l.65-1.83h2.62l.81,2.25c.08.23.1.35.05.41-.06.09-.3.14-.73.16h-.12v.33h2.99v-.32h-.11c-.65-.07-.75-.17-1.07-1.03ZM236.64,20.41h-2.29l1.14-3.2,1.14,3.2Z"/>
      <path class="cls-4" d="M247.4,22.31l-1.62-2.43c.91-.26,1.96-.83,1.96-2.09,0-.93-.55-2.04-3.19-2.04h-2.64v.32h.12c.77.06.8.14.8.44v6.74c0,.31-.03.39-.8.44h-.12v.33h3.06v-.32h-.12c-.93-.05-.93-.15-.93-.44v-3.2h.5c.2,0,.29,0,.52.39l1.51,2.42c.62,1.01,1.05,1.19,1.73,1.19.22,0,.54-.02.73-.05h.11v-.31h-.11c-.47-.05-.87-.42-1.5-1.39ZM246.6,17.95c0,1.04-.82,1.68-2.13,1.68h-.56v-3.46h.44c1.47,0,2.25.61,2.25,1.78Z"/>
      <path class="cls-4" d="M257.09,21.9c-.74,1.43-1.23,1.68-2.23,1.68h-1.53c-.27,0-.37-.09-.37-.33v-3.22h1.38c.92,0,1.1.29,1.27,1.28l.02.1h.31v-3.15h-.3l-.02.1c-.17.95-.37,1.24-1.27,1.24h-1.38v-3.44h1.62c1.17,0,1.55.29,2.07,1.56l.03.08h.33l-.39-1.96-.02-.1h-5.65v.32h.12c.76.05.79.13.79.44v6.73c0,.31-.03.39-.8.44h-.12v.33h5.84l.66-2.17h-.32l-.03.07Z"/>
      <path class="cls-4" d="M266.1,22.66l-2.1-5.78c-.26-.71-.32-.88-.4-1.26l-.02-.1h-.23l-.04.05c-.16.2-.47.35-.71.41l-.14.03.23.6-2.14,5.94c-.33.87-.66,1.07-1.12,1.13h-.11v.33h2.57v-.32h-.12c-.45-.04-.71-.13-.81-.28-.09-.14-.08-.36.05-.71l.65-1.83h2.62l.81,2.25c.08.23.1.35.05.41-.06.09-.3.14-.73.16h-.12v.33h2.99v-.32h-.11c-.65-.07-.75-.17-1.07-1.03ZM264.12,20.41h-2.29l1.14-3.2,1.14,3.2Z"/>
      <path class="cls-4" d="M275.2,16.08h-.62s-.01.03-.01.03c-.71,1.14-1.09,2.73-1.09,4.49s.38,3.3,1.09,4.49l.02.03h.62l-.06-.1c-.72-1.22-1.07-2.67-1.07-4.41s.35-3.19,1.07-4.41l.06-.1Z"/>
      <path class="cls-4" d="M282.71,18.13c-.88,0-1.62.41-2,1.09-.3-.71-.94-1.09-1.82-1.09-.8,0-1.46.33-1.83.9v-.86h-.59v5.1h.61v-2.71c0-1.15.67-1.86,1.75-1.86.95,0,1.48.58,1.48,1.64v2.93h.61v-2.71c0-1.15.67-1.86,1.75-1.86.95,0,1.48.58,1.48,1.64v2.93h.61v-2.97c0-1.38-.75-2.17-2.05-2.17Z"/>
      <path class="cls-4" d="M287.77,19.04c.55-.54.66-.89.66-1.27,0-.68-.53-1.12-1.35-1.12-.6,0-1.09.2-1.41.57l-.06.08.35.31.07-.08c.25-.28.57-.42,1.04-.42.56,0,.88.25.88.69,0,.27-.09.52-.52.96l-1.64,1.63-.03.03v.34h2.86v-.46h-2.11l1.26-1.25Z"/>
      <path class="cls-4" d="M289.7,16.1l-.02-.02h-.61l.06.1c.71,1.21,1.06,2.65,1.06,4.41s-.35,3.2-1.06,4.41l-.06.1h.61l.02-.03c.72-1.18,1.1-2.73,1.1-4.49s-.39-3.35-1.11-4.5Z"/>
    </g>
    <g>
      <polygon class="cls-4" points="258.64 240.04 258.88 240.83 260.29 240.39 260.29 247.14 261.24 247.14 261.24 239.39 260.56 239.39 258.64 240.04"/>
      <path class="cls-4" d="M267.85,239.39h-.82l-4.31,5.25-.02.02.24.68h3.99v1.8h.92v-1.8h1.18v-.82h-1.18v-5.13ZM263.89,244.52l3.04-3.73v3.73h-3.04Z"/>
      <polygon class="cls-4" points="270.61 247.06 270.57 247.14 271.64 247.14 275.1 240.15 275.11 239.44 269.86 239.44 269.86 240.32 274 240.32 270.61 247.06"/>
      <rect class="cls-4" x="275.34" y="245.9" width="1.1" height="1.24"/>
      <path class="cls-4" d="M282.7,246.63c.55-.41.83-.95.83-1.6,0-.85-.5-1.48-1.49-1.88.81-.4,1.23-.99,1.23-1.74,0-.6-.26-1.1-.79-1.49-.52-.39-1.14-.58-1.86-.58s-1.34.2-1.86.58c-.52.39-.78.89-.78,1.47,0,.77.41,1.36,1.22,1.76-.43.17-.79.41-1.05.71-.29.33-.44.72-.44,1.16,0,.65.28,1.19.83,1.6.55.41,1.25.62,2.07.62s1.52-.21,2.07-.61ZM279.24,244.01c.37-.27.84-.4,1.39-.4s1.01.13,1.38.4c.37.26.55.59.55,1s-.17.73-.52.99c-.35.27-.82.4-1.42.4s-1.07-.14-1.42-.4c-.34-.26-.52-.59-.52-.97,0-.41.18-.75.55-1.01ZM281.83,242.42c-.32.25-.73.38-1.21.38s-.89-.13-1.21-.38c-.32-.25-.48-.57-.48-.96s.16-.68.47-.92c.32-.24.73-.36,1.21-.36s.89.12,1.21.36c.32.24.48.54.48.9,0,.4-.16.73-.48.98Z"/>
      <path class="cls-4" d="M287.92,247.27c.97,0,1.76-.39,2.36-1.16.6-.77.9-1.72.9-2.81s-.3-2.06-.89-2.82c-.59-.77-1.38-1.15-2.35-1.15s-1.76.39-2.37,1.16c-.6.77-.91,1.72-.91,2.81s.3,2.06.9,2.83c.6.77,1.39,1.15,2.36,1.15ZM286.3,245.48c-.43-.61-.64-1.34-.64-2.19s.21-1.6.63-2.2c.42-.59.96-.9,1.63-.9s1.22.3,1.64.91c.42.61.64,1.34.64,2.19s-.21,1.6-.63,2.2c-.41.59-.96.9-1.62.9s-1.22-.31-1.64-.91Z"/>
      <polygon class="cls-4" points="263.3 265.11 267.45 265.11 264.05 271.85 264.02 271.92 265.08 271.92 268.55 264.94 268.55 264.23 263.3 264.23 263.3 265.11"/>
      <path class="cls-4" d="M273.81,267.94c.81-.4,1.23-.99,1.23-1.74,0-.6-.26-1.1-.79-1.49-.52-.39-1.14-.58-1.86-.58s-1.34.2-1.86.58c-.52.39-.78.89-.78,1.47,0,.77.41,1.36,1.22,1.76-.43.17-.79.41-1.05.71-.29.33-.44.72-.44,1.16,0,.65.28,1.19.83,1.6.55.41,1.25.62,2.07.62s1.52-.21,2.07-.61c.55-.41.83-.95.83-1.6,0-.85-.5-1.48-1.49-1.88ZM273.6,267.21c-.32.25-.73.38-1.21.38s-.89-.13-1.21-.38c-.32-.25-.48-.57-.48-.96s.16-.68.47-.92c.32-.24.73-.36,1.21-.36s.89.12,1.21.36c.32.24.48.54.48.9,0,.4-.16.73-.48.98ZM271,268.8c.37-.27.84-.4,1.39-.4s1.01.13,1.38.4c.37.26.55.59.55,1s-.17.73-.52.99c-.35.27-.82.4-1.42.4s-1.07-.14-1.42-.4c-.34-.26-.52-.59-.52-.97,0-.41.18-.75.55-1.01Z"/>
      <rect class="cls-4" x="276.59" y="270.68" width="1.1" height="1.24"/>
      <path class="cls-4" d="M283.3,267.94c.81-.4,1.23-.99,1.23-1.74,0-.6-.26-1.1-.79-1.49-.52-.39-1.14-.58-1.86-.58s-1.34.2-1.86.58c-.52.39-.78.89-.78,1.47,0,.77.41,1.36,1.22,1.76-.43.17-.79.41-1.05.71-.29.33-.44.72-.44,1.16,0,.65.28,1.19.83,1.6.55.41,1.25.62,2.07.62s1.52-.21,2.07-.61c.55-.41.83-.95.83-1.6,0-.85-.5-1.48-1.49-1.88ZM283.09,267.21c-.32.25-.73.38-1.21.38s-.89-.13-1.21-.38c-.32-.25-.48-.57-.48-.96s.16-.68.47-.92c.32-.24.73-.36,1.21-.36s.89.12,1.21.36c.32.24.48.54.48.9,0,.4-.16.73-.48.98ZM280.5,268.8c.37-.27.84-.4,1.39-.4s1.01.13,1.38.4c.37.26.55.59.55,1s-.17.73-.52.99c-.35.27-.82.4-1.42.4s-1.07-.14-1.42-.4c-.34-.26-.52-.59-.52-.97,0-.41.18-.75.55-1.01Z"/>
      <path class="cls-4" d="M289.17,269.33c.72-.64,1.22-1.17,1.51-1.57.29-.41.43-.89.43-1.42,0-.64-.23-1.18-.68-1.59-.45-.42-1.03-.63-1.72-.63-.64,0-1.17.14-1.59.4-.42.27-.81.68-1.19,1.24l-.03.04.67.48.04.03.03-.04c.31-.44.63-.77.94-.97.3-.2.66-.31,1.06-.31s.77.13,1.05.39c.28.26.43.6.43,1.02,0,.36-.11.72-.34,1.06-.23.34-.64.78-1.23,1.29l-2.77,2.45v.73h5.41v-.88h-3.94l1.93-1.71Z"/>
    </g>
    <g>
      <path class="cls-1" d="M272.1,48.15c-.87,0-1.61-.38-2.22-1.13l-.62.55c.69.9,1.64,1.36,2.83,1.36.72,0,1.32-.22,1.81-.65.49-.43.73-.98.73-1.64s-.24-1.18-.71-1.54c-.47-.36-1.07-.57-1.8-.62l2.39-2.65v-.63h-4.85v.77h3.71l-2.4,2.7.17.51h.49c.64,0,1.15.13,1.54.38.39.26.59.62.59,1.08s-.16.81-.48,1.08-.71.41-1.18.41Z"/>
      <rect class="cls-1" x="276.2" y="47.66" width="1" height="1.14"/>
      <path class="cls-1" d="M282.71,47v1.8h.82v-1.8h1.18v-.72h-1.18v-5.13h-.75l-4.3,5.23.22.62h4ZM282.71,42.37v3.92h-3.19l3.19-3.92Z"/>
      <path class="cls-1" d="M291.13,48.02h-4.03l2.03-1.8c.72-.64,1.22-1.16,1.5-1.56.28-.41.42-.87.42-1.39,0-.63-.22-1.15-.67-1.56-.44-.41-1.01-.61-1.69-.61-.63,0-1.15.13-1.56.4-.41.26-.8.67-1.17,1.22l.63.46c.32-.45.64-.78.95-.99s.68-.32,1.09-.32.79.13,1.08.4.45.62.45,1.05c0,.38-.12.74-.35,1.08-.23.35-.64.78-1.24,1.3l-2.76,2.43v.66h5.31v-.78Z"/>
      <path class="cls-1" d="M267.59,72.81h-4.03l2.03-1.8c.72-.64,1.22-1.16,1.5-1.56.28-.41.42-.87.42-1.39,0-.63-.22-1.15-.67-1.56-.44-.41-1.01-.61-1.69-.61-.63,0-1.15.13-1.56.4s-.8.67-1.17,1.22l.63.46c.32-.45.64-.78.95-.99.31-.21.68-.32,1.09-.32s.79.13,1.08.4.45.62.45,1.05c0,.38-.12.74-.35,1.09s-.64.78-1.24,1.3l-2.76,2.43v.66h5.31v-.78Z"/>
      <path class="cls-1" d="M271.88,73.72c.77,0,1.42-.24,1.94-.72.52-.48.78-1.08.78-1.81s-.25-1.27-.76-1.7c-.51-.43-1.13-.65-1.86-.65-.91,0-1.63.39-2.16,1.16v-.03c0-.98.2-1.78.61-2.4.4-.61.94-.92,1.62-.92.6,0,1.2.25,1.79.75l.5-.66c-.71-.58-1.46-.87-2.25-.87-.97,0-1.74.39-2.31,1.17-.57.78-.85,1.77-.85,2.95,0,1.29.26,2.23.79,2.83.53.6,1.25.9,2.16.9ZM270.51,70.08c.36-.34.81-.51,1.36-.51s.99.15,1.33.46c.35.31.52.7.52,1.17,0,.51-.17.93-.5,1.26-.34.33-.78.5-1.33.5s-1.02-.16-1.38-.49c-.36-.33-.54-.73-.54-1.22,0-.45.18-.84.54-1.18Z"/>
      <rect class="cls-1" x="276.12" y="72.45" width="1" height="1.14"/>
      <path class="cls-1" d="M278.51,71.53c0,.64.27,1.16.81,1.56.54.4,1.22.61,2.04.61s1.5-.2,2.04-.6.81-.92.81-1.56c0-.86-.52-1.49-1.56-1.88.87-.4,1.3-.98,1.3-1.75,0-.59-.26-1.07-.77-1.45s-1.12-.58-1.83-.58-1.32.19-1.83.58-.76.86-.76,1.43c0,.78.43,1.37,1.3,1.77-.48.17-.86.42-1.14.74s-.42.69-.42,1.13ZM279.63,67.97c0-.39.16-.71.49-.96.33-.25.74-.37,1.24-.37s.9.12,1.24.37c.33.25.5.56.5.94,0,.42-.17.76-.5,1.02-.33.26-.75.39-1.24.39s-.91-.13-1.24-.39c-.33-.26-.5-.59-.5-1ZM279.95,70.47c.38-.27.85-.41,1.42-.41s1.03.14,1.41.41c.38.27.58.62.58,1.04s-.18.76-.54,1.03c-.36.28-.84.41-1.45.41s-1.09-.14-1.45-.41c-.36-.27-.54-.61-.54-1.01,0-.43.19-.78.57-1.05Z"/>
      <path class="cls-1" d="M288.12,70.82c.93,0,1.64-.4,2.15-1.21v.1c0,.95-.21,1.72-.62,2.33s-.96.91-1.63.91c-.63,0-1.25-.27-1.87-.81l-.5.66c.75.62,1.53.93,2.34.93.93,0,1.69-.38,2.28-1.15s.88-1.75.88-2.96c0-1.29-.27-2.24-.8-2.84-.53-.6-1.25-.9-2.14-.9-.8,0-1.45.25-1.96.74-.51.5-.77,1.11-.77,1.84s.25,1.26.74,1.71c.49.45,1.13.67,1.91.67ZM286.85,67.15c.33-.35.77-.53,1.32-.53s1.03.16,1.39.49c.36.33.54.74.54,1.23,0,.46-.17.87-.53,1.22-.35.35-.8.52-1.36.52s-1-.16-1.35-.47c-.35-.31-.52-.71-.52-1.19s.17-.92.5-1.27Z"/>
      <polygon class="cls-1" points="266.2 98.37 266.2 90.72 265.58 90.72 263.72 91.36 263.93 92.06 265.36 91.61 265.36 98.37 266.2 98.37"/>
      <path class="cls-1" d="M271.17,98.5c.96,0,1.73-.38,2.32-1.14.59-.76.89-1.69.89-2.78s-.29-2.04-.88-2.79-1.36-1.13-2.31-1.13-1.73.38-2.33,1.15-.9,1.69-.9,2.78.29,2.04.88,2.79c.59.76,1.36,1.13,2.32,1.13ZM269.5,92.35c.43-.61.98-.92,1.67-.92s1.25.31,1.68.93.65,1.36.65,2.22-.21,1.62-.64,2.23c-.42.61-.98.92-1.67.92s-1.25-.31-1.68-.93c-.43-.62-.65-1.36-.65-2.22s.21-1.62.64-2.23Z"/>
      <rect class="cls-1" x="275.68" y="97.23" width="1" height="1.14"/>
      <path class="cls-1" d="M282.19,96.57v1.8h.82v-1.8h1.18v-.72h-1.18v-5.13h-.75l-4.3,5.23.22.62h4ZM282.19,91.94v3.92h-3.19l3.19-3.92Z"/>
      <path class="cls-1" d="M288.4,98.5c.77,0,1.42-.24,1.94-.72.52-.48.78-1.08.78-1.81s-.25-1.27-.76-1.7c-.51-.43-1.13-.65-1.86-.65-.91,0-1.63.39-2.16,1.16v-.03c0-.98.2-1.78.61-2.4.4-.61.94-.92,1.62-.92.6,0,1.2.25,1.79.75l.5-.66c-.71-.58-1.46-.87-2.25-.87-.97,0-1.74.39-2.31,1.17-.57.78-.85,1.77-.85,2.95,0,1.29.26,2.23.79,2.83s1.25.9,2.16.9ZM287.02,94.86c.36-.34.81-.5,1.36-.5s.99.15,1.33.46c.35.31.52.7.52,1.17,0,.51-.17.93-.5,1.26-.34.33-.78.5-1.33.5s-1.02-.16-1.38-.49c-.36-.33-.54-.73-.54-1.21,0-.45.18-.84.54-1.18Z"/>
      <path class="cls-1" d="M271.1,122.51c-.87,0-1.61-.38-2.22-1.13l-.62.55c.69.9,1.64,1.36,2.83,1.36.72,0,1.32-.22,1.81-.65.49-.43.73-.98.73-1.64s-.24-1.18-.71-1.54c-.47-.36-1.07-.57-1.8-.62l2.39-2.65v-.63h-4.85v.77h3.71l-2.4,2.7.17.51h.49c.64,0,1.15.13,1.54.39.39.26.59.62.59,1.08s-.16.81-.48,1.08c-.32.28-.71.41-1.18.41Z"/>
      <rect class="cls-1" x="275.2" y="122.02" width="1" height="1.14"/>
      <path class="cls-1" d="M280.36,120.39c.93,0,1.64-.41,2.15-1.22v.1c0,.95-.21,1.72-.62,2.33s-.96.91-1.63.91c-.63,0-1.25-.27-1.87-.81l-.5.66c.75.62,1.53.93,2.34.93.93,0,1.69-.38,2.28-1.15s.88-1.75.88-2.96c0-1.29-.27-2.24-.8-2.84-.53-.6-1.25-.9-2.14-.9-.8,0-1.45.25-1.96.74-.51.5-.77,1.11-.77,1.84s.25,1.26.74,1.71,1.13.67,1.91.67ZM279.09,116.72c.33-.35.77-.53,1.32-.53s1.03.17,1.39.49c.36.33.54.74.54,1.23,0,.46-.17.87-.53,1.21-.35.35-.8.52-1.36.52s-1-.16-1.35-.47c-.35-.31-.52-.71-.52-1.19s.17-.92.5-1.28Z"/>
      <path class="cls-1" d="M290.25,116.57c-.59-.76-1.36-1.13-2.31-1.13s-1.73.38-2.33,1.15c-.6.76-.9,1.69-.9,2.78s.29,2.04.88,2.79c.59.76,1.36,1.13,2.32,1.13s1.73-.38,2.32-1.15c.59-.76.89-1.69.89-2.78s-.29-2.04-.88-2.79ZM289.61,121.59c-.42.61-.98.92-1.67.92s-1.25-.31-1.68-.93c-.43-.62-.65-1.36-.65-2.22s.21-1.62.64-2.23.98-.92,1.67-.92,1.25.31,1.68.93c.43.62.65,1.36.65,2.22s-.21,1.62-.64,2.23Z"/>
      <path class="cls-1" d="M274.86,141.14v-.79h-4.37l-.22,3.7.58.38c.54-.29,1.07-.43,1.6-.43.56,0,1.01.15,1.36.44.35.3.53.68.53,1.15,0,.5-.17.91-.51,1.23s-.78.48-1.32.48c-.72,0-1.44-.35-2.16-1.04l-.56.62c.8.8,1.71,1.21,2.71,1.21.8,0,1.45-.23,1.95-.7.51-.46.76-1.06.76-1.8s-.25-1.29-.74-1.71c-.5-.42-1.12-.63-1.88-.63-.48,0-.98.11-1.5.34l.16-2.43h3.62Z"/>
      <rect class="cls-1" x="276.68" y="146.81" width="1" height="1.14"/>
      <path class="cls-1" d="M281.89,147.29c-.87,0-1.61-.38-2.22-1.13l-.62.55c.69.9,1.64,1.36,2.83,1.36.72,0,1.32-.22,1.81-.65.49-.43.73-.98.73-1.64s-.24-1.18-.71-1.54c-.47-.36-1.07-.57-1.8-.62l2.39-2.65v-.63h-4.85v.77h3.71l-2.4,2.7.17.51h.49c.64,0,1.15.13,1.54.38.39.26.59.62.59,1.08s-.16.81-.48,1.08-.71.41-1.18.41Z"/>
      <path class="cls-1" d="M288.54,147.29c-.87,0-1.61-.38-2.22-1.13l-.62.55c.69.9,1.64,1.36,2.83,1.36.72,0,1.32-.22,1.81-.65.49-.43.73-.98.73-1.64s-.24-1.18-.71-1.54c-.47-.36-1.07-.57-1.8-.62l2.39-2.65v-.63h-4.85v.77h3.71l-2.4,2.7.17.51h.49c.64,0,1.15.13,1.54.38.39.26.59.62.59,1.08s-.16.81-.48,1.08-.71.41-1.18.41Z"/>
      <path class="cls-1" d="M266.29,169.64l-2.76,2.43v.66h5.31v-.78h-4.03l2.03-1.8c.72-.64,1.22-1.16,1.5-1.56.28-.41.42-.87.42-1.39,0-.63-.22-1.15-.67-1.56-.44-.41-1.01-.61-1.69-.61-.63,0-1.15.13-1.56.4s-.8.67-1.17,1.22l.63.46c.32-.45.64-.78.95-.99.31-.21.68-.32,1.09-.32s.79.13,1.08.4.45.62.45,1.05c0,.38-.12.74-.35,1.09s-.64.78-1.24,1.3Z"/>
      <path class="cls-1" d="M272.9,172.08c-.87,0-1.61-.38-2.22-1.13l-.62.55c.69.91,1.64,1.36,2.83,1.36.72,0,1.32-.21,1.81-.65.49-.43.73-.98.73-1.64s-.24-1.18-.71-1.54c-.47-.36-1.07-.57-1.8-.62l2.39-2.65v-.63h-4.85v.77h3.71l-2.4,2.7.17.51h.49c.64,0,1.15.13,1.54.38.39.26.59.62.59,1.08s-.16.81-.48,1.09c-.32.27-.71.41-1.18.41Z"/>
      <rect class="cls-1" x="277" y="171.59" width="1" height="1.14"/>
      <polygon class="cls-1" points="279.35 165.92 283.52 165.92 280.09 172.73 281.05 172.73 284.5 165.77 284.5 165.13 279.35 165.13 279.35 165.92"/>
      <path class="cls-1" d="M286.35,172.23c.54.4,1.22.61,2.04.61s1.5-.2,2.04-.6.81-.92.81-1.56c0-.86-.52-1.49-1.56-1.88.87-.4,1.3-.98,1.3-1.75,0-.59-.26-1.07-.77-1.45s-1.12-.58-1.83-.58-1.32.19-1.83.58-.76.86-.76,1.43c0,.78.43,1.37,1.3,1.77-.48.17-.86.42-1.14.74s-.42.69-.42,1.13c0,.64.27,1.16.81,1.56ZM286.65,167.11c0-.39.16-.71.49-.96.33-.25.74-.37,1.24-.37s.9.12,1.24.37c.33.25.5.56.5.94,0,.42-.17.76-.5,1.02-.33.26-.75.39-1.24.39s-.91-.13-1.24-.39c-.33-.26-.5-.59-.5-1ZM286.97,169.62c.38-.27.85-.41,1.42-.41s1.03.14,1.41.41c.38.27.58.62.58,1.04s-.18.76-.54,1.03c-.36.28-.84.41-1.45.41s-1.09-.14-1.45-.41c-.36-.27-.54-.61-.54-1.01,0-.43.19-.78.57-1.05Z"/>
      <path class="cls-1" d="M272.92,196.95c.51-.46.76-1.06.76-1.8s-.25-1.29-.74-1.71c-.5-.42-1.12-.63-1.88-.63-.48,0-.98.11-1.5.34l.16-2.43h3.62v-.79h-4.37l-.22,3.7.58.38c.54-.29,1.07-.43,1.6-.43.56,0,1.01.15,1.36.45.35.3.53.68.53,1.15,0,.5-.17.91-.51,1.23-.34.32-.78.48-1.32.48-.72,0-1.44-.35-2.16-1.04l-.56.62c.8.8,1.71,1.2,2.71,1.2.8,0,1.45-.23,1.95-.69Z"/>
      <rect class="cls-1" x="275.16" y="196.38" width="1" height="1.14"/>
      <path class="cls-1" d="M282.97,190.92c-.59-.76-1.36-1.13-2.31-1.13s-1.73.38-2.33,1.15-.9,1.69-.9,2.78.29,2.04.88,2.79c.59.76,1.36,1.13,2.32,1.13s1.73-.38,2.32-1.14c.59-.76.89-1.69.89-2.78s-.29-2.04-.88-2.79ZM282.33,195.95c-.42.61-.98.92-1.67.92s-1.25-.31-1.68-.93c-.43-.62-.65-1.36-.65-2.22s.21-1.62.64-2.23.98-.92,1.67-.92,1.25.31,1.68.93.65,1.36.65,2.22-.21,1.62-.64,2.23Z"/>
      <path class="cls-1" d="M290.04,189.86h-.75l-4.3,5.23.22.62h4v1.8h.82v-1.8h1.18v-.72h-1.18v-5.13ZM289.21,195h-3.19l3.19-3.92v3.92Z"/>
      <path class="cls-1" d="M267.9,221.65c-.72,0-1.44-.35-2.16-1.04l-.56.62c.8.8,1.71,1.2,2.71,1.2.8,0,1.45-.23,1.95-.69.51-.46.76-1.06.76-1.8s-.25-1.29-.74-1.71c-.5-.42-1.12-.63-1.88-.63-.48,0-.98.11-1.5.34l.16-2.43h3.62v-.79h-4.37l-.22,3.7.58.38c.54-.29,1.07-.43,1.6-.43.56,0,1.01.15,1.36.44.35.3.53.68.53,1.15,0,.5-.17.91-.51,1.23s-.78.48-1.32.48Z"/>
      <path class="cls-1" d="M275.11,222.43c.96,0,1.73-.38,2.32-1.14.59-.76.89-1.69.89-2.78s-.29-2.04-.88-2.79-1.36-1.13-2.31-1.13-1.73.38-2.33,1.15-.9,1.69-.9,2.78.29,2.04.88,2.79c.59.76,1.36,1.13,2.32,1.13ZM273.44,216.27c.43-.61.98-.92,1.67-.92s1.25.31,1.68.93c.43.62.65,1.36.65,2.22s-.21,1.62-.64,2.23c-.42.61-.98.92-1.67.92s-1.25-.31-1.68-.93c-.43-.62-.65-1.36-.65-2.22s.21-1.62.64-2.23Z"/>
      <rect class="cls-1" x="279.62" y="221.16" width="1" height="1.14"/>
      <polygon class="cls-1" points="283.69 222.3 283.69 214.65 283.06 214.65 281.2 215.29 281.41 215.98 282.84 215.54 282.84 222.3 283.69 222.3"/>
      <path class="cls-1" d="M286.94,216.28c.4-.61.94-.92,1.62-.92.6,0,1.2.25,1.79.75l.5-.66c-.71-.58-1.46-.87-2.25-.87-.97,0-1.74.39-2.31,1.17-.57.78-.85,1.76-.85,2.95,0,1.29.26,2.23.79,2.83s1.25.9,2.16.9c.77,0,1.42-.24,1.94-.72.52-.48.78-1.08.78-1.81s-.25-1.27-.76-1.7c-.51-.43-1.13-.65-1.86-.65-.91,0-1.63.39-2.16,1.16v-.03c0-.98.2-1.78.61-2.4ZM287.02,218.79c.36-.34.81-.5,1.36-.5s.99.15,1.33.46c.35.31.52.7.52,1.17,0,.51-.17.93-.5,1.26-.34.33-.78.5-1.33.5s-1.02-.16-1.38-.49c-.36-.33-.54-.73-.54-1.21,0-.45.18-.84.54-1.18Z"/>
      <path class="cls-1" d="M264.53,294.08c.72-.64,1.22-1.16,1.5-1.56.28-.41.42-.87.42-1.39,0-.63-.22-1.15-.67-1.56-.44-.41-1.01-.61-1.69-.61-.63,0-1.15.13-1.56.4-.41.26-.8.67-1.17,1.22l.63.46c.32-.45.64-.78.95-.99s.68-.31,1.09-.31.79.13,1.08.4.45.62.45,1.05c0,.38-.12.74-.35,1.08-.23.35-.64.78-1.24,1.3l-2.76,2.43v.66h5.31v-.78h-4.03l2.03-1.8Z"/>
      <path class="cls-1" d="M272.44,296.09c.51-.46.76-1.06.76-1.8s-.25-1.29-.74-1.71c-.5-.42-1.12-.63-1.88-.63-.48,0-.98.11-1.5.34l.16-2.43h3.62v-.79h-4.37l-.22,3.7.58.38c.54-.29,1.07-.43,1.6-.43.56,0,1.01.15,1.36.44.35.3.53.68.53,1.15,0,.5-.17.91-.51,1.23s-.78.48-1.32.48c-.72,0-1.44-.35-2.16-1.04l-.56.62c.8.8,1.71,1.2,2.71,1.2.8,0,1.45-.23,1.95-.69Z"/>
      <rect class="cls-1" x="274.68" y="295.52" width="1" height="1.14"/>
      <path class="cls-1" d="M282.48,295.64c.59-.76.89-1.69.89-2.78s-.29-2.04-.88-2.79-1.36-1.13-2.31-1.13-1.73.38-2.33,1.15-.9,1.69-.9,2.78.29,2.04.88,2.79c.59.76,1.36,1.13,2.32,1.13s1.73-.38,2.32-1.14ZM278.5,295.08c-.43-.62-.65-1.36-.65-2.22s.21-1.62.64-2.23.98-.92,1.67-.92,1.25.31,1.68.93c.43.62.65,1.36.65,2.22s-.21,1.62-.64,2.23c-.42.61-.98.92-1.67.92s-1.25-.31-1.68-.93Z"/>
      <path class="cls-1" d="M287.92,296.79c.96,0,1.73-.38,2.32-1.14.59-.76.89-1.69.89-2.78s-.29-2.04-.88-2.79-1.36-1.13-2.31-1.13-1.73.38-2.33,1.15-.9,1.69-.9,2.78.29,2.04.88,2.79c.59.76,1.36,1.13,2.32,1.13ZM286.25,290.63c.43-.61.98-.92,1.67-.92s1.25.31,1.68.93c.43.62.65,1.36.65,2.22s-.21,1.62-.64,2.23c-.42.61-.98.92-1.67.92s-1.25-.31-1.68-.93c-.43-.62-.65-1.36-.65-2.22s.21-1.62.64-2.23Z"/>
      <path class="cls-1" d="M274.2,317.75c-.47-.36-1.07-.57-1.8-.62l2.39-2.65v-.63h-4.85v.77h3.71l-2.4,2.7.17.51h.49c.64,0,1.15.13,1.54.39.39.26.59.62.59,1.08s-.16.81-.48,1.08-.71.41-1.18.41c-.87,0-1.61-.38-2.22-1.13l-.62.55c.69.9,1.64,1.36,2.83,1.36.72,0,1.32-.21,1.81-.65.49-.43.73-.98.73-1.64s-.24-1.18-.71-1.54Z"/>
      <rect class="cls-1" x="276.48" y="320.3" width="1" height="1.14"/>
      <path class="cls-1" d="M282.14,318.86c.72-.64,1.22-1.16,1.5-1.56.28-.41.42-.87.42-1.39,0-.63-.22-1.15-.67-1.56-.44-.41-1.01-.61-1.69-.61-.63,0-1.15.13-1.56.4-.41.26-.8.67-1.17,1.22l.63.46c.32-.45.64-.78.95-.99s.68-.31,1.09-.31.79.13,1.08.4.45.62.45,1.05c0,.38-.12.74-.35,1.08-.23.35-.64.78-1.24,1.3l-2.76,2.43v.66h5.31v-.78h-4.03l2.03-1.8Z"/>
      <path class="cls-1" d="M290.04,313.79h-.75l-4.3,5.23.22.62h4v1.8h.82v-1.8h1.18v-.72h-1.18v-5.13ZM289.21,318.93h-3.19l3.19-3.92v3.92Z"/>
    </g>
  </g>
</svg>