<?xml version="1.0" encoding="UTF-8"?>
<svg id="Camada_1" data-name="Camada 1" xmlns="http://www.w3.org/2000/svg" width="10.9cm" height="12.94cm" viewBox="0 0 309.06 366.68">
  <defs>
    <style>
      .cls-1 {
        fill: #468aa3;
      }

      .cls-2 {
        fill: #e0b35e;
      }

      .cls-3 {
        fill: #77a5b8;
      }

      .cls-4 {
        fill: #034d67;
      }

      .cls-5 {
        fill: #c0d4dc;
      }

      .cls-6 {
        fill: #227493;
      }
    </style>
  </defs>
  <g>
    <g>
      <polygon class="cls-3" points="22.41 43.6 22.41 50.36 23.25 50.36 23.25 42.71 22.62 42.71 20.77 43.35 20.97 44.04 22.41 43.6"/>
      <path class="cls-3" d="M24.75,74.36h-4.03l2.03-1.8c.72-.64,1.22-1.16,1.5-1.56.28-.41.42-.87.42-1.39,0-.63-.22-1.15-.67-1.56-.44-.41-1.01-.61-1.69-.61-.63,0-1.15.13-1.56.4s-.8.67-1.17,1.22l.63.46c.32-.45.64-.78.95-.99.31-.21.68-.31,1.09-.31s.79.13,1.08.4.45.62.45,1.05c0,.38-.12.74-.35,1.09s-.64.78-1.24,1.3l-2.76,2.43v.66h5.31v-.78Z"/>
      <path class="cls-3" d="M22.3,99.28c-.87,0-1.61-.38-2.22-1.13l-.62.55c.69.9,1.64,1.36,2.83,1.36.72,0,1.32-.21,1.81-.64.49-.43.73-.98.73-1.64s-.24-1.18-.71-1.54c-.47-.36-1.07-.57-1.8-.62l2.39-2.65v-.63h-4.85v.77h3.71l-2.4,2.7.17.51h.49c.64,0,1.15.13,1.54.39.39.26.59.62.59,1.08s-.16.81-.48,1.08-.71.41-1.18.41Z"/>
      <path class="cls-3" d="M24.43,122.2v-5.13h-.75l-4.3,5.23.22.62h4v1.8h.82v-1.8h1.18v-.71h-1.18ZM23.61,122.2h-3.19l3.19-3.92v3.92Z"/>
      <path class="cls-3" d="M22.22,148.85c-.72,0-1.44-.35-2.16-1.04l-.56.62c.8.8,1.71,1.21,2.71,1.21.8,0,1.45-.23,1.95-.7.51-.46.76-1.06.76-1.8s-.25-1.29-.74-1.71c-.5-.42-1.12-.63-1.88-.63-.48,0-.98.11-1.5.34l.16-2.43h3.62v-.79h-4.37l-.22,3.7.58.38c.54-.29,1.07-.43,1.6-.43.56,0,1.01.15,1.36.44.35.3.53.68.53,1.15,0,.5-.17.91-.51,1.23s-.78.48-1.32.48Z"/>
      <path class="cls-3" d="M21.08,168.26c.4-.61.94-.92,1.62-.92.6,0,1.2.25,1.79.75l.5-.66c-.71-.58-1.46-.87-2.25-.87-.97,0-1.74.39-2.31,1.17-.57.78-.85,1.77-.85,2.95,0,1.29.26,2.23.79,2.83.53.6,1.25.9,2.16.9.77,0,1.42-.24,1.94-.72.52-.48.78-1.08.78-1.81s-.25-1.27-.76-1.7c-.51-.43-1.13-.65-1.86-.65-.91,0-1.63.39-2.16,1.16v-.03c0-.98.2-1.78.61-2.4ZM21.16,170.77c.36-.34.81-.51,1.36-.51s.99.15,1.33.46c.35.31.52.7.52,1.17,0,.51-.17.93-.5,1.26-.34.33-.78.5-1.33.5s-1.02-.16-1.38-.49c-.36-.33-.54-.73-.54-1.21,0-.45.18-.84.54-1.18Z"/>
      <polygon class="cls-3" points="21.36 199.07 24.81 192.11 24.81 191.47 19.66 191.47 19.66 192.25 23.83 192.25 20.4 199.07 21.36 199.07"/>
      <path class="cls-3" d="M20.3,223.36c.54.41,1.22.61,2.04.61s1.5-.2,2.04-.6.81-.92.81-1.56c0-.86-.52-1.49-1.56-1.88.87-.4,1.3-.98,1.3-1.75,0-.59-.26-1.07-.77-1.46s-1.12-.57-1.83-.57-1.32.19-1.83.57-.76.86-.76,1.43c0,.78.43,1.37,1.3,1.77-.48.17-.86.42-1.14.74s-.42.7-.42,1.13c0,.64.27,1.16.81,1.56ZM20.6,218.23c0-.39.16-.71.49-.96s.74-.38,1.24-.38.9.12,1.24.38c.33.25.5.56.5.94,0,.42-.17.76-.5,1.02-.33.26-.75.39-1.24.39s-.91-.13-1.24-.39c-.33-.26-.5-.59-.5-1ZM20.92,220.74c.38-.28.85-.41,1.42-.41s1.03.13,1.41.41c.38.27.58.62.58,1.04s-.18.76-.54,1.03-.84.41-1.45.41-1.09-.14-1.45-.41-.54-.61-.54-1.01c0-.43.19-.78.57-1.05Z"/>
      <path class="cls-3" d="M22.34,240.91c-.8,0-1.45.25-1.96.74s-.77,1.11-.77,1.84.25,1.26.74,1.71,1.13.67,1.91.67c.93,0,1.64-.41,2.15-1.21v.1c0,.95-.21,1.72-.62,2.33-.42.61-.96.91-1.63.91-.63,0-1.25-.27-1.87-.81l-.5.66c.75.62,1.53.93,2.34.93.93,0,1.69-.38,2.28-1.15.59-.77.88-1.75.88-2.96,0-1.3-.27-2.24-.8-2.84-.53-.6-1.25-.9-2.14-.9ZM23.71,244.61c-.35.35-.8.52-1.36.52s-1-.16-1.35-.47c-.35-.31-.52-.71-.52-1.19s.17-.92.5-1.28c.33-.35.77-.53,1.32-.53s1.03.17,1.39.49c.36.33.54.74.54,1.23,0,.46-.17.87-.53,1.21Z"/>
    </g>
    <g>
      <path class="cls-6" d="M54.79,48.4h-.35l-.04.08c-.7,1.35-1.16,1.59-2.11,1.59h-1.46c-.24,0-.33-.08-.33-.29v-3.05h1.3c.86,0,1.04.27,1.2,1.21l.02.12h.33v-3.05h-.33l-.02.12c-.16.89-.35,1.17-1.2,1.17h-1.3v-3.24h1.53c1.1,0,1.47.28,1.96,1.48l.03.09h.35l-.38-1.9-.02-.11h-5.43v.35h.13c.74.05.74.13.74.4v6.42c0,.27,0,.35-.74.4h-.13v.35h5.61l.64-2.12Z"/>
      <path class="cls-6" d="M59.54,50.17h-.13c-1.05-.07-1.19-.26-1.19-.96v-5.32l4.87,6.67.04.06h.29v-6.72c0-.71.17-.89.9-.95h.13v-.35h-2.86v.35h.13c1.05.07,1.2.27,1.2.96v4.63l-4.23-5.87-.04-.06h-1.96v.34h.13c.73.07.9.25.9.96v5.31c0,.72-.16.89-.9.95h-.13v.35h2.86v-.34Z"/>
      <path class="cls-6" d="M66.59,44.52c.53-1.3.87-1.48,1.93-1.48h.63v6.73c0,.27,0,.35-.74.4h-.13v.35h2.83v-.34h-.13c-.74-.05-.74-.13-.74-.41v-6.73h.63c1.06,0,1.4.17,1.93,1.48l.03.09h.35l-.42-2.05v-.05s-.15.03-.15.03c-.2.04-.55.06-.98.06h-3.86c-.43,0-.8-.02-.99-.06l-.14-.03-.42,2.1h.34l.03-.09Z"/>
      <path class="cls-6" d="M78.02,50.17h-.13c-.87-.05-.87-.14-.87-.4v-3.03h.46c.19,0,.26,0,.48.37l1.44,2.31c.6.98,1.02,1.15,1.67,1.15.23,0,.52-.02.7-.04h.12v-.34h-.13c-.44-.05-.82-.4-1.42-1.31l-1.53-2.3c.86-.25,1.86-.8,1.86-2.01,0-.9-.53-1.97-3.07-1.97h-2.54v.34h.13c.74.06.74.13.74.39v6.43c0,.27,0,.35-.74.4h-.13v.35h2.96v-.35ZM77.53,46.3h-.51v-3.26h.4c.97,0,2.13.29,2.13,1.68,0,.98-.77,1.58-2.01,1.58Z"/>
      <path class="cls-6" d="M85.62,50.18h-.13c-.41-.04-.66-.12-.76-.26-.08-.12-.07-.34.05-.66l.62-1.73h2.47l.76,2.13c.07.21.09.32.06.38-.08.12-.54.14-.69.14h-.13v.35h2.89v-.34h-.13c-.61-.07-.7-.16-1-.97l-2-5.51c-.25-.68-.3-.83-.38-1.2l-.03-.11h-.24l-.04.05c-.15.19-.45.33-.67.38l-.16.04.23.58-2.04,5.66c-.31.82-.62,1.01-1.05,1.07l-.12.02v.33h2.5v-.34ZM85.57,47.05l1.06-2.97,1.06,2.97h-2.12Z"/>
      <path class="cls-6" d="M95.29,50.17h-.13c-1.05-.07-1.19-.26-1.19-.96v-5.32l4.87,6.67.04.06h.28v-6.72c0-.71.17-.89.9-.95h.13v-.35h-2.86v.35h.13c1.05.07,1.2.27,1.2.96v4.63l-4.23-5.87-.04-.06h-1.96v.34h.13c.73.07.9.25.9.96v5.31c0,.72-.16.89-.9.95h-.13v.35h2.86v-.34Z"/>
      <path class="cls-6" d="M105.91,50.62c1.6,0,2.92-.89,3.62-2.44l.06-.13-.36-.15-.06.11c-.62,1.23-1.64,1.93-2.8,1.93-1.83,0-3.05-1.46-3.05-3.64,0-1.94,1.2-3.36,2.85-3.36,1.32,0,2.33.75,2.84,2.12l.03.09h.33l-.28-2.44-.02-.12h-.33l-.02.12c-.03.23-.07.34-.13.34-.04,0-.14-.05-.25-.09h-.02c-.37-.17-1.05-.48-2.16-.48-2.27,0-4.06,1.84-4.06,4.18s1.59,3.95,3.79,3.95Z"/>
      <path class="cls-6" d="M117.88,48.4h-.35l-.04.08c-.7,1.35-1.16,1.59-2.11,1.59h-1.46c-.24,0-.33-.08-.33-.29v-3.05h1.3c.86,0,1.04.27,1.2,1.21l.02.12h.33v-3.05h-.33l-.02.12c-.16.89-.35,1.17-1.2,1.17h-1.3v-3.24h1.53c1.1,0,1.47.28,1.96,1.48l.03.09h.35l-.38-1.9-.02-.11h-5.43v.35h.13c.74.05.74.13.74.4v6.42c0,.27,0,.35-.74.4h-.13v.35h5.61l.64-2.12Z"/>
      <path class="cls-6" d="M126.68,50.17h-.13c-.74-.05-.74-.13-.74-.41v-3.03h3.94v3.03c0,.27,0,.35-.74.4h-.13v.35h2.83v-.34h-.13c-.74-.05-.74-.13-.74-.41v-6.42c0-.27,0-.35.74-.4h.13v-.35h-2.83v.35h.13c.74.05.74.13.74.4v2.92h-3.94v-2.92c0-.27,0-.35.74-.4h.13v-.35h-2.83v.35h.13c.74.05.74.13.74.4v6.42c0,.27,0,.35-.74.4h-.13v.35h2.83v-.34Z"/>
      <path class="cls-6" d="M136,50.18h-.13c-.41-.04-.66-.12-.75-.26-.08-.13-.07-.34.05-.66l.62-1.73h2.47l.76,2.13c.07.2.09.32.06.38-.08.12-.54.14-.69.14h-.13v.35h2.89v-.34h-.13c-.61-.07-.7-.16-1-.97l-2.01-5.51c-.24-.67-.3-.84-.38-1.2l-.03-.11h-.24l-.04.05c-.15.19-.45.33-.67.38l-.16.04.23.58-2.04,5.66c-.31.82-.62,1.01-1.05,1.07l-.12.02v.33h2.49v-.34ZM135.95,47.05l1.06-2.97,1.06,2.97h-2.12Z"/>
      <path class="cls-6" d="M148.84,48.45l.02-.06h-.35l-.04.08c-.66,1.27-1.12,1.61-2.13,1.61h-1.16c-.25,0-.33-.07-.33-.29v-6.44c0-.27,0-.35.74-.4h.13v-.35h-2.83v.35h.13c.74.05.74.13.74.4v6.42c0,.26,0,.35-.74.4h-.13v.35h5.32l.62-2.07Z"/>
      <path class="cls-6" d="M156.63,48.45l.02-.06h-.35l-.04.08c-.66,1.27-1.12,1.61-2.13,1.61h-1.16c-.25,0-.33-.07-.33-.29v-6.44c0-.27,0-.35.74-.4h.13v-.35h-2.83v.35h.13c.74.05.74.13.74.4v6.42c0,.26,0,.35-.74.4h-.13v.35h5.33l.62-2.07Z"/>
      <path class="cls-6" d="M54.49,73.23l.02-.06h-.35l-.04.08c-.66,1.27-1.12,1.61-2.13,1.61h-1.16c-.25,0-.33-.07-.33-.29v-6.44c0-.27,0-.35.74-.4h.13v-.35h-2.83v.35h.13c.74.05.74.13.74.4v6.42c0,.26,0,.35-.74.4h-.13v.35h5.33l.62-2.07Z"/>
      <path class="cls-6" d="M59.2,74.96h-.13c-.77-.05-.77-.13-.77-.41v-6.42c0-.27,0-.35.77-.4h.13v-.35h-2.9v.35h.13c.77.05.77.13.77.4v6.42c0,.27,0,.35-.77.4h-.13v.35h2.9v-.34Z"/>
      <path class="cls-6" d="M65.06,73.6l-1.96-5.35c-.06-.15-.11-.32-.07-.38.08-.11.52-.13.67-.13h.13v-.35h-2.89v.34h.13c.62.07.72.17,1.04.97l2.46,6.62.03.09h.33l2.46-6.61c.31-.79.53-1.01,1.11-1.06h.12v-.35h-2.63v.35h.13c.46.04.75.12.84.27.08.12.06.32-.07.65l-1.83,4.96Z"/>
      <path class="cls-6" d="M70.33,67.73h.13c.77.05.77.13.77.4v6.42c0,.27,0,.35-.77.4h-.13v.35h2.9v-.34h-.13c-.77-.05-.77-.13-.77-.41v-6.42c0-.27,0-.35.77-.4h.13v-.35h-2.9v.35Z"/>
      <path class="cls-6" d="M80.17,67.73h.13c1.05.07,1.2.27,1.2.96v4.63l-4.23-5.87-.04-.06h-1.96v.34h.13c.73.07.9.25.9.96v5.31c0,.72-.16.89-.9.95h-.13v.35h2.86v-.34h-.13c-1.05-.07-1.19-.26-1.19-.96v-5.32l4.87,6.67.04.06h.28v-6.72c0-.71.17-.89.9-.95h.13v-.35h-2.86v.35Z"/>
      <path class="cls-6" d="M84.96,71.48c0,2.35,1.7,3.93,4.22,3.93,1.13,0,2.49-.36,3.39-.9l.11-.07-.15-.29-.12.04c-.12.04-.17.05-.19.05h0s-.02-.03-.02-.13v-1.64c0-.27,0-.34.71-.39h.13v-.36h-3.07v.36h.13c1.01.05,1.01.13,1.01.4v1.79c0,.44-1.07.68-1.8.68-1.52,0-3.15-1.21-3.15-3.85,0-1.95,1.2-3.37,2.85-3.37,1.3,0,2.33.76,2.83,2.08l.03.09h.33l-.28-2.4-.02-.12h-.32l-.02.12c-.05.34-.11.34-.13.34-.04,0-.17-.06-.27-.1-.4-.17-1.06-.47-2.15-.47-2.27,0-4.06,1.85-4.06,4.2Z"/>
      <path class="cls-6" d="M99.04,67.73h.13c.74.06.74.13.74.39v6.43c0,.27,0,.35-.74.4h-.13v.35h2.96v-.35h-.13c-.87-.05-.87-.14-.87-.4v-3.03h.46c.19,0,.26,0,.48.37l1.44,2.31c.6.98,1.02,1.15,1.67,1.15.23,0,.52-.02.7-.04h.12v-.34h-.13c-.44-.05-.82-.4-1.42-1.31l-1.53-2.3c.86-.25,1.86-.8,1.86-2.01,0-.9-.53-1.97-3.07-1.97h-2.54v.34ZM101.51,71.09h-.51v-3.26h.4c.97,0,2.13.29,2.13,1.68,0,.98-.77,1.58-2.01,1.58Z"/>
      <path class="cls-6" d="M107.3,71.44c0,2.3,1.62,3.97,3.86,3.97,2.35,0,4.06-1.75,4.06-4.16s-1.64-3.97-3.91-3.97-4,1.75-4,4.16ZM108.5,71.14c0-2.01,1.08-3.41,2.62-3.41,1.64,0,2.88,1.64,2.88,3.81,0,2.01-1.09,3.41-2.66,3.41s-2.84-1.64-2.84-3.81Z"/>
      <path class="cls-6" d="M121.45,75.41c2.35,0,4.06-1.75,4.06-4.16s-1.64-3.97-3.91-3.97-4,1.75-4,4.16,1.62,3.97,3.86,3.97ZM118.8,71.14c0-2.01,1.08-3.41,2.62-3.41,1.64,0,2.88,1.64,2.88,3.81,0,2.01-1.1,3.41-2.66,3.41s-2.84-1.64-2.84-3.81Z"/>
      <path class="cls-6" d="M129.86,67.48l-.03-.1h-2.27v.34h.13c.76.07.91.14.9.85l-.13,5.42c0,.73-.17.89-.9.95h-.13v.35h2.72v-.34h-.13c-.9-.07-1.07-.23-1.05-.96l.12-5.4,2.49,6.61.03.09h.33l2.53-6.7.12,5.95c0,.28-.02.35-.73.39h-.13v.35h2.82v-.34h-.13c-.72-.05-.72-.13-.73-.41l-.13-6.42c0-.28.02-.35.73-.39h.13v-.35h-2.14l-.02.12c-.03.2-.17.63-.39,1.25l-1.78,4.79-1.86-5c-.16-.39-.27-.74-.38-1.05Z"/>
      <path class="cls-6" d="M51.37,99.75h-.13c-.74-.05-.74-.13-.74-.4v-2.62l.27-.29c.09-.09.12-.11.14-.11.02,0,.06,0,.12.08l2.35,2.91c.17.23.15.29.15.3,0,0-.06.1-.54.11h-.14v.35h2.9v-.34h-.12c-.54-.07-.76-.24-1.33-1.01l-2.59-3.23,1.61-1.66c1.07-1.08,1.73-1.27,2.18-1.32h.12v-.35h-2.71v.35h.14c.39.01.45.1.47.13.02.06.01.26-.58.88l-2.44,2.53v-3.14c0-.27,0-.35.74-.4h.13v-.35h-2.83v.34h.13c.74.05.74.13.74.4v6.43c0,.27,0,.35-.74.4h-.13v.35h2.83v-.35Z"/>
      <path class="cls-6" d="M60.28,92.52h.13v-.35h-2.9v.34h.13c.77.05.77.13.77.4v6.43c0,.27,0,.35-.77.4h-.13v.35h2.9v-.35h-.13c-.77-.05-.77-.13-.77-.4v-6.43c0-.27,0-.35.77-.4Z"/>
      <path class="cls-6" d="M68.81,92.08l-.14.03c-.2.04-.55.06-.98.06h-3.86c-.43,0-.8-.02-.99-.06l-.14-.03-.42,2.1h.34l.03-.09c.53-1.3.87-1.48,1.93-1.48h.63v6.73c0,.27,0,.35-.74.4h-.13v.35h2.83v-.35h-.13c-.74-.05-.74-.13-.74-.4v-6.73h.63c1.06,0,1.4.17,1.93,1.48l.03.09h.35l-.4-1.96-.03-.14Z"/>
      <path class="cls-6" d="M75.15,92.52c1.32,0,2.33.75,2.84,2.12l.03.09h.33l-.28-2.44-.02-.12h-.33l-.02.12c-.04.34-.11.34-.13.34-.04,0-.15-.05-.27-.1-.37-.16-1.05-.47-2.16-.47-2.27,0-4.06,1.84-4.06,4.18s1.59,3.95,3.79,3.95c1.6,0,2.92-.89,3.62-2.44l.06-.13-.36-.14-.06.11c-.62,1.22-1.65,1.93-2.8,1.93-1.83,0-3.05-1.46-3.05-3.64,0-1.94,1.2-3.36,2.85-3.36Z"/>
      <path class="cls-6" d="M80.74,99.74h-.13v.35h2.83v-.35h-.13c-.74-.05-.74-.13-.74-.4v-3.03h3.94v3.03c0,.27,0,.35-.74.4h-.13v.35h2.83v-.35h-.13c-.74-.05-.74-.13-.74-.4v-6.43c0-.27,0-.35.74-.4h.13v-.35h-2.83v.34h.13c.74.05.74.13.74.4v2.93h-3.94v-2.93c0-.27,0-.35.74-.4h.13v-.35h-2.83v.34h.13c.74.05.74.13.74.4v6.43c0,.27,0,.35-.74.4Z"/>
      <path class="cls-6" d="M90.75,99.74h-.13v.35h5.61l.64-2.12h-.35l-.04.08c-.7,1.35-1.17,1.59-2.11,1.59h-1.46c-.24,0-.33-.08-.33-.29v-3.05h1.3c.86,0,1.03.27,1.2,1.21l.02.12h.33v-3.05h-.33l-.02.12c-.16.89-.35,1.16-1.2,1.16h-1.3v-3.24h1.53c1.1,0,1.47.28,1.96,1.48l.03.09h.35l-.38-1.9-.02-.11h-5.43v.34h.13c.74.05.74.13.74.4v6.43c0,.27,0,.35-.74.4Z"/>
      <path class="cls-6" d="M98.89,99.74h-.13v.35h2.86v-.35h-.13c-1.05-.07-1.19-.25-1.19-.96v-5.31l4.87,6.67.04.06h.29v-6.72c0-.71.17-.89.9-.95h.13v-.35h-2.86v.34h.13c1.06.07,1.2.26,1.2.96v4.63l-4.23-5.87-.04-.06h-1.96v.34h.13c.74.07.9.24.9.96v5.31c0,.72-.17.89-.9.95Z"/>
      <path class="cls-6" d="M51.09,124.54c-.99,0-1.69-.64-2.14-1.96l-.03-.09h-.34l.26,2.27.02.12h.32l.02-.11c.03-.13.05-.15.06-.15.04,0,.17.04.29.08.34.11.86.28,1.54.28,1.45,0,2.54-1.01,2.54-2.35,0-.97-.59-1.69-1.8-2.21l-.62-.26c-1.17-.49-1.41-.99-1.41-1.58,0-.95.73-1.29,1.35-1.29.81,0,1.47.62,1.86,1.75l.03.09h.33l-.22-2.13v-.04h-.33l-.02.11c-.03.13-.04.15-.05.15-.04,0-.16-.05-.27-.09-.29-.11-.73-.28-1.33-.28-1.26,0-2.22.95-2.22,2.21,0,.93.59,1.65,1.74,2.14l.62.26c1.01.42,1.46.92,1.46,1.61,0,.89-.66,1.47-1.68,1.47Z"/>
      <path class="cls-6" d="M59.87,124.98c2.35,0,4.06-1.75,4.06-4.16s-1.64-3.97-3.91-3.97-4,1.75-4,4.16,1.62,3.97,3.86,3.97ZM57.22,120.71c0-2.01,1.08-3.41,2.62-3.41,1.64,0,2.88,1.64,2.88,3.81,0,2.01-1.09,3.41-2.66,3.41s-2.84-1.64-2.84-3.81Z"/>
      <path class="cls-6" d="M66.31,121.03c0,2.29,1.59,3.95,3.79,3.95,1.6,0,2.92-.89,3.62-2.44l.06-.13-.36-.14-.06.11c-.62,1.22-1.65,1.93-2.8,1.93-1.83,0-3.05-1.46-3.05-3.64,0-1.94,1.2-3.36,2.85-3.36,1.32,0,2.33.75,2.84,2.12l.03.09h.33l-.28-2.44-.02-.12h-.33l-.02.12c-.04.34-.11.34-.13.34-.04,0-.14-.05-.25-.09h-.02c-.37-.17-1.05-.47-2.16-.47-2.27,0-4.06,1.84-4.06,4.18Z"/>
      <path class="cls-6" d="M75.79,117.3h.13c.77.05.77.13.77.4v6.43c0,.27,0,.35-.77.4h-.13v.35h2.9v-.35h-.13c-.77-.05-.77-.13-.77-.4v-6.43c0-.27,0-.35.77-.4h.13v-.35h-2.9v.34Z"/>
      <path class="cls-6" d="M80.45,124.54v.34h2.49v-.34h-.13c-.41-.04-.66-.12-.75-.26-.08-.13-.07-.34.05-.66l.62-1.74h2.47l.76,2.13c.07.2.09.32.06.37-.08.12-.54.14-.68.14h-.13v.35h2.89v-.34h-.13c-.61-.07-.7-.16-1-.97l-2.01-5.51c-.26-.71-.3-.85-.38-1.2l-.03-.11h-.24l-.04.05c-.15.19-.44.33-.67.38l-.15.04.23.58-2.04,5.66c-.31.82-.62,1.01-1.05,1.06h-.12ZM82.9,121.41l1.06-2.97,1.06,2.97h-2.12Z"/>
      <path class="cls-6" d="M89.97,124.52h-.13v.35h5.33l.62-2.07.02-.06h-.35l-.04.08c-.66,1.27-1.12,1.62-2.13,1.62h-1.16c-.25,0-.33-.07-.33-.29v-6.44c0-.27,0-.35.74-.4h.13v-.35h-2.83v.34h.13c.74.05.74.13.74.4v6.43c0,.26,0,.35-.74.4Z"/>
      <path class="cls-6" d="M106.74,118.85c0-1.2-1-1.89-2.74-1.89h-2.63v.34h.13c.74.05.74.13.74.4v6.43c0,.27,0,.35-.74.4h-.13v.35h2.73c1.87,0,3.12-.93,3.12-2.31s-1.04-1.82-1.77-2c.54-.22,1.29-.71,1.29-1.72ZM103.32,120.88h.65c1.32,0,2.11.67,2.11,1.79s-.76,1.76-2.04,1.76c-.71,0-.71-.09-.71-.33v-3.22ZM103.86,120.43h-.53v-3.03h.58c1.12,0,1.77.57,1.77,1.56,0,.93-.66,1.47-1.81,1.47Z"/>
      <path class="cls-6" d="M110.97,121.87h2.47l.76,2.13c.07.2.09.32.06.37-.08.12-.54.14-.68.14h-.13v.35h2.89v-.34h-.13c-.61-.07-.7-.16-1-.97l-2.01-5.51c-.26-.71-.3-.85-.38-1.2l-.03-.11h-.24l-.04.05c-.15.19-.44.33-.67.38l-.15.04.23.58-2.04,5.66c-.31.82-.62,1.01-1.05,1.06h-.12v.35h2.49v-.34h-.13c-.41-.04-.66-.12-.75-.26-.08-.13-.07-.34.05-.66l.62-1.74ZM113.26,121.41h-2.12l1.06-2.97,1.06,2.97Z"/>
      <path class="cls-6" d="M118.91,124.52h-.13v.35h2.83v-.35h-.13c-.74-.05-.74-.13-.74-.4v-6.73h.63c1.06,0,1.4.17,1.93,1.48l.03.09h.35l-.4-1.96-.03-.14-.14.03c-.2.04-.55.06-.98.06h-3.86c-.43,0-.8-.02-.99-.06l-.14-.03-.42,2.1h.34l.03-.09c.53-1.3.87-1.48,1.93-1.48h.63v6.73c0,.27,0,.35-.74.4Z"/>
      <path class="cls-6" d="M131.48,121.1v3.03c0,.27,0,.35-.74.4h-.13v.35h2.83v-.35h-.13c-.74-.05-.74-.13-.74-.4v-6.43c0-.27,0-.35.74-.4h.13v-.35h-2.83v.34h.13c.74.05.74.13.74.4v2.93h-3.94v-2.93c0-.27,0-.35.74-.4h.13v-.35h-2.83v.34h.13c.74.05.74.13.74.4v6.43c0,.27,0,.35-.74.4h-.13v.35h2.83v-.35h-.13c-.74-.05-.74-.13-.74-.4v-3.03h3.94Z"/>
      <path class="cls-6" d="M141.2,118.92c0-.9-.53-1.97-3.07-1.97h-2.54v.34h.13c.74.06.74.13.74.39v6.44c0,.27,0,.35-.74.4h-.13v.35h2.96v-.35h-.13c-.86-.05-.86-.14-.86-.4v-3.03h.46c.19,0,.26,0,.48.36l1.44,2.31c.6.97,1.02,1.15,1.67,1.15.21,0,.51-.02.7-.04h.12v-.34h-.13c-.44-.05-.82-.4-1.42-1.31l-1.53-2.29c.86-.25,1.86-.8,1.86-2.01ZM138.06,120.66h-.51v-3.26h.4c.97,0,2.13.29,2.13,1.68,0,.98-.77,1.58-2.01,1.58Z"/>
      <path class="cls-6" d="M143.84,121.01c0,2.3,1.62,3.97,3.86,3.97,2.35,0,4.06-1.75,4.06-4.16s-1.64-3.97-3.91-3.97-4,1.75-4,4.16ZM150.55,121.11c0,2.01-1.09,3.41-2.66,3.41s-2.84-1.64-2.84-3.81c0-2.01,1.08-3.41,2.62-3.41,1.64,0,2.88,1.64,2.88,3.81Z"/>
      <path class="cls-6" d="M162.06,120.82c0-2.3-1.64-3.97-3.91-3.97s-4,1.75-4,4.16,1.62,3.97,3.86,3.97c2.35,0,4.06-1.75,4.06-4.16ZM155.35,120.71c0-2.01,1.08-3.41,2.62-3.41,1.64,0,2.88,1.64,2.88,3.81,0,2.01-1.09,3.41-2.66,3.41s-2.84-1.64-2.84-3.81Z"/>
      <path class="cls-6" d="M172.97,124.52c-.72-.04-.72-.12-.73-.4l-.13-6.43c0-.28.02-.35.73-.39h.13v-.35h-2.14l-.02.12c-.03.2-.17.65-.39,1.24l-1.78,4.79-1.86-5c-.16-.4-.27-.75-.38-1.05l-.03-.1h-2.27v.34h.13c.76.07.91.15.9.86l-.13,5.42c0,.73-.17.9-.9.95h-.13v.35h2.72v-.34h-.13c-.9-.07-1.07-.23-1.05-.96l.12-5.4,2.49,6.61.03.09h.33l2.53-6.7.12,5.95c0,.28-.02.35-.73.39h-.13v.35h2.82v-.35h-.13Z"/>
      <path class="cls-6" d="M54.49,147.59l.02-.06h-.35l-.04.08c-.66,1.27-1.12,1.61-2.13,1.61h-1.16c-.25,0-.33-.07-.33-.29v-6.44c0-.27,0-.35.74-.4h.13v-.35h-2.83v.35h.13c.74.05.74.13.74.4v6.42c0,.26,0,.35-.74.4h-.13v.35h5.32l.62-2.07Z"/>
      <path class="cls-6" d="M58.44,149.32h-.13c-.41-.04-.66-.12-.76-.26-.08-.12-.07-.34.05-.66l.62-1.73h2.47l.76,2.13c.07.21.09.32.06.38-.08.12-.54.14-.69.14h-.13v.35h2.89v-.34h-.13c-.61-.07-.7-.16-1-.97l-2-5.51c-.25-.68-.3-.83-.38-1.2l-.03-.11h-.24l-.04.05c-.15.19-.45.33-.67.38l-.16.04.23.58-2.04,5.66c-.31.82-.62,1.01-1.05,1.07l-.12.02v.33h2.5v-.34ZM58.39,146.19l1.06-2.97,1.06,2.97h-2.12Z"/>
      <path class="cls-6" d="M71.35,146.77v-3.73c0-.72.17-.89.9-.95h.13v-.35h-2.76v.34h.13c.91.07,1.1.23,1.1.96v3.73c0,1.59-.72,2.4-2.13,2.4s-2.08-.84-2.08-2.42v-4.26c0-.27,0-.35.74-.4h.13v-.35h-2.83v.35h.13c.74.05.74.13.74.4v4.32c0,1.93.99,2.95,2.86,2.95s2.93-1.04,2.93-3Z"/>
      <path class="cls-6" d="M76.26,141.8l-.04-.06h-1.96v.34h.13c.73.07.9.25.9.96v5.31c0,.72-.16.89-.9.95h-.13v.35h2.86v-.34h-.13c-1.05-.07-1.19-.26-1.19-.96v-5.32l4.87,6.67.04.06h.29v-6.72c0-.71.17-.89.9-.95h.13v-.35h-2.86v.35h.13c1.05.07,1.2.27,1.2.96v4.63l-4.23-5.87Z"/>
      <path class="cls-6" d="M91.59,145.61c0-2.31-1.8-3.87-4.49-3.87h-3.07v.35h.13c.74.05.74.13.74.4v6.42c0,.27,0,.35-.74.4h-.13v.35h2.95c2.67,0,4.6-1.71,4.6-4.06ZM86,142.19h.97c2.01,0,3.42,1.53,3.42,3.71,0,1.95-1.35,3.31-3.27,3.31-1.12,0-1.12-.14-1.12-.41v-6.62Z"/>
      <path class="cls-6" d="M96.21,141.74h-2.54v.34h.13c.74.06.74.13.74.39v6.43c0,.27,0,.35-.74.4h-.13v.35h2.96v-.35h-.13c-.87-.05-.87-.14-.87-.4v-3.03h.46c.19,0,.26,0,.48.37l1.44,2.31c.6.98,1.02,1.15,1.67,1.15.23,0,.52-.02.7-.04h.12v-.34h-.13c-.44-.05-.82-.4-1.42-1.31l-1.53-2.3c.86-.25,1.86-.8,1.86-2.01,0-.9-.53-1.97-3.07-1.97ZM96.14,145.45h-.51v-3.26h.4c.97,0,2.13.29,2.13,1.68,0,.98-.77,1.58-2.01,1.58Z"/>
      <path class="cls-6" d="M107,143.22c.49-.9.81-1.07,1.34-1.12h.12v-.35h-2.63v.35h.13c.42.03.67.11.74.25.06.12,0,.33-.17.66l-1.49,2.72-1.69-3.09c-.05-.09-.19-.34-.16-.4.01-.02.09-.09.57-.11h.13v-.35h-2.9v.34h.13c.61.07.81.18,1.25,1.03l1.81,3.31v2.49c0,.27,0,.35-.74.4h-.13v.35h2.83v-.34h-.13c-.74-.05-.74-.13-.74-.41v-2.59l1.73-3.11Z"/>
      <path class="cls-6" d="M51.09,174.11c-.99,0-1.69-.64-2.14-1.96l-.03-.09h-.34l.26,2.26.02.12h.32l.02-.11c.03-.13.05-.15.06-.15.04,0,.15.04.26.07h.02c.32.11.86.29,1.54.29,1.45,0,2.54-1.01,2.54-2.35,0-.97-.59-1.7-1.8-2.21l-.62-.26c-1.17-.49-1.41-.99-1.41-1.58,0-.89.68-1.29,1.35-1.29.81,0,1.47.62,1.86,1.75l.03.09h.33l-.22-2.13v-.04h-.33l-.02.11c-.03.13-.05.15-.05.15-.04,0-.16-.05-.27-.09-.27-.11-.73-.28-1.33-.28-1.26,0-2.22.95-2.22,2.21,0,.93.59,1.65,1.74,2.14l.62.26c1.01.42,1.46.92,1.46,1.61,0,.89-.66,1.47-1.68,1.47Z"/>
      <path class="cls-6" d="M56.65,167.27v4.32c0,1.93.99,2.95,2.86,2.95s2.93-1.04,2.93-3v-3.73c0-.72.17-.89.9-.95h.13v-.35h-2.76v.34h.13c.91.07,1.1.23,1.1.96v3.73c0,1.59-.72,2.4-2.13,2.4s-2.08-.84-2.08-2.42v-4.26c0-.27,0-.35.74-.4h.13v-.35h-2.83v.35h.13c.74.05.74.13.74.4Z"/>
      <path class="cls-6" d="M68.1,166.88h.13v-.35h-2.9v.35h.13c.77.05.77.13.77.4v6.42c0,.27,0,.35-.77.4h-.13v.35h2.9v-.34h-.13c-.77-.05-.77-.13-.77-.41v-6.42c0-.27,0-.35.77-.4Z"/>
      <path class="cls-6" d="M72.3,174.09h-.13v.35h2.83v-.34h-.13c-.74-.05-.74-.13-.74-.41v-6.73h.63c1.06,0,1.4.17,1.93,1.48l.03.09h.35l-.42-2.05v-.05s-.15.03-.15.03c-.2.04-.55.06-.98.06h-3.86c-.43,0-.8-.02-.99-.06l-.14-.03-.42,2.1h.34l.03-.09c.53-1.3.87-1.48,1.93-1.48h.63v6.73c0,.27,0,.35-.74.4Z"/>
      <path class="cls-6" d="M85.21,172.33h-.35l-.04.08c-.7,1.35-1.16,1.59-2.11,1.59h-1.46c-.24,0-.33-.08-.33-.29v-3.05h1.3c.86,0,1.04.27,1.2,1.21l.02.12h.33v-3.05h-.33l-.02.12c-.16.89-.35,1.17-1.2,1.17h-1.3v-3.24h1.53c1.1,0,1.47.28,1.96,1.48l.03.09h.35l-.38-1.9-.02-.11h-5.43v.35h.13c.74.05.74.13.74.4v6.42c0,.27,0,.35-.74.4h-.13v.35h5.61l.64-2.12Z"/>
      <polygon class="cls-6" points="94 172.87 94 170.77 96.03 170.77 96.03 170.28 94 170.28 94 168.18 93.49 168.18 93.49 170.28 91.46 170.28 91.46 170.77 93.49 170.77 93.49 172.87 94 172.87"/>
      <path class="cls-6" d="M110.05,171.98l-.36-.15-.06.11c-.62,1.23-1.64,1.93-2.8,1.93-1.83,0-3.05-1.46-3.05-3.64,0-1.94,1.2-3.36,2.85-3.36,1.32,0,2.33.75,2.84,2.12l.03.09h.33l-.28-2.45-.02-.12h-.33l-.02.12c-.04.34-.11.34-.13.34-.04,0-.14-.05-.25-.09h-.02c-.37-.17-1.05-.48-2.16-.48-2.27,0-4.06,1.84-4.06,4.18s1.59,3.95,3.79,3.95c1.6,0,2.92-.89,3.62-2.44l.06-.13Z"/>
      <path class="cls-6" d="M118.03,172.37l.02-.06h-.35l-.04.08c-.66,1.27-1.12,1.61-2.13,1.61h-1.16c-.25,0-.33-.07-.33-.29v-6.44c0-.27,0-.35.74-.4h.13v-.35h-2.83v.35h.13c.74.05.74.13.74.4v6.42c0,.26,0,.35-.74.4h-.13v.35h5.33l.62-2.07Z"/>
      <path class="cls-6" d="M123.69,174.55c2.35,0,4.06-1.75,4.06-4.16s-1.64-3.97-3.91-3.97-4,1.75-4,4.16,1.62,3.97,3.86,3.97ZM121.04,170.29c0-2.01,1.08-3.41,2.62-3.41,1.64,0,2.88,1.64,2.88,3.81,0,2.01-1.09,3.41-2.66,3.41s-2.84-1.64-2.84-3.81Z"/>
      <path class="cls-6" d="M130.34,174.45h.32l.02-.11c.03-.13.05-.15.06-.15.04,0,.17.04.29.08.34.11.86.28,1.54.28,1.45,0,2.54-1.01,2.54-2.35,0-.97-.59-1.7-1.8-2.21l-.62-.26c-1.17-.49-1.41-.99-1.41-1.58,0-.89.68-1.29,1.35-1.29.81,0,1.47.62,1.86,1.75l.03.09h.33l-.22-2.13v-.04h-.33l-.02.11c-.03.13-.05.15-.05.15-.04,0-.16-.05-.27-.09-.27-.11-.73-.28-1.33-.28-1.26,0-2.22.95-2.22,2.21,0,.93.59,1.65,1.74,2.14l.62.26c1.01.42,1.46.92,1.46,1.61,0,.89-.66,1.47-1.68,1.47s-1.69-.64-2.14-1.96l-.03-.09h-.34l.26,2.26.02.12Z"/>
      <path class="cls-6" d="M143.26,172.33l-.04.08c-.7,1.35-1.16,1.59-2.11,1.59h-1.46c-.24,0-.33-.08-.33-.29v-3.05h1.3c.86,0,1.04.27,1.2,1.21l.02.12h.33v-3.05h-.33l-.02.12c-.16.89-.35,1.17-1.2,1.17h-1.3v-3.24h1.53c1.1,0,1.47.28,1.96,1.48l.03.09h.35l-.38-1.9-.02-.11h-5.43v.35h.13c.74.05.74.13.74.4v6.42c0,.27,0,.35-.74.4h-.13v.35h5.61l.64-2.12h-.35Z"/>
      <path class="cls-6" d="M147.48,174.09h-.13v.35h2.83v-.34h-.13c-.74-.05-.74-.13-.74-.41v-6.73h.63c1.06,0,1.4.17,1.93,1.48l.03.09h.35l-.42-2.05v-.05s-.15.03-.15.03c-.2.04-.55.06-.98.06h-3.86c-.43,0-.8-.02-.99-.06l-.14-.03-.42,2.1h.34l.03-.09c.53-1.3.87-1.48,1.93-1.48h.63v6.73c0,.27,0,.35-.74.4Z"/>
      <path class="cls-6" d="M54.39,196.92c0-1.33-1.05-1.82-1.78-2,.54-.22,1.29-.71,1.29-1.72,0-1.2-1-1.89-2.74-1.89h-2.63v.35h.13c.74.05.74.13.74.4v6.42c0,.27,0,.35-.74.4h-.13v.35h2.73c1.87,0,3.12-.93,3.12-2.31ZM51.03,194.78h-.53v-3.03h.57c1.13,0,1.77.57,1.77,1.56,0,.93-.66,1.47-1.81,1.47ZM50.5,195.23h.65c1.32,0,2.11.67,2.11,1.79s-.76,1.76-2.04,1.76c-.71,0-.71-.09-.71-.33v-3.22Z"/>
      <path class="cls-6" d="M63.51,198.89h-.13c-.61-.07-.7-.16-1-.97l-2-5.51c-.25-.68-.3-.83-.38-1.2l-.03-.11h-.24l-.04.05c-.15.19-.45.33-.67.38l-.16.04.23.58-2.04,5.66c-.31.82-.62,1.01-1.05,1.07l-.12.02v.33h2.5v-.34h-.13c-.41-.04-.66-.12-.76-.26-.08-.12-.07-.34.05-.66l.62-1.73h2.47l.76,2.13c.07.21.09.32.06.38-.08.12-.54.14-.69.14h-.13v.35h2.89v-.34ZM60.44,195.76h-2.12l1.06-2.97,1.06,2.97Z"/>
      <path class="cls-6" d="M70.51,193.32h.35l-.42-2.05v-.05s-.15.03-.15.03c-.2.04-.55.06-.98.06h-3.86c-.43,0-.8-.02-.99-.06l-.14-.03-.42,2.1h.34l.03-.09c.53-1.3.87-1.48,1.93-1.48h.63v6.73c0,.27,0,.35-.74.4h-.13v.35h2.83v-.34h-.13c-.74-.05-.74-.13-.74-.41v-6.73h.63c1.06,0,1.4.17,1.93,1.48l.03.09Z"/>
      <path class="cls-6" d="M80.48,191.66h.13v-.35h-2.83v.35h.13c.74.05.74.13.74.4v2.92h-3.94v-2.92c0-.27,0-.35.74-.4h.13v-.35h-2.83v.35h.13c.74.05.74.13.74.4v6.42c0,.27,0,.35-.74.4h-.13v.35h2.83v-.34h-.13c-.74-.05-.74-.13-.74-.41v-3.03h3.94v3.03c0,.27,0,.35-.74.4h-.13v.35h2.83v-.34h-.13c-.74-.05-.74-.13-.74-.41v-6.42c0-.27,0-.35.74-.4Z"/>
      <path class="cls-6" d="M85.19,195.45c.19,0,.26,0,.48.37l1.44,2.31c.6.98,1.02,1.15,1.67,1.15.23,0,.52-.02.7-.04h.12v-.34h-.13c-.44-.05-.82-.4-1.42-1.31l-1.53-2.3c.86-.25,1.86-.8,1.86-2.01,0-.9-.53-1.97-3.07-1.97h-2.54v.34h.13c.74.06.74.13.74.39v6.43c0,.27,0,.35-.74.4h-.13v.35h2.96v-.35h-.13c-.87-.05-.87-.14-.87-.4v-3.03h.46ZM85.24,195.02h-.51v-3.26h.4c.97,0,2.13.29,2.13,1.68,0,.98-.77,1.58-2.01,1.58Z"/>
      <path class="cls-6" d="M98.93,195.18c0-2.3-1.64-3.97-3.91-3.97s-4,1.75-4,4.16,1.62,3.97,3.86,3.97c2.35,0,4.06-1.75,4.06-4.16ZM97.73,195.47c0,2.01-1.1,3.41-2.66,3.41s-2.84-1.64-2.84-3.81c0-2.01,1.08-3.41,2.62-3.41,1.64,0,2.88,1.64,2.88,3.81Z"/>
      <path class="cls-6" d="M109.23,195.18c0-2.3-1.64-3.97-3.91-3.97s-4,1.75-4,4.16,1.62,3.97,3.86,3.97c2.35,0,4.06-1.75,4.06-4.16ZM108.03,195.47c0,2.01-1.09,3.41-2.66,3.41s-2.84-1.64-2.84-3.81c0-2.01,1.08-3.41,2.62-3.41,1.64,0,2.88,1.64,2.88,3.81Z"/>
      <path class="cls-6" d="M112.7,197.93l.12-5.4,2.49,6.61.03.09h.33l2.53-6.7.12,5.95c0,.28-.02.35-.73.39h-.13v.35h2.82v-.34h-.13c-.72-.05-.72-.13-.73-.41l-.13-6.42c0-.28.02-.35.73-.39h.13v-.35h-2.14l-.02.12c-.03.19-.17.64-.39,1.25l-1.78,4.79-1.86-5c-.15-.37-.26-.7-.36-1.01l-.05-.14h-2.27v.34h.13c.76.07.91.14.9.85l-.13,5.42c0,.72-.17.89-.9.95h-.13v.35h2.73v-.34h-.13c-.9-.07-1.07-.23-1.06-.96Z"/>
      <path class="cls-6" d="M131.48,196.98c0-.97-.59-1.7-1.8-2.21l-.62-.26c-1.17-.49-1.41-.99-1.41-1.58,0-.89.68-1.29,1.35-1.29.81,0,1.47.62,1.86,1.75l.03.09h.33l-.22-2.13v-.04h-.33l-.02.11c-.03.13-.05.15-.05.15-.04,0-.16-.05-.27-.09-.27-.11-.73-.28-1.33-.28-1.26,0-2.22.95-2.22,2.21,0,.93.59,1.65,1.74,2.14l.62.26c1.01.42,1.46.92,1.46,1.61,0,.89-.66,1.47-1.68,1.47s-1.69-.64-2.14-1.96l-.03-.09h-.34l.26,2.26.02.12h.32l.02-.11c.03-.13.05-.15.06-.15.04,0,.17.04.29.08.34.11.86.28,1.54.28,1.45,0,2.54-1.01,2.54-2.35Z"/>
      <path class="cls-6" d="M138.55,191.65h.13c.91.07,1.1.23,1.1.96v3.73c0,1.59-.72,2.4-2.13,2.4s-2.08-.84-2.08-2.42v-4.26c0-.27,0-.35.74-.4h.13v-.35h-2.83v.35h.13c.74.05.74.13.74.4v4.32c0,1.93.99,2.95,2.86,2.95s2.93-1.04,2.93-3v-3.73c0-.71.17-.89.9-.95h.13v-.35h-2.76v.34Z"/>
      <path class="cls-6" d="M143.17,191.66h.13c.77.05.77.13.77.4v6.42c0,.27,0,.35-.77.4h-.13v.35h2.9v-.34h-.13c-.77-.05-.77-.13-.77-.41v-6.42c0-.27,0-.35.77-.4h.13v-.35h-2.9v.35Z"/>
      <path class="cls-6" d="M154.48,191.22l-.14.03c-.2.04-.55.06-.98.06h-3.86c-.43,0-.8-.02-.99-.06l-.14-.03-.42,2.1h.34l.03-.09c.53-1.3.87-1.48,1.93-1.48h.63v6.73c0,.27,0,.35-.74.4h-.13v.35h2.83v-.34h-.13c-.74-.05-.74-.13-.74-.41v-6.73h.63c1.06,0,1.4.17,1.93,1.48l.03.09h.35l-.42-2.05v-.05Z"/>
      <path class="cls-6" d="M162.67,197.19c-.7,1.35-1.16,1.59-2.11,1.59h-1.46c-.24,0-.33-.08-.33-.29v-3.05h1.3c.86,0,1.04.27,1.2,1.21l.02.12h.33v-3.05h-.33l-.02.12c-.16.89-.35,1.17-1.2,1.17h-1.3v-3.24h1.53c1.1,0,1.47.28,1.96,1.48l.03.09h.35l-.38-1.9-.02-.11h-5.43v.35h.13c.74.05.74.13.74.4v6.42c0,.27,0,.35-.74.4h-.13v.35h5.61l.64-2.12h-.35l-.04.08Z"/>
      <path class="cls-6" d="M55.7,221.52c-.62,1.22-1.65,1.93-2.8,1.93-1.83,0-3.05-1.46-3.05-3.64,0-1.94,1.2-3.36,2.85-3.36,1.32,0,2.33.75,2.84,2.12l.03.09h.33l-.28-2.44-.02-.12h-.33l-.02.12c-.04.34-.11.34-.13.34-.04,0-.14-.05-.25-.09h-.02c-.37-.17-1.05-.47-2.16-.47-2.27,0-4.06,1.84-4.06,4.18s1.59,3.95,3.79,3.95c1.6,0,2.92-.89,3.62-2.44l.06-.13-.36-.14-.06.11Z"/>
      <path class="cls-6" d="M60.9,216.45h.13v-.35h-2.9v.34h.13c.77.05.77.13.77.4v6.43c0,.27,0,.35-.77.4h-.13v.35h2.9v-.35h-.13c-.77-.05-.77-.13-.77-.4v-6.43c0-.27,0-.35.77-.4Z"/>
      <path class="cls-6" d="M65.57,220.24c.19,0,.26,0,.48.36l1.44,2.31c.6.97,1.02,1.15,1.67,1.15.21,0,.51-.02.7-.04h.12v-.34h-.13c-.44-.05-.82-.4-1.42-1.31l-1.53-2.29c.86-.25,1.86-.8,1.86-2.01,0-.9-.53-1.97-3.07-1.97h-2.54v.34h.13c.74.06.74.13.74.39v6.44c0,.27,0,.35-.74.4h-.13v.35h2.96v-.35h-.13c-.86-.05-.86-.14-.86-.4v-3.03h.46ZM65.63,219.8h-.51v-3.26h.4c.97,0,2.13.29,2.13,1.68,0,.98-.77,1.58-2.01,1.58Z"/>
      <path class="cls-6" d="M78.81,221.68l.06-.13-.36-.14-.06.11c-.62,1.22-1.65,1.93-2.8,1.93-1.83,0-3.05-1.46-3.05-3.64,0-1.94,1.2-3.36,2.85-3.36,1.32,0,2.33.75,2.84,2.12l.03.09h.33l-.28-2.44-.02-.12h-.33l-.02.12c-.04.34-.11.34-.13.34-.04,0-.14-.05-.25-.09h-.02c-.37-.17-1.05-.47-2.16-.47-2.27,0-4.06,1.84-4.06,4.18s1.59,3.95,3.79,3.95c1.6,0,2.92-.89,3.62-2.44Z"/>
      <path class="cls-6" d="M87.47,221.13v-3.73c0-.71.17-.89.9-.95h.13v-.35h-2.76v.34h.13c.91.07,1.1.23,1.1.96v3.73c0,1.59-.72,2.4-2.13,2.4s-2.08-.84-2.08-2.42v-4.26c0-.27,0-.35.74-.4h.13v-.35h-2.83v.34h.13c.74.05.74.13.74.4v4.33c0,1.93.99,2.95,2.86,2.95s2.93-1.04,2.93-3Z"/>
      <path class="cls-6" d="M96.34,221.94l.02-.06h-.35l-.04.08c-.66,1.27-1.12,1.62-2.13,1.62h-1.16c-.25,0-.33-.07-.33-.29v-6.44c0-.27,0-.35.74-.4h.13v-.35h-2.83v.34h.13c.74.05.74.13.74.4v6.43c0,.26,0,.35-.74.4h-.13v.35h5.32l.62-2.07Z"/>
      <path class="cls-6" d="M102.67,223.67h-.13v.35h2.89v-.34h-.13c-.61-.07-.7-.16-1-.97l-2-5.51c-.25-.68-.3-.84-.38-1.2l-.03-.11h-.24l-.04.05c-.15.19-.44.33-.67.38l-.15.04.23.58-2.04,5.66c-.31.82-.62,1.01-1.05,1.06h-.12v.35h2.5v-.34h-.13c-.42-.04-.66-.12-.76-.26-.08-.13-.07-.34.05-.66l.62-1.74h2.47l.76,2.13c.07.21.09.32.06.37-.08.12-.54.14-.68.14ZM102.36,220.55h-2.12l1.06-2.97,1.06,2.97Z"/>
      <path class="cls-6" d="M112.35,216.01l-.14.03c-.2.04-.55.06-.98.06h-3.86c-.43,0-.8-.02-.99-.06l-.14-.03-.42,2.1h.34l.03-.09c.53-1.3.87-1.48,1.93-1.48h.63v6.73c0,.27,0,.35-.74.4h-.13v.35h2.83v-.35h-.13c-.74-.05-.74-.13-.74-.4v-6.73h.63c1.06,0,1.4.17,1.93,1.48l.03.09h.35l-.4-1.96-.03-.14Z"/>
      <path class="cls-6" d="M114.64,216.44h.13c.77.05.77.13.77.4v6.43c0,.27,0,.35-.77.4h-.13v.35h2.9v-.35h-.13c-.77-.05-.77-.13-.77-.4v-6.43c0-.27,0-.35.77-.4h.13v-.35h-2.9v.34Z"/>
      <path class="cls-6" d="M123.62,215.99c-2.32,0-4,1.75-4,4.16s1.62,3.97,3.86,3.97c2.35,0,4.06-1.75,4.06-4.16s-1.64-3.97-3.91-3.97ZM126.33,220.26c0,2.01-1.1,3.41-2.66,3.41s-2.84-1.64-2.84-3.81c0-2.01,1.08-3.41,2.62-3.41,1.64,0,2.88,1.64,2.88,3.81Z"/>
      <path class="cls-6" d="M134.43,216.44h.13c1.06.07,1.2.26,1.2.96v4.63l-4.23-5.87-.04-.06h-1.96v.34h.13c.74.07.9.24.9.96v5.31c0,.72-.17.89-.9.95h-.13v.35h2.86v-.35h-.13c-1.05-.07-1.19-.25-1.19-.96v-5.31l4.87,6.67.04.06h.29v-6.72c0-.71.17-.89.9-.95h.13v-.35h-2.86v.34Z"/>
      <path class="cls-6" d="M52.9,244.49c.54-.22,1.29-.71,1.29-1.72,0-1.2-1-1.89-2.74-1.89h-2.63v.34h.13c.74.05.74.13.74.4v6.43c0,.27,0,.35-.74.4h-.13v.35h2.73c1.87,0,3.12-.93,3.12-2.31s-1.04-1.82-1.77-2ZM50.78,244.8h.65c1.32,0,2.11.67,2.11,1.79s-.76,1.76-2.04,1.76c-.71,0-.71-.09-.71-.33v-3.22ZM51.31,244.36h-.53v-3.03h.57c1.13,0,1.77.57,1.77,1.56,0,.93-.66,1.47-1.81,1.47Z"/>
      <path class="cls-6" d="M62.65,247.49l-2-5.51c-.25-.68-.3-.84-.38-1.2l-.03-.11h-.24l-.04.05c-.15.19-.44.33-.67.38l-.15.04.23.58-2.04,5.66c-.31.82-.62,1.01-1.05,1.06h-.12v.35h2.5v-.34h-.13c-.42-.04-.66-.12-.76-.26-.08-.13-.07-.34.05-.66l.62-1.74h2.47l.76,2.13c.07.21.09.32.06.37-.08.12-.54.14-.68.14h-.13v.35h2.89v-.34h-.13c-.61-.07-.7-.16-1-.97ZM60.72,245.33h-2.12l1.06-2.97,1.06,2.97Z"/>
      <path class="cls-6" d="M71.11,246.74c-.66,1.27-1.12,1.62-2.13,1.62h-1.16c-.25,0-.33-.07-.33-.29v-6.44c0-.27,0-.35.74-.4h.13v-.35h-2.83v.34h.13c.74.05.74.13.74.4v6.43c0,.26,0,.35-.74.4h-.13v.35h5.32l.62-2.07.02-.06h-.35l-.04.08Z"/>
      <path class="cls-6" d="M80.33,246.3c-.62,1.22-1.65,1.93-2.8,1.93-1.83,0-3.05-1.46-3.05-3.64,0-1.94,1.2-3.36,2.85-3.36,1.32,0,2.33.75,2.84,2.12l.03.09h.33l-.28-2.44-.02-.12h-.33l-.02.12c-.04.34-.11.34-.13.34-.04,0-.15-.05-.27-.1-.37-.16-1.05-.47-2.16-.47-2.27,0-4.06,1.84-4.06,4.18s1.59,3.95,3.79,3.95c1.6,0,2.92-.89,3.62-2.44l.06-.13-.36-.14-.06.11Z"/>
      <path class="cls-6" d="M86.85,240.78c-2.32,0-4,1.75-4,4.16s1.62,3.97,3.86,3.97c2.35,0,4.06-1.75,4.06-4.16s-1.64-3.97-3.91-3.97ZM89.56,245.04c0,2.01-1.1,3.41-2.66,3.41s-2.84-1.64-2.84-3.81c0-2.01,1.08-3.41,2.62-3.41,1.64,0,2.88,1.64,2.88,3.81Z"/>
      <path class="cls-6" d="M97.65,241.23h.13c1.06.07,1.2.26,1.2.96v4.63l-4.23-5.87-.04-.06h-1.96v.34h.13c.74.07.9.24.9.96v5.31c0,.72-.17.89-.9.95h-.13v.35h2.86v-.35h-.13c-1.05-.07-1.19-.25-1.19-.96v-5.31l4.87,6.67.04.06h.29v-6.72c0-.71.17-.89.9-.95h.13v-.35h-2.86v.34Z"/>
      <path class="cls-6" d="M107.06,241.22h.13c.42.04.67.12.74.25.06.12,0,.33-.17.66l-1.49,2.72-1.69-3.1c-.05-.09-.19-.34-.16-.4.01-.02.09-.09.57-.11h.13v-.35h-2.9v.34h.13c.61.07.81.18,1.26,1.03l1.81,3.31v2.49c0,.27,0,.35-.74.4h-.13v.35h2.83v-.35h-.13c-.74-.05-.74-.13-.74-.4v-2.59l1.73-3.11c.48-.89.8-1.07,1.34-1.12h.12v-.35h-2.63v.34Z"/>
    </g>
    <g>
      <path class="cls-4" d="M56.74,21.27c0-2.42-1.89-4.05-4.69-4.05h-3.21v.35h.13c.75.05.78.13.78.43v6.73c0,.29,0,.38-.78.42h-.13v.36h3.09c2.79,0,4.82-1.78,4.82-4.24ZM52.05,25.06c-1.18,0-1.18-.15-1.18-.43v-6.95h1.03c2.11,0,3.59,1.6,3.59,3.9,0,2.05-1.41,3.48-3.44,3.48Z"/>
      <path class="cls-4" d="M65.67,23.31h-.35l-.04.08c-.74,1.42-1.22,1.67-2.22,1.67h-1.53c-.26,0-.36-.09-.36-.31v-3.21h1.37c.9,0,1.09.29,1.26,1.27l.02.12h.33v-3.18h-.33l-.02.11c-.17.94-.37,1.23-1.26,1.23h-1.37v-3.41h1.61c1.16,0,1.54.29,2.06,1.55l.03.09h.35l-.4-1.98-.02-.11h-5.68v.35h.13c.75.05.78.13.78.43v6.73c0,.29,0,.38-.78.42h-.13v.36h5.87l.67-2.21Z"/>
      <path class="cls-4" d="M68.31,25.51h.33l.02-.11c.04-.17.06-.17.07-.17.05,0,.16.04.29.08h.02c.34.12.9.3,1.61.3,1.52,0,2.66-1.06,2.66-2.46,0-1.02-.61-1.77-1.88-2.31l-.65-.28c-1.23-.52-1.48-1.04-1.48-1.66,0-.94.71-1.36,1.42-1.36.85,0,1.54.66,1.96,1.84l.03.09h.33l-.23-2.23v-.04h-.33l-.02.11c-.03.14-.05.16-.06.17-.05,0-.17-.05-.28-.09-.31-.12-.77-.29-1.39-.29-1.32,0-2.32.99-2.32,2.31,0,.97.61,1.72,1.82,2.24l.65.28c1.06.44,1.53.97,1.53,1.7,0,.94-.69,1.54-1.76,1.54s-1.77-.67-2.24-2.06l-.03-.09h-.34l.27,2.37.02.12Z"/>
      <path class="cls-4" d="M79.98,25.62c1.68,0,3.06-.93,3.79-2.56l.06-.13-.36-.15-.06.12c-.66,1.29-1.73,2.03-2.94,2.03-1.92,0-3.21-1.54-3.21-3.82,0-2.04,1.26-3.52,3-3.52,1.39,0,2.45.79,2.98,2.23l.03.09h.33l-.29-2.55-.02-.12h-.34l-.02.12c-.04.36-.12.36-.15.36-.04,0-.18-.06-.28-.11-.38-.17-1.1-.49-2.26-.49-2.38,0-4.24,1.92-4.24,4.37s1.67,4.13,3.97,4.13Z"/>
      <path class="cls-4" d="M93.34,25.16h-.13c-.46-.05-.86-.42-1.49-1.38l-1.61-2.41c.91-.26,1.95-.84,1.95-2.1,0-.94-.56-2.05-3.21-2.05h-2.66v.35h.13c.78.07.78.14.78.42v6.74c0,.29,0,.38-.78.42h-.13v.36h3.08v-.35h-.13c-.91-.05-.91-.14-.91-.43v-3.18h.49c.19,0,.28,0,.51.39l1.5,2.42c.63,1.02,1.06,1.2,1.75,1.2.23,0,.54-.02.73-.04l.12-.02v-.33ZM88.78,21.1h-.54v-3.43h.42c1.02,0,2.24.31,2.24,1.76,0,1.03-.81,1.66-2.12,1.66Z"/>
      <path class="cls-4" d="M98.25,25.16h-.13c-.81-.05-.81-.14-.81-.43v-6.73c0-.29,0-.38.81-.42h.13v-.36h-3.03v.35h.13c.81.05.81.14.81.43v6.73c0,.29,0,.38-.81.42h-.13v.36h3.03v-.35Z"/>
      <path class="cls-4" d="M103.38,17.22h-2.67v.35h.13c.75.05.78.13.78.43v6.73c0,.29,0,.38-.78.42h-.13v.36h3.22v-.35h-.13c-1.04-.05-1.04-.14-1.04-.44v-7.04h.42c1.42,0,2.24.72,2.24,1.97,0,1.17-.79,1.78-2.41,1.88h-.13v.41h.14c2.27,0,3.57-.9,3.57-2.47,0-1.45-1.14-2.25-3.2-2.25Z"/>
      <path class="cls-4" d="M115.49,17.13l-.14.03c-.2.04-.57.06-1.03.06h-4.05c-.46,0-.84-.02-1.04-.06l-.14-.03-.43,2.19h.34l.03-.09c.55-1.35.95-1.55,2.03-1.55h.66v7.06c0,.29,0,.38-.78.42h-.13v.36h2.95v-.35h-.13c-.78-.05-.78-.14-.78-.43v-7.06h.66c1.17,0,1.49.25,2.03,1.55l.03.09h.35l-.44-2.14v-.05Z"/>
      <path class="cls-4" d="M121.15,25.16h-.13c-.81-.05-.81-.14-.81-.43v-6.73c0-.29,0-.38.81-.42h.13v-.36h-3.03v.35h.13c.81.05.81.14.81.43v6.73c0,.29,0,.38-.81.42h-.13v.36h3.03v-.35Z"/>
      <path class="cls-4" d="M127.74,17.11c-2.43,0-4.19,1.83-4.19,4.35s1.7,4.16,4.03,4.16c2.46,0,4.24-1.83,4.24-4.35s-1.72-4.16-4.09-4.16ZM130.58,21.57c0,2.11-1.15,3.58-2.8,3.58s-2.99-1.72-2.99-4c0-2.11,1.13-3.58,2.75-3.58,1.73,0,3.03,1.72,3.03,4Z"/>
      <path class="cls-4" d="M137.13,25.16h-.13c-1.11-.07-1.25-.27-1.25-1.01v-5.59l5.12,7,.04.06h.29v-7.04c0-.75.18-.94.95-1h.13v-.36h-2.99v.35h.13c1.11.07,1.27.28,1.27,1.01v4.87l-4.45-6.17-.04-.06h-2.05v.34h.13c.77.07.95.26.95,1.02v5.57c0,.75-.18.94-.95,1h-.13v.36h2.99v-.35Z"/>
      <path class="cls-4" d="M20.91,270.36h.13c1.01.05,1.01.13,1.01.4v1.79c0,.44-1.07.68-1.8.68-1.52,0-3.15-1.21-3.15-3.85,0-1.95,1.2-3.37,2.85-3.37,1.3,0,2.33.76,2.83,2.08l.03.09h.33l-.28-2.4-.02-.12h-.32l-.02.12c-.05.34-.11.34-.13.34-.04,0-.17-.06-.27-.1-.4-.17-1.06-.47-2.15-.47-2.27,0-4.06,1.85-4.06,4.2s1.7,3.93,4.22,3.93c1.13,0,2.49-.36,3.39-.9l.11-.07-.15-.29-.12.04c-.12.04-.18.05-.2.05h0s-.02-.03-.02-.13v-1.64c0-.27,0-.34.71-.39h.13v-.36h-3.07v.36Z"/>
      <path class="cls-4" d="M32.79,273.57v-.33h-.13c-.44-.05-.82-.4-1.42-1.31l-1.53-2.3c.86-.25,1.86-.8,1.86-2.01,0-.9-.53-1.97-3.07-1.97h-2.54v.34h.13c.74.06.74.13.74.39v6.43c0,.27,0,.35-.74.4h-.13v.35h2.96v-.35h-.13c-.87-.05-.87-.14-.87-.4v-3.03h.46c.19,0,.26,0,.48.37l1.44,2.31c.6.98,1.02,1.15,1.67,1.15.23,0,.52-.02.7-.04h.12ZM28.43,269.37h-.51v-3.26h.4c.97,0,2.13.29,2.13,1.68,0,.98-.77,1.58-2.01,1.58Z"/>
      <path class="cls-4" d="M38.07,273.69c2.35,0,4.06-1.75,4.06-4.16s-1.64-3.97-3.91-3.97-4,1.75-4,4.16,1.62,3.97,3.86,3.97ZM35.42,269.43c0-2.01,1.08-3.41,2.62-3.41,1.64,0,2.88,1.64,2.88,3.81,0,2.01-1.09,3.41-2.66,3.41s-2.84-1.64-2.84-3.81Z"/>
      <path class="cls-4" d="M49.5,271.34c0-.97-.59-1.7-1.8-2.21l-.62-.26c-1.17-.49-1.41-.99-1.41-1.58,0-.89.68-1.29,1.35-1.29.81,0,1.47.62,1.86,1.75l.03.09h.33l-.22-2.13v-.04h-.33l-.02.11c-.03.13-.05.15-.05.15-.04,0-.16-.05-.27-.09-.27-.11-.73-.28-1.33-.28-1.26,0-2.22.95-2.22,2.21,0,.93.59,1.65,1.74,2.14l.62.26c1.01.42,1.46.92,1.46,1.61,0,.89-.66,1.47-1.68,1.47s-1.69-.64-2.14-1.96l-.03-.09h-.34l.26,2.26.02.12h.32l.02-.11c.03-.13.05-.15.06-.15.04,0,.15.04.26.07h.02c.32.11.86.29,1.54.29,1.45,0,2.54-1.01,2.54-2.35Z"/>
      <path class="cls-4" d="M55.06,269.13l-.62-.26c-1.17-.49-1.41-.99-1.41-1.58,0-.89.68-1.29,1.35-1.29.81,0,1.47.62,1.86,1.75l.03.09h.33l-.22-2.13v-.04h-.33l-.02.11c-.03.13-.05.15-.05.15-.04,0-.16-.05-.27-.09-.27-.11-.73-.28-1.33-.28-1.26,0-2.22.95-2.22,2.21,0,.93.59,1.65,1.74,2.14l.62.26c1.01.42,1.46.92,1.46,1.61,0,.89-.66,1.47-1.68,1.47s-1.69-.64-2.14-1.96l-.03-.09h-.34l.26,2.26.02.12h.32l.02-.11c.03-.13.05-.15.06-.15.04,0,.17.04.29.08.34.11.86.28,1.54.28,1.45,0,2.54-1.01,2.54-2.35,0-.97-.59-1.7-1.8-2.21Z"/>
      <path class="cls-4" d="M67.2,269.28c.54-.22,1.29-.71,1.29-1.72,0-1.2-1-1.89-2.74-1.89h-2.63v.35h.13c.74.05.74.13.74.4v6.42c0,.27,0,.35-.74.4h-.13v.35h2.73c1.87,0,3.12-.93,3.12-2.31s-1.05-1.82-1.78-2ZM65.61,269.14h-.53v-3.03h.58c1.12,0,1.77.57,1.77,1.56,0,.93-.66,1.47-1.81,1.47ZM65.08,269.59h.65c1.32,0,2.11.67,2.11,1.79s-.76,1.76-2.04,1.76c-.71,0-.71-.09-.71-.33v-3.22Z"/>
      <path class="cls-4" d="M78.62,266.01v-.34h-2.76v.34h.13c.91.07,1.1.23,1.1.96v3.73c0,1.59-.72,2.4-2.13,2.4s-2.08-.84-2.08-2.42v-4.26c0-.27,0-.35.74-.4h.13v-.35h-2.83v.35h.13c.74.05.74.13.74.4v4.32c0,1.93.99,2.95,2.86,2.95s2.93-1.04,2.93-3v-3.73c0-.72.17-.89.9-.95h.13Z"/>
      <path class="cls-4" d="M83.26,266.02h.13v-.35h-2.9v.35h.13c.77.05.77.13.77.4v6.42c0,.27,0,.35-.77.4h-.13v.35h2.9v-.34h-.13c-.77-.05-.77-.13-.77-.41v-6.42c0-.27,0-.35.77-.4Z"/>
      <path class="cls-4" d="M91.46,271.52l.02-.06h-.35l-.04.08c-.66,1.27-1.12,1.61-2.13,1.61h-1.16c-.25,0-.33-.07-.33-.29v-6.44c0-.27,0-.35.74-.4h.13v-.35h-2.83v.35h.13c.74.05.74.13.74.4v6.42c0,.26,0,.35-.74.4h-.13v.35h5.32l.62-2.07Z"/>
      <path class="cls-4" d="M100.86,269.53c0-2.31-1.8-3.87-4.49-3.87h-3.07v.35h.13c.74.05.74.13.74.4v6.42c0,.27,0,.35-.74.4h-.13v.35h2.95c2.67,0,4.6-1.71,4.6-4.06ZM96.38,273.14c-1.12,0-1.12-.14-1.12-.41v-6.62h.97c2.01,0,3.42,1.53,3.42,3.71,0,1.95-1.35,3.31-3.27,3.31Z"/>
      <path class="cls-4" d="M102.9,266.01h.13c.77.05.77.13.77.4v6.42c0,.27,0,.35-.77.4h-.13v.35h2.9v-.34h-.13c-.77-.05-.77-.13-.77-.41v-6.42c0-.27,0-.35.77-.4h.13v-.35h-2.9v.35Z"/>
      <path class="cls-4" d="M112.75,266.01h.13c1.05.07,1.2.27,1.2.96v4.63l-4.23-5.87-.04-.06h-1.96v.34h.13c.73.07.9.25.9.96v5.31c0,.72-.16.89-.9.95h-.13v.35h2.86v-.34h-.13c-1.05-.07-1.19-.26-1.19-.96v-5.32l4.87,6.67.04.06h.28v-6.72c0-.71.17-.89.9-.95h.13v-.35h-2.86v.35Z"/>
      <path class="cls-4" d="M122.55,270.36h.13c1.01.05,1.01.13,1.01.4v1.79c0,.44-1.07.68-1.8.68-1.52,0-3.15-1.21-3.15-3.85,0-1.95,1.2-3.37,2.85-3.37,1.3,0,2.33.76,2.83,2.08l.03.09h.33l-.28-2.4-.02-.12h-.32l-.02.12c-.05.34-.11.34-.13.34-.04,0-.17-.06-.27-.1-.4-.17-1.06-.47-2.15-.47-2.27,0-4.06,1.85-4.06,4.2s1.7,3.93,4.22,3.93c1.13,0,2.49-.36,3.39-.9l.11-.07-.15-.29-.12.04c-.12.04-.18.05-.2.05h0s-.02-.03-.02-.13v-1.64c0-.27,0-.34.71-.39h.13v-.36h-3.07v.36Z"/>
      <path class="cls-4" d="M137.4,272.28l-2.01-5.51c-.24-.67-.3-.84-.38-1.2l-.03-.11h-.24l-.04.05c-.15.19-.45.33-.67.38l-.16.04.23.58-2.04,5.66c-.31.82-.62,1.01-1.05,1.07l-.12.02v.33h2.49v-.34h-.13c-.41-.04-.66-.12-.75-.26-.08-.13-.07-.34.05-.66l.62-1.73h2.47l.76,2.13c.07.2.09.32.06.38-.08.12-.54.14-.69.14h-.13v.35h2.89v-.34h-.13c-.61-.07-.7-.16-1-.97ZM135.47,270.12h-2.12l1.06-2.97,1.06,2.97Z"/>
      <path class="cls-4" d="M145.57,271.93l-1.53-2.3c.86-.25,1.86-.8,1.86-2.01,0-.9-.53-1.97-3.07-1.97h-2.54v.34h.13c.74.06.74.13.74.39v6.43c0,.27,0,.35-.74.4h-.13v.35h2.96v-.35h-.13c-.87-.05-.87-.14-.87-.4v-3.03h.46c.19,0,.26,0,.48.37l1.44,2.31c.6.98,1.02,1.15,1.67,1.15.23,0,.52-.02.7-.04h.12v-.34h-.13c-.44-.05-.82-.4-1.42-1.31ZM142.75,269.37h-.51v-3.26h.4c.97,0,2.13.29,2.13,1.68,0,.98-.77,1.58-2.01,1.58Z"/>
      <path class="cls-4" d="M154.58,271.55c-.7,1.35-1.16,1.59-2.11,1.59h-1.46c-.24,0-.33-.08-.33-.29v-3.05h1.3c.86,0,1.04.27,1.2,1.21l.02.12h.33v-3.05h-.33l-.02.12c-.16.89-.35,1.17-1.2,1.17h-1.3v-3.24h1.53c1.1,0,1.47.28,1.96,1.48l.03.09h.35l-.38-1.9-.02-.11h-5.43v.35h.13c.74.05.74.13.74.4v6.42c0,.27,0,.35-.74.4h-.13v.35h5.61l.64-2.12h-.35l-.04.08Z"/>
      <path class="cls-4" d="M164.01,273.24c-.61-.06-.7-.15-1-.96l-2-5.51c-.25-.68-.3-.83-.38-1.2l-.03-.11h-.24l-.04.05c-.15.19-.45.33-.67.38l-.16.04.23.58-2.04,5.66c-.31.82-.62,1.01-1.05,1.07l-.12.02v.33h2.5v-.34h-.13c-.41-.04-.66-.12-.76-.26-.08-.12-.07-.34.05-.66l.62-1.73h2.47l.76,2.13c.07.21.09.32.06.38-.08.12-.54.14-.69.14h-.13v.35h2.89v-.34h-.13ZM161.06,270.12h-2.12l1.06-2.97,1.06,2.97Z"/>
      <path class="cls-4" d="M20.62,290.8h.13c.91.07,1.1.23,1.1.96v3.73c0,1.59-.72,2.4-2.13,2.4s-2.08-.84-2.08-2.42v-4.26c0-.27,0-.35.74-.4h.13v-.35h-2.83v.35h.13c.74.05.74.13.74.4v4.32c0,1.93.99,2.95,2.86,2.95s2.93-1.04,2.93-3v-3.73c0-.72.17-.89.9-.95h.13v-.35h-2.76v.34Z"/>
      <path class="cls-4" d="M28.47,293.92l-.62-.26c-1.17-.49-1.41-.99-1.41-1.58,0-.89.68-1.29,1.35-1.29.81,0,1.47.62,1.86,1.75l.03.09h.33l-.22-2.13v-.04h-.33l-.02.11c-.03.13-.05.15-.05.15-.04,0-.16-.05-.27-.09-.27-.11-.73-.28-1.33-.28-1.26,0-2.22.95-2.22,2.21,0,.93.59,1.65,1.74,2.14l.62.26c1.01.42,1.46.92,1.46,1.61,0,.89-.66,1.47-1.68,1.47s-1.69-.64-2.14-1.96l-.03-.09h-.34l.26,2.26.02.12h.32l.02-.11c.03-.13.05-.15.06-.15.04,0,.17.04.29.08.34.11.86.28,1.54.28,1.45,0,2.54-1.01,2.54-2.35,0-.97-.59-1.7-1.8-2.21Z"/>
      <path class="cls-4" d="M38.37,296.33c-.7,1.35-1.16,1.59-2.11,1.59h-1.46c-.24,0-.33-.08-.33-.29v-3.05h1.3c.86,0,1.04.27,1.2,1.21l.02.12h.33v-3.05h-.33l-.02.12c-.16.89-.35,1.17-1.2,1.17h-1.3v-3.24h1.53c1.1,0,1.47.28,1.96,1.48l.03.09h.35l-.38-1.9-.02-.11h-5.43v.35h.13c.74.05.74.13.74.4v6.42c0,.27,0,.35-.74.4h-.13v.35h5.61l.64-2.12h-.35l-.04.08Z"/>
      <path class="cls-4" d="M45.97,290.45h-5.24v.35h.13c.74.05.74.13.74.4v6.42c0,.27,0,.35-.74.4h-.13v.35h3.08v-.35h-.13c-.99-.05-.99-.13-.99-.41v-3.03h1.19c.86,0,1.04.27,1.2,1.21l.02.12h.33v-3.05h-.33l-.02.12c-.16.89-.35,1.17-1.2,1.17h-1.19v-3.24h1.34c1.1,0,1.47.28,1.96,1.48l.03.09h.35l-.38-1.9-.02-.11Z"/>
      <path class="cls-4" d="M53.17,290.8h.13c.91.07,1.1.23,1.1.96v3.73c0,1.59-.72,2.4-2.13,2.4s-2.08-.84-2.08-2.42v-4.26c0-.27,0-.35.74-.4h.13v-.35h-2.83v.35h.13c.74.05.74.13.74.4v4.32c0,1.93.99,2.95,2.86,2.95s2.93-1.04,2.93-3v-3.73c0-.71.17-.89.9-.95h.13v-.35h-2.76v.34Z"/>
      <path class="cls-4" d="M63.41,296.31c-.66,1.27-1.12,1.61-2.13,1.61h-1.16c-.25,0-.33-.07-.33-.29v-6.44c0-.27,0-.35.74-.4h.13v-.35h-2.83v.35h.13c.74.05.74.13.74.4v6.42c0,.26,0,.35-.74.4h-.13v.35h5.32l.62-2.07.02-.06h-.35l-.04.08Z"/>
      <path class="cls-4" d="M75.14,297.06l-2-5.51c-.25-.68-.3-.83-.38-1.2l-.03-.11h-.24l-.04.05c-.15.19-.45.33-.67.38l-.16.04.23.58-2.04,5.66c-.31.82-.62,1.01-1.05,1.07l-.12.02v.33h2.5v-.34h-.13c-.41-.04-.66-.12-.76-.26-.08-.12-.07-.34.05-.66l.62-1.73h2.47l.76,2.13c.07.21.09.32.06.38-.08.12-.54.14-.69.14h-.13v.35h2.89v-.34h-.13c-.61-.07-.7-.16-1-.97ZM73.2,294.9h-2.12l1.06-2.97,1.06,2.97Z"/>
      <path class="cls-4" d="M83.3,296.72l-1.53-2.3c.86-.25,1.86-.8,1.86-2.01,0-.9-.53-1.97-3.07-1.97h-2.54v.34h.13c.74.06.74.13.74.39v6.43c0,.27,0,.35-.74.4h-.13v.35h2.96v-.35h-.13c-.87-.05-.87-.14-.87-.4v-3.03h.46c.19,0,.26,0,.48.37l1.44,2.31c.6.98,1.02,1.15,1.67,1.15.23,0,.52-.02.7-.04h.12v-.34h-.13c-.44-.05-.82-.4-1.42-1.31ZM80.49,294.16h-.51v-3.26h.4c.97,0,2.13.29,2.13,1.68,0,.98-.77,1.58-2.01,1.58Z"/>
      <path class="cls-4" d="M92.31,296.33c-.7,1.35-1.16,1.59-2.11,1.59h-1.46c-.24,0-.33-.08-.33-.29v-3.05h1.3c.86,0,1.04.27,1.2,1.21l.02.12h.33v-3.05h-.33l-.02.12c-.16.89-.35,1.17-1.2,1.17h-1.3v-3.24h1.53c1.1,0,1.47.28,1.96,1.48l.03.09h.35l-.38-1.9-.02-.11h-5.43v.35h.13c.74.05.74.13.74.4v6.42c0,.27,0,.35-.74.4h-.13v.35h5.61l.64-2.12h-.35l-.04.08Z"/>
      <path class="cls-4" d="M100.74,297.06l-2.01-5.51c-.24-.67-.3-.84-.38-1.2l-.03-.11h-.24l-.04.05c-.15.19-.45.33-.67.38l-.16.04.23.58-2.04,5.66c-.31.82-.62,1.01-1.05,1.07l-.12.02v.33h2.49v-.34h-.13c-.41-.04-.66-.12-.75-.26-.08-.13-.07-.34.05-.66l.62-1.73h2.47l.76,2.13c.07.2.09.32.06.38-.08.12-.54.14-.69.14h-.13v.35h2.89v-.34h-.13c-.61-.07-.7-.16-1-.97ZM98.8,294.9h-2.12l1.06-2.97,1.06,2.97Z"/>
    </g>
    <g>
      <path class="cls-6" d="M19.72,319.78c1.04-1.02,1.25-1.67,1.25-2.39,0-1.28-.97-2.07-2.54-2.07-1.15,0-2.11.39-2.71,1.09h-.01s.57.5.57.5h.01s.01,0,.01,0c.49-.56,1.16-.84,2.06-.84,1.12,0,1.76.51,1.76,1.4,0,.53-.17,1.03-1.01,1.86l-3.16,3.09h0v.59h5.37v-.73h-4.15l2.55-2.5Z"/>
      <path class="cls-6" d="M28.64,315.38h-2.86v7.63h.84v-2.4h2.02c.95,0,1.74-.24,2.29-.69.55-.46.83-1.12.83-1.92,0-1.64-1.17-2.62-3.12-2.62ZM26.62,316.12h2c1.48,0,2.3.67,2.3,1.89s-.82,1.87-2.3,1.87h-2v-3.76Z"/>
      <path class="cls-6" d="M34.99,319.76c-.83,0-2.22.21-2.22,1.64,0,1.02.83,1.68,2.1,1.68.88,0,1.57-.32,1.94-.89v.84h.78v-3.56c0-1.46-.81-2.23-2.33-2.23-.9,0-1.76.28-2.33.77h-.01s.36.6.36.6v.02s.03-.02.03-.02c.48-.42,1.17-.67,1.88-.67,1.04,0,1.6.51,1.6,1.49v.33h-1.79ZM35.01,320.37h1.77v.91c-.3.74-.94,1.14-1.79,1.14s-1.42-.39-1.42-1.05.47-1,1.44-1ZM34.03,320.53s.07-.03.1-.04c-.03.01-.07.03-.1.04ZM33.56,321.21s.02-.09.03-.13c-.01.04-.02.09-.03.13ZM33.69,320.83s.07-.09.11-.13c-.04.04-.08.08-.11.13Z"/>
      <path class="cls-6" d="M40.42,318.32v-1.05h-.78v5.75h.81v-2.93c0-1.33.69-2.09,1.9-2.09.02,0,.05,0,.08,0,.03,0,.07,0,.1,0h.02v-.79h-.02c-1.01,0-1.74.38-2.12,1.09Z"/>
      <polygon class="cls-6" points="44.72 321.38 46.04 320.16 48.33 323.01 48.33 323.02 49.33 323.02 46.65 319.62 49.07 317.31 49.11 317.27 48.1 317.27 44.72 320.36 44.72 314.93 43.91 314.93 43.91 323.02 44.72 323.02 44.72 321.38"/>
      <rect class="cls-6" x="50.34" y="317.27" width=".81" height="5.75"/>
      <path class="cls-6" d="M50.75,316.06c.33,0,.58-.25.58-.58,0-.3-.26-.55-.58-.55s-.58.25-.58.56.26.57.58.57Z"/>
      <path class="cls-6" d="M54.07,320c0-1.28.74-2.04,1.98-2.04,1.09,0,1.69.64,1.69,1.8v3.25h.81v-3.33c0-1.56-.86-2.46-2.36-2.46-.96,0-1.72.37-2.15,1.04v-1h-.78v5.75h.81v-3.01Z"/>
      <path class="cls-6" d="M65.96,322.3v-5.03h-.78v1.05c-.48-.71-1.27-1.09-2.24-1.09-1.67,0-2.88,1.17-2.88,2.78s1.21,2.8,2.88,2.8c.93,0,1.73-.39,2.2-1.06v.66c0,1.4-.66,2.05-2.08,2.05-.87,0-1.68-.28-2.23-.78l-.02-.02-.4.61h0s.01.03.01.03c.58.55,1.58.88,2.67.88,1.93,0,2.87-.94,2.87-2.87ZM63.02,322.08c-1.26,0-2.14-.85-2.14-2.07s.88-2.06,2.14-2.06,2.15.85,2.15,2.06-.88,2.07-2.15,2.07Z"/>
      <path class="cls-6" d="M76.05,320.99c0-1.5-1.38-1.83-2.6-2.13-1.07-.26-2.08-.51-2.08-1.46,0-.32.14-1.36,1.99-1.36.7,0,1.46.23,2.07.63h.02s.28-.65.28-.65h0s-.01-.02-.01-.02c-.61-.42-1.49-.68-2.37-.68-2.08,0-2.82,1.09-2.82,2.1,0,1.52,1.39,1.86,2.61,2.16,1.06.26,2.06.5,2.06,1.45,0,.83-.75,1.33-2.02,1.33-.95,0-1.92-.36-2.49-.92l-.02-.02-.33.64h0s0,.02,0,.02c.57.59,1.71.99,2.84.99,2.1,0,2.85-1.08,2.85-2.09Z"/>
      <path class="cls-6" d="M77.8,322.28c.04.07.08.14.13.21.07.09.15.18.24.25.06.05.13.09.21.13.11.06.23.1.36.13.08.02.16.03.25.04.08,0,.15.04.23.04.22,0,.48-.04.7-.12h.01s-.06-.66-.06-.66v-.03s-.03.01-.03.01c-.11.05-.29.1-.51.1-.62,0-.93-.34-.93-1.02v-6.42h-.81v6.49c0,.09.03.16.04.24,0,.08.02.16.04.24.03.14.07.27.13.38Z"/>
      <path class="cls-6" d="M83.19,317.23c-1.7,0-2.93,1.23-2.93,2.92s1.23,2.93,2.93,2.93,2.92-1.23,2.92-2.93-1.23-2.92-2.92-2.92ZM83.19,322.35c-1.24,0-2.11-.91-2.11-2.21s.87-2.21,2.11-2.21,2.1.91,2.1,2.21-.86,2.21-2.1,2.21Z"/>
      <path class="cls-6" d="M87.78,321.39c0,1.07.62,1.68,1.69,1.68.48,0,.93-.15,1.22-.41h.01s-.28-.58-.28-.58v-.02s-.03.02-.03.02c-.2.18-.51.29-.83.29-.62,0-.97-.36-.97-1.02v-3.39h1.74v-.69h-1.74v-1.25h-.81v1.25h-1.02v.69h1.02v3.43Z"/>
      <path class="cls-6" d="M95.97,321.42c0-1.21-1.12-1.41-2.11-1.59-.82-.15-1.59-.29-1.59-.98,0-.59.54-.92,1.47-.92.64,0,1.21.17,1.67.49h.02s.35-.63.35-.63v-.02s0-.01,0-.01c-.48-.33-1.27-.53-2.03-.53-1.38,0-2.28.65-2.28,1.65,0,1.26,1.14,1.47,2.15,1.65.83.15,1.55.28,1.55.92,0,.61-.51.91-1.51.91-.73,0-1.53-.25-2.02-.64h-.02s-.36.61-.36.61h0s.01.03.01.03c.49.43,1.43.71,2.33.71,1.46,0,2.37-.63,2.37-1.65Z"/>
      <polygon class="cls-6" points="16.63 340.75 16.62 340.76 16.83 341.49 18.26 341.05 18.26 347.8 19.14 347.8 19.14 340.11 18.5 340.11 16.63 340.75"/>
      <path class="cls-6" d="M28.63,343.64c-1.07-.26-2.08-.51-2.08-1.46,0-.32.14-1.36,1.99-1.36.7,0,1.46.23,2.07.63h.02s.28-.65.28-.65h0s-.01-.02-.01-.02c-.61-.42-1.49-.68-2.37-.68-2.08,0-2.82,1.09-2.82,2.1,0,1.52,1.39,1.86,2.61,2.16,1.06.26,2.06.5,2.06,1.45,0,.83-.75,1.33-2.02,1.33-.95,0-1.92-.36-2.49-.92l-.02-.02-.33.64h0s0,.02,0,.02c.57.59,1.71.99,2.84.99,2.1,0,2.85-1.08,2.85-2.09,0-1.5-1.38-1.83-2.6-2.13Z"/>
      <path class="cls-6" d="M35.54,346.85l-.02.02c-.2.18-.51.29-.83.29-.62,0-.97-.36-.97-1.02v-3.39h1.74v-.69h-1.74v-1.25h-.81v1.25h-1.02v.69h1.02v3.43c0,1.07.62,1.68,1.69,1.68.48,0,.93-.15,1.22-.41h.01s-.28-.58-.28-.58v-.02Z"/>
      <path class="cls-6" d="M39.33,342.01c-1.7,0-2.93,1.23-2.93,2.92s1.23,2.93,2.93,2.93,2.92-1.23,2.92-2.93-1.23-2.92-2.92-2.92ZM39.33,347.13c-1.24,0-2.11-.91-2.11-2.21s.87-2.21,2.11-2.21,2.1.91,2.1,2.21-.86,2.21-2.1,2.21Z"/>
      <path class="cls-6" d="M44.56,343.11v-1.05h-.78v5.75h.81v-2.93c0-1.33.69-2.09,1.9-2.09.03,0,.05,0,.08,0,.03,0,.07,0,.1,0h.02v-.79h-.02c-1.01,0-1.74.38-2.12,1.09Z"/>
      <path class="cls-6" d="M50.05,342.01c-.9,0-1.76.28-2.33.77h-.01s.36.6.36.6v.02s.03-.02.03-.02c.48-.42,1.17-.67,1.88-.67,1.04,0,1.6.51,1.6,1.49v.33h-1.79c-.83,0-2.22.21-2.22,1.64,0,1.02.83,1.68,2.1,1.68.88,0,1.57-.32,1.94-.89v.84h.78v-3.56c0-1.46-.81-2.23-2.33-2.23ZM49.8,345.15h1.77v.91c-.3.74-.94,1.14-1.79,1.14s-1.42-.39-1.42-1.05.47-1,1.44-1ZM48.83,345.32s.07-.03.1-.04c-.03.01-.07.03-.1.04ZM48.35,346s.02-.09.03-.13c-.01.04-.02.09-.03.13ZM48.49,345.61s.07-.09.11-.13c-.04.04-.08.08-.11.13Z"/>
      <path class="cls-6" d="M59.01,343.11c-.48-.71-1.27-1.09-2.24-1.09-1.67,0-2.88,1.17-2.88,2.78s1.21,2.8,2.88,2.8c.93,0,1.73-.39,2.2-1.06v.66c0,1.4-.66,2.05-2.08,2.05-.87,0-1.68-.28-2.23-.78l-.02-.02-.4.61h0s.01.03.01.03c.58.55,1.58.88,2.67.88,1.93,0,2.87-.94,2.87-2.87v-5.03h-.78v1.05ZM56.85,346.86c-1.26,0-2.14-.85-2.14-2.07s.88-2.06,2.14-2.06,2.15.85,2.15,2.06-.88,2.07-2.15,2.07Z"/>
      <path class="cls-6" d="M64.14,342.01c-1.63,0-2.81,1.23-2.81,2.92s1.24,2.93,3.01,2.93c.92,0,1.71-.33,2.22-.94h.01s-.45-.53-.45-.53v-.02s-.03.02-.03.02c-.42.49-1.02.74-1.73.74-1.24,0-2.13-.78-2.22-1.95h4.77v-.02s0-.09,0-.13c0-.04,0-.07,0-.1,0-1.72-1.15-2.92-2.79-2.92ZM64.14,342.71c1.1,0,1.9.75,2.01,1.86h-4c.11-1.1.92-1.86,2-1.86Z"/>
      <path class="cls-6" d="M77.45,342.79c0-1.64-1.17-2.62-3.12-2.62h-2.86v7.63h.84v-2.41h2.02c.21,0,.4,0,.6-.03l1.73,2.43h0s.93,0,.93,0l-1.86-2.61c1.11-.37,1.72-1.22,1.72-2.4ZM72.31,340.9h2c1.48,0,2.3.67,2.3,1.89s-.82,1.88-2.3,1.88h-2v-3.77Z"/>
      <path class="cls-6" d="M81.5,342.01c-1.7,0-2.93,1.23-2.93,2.92s1.23,2.93,2.93,2.93,2.92-1.23,2.92-2.93-1.23-2.92-2.92-2.92ZM81.5,347.13c-1.24,0-2.11-.91-2.11-2.21s.87-2.21,2.11-2.21,2.1.91,2.1,2.21-.86,2.21-2.1,2.21Z"/>
      <path class="cls-6" d="M88.31,342.01c-1.7,0-2.93,1.23-2.93,2.92s1.23,2.93,2.93,2.93,2.92-1.23,2.92-2.93-1.23-2.92-2.92-2.92ZM88.31,347.13c-1.24,0-2.11-.91-2.11-2.21s.87-2.21,2.11-2.21,2.1.91,2.1,2.21-.86,2.21-2.1,2.21Z"/>
      <path class="cls-6" d="M99.9,342.01c-1,0-1.82.43-2.25,1.18-.35-.76-1.07-1.18-2.03-1.18s-1.65.37-2.07,1.03v-.99h-.78v5.75h.81v-3.01c0-1.26.72-2.04,1.89-2.04,1.05,0,1.63.64,1.63,1.8v3.25h.81v-3.01c0-1.28.71-2.04,1.89-2.04,1.04,0,1.62.64,1.62,1.8v3.25h.81v-3.33c0-1.56-.84-2.46-2.32-2.46Z"/>
    </g>
  </g>
  <g>
    <rect class="cls-2" x="11.3" y="33.68" width="286.46" height=".6"/>
    <rect class="cls-5" x="11.3" y="58.64" width="286.46" height=".15"/>
    <rect class="cls-5" x="11.3" y="83.38" width="286.46" height=".15"/>
    <rect class="cls-5" x="11.3" y="108.12" width="286.46" height=".15"/>
    <rect class="cls-5" x="11.3" y="132.85" width="286.46" height=".15"/>
    <rect class="cls-5" x="11.3" y="157.59" width="286.46" height=".15"/>
    <rect class="cls-5" x="11.3" y="182.33" width="286.46" height=".15"/>
    <rect class="cls-5" x="11.3" y="207.07" width="286.46" height=".15"/>
    <rect class="cls-5" x="11.3" y="231.8" width="286.46" height=".15"/>
    <rect class="cls-2" x="11.3" y="256.32" width="286.46" height=".6"/>
    <rect class="cls-5" x="11.3" y="330.75" width="286.46" height=".15"/>
    <rect class="cls-5" x="11.3" y="281.28" width="286.46" height=".15"/>
    <rect class="cls-5" x="11.3" y="306.02" width="286.46" height=".15"/>
  </g>
  <g>
    <g>
      <path class="cls-4" d="M179.32,17.26h.12c.96.07,1.17.25,1.17,1.03v3.91c0,1.68-.76,2.54-2.25,2.54s-2.2-.88-2.2-2.56v-4.47c0-.31.03-.39.8-.44h.12v-.33h-2.92v.32h.12c.76.05.8.14.8.44v4.53c0,2.04,1,3.07,2.97,3.07s3.05-1.08,3.05-3.12v-3.91c0-.76.19-.96.96-1.02h.12v-.33h-2.85v.32Z"/>
      <path class="cls-4" d="M187.73,20.57l-.65-.28c-1.23-.52-1.49-1.05-1.49-1.68,0-.95.72-1.37,1.44-1.37.86,0,1.56.66,1.97,1.85l.03.08h.3l-.23-2.2v-.04h-.31l-.02.1c-.04.18-.06.18-.08.18-.05,0-.16-.04-.27-.09h-.01c-.31-.12-.77-.3-1.38-.3-1.31,0-2.3.99-2.3,2.29,0,.96.61,1.71,1.81,2.23l.65.27c1.07.45,1.54.98,1.54,1.71,0,.95-.7,1.56-1.78,1.56s-1.79-.68-2.26-2.07l-.03-.08h-.32l.28,2.42v.04h.3l.02-.1c.04-.17.06-.17.09-.17.05,0,.16.04.29.08h.02c.36.12.9.3,1.61.3,1.51,0,2.64-1.05,2.64-2.45,0-1.01-.61-1.76-1.87-2.29Z"/>
      <path class="cls-4" d="M198.36,23.09c-.74,1.43-1.23,1.68-2.23,1.68h-1.53c-.27,0-.37-.09-.37-.33v-3.22h1.38c.92,0,1.1.29,1.27,1.28l.02.1h.31v-3.15h-.3l-.02.1c-.17.94-.37,1.24-1.27,1.24h-1.38v-3.44h1.62c1.17,0,1.55.29,2.07,1.56l.03.08h.33l-.39-1.96-.02-.1h-5.65v.32h.12c.76.05.8.14.8.44v6.73c0,.31-.03.39-.8.44h-.12v.33h5.84l.66-2.17h-.32l-.03.07Z"/>
      <path class="cls-4" d="M206.5,16.94h-5.45v.32h.12c.76.05.8.14.8.44v6.73c0,.31-.03.39-.8.44h-.12v.33h3.19v-.32h-.12c-1.06-.05-1.06-.15-1.06-.45v-3.2h1.27c.91,0,1.11.3,1.27,1.28l.02.1h.31v-3.15h-.31l-.02.1c-.17.95-.37,1.24-1.27,1.24h-1.27v-3.44h1.43c1.17,0,1.56.29,2.07,1.56l.03.08h.33l-.39-1.96-.02-.1Z"/>
      <path class="cls-4" d="M214.3,17.26h.12c.96.07,1.17.25,1.17,1.03v3.91c0,1.68-.76,2.54-2.25,2.54s-2.2-.88-2.2-2.56v-4.47c0-.31.03-.39.8-.44h.12v-.33h-2.92v.32h.12c.76.05.8.14.8.44v4.53c0,2.04,1,3.07,2.97,3.07s3.05-1.08,3.05-3.12v-3.91c0-.76.19-.96.96-1.02h.12v-.33h-2.85v.32Z"/>
      <path class="cls-4" d="M225.24,23.07c-.7,1.34-1.18,1.7-2.25,1.7h-1.21c-.28,0-.37-.08-.37-.33v-6.74c0-.31.03-.39.8-.44h.12v-.33h-2.92v.32h.12c.76.05.8.14.8.44v6.73c0,.3-.03.39-.79.44h-.12v.33h5.54l.61-2.04.05-.16h-.32l-.03.07Z"/>
      <path class="cls-4" d="M237.93,23.85l-2.1-5.78c-.27-.74-.32-.89-.4-1.26l-.02-.1h-.23l-.04.05c-.16.2-.47.35-.71.41l-.14.03.23.6-2.14,5.94c-.33.87-.66,1.07-1.12,1.13h-.11v.33h2.57v-.32h-.12c-.45-.04-.71-.13-.81-.28-.09-.14-.08-.36.05-.71l.65-1.83h2.62l.81,2.25c.08.23.1.35.05.41-.06.09-.3.14-.73.16h-.12v.33h2.99v-.32h-.11c-.65-.07-.75-.17-1.07-1.03ZM234.81,18.4l1.14,3.2h-2.29l1.14-3.2Z"/>
      <path class="cls-4" d="M246.71,23.5l-1.62-2.43c.91-.26,1.96-.83,1.96-2.09,0-.93-.55-2.04-3.19-2.04h-2.64v.32h.12c.77.07.8.14.8.44v6.74c0,.31-.03.39-.79.44h-.12v.33h3.06v-.32h-.12c-.93-.05-.93-.15-.93-.44v-3.2h.5c.2,0,.29,0,.52.39l1.51,2.42c.62,1.01,1.05,1.19,1.73,1.19.23,0,.55-.02.73-.04h.11v-.32h-.11c-.47-.05-.87-.42-1.5-1.38ZM245.9,19.14c0,1.04-.82,1.68-2.13,1.68h-.56v-3.46h.44c1.47,0,2.25.62,2.25,1.78Z"/>
      <path class="cls-4" d="M256.4,23.09c-.74,1.43-1.23,1.68-2.23,1.68h-1.53c-.27,0-.37-.09-.37-.33v-3.22h1.38c.92,0,1.1.29,1.27,1.28l.02.1h.31v-3.15h-.3l-.02.1c-.17.94-.37,1.24-1.27,1.24h-1.38v-3.44h1.62c1.17,0,1.55.29,2.07,1.56l.03.08h.33l-.39-1.96-.02-.1h-5.65v.32h.12c.76.05.8.14.8.44v6.73c0,.31-.03.39-.79.44h-.12v.33h5.84l.66-2.17h-.32l-.03.07Z"/>
      <path class="cls-4" d="M260.28,24.59c-.09-.14-.08-.36.05-.71l.65-1.83h2.62l.81,2.25c.08.23.1.35.05.41-.06.09-.3.14-.73.16h-.12v.33h2.99v-.32h-.11c-.65-.07-.75-.17-1.07-1.03l-2.1-5.78c-.27-.74-.32-.89-.4-1.26l-.02-.1h-.23l-.04.05c-.16.2-.47.35-.71.41l-.14.03.23.6-2.14,5.94c-.33.87-.66,1.07-1.12,1.13h-.11v.33h2.57v-.32h-.12c-.45-.04-.71-.13-.81-.28ZM263.43,21.6h-2.29l1.14-3.2,1.14,3.2Z"/>
      <path class="cls-4" d="M274.51,17.27h-.62s-.01.03-.01.03c-.71,1.14-1.09,2.73-1.09,4.49s.38,3.3,1.09,4.49l.02.03h.62l-.06-.1c-.72-1.22-1.07-2.67-1.07-4.41s.35-3.19,1.07-4.41l.06-.1Z"/>
      <path class="cls-4" d="M282.01,19.32c-.88,0-1.62.41-2,1.09-.3-.71-.94-1.09-1.82-1.09-.8,0-1.46.33-1.83.9v-.86h-.59v5.1h.61v-2.71c0-1.15.67-1.86,1.75-1.86.95,0,1.48.58,1.48,1.64v2.93h.61v-2.71c0-1.15.67-1.86,1.75-1.86.95,0,1.48.58,1.48,1.64v2.93h.61v-2.97c0-1.38-.75-2.17-2.05-2.17Z"/>
      <path class="cls-4" d="M285.33,18.71c.25-.28.58-.42,1.04-.42.57,0,.88.25.88.69,0,.27-.09.52-.52.95l-1.64,1.63-.03.03v.34h2.86v-.45h-2.11l1.26-1.25c.55-.54.66-.89.66-1.27,0-.68-.53-1.12-1.35-1.12-.6,0-1.09.2-1.41.57l-.06.08.35.31.07-.08Z"/>
      <path class="cls-4" d="M288.39,26.31h.61l.02-.03c.72-1.18,1.1-2.73,1.1-4.49s-.39-3.35-1.11-4.5l-.02-.02h-.61l.06.1c.71,1.21,1.06,2.66,1.06,4.41s-.35,3.21-1.06,4.41l-.06.1Z"/>
      <polygon class="cls-4" points="257.03 266.02 257.26 266.81 258.68 266.37 258.68 273.11 259.63 273.11 259.63 265.36 258.95 265.36 257.03 266.02"/>
      <path class="cls-4" d="M264.57,265.28c-.97,0-1.76.39-2.37,1.16-.6.77-.91,1.72-.91,2.81s.3,2.06.9,2.83c.6.77,1.39,1.15,2.36,1.15s1.76-.39,2.36-1.16c.6-.77.9-1.72.9-2.82s-.3-2.06-.89-2.82c-.59-.77-1.38-1.15-2.35-1.15ZM264.57,272.36c-.67,0-1.22-.31-1.64-.91-.43-.61-.64-1.35-.64-2.19s.21-1.6.63-2.2c.42-.59.96-.9,1.63-.9s1.22.3,1.64.91c.42.61.64,1.35.64,2.19s-.21,1.6-.63,2.2c-.41.59-.96.9-1.62.9Z"/>
      <path class="cls-4" d="M273.56,269.33c-.46-.35-1.04-.56-1.72-.62l2.32-2.57h.01v-.71h-4.95v.87h3.65l-2.32,2.62-.02.02.18.54v.03h.54c.62,0,1.13.13,1.51.38.38.25.56.59.56,1.04s-.15.78-.46,1.05c-.31.27-.69.4-1.15.4-.85,0-1.58-.37-2.19-1.11l-.03-.04-.66.59-.04.03.03.04c.7.91,1.67,1.38,2.87,1.38.73,0,1.34-.22,1.84-.66.5-.44.75-1,.75-1.68s-.25-1.21-.73-1.58Z"/>
      <rect class="cls-4" x="275.76" y="271.87" width="1.1" height="1.24"/>
      <path class="cls-4" d="M281.01,268.3c-.47,0-.95.1-1.44.31l.15-2.3h3.63v-.89h-4.47l-.22,3.75v.03s.6.4.6.4l.02.02h.03c.53-.3,1.06-.44,1.57-.44.54,0,.99.15,1.33.43.34.29.51.66.51,1.11,0,.48-.17.88-.49,1.19-.33.31-.76.46-1.29.46-.71,0-1.42-.35-2.12-1.03l-.04-.04-.63.69.03.03c.81.81,1.73,1.22,2.75,1.22.8,0,1.47-.24,1.99-.71.51-.47.78-1.09.78-1.84s-.26-1.32-.76-1.75c-.5-.43-1.15-.65-1.92-.65Z"/>
      <path class="cls-4" d="M285.62,272.6c.55.41,1.25.62,2.07.62s1.52-.21,2.07-.61c.55-.41.83-.95.83-1.6,0-.85-.5-1.48-1.49-1.88.81-.4,1.23-.99,1.23-1.74,0-.6-.26-1.1-.79-1.49-.52-.39-1.14-.59-1.86-.59s-1.34.2-1.86.59c-.52.39-.78.89-.78,1.47,0,.77.41,1.36,1.22,1.76-.43.17-.79.41-1.05.71-.29.33-.44.72-.44,1.16,0,.65.28,1.19.83,1.6ZM289.11,271.97c-.35.27-.82.4-1.42.4s-1.07-.14-1.42-.4c-.34-.26-.52-.59-.52-.97,0-.41.18-.75.55-1.01.37-.27.84-.4,1.39-.4s1.01.13,1.38.4c.37.26.55.59.55.99s-.17.73-.52.99ZM286.48,266.52c.32-.24.72-.36,1.21-.36s.89.12,1.21.36c.32.24.48.54.48.9,0,.4-.16.73-.48.98-.32.25-.73.38-1.21.38s-.89-.13-1.21-.38h0c-.32-.25-.48-.57-.48-.96s.16-.68.47-.92Z"/>
      <polygon class="cls-4" points="262.2 291.08 266.34 291.08 262.95 297.83 262.91 297.9 263.98 297.9 267.45 290.91 267.45 290.2 262.2 290.2 262.2 291.08"/>
      <path class="cls-4" d="M272.99,294.11c-.46-.35-1.04-.56-1.72-.63l2.32-2.57h.01v-.71h-4.95v.87h3.65l-2.32,2.62-.02.02.18.54v.03h.54c.62,0,1.13.13,1.51.38.37.24.56.59.56,1.04s-.16.78-.46,1.05c-.31.27-.69.4-1.15.4-.85,0-1.58-.37-2.19-1.11l-.03-.04-.66.59-.03.03.03.04c.7.91,1.67,1.38,2.87,1.38.73,0,1.34-.22,1.84-.66.5-.44.75-1,.75-1.68s-.25-1.21-.73-1.58Z"/>
      <rect class="cls-4" x="275.2" y="296.66" width="1.1" height="1.24"/>
      <path class="cls-4" d="M280.49,290.07c-.81,0-1.48.25-2,.76-.52.5-.79,1.13-.79,1.88s.25,1.29.75,1.75c.5.45,1.15.68,1.94.68.88,0,1.59-.37,2.1-1.1,0,.9-.22,1.65-.61,2.23-.4.59-.94.88-1.59.88-.61,0-1.23-.27-1.83-.8l-.04-.04-.56.74.04.03c.76.63,1.56.94,2.38.94.95,0,1.73-.39,2.32-1.17.59-.77.89-1.78.89-2.99,0-1.3-.27-2.27-.81-2.88-.54-.61-1.27-.92-2.18-.92ZM280.5,294.29c-.53,0-.98-.15-1.31-.45-.33-.3-.5-.69-.5-1.16s.16-.9.49-1.24c.32-.34.75-.51,1.29-.51s1,.16,1.36.48c.35.32.53.72.53,1.2,0,.45-.17.84-.51,1.18-.34.34-.79.51-1.33.51Z"/>
      <path class="cls-4" d="M287.8,293.04c-.87,0-1.58.35-2.11,1.05.02-.91.22-1.67.6-2.25.39-.6.92-.9,1.57-.9.59,0,1.18.25,1.76.74l.04.03.56-.74-.04-.03c-.72-.58-1.48-.88-2.28-.88-.98,0-1.77.4-2.35,1.19-.57.79-.86,1.79-.86,2.98,0,1.29.27,2.26.8,2.87.53.61,1.27.92,2.2.92.78,0,1.45-.25,1.98-.73.53-.49.8-1.11.8-1.85s-.26-1.3-.78-1.74c-.52-.44-1.15-.66-1.89-.66ZM289.01,296.68c-.32.32-.76.48-1.29.48s-1-.16-1.35-.48c-.35-.31-.53-.71-.53-1.18,0-.43.18-.82.52-1.14.35-.33.79-.49,1.33-.49s.96.15,1.3.45c.33.3.5.68.5,1.13,0,.49-.17.9-.49,1.22Z"/>
    </g>
    <g>
      <path class="cls-1" d="M274.64,49.21h-4.03l2.03-1.8c.72-.64,1.22-1.16,1.5-1.56.28-.41.42-.87.42-1.39,0-.63-.22-1.15-.67-1.56-.44-.41-1.01-.61-1.69-.61-.63,0-1.15.13-1.56.4s-.8.67-1.17,1.22l.63.46c.32-.45.64-.78.95-.99.31-.21.68-.32,1.09-.32s.79.13,1.08.4.45.62.45,1.05c0,.38-.12.74-.35,1.09s-.64.78-1.24,1.3l-2.76,2.43v.66h5.31v-.78Z"/>
      <rect class="cls-1" x="276.15" y="48.85" width="1" height="1.14"/>
      <path class="cls-1" d="M283.8,49.21h-4.03l2.03-1.8c.72-.64,1.22-1.16,1.5-1.56.28-.41.42-.87.42-1.39,0-.63-.22-1.15-.67-1.56-.44-.41-1.01-.61-1.69-.61-.63,0-1.15.13-1.56.4s-.8.67-1.17,1.22l.63.46c.32-.45.64-.78.95-.99.31-.21.68-.32,1.09-.32s.79.13,1.08.4.45.62.45,1.05c0,.38-.12.74-.35,1.09s-.64.78-1.24,1.3l-2.76,2.43v.66h5.31v-.78Z"/>
      <path class="cls-1" d="M287.77,49.34c-.72,0-1.44-.35-2.16-1.04l-.56.62c.8.8,1.71,1.21,2.71,1.21.8,0,1.45-.23,1.95-.7.51-.46.76-1.06.76-1.8s-.25-1.29-.74-1.71c-.5-.42-1.12-.63-1.88-.63-.48,0-.98.11-1.5.34l.16-2.43h3.62v-.79h-4.37l-.22,3.7.58.38c.54-.29,1.07-.43,1.6-.43.56,0,1.01.15,1.36.44.35.3.53.68.53,1.15,0,.5-.17.91-.51,1.23-.34.32-.78.48-1.32.48Z"/>
      <path class="cls-1" d="M267.53,74h-4.03l2.03-1.8c.72-.64,1.22-1.16,1.5-1.56.28-.41.42-.87.42-1.39,0-.63-.22-1.15-.67-1.56-.44-.41-1.01-.61-1.69-.61-.63,0-1.15.13-1.56.4-.41.26-.8.67-1.17,1.22l.63.46c.32-.45.64-.78.95-.99s.68-.31,1.09-.31.79.13,1.08.4.45.62.45,1.05c0,.38-.12.74-.35,1.08s-.64.78-1.24,1.3l-2.76,2.43v.66h5.31v-.78Z"/>
      <path class="cls-1" d="M272.61,72.97v1.8h.82v-1.8h1.18v-.72h-1.18v-5.13h-.75l-4.3,5.23.22.62h4ZM272.61,68.34v3.92h-3.19l3.19-3.92Z"/>
      <rect class="cls-1" x="276.04" y="73.64" width="1" height="1.14"/>
      <path class="cls-1" d="M280.02,68.75c.4-.61.94-.92,1.62-.92.6,0,1.2.25,1.79.75l.5-.66c-.71-.58-1.46-.87-2.25-.87-.97,0-1.74.39-2.31,1.17-.57.78-.85,1.77-.85,2.95,0,1.29.26,2.23.79,2.83s1.25.9,2.16.9c.77,0,1.42-.24,1.94-.72.52-.48.78-1.08.78-1.81s-.25-1.27-.76-1.7c-.51-.43-1.13-.65-1.86-.65-.91,0-1.63.39-2.16,1.16v-.03c0-.98.2-1.78.61-2.4ZM280.1,71.27c.36-.34.81-.5,1.36-.5s.99.15,1.33.46c.35.31.52.7.52,1.17,0,.51-.17.93-.5,1.26-.34.33-.78.5-1.33.5s-1.02-.16-1.38-.49c-.36-.33-.54-.73-.54-1.21,0-.45.18-.84.54-1.18Z"/>
      <polygon class="cls-1" points="285.38 67.18 285.38 67.96 289.56 67.96 286.13 74.78 287.09 74.78 290.54 67.82 290.54 67.18 285.38 67.18"/>
      <polygon class="cls-1" points="269.25 92.8 269.25 99.56 270.09 99.56 270.09 91.91 269.46 91.91 267.61 92.55 267.81 93.25 269.25 92.8"/>
      <path class="cls-1" d="M271.87,97.76h4v1.8h.82v-1.8h1.18v-.71h-1.18v-5.13h-.75l-4.3,5.23.22.62ZM275.88,93.13v3.92h-3.19l3.19-3.92Z"/>
      <rect class="cls-1" x="279.31" y="98.42" width="1" height="1.14"/>
      <polygon class="cls-1" points="283.38 99.56 283.38 91.91 282.75 91.91 280.89 92.55 281.1 93.25 282.53 92.8 282.53 99.56 283.38 99.56"/>
      <path class="cls-1" d="M287.85,94.85c-.48,0-.98.11-1.5.34l.16-2.43h3.62v-.79h-4.37l-.22,3.7.58.38c.54-.29,1.07-.43,1.6-.43.56,0,1.01.15,1.36.45.35.3.53.68.53,1.15,0,.5-.17.91-.51,1.23s-.78.48-1.32.48c-.72,0-1.44-.35-2.16-1.04l-.56.62c.8.8,1.71,1.2,2.71,1.2.8,0,1.45-.23,1.95-.69.51-.46.76-1.06.76-1.8s-.25-1.29-.74-1.71c-.5-.42-1.12-.63-1.88-.63Z"/>
      <path class="cls-1" d="M271.3,121.26l-2.76,2.43v.66h5.31v-.78h-4.03l2.03-1.8c.72-.64,1.22-1.16,1.5-1.56.28-.41.42-.87.42-1.39,0-.63-.22-1.15-.67-1.56-.44-.41-1.01-.61-1.69-.61-.63,0-1.15.13-1.56.4-.41.26-.8.67-1.17,1.22l.63.46c.32-.45.64-.78.95-.99s.68-.32,1.09-.32.79.13,1.08.4.45.62.45,1.05c0,.38-.12.74-.35,1.08-.23.35-.64.78-1.24,1.3Z"/>
      <rect class="cls-1" x="275.36" y="123.21" width="1" height="1.14"/>
      <path class="cls-1" d="M278.69,117.79c-.57.78-.85,1.77-.85,2.95,0,1.29.26,2.23.79,2.83s1.25.9,2.16.9c.77,0,1.42-.24,1.94-.72.52-.48.78-1.08.78-1.81s-.25-1.27-.76-1.7c-.51-.44-1.13-.65-1.86-.65-.91,0-1.63.39-2.16,1.16v-.03c0-.98.2-1.78.61-2.4.4-.62.94-.92,1.62-.92.6,0,1.2.25,1.79.75l.5-.66c-.71-.58-1.46-.87-2.25-.87-.97,0-1.74.39-2.31,1.17ZM279.42,120.84c.36-.34.81-.5,1.36-.5s.99.15,1.33.46c.35.31.52.7.52,1.17,0,.51-.17.93-.5,1.26-.34.33-.78.5-1.33.5s-1.02-.16-1.38-.49c-.36-.33-.54-.73-.54-1.22,0-.45.18-.84.54-1.18Z"/>
      <path class="cls-1" d="M289.65,117.52c-.53-.6-1.25-.9-2.14-.9-.8,0-1.45.25-1.96.74-.51.5-.77,1.11-.77,1.84s.25,1.26.74,1.71c.49.45,1.13.67,1.91.67.93,0,1.64-.4,2.15-1.21v.1c0,.95-.21,1.72-.62,2.33-.42.6-.96.91-1.63.91-.63,0-1.25-.27-1.87-.81l-.5.66c.75.62,1.53.93,2.34.93.93,0,1.69-.38,2.28-1.15.59-.77.88-1.75.88-2.96,0-1.29-.27-2.24-.8-2.84ZM288.88,120.32c-.35.35-.8.52-1.36.52s-1-.16-1.35-.47c-.35-.31-.52-.71-.52-1.19s.17-.92.5-1.28c.33-.35.77-.53,1.32-.53s1.03.16,1.39.49c.36.33.54.74.54,1.23,0,.46-.17.87-.53,1.22Z"/>
      <path class="cls-1" d="M277.48,146.62h-1.18v-5.13h-.75l-4.3,5.23.22.62h4v1.8h.82v-1.8h1.18v-.72ZM275.48,146.62h-3.19l3.19-3.92v3.92Z"/>
      <rect class="cls-1" x="278.91" y="147.99" width="1" height="1.14"/>
      <path class="cls-1" d="M286.56,148.35h-4.03l2.03-1.8c.72-.64,1.22-1.16,1.5-1.56.28-.41.42-.87.42-1.39,0-.63-.22-1.15-.67-1.56-.44-.41-1.01-.61-1.69-.61-.63,0-1.15.13-1.56.4s-.8.67-1.17,1.22l.63.46c.32-.45.64-.78.95-.99.31-.21.68-.32,1.09-.32s.79.13,1.08.4.45.62.45,1.05c0,.38-.12.74-.35,1.09s-.64.78-1.24,1.3l-2.76,2.43v.66h5.31v-.78Z"/>
      <polygon class="cls-1" points="290.02 149.13 290.02 141.48 289.39 141.48 287.53 142.12 287.74 142.82 289.17 142.37 289.17 149.13 290.02 149.13"/>
      <polygon class="cls-1" points="267.19 173.92 267.19 166.27 266.57 166.27 264.71 166.91 264.92 167.6 266.35 167.16 266.35 173.92 267.19 173.92"/>
      <polygon class="cls-1" points="270.73 173.92 274.18 166.96 274.18 166.32 269.03 166.32 269.03 167.1 273.21 167.1 269.78 173.92 270.73 173.92"/>
      <rect class="cls-1" x="274.51" y="172.78" width="1" height="1.14"/>
      <path class="cls-1" d="M277.02,168.78c0,.69.25,1.26.74,1.71s1.13.67,1.91.67c.93,0,1.64-.41,2.15-1.22v.1c0,.95-.21,1.72-.62,2.33-.42.6-.96.91-1.63.91-.63,0-1.25-.27-1.87-.81l-.5.66c.75.62,1.53.93,2.34.93.93,0,1.69-.38,2.28-1.15.59-.77.88-1.75.88-2.96,0-1.29-.27-2.24-.8-2.84-.53-.6-1.25-.9-2.14-.9-.8,0-1.45.25-1.96.74s-.77,1.11-.77,1.84ZM278.39,167.48c.33-.35.77-.53,1.32-.53s1.03.17,1.39.49c.36.33.54.74.54,1.23,0,.46-.17.87-.53,1.21-.35.35-.8.52-1.36.52s-1-.16-1.35-.47c-.35-.31-.52-.71-.52-1.19s.17-.92.5-1.27Z"/>
      <path class="cls-1" d="M284.92,167.34c-.6.76-.9,1.69-.9,2.78s.29,2.04.88,2.79c.59.76,1.36,1.13,2.32,1.13s1.73-.38,2.32-1.14c.59-.76.89-1.69.89-2.78s-.29-2.04-.88-2.79-1.36-1.13-2.31-1.13-1.73.38-2.33,1.15ZM288.9,167.9c.43.62.65,1.36.65,2.22s-.21,1.62-.64,2.23c-.42.61-.98.92-1.67.92s-1.25-.31-1.68-.93c-.43-.62-.65-1.36-.65-2.22s.21-1.62.64-2.23.98-.92,1.67-.92,1.25.31,1.68.93Z"/>
      <path class="cls-1" d="M271.08,198.71h.82v-1.8h1.18v-.71h-1.18v-5.13h-.75l-4.3,5.23.22.62h4v1.8ZM267.89,196.19l3.19-3.92v3.92h-3.19Z"/>
      <rect class="cls-1" x="274.51" y="197.56" width="1" height="1.14"/>
      <path class="cls-1" d="M279.95,198.84c.77,0,1.42-.24,1.94-.72.52-.48.78-1.08.78-1.81s-.25-1.27-.76-1.7c-.51-.43-1.13-.65-1.86-.65-.91,0-1.63.39-2.16,1.16v-.03c0-.98.2-1.78.61-2.4.4-.62.94-.92,1.62-.92.6,0,1.2.25,1.79.75l.5-.66c-.71-.58-1.46-.87-2.25-.87-.97,0-1.74.39-2.31,1.17-.57.78-.85,1.77-.85,2.95,0,1.29.26,2.23.79,2.83.53.6,1.25.9,2.16.9ZM278.57,195.19c.36-.34.81-.5,1.36-.5s.99.15,1.33.46c.35.31.52.7.52,1.17,0,.51-.17.93-.5,1.26-.34.33-.78.5-1.33.5s-1.02-.16-1.38-.49c-.36-.33-.54-.73-.54-1.22,0-.45.18-.84.54-1.18Z"/>
      <path class="cls-1" d="M287.23,198.84c.96,0,1.73-.38,2.32-1.15.59-.76.89-1.69.89-2.78s-.29-2.04-.88-2.79-1.36-1.13-2.31-1.13-1.73.38-2.33,1.15c-.6.76-.9,1.69-.9,2.78s.29,2.04.88,2.79c.59.76,1.36,1.13,2.32,1.13ZM285.56,192.68c.43-.61.98-.92,1.67-.92s1.25.31,1.68.93c.43.62.65,1.36.65,2.22s-.21,1.62-.64,2.23c-.42.61-.98.92-1.67.92s-1.25-.31-1.68-.93c-.43-.62-.65-1.36-.65-2.22s.21-1.62.64-2.23Z"/>
      <path class="cls-1" d="M270.99,222.84c-.87,0-1.61-.38-2.22-1.13l-.62.55c.69.9,1.64,1.36,2.83,1.36.72,0,1.32-.21,1.81-.64.49-.43.73-.98.73-1.64s-.24-1.18-.71-1.54c-.47-.36-1.07-.57-1.8-.62l2.39-2.65v-.63h-4.85v.77h3.71l-2.4,2.7.17.51h.49c.64,0,1.15.13,1.54.39.39.26.59.62.59,1.08s-.16.81-.48,1.08-.71.41-1.18.41Z"/>
      <rect class="cls-1" x="275.09" y="222.35" width="1" height="1.14"/>
      <path class="cls-1" d="M282.43,223.49v-1.8h1.18v-.71h-1.18v-5.13h-.75l-4.3,5.23.22.62h4v1.8h.82ZM278.42,220.97l3.19-3.92v3.92h-3.19Z"/>
      <path class="cls-1" d="M288.95,221.93c-.42.61-.96.91-1.63.91-.63,0-1.25-.27-1.87-.81l-.5.66c.75.62,1.53.93,2.34.93.93,0,1.69-.38,2.28-1.15.59-.77.88-1.75.88-2.96,0-1.3-.27-2.24-.8-2.84-.53-.6-1.25-.9-2.14-.9-.8,0-1.45.25-1.96.74s-.77,1.11-.77,1.84.25,1.26.74,1.71,1.13.67,1.91.67c.93,0,1.64-.41,2.15-1.21v.1c0,.95-.21,1.72-.62,2.33ZM288.88,219.46c-.35.35-.8.52-1.36.52s-1-.16-1.35-.47c-.35-.31-.52-.71-.52-1.19s.17-.92.5-1.28c.33-.35.77-.53,1.32-.53s1.03.17,1.39.49c.36.33.54.74.54,1.23,0,.46-.17.87-.53,1.21Z"/>
      <polygon class="cls-1" points="263.93 241.27 264.13 241.96 265.57 241.52 265.57 248.28 266.41 248.28 266.41 240.63 265.78 240.63 263.93 241.27"/>
      <path class="cls-1" d="M273.02,248.28v-1.8h1.18v-.72h-1.18v-5.13h-.75l-4.3,5.23.22.62h4v1.8h.82ZM269.01,245.76l3.19-3.92v3.92h-3.19Z"/>
      <rect class="cls-1" x="275.63" y="247.14" width="1" height="1.14"/>
      <path class="cls-1" d="M280.87,240.55c-.8,0-1.45.25-1.96.74-.51.49-.77,1.11-.77,1.84s.25,1.27.74,1.71c.49.44,1.13.67,1.91.67.93,0,1.64-.4,2.15-1.21v.1c0,.95-.21,1.72-.62,2.33s-.96.91-1.63.91c-.63,0-1.25-.27-1.87-.81l-.5.66c.75.62,1.53.93,2.34.93.93,0,1.69-.38,2.28-1.15s.88-1.75.88-2.96c0-1.29-.27-2.24-.8-2.84-.53-.6-1.25-.9-2.14-.9ZM282.24,244.25c-.35.35-.8.52-1.36.52s-1-.15-1.35-.46c-.35-.31-.52-.71-.52-1.2s.17-.92.5-1.28c.33-.35.77-.53,1.32-.53s1.03.16,1.39.49c.36.33.54.74.54,1.23,0,.46-.17.87-.53,1.22Z"/>
      <path class="cls-1" d="M287.85,243.57c-.48,0-.98.11-1.5.34l.16-2.43h3.62v-.79h-4.37l-.22,3.7.58.38c.54-.29,1.07-.43,1.6-.43.56,0,1.01.15,1.36.44.35.3.53.68.53,1.15,0,.5-.17.91-.51,1.23s-.78.48-1.32.48c-.72,0-1.44-.35-2.16-1.04l-.56.62c.8.8,1.71,1.21,2.71,1.21.8,0,1.45-.23,1.95-.7.51-.46.76-1.06.76-1.8s-.25-1.29-.74-1.71c-.5-.42-1.12-.63-1.88-.63Z"/>
      <path class="cls-1" d="M263.84,320.05c.72-.64,1.22-1.16,1.5-1.56.28-.4.42-.87.42-1.39,0-.63-.22-1.15-.67-1.56-.44-.41-1.01-.61-1.69-.61-.63,0-1.15.13-1.56.39-.41.27-.8.67-1.17,1.22l.63.46c.32-.45.64-.78.95-.99.31-.21.68-.31,1.09-.31s.79.13,1.08.4.45.62.45,1.05c0,.38-.12.74-.35,1.08-.23.35-.64.78-1.24,1.3l-2.76,2.43v.66h5.31v-.78h-4.03l2.03-1.8Z"/>
      <path class="cls-1" d="M271.77,318.56c-.5-.42-1.12-.63-1.88-.63-.48,0-.98.11-1.5.34l.16-2.43h3.62v-.79h-4.37l-.22,3.7.58.38c.54-.29,1.07-.43,1.6-.43.56,0,1.01.15,1.36.45.35.3.53.68.53,1.15,0,.5-.17.91-.51,1.23s-.78.48-1.32.48c-.72,0-1.44-.35-2.16-1.04l-.56.62c.8.8,1.71,1.2,2.71,1.2.8,0,1.45-.23,1.95-.69.51-.46.76-1.06.76-1.8s-.25-1.29-.74-1.71Z"/>
      <rect class="cls-1" x="273.99" y="321.49" width="1" height="1.14"/>
      <path class="cls-1" d="M281.79,321.62c.59-.76.89-1.69.89-2.78s-.29-2.04-.88-2.79-1.36-1.13-2.31-1.13-1.73.38-2.33,1.15-.9,1.69-.9,2.78.29,2.04.88,2.79c.59.76,1.36,1.13,2.32,1.13s1.73-.38,2.32-1.14ZM277.81,321.05c-.43-.62-.65-1.36-.65-2.22s.21-1.62.64-2.23.98-.92,1.67-.92,1.25.31,1.68.93c.43.62.65,1.36.65,2.22s-.21,1.62-.64,2.23c-.42.61-.98.92-1.67.92s-1.25-.31-1.68-.93Z"/>
      <path class="cls-1" d="M287.23,322.76c.96,0,1.73-.38,2.32-1.14.59-.76.89-1.69.89-2.78s-.29-2.04-.88-2.79-1.36-1.13-2.31-1.13-1.73.38-2.33,1.15-.9,1.69-.9,2.78.29,2.04.88,2.79c.59.76,1.36,1.13,2.32,1.13ZM285.56,316.6c.43-.61.98-.92,1.67-.92s1.25.31,1.68.93c.43.62.65,1.36.65,2.22s-.21,1.62-.64,2.23c-.42.61-.98.92-1.67.92s-1.25-.31-1.68-.93c-.43-.62-.65-1.36-.65-2.22s.21-1.62.64-2.23Z"/>
      <path class="cls-1" d="M276.64,343.72c-.47-.36-1.07-.57-1.8-.62l2.39-2.65v-.63h-4.85v.77h3.71l-2.4,2.7.17.51h.49c.64,0,1.15.13,1.54.38.39.26.59.62.59,1.08s-.16.81-.48,1.09-.71.41-1.18.41c-.87,0-1.61-.38-2.22-1.13l-.62.55c.69.9,1.64,1.36,2.83,1.36.72,0,1.32-.21,1.81-.65.49-.43.73-.98.73-1.64s-.24-1.18-.71-1.54Z"/>
      <rect class="cls-1" x="278.93" y="346.28" width="1" height="1.14"/>
      <polygon class="cls-1" points="280.51 340.41 280.72 341.1 282.15 340.66 282.15 347.42 283 347.42 283 339.77 282.37 339.77 280.51 340.41"/>
      <path class="cls-1" d="M287.51,339.69c-.8,0-1.45.25-1.96.74-.51.49-.77,1.11-.77,1.84s.25,1.27.74,1.71c.49.44,1.13.67,1.91.67.93,0,1.64-.4,2.15-1.21v.1c0,.95-.21,1.72-.62,2.33s-.96.91-1.63.91c-.63,0-1.25-.27-1.87-.81l-.5.66c.75.62,1.53.93,2.34.93.93,0,1.69-.38,2.28-1.15s.88-1.75.88-2.96c0-1.29-.27-2.24-.8-2.84-.53-.6-1.25-.9-2.14-.9ZM288.88,343.39c-.35.35-.8.52-1.36.52s-1-.15-1.35-.46c-.35-.31-.52-.71-.52-1.2s.17-.92.5-1.28c.33-.35.77-.53,1.32-.53s1.03.16,1.39.49c.36.33.54.74.54,1.23,0,.46-.17.87-.53,1.22Z"/>
    </g>
  </g>
</svg>