<?xml version="1.0" encoding="UTF-8"?>
<svg id="Camada_1" data-name="Camada 1" xmlns="http://www.w3.org/2000/svg" width="10.9cm" height="12.94cm" viewBox="0 0 309.06 366.68">
  <defs>
    <style>
      .cls-1 {
        fill: #468aa3;
      }

      .cls-2 {
        fill: #e0b35e;
      }

      .cls-3 {
        fill: #77a5b8;
      }

      .cls-4 {
        fill: #034d67;
      }

      .cls-5 {
        fill: #c0d4dc;
      }

      .cls-6 {
        fill: #227493;
      }
    </style>
  </defs>
  <g>
    <g>
      <path class="cls-4" d="M52.04,18.36h-3.21v.35h.13c.78.05.78.14.78.43v6.73c0,.29,0,.38-.78.42h-.13v.36h3.09c2.79,0,4.82-1.78,4.82-4.24s-1.89-4.04-4.69-4.04ZM55.49,22.71c0,2.05-1.41,3.48-3.44,3.48-1.18,0-1.18-.15-1.18-.43v-6.95h1.03c2.11,0,3.59,1.6,3.59,3.9Z"/>
      <path class="cls-4" d="M65.28,24.52c-.74,1.42-1.22,1.67-2.22,1.67h-1.53c-.26,0-.36-.09-.36-.31v-3.21h1.37c.9,0,1.09.29,1.26,1.27l.02.12h.33v-3.18h-.33l-.02.12c-.17.94-.37,1.23-1.26,1.23h-1.37v-3.41h1.61c1.16,0,1.54.29,2.06,1.55l.03.09h.35l-.4-1.98-.02-.11h-5.68v.35h.13c.78.05.78.14.78.43v6.73c0,.29,0,.38-.78.42h-.13v.36h5.87l.67-2.2h-.35l-.04.08Z"/>
      <path class="cls-4" d="M71.42,21.99l-.65-.28c-1.23-.51-1.48-1.04-1.48-1.66,0-1,.77-1.36,1.42-1.36.85,0,1.54.66,1.96,1.84l.03.09h.33l-.23-2.23v-.04h-.33l-.02.11c-.03.14-.05.16-.06.16-.05,0-.17-.05-.28-.09-.31-.12-.77-.29-1.39-.29-1.32,0-2.32.99-2.32,2.31,0,.97.61,1.72,1.82,2.24l.65.28c1.06.45,1.53.97,1.53,1.7,0,.94-.69,1.54-1.76,1.54s-1.77-.67-2.24-2.06l-.03-.1h-.34l.27,2.37.02.12h.33l.02-.11c.04-.17.06-.17.07-.17.05,0,.16.04.29.08h.01c.34.12.9.3,1.61.3,1.52,0,2.66-1.06,2.66-2.46,0-1.02-.61-1.77-1.88-2.31Z"/>
      <path class="cls-4" d="M83.41,24.03c-.66,1.29-1.73,2.03-2.94,2.03-1.92,0-3.21-1.54-3.21-3.82,0-2.04,1.26-3.52,3-3.52,1.39,0,2.45.79,2.98,2.23l.03.09h.33l-.29-2.55-.02-.12h-.34l-.02.12c-.04.36-.12.36-.15.36-.04,0-.17-.06-.28-.11-.38-.17-1.1-.49-2.26-.49-2.38,0-4.24,1.92-4.24,4.38s1.67,4.13,3.97,4.13c1.68,0,3.06-.93,3.79-2.56l.06-.13-.36-.15-.06.11Z"/>
      <path class="cls-4" d="M91.72,24.92l-1.61-2.41c.91-.26,1.95-.84,1.95-2.1,0-.94-.56-2.05-3.21-2.05h-2.66v.35h.13c.78.07.78.14.78.42v6.74c0,.29,0,.38-.78.42h-.13v.36h3.08v-.35h-.13c-.91-.05-.91-.15-.91-.43v-3.18h.49c.2,0,.28,0,.51.39l1.5,2.42c.63,1.02,1.06,1.2,1.75,1.2.23,0,.55-.02.73-.04l.12-.02v-.33h-.13c-.46-.05-.86-.42-1.49-1.38ZM88.78,22.24h-.54v-3.43h.42c1.02,0,2.24.31,2.24,1.76,0,1.03-.81,1.66-2.12,1.66Z"/>
      <path class="cls-4" d="M95.22,18.71h.13c.81.05.81.14.81.43v6.73c0,.29,0,.38-.81.42h-.13v.36h3.03v-.35h-.13c-.81-.05-.81-.14-.81-.43v-6.73c0-.29,0-.38.81-.42h.13v-.36h-3.03v.35Z"/>
      <path class="cls-4" d="M108.04,24.03c-.66,1.29-1.73,2.03-2.94,2.03-1.92,0-3.21-1.54-3.21-3.82,0-2.04,1.26-3.52,3-3.52,1.39,0,2.45.79,2.98,2.23l.03.09h.33l-.29-2.55-.02-.12h-.34l-.02.12c-.04.36-.12.36-.15.36-.04,0-.17-.06-.28-.11-.38-.17-1.1-.49-2.26-.49-2.38,0-4.24,1.92-4.24,4.38,0,2.28,1.56,4.01,3.71,4.13l-.4.82-.02.03.16.16h.07c.17-.05.29-.07.41-.07.32,0,.54.2.54.48,0,.24-.21.42-.5.42-.26,0-.54-.11-.7-.23l-.13-.09-.15.3.08.07c.22.2.5.39.96.39.68,0,1.22-.46,1.22-1.05,0-.28-.1-.52-.28-.7-.21-.19-.5-.29-.86-.29-.02,0-.04,0-.06,0l.12-.24c1.57-.07,2.88-1,3.58-2.56l.06-.13-.36-.15-.06.11Z"/>
      <path class="cls-4" d="M112.58,17.72c.1-.31.31-.5.57-.5.21,0,.49.12.79.24.34.15.7.3,1.04.3.55,0,.96-.47,1.06-1.22l.02-.13-.32-.05-.04.11c-.1.31-.31.5-.57.5-.22,0-.49-.12-.8-.25-.34-.14-.7-.29-1.03-.29-.55,0-.96.47-1.06,1.22l-.02.13.32.06.04-.12Z"/>
      <path class="cls-4" d="M116.87,25.28l-2.1-5.78c-.26-.71-.32-.88-.4-1.26l-.02-.11h-.25l-.04.05c-.16.2-.47.35-.7.4l-.16.04.24.61-2.14,5.93c-.32.86-.65,1.07-1.11,1.12l-.12.02v.34h2.6v-.35h-.13c-.44-.04-.7-.13-.8-.28-.09-.13-.07-.36.05-.7l.65-1.82h2.6l.8,2.24c.08.22.09.34.06.4-.06.09-.29.14-.72.15h-.13v.36h3.02v-.34h-.13c-.64-.07-.74-.16-1.06-1.02ZM114.86,23.02h-2.24l1.12-3.14,1.12,3.14Z"/>
      <path class="cls-4" d="M124,18.25c-2.43,0-4.19,1.83-4.19,4.35s1.7,4.16,4.03,4.16c2.46,0,4.24-1.83,4.24-4.35s-1.72-4.16-4.09-4.16ZM126.84,22.71c0,2.11-1.15,3.58-2.8,3.58s-2.99-1.72-2.99-4c0-2.11,1.13-3.58,2.75-3.58,1.73,0,3.03,1.72,3.03,4Z"/>
    </g>
    <path class="cls-3" d="M22.41,51.29v-6.76l-1.43.44-.21-.69,1.86-.64h.63v7.65h-.85Z"/>
    <path class="cls-3" d="M19.44,76.08v-.66l2.76-2.43c.59-.52,1.01-.96,1.24-1.3.23-.35.35-.71.35-1.08,0-.43-.15-.79-.45-1.05s-.66-.4-1.08-.4-.78.1-1.09.31-.63.54-.95.99l-.63-.46c.37-.55.76-.96,1.17-1.22.41-.26.93-.4,1.56-.4.68,0,1.24.2,1.69.61.45.41.67.93.67,1.56,0,.52-.14.98-.42,1.39-.28.41-.78.93-1.5,1.56l-2.03,1.8h4.03v.78h-5.31Z"/>
    <path class="cls-3" d="M22.29,100.99c-1.19,0-2.14-.45-2.83-1.36l.62-.55c.62.75,1.36,1.13,2.22,1.13.47,0,.87-.14,1.18-.41s.48-.64.48-1.08-.2-.82-.59-1.08c-.39-.26-.9-.39-1.54-.39h-.49l-.17-.51,2.4-2.7h-3.71v-.77h4.85v.63l-2.39,2.65c.72.06,1.32.27,1.8.62.47.36.71.87.71,1.53s-.24,1.21-.73,1.64c-.49.43-1.09.65-1.81.65Z"/>
    <path class="cls-3" d="M23.61,125.65v-1.8h-4l-.22-.62,4.3-5.23h.75v5.13h1.18v.72h-1.18v1.8h-.82ZM20.42,123.13h3.19v-3.92l-3.19,3.92Z"/>
    <path class="cls-3" d="M22.21,150.56c-1.01,0-1.91-.4-2.71-1.2l.56-.62c.72.7,1.44,1.04,2.16,1.04.54,0,.98-.16,1.32-.48s.51-.73.51-1.23c0-.47-.17-.85-.53-1.15-.35-.3-.8-.44-1.36-.44-.52,0-1.05.14-1.6.43l-.58-.38.22-3.7h4.37v.79h-3.62l-.16,2.43c.51-.22,1.01-.34,1.5-.34.76,0,1.39.21,1.88.63.5.42.74.99.74,1.71s-.25,1.34-.76,1.8c-.51.46-1.16.69-1.95.69Z"/>
    <path class="cls-3" d="M22.53,175.35c-.91,0-1.63-.3-2.16-.9s-.79-1.54-.79-2.83c0-1.19.28-2.17.85-2.95.57-.78,1.34-1.17,2.31-1.17.79,0,1.54.29,2.25.87l-.5.66c-.59-.5-1.19-.75-1.79-.75-.67,0-1.21.31-1.62.92-.41.62-.61,1.42-.61,2.4v.03c.53-.77,1.25-1.16,2.16-1.16.73,0,1.35.22,1.86.65.51.43.76,1,.76,1.7s-.26,1.33-.78,1.81c-.52.48-1.17.72-1.94.72ZM22.54,174.59c.55,0,.99-.17,1.33-.5.34-.33.5-.75.5-1.26,0-.47-.17-.86-.52-1.17-.35-.31-.79-.46-1.33-.46s-1,.17-1.36.5c-.36.34-.54.73-.54,1.18,0,.48.18.89.54,1.21.36.33.82.49,1.38.49Z"/>
    <path class="cls-3" d="M20.41,200.01l3.43-6.82h-4.18v-.78h5.15v.64l-3.45,6.96h-.96Z"/>
    <path class="cls-3" d="M24.38,224.3c-.54.4-1.22.6-2.04.6s-1.5-.2-2.04-.61c-.54-.41-.81-.93-.81-1.56,0-.43.14-.81.42-1.13s.66-.56,1.14-.74c-.87-.4-1.3-.99-1.3-1.77,0-.57.25-1.05.76-1.43.51-.38,1.12-.58,1.83-.58s1.32.19,1.83.58c.51.38.77.87.77,1.45,0,.77-.43,1.35-1.3,1.75,1.04.39,1.56,1.02,1.56,1.88,0,.64-.27,1.16-.81,1.56ZM20.89,223.74c.36.28.84.41,1.45.41s1.09-.14,1.45-.41c.36-.27.54-.62.54-1.03s-.19-.76-.58-1.04c-.38-.27-.85-.41-1.41-.41s-1.04.14-1.42.41c-.38.27-.57.62-.57,1.05,0,.4.18.73.54,1.01ZM21.1,220.17c.33.26.75.39,1.24.39s.9-.13,1.24-.39c.33-.26.5-.6.5-1.02,0-.38-.17-.69-.5-.94-.33-.25-.75-.37-1.24-.37s-.91.12-1.24.37-.49.57-.49.96.17.74.5,1Z"/>
    <path class="cls-3" d="M22.12,249.71c-.81,0-1.59-.31-2.34-.93l.5-.66c.62.54,1.24.81,1.87.81.67,0,1.22-.3,1.63-.91.42-.6.62-1.38.62-2.33v-.1c-.51.81-1.22,1.21-2.15,1.21-.78,0-1.42-.22-1.91-.67-.49-.45-.74-1.01-.74-1.71,0-.73.26-1.34.77-1.84.51-.5,1.17-.74,1.96-.74.9,0,1.61.3,2.14.9.53.6.8,1.55.8,2.84,0,1.21-.29,2.2-.88,2.96-.59.77-1.35,1.15-2.28,1.15ZM22.35,246.07c.56,0,1.01-.17,1.36-.52.35-.35.53-.75.53-1.22,0-.49-.18-.9-.54-1.23-.36-.33-.83-.49-1.39-.49s-.99.18-1.32.53c-.33.35-.5.78-.5,1.28s.17.88.52,1.19c.35.31.8.47,1.35.47Z"/>
    <g>
      <g>
        <path class="cls-6" d="M53.57,43.88h.13c.74.05.74.13.74.4v2.93h-3.94v-2.93c0-.27,0-.35.74-.4h.13v-.35h-2.83v.34h.13c.74.05.74.13.74.4v6.42c0,.27,0,.35-.74.4h-.13v.35h2.83v-.34h-.13c-.74-.05-.74-.13-.74-.4v-3.03h3.94v3.03c0,.27,0,.35-.74.4h-.13v.35h2.83v-.34h-.13c-.74-.05-.74-.13-.74-.4v-6.42c0-.27,0-.35.74-.4h.13v-.35h-2.83v.34Z"/>
        <path class="cls-6" d="M64.7,50.14l-2-5.51c-.25-.67-.3-.84-.38-1.2l-.03-.11h-.24l-.04.05c-.15.19-.45.33-.67.38l-.16.04.23.58-2.04,5.66c-.31.82-.62,1.01-1.05,1.07l-.12.02v.34h2.5v-.34h-.13c-.41-.04-.66-.12-.76-.26-.08-.12-.07-.34.05-.66l.62-1.73h2.47l.76,2.13c.07.21.09.32.06.37-.08.12-.54.14-.68.14h-.13v.35h2.89v-.34h-.13c-.61-.07-.7-.16-1-.97ZM62.76,47.99h-2.12l1.06-2.97,1.06,2.97Z"/>
        <path class="cls-6" d="M73.16,49.39c-.66,1.27-1.12,1.62-2.13,1.62h-1.16c-.25,0-.33-.07-.33-.29v-6.43c0-.27,0-.35.74-.4h.13v-.35h-2.83v.34h.13c.74.05.74.13.74.4v6.42c0,.26,0,.35-.74.4h-.13v.35h5.32l.62-2.07.02-.06h-.35l-.04.08Z"/>
        <path class="cls-6" d="M80.95,49.39c-.66,1.27-1.12,1.62-2.13,1.62h-1.16c-.25,0-.33-.07-.33-.29v-6.43c0-.27,0-.35.74-.4h.13v-.35h-2.83v.34h.13c.74.05.74.13.74.4v6.42c0,.26,0,.35-.74.4h-.13v.35h5.32l.62-2.07.02-.06h-.35l-.04.08Z"/>
        <path class="cls-6" d="M89.97,43.53h-3.07v.34h.13c.74.05.74.13.74.4v6.42c0,.27,0,.35-.74.4h-.13v.35h2.95c2.67,0,4.6-1.71,4.6-4.06s-1.8-3.87-4.49-3.87ZM93.25,47.69c0,1.95-1.35,3.31-3.27,3.31-1.12,0-1.12-.14-1.12-.41v-6.62h.97c2.01,0,3.42,1.53,3.42,3.71Z"/>
        <path class="cls-6" d="M102.39,49.41c-.7,1.35-1.16,1.59-2.11,1.59h-1.46c-.24,0-.33-.08-.33-.29v-3.05h1.3c.86,0,1.03.27,1.2,1.21l.02.12h.33v-3.05h-.33l-.02.12c-.16.89-.35,1.17-1.2,1.17h-1.3v-3.24h1.53c1.1,0,1.47.28,1.96,1.48l.03.09h.35l-.38-1.9-.02-.11h-5.43v.34h.13c.74.05.74.13.74.4v6.42c0,.27,0,.35-.74.4h-.13v.35h5.61l.64-2.12h-.35l-.04.08Z"/>
        <path class="cls-6" d="M114.61,49.41c-.7,1.35-1.16,1.59-2.11,1.59h-1.46c-.24,0-.33-.08-.33-.29v-3.05h1.3c.86,0,1.03.27,1.2,1.21l.02.12h.33v-3.05h-.33l-.02.12c-.16.89-.35,1.17-1.2,1.17h-1.3v-3.24h1.53c1.1,0,1.47.28,1.96,1.48l.03.09h.35l-.38-1.9-.02-.11h-5.43v.34h.13c.74.05.74.13.74.4v6.42c0,.27,0,.35-.74.4h-.13v.35h5.61l.64-2.12h-.35l-.04.08Z"/>
        <path class="cls-6" d="M121.79,43.88h.13c1.06.07,1.2.26,1.2.96v4.63l-4.23-5.87-.04-.06h-1.96v.34h.13c.73.07.9.25.9.96v5.31c0,.71-.17.89-.9.95h-.13v.35h2.86v-.34h-.13c-1.05-.07-1.19-.25-1.19-.96v-5.31l4.87,6.67.04.06h.29v-6.72c0-.71.17-.89.9-.95h.13v-.35h-2.86v.34Z"/>
        <path class="cls-6" d="M132.95,43.45l-.14.03c-.19.04-.55.06-.98.06h-3.86c-.44,0-.8-.02-.99-.06l-.14-.03-.42,2.1h.34l.03-.09c.53-1.3.87-1.48,1.93-1.48h.63v6.73c0,.27,0,.35-.74.4h-.13v.35h2.83v-.34h-.13c-.74-.05-.74-.13-.74-.4v-6.73h.63c1.06,0,1.4.17,1.93,1.48l.03.09h.35l-.42-2.05v-.05Z"/>
        <path class="cls-6" d="M140.56,49.8l-1.53-2.29c.86-.25,1.86-.8,1.86-2,0-.9-.53-1.97-3.07-1.97h-2.54v.34h.13c.74.06.74.13.74.39v6.44c0,.27,0,.35-.74.4h-.13v.35h2.96v-.35h-.13c-.87-.05-.87-.14-.87-.4v-3.03h.46c.19,0,.26,0,.48.37l1.44,2.31c.6.98,1.02,1.15,1.67,1.15.22,0,.53-.02.7-.04l.12-.02v-.33h-.13c-.44-.05-.82-.4-1.42-1.31ZM139.75,45.66c0,.98-.77,1.58-2.01,1.58h-.51v-3.26h.4c.97,0,2.13.29,2.13,1.68Z"/>
        <path class="cls-6" d="M149.84,50.14l-2.01-5.51c-.26-.7-.3-.85-.38-1.2l-.03-.11h-.24l-.04.05c-.15.19-.45.33-.67.38l-.16.04.23.58-2.04,5.66c-.31.82-.62,1.01-1.05,1.07l-.12.02v.34h2.49v-.34h-.13c-.41-.04-.66-.12-.75-.26-.08-.13-.07-.34.05-.66l.62-1.73h2.47l.76,2.13c.07.2.09.32.06.37-.08.12-.54.14-.68.14h-.13v.35h2.89v-.34h-.13c-.61-.07-.7-.16-1-.97ZM147.9,47.99h-2.12l1.06-2.97,1.06,2.97Z"/>
        <path class="cls-6" d="M155.79,43.53h-3.07v.34h.13c.74.05.74.13.74.4v6.42c0,.27,0,.35-.74.4h-.13v.35h2.95c2.67,0,4.6-1.71,4.6-4.06s-1.8-3.87-4.49-3.87ZM159.07,47.69c0,1.95-1.35,3.31-3.27,3.31-1.12,0-1.12-.14-1.12-.41v-6.62h.97c2.01,0,3.42,1.53,3.42,3.71Z"/>
        <path class="cls-6" d="M169.16,51.1c-.61-.06-.7-.15-1-.96l-2.01-5.51c-.26-.7-.3-.85-.38-1.2l-.03-.11h-.24l-.04.05c-.15.19-.45.33-.67.38l-.16.04.23.58-2.04,5.66c-.31.82-.62,1.01-1.05,1.07l-.12.02v.34h2.49v-.34h-.13c-.41-.04-.66-.12-.75-.26-.08-.13-.07-.34.05-.66l.62-1.73h2.47l.76,2.13c.07.2.09.32.06.37-.08.12-.54.14-.68.14h-.13v.35h2.89v-.34h-.13ZM166.22,47.99h-2.12l1.06-2.97,1.06,2.97Z"/>
      </g>
      <path class="cls-6" d="M48.86,76.24h.32l.02-.11c.03-.13.05-.15.06-.15.04,0,.17.04.29.08.34.11.85.29,1.54.29,1.45,0,2.54-1.01,2.54-2.35,0-.97-.59-1.69-1.8-2.21l-.62-.26c-1.17-.49-1.41-.99-1.41-1.58,0-.95.73-1.29,1.35-1.29.81,0,1.47.62,1.86,1.75l.03.09h.33l-.22-2.13v-.04h-.33l-.02.11c-.03.13-.04.15-.05.15-.04,0-.16-.05-.27-.09-.29-.11-.73-.28-1.33-.28-1.26,0-2.22.95-2.22,2.21,0,.93.59,1.65,1.74,2.14l.62.26c1.01.42,1.46.92,1.46,1.61,0,.89-.66,1.47-1.68,1.47s-1.69-.64-2.13-1.96l-.03-.1h-.34l.26,2.27.02.12Z"/>
      <path class="cls-6" d="M57.81,75.9h-.13c-.41-.04-.66-.12-.76-.26-.08-.13-.07-.34.05-.66l.62-1.73h2.47l.76,2.13c.07.2.09.32.06.38-.08.12-.54.14-.68.14h-.13v.35h2.89v-.34h-.13c-.61-.07-.7-.16-1-.97l-2-5.51c-.25-.67-.3-.84-.38-1.2l-.03-.11h-.24l-.04.05c-.15.19-.44.33-.67.38l-.16.04.23.58-2.04,5.66c-.31.82-.62,1.01-1.05,1.07l-.12.02v.34h2.5v-.34ZM57.76,72.77l1.06-2.97,1.06,2.97h-2.12Z"/>
      <path class="cls-6" d="M70.65,74.17l.02-.06h-.35l-.04.08c-.66,1.27-1.12,1.62-2.13,1.62h-1.16c-.25,0-.33-.07-.33-.29v-6.44c0-.27,0-.35.74-.4h.13v-.35h-2.83v.34h.13c.74.05.74.13.74.4v6.43c0,.26,0,.35-.74.4h-.13v.35h5.32l.62-2.07Z"/>
      <path class="cls-6" d="M74.6,75.9h-.13c-.41-.04-.66-.12-.76-.26-.08-.13-.07-.34.05-.66l.62-1.73h2.47l.76,2.13c.07.2.09.32.06.38-.08.12-.54.14-.68.14h-.13v.35h2.89v-.34h-.13c-.61-.07-.7-.16-1-.97l-2-5.51c-.25-.67-.3-.84-.38-1.2l-.03-.11h-.24l-.04.05c-.15.19-.44.33-.67.38l-.16.04.23.58-2.04,5.66c-.31.82-.62,1.01-1.05,1.07l-.12.02v.34h2.5v-.34ZM74.55,72.77l1.06-2.97,1.06,2.97h-2.12Z"/>
      <path class="cls-6" d="M92.7,72.18c0-2.31-1.8-3.87-4.49-3.87h-3.07v.34h.13c.74.05.74.13.74.4v6.43c0,.27,0,.35-.74.4h-.13v.35h2.95c2.67,0,4.6-1.71,4.6-4.06ZM87.1,75.39v-6.62h.97c2.01,0,3.42,1.53,3.42,3.71,0,1.95-1.35,3.31-3.27,3.31-1.12,0-1.12-.14-1.12-.41Z"/>
      <path class="cls-6" d="M101.02,74.12h-.35l-.04.08c-.7,1.35-1.17,1.59-2.11,1.59h-1.46c-.24,0-.33-.08-.33-.29v-3.05h1.3c.86,0,1.03.27,1.2,1.21l.02.12h.33v-3.05h-.33l-.02.12c-.16.89-.35,1.17-1.2,1.17h-1.3v-3.24h1.53c1.1,0,1.47.28,1.96,1.48l.03.09h.35l-.38-1.9-.02-.11h-5.43v.34h.13c.74.05.74.13.74.4v6.43c0,.27,0,.35-.74.4h-.13v.35h5.61l.64-2.12Z"/>
      <path class="cls-6" d="M113.24,74.12h-.35l-.04.08c-.7,1.35-1.17,1.59-2.11,1.59h-1.46c-.24,0-.33-.08-.33-.29v-3.05h1.3c.86,0,1.03.27,1.2,1.21l.02.12h.33v-3.05h-.33l-.02.12c-.16.89-.35,1.17-1.2,1.17h-1.3v-3.24h1.53c1.1,0,1.47.28,1.96,1.48l.03.09h.35l-.38-1.9-.02-.11h-5.43v.34h.13c.74.05.74.13.74.4v6.43c0,.27,0,.35-.74.4h-.13v.35h5.61l.64-2.12Z"/>
      <path class="cls-6" d="M115.53,76.24h.32l.02-.11c.03-.13.05-.15.06-.15.04,0,.15.04.26.07h.02c.32.11.86.29,1.54.29,1.45,0,2.54-1.01,2.54-2.35,0-.97-.59-1.69-1.8-2.21l-.62-.26c-1.17-.49-1.41-.99-1.41-1.58,0-.89.68-1.29,1.35-1.29.81,0,1.47.62,1.86,1.75l.03.09h.33l-.22-2.13v-.04h-.33l-.02.11c-.03.13-.04.15-.05.15-.04,0-.16-.05-.27-.09-.29-.11-.73-.28-1.33-.28-1.26,0-2.22.95-2.22,2.21,0,.93.59,1.65,1.74,2.14l.62.26c1.01.42,1.46.92,1.46,1.61,0,.89-.66,1.47-1.68,1.47s-1.69-.64-2.13-1.96l-.03-.1h-.34l.26,2.27.02.12Z"/>
      <path class="cls-6" d="M122.62,70.24c.53-1.3.87-1.48,1.93-1.48h.63v6.73c0,.27,0,.35-.74.4h-.13v.35h2.83v-.34h-.13c-.74-.05-.74-.13-.74-.4v-6.73h.63c1.06,0,1.4.17,1.93,1.48l.03.09h.35l-.42-2.05v-.05s-.15.03-.15.03c-.19.04-.55.06-.98.06h-3.86c-.44,0-.8-.02-.99-.06l-.14-.03-.42,2.1h.34l.03-.09Z"/>
      <path class="cls-6" d="M132.2,75.9h-.13c-.41-.04-.66-.12-.76-.26-.08-.13-.07-.34.05-.66l.62-1.73h2.47l.76,2.13c.07.2.09.32.06.38-.08.12-.54.14-.68.14h-.13v.35h2.89v-.34h-.13c-.61-.07-.7-.16-1-.97l-2-5.51c-.25-.67-.3-.84-.38-1.2l-.03-.11h-.24l-.04.05c-.15.19-.44.33-.67.38l-.16.04.23.58-2.04,5.66c-.31.82-.62,1.01-1.05,1.07l-.12.02v.34h2.5v-.34ZM132.15,72.77l1.06-2.97,1.06,2.97h-2.12Z"/>
      <path class="cls-6" d="M142.05,75.9h-.13c-.87-.05-.87-.14-.87-.4v-3.03h.46c.19,0,.26,0,.48.37l1.44,2.31c.6.98,1.02,1.15,1.67,1.15.21,0,.51-.02.7-.04l.12-.02v-.33h-.13c-.44-.05-.82-.4-1.42-1.31l-1.53-2.29c.86-.25,1.86-.8,1.86-2.01,0-.9-.53-1.97-3.07-1.97h-2.54v.34h.13c.74.06.74.13.74.39v6.44c0,.27,0,.35-.74.4h-.13v.35h2.96v-.34ZM141.56,72.02h-.51v-3.26h.4c.97,0,2.13.29,2.13,1.68,0,.98-.77,1.58-2.01,1.58Z"/>
      <rect class="cls-6" x="151.95" y="67.75" width=".49" height="9.16"/>
      <path class="cls-6" d="M159.16,77.82c1.21,0,2.03-1.3,2.03-3.25v-5.5c0-.27,0-.35.74-.4h.13v-.35h-2.87v.34h.13c.78.05.78.13.78.4v6.88c0,.87-.18,1.31-.52,1.31-.11,0-.23-.04-.45-.24-.16-.13-.31-.19-.44-.19-.24,0-.43.19-.43.42,0,.33.38.57.91.57Z"/>
      <path class="cls-6" d="M165.16,75.63c-.08-.13-.07-.34.05-.66l.62-1.73h2.47l.76,2.13c.07.2.09.32.06.38-.08.12-.54.14-.68.14h-.13v.35h2.89v-.34h-.13c-.61-.07-.7-.16-1-.97l-2.01-5.51c-.26-.7-.3-.85-.38-1.2l-.03-.11h-.24l-.04.05c-.15.19-.44.33-.67.38l-.16.04.23.58-2.04,5.66c-.31.82-.62,1.01-1.05,1.07l-.12.02v.34h2.49v-.34h-.13c-.42-.04-.66-.12-.75-.26ZM166,72.77l1.06-2.97,1.06,2.97h-2.12Z"/>
      <path class="cls-6" d="M180.62,68.32h-2.86v.34h.13c1.06.07,1.2.26,1.2.96v4.63l-4.23-5.87-.04-.06h-1.96v.34h.13c.73.07.9.25.9.96v5.31c0,.72-.17.89-.9.95h-.13v.35h2.86v-.34h-.13c-1.05-.07-1.19-.25-1.19-.96v-5.31l4.87,6.67.04.06h.28v-6.72c0-.71.17-.89.9-.95h.13v-.35Z"/>
      <path class="cls-6" d="M188.92,68.23l-.14.03c-.19.04-.55.06-.98.06h-3.86c-.44,0-.8-.02-.99-.06l-.14-.03-.42,2.1h.34l.03-.09c.53-1.3.87-1.48,1.93-1.48h.63v6.73c0,.27,0,.35-.74.4h-.13v.35h2.83v-.34h-.13c-.74-.05-.74-.13-.74-.4v-6.73h.63c1.06,0,1.4.17,1.93,1.48l.03.09h.35l-.42-2.05v-.05Z"/>
      <path class="cls-6" d="M196.35,74.93l-2-5.51c-.25-.67-.3-.84-.38-1.2l-.03-.11h-.24l-.04.05c-.15.19-.44.33-.67.38l-.16.04.23.58-2.04,5.66c-.31.82-.62,1.01-1.05,1.07l-.12.02v.34h2.5v-.34h-.13c-.41-.04-.66-.12-.76-.26-.08-.13-.07-.34.05-.66l.62-1.73h2.47l.76,2.13c.07.2.09.32.06.38-.08.12-.54.14-.68.14h-.13v.35h2.89v-.34h-.13c-.61-.07-.7-.16-1-.97ZM194.42,72.77h-2.12l1.06-2.97,1.06,2.97Z"/>
      <path class="cls-6" d="M205.93,75.89c-.44-.04-.82-.39-1.42-1.3l-1.53-2.29c.86-.25,1.86-.8,1.86-2.01,0-.9-.53-1.97-3.07-1.97h-2.54v.34h.13c.74.06.74.13.74.39v6.44c0,.27,0,.35-.74.4h-.13v.35h2.96v-.34h-.13c-.87-.05-.87-.14-.87-.4v-3.03h.46c.19,0,.26,0,.48.37l1.44,2.31c.6.98,1.02,1.15,1.67,1.15.21,0,.51-.02.7-.04l.12-.02v-.33h-.13ZM201.7,72.02h-.51v-3.26h.4c.97,0,2.13.29,2.13,1.68,0,.98-.77,1.58-2.01,1.58Z"/>
      <path class="cls-6" d="M48.65,97.18c0,2.29,1.59,3.95,3.79,3.95,1.6,0,2.92-.89,3.62-2.44l.06-.13-.36-.14-.06.11c-.62,1.23-1.64,1.93-2.8,1.93-1.83,0-3.05-1.46-3.05-3.64,0-1.94,1.2-3.36,2.85-3.36,1.32,0,2.33.75,2.84,2.12l.03.09h.33l-.28-2.44-.02-.12h-.33l-.02.12c-.04.34-.11.34-.13.34-.04,0-.14-.05-.25-.09h-.02c-.37-.17-1.05-.48-2.16-.48-2.27,0-4.06,1.84-4.06,4.18Z"/>
      <path class="cls-6" d="M62.22,93c-2.32,0-4,1.75-4,4.16s1.62,3.97,3.86,3.97c2.35,0,4.06-1.75,4.06-4.16s-1.64-3.97-3.91-3.97ZM64.93,97.26c0,2.01-1.09,3.41-2.66,3.41s-2.84-1.64-2.84-3.81c0-2.01,1.08-3.41,2.62-3.41,1.64,0,2.88,1.64,2.88,3.81Z"/>
      <path class="cls-6" d="M68.17,100.78v.24h5.59l.65-2.14h-.36l-.04.07c-.67,1.28-1.16,1.62-2.38,1.62h-2.08l4.49-7.2.02-.03v-.24h-4.24c-.43,0-.78-.02-.98-.06l-.14-.03-.42,2.04v.06s.34,0,.34,0l.03-.09c.52-1.26.98-1.48,2.12-1.48h1.89l-4.48,7.2-.02.04Z"/>
      <path class="cls-6" d="M76.46,100.67h-.13v.35h2.9v-.34h-.13c-.77-.05-.77-.13-.77-.4v-6.42c0-.27,0-.35.77-.4h.13v-.35h-2.9v.34h.13c.77.05.77.13.77.4v6.42c0,.27,0,.35-.77.4Z"/>
      <path class="cls-6" d="M84.14,100.68h-.13c-1.05-.07-1.19-.25-1.19-.96v-5.31l4.87,6.67.04.06h.29v-6.72c0-.71.17-.89.9-.95h.13v-.35h-2.86v.34h.13c1.06.07,1.2.26,1.2.96v4.63l-4.23-5.87-.04-.06h-1.96v.34h.13c.73.07.9.25.9.96v5.31c0,.71-.17.89-.9.95h-.13v.35h2.86v-.34Z"/>
      <path class="cls-6" d="M93.76,93.46h.13v-.35h-2.83v.34h.13c.74.05.74.13.74.4v6.42c0,.27,0,.35-.74.4h-.13v.35h2.83v-.34h-.13c-.74-.05-.74-.13-.74-.4v-3.03h3.94v3.03c0,.27,0,.35-.74.4h-.13v.35h2.83v-.34h-.13c-.74-.05-.74-.13-.74-.4v-6.42c0-.27,0-.35.74-.4h.13v-.35h-2.83v.34h.13c.74.05.74.13.74.4v2.92h-3.94v-2.92c0-.27,0-.35.74-.4Z"/>
      <path class="cls-6" d="M100.71,100.69v.34h2.49v-.34h-.13c-.41-.04-.66-.12-.75-.26-.08-.13-.07-.34.05-.66l.62-1.73h2.47l.76,2.13c.07.2.09.32.06.38-.08.12-.54.14-.68.14h-.13v.35h2.89v-.34h-.13c-.61-.07-.7-.16-1-.97l-2.01-5.51c-.26-.71-.3-.85-.38-1.2l-.03-.11h-.24l-.04.05c-.15.19-.44.33-.67.38l-.16.04.23.58-2.04,5.66c-.31.82-.62,1.01-1.05,1.07l-.12.02ZM103.16,97.56l1.06-2.97,1.06,2.97h-2.12Z"/>
      <path class="cls-6" d="M54.49,123.74l.02-.06h-.35l-.04.08c-.66,1.27-1.12,1.62-2.13,1.62h-1.16c-.25,0-.33-.07-.33-.29v-6.43c0-.27,0-.35.74-.4h.13v-.35h-2.83v.34h.13c.74.05.74.13.74.4v6.42c0,.26,0,.35-.74.4h-.13v.35h5.33l.62-2.07Z"/>
      <path class="cls-6" d="M56.07,125.46l-.12.02v.34h2.49v-.34h-.13c-.41-.04-.66-.12-.75-.26-.08-.13-.07-.34.05-.66l.62-1.73h2.47l.76,2.13c.07.2.09.32.06.38-.08.12-.54.14-.68.14h-.13v.35h2.89v-.34h-.13c-.61-.07-.7-.16-1-.97l-2.01-5.51c-.26-.71-.3-.85-.38-1.2l-.03-.11h-.24l-.04.05c-.15.19-.45.33-.67.38l-.16.04.23.58-2.04,5.66c-.31.82-.62,1.01-1.05,1.07ZM58.39,122.34l1.06-2.97,1.06,2.97h-2.12Z"/>
      <path class="cls-6" d="M66.48,118.24h.13v-.35h-2.89v.34h.13c.62.07.73.17,1.04.97l2.46,6.62.03.09h.33l2.46-6.61c.31-.79.53-1.01,1.11-1.07h.12v-.35h-2.63v.34h.13c.46.04.75.12.84.27.08.12.06.32-.07.65l-1.83,4.96-1.96-5.35c-.06-.15-.11-.32-.07-.38.08-.11.52-.13.67-.14Z"/>
      <path class="cls-6" d="M71.68,125.46l-.12.02v.34h2.49v-.34h-.13c-.41-.04-.66-.12-.75-.26-.08-.13-.07-.34.05-.66l.62-1.73h2.47l.76,2.13c.07.2.09.32.06.38-.08.12-.54.14-.68.14h-.13v.35h2.89v-.34h-.13c-.61-.07-.7-.16-1-.97l-2.01-5.51c-.26-.71-.3-.85-.38-1.2l-.03-.11h-.24l-.04.05c-.15.19-.45.33-.67.38l-.16.04.23.58-2.04,5.66c-.31.82-.62,1.01-1.05,1.07ZM74.01,122.34l1.06-2.97,1.06,2.97h-2.12Z"/>
      <path class="cls-6" d="M86.8,123.5c0-1.33-1.04-1.82-1.77-2,.54-.22,1.29-.71,1.29-1.72,0-1.2-1-1.89-2.74-1.89h-2.63v.34h.13c.74.05.74.13.74.4v6.42c0,.27,0,.35-.74.4h-.13v.35h2.73c1.87,0,3.12-.93,3.12-2.31ZM82.9,121.81h.65c1.32,0,2.11.67,2.11,1.79s-.76,1.76-2.04,1.76c-.71,0-.71-.09-.71-.33v-3.22ZM82.9,121.36v-3.03h.57c1.13,0,1.77.57,1.77,1.56,0,.93-.66,1.47-1.81,1.47h-.53Z"/>
      <path class="cls-6" d="M93.12,117.78c-2.32,0-4,1.75-4,4.16s1.62,3.97,3.86,3.97c2.35,0,4.06-1.75,4.06-4.16s-1.64-3.97-3.91-3.97ZM95.82,122.05c0,2.01-1.1,3.41-2.66,3.41s-2.84-1.64-2.84-3.81c0-2.01,1.08-3.41,2.62-3.41,1.64,0,2.88,1.64,2.88,3.81Z"/>
      <path class="cls-6" d="M105.85,125.48c-.99,0-1.69-.64-2.14-1.96l-.03-.09h-.34l.26,2.27.02.12h.32l.02-.11c.03-.13.05-.15.06-.15.04,0,.17.04.29.08.34.11.86.29,1.54.29,1.45,0,2.54-1.01,2.54-2.36,0-.97-.59-1.7-1.8-2.21l-.62-.26c-1.17-.49-1.41-.99-1.41-1.58,0-.95.73-1.29,1.35-1.29.81,0,1.47.62,1.86,1.75l.03.09h.33l-.22-2.13v-.04h-.33l-.02.11c-.03.13-.04.15-.05.15-.04,0-.16-.05-.27-.09-.29-.11-.73-.28-1.33-.28-1.26,0-2.22.95-2.22,2.21,0,.93.59,1.65,1.74,2.14l.62.26c1.01.42,1.46.92,1.46,1.61,0,.89-.66,1.47-1.68,1.47Z"/>
      <path class="cls-6" d="M110.77,121.95c0,2.3,1.62,3.97,3.86,3.97,2.35,0,4.06-1.75,4.06-4.16s-1.64-3.97-3.91-3.97-4,1.75-4,4.16ZM111.98,121.65c0-2.01,1.08-3.41,2.62-3.41,1.64,0,2.88,1.64,2.88,3.81,0,2.01-1.09,3.41-2.66,3.41s-2.84-1.64-2.84-3.81Z"/>
      <path class="cls-6" d="M124.86,125.92c1.6,0,2.92-.89,3.62-2.44l.06-.13-.36-.14-.06.11c-.62,1.23-1.64,1.93-2.8,1.93-1.83,0-3.05-1.46-3.05-3.64,0-1.94,1.2-3.36,2.85-3.36,1.32,0,2.33.75,2.84,2.12l.03.09h.33l-.28-2.45-.02-.12h-.33l-.02.12c-.04.34-.11.34-.13.34-.04,0-.14-.05-.25-.09h-.02c-.37-.17-1.05-.48-2.16-.48-2.27,0-4.06,1.84-4.06,4.18s1.59,3.95,3.79,3.95Z"/>
      <path class="cls-6" d="M130.68,125.46h-.13v.35h2.9v-.34h-.13c-.77-.05-.77-.13-.77-.4v-6.42c0-.27,0-.35.77-.4h.13v-.35h-2.9v.34h.13c.77.05.77.13.77.4v6.42c0,.27,0,.35-.77.4Z"/>
      <path class="cls-6" d="M136.38,124.39c-.31.82-.62,1.01-1.05,1.07l-.12.02v.34h2.49v-.34h-.13c-.41-.04-.66-.12-.75-.26-.08-.13-.07-.34.05-.66l.62-1.73h2.47l.76,2.13c.07.2.09.32.06.38-.08.12-.54.14-.68.14h-.13v.35h2.89v-.34h-.13c-.61-.07-.7-.16-1-.97l-2.01-5.51c-.26-.71-.3-.85-.38-1.2l-.03-.11h-.24l-.04.05c-.15.19-.45.33-.67.38l-.16.04.23.58-2.04,5.66ZM137.65,122.34l1.06-2.97,1.06,2.97h-2.12Z"/>
      <path class="cls-6" d="M147.29,118.24h.13v-.35h-2.83v.34h.13c.74.05.74.13.74.4v6.42c0,.26,0,.35-.74.4h-.13v.35h5.32l.62-2.07.02-.06h-.35l-.04.08c-.66,1.27-1.12,1.62-2.13,1.62h-1.16c-.25,0-.33-.07-.33-.29v-6.43c0-.27,0-.35.74-.4Z"/>
      <path class="cls-6" d="M54.49,148.52l.02-.06h-.35l-.04.08c-.66,1.27-1.12,1.62-2.13,1.62h-1.16c-.25,0-.33-.07-.33-.29v-6.44c0-.27,0-.35.74-.4h.13v-.35h-2.83v.34h.13c.74.05.74.13.74.4v6.43c0,.26,0,.35-.74.4h-.13v.35h5.32l.62-2.07Z"/>
      <path class="cls-6" d="M55.94,150.6h2.5v-.34h-.13c-.41-.04-.66-.12-.76-.26-.08-.12-.07-.34.05-.66l.62-1.73h2.47l.76,2.13c.07.21.09.32.06.37-.08.12-.54.14-.68.14h-.13v.35h2.89v-.34h-.13c-.61-.07-.7-.16-1-.97l-2-5.51c-.25-.67-.3-.84-.38-1.2l-.03-.11h-.24l-.04.05c-.15.19-.45.33-.67.38l-.16.04.23.58-2.04,5.66c-.31.82-.62,1.01-1.05,1.07l-.12.02v.34ZM58.39,147.13l1.06-2.97,1.06,2.97h-2.12Z"/>
      <path class="cls-6" d="M71.28,143.03h.12v-.35h-2.63v.34h.13c.46.04.75.12.84.27.08.12.06.32-.07.65l-1.83,4.96-1.96-5.35c-.06-.15-.11-.32-.07-.38.08-.11.52-.13.67-.13h.13v-.35h-2.89v.34h.13c.62.07.73.17,1.04.97l2.46,6.62.03.09h.33l2.46-6.61c.31-.79.53-1.01,1.11-1.07Z"/>
      <path class="cls-6" d="M79.19,150.26h-.13c-.61-.07-.7-.16-1-.97l-2-5.51c-.25-.67-.3-.84-.38-1.2l-.03-.11h-.24l-.04.05c-.15.19-.45.33-.67.38l-.16.04.23.58-2.04,5.66c-.31.82-.62,1.01-1.05,1.07l-.12.02v.34h2.5v-.34h-.13c-.41-.04-.66-.12-.76-.26-.08-.12-.07-.34.05-.66l.62-1.73h2.47l.76,2.13c.07.21.09.32.06.37-.08.12-.54.14-.68.14h-.13v.35h2.89v-.34ZM76.13,147.13h-2.12l1.06-2.97,1.06,2.97Z"/>
      <path class="cls-6" d="M83.72,150.25h-.13c-1.05-.07-1.19-.25-1.19-.96v-5.31l4.87,6.67.04.06h.29v-6.72c0-.71.17-.89.9-.95h.13v-.35h-2.86v.34h.13c1.06.07,1.2.26,1.2.96v4.63l-4.23-5.87-.04-.06h-1.96v.34h.13c.73.07.9.25.9.96v5.31c0,.71-.17.89-.9.95h-.13v.35h2.86v-.34Z"/>
      <path class="cls-6" d="M98.2,146.54c0-2.31-1.8-3.87-4.49-3.87h-3.07v.34h.13c.74.05.74.13.74.4v6.43c0,.27,0,.35-.74.4h-.13v.35h2.95c2.67,0,4.6-1.71,4.6-4.06ZM97,146.84c0,1.95-1.35,3.31-3.27,3.31-1.12,0-1.12-.14-1.12-.41v-6.62h.97c2.01,0,3.42,1.53,3.42,3.71Z"/>
      <path class="cls-6" d="M99.69,150.25l-.12.02v.34h2.49v-.34h-.13c-.41-.04-.66-.12-.75-.26-.08-.13-.07-.34.05-.66l.62-1.73h2.47l.76,2.13c.07.2.09.32.06.37-.08.12-.54.14-.68.14h-.13v.35h2.89v-.34h-.13c-.61-.07-.7-.16-1-.97l-2.01-5.51c-.26-.7-.3-.85-.38-1.2l-.03-.11h-.24l-.04.05c-.15.19-.45.33-.67.38l-.16.04.23.58-2.04,5.66c-.31.82-.62,1.01-1.05,1.07ZM102.02,147.13l1.06-2.97,1.06,2.97h-2.12Z"/>
      <path class="cls-6" d="M111.37,146.82c.19,0,.26,0,.48.37l1.44,2.31c.6.98,1.02,1.15,1.67,1.15.21,0,.51-.02.7-.04l.12-.02v-.33h-.13c-.44-.05-.82-.4-1.42-1.31l-1.53-2.29c.86-.25,1.86-.8,1.86-2,0-.9-.53-1.97-3.07-1.97h-2.54v.34h.13c.74.06.74.13.74.39v6.44c0,.27,0,.35-.74.4h-.13v.35h2.96v-.35h-.13c-.87-.05-.87-.14-.87-.4v-3.03h.46ZM111.43,146.38h-.51v-3.26h.4c.97,0,2.13.29,2.13,1.68,0,.98-.77,1.58-2.01,1.58Z"/>
      <path class="cls-6" d="M120.13,143.03h.13v-.35h-2.9v.34h.13c.77.05.77.13.77.4v6.43c0,.27,0,.35-.77.4h-.13v.35h2.9v-.34h-.13c-.77-.05-.77-.13-.77-.4v-6.43c0-.27,0-.35.77-.4Z"/>
      <path class="cls-6" d="M128.52,149.29l-2.01-5.51c-.26-.7-.3-.85-.38-1.2l-.03-.11h-.24l-.04.05c-.15.19-.45.33-.67.38l-.16.04.23.58-2.04,5.66c-.31.82-.62,1.01-1.05,1.07l-.12.02v.34h2.49v-.34h-.13c-.41-.04-.66-.12-.75-.26-.08-.13-.07-.34.05-.66l.62-1.73h2.47l.76,2.13c.07.2.09.32.06.37-.08.12-.54.14-.68.14h-.13v.35h2.89v-.34h-.13c-.61-.07-.7-.16-1-.97ZM126.59,147.13h-2.12l1.06-2.97,1.06,2.97Z"/>
      <path class="cls-6" d="M51.09,175.05c-.99,0-1.69-.64-2.14-1.96l-.03-.09h-.34l.26,2.27.02.12h.32l.02-.11c.03-.13.05-.15.06-.15.05,0,.18.05.28.08.32.11.86.29,1.54.29,1.45,0,2.54-1.01,2.54-2.35,0-.97-.59-1.7-1.8-2.21l-.62-.26c-1.17-.49-1.41-.99-1.41-1.58,0-.89.68-1.29,1.35-1.29.81,0,1.47.62,1.86,1.75l.03.09h.33l-.22-2.13v-.04h-.33l-.02.11c-.03.13-.04.15-.05.15-.04,0-.16-.05-.27-.09-.29-.11-.73-.28-1.33-.28-1.26,0-2.22.95-2.22,2.21,0,.93.59,1.65,1.74,2.14l.62.26c1.01.42,1.46.92,1.46,1.61,0,.89-.66,1.47-1.68,1.47Z"/>
      <path class="cls-6" d="M59.5,175.49c1.92,0,2.93-1.04,2.93-3v-3.73c0-.71.17-.89.9-.95h.13v-.35h-2.76v.34h.13c.91.07,1.1.23,1.1.96v3.73c0,1.59-.72,2.4-2.13,2.4s-2.08-.84-2.08-2.42v-4.26c0-.27,0-.35.74-.4h.13v-.35h-2.83v.34h.13c.74.05.74.13.74.4v4.33c0,1.93.99,2.95,2.86,2.95Z"/>
      <path class="cls-6" d="M68.1,167.81h.13v-.35h-2.9v.34h.13c.77.05.77.13.77.4v6.43c0,.27,0,.35-.77.4h-.13v.35h2.9v-.34h-.13c-.77-.05-.77-.13-.77-.4v-6.43c0-.27,0-.35.77-.4Z"/>
      <path class="cls-6" d="M74.75,167.91c1.06,0,1.4.17,1.93,1.48l.03.09h.35l-.4-1.96-.03-.14-.14.03c-.19.04-.55.06-.98.06h-3.86c-.44,0-.8-.02-.99-.06l-.14-.03-.42,2.1h.34l.03-.09c.53-1.3.87-1.48,1.93-1.48h.63v6.73c0,.27,0,.35-.74.4h-.13v.35h2.83v-.34h-.13c-.74-.05-.74-.13-.74-.4v-6.73h.63Z"/>
      <path class="cls-6" d="M85.21,173.27h-.35l-.04.08c-.7,1.35-1.17,1.59-2.11,1.59h-1.46c-.24,0-.33-.08-.33-.29v-3.05h1.3c.86,0,1.03.27,1.2,1.21l.02.12h.33v-3.05h-.33l-.02.12c-.16.89-.35,1.17-1.2,1.17h-1.3v-3.24h1.53c1.1,0,1.47.28,1.96,1.48l.03.09h.35l-.38-1.9-.02-.11h-5.43v.34h.13c.74.05.74.13.74.4v6.43c0,.27,0,.35-.74.4h-.13v.35h5.61l.64-2.12Z"/>
      <polygon class="cls-6" points="94 173.81 94 171.71 96.03 171.71 96.03 171.22 94 171.22 94 169.12 93.49 169.12 93.49 171.22 91.46 171.22 91.46 171.71 93.49 171.71 93.49 173.81 94 173.81"/>
      <path class="cls-6" d="M106.62,175.03h-.13v.35h2.89v-.34h-.13c-.61-.07-.7-.16-1-.97l-2.01-5.51c-.26-.7-.3-.85-.38-1.2l-.03-.11h-.24l-.04.05c-.15.19-.45.33-.67.38l-.16.04.23.58-2.04,5.66c-.31.82-.62,1.01-1.05,1.07l-.12.02v.34h2.49v-.34h-.13c-.41-.04-.66-.12-.75-.26-.08-.13-.07-.34.05-.66l.62-1.73h2.47l.76,2.13c.07.2.09.32.06.37-.08.12-.54.14-.68.14ZM106.31,171.91h-2.12l1.06-2.97,1.06,2.97Z"/>
      <path class="cls-6" d="M117.14,175.42c.21,0,.51-.02.7-.04l.12-.02v-.33h-.13c-.44-.05-.82-.4-1.42-1.31l-1.53-2.29c.86-.25,1.86-.8,1.86-2,0-.9-.53-1.97-3.07-1.97h-2.54v.34h.13c.74.06.74.13.74.39v6.44c0,.27,0,.35-.74.4h-.13v.35h2.96v-.35h-.13c-.87-.05-.87-.14-.87-.4v-3.03h.46c.19,0,.26,0,.48.37l1.44,2.31c.6.98,1.02,1.15,1.67,1.15ZM113.6,171.17h-.51v-3.26h.4c.97,0,2.13.29,2.13,1.68,0,.98-.77,1.58-2.01,1.58Z"/>
      <path class="cls-6" d="M126.58,174.64c0,.28-.02.35-.73.39h-.13v.35h2.82v-.34h-.13c-.72-.05-.72-.13-.73-.41l-.13-6.43c0-.28.02-.35.73-.39h.13v-.35h-2.14l-.02.12c-.03.2-.17.65-.39,1.24l-1.78,4.79-1.86-5c-.16-.4-.28-.76-.38-1.05l-.03-.1h-2.27v.34h.13c.76.07.91.15.9.86l-.13,5.42c0,.73-.17.89-.9.95h-.13v.35h2.72v-.34h-.13c-.9-.07-1.07-.23-1.05-.96l.12-5.4,2.49,6.61.03.09h.33l2.53-6.7.12,5.95Z"/>
      <path class="cls-6" d="M135.16,175.03h-.13v.35h2.89v-.34h-.13c-.61-.07-.7-.16-1-.97l-2-5.51c-.25-.67-.3-.84-.38-1.2l-.03-.11h-.24l-.04.05c-.15.19-.45.33-.67.38l-.16.04.23.58-2.04,5.66c-.31.82-.62,1.01-1.05,1.07l-.12.02v.34h2.5v-.34h-.13c-.41-.04-.66-.12-.76-.26-.08-.12-.07-.34.05-.66l.62-1.73h2.47l.76,2.13c.07.21.09.32.06.37-.08.12-.54.14-.68.14ZM134.85,171.91h-2.12l1.06-2.97,1.06,2.97Z"/>
      <path class="cls-6" d="M135.23,165.79l.12-.11c.09-.08.19-.22.19-.39,0-.28-.22-.5-.5-.5-.21,0-.36.1-.47.32l-.06.1c-.17.31-.63,1.14-.89,1.55l-.07.1.26.21.09-.09c.35-.35,1.03-.94,1.33-1.2Z"/>
      <path class="cls-6" d="M146.37,175.38l.12-.02v-.33h-.13c-.44-.05-.82-.4-1.42-1.31l-1.53-2.29c.86-.25,1.86-.8,1.86-2,0-.9-.53-1.97-3.07-1.97h-2.54v.34h.13c.74.06.74.13.74.39v6.44c0,.27,0,.35-.74.4h-.13v.35h2.96v-.35h-.13c-.87-.05-.87-.14-.87-.4v-3.03h.46c.19,0,.26,0,.48.37l1.44,2.31c.6.98,1.02,1.15,1.67,1.15.21,0,.51-.02.7-.04ZM142.14,171.17h-.51v-3.26h.4c.97,0,2.13.29,2.13,1.68,0,.98-.77,1.58-2.01,1.58Z"/>
      <path class="cls-6" d="M150.84,167.81h.13v-.35h-2.9v.34h.13c.77.05.77.13.77.4v6.43c0,.27,0,.35-.77.4h-.13v.35h2.9v-.34h-.13c-.77-.05-.77-.13-.77-.4v-6.43c0-.27,0-.35.77-.4Z"/>
      <path class="cls-6" d="M160.95,171.33c0-2.3-1.64-3.97-3.91-3.97s-4,1.75-4,4.16,1.62,3.97,3.86,3.97c2.35,0,4.06-1.75,4.06-4.16ZM159.75,171.62c0,2.01-1.09,3.41-2.66,3.41s-2.84-1.64-2.84-3.81c0-2.01,1.08-3.41,2.62-3.41,1.64,0,2.88,1.64,2.88,3.81Z"/>
      <path class="cls-6" d="M55.7,197.67c-.62,1.23-1.64,1.93-2.8,1.93-1.83,0-3.05-1.46-3.05-3.64,0-1.94,1.2-3.36,2.85-3.36,1.32,0,2.33.75,2.84,2.12l.03.09h.33l-.28-2.44-.02-.12h-.33l-.02.12c-.04.34-.11.34-.13.34-.04,0-.14-.05-.25-.09h-.02c-.37-.17-1.05-.48-2.16-.48-2.27,0-4.06,1.84-4.06,4.18s1.59,3.95,3.79,3.95c1.6,0,2.92-.89,3.62-2.44l.06-.13-.36-.14-.06.11Z"/>
      <path class="cls-6" d="M62.31,199.82h-.13v.35h2.89v-.34h-.13c-.61-.07-.7-.16-1-.97l-2-5.51c-.25-.69-.3-.84-.38-1.2l-.03-.11h-.24l-.04.05c-.15.19-.45.33-.67.38l-.16.04.23.58-2.04,5.66c-.31.82-.62,1.01-1.05,1.07l-.12.02v.34h2.5v-.34h-.13c-.41-.04-.66-.12-.76-.26-.08-.12-.07-.34.05-.66l.62-1.73h2.47l.76,2.13c.07.21.09.32.06.37-.08.12-.54.14-.68.14ZM62,196.7h-2.12l1.06-2.97,1.06,2.97Z"/>
      <path class="cls-6" d="M71.92,197.92c0-.97-.59-1.7-1.8-2.21l-.62-.26c-1.17-.49-1.41-.99-1.41-1.58,0-.89.68-1.29,1.35-1.29.81,0,1.47.62,1.86,1.75l.03.09h.33l-.22-2.13v-.04h-.33l-.02.11c-.03.13-.04.15-.05.15-.04,0-.16-.05-.27-.09-.29-.11-.73-.28-1.33-.28-1.26,0-2.22.95-2.22,2.21,0,.93.59,1.65,1.74,2.14l.62.26c1.01.42,1.46.92,1.46,1.61,0,.89-.66,1.47-1.68,1.47s-1.69-.64-2.14-1.96l-.03-.09h-.34l.26,2.27.02.12h.32l.02-.11c.03-.13.05-.15.06-.15.04,0,.15.04.26.07h.02c.32.12.86.29,1.54.29,1.45,0,2.54-1.01,2.54-2.36Z"/>
      <path class="cls-6" d="M81.23,199.83h-.13c-.61-.07-.7-.16-1-.97l-2-5.51c-.25-.69-.3-.84-.38-1.2l-.03-.11h-.24l-.04.05c-.15.19-.45.33-.67.38l-.16.04.23.58-2.04,5.66c-.31.82-.62,1.01-1.05,1.07l-.12.02v.34h2.5v-.34h-.13c-.41-.04-.66-.12-.76-.26-.08-.12-.07-.34.05-.66l.62-1.73h2.47l.76,2.13c.07.21.09.32.06.37-.08.12-.54.14-.68.14h-.13v.35h2.89v-.34ZM78.16,196.7h-2.12l1.06-2.97,1.06,2.97Z"/>
      <path class="cls-6" d="M86.76,199.82h-.13v.35h2.95c2.67,0,4.6-1.71,4.6-4.06s-1.8-3.87-4.49-3.87h-3.07v.34h.13c.74.05.74.13.74.4v6.42c0,.27,0,.35-.74.4ZM88.59,199.32v-6.62h.97c2.01,0,3.42,1.53,3.42,3.71,0,1.95-1.35,3.31-3.27,3.31-1.12,0-1.12-.14-1.12-.41Z"/>
      <path class="cls-6" d="M102.51,198.05h-.35l-.04.08c-.7,1.35-1.16,1.59-2.11,1.59h-1.46c-.24,0-.33-.08-.33-.29v-3.05h1.3c.86,0,1.03.27,1.2,1.21l.02.12h.33v-3.05h-.33l-.02.12c-.16.89-.35,1.17-1.2,1.17h-1.3v-3.24h1.53c1.1,0,1.47.28,1.96,1.48l.03.09h.35l-.38-1.9-.02-.11h-5.43v.34h.13c.74.05.74.13.74.4v6.42c0,.27,0,.35-.74.4h-.13v.35h5.61l.64-2.12Z"/>
      <path class="cls-6" d="M113.85,194.14c0-1.2-1-1.89-2.74-1.89h-2.63v.34h.13c.74.05.74.13.74.4v6.42c0,.27,0,.35-.74.4h-.13v.35h2.73c1.87,0,3.12-.93,3.12-2.31s-1.04-1.82-1.77-2c.54-.22,1.29-.71,1.29-1.72ZM110.44,195.72v-3.03h.57c1.13,0,1.77.57,1.77,1.56,0,.93-.66,1.47-1.81,1.47h-.53ZM110.44,196.17h.65c1.32,0,2.11.67,2.11,1.79s-.76,1.76-2.04,1.76c-.71,0-.71-.09-.71-.33v-3.22Z"/>
      <path class="cls-6" d="M122.32,198.86l-2-5.51c-.25-.69-.3-.84-.38-1.2l-.03-.11h-.24l-.04.05c-.15.19-.45.33-.67.38l-.16.04.23.58-2.04,5.66c-.31.82-.62,1.01-1.05,1.07l-.12.02v.34h2.5v-.34h-.13c-.41-.04-.66-.12-.76-.26-.08-.12-.07-.34.05-.66l.62-1.73h2.47l.76,2.13c.07.21.09.32.06.37-.08.12-.54.14-.68.14h-.13v.35h2.89v-.34h-.13c-.61-.07-.7-.16-1-.97ZM120.38,196.7h-2.12l1.06-2.97,1.06,2.97Z"/>
      <path class="cls-6" d="M130.02,192.59h.13c1.06.07,1.2.26,1.2.96v4.63l-4.23-5.87-.04-.06h-1.96v.34h.13c.73.07.9.25.9.96v5.31c0,.71-.17.89-.9.95h-.13v.35h2.86v-.34h-.13c-1.05-.07-1.19-.25-1.19-.96v-5.31l4.87,6.67.04.06h.28v-6.72c0-.71.17-.89.9-.95h.13v-.35h-2.86v.34Z"/>
      <path class="cls-6" d="M139.93,192.59h.13c.74.05.74.13.74.4v2.92h-3.94v-2.92c0-.27,0-.35.74-.4h.13v-.35h-2.83v.34h.13c.74.05.74.13.74.4v6.42c0,.27,0,.35-.74.4h-.13v.35h2.83v-.34h-.13c-.74-.05-.74-.13-.74-.4v-3.03h3.94v3.03c0,.27,0,.35-.74.4h-.13v.35h2.83v-.34h-.13c-.74-.05-.74-.13-.74-.4v-6.42c0-.27,0-.35.74-.4h.13v-.35h-2.83v.34Z"/>
      <path class="cls-6" d="M148.87,192.14c-2.32,0-4,1.75-4,4.16s1.62,3.97,3.86,3.97c2.35,0,4.06-1.75,4.06-4.16s-1.64-3.97-3.91-3.97ZM151.57,196.41c0,2.01-1.1,3.41-2.66,3.41s-2.84-1.64-2.84-3.81c0-2.01,1.08-3.41,2.62-3.41,1.64,0,2.88,1.64,2.88,3.81Z"/>
      <path class="cls-6" d="M162.35,195.71l-.62-.26c-1.17-.49-1.41-.99-1.41-1.58,0-.95.73-1.29,1.35-1.29.81,0,1.47.62,1.86,1.75l.03.09h.33l-.22-2.13v-.04h-.33l-.02.11c-.03.13-.04.15-.05.15-.04,0-.16-.05-.27-.09-.29-.11-.73-.28-1.33-.28-1.26,0-2.22.95-2.22,2.21,0,.93.59,1.65,1.74,2.14l.62.26c1.01.42,1.46.92,1.46,1.61,0,.89-.66,1.47-1.68,1.47s-1.69-.64-2.14-1.96l-.03-.09h-.34l.26,2.27.02.12h.32l.02-.11c.03-.13.05-.15.06-.15.04,0,.17.04.29.08.34.11.86.29,1.54.29,1.45,0,2.54-1.01,2.54-2.36,0-.97-.59-1.7-1.8-2.21Z"/>
      <path class="cls-6" d="M171.22,192.59h.13c.91.07,1.1.23,1.1.96v3.73c0,1.59-.72,2.4-2.13,2.4s-2.08-.84-2.08-2.42v-4.26c0-.27,0-.35.74-.4h.13v-.35h-2.83v.34h.13c.74.05.74.13.74.4v4.32c0,1.93.99,2.95,2.86,2.95s2.93-1.04,2.93-3v-3.73c0-.71.17-.89.9-.95h.13v-.35h-2.76v.34Z"/>
      <path class="cls-6" d="M175.84,192.59h.13c.77.05.77.13.77.4v6.42c0,.27,0,.35-.77.4h-.13v.35h2.9v-.34h-.13c-.77-.05-.77-.13-.77-.4v-6.42c0-.27,0-.35.77-.4h.13v-.35h-2.9v.34Z"/>
      <path class="cls-6" d="M187.14,192.16l-.14.03c-.2.04-.55.06-.98.06h-3.86c-.43,0-.8-.02-.99-.06l-.14-.03-.42,2.1h.34l.03-.09c.53-1.3.87-1.48,1.93-1.48h.63v6.73c0,.27,0,.35-.74.4h-.13v.35h2.83v-.34h-.13c-.74-.05-.74-.13-.74-.4v-6.73h.63c1.06,0,1.4.17,1.93,1.48l.03.09h.35l-.42-2.05v-.05Z"/>
      <path class="cls-6" d="M195.33,198.13c-.7,1.35-1.16,1.59-2.11,1.59h-1.46c-.24,0-.33-.08-.33-.29v-3.05h1.3c.86,0,1.03.27,1.2,1.21l.02.12h.33v-3.05h-.33l-.02.12c-.16.89-.35,1.17-1.2,1.17h-1.3v-3.24h1.53c1.1,0,1.47.28,1.96,1.48l.03.09h.35l-.38-1.9-.02-.11h-5.43v.34h.13c.74.05.74.13.74.4v6.42c0,.27,0,.35-.74.4h-.13v.35h5.61l.64-2.12h-.35l-.04.08Z"/>
      <path class="cls-6" d="M55.7,222.45c-.62,1.23-1.64,1.93-2.8,1.93-1.83,0-3.05-1.46-3.05-3.64,0-1.94,1.2-3.36,2.85-3.36,1.32,0,2.33.75,2.84,2.12l.03.09h.33l-.28-2.44-.02-.12h-.33l-.02.12c-.04.34-.11.34-.13.34-.04,0-.14-.05-.25-.09h-.02c-.37-.17-1.05-.48-2.16-.48-2.27,0-4.06,1.84-4.06,4.18s1.59,3.95,3.79,3.95c1.6,0,2.92-.89,3.62-2.44l.06-.13-.36-.14-.06.11Z"/>
      <path class="cls-6" d="M60.9,217.38h.13v-.35h-2.9v.34h.13c.77.05.77.13.77.4v6.42c0,.27,0,.35-.77.4h-.13v.35h2.9v-.34h-.13c-.77-.05-.77-.13-.77-.4v-6.42c0-.27,0-.35.77-.4Z"/>
      <path class="cls-6" d="M65.57,221.17c.19,0,.26,0,.48.37l1.44,2.31c.6.98,1.02,1.15,1.67,1.15.22,0,.53-.02.7-.04l.12-.02v-.33h-.13c-.44-.05-.82-.4-1.42-1.31l-1.53-2.29c.86-.25,1.86-.8,1.86-2.01,0-.9-.53-1.97-3.07-1.97h-2.54v.34h.13c.74.06.74.13.74.39v6.43c0,.27,0,.35-.74.4h-.13v.35h2.96v-.35h-.13c-.87-.05-.87-.14-.87-.4v-3.03h.46ZM65.63,220.74h-.51v-3.26h.4c.97,0,2.13.29,2.13,1.68,0,.98-.77,1.58-2.01,1.58Z"/>
      <path class="cls-6" d="M75.19,225.06c1.6,0,2.92-.89,3.62-2.44l.06-.13-.36-.14-.06.11c-.62,1.23-1.64,1.93-2.8,1.93-1.83,0-3.05-1.46-3.05-3.64,0-1.94,1.2-3.36,2.85-3.36,1.32,0,2.33.75,2.84,2.12l.03.09h.33l-.28-2.44-.02-.12h-.33l-.02.12c-.04.34-.11.34-.13.34-.04,0-.14-.05-.25-.09h-.02c-.37-.17-1.05-.48-2.16-.48-2.27,0-4.06,1.84-4.06,4.18s1.59,3.95,3.79,3.95Z"/>
      <path class="cls-6" d="M87.47,222.06v-3.73c0-.71.17-.89.9-.95h.13v-.35h-2.76v.34h.13c.91.07,1.1.23,1.1.96v3.73c0,1.59-.72,2.4-2.13,2.4s-2.08-.84-2.08-2.42v-4.26c0-.27,0-.35.74-.4h.13v-.35h-2.83v.34h.13c.74.05.74.13.74.4v4.32c0,1.93.99,2.95,2.86,2.95s2.93-1.04,2.93-3Z"/>
      <path class="cls-6" d="M96.34,222.88l.02-.06h-.35l-.04.08c-.66,1.27-1.12,1.62-2.13,1.62h-1.16c-.25,0-.33-.07-.33-.29v-6.43c0-.27,0-.35.74-.4h.13v-.35h-2.83v.34h.13c.74.05.74.13.74.4v6.42c0,.26,0,.35-.74.4h-.13v.35h5.32l.62-2.07Z"/>
      <path class="cls-6" d="M102.67,224.6h-.13v.35h2.89v-.34h-.13c-.61-.07-.7-.16-1-.97l-2-5.51c-.25-.69-.3-.84-.38-1.2l-.03-.11h-.24l-.04.05c-.15.19-.45.33-.67.38l-.16.04.23.58-2.04,5.66c-.31.82-.62,1.01-1.05,1.07l-.12.02v.34h2.5v-.34h-.13c-.41-.04-.66-.12-.76-.26-.08-.12-.07-.34.05-.66l.62-1.73h2.47l.76,2.13c.07.21.09.32.06.37-.08.12-.54.14-.68.14ZM102.36,221.48h-2.12l1.06-2.97,1.06,2.97Z"/>
      <path class="cls-6" d="M113.94,222.45c-.62,1.23-1.64,1.93-2.8,1.93-1.83,0-3.05-1.46-3.05-3.64,0-1.94,1.2-3.36,2.85-3.36,1.32,0,2.33.75,2.84,2.12l.03.09h.33l-.28-2.45-.02-.12h-.33l-.02.12c-.04.34-.11.34-.13.34-.04,0-.14-.05-.25-.09h-.02c-.37-.17-1.05-.48-2.16-.48-2.27,0-4.06,1.84-4.06,4.18,0,2.18,1.49,3.83,3.54,3.94l-.39.81.16.15.07-.02c.17-.03.28-.05.39-.05.3,0,.51.18.51.45,0,.23-.2.4-.47.4-.25,0-.51-.11-.67-.22l-.13-.09-.15.3.08.07c.21.19.47.37.92.37.66,0,1.17-.44,1.17-1.01s-.43-.95-1.08-.95c-.02,0-.04,0-.06,0l.11-.22c1.5-.07,2.75-.96,3.42-2.44l.06-.13-.36-.14-.06.11Z"/>
      <path class="cls-6" d="M118.61,215.96c.2,0,.47.11.76.24.33.14.66.28.98.28.53,0,.92-.45,1.02-1.17l.02-.13-.31-.05-.04.12c-.1.29-.3.47-.54.47-.2,0-.47-.11-.76-.24-.33-.14-.66-.28-.98-.28-.53,0-.92.45-1.02,1.17l-.02.13.31.05.04-.11c.1-.29.3-.47.54-.47Z"/>
      <path class="cls-6" d="M122.17,223.64l-2.01-5.51c-.26-.71-.3-.85-.38-1.2l-.03-.11h-.24l-.04.05c-.15.19-.45.33-.67.38l-.16.04.23.58-2.04,5.66c-.31.82-.62,1.01-1.05,1.07l-.12.02v.34h2.49v-.34h-.13c-.41-.04-.66-.12-.75-.26-.08-.13-.07-.34.05-.66l.62-1.73h2.47l.76,2.13c.07.2.09.32.06.38-.08.12-.54.14-.68.14h-.13v.35h2.89v-.34h-.13c-.61-.07-.7-.16-1-.97ZM120.23,221.48h-2.12l1.06-2.97,1.06,2.97Z"/>
      <path class="cls-6" d="M128.76,216.93c-2.32,0-4,1.75-4,4.16s1.62,3.97,3.86,3.97c2.35,0,4.06-1.75,4.06-4.16s-1.64-3.97-3.91-3.97ZM131.46,221.19c0,2.01-1.1,3.41-2.66,3.41s-2.84-1.64-2.84-3.81c0-2.01,1.08-3.41,2.62-3.41,1.64,0,2.88,1.64,2.88,3.81Z"/>
      <path class="cls-6" d="M53.48,242.16h.13c.46.04.75.12.84.27.08.12.06.32-.07.65l-1.83,4.96-1.96-5.35c-.06-.15-.11-.32-.07-.38.08-.11.52-.13.67-.14h.13v-.35h-2.89v.34h.13c.62.07.73.17,1.04.97l2.46,6.62.03.09h.33l2.46-6.61c.31-.79.53-1.01,1.11-1.07h.12v-.35h-2.63v.34Z"/>
      <path class="cls-6" d="M62.77,248.43l-2.01-5.51c-.26-.71-.3-.85-.38-1.2l-.03-.11h-.24l-.04.05c-.15.19-.45.33-.67.38l-.16.04.23.58-2.04,5.66c-.31.82-.62,1.01-1.05,1.07l-.12.02v.34h2.49v-.34h-.13c-.41-.04-.66-.12-.75-.26-.08-.13-.07-.34.05-.66l.62-1.73h2.47l.76,2.13c.07.2.09.32.06.38-.08.12-.54.14-.68.14h-.13v.35h2.89v-.34h-.13c-.61-.07-.7-.16-1-.97ZM60.83,246.27h-2.12l1.06-2.97,1.06,2.97Z"/>
      <path class="cls-6" d="M70.94,248.08l-1.53-2.29c.86-.25,1.86-.8,1.86-2.01,0-.9-.53-1.97-3.07-1.97h-2.54v.34h.13c.74.06.74.13.74.39v6.43c0,.27,0,.35-.74.4h-.13v.35h2.96v-.35h-.13c-.87-.05-.87-.14-.87-.4v-3.03h.46c.19,0,.26,0,.48.37l1.44,2.31c.6.98,1.02,1.15,1.67,1.15.23,0,.53-.02.7-.04h.12v-.34h-.13c-.44-.05-.82-.4-1.42-1.31ZM68.12,245.52h-.51v-3.26h.4c.97,0,2.13.29,2.13,1.68,0,.98-.77,1.58-2.01,1.58Z"/>
      <path class="cls-6" d="M80.22,248.43l-2-5.51c-.25-.69-.3-.84-.38-1.2l-.03-.11h-.24l-.04.05c-.15.19-.45.33-.67.38l-.16.04.23.58-2.04,5.66c-.31.82-.62,1.01-1.05,1.07l-.12.02v.34h2.5v-.34h-.13c-.41-.04-.66-.12-.76-.26-.08-.12-.07-.34.05-.66l.62-1.73h2.47l.76,2.13c.07.21.09.32.06.37-.08.12-.54.14-.68.14h-.13v.35h2.89v-.34h-.13c-.61-.07-.7-.16-1-.97ZM78.28,246.27h-2.12l1.06-2.97,1.06,2.97Z"/>
      <path class="cls-6" d="M87.92,242.16h.13c1.06.07,1.2.26,1.2.96v4.63l-4.23-5.87-.04-.06h-1.96v.34h.13c.73.07.9.25.9.96v5.31c0,.71-.17.89-.9.95h-.13v.35h2.86v-.34h-.13c-1.05-.07-1.19-.25-1.19-.96v-5.31l4.87,6.67.04.06h.29v-6.72c0-.71.17-.89.9-.95h.13v-.35h-2.86v.34Z"/>
      <path class="cls-6" d="M95.87,241.82h-3.07v.34h.13c.74.05.74.13.74.4v6.42c0,.27,0,.35-.74.4h-.13v.35h2.95c2.67,0,4.6-1.71,4.6-4.06s-1.8-3.87-4.49-3.87ZM99.15,245.98c0,1.95-1.35,3.31-3.27,3.31-1.12,0-1.12-.14-1.12-.41v-6.62h.97c2.01,0,3.42,1.53,3.42,3.71Z"/>
      <path class="cls-6" d="M108.23,248.43l-2.01-5.51c-.26-.71-.3-.85-.38-1.2l-.03-.11h-.24l-.04.05c-.15.19-.45.33-.67.38l-.16.04.23.58-2.04,5.66c-.31.82-.62,1.01-1.05,1.07l-.12.02v.34h2.49v-.34h-.13c-.41-.04-.66-.12-.75-.26-.08-.13-.07-.34.05-.66l.62-1.73h2.47l.76,2.13c.07.2.09.32.06.38-.08.12-.54.14-.68.14h-.13v.35h2.89v-.34h-.13c-.61-.07-.7-.16-1-.97ZM106.3,246.27h-2.12l1.06-2.97,1.06,2.97Z"/>
    </g>
    <g>
      <path class="cls-4" d="M21.94,273.21l-2-5.51c-.25-.67-.3-.84-.38-1.2l-.03-.11h-.24l-.04.05c-.15.19-.45.33-.67.38l-.16.04.23.58-2.04,5.66c-.31.82-.62,1.01-1.05,1.07l-.12.02v.34h2.5v-.34h-.13c-.41-.04-.66-.12-.76-.26-.08-.12-.07-.34.05-.66l.62-1.73h2.47l.76,2.13c.07.21.09.32.06.37-.08.12-.54.14-.68.14h-.13v.35h2.89v-.34h-.13c-.61-.07-.7-.16-1-.97ZM17.88,271.05l1.06-2.97,1.06,2.97h-2.12Z"/>
      <path class="cls-4" d="M19.05,266.13c.35-.35,1.03-.94,1.33-1.2l.12-.11c.09-.08.19-.22.19-.39,0-.28-.22-.5-.5-.5-.21,0-.36.1-.47.32l-.06.1c-.17.31-.63,1.14-.89,1.55l-.07.1.26.21.09-.09Z"/>
      <path class="cls-4" d="M30.1,272.87l-1.53-2.29c.86-.25,1.86-.8,1.86-2,0-.9-.53-1.97-3.07-1.97h-2.54v.34h.13c.74.06.74.13.74.39v6.44c0,.27,0,.35-.74.4h-.13v.35h2.96v-.35h-.13c-.87-.05-.87-.14-.87-.4v-3.03h.46c.19,0,.26,0,.48.37l1.44,2.31c.6.98,1.02,1.15,1.67,1.15.21,0,.51-.02.7-.04l.12-.02v-.33h-.13c-.44-.05-.82-.4-1.42-1.31ZM27.29,270.31h-.51v-3.26h.4c.97,0,2.13.29,2.13,1.68,0,.98-.77,1.58-2.01,1.58Z"/>
      <path class="cls-4" d="M39.11,272.48c-.7,1.35-1.17,1.59-2.11,1.59h-1.46c-.24,0-.33-.08-.33-.29v-3.05h1.3c.86,0,1.03.27,1.2,1.21l.02.12h.33v-3.05h-.33l-.02.12c-.16.89-.35,1.17-1.2,1.17h-1.3v-3.24h1.53c1.1,0,1.47.28,1.96,1.48l.03.09h.35l-.38-1.9-.02-.11h-5.43v.34h.13c.74.05.74.13.74.4v6.43c0,.27,0,.35-.74.4h-.13v.35h5.61l.64-2.12h-.35l-.04.08Z"/>
      <path class="cls-4" d="M47.54,273.21l-2.01-5.51c-.26-.7-.3-.85-.38-1.2l-.03-.11h-.24l-.04.05c-.15.19-.45.33-.67.38l-.16.04.23.58-2.04,5.66c-.31.82-.62,1.01-1.05,1.07l-.12.02v.34h2.49v-.34h-.13c-.41-.04-.66-.12-.75-.26-.08-.13-.07-.34.05-.66l.62-1.73h2.47l.76,2.13c.07.2.09.32.06.37-.08.12-.54.14-.68.14h-.13v.35h2.89v-.34h-.13c-.61-.07-.7-.16-1-.97ZM43.48,271.05l1.06-2.97,1.06,2.97h-2.12Z"/>
      <path class="cls-4" d="M59.92,272.21c0-1.33-1.04-1.82-1.77-2,.54-.22,1.29-.71,1.29-1.72,0-1.2-1-1.89-2.74-1.89h-2.63v.34h.13c.74.05.74.13.74.4v6.43c0,.27,0,.35-.74.4h-.13v.35h2.73c1.87,0,3.12-.93,3.12-2.31ZM56.03,267.05h.57c1.13,0,1.77.57,1.77,1.56,0,.93-.66,1.47-1.81,1.47h-.53v-3.03ZM56.03,273.74v-3.22h.65c1.32,0,2.11.67,2.11,1.79s-.76,1.76-2.04,1.76c-.71,0-.71-.09-.71-.33Z"/>
      <path class="cls-4" d="M64.95,274.18h-.13c-.87-.05-.87-.14-.87-.4v-3.03h.46c.19,0,.26,0,.48.37l1.44,2.31c.6.98,1.02,1.15,1.67,1.15.21,0,.51-.02.7-.04l.12-.02v-.33h-.13c-.44-.05-.82-.4-1.42-1.31l-1.53-2.29c.86-.25,1.86-.8,1.86-2,0-.9-.53-1.97-3.07-1.97h-2.54v.34h.13c.74.06.74.13.74.39v6.44c0,.27,0,.35-.74.4h-.13v.35h2.96v-.35ZM63.96,267.05h.4c.97,0,2.13.29,2.13,1.68,0,.98-.77,1.58-2.01,1.58h-.51v-3.26Z"/>
      <path class="cls-4" d="M77.72,266.95v-.34h-2.76v.34h.13c.91.07,1.1.23,1.1.96v3.73c0,1.59-.72,2.4-2.13,2.4s-2.08-.84-2.08-2.42v-4.26c0-.27,0-.35.74-.4h.13v-.35h-2.83v.34h.13c.74.05.74.13.74.4v4.33c0,1.93.99,2.95,2.86,2.95s2.93-1.04,2.93-3v-3.73c0-.71.17-.89.9-.95h.13Z"/>
      <path class="cls-4" d="M85.89,266.51l-.14.03c-.19.04-.55.06-.98.06h-3.86c-.44,0-.8-.02-.99-.06l-.14-.03-.42,2.1h.34l.03-.09c.53-1.3.87-1.48,1.93-1.48h.63v6.73c0,.27,0,.35-.74.4h-.13v.35h2.83v-.34h-.13c-.74-.05-.74-.13-.74-.4v-6.73h.63c1.06,0,1.4.17,1.93,1.48l.03.09h.35l-.4-1.96-.03-.14Z"/>
      <path class="cls-4" d="M93.33,273.21l-2-5.51c-.25-.67-.3-.84-.38-1.2l-.03-.11h-.24l-.04.05c-.15.19-.45.33-.67.38l-.16.04.23.58-2.04,5.66c-.31.82-.62,1.01-1.05,1.07l-.12.02v.34h2.5v-.34h-.13c-.41-.04-.66-.12-.76-.26-.08-.12-.07-.34.05-.66l.62-1.73h2.47l.76,2.13c.07.21.09.32.06.37-.08.12-.54.14-.68.14h-.13v.35h2.89v-.34h-.13c-.61-.07-.7-.16-1-.97ZM89.27,271.05l1.06-2.97,1.06,2.97h-2.12Z"/>
      <path class="cls-4" d="M102.93,266.6h-3.07v.34h.13c.74.05.74.13.74.4v6.43c0,.27,0,.35-.74.4h-.13v.35h2.95c2.67,0,4.6-1.71,4.6-4.06s-1.8-3.87-4.49-3.87ZM102.94,274.08c-1.12,0-1.12-.14-1.12-.41v-6.62h.97c2.01,0,3.42,1.53,3.42,3.71,0,1.95-1.35,3.31-3.27,3.31Z"/>
      <path class="cls-4" d="M115.35,272.48c-.7,1.35-1.17,1.59-2.11,1.59h-1.46c-.24,0-.33-.08-.33-.29v-3.05h1.3c.86,0,1.03.27,1.2,1.21l.02.12h.33v-3.05h-.33l-.02.12c-.16.89-.35,1.17-1.2,1.17h-1.3v-3.24h1.53c1.1,0,1.47.28,1.96,1.48l.03.09h.35l-.38-1.9-.02-.11h-5.43v.34h.13c.74.05.74.13.74.4v6.43c0,.27,0,.35-.74.4h-.13v.35h5.61l.64-2.12h-.35l-.04.08Z"/>
      <path class="cls-4" d="M128.87,272.02c-.62,1.23-1.64,1.93-2.8,1.93-1.83,0-3.05-1.46-3.05-3.64,0-1.94,1.2-3.36,2.85-3.36,1.32,0,2.33.75,2.84,2.12l.03.09h.33l-.28-2.44-.02-.12h-.33l-.02.12c-.04.34-.11.34-.13.34-.04,0-.14-.05-.25-.09h-.02c-.37-.17-1.05-.47-2.16-.47-2.27,0-4.06,1.84-4.06,4.18s1.59,3.95,3.79,3.95c1.6,0,2.92-.89,3.62-2.44l.06-.13-.36-.14-.06.11Z"/>
      <path class="cls-4" d="M135.39,266.5c-2.32,0-4,1.75-4,4.16s1.62,3.97,3.86,3.97c2.35,0,4.06-1.75,4.06-4.16s-1.64-3.97-3.91-3.97ZM135.43,274.17c-1.62,0-2.84-1.64-2.84-3.81,0-2.01,1.08-3.41,2.62-3.41,1.64,0,2.88,1.64,2.88,3.81,0,2.01-1.1,3.41-2.66,3.41Z"/>
      <path class="cls-4" d="M146.19,266.95h.13c1.06.07,1.2.26,1.2.96v4.63l-4.23-5.87-.04-.06h-1.96v.34h.13c.73.07.9.25.9.96v5.31c0,.71-.17.89-.9.95h-.13v.35h2.86v-.34h-.13c-1.05-.07-1.19-.25-1.19-.96v-5.31l4.87,6.67.04.06h.29v-6.72c0-.71.17-.89.9-.95h.13v-.35h-2.86v.34Z"/>
      <path class="cls-4" d="M154.26,270.07l-.62-.26c-1.17-.49-1.41-.99-1.41-1.58,0-.95.73-1.29,1.35-1.29.81,0,1.47.62,1.86,1.75l.03.09h.33l-.22-2.13v-.04h-.33l-.02.11c-.03.13-.04.15-.05.15-.04,0-.16-.05-.27-.09-.29-.11-.73-.28-1.33-.28-1.26,0-2.22.95-2.22,2.21,0,.93.59,1.65,1.74,2.14l.62.26c1.01.42,1.46.92,1.46,1.61,0,.89-.66,1.47-1.68,1.47s-1.69-.64-2.14-1.96l-.03-.09h-.34l.26,2.27.02.12h.32l.02-.11c.03-.13.05-.15.06-.15.04,0,.17.04.29.08.34.11.86.28,1.54.28,1.45,0,2.54-1.01,2.54-2.35,0-.97-.59-1.7-1.8-2.21Z"/>
      <path class="cls-4" d="M164.52,266.51l-.14.03c-.19.04-.55.06-.98.06h-3.86c-.44,0-.8-.02-.99-.06l-.14-.03-.42,2.1h.34l.03-.09c.53-1.3.87-1.48,1.93-1.48h.63v6.73c0,.27,0,.35-.74.4h-.13v.35h2.83v-.34h-.13c-.74-.05-.74-.13-.74-.4v-6.73h.63c1.06,0,1.4.17,1.93,1.48l.03.09h.35l-.4-1.96-.03-.14Z"/>
      <path class="cls-4" d="M172.13,272.87l-1.53-2.29c.86-.25,1.86-.8,1.86-2,0-.9-.53-1.97-3.07-1.97h-2.54v.34h.13c.74.06.74.13.74.39v6.44c0,.27,0,.35-.74.4h-.13v.35h2.96v-.35h-.13c-.87-.05-.87-.14-.87-.4v-3.03h.46c.19,0,.26,0,.48.37l1.44,2.31c.6.98,1.02,1.15,1.67,1.15.21,0,.51-.02.7-.04l.12-.02v-.33h-.13c-.44-.05-.82-.4-1.42-1.31ZM169.32,270.31h-.51v-3.26h.4c.97,0,2.13.29,2.13,1.68,0,.98-.77,1.58-2.01,1.58Z"/>
      <path class="cls-4" d="M179.81,266.95h.13c.91.07,1.1.23,1.1.96v3.73c0,1.59-.72,2.4-2.13,2.4s-2.08-.84-2.08-2.42v-4.26c0-.27,0-.35.74-.4h.13v-.35h-2.83v.34h.13c.74.05.74.13.74.4v4.33c0,1.93.99,2.95,2.86,2.95s2.93-1.04,2.93-3v-3.73c0-.71.17-.89.9-.95h.13v-.35h-2.76v.34Z"/>
      <path class="cls-4" d="M191.48,272.02c-.62,1.23-1.64,1.93-2.8,1.93-1.83,0-3.05-1.46-3.05-3.64,0-1.94,1.2-3.36,2.85-3.36,1.32,0,2.33.75,2.84,2.12l.03.09h.33l-.28-2.44-.02-.12h-.33l-.02.12c-.04.34-.11.34-.13.34-.04,0-.14-.05-.25-.09h-.02c-.37-.17-1.05-.47-2.16-.47-2.27,0-4.06,1.84-4.06,4.18,0,2.18,1.49,3.83,3.54,3.94l-.38.78-.02.03.15.16.07-.02c.17-.03.28-.05.39-.05.3,0,.51.18.51.45,0,.23-.2.4-.47.4-.25,0-.51-.11-.67-.22l-.13-.09-.15.3.08.07c.21.19.47.37.92.37.66,0,1.17-.44,1.17-1.01s-.43-.95-1.08-.95c-.02,0-.04,0-.06,0l.11-.22c1.5-.07,2.75-.96,3.42-2.44l.06-.13-.36-.14-.06.11Z"/>
      <path class="cls-4" d="M195.62,266c.09-.29.3-.47.54-.47.2,0,.47.11.75.23.33.14.67.28.99.28.53,0,.92-.45,1.02-1.17l.02-.13-.32-.05-.04.12c-.09.29-.3.47-.54.47-.2,0-.47-.11-.75-.23-.33-.14-.67-.28-.99-.28-.53,0-.92.45-1.02,1.17l-.02.13.32.05.04-.12Z"/>
      <path class="cls-4" d="M199.72,273.21l-2-5.51c-.25-.67-.3-.84-.38-1.2l-.03-.11h-.24l-.04.05c-.15.19-.45.33-.67.38l-.16.04.23.58-2.04,5.66c-.31.82-.62,1.01-1.05,1.07l-.12.02v.34h2.5v-.34h-.13c-.41-.04-.66-.12-.76-.26-.08-.12-.07-.34.05-.66l.62-1.73h2.47l.76,2.13c.07.21.09.32.06.37-.08.12-.54.14-.68.14h-.13v.35h2.89v-.34h-.13c-.61-.07-.7-.16-1-.97ZM195.66,271.05l1.06-2.97,1.06,2.97h-2.12Z"/>
      <path class="cls-4" d="M206.31,266.5c-2.32,0-4,1.75-4,4.16s1.62,3.97,3.86,3.97c2.35,0,4.06-1.75,4.06-4.16s-1.64-3.97-3.91-3.97ZM206.35,274.17c-1.62,0-2.84-1.64-2.84-3.81,0-2.01,1.08-3.41,2.62-3.41,1.64,0,2.88,1.64,2.88,3.81,0,2.01-1.09,3.41-2.66,3.41Z"/>
      <path class="cls-4" d="M21.94,298l-2-5.51c-.25-.67-.3-.84-.38-1.2l-.03-.11h-.24l-.04.05c-.15.19-.45.33-.67.38l-.16.04.23.58-2.04,5.66c-.31.82-.62,1.01-1.05,1.07l-.12.02v.34h2.5v-.34h-.13c-.41-.04-.66-.12-.76-.26-.08-.12-.07-.34.05-.66l.62-1.73h2.47l.76,2.13c.07.21.09.32.06.37-.08.12-.54.14-.68.14h-.13v.35h2.89v-.34h-.13c-.61-.07-.7-.16-1-.97ZM17.88,295.84l1.06-2.97,1.06,2.97h-2.12Z"/>
      <path class="cls-4" d="M20.38,289.71l.12-.11c.09-.08.19-.22.19-.39,0-.28-.22-.5-.5-.5-.21,0-.36.1-.47.32l-.06.1c-.17.31-.63,1.14-.89,1.55l-.07.1.26.21.09-.09c.35-.35,1.03-.94,1.33-1.2Z"/>
      <path class="cls-4" d="M30.1,297.66l-1.53-2.29c.86-.25,1.86-.8,1.86-2,0-.9-.53-1.97-3.07-1.97h-2.54v.34h.13c.74.06.74.13.74.39v6.44c0,.27,0,.35-.74.4h-.13v.35h2.96v-.35h-.13c-.87-.05-.87-.14-.87-.4v-3.03h.46c.19,0,.26,0,.48.37l1.44,2.31c.6.98,1.02,1.15,1.67,1.15.21,0,.51-.02.7-.04l.12-.02v-.33h-.13c-.44-.05-.82-.4-1.42-1.31ZM27.29,295.09h-.51v-3.26h.4c.97,0,2.13.29,2.13,1.68,0,.98-.77,1.58-2.01,1.58Z"/>
      <path class="cls-4" d="M39.11,297.27c-.7,1.35-1.17,1.59-2.11,1.59h-1.46c-.24,0-.33-.08-.33-.29v-3.05h1.3c.86,0,1.03.27,1.2,1.21l.02.12h.33v-3.05h-.33l-.02.12c-.16.89-.35,1.17-1.2,1.17h-1.3v-3.24h1.53c1.1,0,1.47.28,1.96,1.48l.03.09h.35l-.38-1.9-.02-.11h-5.43v.34h.13c.74.05.74.13.74.4v6.43c0,.27,0,.35-.74.4h-.13v.35h5.61l.64-2.12h-.35l-.04.08Z"/>
      <path class="cls-4" d="M47.54,298l-2.01-5.51c-.26-.7-.3-.85-.38-1.2l-.03-.11h-.24l-.04.05c-.15.19-.45.33-.67.38l-.16.04.23.58-2.04,5.66c-.31.82-.62,1.01-1.05,1.07l-.12.02v.34h2.49v-.34h-.13c-.41-.04-.66-.12-.75-.26-.08-.13-.07-.34.05-.66l.62-1.73h2.47l.76,2.13c.07.2.09.32.06.37-.08.12-.54.14-.68.14h-.13v.35h2.89v-.34h-.13c-.61-.07-.7-.16-1-.97ZM43.48,295.84l1.06-2.97,1.06,2.97h-2.12Z"/>
      <path class="cls-4" d="M58.9,291.73h.13c.91.07,1.1.23,1.1.96v3.73c0,1.59-.72,2.4-2.13,2.4s-2.08-.84-2.08-2.42v-4.26c0-.27,0-.35.74-.4h.13v-.35h-2.83v.34h.13c.74.05.74.13.74.4v4.33c0,1.93.99,2.95,2.86,2.95s2.93-1.04,2.93-3v-3.73c0-.71.17-.89.9-.95h.13v-.35h-2.76v.34Z"/>
      <path class="cls-4" d="M58.13,289.04l-.06.1c-.17.31-.63,1.14-.89,1.55l-.07.1.25.22.09-.09c.35-.35,1.03-.94,1.33-1.2l.12-.11c.09-.08.18-.22.18-.39,0-.28-.22-.5-.5-.5-.21,0-.36.1-.47.32Z"/>
      <path class="cls-4" d="M69.82,291.3l-.14.03c-.19.04-.55.06-.98.06h-3.86c-.44,0-.8-.02-.99-.06l-.14-.03-.42,2.1h.34l.03-.09c.53-1.3.87-1.48,1.93-1.48h.63v6.73c0,.27,0,.35-.74.4h-.13v.35h2.83v-.34h-.13c-.74-.05-.74-.13-.74-.4v-6.73h.63c1.06,0,1.4.17,1.93,1.48l.03.09h.35l-.4-1.96-.03-.14Z"/>
      <path class="cls-4" d="M72.12,291.73h.13c.77.05.77.13.77.4v6.43c0,.27,0,.35-.77.4h-.13v.35h2.9v-.34h-.13c-.77-.05-.77-.13-.77-.4v-6.43c0-.27,0-.35.77-.4h.13v-.35h-2.9v.34Z"/>
      <path class="cls-4" d="M82.73,297.25c-.66,1.27-1.12,1.62-2.13,1.62h-1.16c-.25,0-.33-.07-.33-.29v-6.44c0-.27,0-.35.74-.4h.13v-.35h-2.83v.34h.13c.74.05.74.13.74.4v6.43c0,.26,0,.35-.74.4h-.13v.35h5.33l.62-2.07.02-.06h-.35l-.04.08Z"/>
    </g>
    <g>
      <path class="cls-6" d="M19.72,320.71c1.04-1.02,1.25-1.67,1.25-2.39,0-1.28-.97-2.07-2.54-2.07-1.15,0-2.11.39-2.71,1.09h-.01s.58.52.58.52v-.02c.5-.56,1.18-.84,2.07-.84,1.12,0,1.76.51,1.76,1.4,0,.53-.17,1.03-1.01,1.86l-3.16,3.09h0v.59h5.37v-.73h-4.15l2.55-2.5Z"/>
      <polygon class="cls-6" points="30.87 323.22 26.62 323.22 26.62 316.32 25.78 316.32 25.78 323.95 30.87 323.95 30.87 323.22"/>
      <path class="cls-6" d="M36.29,321.22c0,1.29-.72,2.05-1.92,2.05-1.09,0-1.69-.64-1.69-1.81v-3.25h-.81v3.33c0,1.57.88,2.47,2.43,2.47.88,0,1.62-.38,2.03-1.04v.99h.78v-5.75h-.81v3.01Z"/>
      <path class="cls-6" d="M44.54,323.24v-5.03h-.78v1.05c-.48-.71-1.27-1.09-2.24-1.09-1.67,0-2.88,1.17-2.88,2.78s1.21,2.8,2.88,2.8c.93,0,1.73-.39,2.2-1.06v.66c0,1.4-.66,2.05-2.08,2.05-.87,0-1.68-.28-2.23-.78l-.02-.02-.4.61h0s.01.03.01.03c.58.55,1.58.88,2.67.88,1.93,0,2.87-.94,2.87-2.87ZM41.61,323.01c-1.26,0-2.14-.85-2.14-2.07s.88-2.06,2.14-2.06,2.15.85,2.15,2.06-.88,2.07-2.15,2.07Z"/>
      <path class="cls-6" d="M50.24,323.11v.84h.78v-3.56c0-1.46-.81-2.23-2.33-2.23-.9,0-1.75.28-2.33.77h-.01s.36.6.36.6v.02s.03-.02.03-.02c.48-.42,1.17-.67,1.88-.67,1.04,0,1.6.51,1.6,1.49v.33h-1.79c-.83,0-2.22.21-2.22,1.64,0,1.02.83,1.68,2.1,1.68.88,0,1.57-.32,1.94-.89ZM48.43,321.3h1.77v.91c-.3.74-.94,1.14-1.79,1.14s-1.42-.39-1.42-1.05.47-1,1.44-1ZM47.46,321.47s.07-.03.11-.05c-.04.01-.07.03-.11.05ZM46.98,322.15s.02-.09.03-.14c-.01.04-.02.09-.03.14ZM47.12,321.76s.07-.09.12-.13c-.04.04-.08.09-.12.13Z"/>
      <path class="cls-6" d="M55.86,318.95s.07,0,.1,0h.02v-.79h-.02c-1.01,0-1.74.38-2.12,1.1v-1.05h-.78v5.75h.81v-2.93c0-1.33.69-2.09,1.9-2.09.03,0,.05,0,.08,0Z"/>
      <path class="cls-6" d="M61.95,323.05l-.45-.51v-.02s-.03.02-.03.02c-.42.49-1.02.74-1.73.74-1.24,0-2.13-.78-2.22-1.95h4.77v-.02s0-.09,0-.13c0-.04,0-.07,0-.1,0-1.72-1.15-2.92-2.79-2.92s-2.81,1.23-2.81,2.92,1.24,2.93,3.01,2.93c.92,0,1.71-.33,2.22-.94h.01ZM59.51,318.86c1.1,0,1.9.75,2.01,1.86h-4c.11-1.1.92-1.86,2-1.86Z"/>
      <path class="cls-6" d="M65.65,320.76c-.82-.15-1.59-.29-1.59-.98,0-.59.54-.92,1.47-.92.64,0,1.21.17,1.67.49h.02s.35-.63.35-.63v-.02s0,0,0,0c-.48-.33-1.27-.53-2.03-.53-1.38,0-2.28.65-2.28,1.65,0,1.26,1.14,1.47,2.15,1.65.83.15,1.55.28,1.55.92,0,.61-.51.91-1.51.91-.73,0-1.53-.25-2.02-.64h-.02s-.36.61-.36.61h0s.01.03.01.03c.49.42,1.43.71,2.33.71,1.46,0,2.37-.63,2.37-1.65,0-1.21-1.12-1.41-2.11-1.59Z"/>
      <path class="cls-6" d="M76.46,322.87v1.08h.78v-8.09h-.81v3.38c-.48-.7-1.24-1.08-2.15-1.08-.8,0-1.53.29-2.05.81-.53.53-.82,1.28-.82,2.11s.29,1.58.82,2.12c.52.52,1.25.81,2.05.81.94,0,1.71-.4,2.18-1.13ZM74.34,323.28c-1.24,0-2.11-.91-2.11-2.21s.87-2.2,2.11-2.2,2.1.91,2.1,2.2-.86,2.21-2.1,2.21Z"/>
      <path class="cls-6" d="M81.78,324.01c.92,0,1.71-.33,2.22-.94h.01s-.45-.52-.45-.52v-.02s-.03.02-.03.02c-.42.49-1.02.74-1.73.74-1.24,0-2.13-.78-2.22-1.95h4.77v-.02s0-.09,0-.13c0-.04,0-.07,0-.1,0-1.72-1.15-2.92-2.79-2.92s-2.81,1.23-2.81,2.92,1.24,2.93,3.01,2.93ZM81.58,318.86c1.1,0,1.9.75,2.01,1.86h-4c.11-1.1.92-1.86,2-1.86Z"/>
      <polygon class="cls-6" points="89.75 320.44 93.67 320.44 93.67 319.72 89.75 319.72 89.75 317.05 94.15 317.05 94.15 316.32 88.9 316.32 88.9 323.95 94.31 323.95 94.31 323.22 89.75 323.22 89.75 320.44"/>
      <path class="cls-6" d="M97.73,320.76c-.82-.15-1.59-.29-1.59-.98,0-.59.54-.92,1.47-.92.64,0,1.21.17,1.67.49h.02s.35-.63.35-.63v-.02s0,0,0,0c-.48-.33-1.27-.53-2.03-.53-1.38,0-2.28.65-2.28,1.65,0,1.26,1.14,1.47,2.15,1.65.83.15,1.55.28,1.55.92,0,.61-.51.91-1.51.91-.73,0-1.53-.25-2.02-.64h-.02s-.36.61-.36.61h0s.01.03.01.03c.49.42,1.43.71,2.33.71,1.46,0,2.37-.63,2.37-1.65,0-1.21-1.12-1.41-2.11-1.59Z"/>
      <path class="cls-6" d="M103.98,323l-.02.02c-.2.18-.51.29-.83.29-.62,0-.97-.36-.97-1.02v-3.39h1.74v-.69h-1.74v-1.25h-.81v1.25h-1.02v.69h1.02v3.43c0,1.07.62,1.68,1.69,1.68.48,0,.93-.15,1.22-.41h.01s-.28-.58-.28-.58v-.02Z"/>
      <path class="cls-6" d="M107.64,318.16c-.9,0-1.75.28-2.33.77h-.01s.36.6.36.6v.02s.03-.02.03-.02c.48-.42,1.17-.67,1.88-.67,1.04,0,1.6.51,1.6,1.49v.33h-1.79c-.83,0-2.22.21-2.22,1.64,0,1.02.83,1.68,2.1,1.68.88,0,1.57-.32,1.94-.89v.84h.78v-3.56c0-1.46-.81-2.23-2.33-2.23ZM107.39,321.3h1.77v.91c-.3.74-.94,1.14-1.79,1.14s-1.42-.39-1.42-1.05.47-1,1.44-1ZM106.42,321.47s.07-.03.11-.05c-.04.01-.07.03-.11.05ZM105.94,322.15s.02-.09.03-.14c-.01.04-.02.09-.03.14ZM106.08,321.76s.07-.09.12-.13c-.04.04-.08.09-.12.13Z"/>
      <path class="cls-6" d="M114.44,318.88c.69,0,1.28.3,1.64.84v.02s.6-.4.6-.4h.02s-.01-.03-.01-.03c-.45-.73-1.25-1.14-2.25-1.14-.83,0-1.59.29-2.12.81-.54.53-.84,1.28-.84,2.1,0,1.7,1.24,2.93,2.96,2.93,1,0,1.8-.4,2.25-1.14v-.02s-.58-.4-.58-.4h-.02s-.01,0-.01,0c-.36.53-.95.83-1.64.83-1.26,0-2.14-.91-2.14-2.21s.88-2.2,2.14-2.2Z"/>
      <path class="cls-6" d="M118.57,315.86c-.32,0-.58.25-.58.56s.26.57.58.57.58-.25.58-.58c0-.3-.26-.55-.58-.55Z"/>
      <rect class="cls-6" x="118.16" y="318.21" width=".81" height="5.75"/>
      <path class="cls-6" d="M123.43,318.16c-1.7,0-2.93,1.23-2.93,2.92s1.23,2.93,2.93,2.93,2.92-1.23,2.92-2.93-1.23-2.92-2.92-2.92ZM123.43,323.28c-1.24,0-2.11-.91-2.11-2.21s.87-2.2,2.11-2.2,2.1.91,2.1,2.2-.86,2.21-2.1,2.21Z"/>
      <path class="cls-6" d="M130.81,318.16c-.96,0-1.72.37-2.15,1.04v-1h-.78v5.75h.81v-3.01c0-1.28.74-2.04,1.98-2.04,1.09,0,1.69.64,1.69,1.8v3.25h.81v-3.33c0-1.56-.86-2.46-2.36-2.46Z"/>
      <path class="cls-6" d="M137.25,318.16c-.9,0-1.75.28-2.33.77h-.01s.36.6.36.6v.02s.03-.02.03-.02c.48-.42,1.17-.67,1.88-.67,1.04,0,1.6.51,1.6,1.49v.33h-1.79c-.83,0-2.22.21-2.22,1.64,0,1.02.83,1.68,2.1,1.68.88,0,1.57-.32,1.94-.89v.84h.78v-3.56c0-1.46-.81-2.23-2.33-2.23ZM137,321.3h1.77v.91c-.3.74-.94,1.14-1.79,1.14s-1.42-.39-1.42-1.05.47-1,1.44-1ZM136.02,321.47s.07-.03.11-.05c-.04.01-.07.03-.11.05ZM135.55,322.15s.02-.09.03-.14c-.01.04-.02.09-.03.14ZM135.69,321.76s.07-.09.12-.13c-.04.04-.08.09-.12.13Z"/>
      <path class="cls-6" d="M148.77,318.16c-1,0-1.82.43-2.25,1.18-.35-.76-1.07-1.18-2.03-1.18s-1.65.37-2.07,1.03v-.99h-.78v5.75h.81v-3.01c0-1.26.72-2.04,1.89-2.04,1.05,0,1.63.64,1.63,1.8v3.25h.81v-3.01c0-1.28.71-2.04,1.89-2.04,1.04,0,1.62.64,1.62,1.8v3.25h.81v-3.33c0-1.56-.84-2.46-2.32-2.46Z"/>
      <path class="cls-6" d="M155.41,318.16c-1.63,0-2.81,1.23-2.81,2.92s1.24,2.93,3.01,2.93c.92,0,1.71-.33,2.22-.94h.01s-.45-.52-.45-.52v-.02s-.03.02-.03.02c-.42.49-1.02.74-1.73.74-1.24,0-2.13-.78-2.22-1.95h4.77v-.02s0-.09,0-.13c0-.04,0-.07,0-.1,0-1.72-1.15-2.92-2.79-2.92ZM155.41,318.86c1.1,0,1.9.75,2.01,1.86h-4c.11-1.1.92-1.86,2-1.86Z"/>
      <path class="cls-6" d="M162.66,318.16c-.96,0-1.72.37-2.15,1.04v-1h-.78v5.75h.81v-3.01c0-1.28.74-2.04,1.98-2.04,1.09,0,1.69.64,1.69,1.8v3.25h.81v-3.33c0-1.56-.86-2.46-2.36-2.46Z"/>
      <path class="cls-6" d="M169.83,323l-.02.02c-.2.18-.51.29-.83.29-.62,0-.97-.36-.97-1.02v-3.39h1.74v-.69h-1.74v-1.25h-.81v1.25h-1.02v.69h1.02v3.43c0,1.07.62,1.68,1.69,1.68.48,0,.93-.15,1.22-.41h.01s-.28-.58-.28-.58v-.02Z"/>
      <path class="cls-6" d="M173.63,318.16c-1.7,0-2.93,1.23-2.93,2.92s1.23,2.93,2.93,2.93,2.92-1.23,2.92-2.93-1.23-2.92-2.92-2.92ZM173.63,323.28c-1.24,0-2.11-.91-2.11-2.21s.87-2.2,2.11-2.2,2.1.91,2.1,2.2-.86,2.21-2.1,2.21Z"/>
      <polygon class="cls-6" points="16.63 341.69 16.62 341.69 16.83 342.43 18.26 341.98 18.26 348.74 19.15 348.74 19.15 341.05 18.5 341.05 16.63 341.69"/>
      <path class="cls-6" d="M29.35,341.1h-.82l-3.48,7.61v.03s.87,0,.87,0l.91-2.03h4.21l.91,2.02h0s.89.01.89.01l-3.48-7.62h0ZM30.73,346.02h-3.58l1.79-4.01,1.79,4.01Z"/>
      <path class="cls-6" d="M34.66,344.04v-1.05h-.78v5.75h.81v-2.93c0-1.33.69-2.09,1.9-2.09.02,0,.05,0,.08,0,.03,0,.07,0,.1,0h.02v-.79h-.02c-1.01,0-1.74.38-2.12,1.1Z"/>
      <path class="cls-6" d="M38.93,344.04v-1.05h-.78v5.75h.81v-2.93c0-1.33.69-2.09,1.9-2.09.03,0,.05,0,.08,0,.03,0,.07,0,.1,0h.02v-.79h-.02c-1.01,0-1.74.38-2.12,1.1Z"/>
      <path class="cls-6" d="M44.59,342.95c-1.63,0-2.81,1.23-2.81,2.92s1.24,2.93,3.01,2.93c.92,0,1.71-.33,2.22-.94h.01s-.45-.52-.45-.52v-.02s-.03.02-.03.02c-.42.49-1.02.74-1.73.74-1.24,0-2.13-.78-2.22-1.95h4.77v-.02s0-.09,0-.13c0-.04,0-.07,0-.1,0-1.72-1.15-2.92-2.79-2.92ZM44.59,343.65c1.1,0,1.9.75,2.01,1.86h-4c.11-1.1.92-1.86,2-1.86Z"/>
      <path class="cls-6" d="M51.3,343.66c.69,0,1.28.3,1.64.84v.02s.6-.4.6-.4h.02s-.01-.03-.01-.03c-.45-.73-1.25-1.14-2.25-1.14-.83,0-1.59.29-2.12.81-.54.53-.84,1.28-.84,2.1,0,1.7,1.24,2.93,2.96,2.93,1,0,1.8-.4,2.25-1.14v-.02s-.58-.4-.58-.4h-.02s-.01,0-.01,0c-.36.53-.95.83-1.64.83-1.26,0-2.14-.91-2.14-2.21s.88-2.2,2.14-2.2Z"/>
      <path class="cls-6" d="M57.04,342.95c-.9,0-1.75.28-2.33.77h-.01s.36.6.36.6v.02s.03-.02.03-.02c.48-.42,1.17-.67,1.88-.67,1.04,0,1.6.51,1.6,1.49v.33h-1.79c-.83,0-2.22.21-2.22,1.64,0,1.02.83,1.68,2.1,1.68.88,0,1.57-.32,1.94-.89v.84h.78v-3.56c0-1.46-.81-2.23-2.33-2.23ZM56.79,346.09h1.77v.91c-.3.74-.94,1.14-1.79,1.14s-1.42-.39-1.42-1.05.47-1,1.44-1ZM55.82,346.25s.07-.03.11-.05c-.04.01-.07.03-.11.05ZM55.34,346.93s.02-.09.03-.14c-.01.04-.02.09-.03.14ZM55.48,346.55s.07-.09.12-.13c-.04.04-.08.09-.12.13Z"/>
      <path class="cls-6" d="M65.89,344.03c-.48-.7-1.24-1.08-2.15-1.08-.8,0-1.53.29-2.05.81-.53.53-.82,1.28-.82,2.11s.29,1.58.82,2.12c.52.52,1.25.81,2.05.81.94,0,1.71-.4,2.18-1.13v1.08h.78v-8.09h-.81v3.38ZM65.9,345.86c0,1.3-.86,2.21-2.1,2.21s-2.11-.91-2.11-2.21.87-2.2,2.11-2.2,2.1.91,2.1,2.2Z"/>
      <path class="cls-6" d="M70.82,342.95c-.9,0-1.75.28-2.33.77h-.01s.36.6.36.6v.02s.03-.02.03-.02c.48-.42,1.17-.67,1.88-.67,1.04,0,1.6.51,1.6,1.49v.33h-1.79c-.83,0-2.22.21-2.22,1.64,0,1.02.83,1.68,2.1,1.68.88,0,1.57-.32,1.94-.89v.84h.78v-3.56c0-1.46-.81-2.23-2.33-2.23ZM70.57,346.09h1.77v.91c-.3.74-.94,1.14-1.79,1.14s-1.42-.39-1.42-1.05.47-1,1.44-1ZM69.6,346.25s.07-.03.11-.05c-.04.01-.07.03-.11.05ZM69.12,346.93s.02-.09.03-.14c-.01.04-.02.09-.03.14ZM69.26,346.55s.07-.09.12-.13c-.04.04-.08.09-.12.13Z"/>
      <path class="cls-6" d="M77.62,343.66c.69,0,1.28.3,1.64.84v.02s.6-.4.6-.4h.02s-.01-.03-.01-.03c-.45-.73-1.25-1.14-2.25-1.14-.83,0-1.59.29-2.12.81-.54.53-.84,1.28-.84,2.1,0,1.51.99,2.67,2.46,2.89l-.23.88v.02s.27,0,.27,0c.42,0,.65.17.65.48s-.23.49-.65.49c-.27,0-.5-.07-.71-.2h-.02s-.19.42-.19.42h0s.01.02.01.02c.26.17.55.25.92.25.76,0,1.25-.38,1.25-.96,0-.5-.34-.84-.92-.9l.12-.47h0c1,0,1.8-.4,2.25-1.14v-.02s-.58-.4-.58-.4h-.02s-.01,0-.01,0c-.36.53-.95.83-1.64.83-1.26,0-2.14-.91-2.14-2.21s.88-2.2,2.14-2.2Z"/>
      <path class="cls-6" d="M83.54,341.25c-.24-.21-.51-.44-.89-.44-.58,0-.97.48-1,1.21v.02s.5,0,.5,0v-.02c.02-.42.23-.68.54-.68.19,0,.35.14.54.3.24.2.5.43.88.43.58,0,.97-.47,1-1.19v-.02s-.5,0-.5,0v.02c-.02.4-.23.65-.55.65-.18,0-.34-.14-.53-.3ZM82.86,341.37s-.01,0-.02,0c0,0,.01,0,.02,0ZM83.9,341.53s0,0,.01,0c0,0,0,0-.01,0Z"/>
      <path class="cls-6" d="M83.36,342.95c-.9,0-1.75.28-2.33.77h-.01s.36.6.36.6v.02s.03-.02.03-.02c.48-.42,1.17-.67,1.88-.67,1.04,0,1.6.51,1.6,1.49v.33h-1.79c-.83,0-2.22.21-2.22,1.64,0,1.02.83,1.68,2.1,1.68.88,0,1.57-.32,1.94-.89v.84h.78v-3.56c0-1.46-.81-2.23-2.33-2.23ZM83.11,346.09h1.77v.91c-.3.74-.94,1.14-1.79,1.14s-1.42-.39-1.42-1.05.47-1,1.44-1ZM82.13,346.25s.07-.03.11-.05c-.04.01-.07.03-.11.05ZM81.66,346.93s.02-.09.03-.14c-.01.04-.02.09-.03.14ZM81.8,346.55s.07-.09.12-.13c-.04.04-.08.09-.12.13Z"/>
      <path class="cls-6" d="M90.12,342.95c-1.7,0-2.93,1.23-2.93,2.92s1.23,2.93,2.93,2.93,2.92-1.23,2.92-2.93-1.23-2.92-2.92-2.92ZM90.12,348.07c-1.24,0-2.11-.91-2.11-2.21s.87-2.2,2.11-2.2,2.1.91,2.1,2.2-.86,2.21-2.1,2.21Z"/>
    </g>
  </g>
  <g>
    <rect class="cls-2" x="11.3" y="34.81" width="286.46" height=".6"/>
    <rect class="cls-5" x="11.3" y="59.78" width="286.46" height=".15"/>
    <rect class="cls-5" x="11.3" y="84.51" width="286.46" height=".15"/>
    <rect class="cls-5" x="11.3" y="109.25" width="286.46" height=".15"/>
    <rect class="cls-5" x="11.3" y="133.99" width="286.46" height=".15"/>
    <rect class="cls-5" x="11.3" y="158.73" width="286.46" height=".15"/>
    <rect class="cls-5" x="11.3" y="183.46" width="286.46" height=".15"/>
    <rect class="cls-5" x="11.3" y="208.2" width="286.46" height=".15"/>
    <rect class="cls-5" x="11.3" y="232.94" width="286.46" height=".15"/>
    <rect class="cls-2" x="11.3" y="257.45" width="286.46" height=".6"/>
    <rect class="cls-5" x="11.3" y="331.89" width="286.46" height=".15"/>
    <rect class="cls-5" x="11.3" y="282.42" width="286.46" height=".15"/>
    <rect class="cls-5" x="11.3" y="307.15" width="286.46" height=".15"/>
  </g>
  <g>
    <g>
      <path class="cls-4" d="M197.6,17.81c.37-.37,1.09-.99,1.39-1.26l.13-.11c.09-.08.19-.22.19-.39,0-.28-.22-.5-.5-.5-.21,0-.37.11-.47.32l-.08.14c-.2.35-.65,1.17-.92,1.59l-.06.09.24.2.08-.08Z"/>
      <path class="cls-4" d="M200.62,25.26l-2.1-5.78c-.26-.71-.31-.88-.4-1.26l-.02-.1h-.23l-.04.05c-.16.2-.47.35-.71.41l-.14.03.23.6-2.14,5.94c-.33.87-.66,1.07-1.12,1.13h-.11v.33h2.57v-.32h-.12c-.44-.04-.71-.13-.81-.28-.09-.14-.08-.37.05-.71l.65-1.83h2.62l.81,2.25c.08.23.1.35.05.41-.08.12-.46.15-.73.16h-.12v.33h2.99v-.32h-.11c-.65-.07-.75-.17-1.07-1.03ZM196.36,23.01l1.14-3.2,1.14,3.2h-2.29Z"/>
      <path class="cls-4" d="M209.4,24.91l-1.62-2.43c.93-.27,1.96-.84,1.96-2.09,0-.93-.55-2.04-3.19-2.04h-2.64v.32h.12c.8.07.8.15.8.43v6.74c0,.31-.03.39-.79.44h-.12v.33h3.05v-.32h-.12c-.93-.05-.93-.15-.93-.44v-3.2h.5c.2,0,.29,0,.52.39l1.51,2.42c.62,1.01,1.05,1.19,1.73,1.19.23,0,.55-.02.73-.04h.11v-.32h-.11c-.47-.05-.87-.42-1.5-1.38ZM205.91,18.77h.44c1.49,0,2.25.6,2.25,1.78,0,1.04-.82,1.68-2.13,1.68h-.56v-3.46Z"/>
      <path class="cls-4" d="M219.09,24.5c-.74,1.43-1.23,1.68-2.23,1.68h-1.53c-.31,0-.37-.13-.37-.33v-3.22h1.38c.91,0,1.11.3,1.27,1.28l.02.1h.31v-3.16h-.31l-.02.1c-.17.95-.37,1.24-1.27,1.24h-1.38v-3.44h1.62c1.18,0,1.55.28,2.07,1.56l.03.08h.32l-.41-2.06h-5.65v.32h.12c.76.05.79.13.79.44v6.73c0,.31-.03.39-.79.44h-.12v.33h5.84l.66-2.17h-.32l-.04.07Z"/>
      <path class="cls-4" d="M228.1,25.26l-2.1-5.78c-.27-.74-.32-.89-.4-1.26l-.02-.1h-.23l-.04.05c-.16.2-.47.35-.71.41l-.14.03.23.6-2.14,5.94c-.33.87-.66,1.07-1.12,1.13h-.11v.33h2.57v-.32h-.12c-.44-.04-.71-.13-.81-.28-.09-.14-.08-.37.05-.71l.65-1.83h2.62l.81,2.25c.08.23.1.35.05.41-.08.12-.46.15-.73.16h-.12v.33h2.99v-.32h-.11c-.65-.07-.75-.17-1.07-1.03ZM223.84,23.01l1.14-3.2,1.14,3.2h-2.29Z"/>
      <path class="cls-4" d="M240.48,18.67h.12c.97.07,1.17.24,1.17,1.03v3.91c0,1.68-.76,2.54-2.25,2.54s-2.2-.86-2.2-2.56v-4.47c0-.31.03-.39.79-.44h.12v-.33h-2.92v.32h.12c.77.05.8.13.8.44v4.53c0,2.01,1.03,3.07,2.97,3.07s3.05-1.08,3.05-3.12v-3.91c0-.77.18-.96.96-1.02h.12v-.33h-2.85v.32Z"/>
      <path class="cls-4" d="M238.94,17.81c.39-.39,1.16-1.06,1.45-1.31l.07-.06c.09-.08.19-.22.19-.39,0-.28-.22-.5-.5-.5-.21,0-.37.11-.47.32l-.03.05c-.45.81-.77,1.38-.97,1.68l-.06.09.24.2.08-.08Z"/>
      <path class="cls-4" d="M251.99,18.28c-.2.04-.58.06-1.03.06h-4.05c-.45,0-.84-.02-1.04-.06l-.12-.02-.43,2.15h.31l.03-.08c.56-1.37.94-1.56,2.04-1.56h.68v7.07c0,.31-.03.39-.8.44h-.12v.33h2.92v-.32h-.12c-.76-.05-.8-.13-.8-.44v-7.07h.68c1.1,0,1.48.19,2.04,1.56l.03.08h.33l-.44-2.15-.12.03Z"/>
      <path class="cls-4" d="M254.77,18.67h.12c.83.05.83.15.83.44v6.73c0,.29,0,.39-.83.44h-.12v.33h3v-.32h-.12c-.83-.05-.83-.15-.83-.44v-6.73c0-.29,0-.39.83-.44h.12v-.33h-3v.32Z"/>
      <path class="cls-4" d="M266.11,24.48c-.69,1.34-1.18,1.7-2.25,1.7h-1.21c-.28,0-.37-.08-.37-.33v-6.74c0-.31.03-.39.79-.44h.12v-.33h-2.92v.32h.12c.76.05.79.13.79.44v6.73c0,.28,0,.39-.79.44h-.12v.33h5.54l.66-2.2h-.32l-.04.07Z"/>
      <path class="cls-4" d="M274.58,18.62h-.75l-.04.06c-.71,1.15-1.1,2.75-1.1,4.51s.38,3.32,1.1,4.51l.04.06h.75l-.11-.19c-.71-1.21-1.06-2.65-1.06-4.38s.35-3.17,1.06-4.39l.11-.19Z"/>
      <path class="cls-4" d="M282,20.68c-.87,0-1.59.38-1.99,1.03-.33-.67-.97-1.03-1.83-1.03-.76,0-1.38.28-1.78.78v-.75h-.71v5.21h.73v-2.77c0-1.11.65-1.8,1.69-1.8.92,0,1.43.56,1.43,1.59v2.99h.72v-2.77c0-1.11.65-1.8,1.69-1.8.92,0,1.42.56,1.42,1.59v2.99h.72v-3.02c0-1.39-.79-2.23-2.1-2.23Z"/>
      <path class="cls-4" d="M287.08,21.66c.56-.55.67-.91.67-1.29,0-.7-.54-1.15-1.37-1.15-.61,0-1.1.2-1.43.58l-.08.09.39.34.08-.09c.24-.28.57-.41,1.02-.41.32,0,.86.09.86.67,0,.27-.08.51-.51.94l-1.68,1.67v.38h2.91v-.5h-2.07l1.21-1.21Z"/>
      <path class="cls-4" d="M289.04,18.68l-.04-.06h-.74l.11.19c.7,1.2,1.05,2.63,1.05,4.39s-.34,3.19-1.05,4.38l-.11.19h.74l.04-.06c.73-1.19,1.11-2.75,1.11-4.51s-.39-3.37-1.11-4.52Z"/>
    </g>
    <g>
      <path class="cls-1" d="M274.64,50.62h-4.03l2.03-1.8c.72-.64,1.22-1.16,1.5-1.56.28-.41.42-.87.42-1.39,0-.63-.22-1.15-.67-1.56-.44-.41-1.01-.61-1.69-.61-.63,0-1.15.13-1.56.4s-.8.67-1.17,1.22l.63.46c.32-.45.64-.78.95-.99s.68-.31,1.09-.31.79.13,1.08.4.45.62.45,1.05c0,.38-.12.74-.35,1.08-.23.35-.64.78-1.24,1.3l-2.76,2.43v.66h5.31v-.78Z"/>
      <rect class="cls-1" x="276.15" y="50.26" width="1" height="1.14"/>
      <path class="cls-1" d="M283.8,50.62h-4.03l2.03-1.8c.72-.64,1.22-1.16,1.5-1.56.28-.41.42-.87.42-1.39,0-.63-.22-1.15-.67-1.56-.44-.41-1.01-.61-1.69-.61-.63,0-1.15.13-1.56.4s-.8.67-1.17,1.22l.63.46c.32-.45.64-.78.95-.99s.68-.31,1.09-.31.79.13,1.08.4.45.62.45,1.05c0,.38-.12.74-.35,1.08-.23.35-.64.78-1.24,1.3l-2.76,2.43v.66h5.31v-.78Z"/>
      <path class="cls-1" d="M287.77,50.75c-.72,0-1.44-.35-2.16-1.04l-.56.62c.8.8,1.71,1.2,2.71,1.2.8,0,1.45-.23,1.95-.69.51-.46.76-1.06.76-1.8s-.25-1.29-.74-1.71c-.5-.42-1.12-.63-1.88-.63-.48,0-.98.11-1.5.34l.16-2.43h3.62v-.79h-4.37l-.22,3.7.58.38c.54-.29,1.07-.43,1.6-.43.56,0,1.01.15,1.36.44.35.3.53.68.53,1.15,0,.5-.17.91-.51,1.23-.34.32-.78.48-1.32.48Z"/>
      <path class="cls-1" d="M267.53,75.4h-4.03l2.03-1.8c.72-.64,1.22-1.16,1.5-1.56.28-.41.42-.87.42-1.39,0-.63-.22-1.15-.67-1.56-.44-.41-1.01-.61-1.69-.61-.63,0-1.15.13-1.56.4s-.8.67-1.17,1.22l.63.46c.32-.45.64-.78.95-.99s.68-.31,1.09-.31.79.13,1.08.4.45.62.45,1.05c0,.38-.12.74-.35,1.08-.23.35-.64.78-1.24,1.3l-2.76,2.43v.66h5.31v-.78Z"/>
      <path class="cls-1" d="M272.61,74.38v1.8h.82v-1.8h1.18v-.72h-1.18v-5.13h-.75l-4.3,5.23.22.62h4ZM272.61,69.75v3.92h-3.19l3.19-3.92Z"/>
      <rect class="cls-1" x="276.04" y="75.05" width="1" height="1.14"/>
      <path class="cls-1" d="M280.02,70.16c.4-.61.94-.92,1.62-.92.6,0,1.2.25,1.79.75l.5-.66c-.71-.58-1.46-.87-2.25-.87-.97,0-1.74.39-2.31,1.17-.57.78-.85,1.77-.85,2.95,0,1.29.26,2.23.79,2.83s1.25.9,2.16.9c.77,0,1.42-.24,1.94-.72.52-.48.78-1.08.78-1.81s-.25-1.27-.76-1.7c-.51-.43-1.13-.65-1.86-.65-.91,0-1.63.39-2.16,1.16v-.03c0-.98.2-1.78.61-2.4ZM280.1,72.68c.36-.34.81-.5,1.36-.5s.99.15,1.33.46c.35.31.52.7.52,1.17,0,.51-.17.93-.5,1.26-.34.33-.78.5-1.33.5s-1.02-.16-1.38-.49c-.36-.33-.54-.73-.54-1.22,0-.45.18-.84.54-1.18Z"/>
      <polygon class="cls-1" points="285.38 68.59 285.38 69.37 289.56 69.37 286.13 76.19 287.09 76.19 290.54 69.23 290.54 68.59 285.38 68.59"/>
      <polygon class="cls-1" points="269.25 94.21 269.25 100.97 270.09 100.97 270.09 93.32 269.46 93.32 267.61 93.96 267.81 94.66 269.25 94.21"/>
      <path class="cls-1" d="M271.87,99.17h4v1.8h.82v-1.8h1.18v-.72h-1.18v-5.13h-.75l-4.3,5.23.22.62ZM275.88,94.54v3.92h-3.19l3.19-3.92Z"/>
      <rect class="cls-1" x="279.31" y="99.83" width="1" height="1.14"/>
      <polygon class="cls-1" points="283.38 100.97 283.38 93.32 282.75 93.32 280.89 93.96 281.1 94.66 282.53 94.21 282.53 100.97 283.38 100.97"/>
      <path class="cls-1" d="M287.85,96.26c-.48,0-.98.11-1.5.34l.16-2.43h3.62v-.79h-4.37l-.22,3.7.58.38c.54-.29,1.07-.43,1.6-.43.56,0,1.01.15,1.36.44.35.3.53.68.53,1.15,0,.5-.17.91-.51,1.23s-.78.48-1.32.48c-.72,0-1.44-.35-2.16-1.04l-.56.62c.8.8,1.71,1.2,2.71,1.2.8,0,1.45-.23,1.95-.69.51-.46.76-1.06.76-1.8s-.25-1.29-.74-1.71c-.5-.42-1.12-.63-1.88-.63Z"/>
      <path class="cls-1" d="M271.3,122.66l-2.76,2.43v.66h5.31v-.78h-4.03l2.03-1.8c.72-.64,1.22-1.16,1.5-1.56.28-.41.42-.87.42-1.39,0-.63-.22-1.15-.67-1.56-.44-.41-1.01-.61-1.69-.61-.63,0-1.15.13-1.56.4-.41.26-.8.67-1.17,1.22l.63.46c.32-.45.64-.78.95-.99s.68-.31,1.09-.31.79.13,1.08.4.45.62.45,1.05c0,.38-.12.74-.35,1.08-.23.35-.64.78-1.24,1.3Z"/>
      <rect class="cls-1" x="275.36" y="124.62" width="1" height="1.14"/>
      <path class="cls-1" d="M278.69,119.2c-.57.78-.85,1.77-.85,2.95,0,1.29.26,2.23.79,2.83s1.25.9,2.16.9c.77,0,1.42-.24,1.94-.72.52-.48.78-1.08.78-1.81s-.25-1.27-.76-1.7c-.51-.43-1.13-.65-1.86-.65-.91,0-1.63.39-2.16,1.16v-.03c0-.98.2-1.78.61-2.4.4-.61.94-.92,1.62-.92.6,0,1.2.25,1.79.75l.5-.66c-.71-.58-1.46-.87-2.25-.87-.97,0-1.74.39-2.31,1.17ZM279.42,122.25c.36-.34.81-.5,1.36-.5s.99.15,1.33.46c.35.31.52.7.52,1.17,0,.51-.17.93-.5,1.26-.34.33-.78.5-1.33.5s-1.02-.16-1.38-.49c-.36-.33-.54-.73-.54-1.22,0-.45.18-.84.54-1.18Z"/>
      <path class="cls-1" d="M287.51,118.03c-.8,0-1.45.25-1.96.74-.51.5-.77,1.11-.77,1.84s.25,1.26.74,1.71,1.13.67,1.91.67c.93,0,1.64-.4,2.15-1.21v.1c0,.95-.21,1.72-.62,2.33-.42.6-.96.91-1.63.91-.63,0-1.25-.27-1.87-.81l-.5.66c.75.62,1.53.93,2.34.93.93,0,1.69-.38,2.28-1.15.59-.77.88-1.75.88-2.96,0-1.29-.27-2.24-.8-2.84-.53-.6-1.25-.9-2.14-.9ZM288.88,121.73c-.35.35-.8.52-1.36.52s-1-.16-1.35-.47c-.35-.31-.52-.71-.52-1.19s.17-.92.5-1.27c.33-.35.77-.53,1.32-.53s1.03.16,1.39.49c.36.33.54.74.54,1.23,0,.46-.17.87-.53,1.21Z"/>
      <path class="cls-1" d="M276.3,148.74h1.18v-.72h-1.18v-5.13h-.75l-4.3,5.23.22.62h4v1.8h.82v-1.8ZM275.48,148.03h-3.19l3.19-3.92v3.92Z"/>
      <rect class="cls-1" x="278.91" y="149.4" width="1" height="1.14"/>
      <path class="cls-1" d="M286.06,146.4c.28-.41.42-.87.42-1.39,0-.63-.22-1.15-.67-1.56-.44-.41-1.01-.61-1.69-.61-.63,0-1.15.13-1.56.4-.41.26-.8.67-1.17,1.22l.63.46c.32-.45.64-.78.95-.99s.68-.32,1.09-.32.79.13,1.08.4.45.62.45,1.05c0,.38-.12.74-.35,1.08s-.64.78-1.24,1.3l-2.76,2.43v.66h5.31v-.78h-4.03l2.03-1.8c.72-.64,1.22-1.16,1.5-1.56Z"/>
      <polygon class="cls-1" points="290.02 150.54 290.02 142.89 289.39 142.89 287.53 143.53 287.74 144.23 289.17 143.78 289.17 150.54 290.02 150.54"/>
      <polygon class="cls-1" points="267.2 175.33 267.2 167.68 266.57 167.68 264.71 168.32 264.92 169.01 266.35 168.57 266.35 175.33 267.2 175.33"/>
      <polygon class="cls-1" points="274.18 167.73 269.03 167.73 269.03 168.51 273.21 168.51 269.78 175.33 270.73 175.33 274.18 168.37 274.18 167.73"/>
      <rect class="cls-1" x="274.51" y="174.19" width="1" height="1.14"/>
      <path class="cls-1" d="M281.19,173.77c-.42.6-.96.91-1.63.91-.63,0-1.25-.27-1.87-.81l-.5.66c.75.62,1.53.93,2.34.93.93,0,1.69-.38,2.28-1.15.59-.77.88-1.75.88-2.96,0-1.29-.27-2.24-.8-2.84-.53-.6-1.25-.9-2.14-.9-.8,0-1.45.25-1.96.74-.51.5-.77,1.11-.77,1.84s.25,1.26.74,1.71,1.13.67,1.91.67c.93,0,1.64-.4,2.15-1.21v.1c0,.95-.21,1.72-.62,2.33ZM281.12,171.3c-.35.35-.8.52-1.36.52s-1-.16-1.35-.47c-.35-.31-.52-.71-.52-1.19s.17-.92.5-1.27c.33-.35.77-.53,1.32-.53s1.03.16,1.39.49c.36.33.54.74.54,1.23,0,.46-.17.87-.53,1.21Z"/>
      <path class="cls-1" d="M284.92,168.75c-.6.76-.9,1.69-.9,2.78s.29,2.04.88,2.79c.59.76,1.36,1.13,2.32,1.13s1.73-.38,2.32-1.15c.59-.76.89-1.69.89-2.78s-.29-2.04-.88-2.79-1.36-1.13-2.31-1.13-1.73.38-2.33,1.14ZM288.91,169.31c.43.62.65,1.36.65,2.22s-.21,1.62-.64,2.23c-.42.61-.98.92-1.67.92s-1.25-.31-1.68-.93c-.43-.62-.65-1.36-.65-2.22s.21-1.62.64-2.23.98-.92,1.67-.92,1.25.31,1.68.93Z"/>
      <path class="cls-1" d="M271.16,192.46l-4.3,5.23.22.62h4v1.8h.82v-1.8h1.18v-.72h-1.18v-5.13h-.75ZM271.08,197.6h-3.19l3.19-3.92v3.92Z"/>
      <rect class="cls-1" x="274.51" y="198.97" width="1" height="1.14"/>
      <path class="cls-1" d="M279.95,200.24c.77,0,1.42-.24,1.94-.72.52-.48.78-1.08.78-1.81s-.25-1.27-.76-1.7c-.51-.43-1.13-.65-1.86-.65-.91,0-1.63.39-2.16,1.16v-.03c0-.98.2-1.78.61-2.4.4-.62.94-.92,1.62-.92.6,0,1.2.25,1.79.75l.5-.66c-.71-.58-1.46-.87-2.25-.87-.97,0-1.74.39-2.31,1.17-.57.78-.85,1.77-.85,2.95,0,1.29.26,2.23.79,2.83s1.25.9,2.16.9ZM278.57,196.6c.36-.34.81-.5,1.36-.5s.99.15,1.33.46c.35.31.52.7.52,1.17,0,.51-.17.93-.5,1.26-.34.33-.78.5-1.33.5s-1.02-.16-1.38-.49c-.36-.33-.54-.73-.54-1.22,0-.45.18-.84.54-1.18Z"/>
      <path class="cls-1" d="M287.25,192.39c-.96,0-1.73.38-2.33,1.15-.6.76-.9,1.69-.9,2.78s.29,2.04.88,2.79c.59.76,1.36,1.13,2.32,1.13s1.73-.38,2.32-1.14c.59-.76.89-1.69.89-2.78s-.29-2.04-.88-2.79c-.59-.76-1.36-1.13-2.31-1.13ZM288.92,198.55c-.42.61-.98.92-1.67.92s-1.25-.31-1.68-.93c-.43-.62-.65-1.36-.65-2.22s.21-1.62.64-2.23c.43-.61.98-.92,1.67-.92s1.25.31,1.68.93c.43.62.65,1.36.65,2.22s-.21,1.62-.64,2.23Z"/>
      <path class="cls-1" d="M270.99,224.25c-.87,0-1.61-.38-2.22-1.13l-.62.55c.69.9,1.64,1.36,2.83,1.36.72,0,1.32-.21,1.81-.65.49-.43.73-.98.73-1.64s-.24-1.18-.71-1.54c-.47-.36-1.07-.57-1.8-.62l2.39-2.65v-.63h-4.85v.77h3.71l-2.4,2.7.17.51h.49c.64,0,1.15.13,1.54.39.39.26.59.62.59,1.08s-.16.81-.48,1.08-.71.41-1.18.41Z"/>
      <rect class="cls-1" x="275.1" y="223.76" width="1" height="1.14"/>
      <path class="cls-1" d="M281.61,224.9h.82v-1.8h1.18v-.72h-1.18v-5.13h-.75l-4.3,5.23.22.62h4v1.8ZM278.42,222.38l3.19-3.92v3.92h-3.19Z"/>
      <path class="cls-1" d="M287.51,217.17c-.8,0-1.45.25-1.96.74-.51.5-.77,1.11-.77,1.84s.25,1.26.74,1.71c.49.44,1.13.67,1.91.67.93,0,1.64-.41,2.15-1.21v.1c0,.95-.21,1.72-.62,2.33-.42.6-.96.91-1.63.91-.63,0-1.25-.27-1.87-.81l-.5.66c.75.62,1.53.93,2.34.93.93,0,1.69-.38,2.28-1.15.59-.77.88-1.75.88-2.96,0-1.3-.27-2.24-.8-2.84-.53-.6-1.25-.9-2.14-.9ZM288.88,220.87c-.35.35-.8.52-1.36.52s-1-.16-1.35-.47c-.35-.31-.52-.71-.52-1.19s.17-.92.5-1.28c.33-.35.77-.53,1.32-.53s1.03.17,1.39.49c.36.33.54.74.54,1.23,0,.46-.17.87-.53,1.22Z"/>
      <polygon class="cls-1" points="266.69 242.68 266.89 243.37 268.32 242.93 268.32 249.69 269.17 249.69 269.17 242.03 268.54 242.03 266.69 242.68"/>
      <path class="cls-1" d="M275.78,242.03h-.75l-4.3,5.23.22.62h4v1.8h.82v-1.8h1.18v-.72h-1.18v-5.13ZM274.96,247.17h-3.19l3.19-3.92v3.92Z"/>
      <rect class="cls-1" x="278.38" y="248.55" width="1" height="1.14"/>
      <path class="cls-1" d="M283.63,241.96c-.8,0-1.45.25-1.96.74-.51.5-.77,1.11-.77,1.84s.25,1.26.74,1.71c.49.44,1.13.67,1.91.67.93,0,1.64-.41,2.15-1.21v.1c0,.95-.21,1.72-.62,2.33-.42.6-.96.91-1.63.91-.63,0-1.25-.27-1.87-.81l-.5.66c.75.62,1.53.93,2.34.93.93,0,1.69-.38,2.28-1.15.59-.77.88-1.75.88-2.96,0-1.3-.27-2.24-.8-2.84-.53-.6-1.25-.9-2.14-.9ZM285,245.66c-.35.35-.8.52-1.36.52s-1-.16-1.35-.47c-.35-.31-.52-.71-.52-1.19s.17-.92.5-1.28c.33-.35.77-.53,1.32-.53s1.03.17,1.39.49c.36.33.54.74.54,1.23,0,.46-.17.87-.53,1.22Z"/>
      <polygon class="cls-1" points="287.53 242.68 287.74 243.37 289.17 242.93 289.17 249.69 290.02 249.69 290.02 242.03 289.39 242.03 287.53 242.68"/>
    </g>
    <g>
      <polygon class="cls-4" points="257.03 267.43 257.26 268.22 258.68 267.78 258.68 274.52 259.63 274.52 259.63 266.77 258.95 266.77 257.03 267.43"/>
      <path class="cls-4" d="M264.57,266.69c-.97,0-1.76.39-2.37,1.16-.6.77-.91,1.72-.91,2.81s.3,2.06.9,2.83c.6.77,1.39,1.15,2.36,1.15s1.76-.39,2.36-1.16c.6-.77.9-1.72.9-2.81s-.3-2.06-.89-2.82c-.59-.77-1.38-1.15-2.35-1.15ZM264.57,273.77c-.67,0-1.22-.31-1.64-.91-.43-.61-.64-1.34-.64-2.19s.21-1.6.63-2.2c.42-.59.96-.9,1.63-.9s1.22.3,1.64.91c.42.61.64,1.34.64,2.19s-.21,1.6-.63,2.2c-.41.59-.96.9-1.62.9Z"/>
      <path class="cls-4" d="M273.56,270.74c-.46-.35-1.04-.56-1.72-.62l2.32-2.57h.01v-.71h-4.95v.87h3.65l-2.32,2.62-.02.02.18.54v.03h.54c.62,0,1.13.13,1.51.38.38.25.56.59.56,1.04s-.16.78-.46,1.05c-.31.27-.69.4-1.15.4-.85,0-1.58-.37-2.19-1.11l-.03-.04-.69.62.03.04c.7.91,1.67,1.38,2.87,1.38.73,0,1.34-.22,1.84-.66.5-.44.75-1,.75-1.68s-.25-1.21-.73-1.58Z"/>
      <rect class="cls-4" x="275.76" y="273.28" width="1.1" height="1.24"/>
      <path class="cls-4" d="M281.01,269.71c-.46,0-.95.1-1.44.31l.15-2.3h3.63v-.89h-4.47l-.22,3.75v.03s.6.4.6.4l.02.02h.03c.53-.3,1.06-.44,1.57-.44.54,0,.99.15,1.33.43.34.29.51.66.51,1.11,0,.48-.17.88-.49,1.19-.33.31-.76.46-1.29.46-.71,0-1.42-.35-2.12-1.03l-.04-.04-.63.69.03.03c.81.81,1.73,1.22,2.75,1.22.8,0,1.47-.24,1.99-.71.51-.47.78-1.09.78-1.84s-.26-1.32-.76-1.75c-.5-.43-1.15-.65-1.92-.65Z"/>
      <path class="cls-4" d="M284.79,272.41c0,.65.28,1.19.83,1.6.55.41,1.25.62,2.07.62s1.52-.21,2.07-.61c.55-.41.83-.95.83-1.6,0-.85-.5-1.48-1.49-1.88.81-.4,1.23-.99,1.23-1.74,0-.6-.26-1.1-.79-1.49-.52-.39-1.14-.58-1.86-.58s-1.34.2-1.86.58c-.52.39-.78.89-.78,1.47,0,.77.41,1.36,1.22,1.76-.43.17-.79.41-1.05.71-.29.33-.44.72-.44,1.16ZM289.11,273.38c-.35.27-.82.4-1.42.4s-1.07-.14-1.42-.4c-.34-.26-.52-.59-.52-.97,0-.41.18-.75.55-1.01s.84-.4,1.39-.4,1.01.13,1.38.4c.37.26.55.59.55,1s-.17.73-.52.99ZM286.48,267.93c.32-.24.73-.36,1.21-.36s.89.12,1.21.36c.32.24.48.54.48.9,0,.4-.16.73-.48.98-.32.25-.73.38-1.21.38s-.89-.13-1.21-.38c-.32-.25-.48-.57-.48-.96s.16-.68.47-.92Z"/>
      <polygon class="cls-4" points="262.2 292.49 266.34 292.49 262.95 299.23 262.91 299.31 263.98 299.31 267.45 292.32 267.45 291.61 262.2 291.61 262.2 292.49"/>
      <path class="cls-4" d="M272.99,295.52c-.46-.35-1.04-.56-1.72-.62l2.32-2.57h.01v-.71h-4.95v.87h3.65l-2.32,2.62-.02.02.18.54v.03h.54c.62,0,1.13.13,1.51.38.38.25.56.59.56,1.04s-.16.78-.46,1.05c-.31.27-.69.4-1.15.4-.85,0-1.58-.37-2.19-1.11l-.03-.04-.69.62.03.04c.7.91,1.67,1.38,2.87,1.38.73,0,1.34-.22,1.84-.66.5-.44.75-1,.75-1.68s-.25-1.21-.73-1.58Z"/>
      <rect class="cls-4" x="275.2" y="298.07" width="1.1" height="1.24"/>
      <path class="cls-4" d="M280.49,291.48c-.81,0-1.48.25-2,.76-.52.5-.79,1.13-.79,1.88s.25,1.29.75,1.75c.5.45,1.15.68,1.94.68.88,0,1.59-.37,2.1-1.1,0,.9-.22,1.65-.61,2.23-.4.59-.94.88-1.59.88-.61,0-1.23-.27-1.83-.8l-.04-.04-.56.74.04.03c.76.63,1.56.94,2.38.94.95,0,1.73-.39,2.32-1.17.59-.77.89-1.78.89-2.99,0-1.3-.27-2.27-.81-2.88-.54-.61-1.27-.92-2.18-.92ZM280.5,295.7c-.54,0-.98-.15-1.31-.45-.33-.3-.5-.69-.5-1.16s.16-.9.49-1.24c.32-.34.76-.51,1.29-.51s1,.16,1.36.48c.35.32.53.72.53,1.19s-.17.84-.51,1.18c-.34.33-.79.51-1.33.51Z"/>
      <path class="cls-4" d="M287.8,294.45c-.87,0-1.58.35-2.11,1.05.02-.91.22-1.67.6-2.25.39-.6.92-.9,1.57-.9.59,0,1.18.25,1.76.74l.04.03.53-.7.03-.04-.04-.03c-.71-.58-1.48-.88-2.28-.88-.98,0-1.77.4-2.35,1.19-.57.79-.86,1.79-.86,2.98,0,1.29.27,2.26.8,2.87.54.61,1.27.92,2.2.92.78,0,1.45-.25,1.98-.73.53-.49.8-1.11.8-1.85s-.26-1.3-.78-1.74c-.52-.44-1.16-.66-1.89-.66ZM289.01,298.09c-.32.32-.76.48-1.29.48s-1-.16-1.35-.48c-.35-.31-.53-.71-.53-1.18,0-.43.18-.82.52-1.14.35-.33.79-.49,1.33-.49s.96.15,1.3.45c.33.3.5.68.5,1.13,0,.49-.17.9-.49,1.22Z"/>
    </g>
    <g>
      <path class="cls-1" d="M263.84,321.46c.72-.64,1.22-1.16,1.5-1.56.28-.41.42-.87.42-1.39,0-.63-.22-1.15-.67-1.56-.44-.41-1.01-.61-1.69-.61-.63,0-1.15.13-1.56.4-.41.26-.8.67-1.17,1.22l.63.46c.32-.45.64-.78.95-.99s.68-.31,1.09-.31.79.13,1.08.4.45.62.45,1.05c0,.38-.12.74-.35,1.08-.23.35-.64.78-1.24,1.3l-2.76,2.43v.66h5.31v-.78h-4.03l2.03-1.8Z"/>
      <path class="cls-1" d="M271.77,319.97c-.5-.42-1.12-.63-1.88-.63-.48,0-.98.11-1.5.34l.16-2.43h3.62v-.79h-4.37l-.22,3.7.58.38c.54-.29,1.07-.43,1.6-.43.56,0,1.01.15,1.36.44.35.3.53.68.53,1.15,0,.5-.17.91-.51,1.23s-.78.48-1.32.48c-.72,0-1.44-.35-2.16-1.04l-.56.62c.8.8,1.71,1.2,2.71,1.2.8,0,1.45-.23,1.95-.69.51-.46.76-1.06.76-1.8s-.25-1.29-.74-1.71Z"/>
      <rect class="cls-1" x="273.99" y="322.9" width="1" height="1.14"/>
      <path class="cls-1" d="M281.79,323.03c.59-.76.89-1.69.89-2.78s-.29-2.04-.88-2.79-1.36-1.13-2.31-1.13-1.73.38-2.33,1.15-.9,1.69-.9,2.78.29,2.04.88,2.79c.59.76,1.36,1.13,2.32,1.13s1.73-.38,2.32-1.14ZM277.81,322.46c-.43-.62-.65-1.36-.65-2.22s.21-1.62.64-2.23.98-.92,1.67-.92,1.25.31,1.68.93c.43.62.65,1.36.65,2.22s-.21,1.62-.64,2.23c-.42.61-.98.92-1.67.92s-1.25-.31-1.68-.93Z"/>
      <path class="cls-1" d="M287.23,324.17c.96,0,1.73-.38,2.32-1.14.59-.76.89-1.69.89-2.78s-.29-2.04-.88-2.79-1.36-1.13-2.31-1.13-1.73.38-2.33,1.15-.9,1.69-.9,2.78.29,2.04.88,2.79c.59.76,1.36,1.13,2.32,1.13ZM285.56,318.01c.43-.61.98-.92,1.67-.92s1.25.31,1.68.93c.43.62.65,1.36.65,2.22s-.21,1.62-.64,2.23c-.42.61-.98.92-1.67.92s-1.25-.31-1.68-.93c-.43-.62-.65-1.36-.65-2.22s.21-1.62.64-2.23Z"/>
      <path class="cls-1" d="M276.64,345.13c-.47-.36-1.07-.57-1.8-.62l2.39-2.65v-.63h-4.85v.77h3.71l-2.4,2.7.17.51h.49c.64,0,1.15.13,1.54.39.39.26.59.62.59,1.08s-.16.81-.48,1.08-.71.41-1.18.41c-.87,0-1.61-.38-2.22-1.13l-.62.55c.69.9,1.64,1.36,2.83,1.36.72,0,1.32-.21,1.81-.65.49-.43.73-.98.73-1.64s-.24-1.18-.71-1.54Z"/>
      <rect class="cls-1" x="278.93" y="347.69" width="1" height="1.14"/>
      <polygon class="cls-1" points="280.51 341.82 280.72 342.51 282.15 342.07 282.15 348.83 283 348.83 283 341.18 282.37 341.18 280.51 341.82"/>
      <path class="cls-1" d="M289.65,342c-.53-.6-1.25-.9-2.14-.9-.8,0-1.45.25-1.96.74-.51.5-.77,1.11-.77,1.84s.25,1.26.74,1.71c.49.44,1.13.67,1.91.67.93,0,1.64-.41,2.15-1.21v.1c0,.95-.21,1.72-.62,2.33-.42.6-.96.91-1.63.91-.63,0-1.25-.27-1.87-.81l-.5.66c.75.62,1.53.93,2.34.93.93,0,1.69-.38,2.28-1.15.59-.77.88-1.75.88-2.96,0-1.3-.27-2.24-.8-2.84ZM288.88,344.8c-.35.35-.8.52-1.36.52s-1-.16-1.35-.47c-.35-.31-.52-.71-.52-1.19s.17-.92.5-1.28c.33-.35.77-.53,1.32-.53s1.03.17,1.39.49c.36.33.54.74.54,1.23,0,.46-.17.87-.53,1.22Z"/>
    </g>
  </g>
</svg>