<svg width="172" height="67" viewBox="0 0 172 67" fill="none" xmlns="http://www.w3.org/2000/svg">
<g clip-path="url(#clip0_332_361)">
<g opacity="0.4">
<path d="M54.8279 12.7717V30.7719H39.4619V66.0141H0.760742V0.518799H49.0141V12.7717H54.8279Z" fill="#C0D4DC"/>
</g>
<path d="M170.971 66.5197H0.241211V0H170.971V66.5197ZM1.26561 65.4953H169.946V1.0244H1.26561V65.4953Z" fill="#2E8EA9"/>
<path d="M68.5033 13.2773H48.4941V0.518799H49.5318V12.2529H67.4656V0.518799H68.5033V13.2773Z" fill="#2E8EA9"/>
<path d="M39.9668 66.0141H38.9424V30.2531H54.3217V12.7717H55.3461V31.2775H39.9668V66.0141Z" fill="#2E8EA9"/>
<path d="M132.935 66.0141H131.91V31.4504H116.025V22.2175H94.1403V24.9847H77.6301V22.2175H54.8271V21.1931H78.6545V23.9603H93.1159V21.1931H117.063V30.4127H132.935V66.0141Z" fill="#2E8EA9"/>
<path d="M85.8125 60.054H84.7881V65.9609H85.8125V60.054Z" fill="#2E8EA9"/>
<path d="M86.3975 24.4658H85.373V60.1071H86.3975V24.4658Z" fill="#2E8EA9"/>
<path d="M87.0762 60.054H86.0518V65.9609H87.0762V60.054Z" fill="#2E8EA9"/>
<path d="M132.429 59.8279H39.4609V60.3733H132.429V59.8279Z" fill="#2E8EA9"/>
<path d="M38.6625 66.014H38.1304V58.1115H20.5293V60.3732H2.98138V66.014H2.44922V59.8277H19.9838V57.5793H38.6625V66.014Z" fill="#2E8EA9"/>
<path d="M169.44 66.014H168.895V60.3732H151.36V58.1115H133.759V66.014H133.214V57.5793H151.893V59.8277H169.44V66.014Z" fill="#2E8EA9"/>
<path d="M117.063 21.6987H116.025V13.57H122.731V0.518799H123.755V14.5944H117.063V21.6987Z" fill="#2E8EA9"/>
<path d="M151.6 7.56989H133.214V0.518799H133.759V7.02442H151.054V2.58091H146.837V0.518799H147.369V2.04875H151.6V7.56989Z" fill="#2E8EA9"/>
<path d="M38.6628 7.56989H20.29V2.04875H24.5074V0.518799H25.0528V2.58091H20.8222V7.02442H38.1306V0.518799H38.6628V7.56989Z" fill="#2E8EA9"/>
<path d="M85.8786 9.64532H69.2354V1.62305H85.8786V9.64532ZM69.7808 9.09986H85.3331V2.16851H69.7808V9.09986Z" fill="#2E8EA9"/>
<path d="M122.225 13.0378H97.626V1.62305H122.225V13.0378ZM98.1714 12.4924H121.693V2.16851H98.1714V12.4924Z" fill="#2E8EA9"/>
<path d="M60.3887 15.5125L56.6104 17.4016L60.3887 19.1178V15.5125Z" fill="#C0D4DC"/>
</g>
<defs>
<clipPath id="clip0_332_361">
<rect width="171.213" height="66.5197" fill="white"/>
</clipPath>
</defs>
</svg>
