<?xml version="1.0" encoding="UTF-8"?>
<svg id="Camada_1" data-name="Camada 1" xmlns="http://www.w3.org/2000/svg" width="10.9cm" height="15.47cm" viewBox="0 0 309.06 438.63">
  <defs>
    <style>
      .cls-1 {
        fill: #468aa3;
      }

      .cls-2 {
        fill: #e0b35e;
      }

      .cls-3 {
        fill: #77a5b8;
      }

      .cls-4 {
        fill: #034d67;
      }

      .cls-5 {
        fill: #c0d4dc;
      }

      .cls-6 {
        fill: #227493;
      }
    </style>
  </defs>
  <g>
    <g>
      <polygon class="cls-3" points="22.41 42.28 22.41 49.04 23.25 49.04 23.25 41.39 22.62 41.39 20.77 42.03 20.97 42.72 22.41 42.28"/>
      <path class="cls-3" d="M24.75,73.04h-4.03l2.03-1.8c.72-.64,1.22-1.16,1.5-1.56.28-.4.42-.87.42-1.39,0-.63-.22-1.15-.67-1.56-.44-.41-1.01-.61-1.69-.61-.63,0-1.15.13-1.56.39-.41.27-.8.67-1.17,1.22l.63.46c.32-.45.64-.78.95-.99.31-.21.68-.31,1.09-.31s.79.13,1.08.4.45.62.45,1.05c0,.38-.12.74-.35,1.08-.23.35-.64.78-1.24,1.3l-2.76,2.43v.66h5.31v-.78Z"/>
      <path class="cls-3" d="M22.3,97.96c-.87,0-1.61-.38-2.22-1.13l-.62.55c.69.9,1.64,1.36,2.83,1.36.72,0,1.32-.21,1.81-.65.49-.43.73-.98.73-1.64s-.24-1.18-.71-1.54c-.47-.36-1.07-.57-1.8-.62l2.39-2.65v-.63h-4.85v.77h3.71l-2.4,2.7.17.51h.49c.64,0,1.15.13,1.54.38.39.26.59.62.59,1.08s-.16.81-.48,1.09-.71.41-1.18.41Z"/>
      <path class="cls-3" d="M23.61,121.59v1.8h.82v-1.8h1.18v-.72h-1.18v-5.13h-.75l-4.3,5.23.22.62h4ZM23.61,116.96v3.92h-3.19l3.19-3.92Z"/>
      <path class="cls-3" d="M22.22,147.53c-.72,0-1.44-.35-2.16-1.04l-.56.62c.8.8,1.71,1.2,2.71,1.2.8,0,1.45-.23,1.95-.69.51-.46.76-1.06.76-1.8s-.25-1.29-.74-1.71c-.5-.42-1.12-.63-1.88-.63-.48,0-.98.11-1.5.34l.16-2.43h3.62v-.79h-4.37l-.22,3.7.58.38c.54-.29,1.07-.43,1.6-.43.56,0,1.01.15,1.36.45.35.3.53.68.53,1.15,0,.5-.17.91-.51,1.23s-.78.48-1.32.48Z"/>
      <path class="cls-3" d="M21.08,166.94c.4-.62.94-.92,1.62-.92.6,0,1.2.25,1.79.75l.5-.66c-.71-.58-1.46-.87-2.25-.87-.97,0-1.74.39-2.31,1.17-.57.78-.85,1.76-.85,2.95,0,1.29.26,2.23.79,2.83.53.6,1.25.9,2.16.9.77,0,1.42-.24,1.94-.71.52-.48.78-1.08.78-1.81s-.25-1.27-.76-1.71c-.51-.43-1.13-.65-1.86-.65-.91,0-1.63.39-2.16,1.16v-.03c0-.98.2-1.78.61-2.4ZM21.16,169.45c.36-.34.81-.5,1.36-.5s.99.15,1.33.46c.35.31.52.7.52,1.17,0,.51-.17.93-.5,1.26-.34.33-.78.5-1.33.5s-1.02-.16-1.38-.49c-.36-.32-.54-.73-.54-1.21,0-.45.18-.84.54-1.18Z"/>
      <polygon class="cls-3" points="21.36 197.75 24.81 190.79 24.81 190.15 19.66 190.15 19.66 190.93 23.83 190.93 20.4 197.75 21.36 197.75"/>
      <path class="cls-3" d="M20.3,222.04c.54.4,1.22.61,2.04.61s1.5-.2,2.04-.6c.54-.4.81-.92.81-1.56,0-.86-.52-1.49-1.56-1.88.87-.4,1.3-.98,1.3-1.75,0-.59-.26-1.07-.77-1.45-.51-.38-1.12-.58-1.83-.58s-1.32.19-1.83.58c-.51.38-.76.86-.76,1.43,0,.78.43,1.37,1.3,1.77-.48.17-.86.42-1.14.74s-.42.69-.42,1.13c0,.64.27,1.16.81,1.56ZM20.6,216.91c0-.39.16-.71.49-.96s.74-.37,1.24-.37.9.12,1.24.37c.33.25.5.56.5.94,0,.42-.17.76-.5,1.02-.33.26-.75.39-1.24.39s-.91-.13-1.24-.39c-.33-.26-.5-.59-.5-1ZM20.92,219.42c.38-.28.85-.41,1.42-.41s1.03.14,1.41.41c.38.27.58.62.58,1.04s-.18.76-.54,1.03c-.36.28-.84.41-1.45.41s-1.09-.14-1.45-.41c-.36-.27-.54-.61-.54-1.01,0-.43.19-.78.57-1.05Z"/>
      <path class="cls-3" d="M23.77,245.76c-.42.6-.96.91-1.63.91-.63,0-1.25-.27-1.87-.81l-.5.66c.75.62,1.53.93,2.34.93.93,0,1.69-.38,2.28-1.15s.88-1.75.88-2.96c0-1.29-.27-2.24-.8-2.84-.53-.6-1.25-.9-2.14-.9-.8,0-1.45.25-1.96.74-.51.49-.77,1.11-.77,1.84s.25,1.27.74,1.71c.49.44,1.13.67,1.91.67.93,0,1.64-.4,2.15-1.21v.1c0,.95-.21,1.72-.62,2.33ZM23.71,243.3c-.35.35-.8.52-1.36.52s-1-.15-1.35-.46c-.35-.31-.52-.71-.52-1.2s.17-.92.5-1.28c.33-.35.77-.53,1.32-.53s1.03.16,1.39.49c.36.33.54.74.54,1.23,0,.46-.17.87-.53,1.22Z"/>
      <polygon class="cls-3" points="19.4 265.35 19.4 272.11 20.25 272.11 20.25 264.46 19.62 264.46 17.77 265.1 17.97 265.79 19.4 265.35"/>
      <path class="cls-3" d="M27.56,265.51c-.59-.76-1.36-1.13-2.31-1.13s-1.73.38-2.33,1.15-.9,1.69-.9,2.78.29,2.04.88,2.79c.59.76,1.36,1.13,2.32,1.13s1.73-.38,2.32-1.14c.59-.76.89-1.69.89-2.78s-.29-2.04-.88-2.79ZM26.91,270.54c-.42.61-.98.92-1.67.92s-1.25-.31-1.68-.93c-.43-.62-.65-1.36-.65-2.22s.21-1.62.64-2.23.98-.92,1.67-.92,1.25.31,1.68.93c.43.62.65,1.36.65,2.22s-.21,1.62-.64,2.23Z"/>
      <polygon class="cls-3" points="19.22 289.88 19.43 290.58 20.86 290.13 20.86 296.89 21.71 296.89 21.71 289.24 21.08 289.24 19.22 289.88"/>
      <polygon class="cls-3" points="25.59 296.89 25.59 289.24 24.96 289.24 23.11 289.88 23.31 290.58 24.75 290.13 24.75 296.89 25.59 296.89"/>
      <polygon class="cls-3" points="17.77 314.67 17.97 315.36 19.4 314.92 19.4 321.68 20.25 321.68 20.25 314.03 19.62 314.03 17.77 314.67"/>
      <path class="cls-3" d="M25.18,319.1c.72-.64,1.22-1.16,1.5-1.56.28-.41.42-.87.42-1.39,0-.63-.22-1.15-.67-1.56-.44-.41-1.01-.61-1.69-.61-.63,0-1.15.13-1.56.4s-.8.67-1.17,1.22l.63.46c.32-.45.64-.78.95-.99.31-.21.68-.31,1.09-.31s.79.13,1.08.4.45.62.45,1.05c0,.38-.12.74-.35,1.09s-.64.78-1.24,1.3l-2.76,2.43v.66h5.31v-.78h-4.03l2.03-1.8Z"/>
    </g>
    <g>
      <path class="cls-6" d="M54.79,47.08h-.35l-.04.08c-.7,1.35-1.16,1.59-2.11,1.59h-1.46c-.24,0-.33-.08-.33-.29v-3.05h1.3c.86,0,1.03.27,1.2,1.21l.02.12h.33v-3.05h-.33l-.02.12c-.16.89-.35,1.16-1.2,1.16h-1.3v-3.24h1.53c1.1,0,1.47.28,1.96,1.48l.03.09h.35l-.38-1.9-.02-.11h-5.43v.34h.13c.74.05.74.13.74.41v6.42c0,.27,0,.35-.74.4h-.13v.35h5.61l.64-2.12Z"/>
      <path class="cls-6" d="M59.54,48.86h-.13c-1.05-.07-1.19-.25-1.19-.96v-5.31l4.87,6.67.04.06h.29v-6.72c0-.71.17-.89.9-.95h.13v-.35h-2.86v.34h.13c1.06.07,1.2.26,1.2.96v4.63l-4.23-5.87-.04-.06h-1.96v.34h.13c.74.07.9.24.9.96v5.31c0,.72-.17.89-.9.95h-.13v.35h2.86v-.35Z"/>
      <path class="cls-6" d="M66.59,43.2c.53-1.3.87-1.48,1.93-1.48h.63v6.73c0,.27,0,.35-.74.4h-.13v.35h2.83v-.35h-.13c-.74-.05-.74-.13-.74-.4v-6.73h.63c1.06,0,1.4.17,1.93,1.48l.03.09h.35l-.42-2.05v-.05s-.15.03-.15.03c-.2.04-.55.06-.98.06h-3.86c-.43,0-.8-.02-.99-.06l-.14-.03-.42,2.1h.34l.03-.09Z"/>
      <path class="cls-6" d="M78.02,48.85h-.13c-.86-.05-.86-.14-.86-.4v-3.03h.46c.19,0,.26,0,.48.36l1.44,2.31c.6.97,1.02,1.15,1.67,1.15.23,0,.53-.02.7-.04h.12v-.34h-.13c-.43-.05-.82-.4-1.42-1.31l-1.53-2.29c.86-.25,1.86-.8,1.86-2.01,0-.9-.53-1.97-3.07-1.97h-2.54v.34h.13c.74.06.74.13.74.39v6.44c0,.27,0,.35-.74.4h-.13v.35h2.96v-.35ZM77.53,44.98h-.51v-3.26h.4c.97,0,2.13.29,2.13,1.68,0,.98-.77,1.58-2.01,1.58Z"/>
      <path class="cls-6" d="M85.62,48.86h-.13c-.42-.04-.66-.12-.76-.26-.08-.13-.07-.34.05-.66l.62-1.73h2.47l.76,2.13c.07.21.09.32.06.37-.08.12-.54.14-.68.14h-.13v.35h2.89v-.34h-.13c-.61-.07-.7-.16-1-.97l-2-5.51c-.25-.68-.3-.84-.38-1.2l-.03-.11h-.24l-.04.05c-.15.19-.44.33-.67.38l-.15.04.23.58-2.04,5.66c-.31.82-.62,1.01-1.05,1.06h-.12v.35h2.5v-.34ZM85.57,45.73l1.06-2.97,1.06,2.97h-2.12Z"/>
      <path class="cls-6" d="M95.29,48.86h-.13c-1.05-.07-1.19-.25-1.19-.96v-5.31l4.87,6.67.04.06h.28v-6.72c0-.71.17-.89.9-.95h.13v-.35h-2.86v.34h.13c1.06.07,1.2.26,1.2.96v4.63l-4.23-5.87-.04-.06h-1.96v.34h.13c.74.07.9.24.9.96v5.31c0,.72-.17.89-.9.95h-.13v.35h2.86v-.35Z"/>
      <path class="cls-6" d="M105.91,49.31c1.6,0,2.92-.89,3.62-2.45l.06-.13-.36-.14-.06.11c-.62,1.22-1.65,1.93-2.8,1.93-1.83,0-3.05-1.46-3.05-3.64,0-1.94,1.2-3.36,2.85-3.36,1.32,0,2.33.75,2.84,2.13l.03.09h.33l-.28-2.44-.02-.12h-.33l-.02.12c-.04.34-.11.34-.13.34-.04,0-.15-.05-.27-.1-.37-.16-1.05-.47-2.16-.47-2.27,0-4.06,1.84-4.06,4.18s1.59,3.95,3.79,3.95Z"/>
      <path class="cls-6" d="M117.88,47.08h-.35l-.04.08c-.7,1.35-1.16,1.59-2.11,1.59h-1.46c-.24,0-.33-.08-.33-.29v-3.05h1.3c.86,0,1.03.27,1.2,1.21l.02.12h.33v-3.05h-.33l-.02.12c-.16.89-.35,1.16-1.2,1.16h-1.3v-3.24h1.53c1.1,0,1.47.28,1.96,1.48l.03.09h.35l-.38-1.9-.02-.11h-5.43v.34h.13c.74.05.74.13.74.41v6.42c0,.27,0,.35-.74.4h-.13v.35h5.61l.64-2.12Z"/>
      <path class="cls-6" d="M126.68,48.86h-.13c-.74-.05-.74-.13-.74-.4v-3.03h3.94v3.03c0,.27,0,.35-.74.4h-.13v.35h2.83v-.35h-.13c-.74-.05-.74-.13-.74-.4v-6.42c0-.27,0-.35.74-.4h.13v-.35h-2.83v.34h.13c.74.05.74.13.74.41v2.92h-3.94v-2.92c0-.27,0-.35.74-.4h.13v-.35h-2.83v.34h.13c.74.05.74.13.74.41v6.42c0,.27,0,.35-.74.4h-.13v.35h2.83v-.35Z"/>
      <path class="cls-6" d="M136,48.86h-.13c-.41-.04-.66-.12-.75-.26-.08-.13-.07-.34.05-.66l.62-1.73h2.47l.76,2.13c.07.2.09.32.06.37-.08.12-.54.14-.68.14h-.13v.35h2.89v-.34h-.13c-.61-.07-.7-.16-1-.97l-2.01-5.51c-.26-.71-.3-.85-.38-1.2l-.03-.11h-.24l-.04.05c-.15.19-.44.33-.67.38l-.15.04.23.58-2.04,5.66c-.31.82-.62,1.01-1.05,1.06h-.12v.35h2.49v-.34ZM135.95,45.73l1.06-2.97,1.06,2.97h-2.12Z"/>
      <path class="cls-6" d="M148.84,47.13l.02-.06h-.35l-.04.08c-.66,1.27-1.12,1.62-2.13,1.62h-1.16c-.25,0-.33-.07-.33-.29v-6.43c0-.27,0-.35.74-.4h.13v-.35h-2.83v.34h.13c.74.05.74.13.74.41v6.42c0,.26,0,.35-.74.4h-.13v.35h5.32l.62-2.07Z"/>
      <path class="cls-6" d="M156.63,47.13l.02-.06h-.35l-.04.08c-.66,1.27-1.12,1.62-2.13,1.62h-1.16c-.25,0-.33-.07-.33-.29v-6.43c0-.27,0-.35.74-.4h.13v-.35h-2.83v.34h.13c.74.05.74.13.74.41v6.42c0,.26,0,.35-.74.4h-.13v.35h5.33l.62-2.07Z"/>
      <path class="cls-6" d="M54.49,71.91l.02-.06h-.35l-.04.08c-.66,1.27-1.12,1.62-2.13,1.62h-1.16c-.25,0-.33-.07-.33-.29v-6.43c0-.27,0-.35.74-.4h.13v-.35h-2.83v.34h.13c.74.05.74.13.74.41v6.42c0,.26,0,.35-.74.4h-.13v.35h5.33l.62-2.07Z"/>
      <path class="cls-6" d="M59.2,73.64h-.13c-.77-.05-.77-.13-.77-.4v-6.42c0-.27,0-.35.77-.4h.13v-.35h-2.9v.34h.13c.77.05.77.13.77.41v6.42c0,.27,0,.35-.77.4h-.13v.35h2.9v-.35Z"/>
      <path class="cls-6" d="M65.06,72.29l-1.96-5.35c-.06-.15-.11-.32-.07-.38.08-.11.52-.13.67-.14h.13v-.35h-2.89v.34h.13c.62.07.73.17,1.04.97l2.46,6.62.03.09h.33l2.46-6.61c.31-.79.53-1.01,1.11-1.07h.12v-.35h-2.63v.34h.13c.46.04.75.13.84.27.08.12.06.32-.07.65l-1.83,4.96Z"/>
      <path class="cls-6" d="M70.33,66.41h.13c.77.05.77.13.77.41v6.42c0,.27,0,.35-.77.4h-.13v.35h2.9v-.35h-.13c-.77-.05-.77-.13-.77-.4v-6.42c0-.27,0-.35.77-.4h.13v-.35h-2.9v.34Z"/>
      <path class="cls-6" d="M80.17,66.41h.13c1.06.07,1.2.26,1.2.96v4.63l-4.23-5.87-.04-.06h-1.96v.34h.13c.74.07.9.24.9.96v5.31c0,.72-.17.89-.9.95h-.13v.35h2.86v-.35h-.13c-1.05-.07-1.19-.25-1.19-.96v-5.31l4.87,6.67.04.06h.28v-6.72c0-.71.17-.89.9-.95h.13v-.35h-2.86v.34Z"/>
      <path class="cls-6" d="M84.96,70.16c0,2.35,1.7,3.93,4.22,3.93,1.13,0,2.49-.36,3.39-.9l.11-.07-.14-.29-.12.04c-.16.06-.2.05-.2.05h0s-.02-.02-.02-.13v-1.64c0-.27,0-.34.71-.38h.13v-.36h-3.07v.36h.13c1.01.05,1.01.13,1.01.4v1.79c0,.44-1.07.68-1.8.68-1.52,0-3.15-1.2-3.15-3.85,0-1.95,1.2-3.37,2.85-3.37,1.3,0,2.33.76,2.83,2.08l.03.09h.33l-.28-2.4-.02-.12h-.32l-.02.12c-.05.34-.11.34-.13.34-.04,0-.16-.05-.27-.1-.4-.17-1.06-.46-2.15-.46-2.27,0-4.06,1.85-4.06,4.2Z"/>
      <path class="cls-6" d="M99.04,66.41h.13c.74.06.74.13.74.39v6.44c0,.27,0,.35-.74.4h-.13v.35h2.96v-.35h-.13c-.86-.05-.86-.14-.86-.4v-3.03h.46c.19,0,.26,0,.48.36l1.44,2.31c.6.97,1.02,1.15,1.67,1.15.22,0,.53-.02.7-.04l.12-.02v-.33h-.13c-.44-.05-.82-.4-1.42-1.31l-1.53-2.29c.86-.25,1.86-.8,1.86-2.01,0-.9-.53-1.97-3.07-1.97h-2.54v.34ZM101.51,69.77h-.51v-3.26h.4c.97,0,2.13.29,2.13,1.68,0,.98-.77,1.58-2.01,1.58Z"/>
      <path class="cls-6" d="M107.3,70.12c0,2.3,1.62,3.97,3.86,3.97,2.35,0,4.06-1.75,4.06-4.16s-1.64-3.97-3.91-3.97-4,1.75-4,4.16ZM111.34,73.63c-1.62,0-2.84-1.64-2.84-3.81,0-2.01,1.08-3.41,2.62-3.41,1.64,0,2.88,1.64,2.88,3.81,0,2.01-1.1,3.41-2.66,3.41Z"/>
      <path class="cls-6" d="M121.45,74.09c2.35,0,4.06-1.75,4.06-4.16s-1.64-3.97-3.91-3.97-4,1.75-4,4.16,1.62,3.97,3.86,3.97ZM121.64,73.63c-1.62,0-2.84-1.64-2.84-3.81,0-2.01,1.08-3.41,2.62-3.41,1.64,0,2.88,1.64,2.88,3.81,0,2.01-1.09,3.41-2.66,3.41Z"/>
      <path class="cls-6" d="M129.86,66.16l-.03-.1h-2.27v.34h.13c.76.07.91.15.9.86l-.13,5.42c0,.73-.17.9-.9.95h-.13v.35h2.72v-.34h-.13c-.9-.07-1.07-.23-1.05-.96l.12-5.39,2.49,6.61.03.09h.33l2.53-6.7.12,5.95c0,.28-.02.35-.73.39h-.13v.35h2.82v-.35h-.13c-.72-.05-.72-.12-.73-.41l-.13-6.42c0-.28.02-.35.73-.39h.13v-.35h-2.14l-.02.12c-.03.2-.17.65-.39,1.24l-1.78,4.79-1.86-5c-.16-.4-.27-.75-.38-1.05Z"/>
      <path class="cls-6" d="M51.37,98.43h-.13c-.74-.05-.74-.13-.74-.4v-2.62l.27-.29c.09-.09.12-.11.14-.11.02,0,.06,0,.12.08l2.35,2.91c.17.23.15.29.15.3,0,0-.06.1-.54.11h-.14v.35h2.9v-.34h-.12c-.54-.07-.77-.24-1.33-1.01l-2.59-3.23,1.61-1.66c1.07-1.08,1.73-1.28,2.18-1.32h.12v-.35h-2.71v.35h.14c.39.01.45.1.47.13.02.06.01.26-.58.88l-2.44,2.53v-3.14c0-.27,0-.35.74-.4h.13v-.35h-2.83v.35h.13c.74.05.74.13.74.4v6.43c0,.27,0,.35-.74.4h-.13v.35h2.83v-.34Z"/>
      <path class="cls-6" d="M60.28,91.2h.13v-.35h-2.9v.35h.13c.77.05.77.13.77.4v6.43c0,.27,0,.35-.77.4h-.13v.35h2.9v-.34h-.13c-.77-.05-.77-.13-.77-.4v-6.43c0-.27,0-.35.77-.4Z"/>
      <path class="cls-6" d="M68.81,90.76l-.14.03c-.19.04-.54.06-.98.06h-3.86c-.44,0-.8-.02-.99-.06l-.14-.03-.42,2.1h.34l.03-.09c.53-1.3.87-1.48,1.93-1.48h.63v6.73c0,.27,0,.35-.74.4h-.13v.35h2.83v-.34h-.13c-.74-.05-.74-.13-.74-.4v-6.73h.63c1.06,0,1.4.17,1.93,1.48l.03.09h.35l-.4-1.96-.03-.14Z"/>
      <path class="cls-6" d="M75.15,91.2c1.32,0,2.33.75,2.84,2.12l.03.09h.33l-.28-2.45-.02-.12h-.33l-.02.12c-.04.34-.11.34-.13.34-.04,0-.14-.05-.25-.09h-.02c-.37-.17-1.05-.47-2.16-.47-2.27,0-4.06,1.84-4.06,4.18s1.59,3.95,3.79,3.95c1.6,0,2.92-.89,3.62-2.44l.06-.13-.36-.15-.06.11c-.62,1.23-1.64,1.93-2.8,1.93-1.83,0-3.05-1.46-3.05-3.64,0-1.94,1.2-3.36,2.85-3.36Z"/>
      <path class="cls-6" d="M80.74,98.42h-.13v.35h2.83v-.34h-.13c-.74-.05-.74-.13-.74-.4v-3.03h3.94v3.03c0,.27,0,.35-.74.4h-.13v.35h2.83v-.34h-.13c-.74-.05-.74-.13-.74-.4v-6.43c0-.27,0-.35.74-.4h.13v-.35h-2.83v.35h.13c.74.05.74.13.74.4v2.93h-3.94v-2.93c0-.27,0-.35.74-.4h.13v-.35h-2.83v.35h.13c.74.05.74.13.74.4v6.43c0,.27,0,.35-.74.4Z"/>
      <path class="cls-6" d="M90.75,98.42h-.13v.35h5.61l.64-2.12h-.35l-.04.08c-.7,1.35-1.16,1.59-2.11,1.59h-1.46c-.24,0-.33-.08-.33-.29v-3.05h1.3c.86,0,1.04.27,1.2,1.21l.02.12h.33v-3.05h-.33l-.02.12c-.16.89-.35,1.17-1.2,1.17h-1.3v-3.24h1.53c1.1,0,1.47.28,1.96,1.48l.03.09h.35l-.38-1.9-.02-.11h-5.43v.35h.13c.74.05.74.13.74.4v6.43c0,.27,0,.35-.74.4Z"/>
      <path class="cls-6" d="M98.89,98.42h-.13v.35h2.86v-.34h-.13c-1.05-.07-1.19-.26-1.19-.96v-5.31l4.87,6.67.04.06h.29v-6.72c0-.71.17-.89.9-.95h.13v-.35h-2.86v.35h.13c1.05.07,1.2.27,1.2.96v4.63l-4.23-5.87-.04-.06h-1.96v.34h.13c.73.07.9.25.9.96v5.31c0,.72-.16.89-.9.95Z"/>
      <path class="cls-6" d="M51.09,123.22c-.99,0-1.69-.64-2.14-1.96l-.03-.09h-.34l.26,2.26.02.12h.32l.02-.11c.03-.13.05-.15.06-.15.04,0,.17.04.29.08.34.11.86.28,1.54.28,1.45,0,2.54-1.01,2.54-2.35,0-.97-.59-1.7-1.8-2.21l-.62-.26c-1.17-.49-1.41-.99-1.41-1.58,0-.89.68-1.29,1.35-1.29.81,0,1.47.62,1.86,1.75l.03.09h.33l-.22-2.13v-.04h-.33l-.02.11c-.03.13-.05.15-.05.15-.04,0-.16-.05-.27-.09-.29-.11-.73-.28-1.33-.28-1.26,0-2.22.95-2.22,2.21,0,.93.59,1.65,1.74,2.14l.62.26c1.01.42,1.46.92,1.46,1.61,0,.89-.66,1.47-1.68,1.47Z"/>
      <path class="cls-6" d="M59.87,123.66c2.35,0,4.06-1.75,4.06-4.16s-1.64-3.97-3.91-3.97-4,1.75-4,4.16,1.62,3.97,3.86,3.97ZM60.06,123.21c-1.62,0-2.84-1.64-2.84-3.81,0-2.01,1.08-3.41,2.62-3.41,1.64,0,2.88,1.64,2.88,3.81,0,2.01-1.1,3.41-2.66,3.41Z"/>
      <path class="cls-6" d="M66.31,119.71c0,2.29,1.59,3.95,3.79,3.95,1.6,0,2.92-.89,3.62-2.44l.06-.13-.36-.15-.06.11c-.62,1.23-1.64,1.93-2.8,1.93-1.83,0-3.05-1.46-3.05-3.64,0-1.94,1.2-3.36,2.85-3.36,1.32,0,2.33.75,2.84,2.12l.03.09h.33l-.28-2.44-.02-.12h-.33l-.02.12c-.03.23-.07.34-.13.34-.04,0-.15-.05-.27-.1-.37-.16-1.05-.47-2.16-.47-2.27,0-4.06,1.84-4.06,4.18Z"/>
      <path class="cls-6" d="M75.79,115.98h.13c.77.05.77.13.77.4v6.43c0,.27,0,.35-.77.4h-.13v.35h2.9v-.34h-.13c-.77-.05-.77-.13-.77-.4v-6.43c0-.27,0-.35.77-.4h.13v-.35h-2.9v.35Z"/>
      <path class="cls-6" d="M80.45,123.22v.33h2.49v-.34h-.13c-.41-.04-.66-.12-.75-.26-.08-.13-.07-.34.05-.66l.62-1.73h2.47l.76,2.13c.07.2.09.32.06.37-.08.12-.54.14-.68.14h-.13v.35h2.89v-.34h-.13c-.61-.07-.7-.16-1-.97l-2.01-5.51c-.26-.7-.3-.85-.38-1.2l-.03-.11h-.24l-.04.05c-.15.19-.45.33-.67.38l-.16.04.23.58-2.04,5.66c-.31.82-.62,1.01-1.05,1.07l-.12.02ZM82.9,120.09l1.06-2.97,1.06,2.97h-2.12Z"/>
      <path class="cls-6" d="M89.97,123.21h-.13v.35h5.33l.62-2.07.02-.06h-.35l-.04.08c-.66,1.27-1.12,1.61-2.13,1.61h-1.16c-.25,0-.33-.07-.33-.29v-6.44c0-.27,0-.35.74-.4h.13v-.35h-2.83v.35h.13c.74.05.74.13.74.4v6.43c0,.26,0,.35-.74.4Z"/>
      <path class="cls-6" d="M106.74,117.53c0-1.2-1-1.89-2.74-1.89h-2.63v.35h.13c.74.05.74.13.74.4v6.43c0,.27,0,.35-.74.4h-.13v.35h2.73c1.87,0,3.12-.93,3.12-2.31s-1.05-1.82-1.78-2c.54-.22,1.29-.71,1.29-1.72ZM103.32,119.11v-3.03h.58c1.12,0,1.77.57,1.77,1.56,0,.93-.66,1.47-1.81,1.47h-.53ZM103.32,119.56h.65c1.32,0,2.11.67,2.11,1.79s-.76,1.76-2.04,1.76c-.71,0-.71-.09-.71-.33v-3.22Z"/>
      <path class="cls-6" d="M111.19,123.21h-.13c-.41-.04-.66-.12-.75-.26-.08-.13-.07-.34.05-.66l.62-1.73h2.47l.76,2.13c.07.2.09.32.06.37-.08.12-.54.14-.68.14h-.13v.35h2.89v-.34h-.13c-.61-.07-.7-.16-1-.97l-2.01-5.51c-.26-.7-.3-.85-.38-1.2l-.03-.11h-.24l-.04.05c-.15.19-.45.33-.67.38l-.16.04.23.58-2.04,5.66c-.31.82-.62,1.01-1.05,1.07l-.12.02v.33h2.49v-.34ZM111.14,120.09l1.06-2.97,1.06,2.97h-2.12Z"/>
      <path class="cls-6" d="M121.61,123.21h-.13c-.74-.05-.74-.13-.74-.4v-6.73h.63c1.06,0,1.4.17,1.93,1.48l.03.09h.35l-.4-1.96-.03-.14-.14.03c-.19.04-.54.06-.98.06h-3.86c-.44,0-.8-.02-.99-.06l-.14-.03-.42,2.1h.34l.03-.09c.53-1.3.87-1.48,1.93-1.48h.63v6.73c0,.27,0,.35-.74.4h-.13v.35h2.83v-.34Z"/>
      <path class="cls-6" d="M125.71,123.21h-.13v.35h2.83v-.34h-.13c-.74-.05-.74-.13-.74-.4v-3.03h3.94v3.03c0,.27,0,.35-.74.4h-.13v.35h2.83v-.34h-.13c-.74-.05-.74-.13-.74-.4v-6.43c0-.27,0-.35.74-.4h.13v-.35h-2.83v.35h.13c.74.05.74.13.74.4v2.93h-3.94v-2.93c0-.27,0-.35.74-.4h.13v-.35h-2.83v.35h.13c.74.05.74.13.74.4v6.43c0,.27,0,.35-.74.4Z"/>
      <path class="cls-6" d="M141.2,117.6c0-.9-.53-1.97-3.07-1.97h-2.54v.34h.13c.74.06.74.13.74.39v6.44c0,.27,0,.35-.74.4h-.13v.35h2.96v-.35h-.13c-.87-.05-.87-.14-.87-.4v-3.03h.46c.19,0,.26,0,.48.37l1.44,2.31c.6.98,1.02,1.15,1.67,1.15.23,0,.52-.02.7-.04h.12v-.34h-.13c-.44-.05-.82-.4-1.42-1.31l-1.53-2.3c.86-.25,1.86-.8,1.86-2ZM138.06,119.34h-.51v-3.26h.4c.97,0,2.13.29,2.13,1.68,0,.98-.77,1.58-2.01,1.58Z"/>
      <path class="cls-6" d="M143.84,119.69c0,2.3,1.62,3.97,3.86,3.97,2.35,0,4.06-1.75,4.06-4.16s-1.64-3.97-3.91-3.97-4,1.75-4,4.16ZM145.05,119.4c0-2.01,1.08-3.41,2.62-3.41,1.64,0,2.88,1.64,2.88,3.81,0,2.01-1.1,3.41-2.66,3.41s-2.84-1.64-2.84-3.81Z"/>
      <path class="cls-6" d="M154.15,119.69c0,2.3,1.62,3.97,3.86,3.97,2.35,0,4.06-1.75,4.06-4.16s-1.64-3.97-3.91-3.97-4,1.75-4,4.16ZM158.19,123.21c-1.62,0-2.84-1.64-2.84-3.81,0-2.01,1.08-3.41,2.62-3.41,1.64,0,2.88,1.64,2.88,3.81,0,2.01-1.1,3.41-2.66,3.41Z"/>
      <path class="cls-6" d="M171.14,122.81c0,.28-.02.35-.73.39h-.13v.35h2.82v-.34h-.13c-.72-.05-.72-.13-.73-.41l-.13-6.43c0-.28.02-.35.73-.39h.13v-.35h-2.14l-.02.12c-.03.2-.17.63-.39,1.25l-1.78,4.79-1.86-5c-.15-.38-.26-.7-.37-1.05l-.03-.1h-2.27v.34h.13c.76.07.91.14.9.85l-.13,5.42c0,.73-.17.89-.9.95h-.13v.35h2.72v-.34h-.13c-.9-.07-1.07-.23-1.05-.96l.12-5.4,2.49,6.61.03.09h.33l2.53-6.7.12,5.95Z"/>
      <path class="cls-6" d="M54.49,146.27l.02-.06h-.35l-.04.08c-.66,1.27-1.12,1.62-2.13,1.62h-1.16c-.25,0-.33-.07-.33-.29v-6.43c0-.27,0-.35.74-.4h.13v-.35h-2.83v.34h.13c.74.05.74.13.74.41v6.42c0,.26,0,.35-.74.4h-.13v.35h5.32l.62-2.07Z"/>
      <path class="cls-6" d="M58.44,148h-.13c-.42-.04-.66-.12-.76-.26-.08-.13-.07-.34.05-.66l.62-1.73h2.47l.76,2.13c.07.21.09.32.06.37-.08.12-.54.14-.68.14h-.13v.35h2.89v-.34h-.13c-.61-.07-.7-.16-1-.97l-2-5.51c-.25-.68-.3-.84-.38-1.2l-.03-.11h-.24l-.04.05c-.15.19-.44.33-.67.38l-.15.04.23.58-2.04,5.66c-.31.82-.62,1.01-1.05,1.06h-.12v.35h2.5v-.34ZM58.39,144.87l1.06-2.97,1.06,2.97h-2.12Z"/>
      <path class="cls-6" d="M71.35,145.45v-3.73c0-.71.17-.89.9-.95h.13v-.35h-2.76v.34h.13c.91.07,1.1.23,1.1.96v3.73c0,1.59-.72,2.4-2.13,2.4s-2.08-.84-2.08-2.42v-4.26c0-.27,0-.35.74-.4h.13v-.35h-2.83v.34h.13c.74.05.74.13.74.41v4.32c0,1.93.99,2.95,2.86,2.95s2.93-1.04,2.93-3Z"/>
      <path class="cls-6" d="M76.26,140.48l-.04-.06h-1.96v.34h.13c.74.07.9.24.9.96v5.31c0,.72-.17.89-.9.95h-.13v.35h2.86v-.35h-.13c-1.05-.07-1.19-.25-1.19-.96v-5.31l4.87,6.67.04.06h.29v-6.72c0-.71.17-.89.9-.95h.13v-.35h-2.86v.34h.13c1.06.07,1.2.26,1.2.96v4.63l-4.23-5.87Z"/>
      <path class="cls-6" d="M91.59,144.29c0-2.31-1.8-3.87-4.49-3.87h-3.07v.34h.13c.74.05.74.13.74.41v6.42c0,.27,0,.35-.74.4h-.13v.35h2.95c2.67,0,4.6-1.71,4.6-4.06ZM90.39,144.58c0,1.95-1.35,3.32-3.27,3.32-1.12,0-1.12-.14-1.12-.41v-6.62h.97c2.01,0,3.42,1.53,3.42,3.71Z"/>
      <path class="cls-6" d="M96.21,140.42h-2.54v.34h.13c.74.06.74.13.74.39v6.44c0,.27,0,.35-.74.4h-.13v.35h2.96v-.35h-.13c-.86-.05-.86-.14-.86-.4v-3.03h.46c.19,0,.26,0,.48.36l1.44,2.31c.6.97,1.02,1.15,1.67,1.15.22,0,.53-.02.7-.04l.12-.02v-.33h-.13c-.44-.05-.82-.4-1.42-1.31l-1.53-2.29c.86-.25,1.86-.8,1.86-2.01,0-.9-.53-1.97-3.07-1.97ZM96.14,144.13h-.51v-3.26h.4c.97,0,2.13.29,2.13,1.68,0,.98-.77,1.58-2.01,1.58Z"/>
      <path class="cls-6" d="M107,141.9c.48-.89.8-1.07,1.34-1.12h.12v-.35h-2.63v.34h.13c.42.04.67.12.74.25.06.12,0,.33-.17.66l-1.49,2.72-1.69-3.1c-.06-.1-.19-.34-.16-.4.01-.02.09-.1.57-.11h.13v-.35h-2.9v.34h.13c.61.07.81.18,1.25,1.03l1.81,3.31v2.49c0,.27,0,.35-.74.4h-.13v.35h2.83v-.35h-.13c-.74-.05-.74-.13-.74-.4v-2.59l1.73-3.11Z"/>
      <path class="cls-6" d="M51.09,172.8c-.99,0-1.69-.64-2.14-1.96l-.03-.09h-.34l.26,2.27.02.12h.32l.02-.11c.03-.14.05-.15.06-.15.04,0,.15.04.26.07h.02c.32.11.86.29,1.54.29,1.45,0,2.54-1.01,2.54-2.36,0-.97-.59-1.69-1.8-2.21l-.62-.26c-1.17-.49-1.41-.99-1.41-1.58,0-.95.73-1.29,1.35-1.29.81,0,1.47.62,1.86,1.75l.03.09h.33l-.22-2.13v-.04h-.33l-.02.11c-.03.13-.04.15-.05.15-.04,0-.16-.05-.27-.09-.29-.11-.73-.28-1.33-.28-1.26,0-2.22.95-2.22,2.21,0,.93.59,1.65,1.74,2.14l.62.26c1.01.42,1.46.92,1.46,1.62,0,.89-.66,1.47-1.68,1.47Z"/>
      <path class="cls-6" d="M56.65,165.96v4.32c0,1.93.99,2.95,2.86,2.95s2.93-1.04,2.93-3v-3.73c0-.71.17-.89.9-.95h.13v-.35h-2.76v.34h.13c.91.07,1.1.23,1.1.96v3.73c0,1.59-.72,2.4-2.13,2.4s-2.08-.84-2.08-2.42v-4.26c0-.27,0-.35.74-.4h.13v-.35h-2.83v.34h.13c.74.05.74.13.74.41Z"/>
      <path class="cls-6" d="M68.1,165.56h.13v-.35h-2.9v.34h.13c.77.05.77.13.77.41v6.42c0,.27,0,.35-.77.4h-.13v.35h2.9v-.35h-.13c-.77-.05-.77-.13-.77-.4v-6.42c0-.27,0-.35.77-.4Z"/>
      <path class="cls-6" d="M72.3,172.78h-.13v.35h2.83v-.35h-.13c-.74-.05-.74-.13-.74-.4v-6.73h.63c1.06,0,1.4.17,1.93,1.48l.03.09h.35l-.42-2.05v-.05s-.15.03-.15.03c-.2.04-.55.06-.98.06h-3.86c-.43,0-.8-.02-.99-.06l-.14-.03-.42,2.1h.34l.03-.09c.53-1.3.87-1.48,1.93-1.48h.63v6.73c0,.27,0,.35-.74.4Z"/>
      <path class="cls-6" d="M82.45,165.65c1.1,0,1.47.28,1.96,1.48l.03.09h.35l-.38-1.9-.02-.11h-5.43v.34h.13c.74.05.74.13.74.41v6.42c0,.27,0,.35-.74.4h-.13v.35h5.61l.64-2.12h-.35l-.04.08c-.7,1.35-1.16,1.59-2.11,1.59h-1.46c-.24,0-.33-.08-.33-.29v-3.05h1.3c.86,0,1.04.27,1.2,1.21l.02.12h.33v-3.05h-.33l-.02.12c-.16.89-.35,1.16-1.2,1.16h-1.3v-3.24h1.53Z"/>
      <path class="cls-6" d="M91.28,172.78h-.13v.35h3.05v-.35h-.13c-.81-.05-.81-.13-.81-.4v-7.28h-.28l-.04.04c-.42.44-1,.71-1.65.76h-.13v.35h.14c.32.01.63.04.92.08v6.04c0,.26,0,.35-.93.4Z"/>
      <polygon class="cls-6" points="103.12 171.56 103.12 169.46 105.15 169.46 105.15 168.97 103.12 168.97 103.12 166.87 102.61 166.87 102.61 168.97 100.59 168.97 100.59 169.46 102.61 169.46 102.61 171.56 103.12 171.56"/>
      <path class="cls-6" d="M115.75,165.56c1.32,0,2.33.75,2.84,2.13l.03.09h.33l-.28-2.45-.02-.12h-.33l-.02.12c-.04.34-.11.34-.13.34-.04,0-.14-.05-.25-.09h-.02c-.37-.17-1.05-.47-2.16-.47-2.27,0-4.06,1.84-4.06,4.18s1.59,3.95,3.79,3.95c1.6,0,2.92-.89,3.62-2.45l.06-.13-.36-.14-.06.11c-.62,1.22-1.65,1.93-2.8,1.93-1.83,0-3.05-1.46-3.05-3.64,0-1.94,1.2-3.36,2.85-3.36Z"/>
      <path class="cls-6" d="M127.15,171.06l.02-.06h-.35l-.04.08c-.66,1.27-1.12,1.62-2.13,1.62h-1.16c-.25,0-.33-.07-.33-.29v-6.43c0-.27,0-.35.74-.4h.13v-.35h-2.83v.34h.13c.74.05.74.13.74.41v6.42c0,.26,0,.35-.74.4h-.13v.35h5.33l.62-2.07Z"/>
      <path class="cls-6" d="M128.96,169.26c0,2.3,1.62,3.97,3.86,3.97,2.35,0,4.06-1.75,4.06-4.16s-1.64-3.97-3.91-3.97-4,1.75-4,4.16ZM130.16,168.97c0-2.01,1.08-3.41,2.62-3.41,1.64,0,2.88,1.64,2.88,3.81,0,2.01-1.09,3.41-2.66,3.41s-2.84-1.64-2.84-3.81Z"/>
      <path class="cls-6" d="M144.24,170.88c0-.97-.59-1.69-1.8-2.21l-.62-.26c-1.17-.49-1.41-.99-1.41-1.58,0-.95.73-1.29,1.35-1.29.81,0,1.47.62,1.86,1.75l.03.09h.33l-.22-2.13v-.04h-.33l-.02.11c-.03.13-.04.15-.05.15-.04,0-.16-.05-.27-.09-.29-.11-.73-.28-1.33-.28-1.26,0-2.22.95-2.22,2.21,0,.93.59,1.65,1.74,2.14l.62.26c1.01.42,1.46.92,1.46,1.62,0,.89-.66,1.47-1.68,1.47s-1.69-.64-2.14-1.96l-.03-.09h-.34l.26,2.27.02.12h.32l.02-.11c.03-.13.05-.15.06-.15.04,0,.16.04.27.08h.02c.34.12.86.29,1.54.29,1.45,0,2.54-1.01,2.54-2.36Z"/>
      <path class="cls-6" d="M152.73,171.01h-.35l-.04.08c-.7,1.35-1.16,1.59-2.11,1.59h-1.46c-.24,0-.33-.08-.33-.29v-3.05h1.3c.86,0,1.04.27,1.2,1.21l.02.12h.33v-3.05h-.33l-.02.12c-.16.89-.35,1.16-1.2,1.16h-1.3v-3.24h1.53c1.1,0,1.47.28,1.96,1.48l.03.09h.35l-.38-1.9-.02-.11h-5.43v.34h.13c.74.05.74.13.74.41v6.42c0,.27,0,.35-.74.4h-.13v.35h5.61l.64-2.12Z"/>
      <path class="cls-6" d="M157.35,165.65v6.73c0,.27,0,.35-.74.4h-.13v.35h2.83v-.35h-.13c-.74-.05-.74-.13-.74-.4v-6.73h.63c1.06,0,1.4.17,1.93,1.48l.03.09h.35l-.42-2.05v-.05s-.15.03-.15.03c-.2.04-.55.06-.98.06h-3.86c-.43,0-.8-.02-.99-.06l-.14-.03-.42,2.1h.34l.03-.09c.53-1.3.87-1.48,1.93-1.48h.63Z"/>
      <path class="cls-6" d="M54.39,195.6c0-1.33-1.04-1.82-1.77-2,.54-.22,1.29-.71,1.29-1.72,0-1.2-1-1.89-2.74-1.89h-2.63v.34h.13c.74.05.74.13.74.41v6.42c0,.27,0,.35-.74.4h-.13v.35h2.73c1.87,0,3.12-.93,3.12-2.31ZM50.5,193.91h.65c1.32,0,2.11.67,2.11,1.79s-.76,1.76-2.04,1.76c-.71,0-.71-.09-.71-.33v-3.22ZM50.5,193.47v-3.03h.57c1.14,0,1.77.55,1.77,1.56,0,.93-.66,1.47-1.81,1.47h-.53Z"/>
      <path class="cls-6" d="M60.75,197.56h-.13v.35h2.89v-.34h-.13c-.61-.07-.7-.16-1-.97l-2-5.51c-.25-.68-.3-.84-.38-1.2l-.03-.11h-.24l-.04.05c-.15.19-.44.33-.67.38l-.15.04.23.58-2.04,5.66c-.31.82-.62,1.01-1.05,1.06h-.12v.35h2.5v-.34h-.13c-.42-.04-.66-.12-.76-.26-.08-.13-.07-.34.05-.66l.62-1.73h2.47l.76,2.13c.07.21.09.32.06.37-.08.12-.54.14-.68.14ZM60.44,194.44h-2.12l1.06-2.97,1.06,2.97Z"/>
      <path class="cls-6" d="M64.24,192l.03-.09c.53-1.3.87-1.48,1.93-1.48h.63v6.73c0,.27,0,.35-.74.4h-.13v.35h2.83v-.35h-.13c-.74-.05-.74-.13-.74-.4v-6.73h.63c1.06,0,1.4.17,1.93,1.48l.03.09h.35l-.42-2.05v-.05s-.15.03-.15.03c-.2.04-.55.06-.98.06h-3.86c-.43,0-.8-.02-.99-.06l-.14-.03-.42,2.1h.34Z"/>
      <path class="cls-6" d="M80.48,190.34h.13v-.35h-2.83v.34h.13c.74.05.74.13.74.41v2.92h-3.94v-2.92c0-.27,0-.35.74-.4h.13v-.35h-2.83v.34h.13c.74.05.74.13.74.41v6.42c0,.27,0,.35-.74.4h-.13v.35h2.83v-.35h-.13c-.74-.05-.74-.13-.74-.4v-3.03h3.94v3.03c0,.27,0,.35-.74.4h-.13v.35h2.83v-.35h-.13c-.74-.05-.74-.13-.74-.4v-6.42c0-.27,0-.35.74-.4Z"/>
      <path class="cls-6" d="M89.6,197.57h-.13c-.44-.05-.82-.4-1.42-1.31l-1.53-2.29c.86-.25,1.86-.8,1.86-2.01,0-.9-.53-1.97-3.07-1.97h-2.54v.34h.13c.74.06.74.13.74.39v6.44c0,.27,0,.35-.74.4h-.13v.35h2.96v-.35h-.13c-.86-.05-.86-.14-.86-.4v-3.03h.46c.19,0,.26,0,.48.36l1.44,2.31c.6.97,1.02,1.15,1.67,1.15.22,0,.53-.02.7-.04l.12-.02v-.33ZM85.24,193.7h-.51v-3.26h.4c.97,0,2.13.29,2.13,1.68,0,.98-.77,1.58-2.01,1.58Z"/>
      <path class="cls-6" d="M95.02,189.89c-2.32,0-4,1.75-4,4.16s1.62,3.97,3.86,3.97c2.35,0,4.06-1.75,4.06-4.16s-1.64-3.97-3.91-3.97ZM92.22,193.75c0-2.01,1.08-3.41,2.62-3.41,1.64,0,2.88,1.64,2.88,3.81,0,2.01-1.09,3.41-2.66,3.41s-2.84-1.64-2.84-3.81Z"/>
      <path class="cls-6" d="M105.32,189.89c-2.32,0-4,1.75-4,4.16s1.62,3.97,3.86,3.97c2.35,0,4.06-1.75,4.06-4.16s-1.64-3.97-3.91-3.97ZM102.52,193.75c0-2.01,1.08-3.41,2.62-3.41,1.64,0,2.88,1.64,2.88,3.81,0,2.01-1.1,3.41-2.66,3.41s-2.84-1.64-2.84-3.81Z"/>
      <path class="cls-6" d="M113.89,197.57h-.13c-.9-.07-1.07-.23-1.06-.96l.12-5.39,2.49,6.61.03.09h.33l2.53-6.7.12,5.95c0,.28-.02.35-.73.39h-.13v.35h2.82v-.35h-.13c-.72-.05-.72-.12-.73-.41l-.13-6.42c0-.28.02-.35.73-.39h.13v-.35h-2.14l-.02.12c-.04.27-.26.89-.39,1.24l-1.78,4.79-1.86-5c-.15-.38-.27-.72-.37-1.03l-.04-.12h-2.27v.34h.13c.76.07.91.15.9.86l-.13,5.42c0,.73-.17.9-.9.95h-.13v.35h2.73v-.34Z"/>
      <path class="cls-6" d="M131.48,195.66c0-.97-.59-1.69-1.8-2.21l-.62-.26c-1.17-.49-1.41-.99-1.41-1.58,0-.95.73-1.29,1.35-1.29.81,0,1.47.62,1.86,1.75l.03.09h.33l-.22-2.13v-.04h-.33l-.02.11c-.03.13-.04.15-.05.15-.04,0-.16-.05-.27-.09-.29-.11-.73-.28-1.33-.28-1.26,0-2.22.95-2.22,2.21,0,.93.59,1.65,1.74,2.14l.62.26c1.01.42,1.46.92,1.46,1.62,0,.89-.66,1.47-1.68,1.47s-1.69-.64-2.14-1.96l-.03-.09h-.34l.26,2.27.02.12h.32l.02-.11c.03-.13.05-.15.06-.15.04,0,.16.04.27.08h.02c.34.12.86.29,1.54.29,1.45,0,2.54-1.01,2.54-2.36Z"/>
      <path class="cls-6" d="M140.28,195.02v-3.73c0-.71.17-.89.9-.95h.13v-.35h-2.76v.34h.13c.91.07,1.1.23,1.1.96v3.73c0,1.59-.72,2.4-2.13,2.4s-2.08-.84-2.08-2.42v-4.26c0-.27,0-.35.74-.4h.13v-.35h-2.83v.34h.13c.74.05.74.13.74.41v4.32c0,1.93.99,2.95,2.86,2.95s2.93-1.04,2.93-3Z"/>
      <path class="cls-6" d="M145.95,190.34h.13v-.35h-2.9v.34h.13c.77.05.77.13.77.41v6.42c0,.27,0,.35-.77.4h-.13v.35h2.9v-.35h-.13c-.77-.05-.77-.13-.77-.4v-6.42c0-.27,0-.35.77-.4Z"/>
      <path class="cls-6" d="M154.48,189.91l-.14.03c-.2.04-.55.06-.98.06h-3.86c-.43,0-.8-.02-.99-.06l-.14-.03-.42,2.1h.34l.03-.09c.53-1.3.87-1.48,1.93-1.48h.63v6.73c0,.27,0,.35-.74.4h-.13v.35h2.83v-.35h-.13c-.74-.05-.74-.13-.74-.4v-6.73h.63c1.06,0,1.4.17,1.93,1.48l.03.09h.35l-.42-2.05v-.05Z"/>
      <path class="cls-6" d="M156.8,190.34h.13c.74.05.74.13.74.41v6.42c0,.27,0,.35-.74.4h-.13v.35h5.61l.64-2.12h-.35l-.04.08c-.7,1.35-1.16,1.59-2.11,1.59h-1.46c-.24,0-.33-.08-.33-.29v-3.05h1.3c.86,0,1.03.27,1.2,1.21l.02.12h.33v-3.05h-.33l-.02.12c-.16.89-.35,1.16-1.2,1.16h-1.3v-3.24h1.53c1.1,0,1.47.28,1.96,1.48l.03.09h.35l-.38-1.9-.02-.11h-5.43v.34Z"/>
      <path class="cls-6" d="M169.13,197.56h-.13v.35h3.05v-.35h-.13c-.81-.05-.81-.13-.81-.4v-7.28h-.28l-.04.04c-.42.44-1,.71-1.65.76h-.13v.35h.14c.32.01.63.04.92.08v6.04c0,.26,0,.35-.93.4Z"/>
      <path class="cls-6" d="M51.09,222.37c-.99,0-1.69-.64-2.14-1.96l-.03-.09h-.34l.26,2.26.02.12h.32l.02-.11c.03-.13.05-.15.06-.15.05,0,.18.05.28.08.32.11.86.29,1.54.29,1.45,0,2.54-1.01,2.54-2.35,0-.97-.59-1.7-1.8-2.21l-.62-.26c-1.17-.49-1.41-.99-1.41-1.58,0-.89.68-1.29,1.35-1.29.81,0,1.47.62,1.86,1.75l.03.09h.33l-.22-2.13v-.04h-.33l-.02.11c-.03.13-.05.15-.05.15-.04,0-.16-.05-.27-.09-.29-.11-.73-.28-1.33-.28-1.26,0-2.22.95-2.22,2.21,0,.93.59,1.65,1.74,2.14l.62.26c1.01.42,1.46.92,1.46,1.61,0,.89-.66,1.47-1.68,1.47Z"/>
      <path class="cls-6" d="M56.65,215.53v4.33c0,1.93.99,2.95,2.86,2.95s2.93-1.04,2.93-3v-3.73c0-.72.17-.89.9-.95h.13v-.35h-2.76v.34h.13c.91.07,1.1.23,1.1.96v3.73c0,1.59-.72,2.4-2.13,2.4s-2.08-.84-2.08-2.42v-4.26c0-.27,0-.35.74-.4h.13v-.35h-2.83v.35h.13c.74.05.74.13.74.4Z"/>
      <path class="cls-6" d="M68.1,215.13h.13v-.35h-2.9v.35h.13c.77.05.77.13.77.4v6.43c0,.27,0,.35-.77.4h-.13v.35h2.9v-.34h-.13c-.77-.05-.77-.13-.77-.4v-6.43c0-.27,0-.35.77-.4Z"/>
      <path class="cls-6" d="M72.3,222.35h-.13v.35h2.83v-.34h-.13c-.74-.05-.74-.13-.74-.4v-6.73h.63c1.06,0,1.4.17,1.93,1.48l.03.09h.35l-.4-1.96-.03-.14-.14.03c-.19.04-.54.06-.98.06h-3.86c-.44,0-.8-.02-.99-.06l-.14-.03-.42,2.1h.34l.03-.09c.53-1.3.87-1.48,1.93-1.48h.63v6.73c0,.27,0,.35-.74.4Z"/>
      <path class="cls-6" d="M85.21,220.58h-.35l-.04.08c-.7,1.35-1.16,1.59-2.11,1.59h-1.46c-.24,0-.33-.08-.33-.29v-3.05h1.3c.86,0,1.04.27,1.2,1.21l.02.12h.33v-3.05h-.33l-.02.12c-.16.89-.35,1.17-1.2,1.17h-1.3v-3.24h1.53c1.1,0,1.47.28,1.96,1.48l.03.09h.35l-.38-1.9-.02-.11h-5.43v.35h.13c.74.05.74.13.74.4v6.43c0,.27,0,.35-.74.4h-.13v.35h5.61l.64-2.12Z"/>
      <path class="cls-6" d="M91.13,222.43v.27h4.38l.65-1.82.02-.07h-.37l-.04.07c-.42.77-.51.87-1.56.87h-1.85l.39-.4c1.5-1.45,2.96-3,2.96-4.64,0-1.19-.87-2.05-2.07-2.05-1.36,0-2.3.93-2.47,2.43l-.02.15h.34l.03-.1c.3-1.05.93-1.63,1.77-1.63s1.38.62,1.38,1.52c0,1.41-1.16,2.82-2.29,4.02l-1.28,1.37Z"/>
      <polygon class="cls-6" points="104.59 216.44 104.59 218.54 102.56 218.54 102.56 219.03 104.59 219.03 104.59 221.13 105.1 221.13 105.1 219.03 107.12 219.03 107.12 218.54 105.1 218.54 105.1 216.44 104.59 216.44"/>
      <path class="cls-6" d="M117.46,222.81c1.6,0,2.92-.89,3.62-2.44l.06-.13-.36-.15-.06.11c-.62,1.23-1.64,1.93-2.8,1.93-1.83,0-3.05-1.46-3.05-3.64,0-1.94,1.2-3.36,2.85-3.36,1.32,0,2.33.75,2.84,2.12l.03.09h.33l-.28-2.44-.02-.12h-.33l-.02.12c-.03.23-.07.34-.13.34-.04,0-.15-.05-.27-.1-.37-.16-1.05-.47-2.16-.47-2.27,0-4.06,1.84-4.06,4.18s1.59,3.95,3.79,3.95Z"/>
      <path class="cls-6" d="M129.13,220.63l.02-.06h-.35l-.04.08c-.66,1.27-1.12,1.61-2.13,1.61h-1.16c-.25,0-.33-.07-.33-.29v-6.44c0-.27,0-.35.74-.4h.13v-.35h-2.83v.35h.13c.74.05.74.13.74.4v6.43c0,.26,0,.35-.74.4h-.13v.35h5.32l.62-2.07Z"/>
      <path class="cls-6" d="M134.79,222.81c2.35,0,4.06-1.75,4.06-4.16s-1.64-3.97-3.91-3.97-4,1.75-4,4.16,1.62,3.97,3.86,3.97ZM134.98,222.35c-1.62,0-2.84-1.64-2.84-3.81,0-2.01,1.08-3.41,2.62-3.41,1.64,0,2.88,1.64,2.88,3.81,0,2.01-1.1,3.41-2.66,3.41Z"/>
      <path class="cls-6" d="M144.42,218.24l-.62-.26c-1.17-.49-1.41-.99-1.41-1.58,0-.89.68-1.29,1.35-1.29.81,0,1.47.62,1.86,1.75l.03.09h.33l-.22-2.13v-.04h-.33l-.02.11c-.03.13-.05.15-.05.15-.04,0-.16-.05-.27-.09-.29-.11-.73-.28-1.33-.28-1.26,0-2.22.95-2.22,2.21,0,.93.59,1.65,1.74,2.14l.62.26c1.01.42,1.46.92,1.46,1.61,0,.89-.66,1.47-1.68,1.47s-1.69-.64-2.14-1.96l-.03-.09h-.34l.26,2.26.02.12h.32l.02-.11c.03-.13.05-.15.06-.15.05,0,.18.05.28.08.32.11.86.29,1.54.29,1.45,0,2.54-1.01,2.54-2.35,0-.97-.59-1.7-1.8-2.21Z"/>
      <path class="cls-6" d="M148.59,222.35h-.13v.35h5.61l.64-2.12h-.35l-.04.08c-.7,1.35-1.16,1.59-2.11,1.59h-1.46c-.24,0-.33-.08-.33-.29v-3.05h1.3c.86,0,1.04.27,1.2,1.21l.02.12h.33v-3.05h-.33l-.02.12c-.16.89-.35,1.17-1.2,1.17h-1.3v-3.24h1.53c1.1,0,1.47.28,1.96,1.48l.03.09h.35l-.38-1.9-.02-.11h-5.43v.35h.13c.74.05.74.13.74.4v6.43c0,.27,0,.35-.74.4Z"/>
      <path class="cls-6" d="M162.92,214.69l-.14.03c-.19.04-.54.06-.98.06h-3.86c-.44,0-.8-.02-.99-.06l-.14-.03-.42,2.1h.34l.03-.09c.53-1.3.87-1.48,1.93-1.48h.63v6.73c0,.27,0,.35-.74.4h-.13v.35h2.83v-.34h-.13c-.74-.05-.74-.13-.74-.4v-6.73h.63c1.06,0,1.4.17,1.93,1.48l.03.09h.35l-.4-1.96-.03-.14Z"/>
      <path class="cls-6" d="M54.39,245.17c0-1.33-1.05-1.82-1.78-2,.54-.22,1.29-.71,1.29-1.72,0-1.2-1-1.89-2.74-1.89h-2.63v.35h.13c.74.05.74.13.74.4v6.43c0,.27,0,.35-.74.4h-.13v.35h2.73c1.87,0,3.12-.93,3.12-2.31ZM50.5,243.48h.65c1.32,0,2.11.67,2.11,1.79s-.76,1.76-2.04,1.76c-.71,0-.71-.09-.71-.33v-3.22ZM50.5,243.04v-3.03h.57c1.13,0,1.77.57,1.77,1.56,0,.93-.66,1.47-1.81,1.47h-.53Z"/>
      <path class="cls-6" d="M63.51,247.14h-.13c-.61-.07-.7-.16-1-.97l-2-5.51c-.24-.65-.3-.83-.38-1.2l-.03-.11h-.24l-.04.05c-.15.19-.45.33-.67.38l-.16.04.23.58-2.04,5.66c-.31.82-.62,1.01-1.05,1.07l-.12.02v.33h2.5v-.34h-.13c-.41-.04-.66-.12-.76-.26-.08-.12-.07-.34.05-.66l.62-1.73h2.47l.76,2.13c.07.21.09.32.06.37-.08.12-.54.14-.68.14h-.13v.35h2.89v-.34ZM60.44,244.01h-2.12l1.06-2.97,1.06,2.97Z"/>
      <path class="cls-6" d="M70.51,241.57h.35l-.4-1.96-.03-.14-.14.03c-.19.04-.54.06-.98.06h-3.86c-.44,0-.8-.02-.99-.06l-.14-.03-.42,2.1h.34l.03-.09c.53-1.3.87-1.48,1.93-1.48h.63v6.73c0,.27,0,.35-.74.4h-.13v.35h2.83v-.34h-.13c-.74-.05-.74-.13-.74-.4v-6.73h.63c1.06,0,1.4.17,1.93,1.48l.03.09Z"/>
      <path class="cls-6" d="M80.48,239.92h.13v-.35h-2.83v.35h.13c.74.05.74.13.74.4v2.93h-3.94v-2.93c0-.27,0-.35.74-.4h.13v-.35h-2.83v.35h.13c.74.05.74.13.74.4v6.43c0,.27,0,.35-.74.4h-.13v.35h2.83v-.34h-.13c-.74-.05-.74-.13-.74-.4v-3.03h3.94v3.03c0,.27,0,.35-.74.4h-.13v.35h2.83v-.34h-.13c-.74-.05-.74-.13-.74-.4v-6.43c0-.27,0-.35.74-.4Z"/>
      <path class="cls-6" d="M85.19,243.71c.19,0,.26,0,.48.37l1.44,2.31c.6.98,1.02,1.15,1.67,1.15.23,0,.52-.02.7-.04h.12v-.34h-.13c-.44-.05-.82-.4-1.42-1.31l-1.53-2.3c.86-.25,1.86-.8,1.86-2,0-.9-.53-1.97-3.07-1.97h-2.54v.34h.13c.74.06.74.13.74.39v6.44c0,.27,0,.35-.74.4h-.13v.35h2.96v-.35h-.13c-.87-.05-.87-.14-.87-.4v-3.03h.46ZM85.24,243.27h-.51v-3.26h.4c.97,0,2.13.29,2.13,1.68,0,.98-.77,1.58-2.01,1.58Z"/>
      <path class="cls-6" d="M94.88,247.59c2.35,0,4.06-1.75,4.06-4.16s-1.64-3.97-3.91-3.97-4,1.75-4,4.16,1.62,3.97,3.86,3.97ZM95.07,247.13c-1.62,0-2.84-1.64-2.84-3.81,0-2.01,1.08-3.41,2.62-3.41,1.64,0,2.88,1.64,2.88,3.81,0,2.01-1.09,3.41-2.66,3.41Z"/>
      <path class="cls-6" d="M109.23,243.43c0-2.3-1.64-3.97-3.91-3.97s-4,1.75-4,4.16,1.62,3.97,3.86,3.97c2.35,0,4.06-1.75,4.06-4.16ZM102.52,243.33c0-2.01,1.08-3.41,2.62-3.41,1.64,0,2.88,1.64,2.88,3.81,0,2.01-1.1,3.41-2.66,3.41s-2.84-1.64-2.84-3.81Z"/>
      <path class="cls-6" d="M112.7,246.18l.12-5.4,2.49,6.61.03.09h.33l2.53-6.7.12,5.95c0,.28-.02.35-.73.39h-.13v.35h2.82v-.34h-.13c-.72-.05-.72-.13-.73-.41l-.13-6.43c0-.28.02-.35.73-.39h.13v-.35h-2.14l-.02.12c-.03.19-.17.64-.39,1.25l-1.78,4.79-1.86-5c-.16-.4-.28-.75-.38-1.05l-.03-.1h-2.27v.34h.13c.76.07.91.14.9.85l-.13,5.42c0,.72-.17.89-.9.95h-.13v.35h2.73v-.34h-.13c-.9-.07-1.07-.23-1.06-.96Z"/>
      <path class="cls-6" d="M131.48,245.24c0-.97-.59-1.7-1.8-2.21l-.62-.26c-1.17-.49-1.41-.99-1.41-1.58,0-.89.68-1.29,1.35-1.29.81,0,1.47.62,1.86,1.75l.03.09h.33l-.22-2.13v-.04h-.33l-.02.11c-.03.13-.05.15-.05.15-.04,0-.16-.05-.27-.09-.29-.11-.73-.28-1.33-.28-1.26,0-2.22.95-2.22,2.21,0,.93.59,1.65,1.74,2.14l.62.26c1.01.42,1.46.92,1.46,1.61,0,.89-.66,1.47-1.68,1.47s-1.69-.64-2.14-1.96l-.03-.09h-.34l.26,2.26.02.12h.32l.02-.11c.03-.13.05-.15.06-.15.04,0,.17.04.29.08.34.11.86.28,1.54.28,1.45,0,2.54-1.01,2.54-2.35Z"/>
      <path class="cls-6" d="M138.55,239.91h.13c.91.07,1.1.23,1.1.96v3.73c0,1.59-.72,2.4-2.13,2.4s-2.08-.84-2.08-2.42v-4.26c0-.27,0-.35.74-.4h.13v-.35h-2.83v.35h.13c.74.05.74.13.74.4v4.33c0,1.93.99,2.95,2.86,2.95s2.93-1.04,2.93-3v-3.73c0-.71.17-.89.9-.95h.13v-.35h-2.76v.34Z"/>
      <path class="cls-6" d="M143.17,239.91h.13c.77.05.77.13.77.4v6.43c0,.27,0,.35-.77.4h-.13v.35h2.9v-.34h-.13c-.77-.05-.77-.13-.77-.4v-6.43c0-.27,0-.35.77-.4h.13v-.35h-2.9v.35Z"/>
      <path class="cls-6" d="M154.48,239.47l-.14.03c-.19.04-.54.06-.98.06h-3.86c-.44,0-.8-.02-.99-.06l-.14-.03-.42,2.1h.34l.03-.09c.53-1.3.87-1.48,1.93-1.48h.63v6.73c0,.27,0,.35-.74.4h-.13v.35h2.83v-.34h-.13c-.74-.05-.74-.13-.74-.4v-6.73h.63c1.06,0,1.4.17,1.93,1.48l.03.09h.35l-.4-1.96-.03-.14Z"/>
      <path class="cls-6" d="M162.67,245.44c-.7,1.35-1.16,1.59-2.11,1.59h-1.46c-.24,0-.33-.08-.33-.29v-3.05h1.3c.86,0,1.04.27,1.2,1.21l.02.12h.33v-3.05h-.33l-.02.12c-.16.89-.35,1.17-1.2,1.17h-1.3v-3.24h1.53c1.1,0,1.47.28,1.96,1.48l.03.09h.35l-.38-1.9-.02-.11h-5.43v.35h.13c.74.05.74.13.74.4v6.43c0,.27,0,.35-.74.4h-.13v.35h5.61l.64-2.12h-.35l-.04.08Z"/>
      <path class="cls-6" d="M173.67,245.6l-.04.07c-.42.77-.51.87-1.56.87h-1.85l.39-.4c1.5-1.45,2.96-3,2.96-4.64,0-1.19-.87-2.05-2.07-2.05-1.36,0-2.3.93-2.47,2.43l-.02.15h.34l.03-.1c.3-1.05.93-1.63,1.77-1.63s1.38.62,1.38,1.52c0,1.41-1.16,2.82-2.29,4.02l-1.28,1.37v.27h4.38l.65-1.82.02-.07h-.37Z"/>
      <path class="cls-6" d="M55.7,269.77c-.62,1.22-1.65,1.93-2.8,1.93-1.83,0-3.05-1.46-3.05-3.64,0-1.94,1.2-3.36,2.85-3.36,1.32,0,2.33.75,2.84,2.13l.03.09h.33l-.28-2.44-.02-.12h-.33l-.02.12c-.04.34-.11.34-.13.34-.04,0-.15-.05-.27-.1-.37-.16-1.05-.47-2.16-.47-2.27,0-4.06,1.84-4.06,4.18s1.59,3.95,3.79,3.95c1.6,0,2.92-.89,3.62-2.45l.06-.13-.36-.14-.06.11Z"/>
      <path class="cls-6" d="M60.9,264.7h.13v-.35h-2.9v.34h.13c.77.05.77.13.77.41v6.42c0,.27,0,.35-.77.4h-.13v.35h2.9v-.35h-.13c-.77-.05-.77-.13-.77-.4v-6.42c0-.27,0-.35.77-.4Z"/>
      <path class="cls-6" d="M65.57,268.49c.19,0,.26,0,.48.36l1.44,2.31c.6.97,1.02,1.15,1.67,1.15.22,0,.53-.02.7-.04l.12-.02v-.33h-.13c-.44-.05-.82-.4-1.42-1.31l-1.53-2.29c.86-.25,1.86-.8,1.86-2.01,0-.9-.53-1.97-3.07-1.97h-2.54v.34h.13c.74.06.74.13.74.39v6.44c0,.27,0,.35-.74.4h-.13v.35h2.96v-.35h-.13c-.86-.05-.86-.14-.86-.4v-3.03h.46ZM65.63,268.06h-.51v-3.26h.4c.97,0,2.13.29,2.13,1.68,0,.98-.77,1.58-2.01,1.58Z"/>
      <path class="cls-6" d="M78.81,269.93l.06-.13-.36-.14-.06.11c-.62,1.22-1.65,1.93-2.8,1.93-1.83,0-3.05-1.46-3.05-3.64,0-1.94,1.2-3.36,2.85-3.36,1.32,0,2.33.75,2.84,2.13l.03.09h.33l-.28-2.44-.02-.12h-.33l-.02.12c-.04.34-.11.34-.13.34-.04,0-.15-.05-.27-.1-.37-.16-1.05-.47-2.16-.47-2.27,0-4.06,1.84-4.06,4.18s1.59,3.95,3.79,3.95c1.6,0,2.92-.89,3.62-2.45Z"/>
      <path class="cls-6" d="M87.47,269.38v-3.73c0-.71.17-.89.9-.95h.13v-.35h-2.76v.34h.13c.91.07,1.1.23,1.1.96v3.73c0,1.59-.72,2.4-2.13,2.4s-2.08-.84-2.08-2.42v-4.26c0-.27,0-.35.74-.4h.13v-.35h-2.83v.34h.13c.74.05.74.13.74.41v4.32c0,1.93.99,2.95,2.86,2.95s2.93-1.04,2.93-3Z"/>
      <path class="cls-6" d="M96.34,270.2l.02-.06h-.35l-.04.08c-.66,1.27-1.12,1.62-2.13,1.62h-1.16c-.25,0-.33-.07-.33-.29v-6.43c0-.27,0-.35.74-.4h.13v-.35h-2.83v.34h.13c.74.05.74.13.74.41v6.42c0,.26,0,.35-.74.4h-.13v.35h5.32l.62-2.07Z"/>
      <path class="cls-6" d="M102.67,271.92h-.13v.35h2.89v-.34h-.13c-.61-.07-.7-.16-1-.97l-2-5.51c-.25-.68-.3-.84-.38-1.2l-.03-.11h-.24l-.04.05c-.15.19-.44.33-.67.38l-.15.04.23.58-2.04,5.66c-.31.82-.62,1.01-1.05,1.06h-.12v.35h2.5v-.34h-.13c-.42-.04-.66-.12-.76-.26-.08-.13-.07-.34.05-.66l.62-1.73h2.47l.76,2.13c.07.21.09.32.06.37-.08.12-.54.14-.68.14ZM102.36,268.8h-2.12l1.06-2.97,1.06,2.97Z"/>
      <path class="cls-6" d="M112.35,264.26l-.14.03c-.2.04-.55.06-.98.06h-3.86c-.43,0-.8-.02-.99-.06l-.14-.03-.42,2.1h.34l.03-.09c.53-1.3.87-1.48,1.93-1.48h.63v6.73c0,.27,0,.35-.74.4h-.13v.35h2.83v-.35h-.13c-.74-.05-.74-.13-.74-.4v-6.73h.63c1.06,0,1.4.17,1.93,1.48l.03.09h.35l-.42-2.05v-.05Z"/>
      <path class="cls-6" d="M117.55,271.93h-.13c-.77-.05-.77-.13-.77-.4v-6.42c0-.27,0-.35.77-.4h.13v-.35h-2.9v.34h.13c.77.05.77.13.77.41v6.42c0,.27,0,.35-.77.4h-.13v.35h2.9v-.35Z"/>
      <path class="cls-6" d="M123.62,264.24c-2.32,0-4,1.75-4,4.16s1.62,3.97,3.86,3.97c2.35,0,4.06-1.75,4.06-4.16s-1.64-3.97-3.91-3.97ZM120.82,268.11c0-2.01,1.08-3.41,2.62-3.41,1.64,0,2.88,1.64,2.88,3.81,0,2.01-1.09,3.41-2.66,3.41s-2.84-1.64-2.84-3.81Z"/>
      <path class="cls-6" d="M134.43,264.69h.13c1.06.07,1.2.26,1.2.96v4.63l-4.23-5.87-.04-.06h-1.96v.34h.13c.74.07.9.24.9.96v5.31c0,.72-.17.89-.9.95h-.13v.35h2.86v-.35h-.13c-1.05-.07-1.19-.25-1.19-.96v-5.31l4.87,6.67.04.06h.29v-6.72c0-.71.17-.89.9-.95h.13v-.35h-2.86v.34Z"/>
      <path class="cls-6" d="M48.95,296.7h-.13v.35h2.73c1.87,0,3.12-.93,3.12-2.31s-1.04-1.82-1.77-2c.54-.22,1.29-.71,1.29-1.72,0-1.2-1-1.89-2.74-1.89h-2.63v.34h.13c.74.05.74.13.74.41v6.42c0,.27,0,.35-.74.4ZM50.78,293.06h.65c1.32,0,2.11.67,2.11,1.79s-.76,1.76-2.04,1.76c-.71,0-.71-.09-.71-.33v-3.22ZM50.78,292.61v-3.03h.58c1.12,0,1.77.57,1.77,1.56,0,.93-.66,1.47-1.81,1.47h-.53Z"/>
      <path class="cls-6" d="M58.64,296.71h-.13c-.41-.04-.66-.12-.75-.26-.08-.13-.07-.34.05-.66l.62-1.73h2.47l.76,2.13c.07.2.09.32.06.37-.08.12-.54.14-.68.14h-.13v.35h2.89v-.34h-.13c-.61-.07-.7-.16-1-.97l-2.01-5.51c-.26-.71-.3-.85-.38-1.2l-.03-.11h-.24l-.04.05c-.15.19-.44.33-.67.38l-.15.04.23.58-2.04,5.66c-.31.82-.62,1.01-1.05,1.06h-.12v.35h2.49v-.34ZM58.59,293.59l1.06-2.97,1.06,2.97h-2.12Z"/>
      <path class="cls-6" d="M71.48,294.98l.02-.06h-.35l-.04.08c-.66,1.27-1.12,1.62-2.13,1.62h-1.16c-.25,0-.33-.07-.33-.29v-6.43c0-.27,0-.35.74-.4h.13v-.35h-2.83v.34h.13c.74.05.74.13.74.41v6.42c0,.26,0,.35-.74.4h-.13v.35h5.33l.62-2.07Z"/>
      <path class="cls-6" d="M80.33,294.56c-.62,1.22-1.65,1.93-2.8,1.93-1.83,0-3.05-1.46-3.05-3.64,0-1.94,1.2-3.36,2.85-3.36,1.32,0,2.33.75,2.84,2.13l.03.09h.33l-.28-2.44-.02-.12h-.33l-.02.12c-.04.34-.11.34-.13.34-.04,0-.15-.05-.27-.1-.37-.16-1.05-.47-2.16-.47-2.27,0-4.06,1.84-4.06,4.18s1.59,3.95,3.79,3.95c1.6,0,2.92-.89,3.62-2.45l.06-.13-.36-.14-.06.11Z"/>
      <path class="cls-6" d="M86.7,297.16c2.35,0,4.06-1.75,4.06-4.16s-1.64-3.97-3.91-3.97-4,1.75-4,4.16,1.62,3.97,3.86,3.97ZM86.89,296.7c-1.62,0-2.84-1.64-2.84-3.81,0-2.01,1.08-3.41,2.62-3.41,1.64,0,2.88,1.64,2.88,3.81,0,2.01-1.1,3.41-2.66,3.41Z"/>
      <path class="cls-6" d="M99.16,297.1l.04.06h.28v-6.72c0-.71.17-.89.9-.95h.13v-.35h-2.86v.34h.13c1.06.07,1.2.26,1.2.96v4.63l-4.23-5.87-.04-.06h-1.96v.34h.13c.74.07.9.24.9.96v5.31c0,.72-.17.89-.9.95h-.13v.35h2.86v-.35h-.13c-1.05-.07-1.19-.25-1.19-.96v-5.31l4.87,6.67Z"/>
      <path class="cls-6" d="M103.6,290.51l1.81,3.31v2.49c0,.27,0,.35-.74.4h-.13v.35h2.83v-.35h-.13c-.74-.05-.74-.13-.74-.4v-2.59l1.73-3.11c.48-.89.8-1.07,1.34-1.12h.12v-.35h-2.63v.34h.13c.42.04.67.12.74.25.06.12,0,.33-.17.66l-1.49,2.72-1.69-3.1c-.06-.1-.19-.34-.16-.4.01-.02.09-.1.57-.11h.13v-.35h-2.9v.34h.13c.61.07.81.18,1.25,1.03Z"/>
      <path class="cls-6" d="M115.29,296.7h-.13v.35h3.05v-.35h-.13c-.81-.05-.81-.13-.81-.4v-7.28h-.28l-.04.04c-.41.44-1,.71-1.65.76h-.13v.35h.14c.32.01.63.04.92.08v6.04c0,.26,0,.35-.93.4Z"/>
      <path class="cls-6" d="M52.9,317.53c.54-.22,1.29-.71,1.29-1.72,0-1.2-1-1.89-2.74-1.89h-2.63v.35h.13c.74.05.74.13.74.4v6.43c0,.27,0,.35-.74.4h-.13v.35h2.73c1.87,0,3.12-.93,3.12-2.31s-1.05-1.82-1.78-2ZM50.78,317.39v-3.03h.57c1.13,0,1.77.57,1.77,1.56,0,.93-.66,1.47-1.81,1.47h-.53ZM50.78,317.84h.65c1.32,0,2.11.67,2.11,1.79s-.76,1.76-2.04,1.76c-.71,0-.71-.09-.71-.33v-3.22Z"/>
      <path class="cls-6" d="M62.65,320.53l-2-5.51c-.24-.65-.3-.83-.38-1.2l-.03-.11h-.24l-.04.05c-.15.19-.45.33-.67.38l-.16.04.23.58-2.04,5.66c-.31.82-.62,1.01-1.05,1.07l-.12.02v.33h2.5v-.34h-.13c-.41-.04-.66-.12-.76-.26-.08-.12-.07-.34.05-.66l.62-1.73h2.47l.76,2.13c.07.21.09.32.06.37-.08.12-.54.14-.68.14h-.13v.35h2.89v-.34h-.13c-.61-.07-.7-.16-1-.97ZM60.72,318.37h-2.12l1.06-2.97,1.06,2.97Z"/>
      <path class="cls-6" d="M71.11,319.78c-.66,1.27-1.12,1.61-2.13,1.61h-1.16c-.25,0-.33-.07-.33-.29v-6.44c0-.27,0-.35.74-.4h.13v-.35h-2.83v.35h.13c.74.05.74.13.74.4v6.43c0,.26,0,.35-.74.4h-.13v.35h5.32l.62-2.07.02-.06h-.35l-.04.08Z"/>
      <path class="cls-6" d="M80.33,319.34c-.62,1.23-1.64,1.93-2.8,1.93-1.83,0-3.05-1.46-3.05-3.64,0-1.94,1.2-3.36,2.85-3.36,1.32,0,2.33.75,2.84,2.12l.03.09h.33l-.28-2.45-.02-.12h-.33l-.02.12c-.04.34-.11.34-.13.34-.04,0-.14-.05-.25-.09h-.02c-.37-.17-1.05-.47-2.16-.47-2.27,0-4.06,1.84-4.06,4.18s1.59,3.95,3.79,3.95c1.6,0,2.92-.89,3.62-2.44l.06-.13-.36-.15-.06.11Z"/>
      <path class="cls-6" d="M86.85,313.82c-2.32,0-4,1.75-4,4.16s1.62,3.97,3.86,3.97c2.35,0,4.06-1.75,4.06-4.16s-1.64-3.97-3.91-3.97ZM84.05,317.68c0-2.01,1.08-3.41,2.62-3.41,1.64,0,2.88,1.64,2.88,3.81,0,2.01-1.09,3.41-2.66,3.41s-2.84-1.64-2.84-3.81Z"/>
      <path class="cls-6" d="M97.65,314.27h.13c1.05.07,1.2.27,1.2.96v4.63l-4.23-5.87-.04-.06h-1.96v.34h.13c.73.07.9.25.9.96v5.31c0,.72-.16.89-.9.95h-.13v.35h2.86v-.34h-.13c-1.05-.07-1.19-.26-1.19-.96v-5.31l4.87,6.67.04.06h.29v-6.72c0-.71.17-.89.9-.95h.13v-.35h-2.86v.35Z"/>
      <path class="cls-6" d="M107.06,314.27h.13c.42.03.67.11.74.25.07.12,0,.33-.17.66l-1.49,2.72-1.69-3.09c-.05-.09-.19-.34-.16-.4.01-.02.09-.09.57-.11h.13v-.35h-2.9v.34h.13c.61.07.81.18,1.26,1.03l1.81,3.31v2.5c0,.27,0,.35-.74.4h-.13v.35h2.83v-.34h-.13c-.74-.05-.74-.13-.74-.4v-2.59l1.73-3.11c.49-.9.81-1.07,1.34-1.12h.12v-.35h-2.63v.35Z"/>
      <path class="cls-6" d="M119.79,320.03c-.42.77-.51.87-1.56.87h-1.85l.39-.4c1.5-1.45,2.96-3,2.96-4.64,0-1.19-.87-2.05-2.07-2.05-1.36,0-2.3.93-2.47,2.43l-.02.15h.34l.03-.1c.3-1.05.93-1.63,1.77-1.63s1.38.62,1.38,1.52c0,1.41-1.16,2.82-2.29,4.02l-1.28,1.37v.27h4.38l.65-1.82.02-.07h-.37l-.04.07Z"/>
    </g>
    <g>
      <path class="cls-4" d="M56.74,19.95c0-2.42-1.89-4.04-4.69-4.04h-3.21v.35h.13c.78.05.78.14.78.43v6.73c0,.29,0,.38-.78.42h-.13v.36h3.09c2.79,0,4.82-1.78,4.82-4.24ZM50.87,23.3v-6.94h1.03c2.11,0,3.59,1.6,3.59,3.9,0,2.05-1.41,3.48-3.44,3.48-1.18,0-1.18-.15-1.18-.43Z"/>
      <path class="cls-4" d="M65.67,21.99h-.35l-.04.07c-.74,1.42-1.22,1.67-2.22,1.67h-1.53c-.26,0-.36-.09-.36-.31v-3.2h1.37c.9,0,1.09.29,1.26,1.27l.02.12h.33v-3.19h-.33l-.02.11c-.17.94-.37,1.23-1.26,1.23h-1.37v-3.41h1.61c1.16,0,1.54.29,2.06,1.55l.03.09h.35l-.4-1.98-.02-.11h-5.68v.35h.13c.78.05.78.14.78.43v6.73c0,.29,0,.38-.78.42h-.13v.36h5.87l.67-2.2Z"/>
      <path class="cls-4" d="M68.31,24.19h.33l.02-.11c.04-.17.06-.17.07-.17.05,0,.17.04.3.09.33.11.89.3,1.61.3,1.52,0,2.66-1.06,2.66-2.46,0-1.02-.61-1.77-1.88-2.31l-.65-.28c-1.23-.52-1.48-1.04-1.48-1.66,0-1,.77-1.36,1.42-1.36.85,0,1.54.65,1.96,1.84l.03.09h.33l-.23-2.22v-.04h-.33l-.02.11c-.03.14-.05.16-.06.16-.05,0-.17-.05-.28-.09-.31-.12-.77-.29-1.39-.29-1.32,0-2.32.99-2.32,2.31,0,.97.61,1.72,1.82,2.24l.65.28c1.06.45,1.53.97,1.53,1.7,0,.94-.69,1.54-1.76,1.54s-1.77-.67-2.24-2.06l-.03-.09h-.34l.27,2.37.02.12Z"/>
      <path class="cls-4" d="M79.98,24.3c1.68,0,3.06-.93,3.79-2.56l.06-.13-.36-.14-.06.11c-.66,1.29-1.73,2.03-2.94,2.03-1.92,0-3.21-1.54-3.21-3.82,0-2.04,1.26-3.52,3-3.52,1.39,0,2.45.79,2.98,2.23l.03.09h.33l-.29-2.55-.02-.12h-.34l-.02.12c-.04.36-.12.36-.15.36-.04,0-.18-.06-.28-.11-.38-.17-1.1-.49-2.26-.49-2.38,0-4.24,1.92-4.24,4.38s1.67,4.13,3.97,4.13Z"/>
      <path class="cls-4" d="M93.34,23.85h-.13c-.46-.05-.86-.42-1.49-1.38l-1.61-2.41c.91-.26,1.95-.84,1.95-2.1,0-.94-.56-2.05-3.21-2.05h-2.66v.35h.13c.78.07.78.14.78.42v6.74c0,.29,0,.38-.78.42h-.13v.36h3.08v-.35h-.13c-.91-.05-.91-.15-.91-.43v-3.18h.49c.2,0,.28,0,.51.39l1.5,2.42c.63,1.02,1.06,1.2,1.75,1.2.24,0,.56-.02.73-.05l.12-.02v-.33ZM88.78,19.79h-.54v-3.43h.42c1.02,0,2.24.31,2.24,1.76,0,1.03-.81,1.67-2.12,1.67Z"/>
      <path class="cls-4" d="M98.25,23.84h-.13c-.81-.05-.81-.14-.81-.43v-6.73c0-.29,0-.37.81-.42h.13v-.36h-3.03v.35h.13c.81.05.81.14.81.43v6.73c0,.29,0,.37-.81.42h-.13v.36h3.03v-.35Z"/>
      <path class="cls-4" d="M103.38,15.9h-2.67v.35h.13c.78.05.78.14.78.43v6.73c0,.29,0,.38-.78.42h-.13v.36h3.22v-.35h-.13c-1.04-.05-1.04-.14-1.04-.44v-7.04h.42c1.44,0,2.24.7,2.24,1.97,0,1.17-.79,1.78-2.41,1.89h-.13v.41h.14c2.27,0,3.57-.9,3.57-2.47,0-1.45-1.14-2.25-3.2-2.25Z"/>
      <path class="cls-4" d="M115.49,15.81l-.14.03c-.21.04-.59.06-1.03.06h-4.05c-.44,0-.83-.02-1.04-.06l-.14-.03-.43,2.18h.34l.03-.09c.55-1.35.95-1.55,2.03-1.55h.66v7.06c0,.29,0,.38-.78.42h-.13v.36h2.95v-.35h-.13c-.78-.05-.78-.14-.78-.43v-7.06h.66c1.17,0,1.49.25,2.03,1.55l.03.09h.35l-.44-2.14v-.05Z"/>
      <path class="cls-4" d="M121.15,23.84h-.13c-.81-.05-.81-.14-.81-.43v-6.73c0-.29,0-.37.81-.42h.13v-.36h-3.03v.35h.13c.81.05.81.14.81.43v6.73c0,.29,0,.37-.81.42h-.13v.36h3.03v-.35Z"/>
      <path class="cls-4" d="M127.74,15.79c-2.43,0-4.19,1.83-4.19,4.35s1.7,4.16,4.03,4.16c2.46,0,4.24-1.83,4.24-4.35s-1.72-4.16-4.09-4.16ZM124.8,19.84c0-2.11,1.13-3.58,2.75-3.58,1.73,0,3.03,1.72,3.03,4,0,2.11-1.15,3.58-2.8,3.58s-2.99-1.72-2.99-4Z"/>
      <path class="cls-4" d="M137.13,23.84h-.13c-1.11-.07-1.25-.27-1.25-1.01v-5.59l5.12,7,.04.06h.29v-7.04c0-.75.18-.94.95-1h.13v-.36h-2.99v.35h.13c1.11.07,1.27.28,1.27,1.01v4.87l-4.45-6.17-.04-.06h-2.05v.34h.13c.77.07.95.26.95,1.02v5.57c0,.75-.18.94-.95,1h-.13v.36h2.99v-.35Z"/>
      <path class="cls-4" d="M20.91,343.4h.13c1.01.05,1.01.13,1.01.4v1.79c0,.44-1.07.68-1.8.68-1.52,0-3.15-1.21-3.15-3.85,0-1.95,1.2-3.37,2.85-3.37,1.3,0,2.33.76,2.83,2.08l.03.09h.33l-.28-2.4-.02-.12h-.32l-.02.12c-.05.34-.11.34-.13.34-.04,0-.16-.05-.27-.1-.4-.17-1.06-.46-2.15-.46-2.27,0-4.06,1.85-4.06,4.2s1.7,3.93,4.22,3.93c1.13,0,2.49-.36,3.39-.9l.11-.07-.14-.29-.12.04c-.12.04-.18.05-.19.05,0,0,0,0,0,0,0,0-.02-.03-.02-.13v-1.64c0-.27,0-.34.71-.39h.13v-.36h-3.07v.36Z"/>
      <path class="cls-4" d="M32.79,346.61v-.33h-.13c-.44-.05-.82-.4-1.42-1.31l-1.53-2.3c.86-.25,1.86-.8,1.86-2,0-.9-.53-1.97-3.07-1.97h-2.54v.34h.13c.74.06.74.13.74.39v6.44c0,.27,0,.35-.74.4h-.13v.35h2.96v-.35h-.13c-.87-.05-.87-.14-.87-.4v-3.03h.46c.19,0,.26,0,.48.37l1.44,2.31c.6.98,1.02,1.15,1.67,1.15.23,0,.52-.02.7-.04h.12ZM28.43,342.41h-.51v-3.26h.4c.97,0,2.13.29,2.13,1.68,0,.98-.77,1.58-2.01,1.58Z"/>
      <path class="cls-4" d="M38.07,346.73c2.35,0,4.06-1.75,4.06-4.16s-1.64-3.97-3.91-3.97-4,1.75-4,4.16,1.62,3.97,3.86,3.97ZM38.26,346.28c-1.62,0-2.84-1.64-2.84-3.81,0-2.01,1.08-3.41,2.62-3.41,1.64,0,2.88,1.64,2.88,3.81,0,2.01-1.1,3.41-2.66,3.41Z"/>
      <path class="cls-4" d="M49.5,344.38c0-.97-.59-1.7-1.8-2.21l-.62-.26c-1.17-.49-1.41-.99-1.41-1.58,0-.89.68-1.29,1.35-1.29.81,0,1.47.62,1.86,1.75l.03.09h.33l-.22-2.13v-.04h-.33l-.02.11c-.03.13-.05.15-.05.15-.04,0-.16-.05-.27-.09-.29-.11-.73-.28-1.33-.28-1.26,0-2.22.95-2.22,2.21,0,.93.59,1.65,1.74,2.14l.62.26c1.01.42,1.46.92,1.46,1.61,0,.89-.66,1.47-1.68,1.47s-1.69-.64-2.14-1.96l-.03-.09h-.34l.26,2.26.02.12h.32l.02-.11c.03-.13.05-.15.06-.15.05,0,.18.05.28.08.32.11.86.29,1.54.29,1.45,0,2.54-1.01,2.54-2.35Z"/>
      <path class="cls-4" d="M55.06,342.17l-.62-.26c-1.17-.49-1.41-.99-1.41-1.58,0-.89.68-1.29,1.35-1.29.81,0,1.47.62,1.86,1.75l.03.09h.33l-.22-2.13v-.04h-.33l-.02.11c-.03.13-.05.15-.05.15-.04,0-.16-.05-.27-.09-.29-.11-.73-.28-1.33-.28-1.26,0-2.22.95-2.22,2.21,0,.93.59,1.65,1.74,2.14l.62.26c1.01.42,1.46.92,1.46,1.61,0,.89-.66,1.47-1.68,1.47s-1.69-.64-2.14-1.96l-.03-.09h-.34l.26,2.26.02.12h.32l.02-.11c.03-.13.05-.15.06-.15.04,0,.17.04.29.08.34.11.86.28,1.54.28,1.45,0,2.54-1.01,2.54-2.35,0-.97-.59-1.7-1.8-2.21Z"/>
      <path class="cls-4" d="M67.2,342.32c.54-.22,1.29-.71,1.29-1.72,0-1.2-1-1.89-2.74-1.89h-2.63v.35h.13c.74.05.74.13.74.4v6.43c0,.27,0,.35-.74.4h-.13v.35h2.73c1.87,0,3.12-.93,3.12-2.31s-1.05-1.82-1.78-2ZM65.08,342.63h.65c1.32,0,2.11.67,2.11,1.79s-.76,1.76-2.04,1.76c-.71,0-.71-.09-.71-.33v-3.22ZM65.08,342.18v-3.03h.58c1.12,0,1.77.57,1.77,1.56,0,.93-.66,1.47-1.81,1.47h-.53Z"/>
      <path class="cls-4" d="M78.62,339.05v-.34h-2.76v.34h.13c.91.07,1.1.23,1.1.96v3.73c0,1.59-.72,2.4-2.13,2.4s-2.08-.84-2.08-2.42v-4.26c0-.27,0-.35.74-.4h.13v-.35h-2.83v.35h.13c.74.05.74.13.74.4v4.33c0,1.93.99,2.95,2.86,2.95s2.93-1.04,2.93-3v-3.73c0-.72.17-.89.9-.95h.13Z"/>
      <path class="cls-4" d="M83.26,339.06h.13v-.35h-2.9v.35h.13c.77.05.77.13.77.4v6.43c0,.27,0,.35-.77.4h-.13v.35h2.9v-.34h-.13c-.77-.05-.77-.13-.77-.4v-6.43c0-.27,0-.35.77-.4Z"/>
      <path class="cls-4" d="M91.46,344.56l.02-.06h-.35l-.04.08c-.66,1.27-1.12,1.61-2.13,1.61h-1.16c-.25,0-.33-.07-.33-.29v-6.44c0-.27,0-.35.74-.4h.13v-.35h-2.83v.35h.13c.74.05.74.13.74.4v6.43c0,.26,0,.35-.74.4h-.13v.35h5.32l.62-2.07Z"/>
      <path class="cls-4" d="M100.86,342.57c0-2.31-1.8-3.87-4.49-3.87h-3.07v.35h.13c.74.05.74.13.74.4v6.43c0,.27,0,.35-.74.4h-.13v.35h2.95c2.67,0,4.6-1.71,4.6-4.06ZM95.26,345.77v-6.62h.97c2.01,0,3.42,1.53,3.42,3.71,0,1.95-1.35,3.31-3.27,3.31-1.12,0-1.12-.14-1.12-.41Z"/>
      <path class="cls-4" d="M102.9,339.05h.13c.77.05.77.13.77.4v6.43c0,.27,0,.35-.77.4h-.13v.35h2.9v-.34h-.13c-.77-.05-.77-.13-.77-.4v-6.43c0-.27,0-.35.77-.4h.13v-.35h-2.9v.35Z"/>
      <path class="cls-4" d="M112.75,339.05h.13c1.05.07,1.2.27,1.2.96v4.63l-4.23-5.87-.04-.06h-1.96v.34h.13c.73.07.9.25.9.96v5.31c0,.72-.16.89-.9.95h-.13v.35h2.86v-.34h-.13c-1.05-.07-1.19-.26-1.19-.96v-5.31l4.87,6.67.04.06h.28v-6.72c0-.71.17-.89.9-.95h.13v-.35h-2.86v.35Z"/>
      <path class="cls-4" d="M122.55,343.4h.13c1.01.05,1.01.13,1.01.4v1.79c0,.44-1.07.68-1.8.68-1.52,0-3.15-1.21-3.15-3.85,0-1.95,1.2-3.37,2.85-3.37,1.3,0,2.33.76,2.83,2.08l.03.09h.33l-.28-2.4-.02-.12h-.32l-.02.12c-.05.34-.11.34-.13.34-.04,0-.16-.05-.27-.1-.4-.17-1.06-.46-2.15-.46-2.27,0-4.06,1.85-4.06,4.2s1.7,3.93,4.22,3.93c1.13,0,2.49-.36,3.39-.9l.11-.07-.14-.29-.12.04c-.12.04-.18.05-.19.05,0,0,0,0,0,0,0,0-.02-.03-.02-.13v-1.64c0-.27,0-.34.71-.39h.13v-.36h-3.07v.36Z"/>
      <path class="cls-4" d="M137.4,345.32l-2.01-5.51c-.26-.7-.3-.85-.38-1.2l-.03-.11h-.24l-.04.05c-.15.19-.45.33-.67.38l-.16.04.23.58-2.04,5.66c-.31.82-.62,1.01-1.05,1.07l-.12.02v.33h2.49v-.34h-.13c-.41-.04-.66-.12-.75-.26-.08-.13-.07-.34.05-.66l.62-1.73h2.47l.76,2.13c.07.2.09.32.06.37-.08.12-.54.14-.68.14h-.13v.35h2.89v-.34h-.13c-.61-.07-.7-.16-1-.97ZM135.47,343.16h-2.12l1.06-2.97,1.06,2.97Z"/>
      <path class="cls-4" d="M145.57,344.97l-1.53-2.3c.86-.25,1.86-.8,1.86-2,0-.9-.53-1.97-3.07-1.97h-2.54v.34h.13c.74.06.74.13.74.39v6.44c0,.27,0,.35-.74.4h-.13v.35h2.96v-.35h-.13c-.87-.05-.87-.14-.87-.4v-3.03h.46c.19,0,.26,0,.48.37l1.44,2.31c.6.98,1.02,1.15,1.67,1.15.23,0,.52-.02.7-.04h.12v-.34h-.13c-.44-.05-.82-.4-1.42-1.31ZM142.75,342.41h-.51v-3.26h.4c.97,0,2.13.29,2.13,1.68,0,.98-.77,1.58-2.01,1.58Z"/>
      <path class="cls-4" d="M154.58,344.59c-.7,1.35-1.16,1.59-2.11,1.59h-1.46c-.24,0-.33-.08-.33-.29v-3.05h1.3c.86,0,1.04.27,1.2,1.21l.02.12h.33v-3.05h-.33l-.02.12c-.16.89-.35,1.17-1.2,1.17h-1.3v-3.24h1.53c1.1,0,1.47.28,1.96,1.48l.03.09h.35l-.38-1.9-.02-.11h-5.43v.35h.13c.74.05.74.13.74.4v6.43c0,.27,0,.35-.74.4h-.13v.35h5.61l.64-2.12h-.35l-.04.08Z"/>
      <path class="cls-4" d="M164.01,346.28c-.61-.06-.7-.15-1-.96l-2-5.51c-.24-.65-.3-.83-.38-1.2l-.03-.11h-.24l-.04.05c-.15.19-.45.33-.67.38l-.16.04.23.58-2.04,5.66c-.31.82-.62,1.01-1.05,1.07l-.12.02v.33h2.5v-.34h-.13c-.41-.04-.66-.12-.76-.26-.08-.12-.07-.34.05-.66l.62-1.73h2.47l.76,2.13c.07.21.09.32.06.37-.08.12-.54.14-.68.14h-.13v.35h2.89v-.34h-.13ZM161.06,343.16h-2.12l1.06-2.97,1.06,2.97Z"/>
      <path class="cls-4" d="M20.62,363.84h.13c.91.07,1.1.23,1.1.96v3.73c0,1.59-.72,2.4-2.13,2.4s-2.08-.84-2.08-2.42v-4.26c0-.27,0-.35.74-.4h.13v-.35h-2.83v.35h.13c.74.05.74.13.74.4v4.33c0,1.93.99,2.95,2.86,2.95s2.93-1.04,2.93-3v-3.73c0-.72.17-.89.9-.95h.13v-.35h-2.76v.34Z"/>
      <path class="cls-4" d="M28.47,366.96l-.62-.26c-1.17-.49-1.41-.99-1.41-1.58,0-.89.68-1.29,1.35-1.29.81,0,1.47.62,1.86,1.75l.03.09h.33l-.22-2.13v-.04h-.33l-.02.11c-.03.13-.05.15-.05.15-.04,0-.16-.05-.27-.09-.29-.11-.73-.28-1.33-.28-1.26,0-2.22.95-2.22,2.21,0,.93.59,1.65,1.74,2.14l.62.26c1.01.42,1.46.92,1.46,1.61,0,.89-.66,1.47-1.68,1.47s-1.69-.64-2.14-1.96l-.03-.09h-.34l.26,2.26.02.12h.32l.02-.11c.03-.13.05-.15.06-.15.04,0,.17.04.29.08.34.11.86.28,1.54.28,1.45,0,2.54-1.01,2.54-2.35,0-.97-.59-1.7-1.8-2.21Z"/>
      <path class="cls-4" d="M38.37,369.37c-.7,1.35-1.16,1.59-2.11,1.59h-1.46c-.24,0-.33-.08-.33-.29v-3.05h1.3c.86,0,1.04.27,1.2,1.21l.02.12h.33v-3.05h-.33l-.02.12c-.16.89-.35,1.17-1.2,1.17h-1.3v-3.24h1.53c1.1,0,1.47.28,1.96,1.48l.03.09h.35l-.38-1.9-.02-.11h-5.43v.35h.13c.74.05.74.13.74.4v6.43c0,.27,0,.35-.74.4h-.13v.35h5.61l.64-2.12h-.35l-.04.08Z"/>
      <path class="cls-4" d="M45.97,363.49h-5.24v.35h.13c.74.05.74.13.74.4v6.43c0,.27,0,.35-.74.4h-.13v.35h3.08v-.35h-.13c-.99-.05-.99-.13-.99-.41v-3.03h1.19c.86,0,1.04.27,1.2,1.21l.02.12h.33v-3.05h-.33l-.02.12c-.16.89-.35,1.17-1.2,1.17h-1.19v-3.24h1.34c1.1,0,1.47.28,1.96,1.48l.03.09h.35l-.38-1.9-.02-.11Z"/>
      <path class="cls-4" d="M53.17,363.84h.13c.91.07,1.1.23,1.1.96v3.73c0,1.59-.72,2.4-2.13,2.4s-2.08-.84-2.08-2.42v-4.26c0-.27,0-.35.74-.4h.13v-.35h-2.83v.35h.13c.74.05.74.13.74.4v4.33c0,1.93.99,2.95,2.86,2.95s2.93-1.04,2.93-3v-3.73c0-.71.17-.89.9-.95h.13v-.35h-2.76v.34Z"/>
      <path class="cls-4" d="M63.41,369.35c-.66,1.27-1.12,1.61-2.13,1.61h-1.16c-.25,0-.33-.07-.33-.29v-6.44c0-.27,0-.35.74-.4h.13v-.35h-2.83v.35h.13c.74.05.74.13.74.4v6.43c0,.26,0,.35-.74.4h-.13v.35h5.32l.62-2.07.02-.06h-.35l-.04.08Z"/>
      <path class="cls-4" d="M75.14,370.1l-2-5.51c-.24-.65-.3-.83-.38-1.2l-.03-.11h-.24l-.04.05c-.15.19-.45.33-.67.38l-.16.04.23.58-2.04,5.66c-.31.82-.62,1.01-1.05,1.07l-.12.02v.33h2.5v-.34h-.13c-.41-.04-.66-.12-.76-.26-.08-.12-.07-.34.05-.66l.62-1.73h2.47l.76,2.13c.07.21.09.32.06.37-.08.12-.54.14-.68.14h-.13v.35h2.89v-.34h-.13c-.61-.07-.7-.16-1-.97ZM73.2,367.94h-2.12l1.06-2.97,1.06,2.97Z"/>
      <path class="cls-4" d="M83.3,369.76l-1.53-2.3c.86-.25,1.86-.8,1.86-2,0-.9-.53-1.97-3.07-1.97h-2.54v.34h.13c.74.06.74.13.74.39v6.44c0,.27,0,.35-.74.4h-.13v.35h2.96v-.35h-.13c-.87-.05-.87-.14-.87-.4v-3.03h.46c.19,0,.26,0,.48.37l1.44,2.31c.6.98,1.02,1.15,1.67,1.15.23,0,.52-.02.7-.04h.12v-.34h-.13c-.44-.05-.82-.4-1.42-1.31ZM80.49,367.2h-.51v-3.26h.4c.97,0,2.13.29,2.13,1.68,0,.98-.77,1.58-2.01,1.58Z"/>
      <path class="cls-4" d="M92.31,369.37c-.7,1.35-1.16,1.59-2.11,1.59h-1.46c-.24,0-.33-.08-.33-.29v-3.05h1.3c.86,0,1.04.27,1.2,1.21l.02.12h.33v-3.05h-.33l-.02.12c-.16.89-.35,1.17-1.2,1.17h-1.3v-3.24h1.53c1.1,0,1.47.28,1.96,1.48l.03.09h.35l-.38-1.9-.02-.11h-5.43v.35h.13c.74.05.74.13.74.4v6.43c0,.27,0,.35-.74.4h-.13v.35h5.61l.64-2.12h-.35l-.04.08Z"/>
      <path class="cls-4" d="M100.74,370.1l-2.01-5.51c-.26-.7-.3-.85-.38-1.2l-.03-.11h-.24l-.04.05c-.15.19-.45.33-.67.38l-.16.04.23.58-2.04,5.66c-.31.82-.62,1.01-1.05,1.07l-.12.02v.33h2.49v-.34h-.13c-.41-.04-.66-.12-.75-.26-.08-.13-.07-.34.05-.66l.62-1.73h2.47l.76,2.13c.07.2.09.32.06.37-.08.12-.54.14-.68.14h-.13v.35h2.89v-.34h-.13c-.61-.07-.7-.16-1-.97ZM98.8,367.94h-2.12l1.06-2.97,1.06,2.97Z"/>
    </g>
    <g>
      <path class="cls-6" d="M19.72,392.82c1.04-1.02,1.25-1.67,1.25-2.39,0-1.28-.97-2.07-2.54-2.07-1.15,0-2.11.39-2.71,1.09h-.01s.57.5.57.5h.01s.01,0,.01,0c.49-.56,1.16-.84,2.06-.84,1.12,0,1.76.51,1.76,1.4,0,.53-.17,1.03-1.01,1.86l-3.16,3.09h0v.59h5.37v-.73h-4.15l2.55-2.5Z"/>
      <path class="cls-6" d="M28.64,388.42h-2.86v7.63h.84v-2.4h2.02c.95,0,1.74-.24,2.29-.69.55-.46.83-1.12.83-1.92,0-1.64-1.17-2.62-3.12-2.62ZM30.92,391.05c0,1.2-.82,1.87-2.3,1.87h-2v-3.76h2c1.48,0,2.3.67,2.3,1.89Z"/>
      <path class="cls-6" d="M34.99,392.79c-.83,0-2.22.21-2.22,1.64,0,1.02.83,1.68,2.1,1.68.88,0,1.57-.32,1.94-.89v.84h.78v-3.56c0-1.46-.81-2.23-2.33-2.23-.9,0-1.76.28-2.33.77h-.01s.36.6.36.6v.02s.03-.02.03-.02c.48-.42,1.17-.67,1.88-.67,1.04,0,1.6.51,1.6,1.49v.33h-1.79ZM35.01,393.41h1.77v.91c-.3.74-.94,1.14-1.79,1.14s-1.42-.39-1.42-1.05.47-1,1.44-1ZM34.03,393.57s.07-.03.11-.05c-.04.02-.08.03-.11.05ZM33.56,394.25s.02-.09.03-.13c-.01.04-.02.09-.03.13ZM33.69,393.87s.07-.09.11-.13c-.04.04-.08.08-.11.13Z"/>
      <path class="cls-6" d="M40.42,391.36v-1.05h-.78v5.75h.81v-2.93c0-1.33.69-2.09,1.9-2.09.02,0,.05,0,.08,0,.03,0,.07,0,.1,0h.02v-.79h-.02c-1.01,0-1.74.38-2.12,1.09Z"/>
      <polygon class="cls-6" points="44.72 394.42 46.04 393.2 48.33 396.05 48.33 396.06 49.33 396.06 46.65 392.66 49.07 390.34 49.11 390.31 48.1 390.31 44.72 393.4 44.72 387.97 43.91 387.97 43.91 396.06 44.72 396.06 44.72 394.42"/>
      <rect class="cls-6" x="50.34" y="390.31" width=".81" height="5.75"/>
      <path class="cls-6" d="M50.75,389.1c.33,0,.58-.25.58-.58,0-.3-.26-.55-.58-.55s-.58.25-.58.56.26.57.58.57Z"/>
      <path class="cls-6" d="M54.07,393.04c0-1.28.74-2.04,1.98-2.04,1.09,0,1.69.64,1.69,1.8v3.25h.81v-3.33c0-1.56-.86-2.46-2.36-2.46-.96,0-1.72.37-2.15,1.04v-1h-.78v5.75h.81v-3.01Z"/>
      <path class="cls-6" d="M65.96,395.34v-5.03h-.78v1.05c-.48-.71-1.27-1.09-2.24-1.09-1.67,0-2.88,1.17-2.88,2.78s1.21,2.8,2.88,2.8c.93,0,1.73-.39,2.2-1.06v.66c0,1.4-.66,2.05-2.08,2.05-.87,0-1.68-.28-2.23-.78l-.02-.02-.4.61h0s.01.03.01.03c.58.55,1.58.88,2.67.88,1.93,0,2.87-.94,2.87-2.87ZM65.17,393.04c0,1.22-.88,2.07-2.15,2.07s-2.14-.85-2.14-2.07.88-2.06,2.14-2.06,2.15.85,2.15,2.06Z"/>
      <path class="cls-6" d="M76.05,394.03c0-1.5-1.38-1.83-2.6-2.13-1.07-.26-2.08-.51-2.08-1.46,0-.32.14-1.36,1.99-1.36.7,0,1.46.23,2.07.63h.02s.28-.65.28-.65h0s-.01-.02-.01-.02c-.61-.42-1.49-.68-2.37-.68-2.08,0-2.82,1.09-2.82,2.1,0,1.52,1.39,1.86,2.61,2.16,1.06.26,2.06.5,2.06,1.45,0,.83-.75,1.33-2.02,1.33-.95,0-1.92-.36-2.49-.92l-.02-.02-.33.64h0s0,.02,0,.02c.57.59,1.71.99,2.84.99,2.1,0,2.85-1.08,2.85-2.09Z"/>
      <path class="cls-6" d="M77.8,395.32c.04.07.08.14.12.2.07.1.15.18.25.26.06.05.13.09.2.13.11.06.24.1.38.14.07.02.15.03.23.04.08,0,.15.04.24.04.22,0,.48-.04.7-.12h.01s-.06-.66-.06-.66v-.03s-.03.01-.03.01c-.11.05-.29.1-.51.1-.62,0-.93-.34-.93-1.02v-6.42h-.81v6.49c0,.09.03.16.04.24,0,.08.02.16.04.24.03.14.07.27.13.39Z"/>
      <path class="cls-6" d="M83.19,390.27c-1.7,0-2.93,1.23-2.93,2.92s1.23,2.93,2.93,2.93,2.92-1.23,2.92-2.93-1.23-2.92-2.92-2.92ZM85.29,393.18c0,1.3-.86,2.21-2.1,2.21s-2.11-.91-2.11-2.21.87-2.21,2.11-2.21,2.1.91,2.1,2.21Z"/>
      <path class="cls-6" d="M87.78,394.43c0,1.07.62,1.68,1.69,1.68.48,0,.93-.15,1.22-.41h.01s-.28-.58-.28-.58v-.02s-.03.02-.03.02c-.2.18-.51.29-.83.29-.62,0-.97-.36-.97-1.02v-3.39h1.74v-.69h-1.74v-1.25h-.81v1.25h-1.02v.69h1.02v3.43Z"/>
      <path class="cls-6" d="M95.97,394.46c0-1.21-1.12-1.41-2.11-1.59-.82-.15-1.59-.29-1.59-.98,0-.59.54-.92,1.47-.92.64,0,1.21.17,1.67.49h.02s.35-.63.35-.63v-.02s0-.01,0-.01c-.48-.33-1.27-.53-2.03-.53-1.38,0-2.28.65-2.28,1.65,0,1.26,1.14,1.47,2.15,1.65.83.15,1.55.28,1.55.92,0,.61-.51.91-1.51.91-.73,0-1.53-.25-2.02-.64h-.02s-.36.61-.36.61h0s.01.03.01.03c.49.43,1.43.71,2.33.71,1.46,0,2.37-.63,2.37-1.65Z"/>
      <polygon class="cls-6" points="16.63 413.79 16.62 413.8 16.83 414.53 18.26 414.09 18.26 420.84 19.14 420.84 19.14 413.15 18.5 413.15 16.63 413.79"/>
      <path class="cls-6" d="M28.63,416.68c-1.07-.26-2.08-.51-2.08-1.46,0-.32.14-1.36,1.99-1.36.7,0,1.46.23,2.07.63h.02s.28-.65.28-.65h0s-.01-.02-.01-.02c-.61-.42-1.49-.68-2.37-.68-2.08,0-2.82,1.09-2.82,2.1,0,1.52,1.39,1.86,2.61,2.16,1.06.26,2.06.5,2.06,1.45,0,.83-.75,1.33-2.02,1.33-.95,0-1.92-.36-2.49-.92l-.02-.02-.33.64h0s0,.02,0,.02c.57.59,1.71.99,2.84.99,2.1,0,2.85-1.08,2.85-2.09,0-1.5-1.38-1.83-2.6-2.13Z"/>
      <path class="cls-6" d="M35.54,419.89l-.02.02c-.2.18-.51.29-.83.29-.62,0-.97-.36-.97-1.02v-3.39h1.74v-.69h-1.74v-1.25h-.81v1.25h-1.02v.69h1.02v3.43c0,1.07.62,1.68,1.69,1.68.48,0,.93-.15,1.22-.41h.01s-.28-.58-.28-.58v-.02Z"/>
      <path class="cls-6" d="M39.33,415.05c-1.7,0-2.93,1.23-2.93,2.92s1.23,2.93,2.93,2.93,2.92-1.23,2.92-2.93-1.23-2.92-2.92-2.92ZM41.43,417.97c0,1.3-.86,2.21-2.1,2.21s-2.11-.91-2.11-2.21.87-2.21,2.11-2.21,2.1.91,2.1,2.21Z"/>
      <path class="cls-6" d="M44.56,416.15v-1.05h-.78v5.75h.81v-2.93c0-1.33.69-2.09,1.9-2.09.03,0,.05,0,.08,0,.03,0,.07,0,.1,0h.02v-.79h-.02c-1.01,0-1.74.38-2.12,1.09Z"/>
      <path class="cls-6" d="M50.05,415.05c-.9,0-1.76.28-2.33.77h-.01s.36.6.36.6v.02s.03-.02.03-.02c.48-.42,1.17-.67,1.88-.67,1.04,0,1.6.51,1.6,1.49v.33h-1.79c-.83,0-2.22.21-2.22,1.64,0,1.02.83,1.68,2.1,1.68.88,0,1.57-.32,1.94-.89v.84h.78v-3.56c0-1.46-.81-2.23-2.33-2.23ZM49.8,418.19h1.77v.91c-.3.74-.94,1.14-1.79,1.14s-1.42-.39-1.42-1.05.47-1,1.44-1ZM48.83,418.36s.07-.03.11-.05c-.04.02-.08.03-.11.05ZM48.35,419.03s.02-.09.03-.13c-.01.04-.02.09-.03.13ZM48.49,418.65s.07-.09.11-.13c-.04.04-.08.08-.11.13Z"/>
      <path class="cls-6" d="M59.01,416.14c-.48-.71-1.27-1.09-2.24-1.09-1.67,0-2.88,1.17-2.88,2.78s1.21,2.8,2.88,2.8c.93,0,1.73-.39,2.2-1.06v.66c0,1.4-.66,2.05-2.08,2.05-.87,0-1.68-.28-2.23-.78l-.02-.02-.4.61h0s.01.03.01.03c.58.55,1.58.88,2.67.88,1.93,0,2.87-.94,2.87-2.87v-5.03h-.78v1.05ZM59,417.83c0,1.22-.88,2.07-2.15,2.07s-2.14-.85-2.14-2.07.88-2.06,2.14-2.06,2.15.85,2.15,2.06Z"/>
      <path class="cls-6" d="M64.14,415.05c-1.63,0-2.81,1.23-2.81,2.92s1.24,2.93,3.01,2.93c.92,0,1.71-.33,2.22-.94h.01s-.45-.53-.45-.53v-.02s-.03.02-.03.02c-.42.49-1.02.74-1.73.74-1.24,0-2.13-.78-2.22-1.95h4.77v-.02s0-.09,0-.13c0-.04,0-.07,0-.1,0-1.72-1.15-2.92-2.79-2.92ZM62.14,417.61c.11-1.1.92-1.86,2-1.86s1.9.75,2.01,1.86h-4Z"/>
      <path class="cls-6" d="M77.45,415.83c0-1.64-1.17-2.62-3.12-2.62h-2.86v7.63h.84v-2.41h2.02c.21,0,.4,0,.6-.03l1.73,2.43h0s.93,0,.93,0l-1.86-2.61c1.11-.37,1.72-1.22,1.72-2.4ZM76.61,415.83c0,1.21-.82,1.88-2.3,1.88h-2v-3.77h2c1.48,0,2.3.67,2.3,1.89Z"/>
      <path class="cls-6" d="M81.5,415.05c-1.7,0-2.93,1.23-2.93,2.92s1.23,2.93,2.93,2.93,2.92-1.23,2.92-2.93-1.23-2.92-2.92-2.92ZM83.6,417.97c0,1.3-.86,2.21-2.1,2.21s-2.11-.91-2.11-2.21.87-2.21,2.11-2.21,2.1.91,2.1,2.21Z"/>
      <path class="cls-6" d="M88.31,415.05c-1.7,0-2.93,1.23-2.93,2.92s1.23,2.93,2.93,2.93,2.92-1.23,2.92-2.93-1.23-2.92-2.92-2.92ZM90.4,417.97c0,1.3-.86,2.21-2.1,2.21s-2.11-.91-2.11-2.21.87-2.21,2.11-2.21,2.1.91,2.1,2.21Z"/>
      <path class="cls-6" d="M99.9,415.05c-1,0-1.82.43-2.25,1.18-.35-.76-1.07-1.18-2.03-1.18s-1.65.37-2.07,1.03v-.99h-.78v5.75h.81v-3.01c0-1.26.72-2.04,1.89-2.04,1.05,0,1.63.64,1.63,1.8v3.25h.81v-3.01c0-1.28.71-2.04,1.89-2.04,1.04,0,1.62.64,1.62,1.8v3.25h.81v-3.33c0-1.56-.84-2.46-2.32-2.46Z"/>
    </g>
  </g>
  <g>
    <rect class="cls-2" x="11.3" y="32.55" width="286.46" height=".6"/>
    <rect class="cls-5" x="11.3" y="57.55" width="286.46" height=".15"/>
    <rect class="cls-5" x="11.3" y="82.32" width="286.46" height=".15"/>
    <rect class="cls-5" x="11.3" y="107.09" width="286.46" height=".15"/>
    <rect class="cls-5" x="11.3" y="131.87" width="286.46" height=".15"/>
    <rect class="cls-5" x="11.3" y="156.64" width="286.46" height=".15"/>
    <rect class="cls-5" x="11.3" y="181.41" width="286.46" height=".15"/>
    <rect class="cls-5" x="11.3" y="206.18" width="286.46" height=".15"/>
    <rect class="cls-5" x="11.3" y="230.96" width="286.46" height=".15"/>
    <rect class="cls-5" x="11.3" y="255.73" width="286.46" height=".15"/>
    <rect class="cls-5" x="11.3" y="280.5" width="286.46" height=".15"/>
    <rect class="cls-5" x="11.3" y="305.28" width="286.46" height=".15"/>
    <rect class="cls-2" x="11.3" y="329.82" width="286.46" height=".6"/>
    <rect class="cls-5" x="11.3" y="404.37" width="286.46" height=".15"/>
    <rect class="cls-5" x="11.3" y="354.82" width="286.46" height=".15"/>
    <rect class="cls-5" x="11.3" y="379.59" width="286.46" height=".15"/>
  </g>
  <g>
    <g>
      <path class="cls-4" d="M180.06,16.17h.12c.96.07,1.17.25,1.17,1.03v3.91c0,1.68-.76,2.54-2.25,2.54s-2.2-.88-2.2-2.56v-4.47c0-.31.03-.39.8-.44h.12v-.33h-2.92v.32h.12c.76.05.8.14.8.44v4.53c0,2.04,1,3.07,2.97,3.07s3.05-1.08,3.05-3.12v-3.91c0-.76.19-.96.96-1.02h.12v-.33h-2.85v.32Z"/>
      <path class="cls-4" d="M188.48,19.48l-.65-.28c-1.23-.52-1.49-1.05-1.49-1.68,0-.95.72-1.37,1.44-1.37.86,0,1.56.66,1.97,1.85l.03.08h.3l-.23-2.2v-.04h-.31l-.02.1c-.04.18-.06.18-.08.18-.05,0-.16-.04-.27-.09h-.01c-.31-.12-.77-.3-1.38-.3-1.31,0-2.3.99-2.3,2.29,0,.96.61,1.71,1.81,2.23l.65.27c1.07.45,1.54.98,1.54,1.71,0,.95-.7,1.56-1.78,1.56s-1.79-.68-2.26-2.07l-.03-.08h-.32l.28,2.42v.04h.3l.02-.1c.04-.17.06-.17.09-.17.05,0,.16.04.29.08h.02c.36.12.9.3,1.61.3,1.51,0,2.64-1.05,2.64-2.45,0-1.01-.61-1.76-1.87-2.29Z"/>
      <path class="cls-4" d="M199.1,22c-.74,1.43-1.23,1.68-2.23,1.68h-1.53c-.27,0-.37-.09-.37-.33v-3.22h1.38c.92,0,1.1.29,1.27,1.28l.02.1h.31v-3.15h-.3l-.02.1c-.17.94-.37,1.24-1.27,1.24h-1.38v-3.44h1.62c1.17,0,1.55.29,2.07,1.56l.03.08h.33l-.39-1.96-.02-.1h-5.65v.32h.12c.76.05.8.14.8.44v6.73c0,.31-.03.39-.8.44h-.12v.33h5.84l.66-2.17h-.32l-.03.07Z"/>
      <path class="cls-4" d="M207.24,15.85h-5.45v.32h.12c.76.05.8.14.8.44v6.73c0,.31-.03.39-.8.44h-.12v.33h3.19v-.32h-.12c-1.06-.05-1.06-.15-1.06-.45v-3.2h1.27c.91,0,1.11.3,1.27,1.28l.02.1h.31v-3.15h-.31l-.02.1c-.17.95-.37,1.24-1.27,1.24h-1.27v-3.44h1.43c1.17,0,1.56.29,2.07,1.56l.03.08h.33l-.39-1.96-.02-.1Z"/>
      <path class="cls-4" d="M215.04,16.17h.12c.96.07,1.17.25,1.17,1.03v3.91c0,1.68-.76,2.54-2.25,2.54s-2.2-.88-2.2-2.56v-4.47c0-.31.03-.39.8-.44h.12v-.33h-2.92v.32h.12c.76.05.8.14.8.44v4.53c0,2.04,1,3.07,2.97,3.07s3.05-1.08,3.05-3.12v-3.91c0-.76.19-.96.96-1.02h.12v-.33h-2.85v.32Z"/>
      <path class="cls-4" d="M225.98,21.98c-.7,1.34-1.18,1.7-2.25,1.7h-1.21c-.28,0-.37-.08-.37-.33v-6.74c0-.31.03-.39.8-.44h.12v-.33h-2.92v.32h.12c.76.05.8.14.8.44v6.73c0,.3-.03.39-.79.44h-.12v.33h5.54l.61-2.04.05-.16h-.32l-.03.07Z"/>
      <path class="cls-4" d="M238.67,22.76l-2.1-5.78c-.27-.74-.32-.89-.4-1.26l-.02-.1h-.23l-.04.05c-.16.2-.47.35-.71.41l-.14.03.23.6-2.14,5.94c-.33.87-.66,1.07-1.12,1.13h-.11v.33h2.57v-.32h-.12c-.45-.04-.71-.13-.81-.28-.09-.14-.08-.36.05-.71l.65-1.83h2.62l.81,2.25c.08.23.1.35.05.41-.06.09-.3.14-.73.16h-.12v.33h2.99v-.32h-.11c-.65-.07-.75-.17-1.07-1.03ZM236.69,20.51h-2.29l1.14-3.2,1.14,3.2Z"/>
      <path class="cls-4" d="M247.45,22.41l-1.62-2.43c.91-.26,1.96-.83,1.96-2.09,0-.93-.55-2.04-3.19-2.04h-2.64v.32h.12c.77.07.8.14.8.44v6.74c0,.31-.03.39-.79.44h-.12v.33h3.06v-.32h-.12c-.93-.05-.93-.15-.93-.44v-3.2h.5c.2,0,.29,0,.52.39l1.51,2.42c.62,1.01,1.05,1.19,1.73,1.19.23,0,.55-.02.73-.04h.11v-.32h-.11c-.47-.05-.87-.42-1.5-1.38ZM246.64,18.05c0,1.04-.82,1.68-2.13,1.68h-.56v-3.46h.44c1.47,0,2.25.62,2.25,1.78Z"/>
      <path class="cls-4" d="M257.14,22c-.74,1.43-1.23,1.68-2.23,1.68h-1.53c-.27,0-.37-.09-.37-.33v-3.22h1.38c.92,0,1.1.29,1.27,1.28l.02.1h.31v-3.15h-.3l-.02.1c-.17.94-.37,1.24-1.27,1.24h-1.38v-3.44h1.62c1.17,0,1.55.29,2.07,1.56l.03.08h.33l-.39-1.96-.02-.1h-5.65v.32h.12c.76.05.8.14.8.44v6.73c0,.31-.03.39-.79.44h-.12v.33h5.84l.66-2.17h-.32l-.03.07Z"/>
      <path class="cls-4" d="M264.46,23.78h-.12v.33h2.99v-.32h-.11c-.65-.07-.75-.17-1.07-1.03l-2.1-5.78c-.27-.74-.32-.89-.4-1.26l-.02-.1h-.23l-.04.05c-.16.2-.47.35-.71.41l-.14.03.23.6-2.14,5.94c-.33.87-.66,1.07-1.12,1.13h-.11v.33h2.57v-.32h-.12c-.45-.04-.71-.13-.81-.28-.09-.14-.08-.36.05-.71l.65-1.83h2.62l.81,2.25c.08.23.1.35.05.41-.06.09-.3.14-.73.16ZM264.17,20.51h-2.29l1.14-3.2,1.14,3.2Z"/>
      <path class="cls-4" d="M274.63,25.22h.62l-.06-.1c-.72-1.22-1.07-2.67-1.07-4.41s.35-3.19,1.07-4.41l.06-.1h-.62s-.01.03-.01.03c-.71,1.14-1.09,2.73-1.09,4.49s.38,3.3,1.09,4.49l.02.03Z"/>
      <path class="cls-4" d="M282.76,18.23c-.88,0-1.62.41-2,1.09-.3-.71-.94-1.09-1.82-1.09-.8,0-1.46.33-1.83.9v-.86h-.59v5.1h.61v-2.71c0-1.15.67-1.86,1.75-1.86.95,0,1.48.58,1.48,1.64v2.93h.61v-2.71c0-1.15.67-1.86,1.75-1.86.95,0,1.48.58,1.48,1.64v2.93h.61v-2.97c0-1.38-.75-2.17-2.05-2.17Z"/>
      <path class="cls-4" d="M286.08,17.62c.25-.28.58-.42,1.04-.42.57,0,.88.25.88.69,0,.27-.09.52-.52.95l-1.64,1.63-.03.03v.34h2.86v-.45h-2.11l1.26-1.25c.55-.54.66-.89.66-1.27,0-.68-.53-1.12-1.35-1.12-.6,0-1.09.2-1.41.57l-.06.08.35.31.07-.08Z"/>
      <path class="cls-4" d="M289.13,25.22h.61l.02-.03c.72-1.18,1.1-2.73,1.1-4.49s-.39-3.35-1.11-4.5l-.02-.02h-.61l.06.1c.71,1.21,1.06,2.66,1.06,4.41s-.35,3.21-1.06,4.41l-.06.1Z"/>
      <polygon class="cls-4" points="260.56 339.29 260.79 340.08 262.21 339.64 262.21 346.38 263.16 346.38 263.16 338.63 262.48 338.63 260.56 339.29"/>
      <path class="cls-4" d="M269.48,345.8c.51-.47.78-1.09.78-1.84s-.26-1.32-.76-1.75c-.5-.43-1.15-.65-1.92-.65-.47,0-.95.1-1.44.31l.15-2.3h3.63v-.89h-4.47l-.22,3.75v.03s.6.4.6.4l.02.02h.03c.53-.3,1.06-.44,1.57-.44.54,0,.99.15,1.33.43.34.29.51.66.51,1.11,0,.48-.17.88-.49,1.19-.33.31-.76.46-1.29.46-.71,0-1.42-.35-2.12-1.03l-.04-.04-.63.69.03.03c.81.81,1.73,1.22,2.75,1.22.8,0,1.47-.24,1.99-.71Z"/>
      <polygon class="cls-4" points="276.46 338.68 271.21 338.68 271.21 339.56 275.35 339.56 271.96 346.31 271.92 346.38 272.99 346.38 276.46 339.4 276.46 338.68"/>
      <rect class="cls-4" x="276.69" y="345.14" width="1.1" height="1.24"/>
      <path class="cls-4" d="M281.94,341.57c-.47,0-.95.1-1.44.31l.15-2.3h3.63v-.89h-4.47l-.22,3.75v.03s.6.4.6.4l.02.02h.03c.53-.3,1.06-.44,1.57-.44.54,0,.99.15,1.33.43.34.29.51.66.51,1.11,0,.48-.17.88-.49,1.19-.33.31-.76.46-1.29.46-.71,0-1.42-.35-2.12-1.03l-.04-.04-.63.69.03.03c.81.81,1.73,1.22,2.75,1.22.8,0,1.47-.24,1.99-.71.51-.47.78-1.09.78-1.84s-.26-1.32-.76-1.75c-.5-.43-1.15-.65-1.92-.65Z"/>
      <path class="cls-4" d="M288.58,346.51c.73,0,1.34-.22,1.84-.66.5-.44.75-1,.75-1.68s-.25-1.21-.73-1.58c-.46-.35-1.04-.56-1.72-.62l2.32-2.57h.01v-.71h-4.95v.87h3.65l-2.32,2.62-.02.02.18.54v.03h.54c.62,0,1.13.13,1.51.38.38.25.56.59.56,1.04s-.15.78-.46,1.05c-.31.27-.69.4-1.15.4-.85,0-1.58-.37-2.19-1.11l-.03-.04-.66.59-.04.03.03.04c.7.91,1.67,1.38,2.87,1.38Z"/>
      <polygon class="cls-4" points="265.17 364.07 265.41 364.86 266.82 364.42 266.82 371.16 267.77 371.16 267.77 363.41 267.09 363.41 265.17 364.07"/>
      <polygon class="cls-4" points="269.06 364.07 269.29 364.86 270.71 364.42 270.71 371.16 271.65 371.16 271.65 363.41 270.97 363.41 269.06 364.07"/>
      <path class="cls-4" d="M277.93,367.38c-.46-.35-1.04-.56-1.72-.62l2.32-2.57h.01v-.71h-4.95v.87h3.65l-2.32,2.62-.02.02.18.54v.03h.54c.62,0,1.13.13,1.51.38.38.25.56.59.56,1.04s-.15.78-.46,1.05c-.31.27-.69.4-1.15.4-.85,0-1.58-.37-2.19-1.11l-.03-.04-.66.59-.04.03.03.04c.7.91,1.67,1.38,2.87,1.38.73,0,1.34-.22,1.84-.66.5-.44.75-1,.75-1.68s-.25-1.21-.73-1.58Z"/>
      <rect class="cls-4" x="280.14" y="369.93" width="1.1" height="1.24"/>
      <polygon class="cls-4" points="281.71 364.07 281.95 364.86 283.36 364.42 283.36 371.16 284.31 371.16 284.31 363.41 283.63 363.41 281.71 364.07"/>
      <path class="cls-4" d="M287.29,370.28l1.93-1.71c.72-.64,1.22-1.17,1.51-1.57.29-.41.43-.89.43-1.42,0-.64-.23-1.18-.68-1.59-.45-.42-1.03-.63-1.72-.63-.64,0-1.17.14-1.59.4-.41.26-.81.68-1.19,1.23l-.03.04.67.48.04.03.03-.04c.31-.44.63-.77.94-.97.3-.2.66-.31,1.06-.31s.77.13,1.05.39c.28.26.43.6.43,1.02,0,.36-.11.72-.34,1.06-.23.34-.64.78-1.23,1.29l-2.77,2.44v.73h5.41v-.88h-3.94Z"/>
    </g>
    <g>
      <path class="cls-1" d="M272.75,46.13c.93,0,1.64-.4,2.15-1.21v.1c0,.95-.21,1.72-.62,2.33s-.96.91-1.63.91c-.63,0-1.25-.27-1.87-.81l-.5.66c.75.62,1.53.93,2.34.93.93,0,1.69-.38,2.28-1.15s.88-1.75.88-2.96c0-1.29-.27-2.24-.8-2.84-.53-.6-1.25-.9-2.14-.9-.8,0-1.45.25-1.96.74-.51.5-.77,1.11-.77,1.84s.25,1.26.74,1.71c.49.45,1.13.67,1.91.67ZM271.48,42.46c.33-.35.77-.53,1.32-.53s1.03.16,1.39.49c.36.33.54.74.54,1.23,0,.46-.17.87-.53,1.22-.35.35-.8.52-1.36.52s-1-.16-1.35-.47c-.35-.31-.52-.71-.52-1.19s.17-.92.5-1.27Z"/>
      <rect class="cls-1" x="277.17" y="47.76" width="1" height="1.14"/>
      <path class="cls-1" d="M282.38,48.25c-.87,0-1.61-.38-2.22-1.13l-.62.55c.69.91,1.64,1.36,2.83,1.36.72,0,1.32-.21,1.81-.65.49-.43.73-.98.73-1.64s-.24-1.18-.71-1.54c-.47-.36-1.07-.57-1.8-.62l2.39-2.65v-.63h-4.85v.77h3.71l-2.4,2.7.17.51h.49c.64,0,1.15.13,1.54.38.39.26.59.62.59,1.08s-.16.81-.48,1.09c-.32.27-.71.41-1.18.41Z"/>
      <polygon class="cls-1" points="286.87 48.9 287.83 48.9 291.28 41.95 291.28 41.31 286.12 41.31 286.12 42.09 290.3 42.09 286.87 48.9"/>
      <path class="cls-1" d="M268.74,73.04c-.87,0-1.61-.38-2.22-1.13l-.62.55c.69.91,1.64,1.36,2.83,1.36.72,0,1.32-.21,1.81-.65.49-.43.73-.98.73-1.64s-.24-1.18-.71-1.54c-.47-.36-1.07-.57-1.8-.62l2.39-2.65v-.63h-4.85v.77h3.71l-2.4,2.7.17.51h.49c.64,0,1.15.13,1.54.39.39.26.59.62.59,1.08s-.16.81-.48,1.09-.71.41-1.18.41Z"/>
      <path class="cls-1" d="M275.39,73.04c-.87,0-1.61-.38-2.22-1.13l-.62.55c.69.91,1.64,1.36,2.83,1.36.72,0,1.32-.21,1.81-.65.49-.43.73-.98.73-1.64s-.24-1.18-.71-1.54c-.47-.36-1.07-.57-1.8-.62l2.39-2.65v-.63h-4.85v.77h3.71l-2.4,2.7.17.51h.49c.64,0,1.15.13,1.54.39.39.26.59.62.59,1.08s-.16.81-.48,1.09-.71.41-1.18.41Z"/>
      <rect class="cls-1" x="279.49" y="72.55" width="1" height="1.14"/>
      <path class="cls-1" d="M284.7,73.04c-.87,0-1.61-.38-2.22-1.13l-.62.55c.69.91,1.64,1.36,2.83,1.36.72,0,1.32-.21,1.81-.65.49-.43.73-.98.73-1.64s-.24-1.18-.71-1.54c-.47-.36-1.07-.57-1.8-.62l2.39-2.65v-.63h-4.85v.77h3.71l-2.4,2.7.17.51h.49c.64,0,1.15.13,1.54.39.39.26.59.62.59,1.08s-.16.81-.48,1.09-.71.41-1.18.41Z"/>
      <polygon class="cls-1" points="290.76 73.69 290.76 66.04 290.13 66.04 288.27 66.68 288.48 67.37 289.91 66.93 289.91 73.69 290.76 73.69"/>
      <polygon class="cls-1" points="268.6 91.46 268.8 92.16 270.24 91.71 270.24 98.47 271.08 98.47 271.08 90.82 270.45 90.82 268.6 91.46"/>
      <path class="cls-1" d="M274.34,92.45c.4-.62.94-.92,1.62-.92.6,0,1.2.25,1.79.75l.5-.66c-.71-.58-1.46-.87-2.25-.87-.97,0-1.74.39-2.31,1.17-.57.78-.85,1.77-.85,2.95,0,1.29.26,2.23.79,2.83.53.6,1.25.9,2.16.9.77,0,1.42-.24,1.94-.72.52-.48.78-1.08.78-1.81s-.25-1.27-.76-1.7c-.51-.43-1.13-.65-1.86-.65-.91,0-1.63.39-2.16,1.16v-.03c0-.98.2-1.78.61-2.4ZM274.42,94.96c.36-.34.81-.5,1.36-.5s.99.15,1.33.46c.35.31.52.7.52,1.17,0,.51-.17.93-.5,1.26-.34.33-.78.5-1.33.5s-1.02-.16-1.38-.49c-.36-.33-.54-.73-.54-1.22,0-.45.18-.84.54-1.18Z"/>
      <rect class="cls-1" x="280.04" y="97.33" width="1" height="1.14"/>
      <polygon class="cls-1" points="284.11 98.47 284.11 90.82 283.48 90.82 281.62 91.46 281.83 92.16 283.26 91.71 283.26 98.47 284.11 98.47"/>
      <path class="cls-1" d="M286.15,91.65h3.71l-2.4,2.7.17.51h.49c.64,0,1.15.13,1.54.39.39.26.59.62.59,1.08s-.16.81-.48,1.08c-.32.28-.71.41-1.18.41-.87,0-1.61-.38-2.22-1.13l-.62.55c.69.9,1.64,1.36,2.83,1.36.72,0,1.32-.22,1.81-.65.49-.43.73-.98.73-1.64s-.24-1.18-.71-1.54c-.47-.36-1.07-.57-1.8-.62l2.39-2.65v-.63h-4.85v.77Z"/>
      <path class="cls-1" d="M273.43,119.11c.28-.41.42-.87.42-1.39,0-.63-.22-1.15-.67-1.56-.44-.41-1.01-.61-1.69-.61-.63,0-1.15.13-1.56.4-.41.26-.8.67-1.17,1.22l.63.46c.32-.45.64-.78.95-.99s.68-.32,1.09-.32.79.13,1.08.4.45.62.45,1.05c0,.38-.12.74-.35,1.08-.23.35-.64.78-1.24,1.3l-2.76,2.43v.66h5.31v-.78h-4.03l2.03-1.8c.72-.64,1.22-1.16,1.5-1.56Z"/>
      <rect class="cls-1" x="275.44" y="122.12" width="1" height="1.14"/>
      <path class="cls-1" d="M278.08,117.56c0,.78.43,1.37,1.3,1.77-.48.17-.86.42-1.14.74s-.42.69-.42,1.13c0,.64.27,1.16.81,1.56.54.41,1.22.61,2.04.61s1.5-.2,2.04-.6c.54-.4.81-.92.81-1.56,0-.86-.52-1.49-1.56-1.88.87-.4,1.3-.98,1.3-1.75,0-.59-.26-1.07-.77-1.46-.51-.38-1.12-.57-1.83-.57s-1.32.19-1.83.57c-.51.38-.76.86-.76,1.43ZM282.09,120.14c.38.27.58.62.58,1.04s-.18.76-.54,1.03-.84.41-1.45.41-1.09-.14-1.45-.41-.54-.61-.54-1.01c0-.43.19-.78.57-1.05.38-.27.85-.41,1.42-.41s1.03.14,1.41.41ZM279.43,116.68c.33-.25.74-.38,1.24-.38s.9.12,1.24.38c.33.25.5.56.5.94,0,.42-.17.76-.5,1.02-.33.26-.75.39-1.24.39s-.91-.13-1.24-.39c-.33-.26-.5-.59-.5-1s.16-.71.49-.96Z"/>
      <path class="cls-1" d="M287.97,123.39c.96,0,1.73-.38,2.32-1.15.59-.76.89-1.69.89-2.78s-.29-2.04-.88-2.79c-.59-.76-1.36-1.13-2.31-1.13s-1.73.38-2.33,1.14-.9,1.69-.9,2.78.29,2.04.88,2.79c.59.76,1.36,1.13,2.32,1.13ZM286.3,117.23c.43-.61.98-.92,1.67-.92s1.25.31,1.68.93c.43.62.65,1.36.65,2.22s-.21,1.62-.64,2.23c-.42.61-.98.92-1.67.92s-1.25-.31-1.68-.93c-.43-.62-.65-1.36-.65-2.22s.21-1.62.64-2.23Z"/>
      <path class="cls-1" d="M273.96,140.39l-4.3,5.23.22.62h4v1.8h.82v-1.8h1.18v-.72h-1.18v-5.13h-.75ZM273.88,145.53h-3.19l3.19-3.92v3.92Z"/>
      <rect class="cls-1" x="277.31" y="146.91" width="1" height="1.14"/>
      <polygon class="cls-1" points="279.66 141.23 283.83 141.23 280.4 148.04 281.36 148.04 284.81 141.09 284.81 140.45 279.66 140.45 279.66 141.23"/>
      <polygon class="cls-1" points="286.13 140.45 286.13 141.23 290.3 141.23 286.87 148.04 287.83 148.04 291.28 141.09 291.28 140.45 286.13 140.45"/>
      <polygon class="cls-1" points="268.6 166.51 270.03 166.07 270.03 172.83 270.88 172.83 270.88 165.18 270.25 165.18 268.39 165.82 268.6 166.51"/>
      <path class="cls-1" d="M275.39,165.12c-.71,0-1.32.19-1.83.58-.51.38-.76.86-.76,1.43,0,.78.43,1.37,1.3,1.77-.48.17-.86.42-1.14.74s-.42.69-.42,1.13c0,.64.27,1.16.81,1.56.54.41,1.22.61,2.04.61s1.5-.2,2.04-.6c.54-.4.81-.92.81-1.56,0-.86-.52-1.49-1.56-1.88.87-.4,1.3-.98,1.3-1.75,0-.59-.26-1.07-.77-1.45-.51-.38-1.12-.58-1.83-.58ZM276.8,169.71c.38.27.58.62.58,1.04s-.18.76-.54,1.03-.84.41-1.45.41-1.09-.14-1.45-.41-.54-.61-.54-1.01c0-.43.19-.78.57-1.05.38-.28.85-.41,1.42-.41s1.03.13,1.41.41ZM276.63,168.21c-.33.26-.75.39-1.24.39s-.91-.13-1.24-.39c-.33-.26-.5-.59-.5-1s.16-.71.49-.96.74-.37,1.24-.37.9.12,1.24.37c.33.25.5.56.5.94,0,.42-.17.76-.5,1.02Z"/>
      <rect class="cls-1" x="279.65" y="171.69" width="1" height="1.14"/>
      <path class="cls-1" d="M286.8,168.68c.28-.41.42-.87.42-1.39,0-.63-.22-1.15-.67-1.56-.44-.41-1.01-.61-1.69-.61-.63,0-1.15.13-1.56.4-.41.26-.8.67-1.17,1.22l.63.46c.32-.45.64-.78.95-.99s.68-.31,1.09-.31.79.13,1.08.4.45.62.45,1.05c0,.38-.12.74-.35,1.08s-.64.78-1.24,1.3l-2.76,2.43v.66h5.31v-.78h-4.03l2.03-1.8c.72-.64,1.22-1.16,1.5-1.56Z"/>
      <polygon class="cls-1" points="290.76 172.83 290.76 165.18 290.13 165.18 288.27 165.82 288.48 166.51 289.91 166.07 289.91 172.83 290.76 172.83"/>
      <path class="cls-1" d="M267.82,195.81h4v1.8h.82v-1.8h1.18v-.71h-1.18v-5.13h-.75l-4.3,5.23.22.62ZM271.82,191.18v3.92h-3.19l3.19-3.92Z"/>
      <rect class="cls-1" x="275.25" y="196.48" width="1" height="1.14"/>
      <path class="cls-1" d="M281.93,196.06c-.42.6-.96.91-1.63.91-.63,0-1.25-.27-1.87-.81l-.5.66c.75.62,1.53.93,2.34.93.93,0,1.69-.38,2.28-1.15s.88-1.75.88-2.96c0-1.29-.27-2.24-.8-2.84-.53-.6-1.25-.9-2.14-.9-.8,0-1.45.25-1.96.74-.51.5-.77,1.11-.77,1.84s.25,1.26.74,1.71,1.13.67,1.91.67c.93,0,1.64-.41,2.15-1.22v.1c0,.95-.21,1.72-.62,2.33ZM281.86,193.59c-.35.35-.8.52-1.36.52s-1-.16-1.35-.47c-.35-.31-.52-.71-.52-1.19s.17-.92.5-1.28c.33-.35.77-.53,1.32-.53s1.03.17,1.39.49c.36.33.54.74.54,1.23,0,.46-.17.87-.53,1.21Z"/>
      <path class="cls-1" d="M285.66,191.03c-.6.76-.9,1.69-.9,2.78s.29,2.04.88,2.79c.59.76,1.36,1.13,2.32,1.13s1.73-.38,2.32-1.15c.59-.76.89-1.69.89-2.78s-.29-2.04-.88-2.79-1.36-1.13-2.31-1.13-1.73.38-2.33,1.15ZM289.65,191.6c.43.62.65,1.36.65,2.22s-.21,1.62-.64,2.23c-.42.61-.98.92-1.67.92s-1.25-.31-1.68-.93c-.43-.62-.65-1.36-.65-2.22s.21-1.62.64-2.23.98-.92,1.67-.92,1.25.31,1.68.93Z"/>
      <polygon class="cls-1" points="267.77 222.4 267.77 214.75 267.14 214.75 265.29 215.39 265.49 216.08 266.93 215.64 266.93 222.4 267.77 222.4"/>
      <path class="cls-1" d="M271.03,216.38c.4-.62.94-.92,1.62-.92.6,0,1.2.25,1.79.75l.5-.66c-.71-.58-1.46-.87-2.25-.87-.97,0-1.74.39-2.31,1.17-.57.78-.85,1.76-.85,2.95,0,1.29.26,2.23.79,2.83.53.6,1.25.9,2.16.9.77,0,1.42-.24,1.94-.71.52-.48.78-1.08.78-1.81s-.25-1.27-.76-1.71c-.51-.43-1.13-.65-1.86-.65-.91,0-1.63.39-2.16,1.16v-.03c0-.98.2-1.78.61-2.4ZM271.11,218.89c.36-.34.81-.5,1.36-.5s.99.15,1.33.46c.35.31.52.7.52,1.17,0,.51-.17.93-.5,1.26-.34.33-.78.5-1.33.5s-1.02-.16-1.38-.49c-.36-.32-.54-.73-.54-1.21,0-.45.18-.84.54-1.18Z"/>
      <rect class="cls-1" x="276.73" y="221.26" width="1" height="1.14"/>
      <path class="cls-1" d="M283.75,218.71c-.47-.36-1.07-.57-1.8-.62l2.39-2.65v-.63h-4.85v.77h3.71l-2.4,2.7.17.51h.49c.64,0,1.15.13,1.54.39.39.26.59.62.59,1.08s-.16.81-.48,1.08-.71.41-1.18.41c-.87,0-1.61-.38-2.22-1.13l-.62.55c.69.9,1.64,1.36,2.83,1.36.72,0,1.32-.21,1.81-.64.49-.43.73-.98.73-1.64s-.24-1.18-.71-1.54Z"/>
      <path class="cls-1" d="M288.59,221.75c-.87,0-1.61-.38-2.22-1.13l-.62.55c.69.9,1.64,1.36,2.83,1.36.72,0,1.32-.21,1.81-.64.49-.43.73-.98.73-1.64s-.24-1.18-.71-1.54c-.47-.36-1.07-.57-1.8-.62l2.39-2.65v-.63h-4.85v.77h3.71l-2.4,2.7.17.51h.49c.64,0,1.15.13,1.54.39.39.26.59.62.59,1.08s-.16.81-.48,1.08-.71.41-1.18.41Z"/>
      <path class="cls-1" d="M272.3,245.39v1.8h.82v-1.8h1.18v-.72h-1.18v-5.13h-.75l-4.3,5.23.22.62h4ZM272.3,240.75v3.92h-3.19l3.19-3.92Z"/>
      <rect class="cls-1" x="275.73" y="246.05" width="1" height="1.14"/>
      <path class="cls-1" d="M283.06,239.54h-.75l-4.3,5.23.22.62h4v1.8h.82v-1.8h1.18v-.72h-1.18v-5.13ZM282.24,244.67h-3.19l3.19-3.92v3.92Z"/>
      <path class="cls-1" d="M286.29,246.42c.53.6,1.25.9,2.16.9.77,0,1.42-.24,1.94-.72.52-.48.78-1.08.78-1.81s-.25-1.27-.76-1.7c-.51-.43-1.13-.65-1.86-.65-.91,0-1.63.39-2.16,1.16v-.03c0-.98.2-1.78.61-2.4.4-.61.94-.92,1.62-.92.6,0,1.2.25,1.79.75l.5-.66c-.71-.58-1.46-.87-2.25-.87-.97,0-1.74.39-2.31,1.17-.57.78-.85,1.77-.85,2.95,0,1.29.26,2.23.79,2.83ZM287.07,243.68c.36-.34.81-.51,1.36-.51s.99.15,1.33.46c.35.31.52.7.52,1.17,0,.51-.17.93-.5,1.26-.34.33-.78.5-1.33.5s-1.02-.16-1.38-.49c-.36-.33-.54-.73-.54-1.21,0-.45.18-.84.54-1.18Z"/>
      <path class="cls-1" d="M274.4,271.19h-4.03l2.03-1.8c.72-.64,1.22-1.16,1.5-1.56.28-.41.42-.87.42-1.39,0-.63-.22-1.15-.67-1.56-.44-.41-1.01-.61-1.69-.61-.63,0-1.15.13-1.56.4s-.8.67-1.17,1.22l.63.46c.32-.45.64-.78.95-.99.31-.21.68-.31,1.09-.31s.79.13,1.08.4.45.62.45,1.05c0,.38-.12.74-.35,1.09s-.64.78-1.24,1.3l-2.76,2.43v.66h5.31v-.78Z"/>
      <rect class="cls-1" x="275.91" y="270.83" width="1" height="1.14"/>
      <path class="cls-1" d="M282.45,268.04c.87-.4,1.3-.98,1.3-1.75,0-.59-.26-1.07-.77-1.45-.51-.38-1.12-.58-1.83-.58s-1.32.19-1.83.58c-.51.38-.76.86-.76,1.43,0,.78.43,1.37,1.3,1.77-.48.17-.86.42-1.14.74s-.42.69-.42,1.13c0,.64.27,1.16.81,1.56.54.4,1.22.61,2.04.61s1.5-.2,2.04-.6c.54-.4.81-.92.81-1.56,0-.86-.52-1.49-1.56-1.88ZM279.42,266.35c0-.39.16-.71.49-.96s.74-.37,1.24-.37.9.12,1.24.37c.33.25.5.56.5.94,0,.42-.17.76-.5,1.02-.33.26-.75.39-1.24.39s-.91-.13-1.24-.39c-.33-.26-.5-.59-.5-1ZM282.6,270.92c-.36.28-.84.41-1.45.41s-1.09-.14-1.45-.41c-.36-.27-.54-.61-.54-1.01,0-.43.19-.78.57-1.05.38-.28.85-.41,1.42-.41s1.03.14,1.41.41c.38.27.58.62.58,1.04s-.18.76-.54,1.03Z"/>
      <path class="cls-1" d="M290.09,264.32h-.75l-4.3,5.23.22.62h4v1.8h.82v-1.8h1.18v-.72h-1.18v-5.13ZM289.26,269.45h-3.19l3.19-3.92v3.92Z"/>
      <polygon class="cls-1" points="268.87 296.76 269.72 296.76 269.72 289.11 269.09 289.11 267.23 289.75 267.44 290.44 268.87 290 268.87 296.76"/>
      <path class="cls-1" d="M276.32,294.96h1.18v-.71h-1.18v-5.13h-.75l-4.3,5.23.22.62h4v1.8h.82v-1.8ZM275.5,294.24h-3.19l3.19-3.92v3.92Z"/>
      <rect class="cls-1" x="278.93" y="295.62" width="1" height="1.14"/>
      <polygon class="cls-1" points="283 296.76 283 289.11 282.37 289.11 280.51 289.75 280.72 290.44 282.15 290 282.15 296.76 283 296.76"/>
      <path class="cls-1" d="M290.3,290.16c-.59-.76-1.36-1.13-2.31-1.13s-1.73.38-2.33,1.15-.9,1.69-.9,2.78.29,2.04.88,2.79c.59.76,1.36,1.13,2.32,1.13s1.73-.38,2.32-1.14c.59-.76.89-1.69.89-2.78s-.29-2.04-.88-2.79ZM289.66,295.19c-.42.61-.98.92-1.67.92s-1.25-.31-1.68-.93c-.43-.62-.65-1.36-.65-2.22s.21-1.62.64-2.23.98-.92,1.67-.92,1.25.31,1.68.93c.43.62.65,1.36.65,2.22s-.21,1.62-.64,2.23Z"/>
      <path class="cls-1" d="M270.49,321.67c.77,0,1.42-.24,1.94-.71.52-.48.78-1.08.78-1.81s-.25-1.27-.76-1.71c-.51-.43-1.13-.65-1.86-.65-.91,0-1.63.39-2.16,1.16v-.03c0-.98.2-1.78.61-2.4.4-.62.94-.92,1.62-.92.6,0,1.2.25,1.79.75l.5-.66c-.71-.58-1.46-.87-2.25-.87-.97,0-1.74.39-2.31,1.17-.57.78-.85,1.76-.85,2.95,0,1.29.26,2.23.79,2.83.53.6,1.25.9,2.16.9ZM269.11,318.03c.36-.34.81-.5,1.36-.5s.99.15,1.33.46c.35.31.52.7.52,1.17,0,.51-.17.93-.5,1.26-.34.33-.78.5-1.33.5s-1.02-.16-1.38-.49c-.36-.32-.54-.73-.54-1.21,0-.45.18-.84.54-1.18Z"/>
      <rect class="cls-1" x="274.73" y="320.4" width="1" height="1.14"/>
      <path class="cls-1" d="M277.9,314.96c-.6.76-.9,1.69-.9,2.78s.29,2.04.88,2.79c.59.76,1.36,1.13,2.32,1.13s1.73-.38,2.32-1.14c.59-.76.89-1.69.89-2.78s-.29-2.04-.88-2.79-1.36-1.13-2.31-1.13-1.73.38-2.33,1.15ZM280.21,314.6c.69,0,1.25.31,1.68.93.43.62.65,1.36.65,2.22s-.21,1.62-.64,2.23c-.42.61-.98.92-1.67.92s-1.25-.31-1.68-.93c-.43-.62-.65-1.36-.65-2.22s.21-1.62.64-2.23.98-.92,1.67-.92Z"/>
      <path class="cls-1" d="M287.99,313.82c-.96,0-1.73.38-2.33,1.15s-.9,1.69-.9,2.78.29,2.04.88,2.79c.59.76,1.36,1.13,2.32,1.13s1.73-.38,2.32-1.14c.59-.76.89-1.69.89-2.78s-.29-2.04-.88-2.79-1.36-1.13-2.31-1.13ZM289.66,319.98c-.42.61-.98.92-1.67.92s-1.25-.31-1.68-.93c-.43-.62-.65-1.36-.65-2.22s.21-1.62.64-2.23.98-.92,1.67-.92,1.25.31,1.68.93c.43.62.65,1.36.65,2.22s-.21,1.62-.64,2.23Z"/>
      <path class="cls-1" d="M264.58,393.32c.72-.64,1.22-1.16,1.5-1.56.28-.41.42-.87.42-1.39,0-.63-.22-1.15-.67-1.56-.44-.41-1.01-.61-1.69-.61-.63,0-1.15.13-1.56.4s-.8.67-1.17,1.22l.63.46c.32-.45.64-.78.95-.99.31-.21.68-.31,1.09-.31s.79.13,1.08.4.45.62.45,1.05c0,.38-.12.74-.35,1.09s-.64.78-1.24,1.3l-2.76,2.43v.66h5.31v-.78h-4.03l2.03-1.8Z"/>
      <path class="cls-1" d="M272.51,391.83c-.5-.42-1.12-.63-1.88-.63-.48,0-.98.11-1.5.34l.16-2.43h3.62v-.79h-4.37l-.22,3.7.58.38c.54-.29,1.07-.43,1.6-.43.56,0,1.01.15,1.36.44.35.3.53.68.53,1.15,0,.5-.17.91-.51,1.23s-.78.48-1.32.48c-.72,0-1.44-.35-2.16-1.04l-.56.62c.8.8,1.71,1.21,2.71,1.21.8,0,1.45-.23,1.95-.7.51-.46.76-1.06.76-1.8s-.25-1.29-.74-1.71Z"/>
      <rect class="cls-1" x="274.73" y="394.76" width="1" height="1.14"/>
      <path class="cls-1" d="M282.53,394.89c.59-.76.89-1.69.89-2.79s-.29-2.04-.88-2.79-1.36-1.13-2.31-1.13-1.73.38-2.33,1.14-.9,1.69-.9,2.78.29,2.04.88,2.79c.59.76,1.36,1.13,2.32,1.13s1.73-.38,2.32-1.14ZM278.55,394.32c-.43-.62-.65-1.36-.65-2.22s.21-1.62.64-2.23.98-.92,1.67-.92,1.25.31,1.68.93.65,1.36.65,2.22-.21,1.62-.64,2.23c-.42.61-.98.92-1.67.92s-1.25-.31-1.68-.93Z"/>
      <path class="cls-1" d="M287.97,396.03c.96,0,1.73-.38,2.32-1.14.59-.76.89-1.69.89-2.79s-.29-2.04-.88-2.79-1.36-1.13-2.31-1.13-1.73.38-2.33,1.14-.9,1.69-.9,2.78.29,2.04.88,2.79c.59.76,1.36,1.13,2.32,1.13ZM286.3,389.87c.43-.61.98-.92,1.67-.92s1.25.31,1.68.93.65,1.36.65,2.22-.21,1.62-.64,2.23c-.42.61-.98.92-1.67.92s-1.25-.31-1.68-.93c-.43-.62-.65-1.36-.65-2.22s.21-1.62.64-2.23Z"/>
      <path class="cls-1" d="M277.38,416.99c-.47-.36-1.07-.57-1.8-.62l2.39-2.65v-.63h-4.85v.77h3.71l-2.4,2.7.17.51h.49c.64,0,1.15.13,1.54.39.39.26.59.62.59,1.08s-.16.81-.48,1.08-.71.41-1.18.41c-.87,0-1.61-.38-2.22-1.13l-.62.55c.69.9,1.64,1.36,2.83,1.36.72,0,1.32-.21,1.81-.64.49-.43.73-.98.73-1.64s-.24-1.18-.71-1.54Z"/>
      <rect class="cls-1" x="279.67" y="419.55" width="1" height="1.14"/>
      <polygon class="cls-1" points="281.25 413.67 281.46 414.37 282.89 413.92 282.89 420.69 283.74 420.69 283.74 413.03 283.11 413.03 281.25 413.67"/>
      <path class="cls-1" d="M288.25,412.96c-.8,0-1.45.25-1.96.74s-.77,1.11-.77,1.84.25,1.26.74,1.71,1.13.67,1.91.67c.93,0,1.64-.41,2.15-1.21v.1c0,.95-.21,1.72-.62,2.33-.42.61-.96.91-1.63.91-.63,0-1.25-.27-1.87-.81l-.5.66c.75.62,1.53.93,2.34.93.93,0,1.69-.38,2.28-1.15.59-.77.88-1.75.88-2.96,0-1.3-.27-2.24-.8-2.84-.53-.6-1.25-.9-2.14-.9ZM289.62,416.66c-.35.35-.8.52-1.36.52s-1-.16-1.35-.47c-.35-.31-.52-.71-.52-1.19s.17-.92.5-1.28c.33-.35.77-.53,1.32-.53s1.03.17,1.39.49c.36.33.54.74.54,1.23,0,.46-.17.87-.53,1.21Z"/>
    </g>
  </g>
</svg>