<?xml version="1.0" encoding="UTF-8"?>
<svg id="Camada_1" data-name="Camada 1" xmlns="http://www.w3.org/2000/svg" width="10.9cm" height="15.47cm" viewBox="0 0 309.06 438.63">
  <defs>
    <style>
      .cls-1 {
        fill: #468aa3;
      }

      .cls-2 {
        fill: #e0b35e;
      }

      .cls-3 {
        fill: #77a5b8;
      }

      .cls-4 {
        fill: #034d67;
      }

      .cls-5 {
        fill: #c0d4dc;
      }

      .cls-6 {
        fill: #227493;
      }
    </style>
  </defs>
  <g>
    <g>
      <polygon class="cls-3" points="22.41 42.29 22.41 49.05 23.25 49.05 23.25 41.4 22.62 41.4 20.77 42.04 20.97 42.73 22.41 42.29"/>
      <path class="cls-3" d="M24.75,73.05h-4.03l2.03-1.8c.72-.64,1.22-1.16,1.5-1.56.28-.41.42-.87.42-1.39,0-.63-.22-1.15-.67-1.56-.44-.41-1.01-.61-1.69-.61-.63,0-1.15.13-1.56.4-.41.26-.8.67-1.17,1.22l.63.46c.32-.45.64-.78.95-.99s.68-.31,1.09-.31.79.13,1.08.4.45.62.45,1.05c0,.38-.12.74-.35,1.08-.23.35-.64.78-1.24,1.3l-2.76,2.43v.66h5.31v-.78Z"/>
      <path class="cls-3" d="M22.3,97.97c-.87,0-1.61-.38-2.22-1.13l-.62.55c.69.9,1.64,1.36,2.83,1.36.72,0,1.32-.21,1.81-.65.49-.43.73-.98.73-1.64s-.24-1.18-.71-1.54c-.47-.36-1.07-.57-1.8-.62l2.39-2.65v-.63h-4.85v.77h3.71l-2.4,2.7.17.51h.49c.64,0,1.15.13,1.54.39.39.26.59.62.59,1.08s-.16.81-.48,1.08-.71.41-1.18.41Z"/>
      <path class="cls-3" d="M23.61,121.61v1.8h.82v-1.8h1.18v-.72h-1.18v-5.13h-.75l-4.3,5.23.22.62h4ZM23.61,116.97v3.92h-3.19l3.19-3.92Z"/>
      <path class="cls-3" d="M22.22,147.54c-.72,0-1.44-.35-2.16-1.04l-.56.62c.8.8,1.71,1.2,2.71,1.2.8,0,1.45-.23,1.95-.69.51-.46.76-1.06.76-1.8s-.25-1.29-.74-1.71c-.5-.42-1.12-.63-1.88-.63-.48,0-.98.11-1.5.34l.16-2.43h3.62v-.79h-4.37l-.22,3.7.58.38c.54-.29,1.07-.43,1.6-.43.56,0,1.01.15,1.36.44.35.3.53.68.53,1.15,0,.5-.17.91-.51,1.23s-.78.48-1.32.48Z"/>
      <path class="cls-3" d="M21.08,166.95c.4-.61.94-.92,1.62-.92.6,0,1.2.25,1.79.75l.5-.66c-.71-.58-1.46-.87-2.25-.87-.97,0-1.74.39-2.31,1.17-.57.78-.85,1.76-.85,2.95,0,1.29.26,2.23.79,2.83s1.25.9,2.16.9c.77,0,1.42-.24,1.94-.72.52-.48.78-1.08.78-1.81s-.25-1.27-.76-1.7c-.51-.43-1.13-.65-1.86-.65-.91,0-1.63.39-2.16,1.16v-.03c0-.98.2-1.78.61-2.4ZM21.16,169.47c.36-.34.81-.5,1.36-.5s.99.15,1.33.46c.35.31.52.7.52,1.17,0,.51-.17.93-.5,1.26-.34.33-.78.5-1.33.5s-1.02-.16-1.38-.49c-.36-.33-.54-.73-.54-1.21,0-.45.18-.84.54-1.18Z"/>
      <polygon class="cls-3" points="21.36 197.76 24.81 190.81 24.81 190.17 19.66 190.17 19.66 190.95 23.83 190.95 20.41 197.76 21.36 197.76"/>
      <path class="cls-3" d="M20.3,222.05c.54.41,1.22.61,2.04.61s1.5-.2,2.04-.6c.54-.4.81-.92.81-1.56,0-.86-.52-1.49-1.56-1.88.87-.4,1.3-.98,1.3-1.75,0-.59-.26-1.07-.77-1.45-.51-.38-1.12-.58-1.83-.58s-1.32.19-1.83.58c-.51.38-.76.86-.76,1.43,0,.78.43,1.37,1.3,1.77-.48.17-.86.42-1.14.74s-.42.69-.42,1.13c0,.64.27,1.16.81,1.56ZM20.6,216.93c0-.39.16-.71.49-.96s.74-.37,1.24-.37.9.12,1.24.37c.33.25.5.56.5.94,0,.42-.17.76-.5,1.02-.33.26-.75.39-1.24.39s-.91-.13-1.24-.39c-.33-.26-.5-.59-.5-1ZM20.92,219.44c.38-.28.85-.41,1.42-.41s1.03.14,1.41.41c.38.27.58.62.58,1.04s-.18.76-.54,1.03c-.36.28-.84.41-1.45.41s-1.09-.14-1.45-.41c-.36-.27-.54-.61-.54-1.01,0-.43.19-.78.57-1.05Z"/>
      <path class="cls-3" d="M23.78,245.78c-.42.6-.96.91-1.63.91-.63,0-1.25-.27-1.87-.81l-.5.66c.75.62,1.53.93,2.34.93.93,0,1.69-.38,2.28-1.15.59-.77.88-1.75.88-2.96,0-1.3-.27-2.24-.8-2.84-.53-.6-1.25-.9-2.14-.9-.8,0-1.45.25-1.96.74-.51.5-.77,1.11-.77,1.84s.25,1.26.74,1.71c.49.44,1.13.67,1.91.67.93,0,1.64-.41,2.15-1.21v.1c0,.95-.21,1.72-.62,2.33ZM23.71,243.31c-.35.35-.8.52-1.36.52s-1-.16-1.35-.47c-.35-.31-.52-.71-.52-1.19s.17-.92.5-1.28c.33-.35.77-.53,1.32-.53s1.03.17,1.39.49c.36.33.54.74.54,1.23,0,.46-.17.87-.53,1.22Z"/>
      <polygon class="cls-3" points="19.41 265.36 19.41 272.12 20.25 272.12 20.25 264.47 19.62 264.47 17.77 265.11 17.97 265.8 19.41 265.36"/>
      <path class="cls-3" d="M27.56,265.53c-.59-.76-1.36-1.13-2.31-1.13s-1.73.38-2.33,1.15-.9,1.69-.9,2.78.29,2.04.88,2.79c.59.76,1.36,1.13,2.32,1.13s1.73-.38,2.32-1.14c.59-.76.89-1.69.89-2.78s-.29-2.04-.88-2.79ZM26.91,270.55c-.42.61-.98.92-1.67.92s-1.25-.31-1.68-.93c-.43-.62-.65-1.36-.65-2.22s.21-1.62.64-2.23.98-.92,1.67-.92,1.25.31,1.68.93c.43.62.65,1.36.65,2.22s-.21,1.62-.64,2.23Z"/>
      <polygon class="cls-3" points="19.22 289.9 19.43 290.59 20.86 290.15 20.86 296.91 21.71 296.91 21.71 289.25 21.08 289.25 19.22 289.9"/>
      <polygon class="cls-3" points="25.59 296.91 25.59 289.25 24.96 289.25 23.11 289.9 23.31 290.59 24.75 290.15 24.75 296.91 25.59 296.91"/>
      <polygon class="cls-3" points="17.77 314.68 17.97 315.38 19.41 314.93 19.41 321.69 20.25 321.69 20.25 314.04 19.62 314.04 17.77 314.68"/>
      <path class="cls-3" d="M25.18,319.11c.72-.64,1.22-1.16,1.5-1.56.28-.41.42-.87.42-1.39,0-.63-.22-1.15-.67-1.56-.44-.41-1.01-.61-1.69-.61-.63,0-1.15.13-1.56.4-.41.26-.8.67-1.17,1.22l.63.46c.32-.45.64-.78.95-.99s.68-.31,1.09-.31.79.13,1.08.4.45.62.45,1.05c0,.38-.12.74-.35,1.08-.23.35-.64.78-1.24,1.3l-2.76,2.43v.66h5.31v-.78h-4.03l2.03-1.8Z"/>
    </g>
    <g>
      <path class="cls-4" d="M56.74,19.96c0-2.42-1.89-4.04-4.69-4.04h-3.21v.35h.13c.78.05.78.14.78.43v6.73c0,.29,0,.38-.78.42h-.13v.36h3.09c2.79,0,4.82-1.78,4.82-4.24ZM50.87,23.32v-6.95h1.03c2.11,0,3.59,1.6,3.59,3.9,0,2.05-1.41,3.48-3.44,3.48-1.18,0-1.18-.15-1.18-.43Z"/>
      <path class="cls-4" d="M65.67,22h-.35l-.04.08c-.74,1.42-1.22,1.67-2.22,1.67h-1.53c-.26,0-.36-.09-.36-.31v-3.21h1.37c.9,0,1.09.29,1.26,1.27l.02.12h.33v-3.18h-.33l-.02.11c-.17.94-.37,1.23-1.26,1.23h-1.37v-3.41h1.61c1.16,0,1.54.29,2.06,1.55l.03.09h.35l-.4-1.98-.02-.11h-5.68v.35h.13c.78.05.78.14.78.43v6.73c0,.29,0,.38-.78.42h-.13v.36h5.87l.67-2.2Z"/>
      <path class="cls-4" d="M68.31,24.21h.33l.02-.11c.04-.17.06-.17.07-.17.05,0,.16.04.29.08h.01c.34.12.9.3,1.61.3,1.52,0,2.66-1.06,2.66-2.46,0-1.02-.61-1.77-1.88-2.31l-.65-.28c-1.23-.52-1.48-1.04-1.48-1.66,0-1,.77-1.36,1.42-1.36.85,0,1.54.65,1.96,1.84l.03.09h.33l-.23-2.23v-.04h-.33l-.02.11c-.03.14-.05.16-.06.16-.05,0-.17-.05-.28-.09-.31-.12-.77-.29-1.39-.29-1.32,0-2.32.99-2.32,2.31,0,.97.61,1.72,1.82,2.24l.65.28c1.06.45,1.53.97,1.53,1.7,0,.94-.69,1.54-1.76,1.54s-1.77-.67-2.24-2.06l-.03-.09h-.34l.27,2.37.02.12Z"/>
      <path class="cls-4" d="M79.98,24.32c1.68,0,3.06-.93,3.79-2.56l.06-.13-.36-.15-.06.11c-.66,1.29-1.73,2.03-2.94,2.03-1.92,0-3.21-1.54-3.21-3.82,0-2.04,1.26-3.52,3-3.52,1.39,0,2.45.79,2.98,2.23l.03.09h.33l-.29-2.55-.02-.12h-.34l-.02.12c-.04.36-.12.36-.15.36-.04,0-.18-.06-.28-.11-.38-.17-1.1-.49-2.26-.49-2.38,0-4.24,1.92-4.24,4.38s1.67,4.13,3.97,4.13Z"/>
      <path class="cls-4" d="M93.34,23.86h-.13c-.46-.05-.86-.42-1.49-1.38l-1.61-2.41c.91-.26,1.95-.84,1.95-2.1,0-.94-.56-2.05-3.21-2.05h-2.66v.35h.13c.78.07.78.14.78.42v6.74c0,.29,0,.38-.78.42h-.13v.36h3.08v-.35h-.13c-.91-.05-.91-.15-.91-.43v-3.18h.49c.2,0,.28,0,.51.39l1.5,2.42c.63,1.02,1.06,1.2,1.75,1.2.23,0,.55-.02.73-.04l.12-.02v-.33ZM88.78,19.8h-.54v-3.43h.42c1.02,0,2.24.31,2.24,1.76,0,1.03-.81,1.66-2.12,1.66Z"/>
      <path class="cls-4" d="M98.25,23.86h-.13c-.81-.05-.81-.14-.81-.43v-6.73c0-.29,0-.38.81-.42h.13v-.36h-3.03v.35h.13c.81.05.81.14.81.43v6.73c0,.29,0,.38-.81.42h-.13v.36h3.03v-.35Z"/>
      <path class="cls-4" d="M103.38,15.92h-2.67v.35h.13c.78.05.78.14.78.43v6.73c0,.29,0,.38-.78.42h-.13v.36h3.22v-.35h-.13c-1.04-.05-1.04-.14-1.04-.44v-7.04h.42c1.42,0,2.24.72,2.24,1.97,0,1.17-.79,1.78-2.41,1.88h-.13v.41h.14c2.27,0,3.57-.9,3.57-2.47,0-1.45-1.14-2.25-3.2-2.25Z"/>
      <path class="cls-4" d="M115.49,15.83l-.14.03c-.2.04-.58.06-1.03.06h-4.05c-.45,0-.84-.02-1.04-.06l-.14-.03-.43,2.18h.34l.03-.09c.55-1.35.95-1.55,2.03-1.55h.66v7.06c0,.29,0,.38-.78.42h-.13v.36h2.95v-.35h-.13c-.78-.05-.78-.14-.78-.43v-7.06h.66c1.17,0,1.49.25,2.03,1.55l.03.09h.35l-.44-2.14v-.05Z"/>
      <path class="cls-4" d="M121.15,23.86h-.13c-.81-.05-.81-.14-.81-.43v-6.73c0-.29,0-.38.81-.42h.13v-.36h-3.03v.35h.13c.81.05.81.14.81.43v6.73c0,.29,0,.38-.81.42h-.13v.36h3.03v-.35Z"/>
      <path class="cls-4" d="M127.74,15.81c-2.43,0-4.19,1.83-4.19,4.35s1.7,4.16,4.03,4.16c2.46,0,4.24-1.83,4.24-4.35s-1.72-4.16-4.09-4.16ZM127.55,16.27c1.73,0,3.03,1.72,3.03,4,0,2.11-1.15,3.58-2.8,3.58s-2.99-1.72-2.99-4c0-2.11,1.13-3.58,2.75-3.58Z"/>
      <path class="cls-4" d="M137.13,23.86h-.13c-1.11-.07-1.25-.27-1.25-1.01v-5.59l5.12,7,.04.06h.29v-7.04c0-.75.18-.94.95-1h.13v-.36h-2.99v.35h.13c1.11.07,1.27.28,1.27,1.01v4.87l-4.45-6.17-.04-.06h-2.05v.34h.13c.77.07.95.26.95,1.02v5.57c0,.75-.18.94-.95,1h-.13v.36h2.99v-.35Z"/>
      <path class="cls-4" d="M20.91,343.41h.13c1.01.05,1.01.13,1.01.4v1.79c0,.44-1.07.68-1.8.68-1.52,0-3.15-1.21-3.15-3.85,0-1.95,1.2-3.37,2.85-3.37,1.3,0,2.33.76,2.83,2.08l.03.09h.33l-.28-2.4-.02-.12h-.32l-.02.12c-.05.34-.11.34-.13.34-.04,0-.16-.05-.27-.1-.4-.17-1.06-.46-2.15-.46-2.27,0-4.06,1.85-4.06,4.2s1.7,3.93,4.22,3.93c1.13,0,2.49-.36,3.39-.9l.11-.07-.14-.29-.12.04c-.16.05-.2.04-.2.04,0,0-.02-.03-.02-.13v-1.64c0-.27,0-.34.71-.38h.13v-.36h-3.07v.36Z"/>
      <path class="cls-4" d="M32.79,346.63v-.33h-.13c-.44-.05-.82-.4-1.42-1.31l-1.53-2.29c.86-.25,1.86-.8,1.86-2,0-.9-.53-1.97-3.07-1.97h-2.54v.34h.13c.74.06.74.13.74.39v6.44c0,.27,0,.35-.74.4h-.13v.35h2.96v-.35h-.13c-.87-.05-.87-.14-.87-.4v-3.03h.46c.19,0,.26,0,.48.37l1.44,2.31c.6.98,1.02,1.15,1.67,1.15.21,0,.51-.02.7-.04l.12-.02ZM28.43,342.43h-.51v-3.26h.4c.97,0,2.13.29,2.13,1.68,0,.98-.77,1.58-2.01,1.58Z"/>
      <path class="cls-4" d="M38.07,346.75c2.35,0,4.06-1.75,4.06-4.16s-1.64-3.97-3.91-3.97-4,1.75-4,4.16,1.62,3.97,3.86,3.97ZM40.92,342.88c0,2.01-1.09,3.41-2.66,3.41s-2.84-1.64-2.84-3.81c0-2.01,1.08-3.41,2.62-3.41,1.64,0,2.88,1.64,2.88,3.81Z"/>
      <path class="cls-4" d="M49.5,344.39c0-.97-.59-1.7-1.8-2.21l-.62-.26c-1.17-.49-1.41-.99-1.41-1.58,0-.89.68-1.29,1.35-1.29.81,0,1.47.62,1.86,1.75l.03.09h.33l-.22-2.13v-.04h-.33l-.02.11c-.03.13-.04.15-.05.15-.04,0-.16-.05-.27-.09-.29-.11-.73-.28-1.33-.28-1.26,0-2.22.95-2.22,2.21,0,.93.59,1.65,1.74,2.14l.62.26c1.01.42,1.46.92,1.46,1.61,0,.89-.66,1.47-1.68,1.47s-1.69-.64-2.14-1.96l-.03-.09h-.34l.26,2.27.02.12h.32l.02-.11c.03-.13.05-.15.06-.15.05,0,.18.05.28.08.32.11.86.29,1.54.29,1.45,0,2.54-1.01,2.54-2.35Z"/>
      <path class="cls-4" d="M55.06,342.18l-.62-.26c-1.17-.49-1.41-.99-1.41-1.58,0-.95.73-1.29,1.35-1.29.81,0,1.47.62,1.86,1.75l.03.09h.33l-.22-2.13v-.04h-.33l-.02.11c-.03.13-.04.15-.05.15-.04,0-.16-.05-.27-.09-.29-.11-.73-.28-1.33-.28-1.26,0-2.22.95-2.22,2.21,0,.93.59,1.65,1.74,2.14l.62.26c1.01.42,1.46.92,1.46,1.61,0,.89-.66,1.47-1.68,1.47s-1.69-.64-2.14-1.96l-.03-.09h-.34l.26,2.27.02.12h.32l.02-.11c.03-.13.05-.15.06-.15.04,0,.17.04.29.08.34.11.86.28,1.54.28,1.45,0,2.54-1.01,2.54-2.35,0-.97-.59-1.7-1.8-2.21Z"/>
      <path class="cls-4" d="M67.2,342.33c.54-.22,1.29-.71,1.29-1.72,0-1.2-1-1.89-2.74-1.89h-2.63v.34h.13c.74.05.74.13.74.4v6.43c0,.27,0,.35-.74.4h-.13v.35h2.73c1.87,0,3.12-.93,3.12-2.31s-1.04-1.82-1.77-2ZM65.08,342.64h.65c1.32,0,2.11.67,2.11,1.79s-.76,1.76-2.04,1.76c-.71,0-.71-.09-.71-.33v-3.22ZM65.08,342.19v-3.03h.58c1.12,0,1.77.57,1.77,1.56,0,.93-.66,1.47-1.81,1.47h-.53Z"/>
      <path class="cls-4" d="M78.62,339.06v-.34h-2.76v.34h.13c.91.07,1.1.23,1.1.96v3.73c0,1.59-.72,2.4-2.13,2.4s-2.08-.84-2.08-2.42v-4.26c0-.27,0-.35.74-.4h.13v-.35h-2.83v.34h.13c.74.05.74.13.74.4v4.33c0,1.93.99,2.95,2.86,2.95s2.93-1.04,2.93-3v-3.73c0-.71.17-.89.9-.95h.13Z"/>
      <path class="cls-4" d="M83.26,339.07h.13v-.35h-2.9v.34h.13c.77.05.77.13.77.4v6.43c0,.27,0,.35-.77.4h-.13v.35h2.9v-.34h-.13c-.77-.05-.77-.13-.77-.4v-6.43c0-.27,0-.35.77-.4Z"/>
      <path class="cls-4" d="M91.46,344.57l.02-.06h-.35l-.04.08c-.66,1.27-1.12,1.62-2.13,1.62h-1.16c-.25,0-.33-.07-.33-.29v-6.44c0-.27,0-.35.74-.4h.13v-.35h-2.83v.34h.13c.74.05.74.13.74.4v6.43c0,.26,0,.35-.74.4h-.13v.35h5.32l.62-2.07Z"/>
      <path class="cls-4" d="M100.86,342.59c0-2.31-1.8-3.87-4.49-3.87h-3.07v.34h.13c.74.05.74.13.74.4v6.43c0,.27,0,.35-.74.4h-.13v.35h2.95c2.67,0,4.6-1.71,4.6-4.06ZM95.27,345.79v-6.62h.97c2.01,0,3.42,1.53,3.42,3.71,0,1.95-1.35,3.31-3.27,3.31-1.12,0-1.12-.14-1.12-.41Z"/>
      <path class="cls-4" d="M102.9,339.06h.13c.77.05.77.13.77.4v6.43c0,.27,0,.35-.77.4h-.13v.35h2.9v-.34h-.13c-.77-.05-.77-.13-.77-.4v-6.43c0-.27,0-.35.77-.4h.13v-.35h-2.9v.34Z"/>
      <path class="cls-4" d="M112.75,339.06h.13c1.06.07,1.2.26,1.2.96v4.63l-4.23-5.87-.04-.06h-1.96v.34h.13c.73.07.9.25.9.96v5.31c0,.71-.17.89-.9.95h-.13v.35h2.86v-.34h-.13c-1.05-.07-1.19-.25-1.19-.96v-5.31l4.87,6.67.04.06h.28v-6.72c0-.71.17-.89.9-.95h.13v-.35h-2.86v.34Z"/>
      <path class="cls-4" d="M122.55,343.41h.13c1.01.05,1.01.13,1.01.4v1.79c0,.44-1.07.68-1.8.68-1.52,0-3.15-1.21-3.15-3.85,0-1.95,1.2-3.37,2.85-3.37,1.3,0,2.33.76,2.83,2.08l.03.09h.33l-.28-2.4-.02-.12h-.32l-.02.12c-.05.34-.11.34-.13.34-.04,0-.16-.05-.27-.1-.4-.17-1.06-.46-2.15-.46-2.27,0-4.06,1.85-4.06,4.2s1.7,3.93,4.22,3.93c1.13,0,2.49-.36,3.39-.9l.11-.07-.14-.29-.12.04c-.15.05-.2.04-.2.04,0,0-.02-.03-.02-.13v-1.64c0-.27,0-.34.71-.38h.13v-.36h-3.07v.36Z"/>
      <path class="cls-4" d="M137.4,345.33l-2.01-5.51c-.26-.7-.3-.85-.38-1.2l-.03-.11h-.24l-.04.05c-.15.19-.45.33-.67.38l-.16.04.23.58-2.04,5.66c-.31.82-.62,1.01-1.05,1.07l-.12.02v.34h2.49v-.34h-.13c-.41-.04-.66-.12-.75-.26-.08-.13-.07-.34.05-.66l.62-1.73h2.47l.76,2.13c.07.2.09.32.06.37-.08.12-.54.14-.68.14h-.13v.35h2.89v-.34h-.13c-.61-.07-.7-.16-1-.97ZM135.47,343.17h-2.12l1.06-2.97,1.06,2.97Z"/>
      <path class="cls-4" d="M145.57,344.99l-1.53-2.29c.86-.25,1.86-.8,1.86-2,0-.9-.53-1.97-3.07-1.97h-2.54v.34h.13c.74.06.74.13.74.39v6.44c0,.27,0,.35-.74.4h-.13v.35h2.96v-.35h-.13c-.87-.05-.87-.14-.87-.4v-3.03h.46c.19,0,.26,0,.48.37l1.44,2.31c.6.98,1.02,1.15,1.67,1.15.21,0,.51-.02.7-.04l.12-.02v-.33h-.13c-.44-.05-.82-.4-1.42-1.31ZM142.75,342.43h-.51v-3.26h.4c.97,0,2.13.29,2.13,1.68,0,.98-.77,1.58-2.01,1.58Z"/>
      <path class="cls-4" d="M154.58,344.6c-.7,1.35-1.17,1.59-2.11,1.59h-1.46c-.24,0-.33-.08-.33-.29v-3.05h1.3c.86,0,1.03.27,1.2,1.21l.02.12h.33v-3.05h-.33l-.02.12c-.16.89-.35,1.17-1.2,1.17h-1.3v-3.24h1.53c1.1,0,1.47.28,1.96,1.48l.03.09h.35l-.38-1.9-.02-.11h-5.43v.34h.13c.74.05.74.13.74.4v6.43c0,.27,0,.35-.74.4h-.13v.35h5.61l.64-2.12h-.35l-.04.08Z"/>
      <path class="cls-4" d="M164.01,346.29c-.61-.06-.7-.15-1-.96l-2-5.51c-.25-.67-.3-.84-.38-1.2l-.03-.11h-.24l-.04.05c-.15.19-.45.33-.67.38l-.16.04.23.58-2.04,5.66c-.31.82-.62,1.01-1.05,1.07l-.12.02v.34h2.5v-.34h-.13c-.41-.04-.66-.12-.76-.26-.08-.12-.07-.34.05-.66l.62-1.73h2.47l.76,2.13c.07.21.09.32.06.37-.08.12-.54.14-.68.14h-.13v.35h2.89v-.34h-.13ZM161.07,343.17h-2.12l1.06-2.97,1.06,2.97Z"/>
      <path class="cls-4" d="M20.63,363.85h.13c.91.07,1.1.23,1.1.96v3.73c0,1.59-.72,2.4-2.13,2.4s-2.08-.84-2.08-2.42v-4.26c0-.27,0-.35.74-.4h.13v-.35h-2.83v.34h.13c.74.05.74.13.74.4v4.33c0,1.93.99,2.95,2.86,2.95s2.93-1.04,2.93-3v-3.73c0-.71.17-.89.9-.95h.13v-.35h-2.76v.34Z"/>
      <path class="cls-4" d="M28.47,366.97l-.62-.26c-1.17-.49-1.41-.99-1.41-1.58,0-.95.73-1.29,1.35-1.29.81,0,1.47.62,1.86,1.75l.03.09h.33l-.22-2.13v-.04h-.33l-.02.11c-.03.13-.04.15-.05.15-.04,0-.16-.05-.27-.09-.29-.11-.73-.28-1.33-.28-1.26,0-2.22.95-2.22,2.21,0,.93.59,1.65,1.74,2.14l.62.26c1.01.42,1.46.92,1.46,1.61,0,.89-.66,1.47-1.68,1.47s-1.69-.64-2.14-1.96l-.03-.09h-.34l.26,2.27.02.12h.32l.02-.11c.03-.13.05-.15.06-.15.04,0,.17.04.29.08.34.11.86.28,1.54.28,1.45,0,2.54-1.01,2.54-2.35,0-.97-.59-1.7-1.8-2.21Z"/>
      <path class="cls-4" d="M38.38,369.39c-.7,1.35-1.17,1.59-2.11,1.59h-1.46c-.24,0-.33-.08-.33-.29v-3.05h1.3c.86,0,1.03.27,1.2,1.21l.02.12h.33v-3.05h-.33l-.02.12c-.16.89-.35,1.17-1.2,1.17h-1.3v-3.24h1.53c1.1,0,1.47.28,1.96,1.48l.03.09h.35l-.38-1.9-.02-.11h-5.43v.34h.13c.74.05.74.13.74.4v6.43c0,.27,0,.35-.74.4h-.13v.35h5.61l.64-2.12h-.35l-.04.08Z"/>
      <path class="cls-4" d="M45.98,363.5h-5.24v.34h.13c.74.05.74.13.74.4v6.43c0,.27,0,.35-.74.4h-.13v.35h3.08v-.35h-.13c-.99-.05-.99-.13-.99-.41v-3.03h1.19c.86,0,1.03.27,1.2,1.21l.02.12h.33v-3.05h-.33l-.02.12c-.16.89-.35,1.17-1.2,1.17h-1.19v-3.24h1.34c1.1,0,1.47.28,1.96,1.48l.03.09h.35l-.38-1.9-.02-.11Z"/>
      <path class="cls-4" d="M53.18,363.85h.13c.91.07,1.1.23,1.1.96v3.73c0,1.59-.72,2.4-2.13,2.4s-2.08-.84-2.08-2.42v-4.26c0-.27,0-.35.74-.4h.13v-.35h-2.83v.34h.13c.74.05.74.13.74.4v4.33c0,1.93.99,2.95,2.86,2.95s2.93-1.04,2.93-3v-3.73c0-.71.17-.89.9-.95h.13v-.35h-2.76v.34Z"/>
      <path class="cls-4" d="M63.41,369.36c-.66,1.27-1.12,1.62-2.13,1.62h-1.16c-.25,0-.33-.07-.33-.29v-6.44c0-.27,0-.35.74-.4h.13v-.35h-2.83v.34h.13c.74.05.74.13.74.4v6.43c0,.26,0,.35-.74.4h-.13v.35h5.32l.62-2.07.02-.06h-.35l-.04.08Z"/>
      <path class="cls-4" d="M75.14,370.12l-2-5.51c-.25-.67-.3-.84-.38-1.2l-.03-.11h-.24l-.04.05c-.15.19-.45.33-.67.38l-.16.04.23.58-2.04,5.66c-.31.82-.62,1.01-1.05,1.07l-.12.02v.34h2.5v-.34h-.13c-.41-.04-.66-.12-.76-.26-.08-.12-.07-.34.05-.66l.62-1.73h2.47l.76,2.13c.07.21.09.32.06.37-.08.12-.54.14-.68.14h-.13v.35h2.89v-.34h-.13c-.61-.07-.7-.16-1-.97ZM73.2,367.96h-2.12l1.06-2.97,1.06,2.97Z"/>
      <path class="cls-4" d="M83.3,369.77l-1.53-2.29c.86-.25,1.86-.8,1.86-2,0-.9-.53-1.97-3.07-1.97h-2.54v.34h.13c.74.06.74.13.74.39v6.44c0,.27,0,.35-.74.4h-.13v.35h2.96v-.35h-.13c-.87-.05-.87-.14-.87-.4v-3.03h.46c.19,0,.26,0,.48.37l1.44,2.31c.6.98,1.02,1.15,1.67,1.15.21,0,.51-.02.7-.04l.12-.02v-.33h-.13c-.44-.05-.82-.4-1.42-1.31ZM80.49,367.21h-.51v-3.26h.4c.97,0,2.13.29,2.13,1.68,0,.98-.77,1.58-2.01,1.58Z"/>
      <path class="cls-4" d="M92.31,369.39c-.7,1.35-1.17,1.59-2.11,1.59h-1.46c-.24,0-.33-.08-.33-.29v-3.05h1.3c.86,0,1.03.27,1.2,1.21l.02.12h.33v-3.05h-.33l-.02.12c-.16.89-.35,1.17-1.2,1.17h-1.3v-3.24h1.53c1.1,0,1.47.28,1.96,1.48l.03.09h.35l-.38-1.9-.02-.11h-5.43v.34h.13c.74.05.74.13.74.4v6.43c0,.27,0,.35-.74.4h-.13v.35h5.61l.64-2.12h-.35l-.04.08Z"/>
      <path class="cls-4" d="M100.74,370.11l-2.01-5.51c-.26-.7-.3-.85-.38-1.2l-.03-.11h-.24l-.04.05c-.15.19-.45.33-.67.38l-.16.04.23.58-2.04,5.66c-.31.82-.62,1.01-1.05,1.07l-.12.02v.34h2.49v-.34h-.13c-.41-.04-.66-.12-.75-.26-.08-.13-.07-.34.05-.66l.62-1.73h2.47l.76,2.13c.07.2.09.32.06.37-.08.12-.54.14-.68.14h-.13v.35h2.89v-.34h-.13c-.61-.07-.7-.16-1-.97ZM98.8,367.96h-2.12l1.06-2.97,1.06,2.97Z"/>
    </g>
    <g>
      <path class="cls-6" d="M54.79,47.1h-.35l-.04.08c-.7,1.35-1.16,1.59-2.11,1.59h-1.46c-.24,0-.33-.08-.33-.29v-3.05h1.3c.86,0,1.03.27,1.2,1.21l.02.12h.33v-3.05h-.33l-.02.12c-.16.89-.35,1.17-1.2,1.17h-1.3v-3.24h1.53c1.1,0,1.47.28,1.96,1.48l.03.09h.35l-.38-1.9-.02-.11h-5.43v.34h.13c.74.05.74.13.74.4v6.42c0,.27,0,.35-.74.4h-.13v.35h5.61l.64-2.12Z"/>
      <path class="cls-6" d="M59.54,48.87h-.13c-1.05-.07-1.19-.25-1.19-.96v-5.31l4.87,6.67.04.06h.29v-6.72c0-.71.17-.89.9-.95h.13v-.35h-2.86v.34h.13c1.06.07,1.2.26,1.2.96v4.63l-4.23-5.87-.04-.06h-1.96v.34h.13c.73.07.9.25.9.96v5.31c0,.71-.17.89-.9.95h-.13v.35h2.86v-.34Z"/>
      <path class="cls-6" d="M66.59,43.22c.53-1.3.87-1.48,1.93-1.48h.63v6.73c0,.27,0,.35-.74.4h-.13v.35h2.83v-.34h-.13c-.74-.05-.74-.13-.74-.4v-6.73h.63c1.06,0,1.4.17,1.93,1.48l.03.09h.35l-.42-2.05v-.05s-.15.03-.15.03c-.2.04-.55.06-.98.06h-3.86c-.43,0-.8-.02-.99-.06l-.14-.03-.42,2.1h.34l.03-.09Z"/>
      <path class="cls-6" d="M78.02,48.87h-.13c-.87-.05-.87-.14-.87-.4v-3.03h.46c.19,0,.26,0,.48.37l1.44,2.31c.6.98,1.02,1.15,1.67,1.15.23,0,.53-.02.7-.04h.12v-.34h-.13c-.44-.05-.82-.4-1.42-1.31l-1.53-2.29c.86-.25,1.86-.8,1.86-2.01,0-.9-.53-1.97-3.07-1.97h-2.54v.34h.13c.74.06.74.13.74.39v6.43c0,.27,0,.35-.74.4h-.13v.35h2.96v-.35ZM77.53,45h-.51v-3.26h.4c.97,0,2.13.29,2.13,1.68,0,.98-.77,1.58-2.01,1.58Z"/>
      <path class="cls-6" d="M85.62,48.87h-.13c-.41-.04-.66-.12-.76-.26-.08-.12-.07-.34.05-.66l.62-1.73h2.47l.76,2.13c.07.21.09.32.06.37-.08.12-.54.14-.68.14h-.13v.35h2.89v-.34h-.13c-.61-.07-.7-.16-1-.97l-2-5.51c-.25-.69-.3-.84-.38-1.2l-.03-.11h-.24l-.04.05c-.15.19-.45.33-.67.38l-.16.04.23.58-2.04,5.66c-.31.82-.62,1.01-1.05,1.07l-.12.02v.34h2.5v-.34ZM85.58,45.74l1.06-2.97,1.06,2.97h-2.12Z"/>
      <path class="cls-6" d="M95.29,48.87h-.13c-1.05-.07-1.19-.25-1.19-.96v-5.31l4.87,6.67.04.06h.28v-6.72c0-.71.17-.89.9-.95h.13v-.35h-2.86v.34h.13c1.06.07,1.2.26,1.2.96v4.63l-4.23-5.87-.04-.06h-1.96v.34h.13c.73.07.9.25.9.96v5.31c0,.71-.17.89-.9.95h-.13v.35h2.86v-.34Z"/>
      <path class="cls-6" d="M105.91,49.32c1.6,0,2.92-.89,3.62-2.44l.06-.13-.36-.14-.06.11c-.62,1.23-1.64,1.93-2.8,1.93-1.83,0-3.05-1.46-3.05-3.64,0-1.94,1.2-3.36,2.85-3.36,1.32,0,2.33.75,2.84,2.12l.03.09h.33l-.28-2.44-.02-.12h-.33l-.02.12c-.04.34-.11.34-.13.34-.04,0-.14-.05-.25-.09h-.02c-.37-.17-1.05-.48-2.16-.48-2.27,0-4.06,1.84-4.06,4.18s1.59,3.95,3.79,3.95Z"/>
      <path class="cls-6" d="M117.88,47.1h-.35l-.04.08c-.7,1.35-1.16,1.59-2.11,1.59h-1.46c-.24,0-.33-.08-.33-.29v-3.05h1.3c.86,0,1.03.27,1.2,1.21l.02.12h.33v-3.05h-.33l-.02.12c-.16.89-.35,1.17-1.2,1.17h-1.3v-3.24h1.53c1.1,0,1.47.28,1.96,1.48l.03.09h.35l-.38-1.9-.02-.11h-5.43v.34h.13c.74.05.74.13.74.4v6.42c0,.27,0,.35-.74.4h-.13v.35h5.61l.64-2.12Z"/>
      <path class="cls-6" d="M126.68,48.87h-.13c-.74-.05-.74-.13-.74-.4v-3.03h3.94v3.03c0,.27,0,.35-.74.4h-.13v.35h2.83v-.34h-.13c-.74-.05-.74-.13-.74-.4v-6.42c0-.27,0-.35.74-.4h.13v-.35h-2.83v.34h.13c.74.05.74.13.74.4v2.92h-3.94v-2.92c0-.27,0-.35.74-.4h.13v-.35h-2.83v.34h.13c.74.05.74.13.74.4v6.42c0,.27,0,.35-.74.4h-.13v.35h2.83v-.34Z"/>
      <path class="cls-6" d="M136,48.87h-.13c-.41-.04-.66-.12-.75-.26-.08-.13-.07-.34.05-.66l.62-1.73h2.47l.76,2.13c.07.2.09.32.06.38-.08.12-.54.14-.68.14h-.13v.35h2.89v-.34h-.13c-.61-.07-.7-.16-1-.97l-2.01-5.51c-.26-.71-.3-.85-.38-1.2l-.03-.11h-.24l-.04.05c-.15.19-.45.33-.67.38l-.16.04.23.58-2.04,5.66c-.31.82-.62,1.01-1.05,1.07l-.12.02v.34h2.49v-.34ZM135.95,45.74l1.06-2.97,1.06,2.97h-2.12Z"/>
      <path class="cls-6" d="M148.84,47.14l.02-.06h-.35l-.04.08c-.66,1.27-1.12,1.62-2.13,1.62h-1.16c-.25,0-.33-.07-.33-.29v-6.43c0-.27,0-.35.74-.4h.13v-.35h-2.83v.34h.13c.74.05.74.13.74.4v6.42c0,.26,0,.35-.74.4h-.13v.35h5.32l.62-2.07Z"/>
      <path class="cls-6" d="M156.63,47.14l.02-.06h-.35l-.04.08c-.66,1.27-1.12,1.62-2.13,1.62h-1.16c-.25,0-.33-.07-.33-.29v-6.43c0-.27,0-.35.74-.4h.13v-.35h-2.83v.34h.13c.74.05.74.13.74.4v6.42c0,.26,0,.35-.74.4h-.13v.35h5.33l.62-2.07Z"/>
      <path class="cls-6" d="M54.49,71.93l.02-.06h-.35l-.04.08c-.66,1.27-1.12,1.62-2.13,1.62h-1.16c-.25,0-.33-.07-.33-.29v-6.43c0-.27,0-.35.74-.4h.13v-.35h-2.83v.34h.13c.74.05.74.13.74.4v6.42c0,.26,0,.35-.74.4h-.13v.35h5.33l.62-2.07Z"/>
      <path class="cls-6" d="M59.21,73.65h-.13c-.77-.05-.77-.13-.77-.4v-6.42c0-.27,0-.35.77-.4h.13v-.35h-2.9v.34h.13c.77.05.77.13.77.4v6.42c0,.27,0,.35-.77.4h-.13v.35h2.9v-.34Z"/>
      <path class="cls-6" d="M65.06,72.3l-1.96-5.35c-.06-.15-.11-.32-.07-.38.08-.11.52-.13.67-.14h.13v-.35h-2.89v.34h.13c.62.07.73.17,1.04.97l2.46,6.62.03.09h.33l2.46-6.61c.31-.79.53-1.01,1.11-1.07h.12v-.35h-2.63v.34h.13c.46.04.75.12.84.27.08.12.06.32-.07.65l-1.83,4.96Z"/>
      <path class="cls-6" d="M70.33,66.42h.13c.77.05.77.13.77.4v6.42c0,.27,0,.35-.77.4h-.13v.35h2.9v-.34h-.13c-.77-.05-.77-.13-.77-.4v-6.42c0-.27,0-.35.77-.4h.13v-.35h-2.9v.34Z"/>
      <path class="cls-6" d="M80.18,66.42h.13c1.06.07,1.2.26,1.2.96v4.63l-4.23-5.87-.04-.06h-1.96v.34h.13c.73.07.9.25.9.96v5.31c0,.71-.17.89-.9.95h-.13v.35h2.86v-.34h-.13c-1.05-.07-1.19-.25-1.19-.96v-5.31l4.87,6.67.04.06h.28v-6.72c0-.71.17-.89.9-.95h.13v-.35h-2.86v.34Z"/>
      <path class="cls-6" d="M84.96,70.18c0,2.35,1.7,3.93,4.22,3.93,1.13,0,2.49-.36,3.39-.9l.11-.07-.15-.29-.12.04c-.15.05-.2.04-.2.04,0,0-.02-.03-.02-.13v-1.64c0-.27,0-.34.71-.38h.13v-.36h-3.07v.36h.13c1.01.05,1.01.13,1.01.4v1.79c0,.44-1.07.68-1.8.68-1.52,0-3.15-1.21-3.15-3.85,0-1.95,1.2-3.37,2.85-3.37,1.3,0,2.33.76,2.83,2.08l.03.09h.33l-.28-2.4-.02-.12h-.32l-.02.12c-.05.34-.11.34-.13.34-.04,0-.16-.05-.27-.1-.4-.17-1.06-.47-2.15-.47-2.27,0-4.06,1.85-4.06,4.2Z"/>
      <path class="cls-6" d="M99.05,66.42h.13c.74.06.74.13.74.39v6.43c0,.27,0,.35-.74.4h-.13v.35h2.96v-.35h-.13c-.87-.05-.87-.14-.87-.4v-3.03h.46c.19,0,.26,0,.48.37l1.44,2.31c.6.98,1.02,1.15,1.67,1.15.22,0,.53-.02.7-.04l.12-.02v-.33h-.13c-.44-.05-.82-.4-1.42-1.31l-1.53-2.29c.86-.25,1.86-.8,1.86-2.01,0-.9-.53-1.97-3.07-1.97h-2.54v.34ZM101.51,69.78h-.51v-3.26h.4c.97,0,2.13.29,2.13,1.68,0,.98-.77,1.58-2.01,1.58Z"/>
      <path class="cls-6" d="M107.3,70.13c0,2.3,1.62,3.97,3.86,3.97,2.35,0,4.06-1.75,4.06-4.16s-1.64-3.97-3.91-3.97-4,1.75-4,4.16ZM114,70.24c0,2.01-1.09,3.41-2.66,3.41s-2.84-1.64-2.84-3.81c0-2.01,1.08-3.41,2.62-3.41,1.64,0,2.88,1.64,2.88,3.81Z"/>
      <path class="cls-6" d="M121.45,74.1c2.35,0,4.06-1.75,4.06-4.16s-1.64-3.97-3.91-3.97-4,1.75-4,4.16,1.62,3.97,3.86,3.97ZM124.3,70.24c0,2.01-1.1,3.41-2.66,3.41s-2.84-1.64-2.84-3.81c0-2.01,1.08-3.41,2.62-3.41,1.64,0,2.88,1.64,2.88,3.81Z"/>
      <path class="cls-6" d="M129.86,66.17l-.03-.1h-2.27v.34h.13c.76.07.91.15.9.86l-.13,5.42c0,.73-.17.89-.9.95h-.13v.35h2.72v-.34h-.13c-.9-.07-1.07-.23-1.05-.96l.12-5.4,2.49,6.61.03.09h.33l2.53-6.7.12,5.95c0,.28-.02.35-.73.39h-.13v.35h2.82v-.34h-.13c-.72-.05-.72-.13-.73-.41l-.13-6.42c0-.28.02-.35.73-.39h.13v-.35h-2.14l-.02.12c-.03.2-.17.65-.39,1.24l-1.78,4.79-1.86-5c-.16-.4-.27-.75-.38-1.05Z"/>
      <path class="cls-6" d="M51.37,98.44h-.13c-.74-.05-.74-.13-.74-.4v-2.62l.27-.29c.09-.09.12-.11.14-.11.02,0,.06,0,.12.08l2.35,2.91c.17.23.15.29.15.3,0,0-.06.1-.54.11h-.14v.35h2.9v-.34h-.12c-.54-.07-.76-.24-1.33-1.01l-2.59-3.23,1.61-1.66c1.07-1.08,1.73-1.28,2.18-1.32h.12v-.35h-2.71v.35h.14c.39.01.45.1.47.13.02.06.01.26-.58.88l-2.44,2.53v-3.14c0-.27,0-.35.74-.4h.13v-.35h-2.83v.34h.13c.74.05.74.13.74.4v6.43c0,.27,0,.35-.74.4h-.13v.35h2.83v-.34Z"/>
      <path class="cls-6" d="M60.28,91.22h.13v-.35h-2.9v.34h.13c.77.05.77.13.77.4v6.43c0,.27,0,.35-.77.4h-.13v.35h2.9v-.34h-.13c-.77-.05-.77-.13-.77-.4v-6.43c0-.27,0-.35.77-.4Z"/>
      <path class="cls-6" d="M68.81,90.77l-.14.03c-.19.04-.55.06-.98.06h-3.86c-.44,0-.8-.02-.99-.06l-.14-.03-.42,2.1h.34l.03-.09c.53-1.3.87-1.48,1.93-1.48h.63v6.73c0,.27,0,.35-.74.4h-.13v.35h2.83v-.34h-.13c-.74-.05-.74-.13-.74-.4v-6.73h.63c1.06,0,1.4.17,1.93,1.48l.03.09h.35l-.4-1.96-.03-.14Z"/>
      <path class="cls-6" d="M75.15,91.22c1.32,0,2.33.75,2.84,2.12l.03.09h.33l-.28-2.44-.02-.12h-.33l-.02.12c-.04.34-.11.34-.13.34-.04,0-.15-.05-.27-.1-.37-.16-1.05-.47-2.16-.47-2.27,0-4.06,1.84-4.06,4.18s1.59,3.95,3.79,3.95c1.6,0,2.92-.89,3.62-2.44l.06-.13-.36-.14-.06.11c-.62,1.23-1.64,1.93-2.8,1.93-1.83,0-3.05-1.46-3.05-3.64,0-1.94,1.2-3.36,2.85-3.36Z"/>
      <path class="cls-6" d="M80.74,98.43h-.13v.35h2.83v-.34h-.13c-.74-.05-.74-.13-.74-.4v-3.03h3.94v3.03c0,.27,0,.35-.74.4h-.13v.35h2.83v-.34h-.13c-.74-.05-.74-.13-.74-.4v-6.43c0-.27,0-.35.74-.4h.13v-.35h-2.83v.34h.13c.74.05.74.13.74.4v2.93h-3.94v-2.93c0-.27,0-.35.74-.4h.13v-.35h-2.83v.34h.13c.74.05.74.13.74.4v6.43c0,.27,0,.35-.74.4Z"/>
      <path class="cls-6" d="M90.75,98.43h-.13v.35h5.61l.64-2.12h-.35l-.04.08c-.7,1.35-1.17,1.59-2.11,1.59h-1.46c-.24,0-.33-.08-.33-.29v-3.05h1.3c.86,0,1.03.27,1.2,1.21l.02.12h.33v-3.05h-.33l-.02.12c-.16.89-.35,1.17-1.2,1.17h-1.3v-3.24h1.53c1.1,0,1.47.28,1.96,1.48l.03.09h.35l-.38-1.9-.02-.11h-5.43v.34h.13c.74.05.74.13.74.4v6.43c0,.27,0,.35-.74.4Z"/>
      <path class="cls-6" d="M98.89,98.43h-.13v.35h2.86v-.34h-.13c-1.05-.07-1.19-.25-1.19-.96v-5.31l4.87,6.67.04.06h.29v-6.72c0-.71.17-.89.9-.95h.13v-.35h-2.86v.34h.13c1.06.07,1.2.26,1.2.96v4.63l-4.23-5.87-.04-.06h-1.96v.34h.13c.73.07.9.25.9.96v5.31c0,.71-.17.89-.9.95Z"/>
      <path class="cls-6" d="M51.1,123.24c-.99,0-1.69-.64-2.14-1.96l-.03-.09h-.34l.26,2.27.02.12h.32l.02-.11c.03-.13.05-.15.06-.15.04,0,.17.04.29.08.34.11.86.28,1.54.28,1.45,0,2.54-1.01,2.54-2.35,0-.97-.59-1.7-1.8-2.21l-.62-.26c-1.17-.49-1.41-.99-1.41-1.58,0-.95.73-1.29,1.35-1.29.81,0,1.47.62,1.86,1.75l.03.09h.33l-.22-2.13v-.04h-.33l-.02.11c-.03.13-.04.15-.05.15-.04,0-.16-.05-.27-.09-.29-.11-.73-.28-1.33-.28-1.26,0-2.22.95-2.22,2.21,0,.93.59,1.65,1.74,2.14l.62.26c1.01.42,1.46.92,1.46,1.61,0,.89-.66,1.47-1.68,1.47Z"/>
      <path class="cls-6" d="M59.87,123.68c2.35,0,4.06-1.75,4.06-4.16s-1.64-3.97-3.91-3.97-4,1.75-4,4.16,1.62,3.97,3.86,3.97ZM62.73,119.81c0,2.01-1.09,3.41-2.66,3.41s-2.84-1.64-2.84-3.81c0-2.01,1.08-3.41,2.62-3.41,1.64,0,2.88,1.64,2.88,3.81Z"/>
      <path class="cls-6" d="M66.31,119.72c0,2.29,1.59,3.95,3.79,3.95,1.6,0,2.92-.89,3.62-2.44l.06-.13-.36-.14-.06.11c-.62,1.23-1.64,1.93-2.8,1.93-1.83,0-3.05-1.46-3.05-3.64,0-1.94,1.2-3.36,2.85-3.36,1.32,0,2.33.75,2.84,2.12l.03.09h.33l-.28-2.44-.02-.12h-.33l-.02.12c-.04.34-.11.34-.13.34-.04,0-.14-.05-.25-.09h-.02c-.37-.17-1.05-.47-2.16-.47-2.27,0-4.06,1.84-4.06,4.18Z"/>
      <path class="cls-6" d="M75.79,115.99h.13c.77.05.77.13.77.4v6.43c0,.27,0,.35-.77.4h-.13v.35h2.9v-.34h-.13c-.77-.05-.77-.13-.77-.4v-6.43c0-.27,0-.35.77-.4h.13v-.35h-2.9v.34Z"/>
      <path class="cls-6" d="M80.45,123.23v.34h2.49v-.34h-.13c-.41-.04-.66-.12-.75-.26-.08-.13-.07-.34.05-.66l.62-1.73h2.47l.76,2.13c.07.2.09.32.06.37-.08.12-.54.14-.68.14h-.13v.35h2.89v-.34h-.13c-.61-.07-.7-.16-1-.97l-2.01-5.51c-.26-.7-.3-.85-.38-1.2l-.03-.11h-.24l-.04.05c-.15.19-.45.33-.67.38l-.16.04.23.58-2.04,5.66c-.31.82-.62,1.01-1.05,1.07l-.12.02ZM82.9,120.1l1.06-2.97,1.06,2.97h-2.12Z"/>
      <path class="cls-6" d="M89.97,123.22h-.13v.35h5.33l.62-2.07.02-.06h-.35l-.04.08c-.66,1.27-1.12,1.62-2.13,1.62h-1.16c-.25,0-.33-.07-.33-.29v-6.44c0-.27,0-.35.74-.4h.13v-.35h-2.83v.34h.13c.74.05.74.13.74.4v6.43c0,.26,0,.35-.74.4Z"/>
      <path class="cls-6" d="M106.74,117.54c0-1.2-1-1.89-2.74-1.89h-2.63v.34h.13c.74.05.74.13.74.4v6.43c0,.27,0,.35-.74.4h-.13v.35h2.73c1.87,0,3.12-.93,3.12-2.31s-1.04-1.82-1.77-2c.54-.22,1.29-.71,1.29-1.72ZM103.32,119.12v-3.03h.58c1.12,0,1.77.57,1.77,1.56,0,.93-.66,1.47-1.81,1.47h-.53ZM103.32,119.57h.65c1.32,0,2.11.67,2.11,1.79s-.76,1.76-2.04,1.76c-.71,0-.71-.09-.71-.33v-3.22Z"/>
      <path class="cls-6" d="M111.19,123.23h-.13c-.41-.04-.66-.12-.75-.26-.08-.13-.07-.34.05-.66l.62-1.73h2.47l.76,2.13c.07.2.09.32.06.37-.08.12-.54.14-.68.14h-.13v.35h2.89v-.34h-.13c-.61-.07-.7-.16-1-.97l-2.01-5.51c-.26-.7-.3-.85-.38-1.2l-.03-.11h-.24l-.04.05c-.15.19-.45.33-.67.38l-.16.04.23.58-2.04,5.66c-.31.82-.62,1.01-1.05,1.07l-.12.02v.34h2.49v-.34ZM111.14,120.1l1.06-2.97,1.06,2.97h-2.12Z"/>
      <path class="cls-6" d="M121.61,123.23h-.13c-.74-.05-.74-.13-.74-.4v-6.73h.63c1.06,0,1.4.17,1.93,1.48l.03.09h.35l-.4-1.96-.03-.14-.14.03c-.19.04-.55.06-.98.06h-3.86c-.44,0-.8-.02-.99-.06l-.14-.03-.42,2.1h.34l.03-.09c.53-1.3.87-1.48,1.93-1.48h.63v6.73c0,.27,0,.35-.74.4h-.13v.35h2.83v-.34Z"/>
      <path class="cls-6" d="M125.71,123.22h-.13v.35h2.83v-.34h-.13c-.74-.05-.74-.13-.74-.4v-3.03h3.94v3.03c0,.27,0,.35-.74.4h-.13v.35h2.83v-.34h-.13c-.74-.05-.74-.13-.74-.4v-6.43c0-.27,0-.35.74-.4h.13v-.35h-2.83v.34h.13c.74.05.74.13.74.4v2.93h-3.94v-2.93c0-.27,0-.35.74-.4h.13v-.35h-2.83v.34h.13c.74.05.74.13.74.4v6.43c0,.27,0,.35-.74.4Z"/>
      <path class="cls-6" d="M141.21,117.62c0-.9-.53-1.97-3.07-1.97h-2.54v.34h.13c.74.06.74.13.74.39v6.44c0,.27,0,.35-.74.4h-.13v.35h2.96v-.35h-.13c-.87-.05-.87-.14-.87-.4v-3.03h.46c.19,0,.26,0,.48.37l1.44,2.31c.6.98,1.02,1.15,1.67,1.15.21,0,.51-.02.7-.04l.12-.02v-.33h-.13c-.44-.05-.82-.4-1.42-1.31l-1.53-2.29c.86-.25,1.86-.8,1.86-2ZM138.06,119.35h-.51v-3.26h.4c.97,0,2.13.29,2.13,1.68,0,.98-.77,1.58-2.01,1.58Z"/>
      <path class="cls-6" d="M143.85,119.7c0,2.3,1.62,3.97,3.86,3.97,2.35,0,4.06-1.75,4.06-4.16s-1.64-3.97-3.91-3.97-4,1.75-4,4.16ZM147.67,116c1.64,0,2.88,1.64,2.88,3.81,0,2.01-1.09,3.41-2.66,3.41s-2.84-1.64-2.84-3.81c0-2.01,1.08-3.41,2.62-3.41Z"/>
      <path class="cls-6" d="M154.15,119.7c0,2.3,1.62,3.97,3.86,3.97,2.35,0,4.06-1.75,4.06-4.16s-1.64-3.97-3.91-3.97-4,1.75-4,4.16ZM160.85,119.81c0,2.01-1.09,3.41-2.66,3.41s-2.84-1.64-2.84-3.81c0-2.01,1.08-3.41,2.62-3.41,1.64,0,2.88,1.64,2.88,3.81Z"/>
      <path class="cls-6" d="M171.14,122.83c0,.28-.02.35-.73.39h-.13v.35h2.82v-.34h-.13c-.72-.05-.72-.13-.73-.41l-.13-6.43c0-.28.02-.35.73-.39h.13v-.35h-2.14l-.02.12c-.03.2-.17.65-.39,1.24l-1.78,4.79-1.86-5c-.16-.4-.28-.76-.38-1.05l-.03-.1h-2.27v.34h.13c.76.07.91.15.9.86l-.13,5.42c0,.73-.17.89-.9.95h-.13v.35h2.72v-.34h-.13c-.9-.07-1.07-.23-1.05-.96l.12-5.4,2.49,6.61.03.09h.33l2.53-6.7.12,5.95Z"/>
      <path class="cls-6" d="M54.49,146.28l.02-.06h-.35l-.04.08c-.66,1.27-1.12,1.62-2.13,1.62h-1.16c-.25,0-.33-.07-.33-.29v-6.43c0-.27,0-.35.74-.4h.13v-.35h-2.83v.34h.13c.74.05.74.13.74.4v6.42c0,.26,0,.35-.74.4h-.13v.35h5.32l.62-2.07Z"/>
      <path class="cls-6" d="M58.44,148.01h-.13c-.41-.04-.66-.12-.76-.26-.08-.12-.07-.34.05-.66l.62-1.73h2.47l.76,2.13c.07.21.09.32.06.37-.08.12-.54.14-.68.14h-.13v.35h2.89v-.34h-.13c-.61-.07-.7-.16-1-.97l-2-5.51c-.25-.69-.3-.84-.38-1.2l-.03-.11h-.24l-.04.05c-.15.19-.45.33-.67.38l-.16.04.23.58-2.04,5.66c-.31.82-.62,1.01-1.05,1.07l-.12.02v.34h2.5v-.34ZM58.39,144.89l1.06-2.97,1.06,2.97h-2.12Z"/>
      <path class="cls-6" d="M71.35,145.47v-3.73c0-.71.17-.89.9-.95h.13v-.35h-2.76v.34h.13c.91.07,1.1.23,1.1.96v3.73c0,1.59-.72,2.4-2.13,2.4s-2.08-.84-2.08-2.42v-4.26c0-.27,0-.35.74-.4h.13v-.35h-2.83v.34h.13c.74.05.74.13.74.4v4.32c0,1.93.99,2.95,2.86,2.95s2.93-1.04,2.93-3Z"/>
      <path class="cls-6" d="M76.26,140.49l-.04-.06h-1.96v.34h.13c.73.07.9.25.9.96v5.31c0,.71-.17.89-.9.95h-.13v.35h2.86v-.34h-.13c-1.05-.07-1.19-.25-1.19-.96v-5.31l4.87,6.67.04.06h.29v-6.72c0-.71.17-.89.9-.95h.13v-.35h-2.86v.34h.13c1.06.07,1.2.26,1.2.96v4.63l-4.23-5.87Z"/>
      <path class="cls-6" d="M84.04,140.43v.34h.13c.74.05.74.13.74.4v6.42c0,.27,0,.35-.74.4h-.13v.35h2.95c2.67,0,4.6-1.71,4.6-4.06s-1.8-3.87-4.49-3.87h-3.07ZM90.39,144.6c0,1.95-1.35,3.31-3.27,3.31-1.12,0-1.12-.14-1.12-.41v-6.62h.97c2.01,0,3.42,1.53,3.42,3.71Z"/>
      <path class="cls-6" d="M96.21,140.43h-2.54v.34h.13c.74.06.74.13.74.39v6.43c0,.27,0,.35-.74.4h-.13v.35h2.96v-.35h-.13c-.87-.05-.87-.14-.87-.4v-3.03h.46c.19,0,.26,0,.48.37l1.44,2.31c.6.98,1.02,1.15,1.67,1.15.22,0,.53-.02.7-.04l.12-.02v-.33h-.13c-.44-.05-.82-.4-1.42-1.31l-1.53-2.29c.86-.25,1.86-.8,1.86-2.01,0-.9-.53-1.97-3.07-1.97ZM96.14,144.14h-.51v-3.26h.4c.97,0,2.13.29,2.13,1.68,0,.98-.77,1.58-2.01,1.58Z"/>
      <path class="cls-6" d="M107,141.91c.49-.9.81-1.07,1.34-1.12h.12v-.35h-2.63v.34h.13c.42.04.67.12.74.25.06.12,0,.33-.17.66l-1.49,2.72-1.69-3.09c-.06-.1-.19-.34-.16-.4.01-.02.09-.09.57-.11h.13v-.35h-2.9v.34h.13c.61.07.81.18,1.25,1.03l1.81,3.31v2.49c0,.27,0,.35-.74.4h-.13v.35h2.83v-.34h-.13c-.74-.05-.74-.13-.74-.4v-2.59l1.73-3.11Z"/>
      <path class="cls-6" d="M51.09,172.81c-.99,0-1.69-.64-2.14-1.96l-.03-.09h-.34l.26,2.27.02.12h.32l.02-.11c.03-.13.05-.15.06-.15.04,0,.15.04.26.07h.02c.32.12.86.29,1.54.29,1.45,0,2.54-1.01,2.54-2.36,0-.97-.59-1.7-1.8-2.21l-.62-.26c-1.17-.49-1.41-.99-1.41-1.58,0-.89.68-1.29,1.35-1.29.81,0,1.47.62,1.86,1.75l.03.09h.33l-.22-2.13v-.04h-.33l-.02.11c-.03.13-.04.15-.05.15-.04,0-.16-.05-.27-.09-.29-.11-.73-.28-1.33-.28-1.26,0-2.22.95-2.22,2.21,0,.93.59,1.65,1.74,2.14l.62.26c1.01.42,1.46.92,1.46,1.61,0,.89-.66,1.47-1.68,1.47Z"/>
      <path class="cls-6" d="M56.65,165.97v4.32c0,1.93.99,2.95,2.86,2.95s2.93-1.04,2.93-3v-3.73c0-.71.17-.89.9-.95h.13v-.35h-2.76v.34h.13c.91.07,1.1.23,1.1.96v3.73c0,1.59-.72,2.4-2.13,2.4s-2.08-.84-2.08-2.42v-4.26c0-.27,0-.35.74-.4h.13v-.35h-2.83v.34h.13c.74.05.74.13.74.4Z"/>
      <path class="cls-6" d="M68.1,165.57h.13v-.35h-2.9v.34h.13c.77.05.77.13.77.4v6.42c0,.27,0,.35-.77.4h-.13v.35h2.9v-.34h-.13c-.77-.05-.77-.13-.77-.4v-6.42c0-.27,0-.35.77-.4Z"/>
      <path class="cls-6" d="M70.48,167.14c.53-1.3.87-1.48,1.93-1.48h.63v6.73c0,.27,0,.35-.74.4h-.13v.35h2.83v-.34h-.13c-.74-.05-.74-.13-.74-.4v-6.73h.63c1.06,0,1.4.17,1.93,1.48l.03.09h.35l-.42-2.05v-.05s-.15.03-.15.03c-.2.04-.55.06-.98.06h-3.86c-.43,0-.8-.02-.99-.06l-.14-.03-.42,2.1h.34l.03-.09Z"/>
      <path class="cls-6" d="M85.21,171.03h-.35l-.04.08c-.7,1.35-1.16,1.59-2.11,1.59h-1.46c-.24,0-.33-.08-.33-.29v-3.05h1.3c.86,0,1.03.27,1.2,1.21l.02.12h.33v-3.05h-.33l-.02.12c-.16.89-.35,1.17-1.2,1.17h-1.3v-3.24h1.53c1.1,0,1.47.28,1.96,1.48l.03.09h.35l-.38-1.9-.02-.11h-5.43v.34h.13c.74.05.74.13.74.4v6.42c0,.27,0,.35-.74.4h-.13v.35h5.61l.64-2.12Z"/>
      <path class="cls-6" d="M91.28,172.79h-.13v.35h3.05v-.34h-.13c-.81-.05-.81-.13-.81-.4v-7.28h-.28l-.04.04c-.41.44-1,.71-1.65.76h-.13v.35h.14c.32.01.63.04.92.08v6.04c0,.26,0,.35-.93.4Z"/>
      <polygon class="cls-6" points="103.13 171.57 103.13 169.47 105.15 169.47 105.15 168.98 103.13 168.98 103.13 166.88 102.62 166.88 102.62 168.98 100.59 168.98 100.59 169.47 102.62 169.47 102.62 171.57 103.13 171.57"/>
      <path class="cls-6" d="M115.75,165.57c1.32,0,2.33.75,2.84,2.12l.03.09h.33l-.28-2.45-.02-.12h-.33l-.02.12c-.04.34-.11.34-.13.34-.04,0-.14-.05-.25-.09h-.02c-.37-.17-1.05-.48-2.16-.48-2.27,0-4.06,1.84-4.06,4.18s1.59,3.95,3.79,3.95c1.6,0,2.92-.89,3.62-2.44l.06-.13-.36-.14-.06.11c-.62,1.23-1.64,1.93-2.8,1.93-1.83,0-3.05-1.46-3.05-3.64,0-1.94,1.2-3.36,2.85-3.36Z"/>
      <path class="cls-6" d="M127.16,171.07l.02-.06h-.35l-.04.08c-.66,1.27-1.12,1.62-2.13,1.62h-1.16c-.25,0-.33-.07-.33-.29v-6.43c0-.27,0-.35.74-.4h.13v-.35h-2.83v.34h.13c.74.05.74.13.74.4v6.42c0,.26,0,.35-.74.4h-.13v.35h5.33l.62-2.07Z"/>
      <path class="cls-6" d="M128.96,169.28c0,2.3,1.62,3.97,3.86,3.97,2.35,0,4.06-1.75,4.06-4.16s-1.64-3.97-3.91-3.97-4,1.75-4,4.16ZM132.78,165.57c1.64,0,2.88,1.64,2.88,3.81,0,2.01-1.1,3.41-2.66,3.41s-2.84-1.64-2.84-3.81c0-2.01,1.08-3.41,2.62-3.41Z"/>
      <path class="cls-6" d="M144.24,170.89c0-.97-.59-1.7-1.8-2.21l-.62-.26c-1.17-.49-1.41-.99-1.41-1.58,0-.95.73-1.29,1.35-1.29.81,0,1.47.62,1.86,1.75l.03.09h.33l-.22-2.13v-.04h-.33l-.02.11c-.03.13-.04.15-.05.15-.04,0-.16-.05-.27-.09-.29-.11-.73-.28-1.33-.28-1.26,0-2.22.95-2.22,2.21,0,.93.59,1.65,1.74,2.14l.62.26c1.01.42,1.46.92,1.46,1.61,0,.89-.66,1.47-1.68,1.47s-1.69-.64-2.14-1.96l-.03-.09h-.34l.26,2.27.02.12h.32l.02-.11c.03-.13.05-.15.06-.15.04,0,.17.04.29.08.34.11.86.29,1.54.29,1.45,0,2.54-1.01,2.54-2.36Z"/>
      <path class="cls-6" d="M152.73,171.03h-.35l-.04.08c-.7,1.35-1.16,1.59-2.11,1.59h-1.46c-.24,0-.33-.08-.33-.29v-3.05h1.3c.86,0,1.03.27,1.2,1.21l.02.12h.33v-3.05h-.33l-.02.12c-.16.89-.35,1.17-1.2,1.17h-1.3v-3.24h1.53c1.1,0,1.47.28,1.96,1.48l.03.09h.35l-.38-1.9-.02-.11h-5.43v.34h.13c.74.05.74.13.74.4v6.42c0,.27,0,.35-.74.4h-.13v.35h5.61l.64-2.12Z"/>
      <path class="cls-6" d="M157.35,165.67v6.73c0,.27,0,.35-.74.4h-.13v.35h2.83v-.34h-.13c-.74-.05-.74-.13-.74-.4v-6.73h.63c1.06,0,1.4.17,1.93,1.48l.03.09h.35l-.42-2.05v-.05s-.15.03-.15.03c-.2.04-.55.06-.98.06h-3.86c-.43,0-.8-.02-.99-.06l-.14-.03-.42,2.1h.34l.03-.09c.53-1.3.87-1.48,1.93-1.48h.63Z"/>
      <path class="cls-6" d="M54.39,195.61c0-1.33-1.04-1.82-1.77-2,.54-.22,1.29-.71,1.29-1.72,0-1.2-1-1.89-2.74-1.89h-2.63v.34h.13c.74.05.74.13.74.4v6.42c0,.27,0,.35-.74.4h-.13v.35h2.73c1.87,0,3.12-.93,3.12-2.31ZM50.5,193.93h.65c1.32,0,2.11.67,2.11,1.79s-.76,1.76-2.04,1.76c-.71,0-.71-.09-.71-.33v-3.22ZM50.5,193.48v-3.03h.57c1.13,0,1.77.57,1.77,1.56,0,.93-.66,1.47-1.81,1.47h-.53Z"/>
      <path class="cls-6" d="M60.75,197.57h-.13v.35h2.89v-.34h-.13c-.61-.07-.7-.16-1-.97l-2-5.51c-.25-.69-.3-.84-.38-1.2l-.03-.11h-.24l-.04.05c-.15.19-.45.33-.67.38l-.16.04.23.58-2.04,5.66c-.31.82-.62,1.01-1.05,1.07l-.12.02v.34h2.5v-.34h-.13c-.41-.04-.66-.12-.76-.26-.08-.12-.07-.34.05-.66l.62-1.73h2.47l.76,2.13c.07.21.09.32.06.37-.08.12-.54.14-.68.14ZM60.44,194.46h-2.12l1.06-2.97,1.06,2.97Z"/>
      <path class="cls-6" d="M64.24,192.02l.03-.09c.53-1.3.87-1.48,1.93-1.48h.63v6.73c0,.27,0,.35-.74.4h-.13v.35h2.83v-.34h-.13c-.74-.05-.74-.13-.74-.4v-6.73h.63c1.06,0,1.4.17,1.93,1.48l.03.09h.35l-.42-2.05v-.05s-.15.03-.15.03c-.2.04-.55.06-.98.06h-3.86c-.43,0-.8-.02-.99-.06l-.14-.03-.42,2.1h.34Z"/>
      <path class="cls-6" d="M80.48,190.36h.13v-.35h-2.83v.34h.13c.74.05.74.13.74.4v2.92h-3.94v-2.92c0-.27,0-.35.74-.4h.13v-.35h-2.83v.34h.13c.74.05.74.13.74.4v6.42c0,.27,0,.35-.74.4h-.13v.35h2.83v-.34h-.13c-.74-.05-.74-.13-.74-.4v-3.03h3.94v3.03c0,.27,0,.35-.74.4h-.13v.35h2.83v-.34h-.13c-.74-.05-.74-.13-.74-.4v-6.42c0-.27,0-.35.74-.4Z"/>
      <path class="cls-6" d="M89.6,197.59h-.13c-.44-.05-.82-.4-1.42-1.31l-1.53-2.29c.86-.25,1.86-.8,1.86-2.01,0-.9-.53-1.97-3.07-1.97h-2.54v.34h.13c.74.06.74.13.74.39v6.43c0,.27,0,.35-.74.4h-.13v.35h2.96v-.35h-.13c-.87-.05-.87-.14-.87-.4v-3.03h.46c.19,0,.26,0,.48.37l1.44,2.31c.6.98,1.02,1.15,1.67,1.15.22,0,.53-.02.7-.04l.12-.02v-.33ZM85.24,193.71h-.51v-3.26h.4c.97,0,2.13.29,2.13,1.68,0,.98-.77,1.58-2.01,1.58Z"/>
      <path class="cls-6" d="M95.03,189.9c-2.32,0-4,1.75-4,4.16s1.62,3.97,3.86,3.97c2.35,0,4.06-1.75,4.06-4.16s-1.64-3.97-3.91-3.97ZM94.85,190.36c1.64,0,2.88,1.64,2.88,3.81,0,2.01-1.1,3.41-2.66,3.41s-2.84-1.64-2.84-3.81c0-2.01,1.08-3.41,2.62-3.41Z"/>
      <path class="cls-6" d="M105.33,189.9c-2.32,0-4,1.75-4,4.16s1.62,3.97,3.86,3.97c2.35,0,4.06-1.75,4.06-4.16s-1.64-3.97-3.91-3.97ZM105.15,190.36c1.64,0,2.88,1.64,2.88,3.81,0,2.01-1.09,3.41-2.66,3.41s-2.84-1.64-2.84-3.81c0-2.01,1.08-3.41,2.62-3.41Z"/>
      <path class="cls-6" d="M113.89,197.58h-.13c-.9-.07-1.07-.23-1.06-.96l.12-5.4,2.49,6.61.03.09h.33l2.53-6.7.12,5.95c0,.28-.02.35-.73.39h-.13v.35h2.82v-.34h-.13c-.72-.05-.72-.13-.73-.41l-.13-6.42c0-.28.02-.35.73-.39h.13v-.35h-2.14l-.02.12c-.03.2-.17.64-.39,1.24l-1.78,4.79-1.86-5c-.15-.37-.26-.7-.36-.99l-.05-.16h-2.27v.34h.13c.76.07.91.15.9.86l-.13,5.42c0,.73-.17.89-.9.95h-.13v.35h2.73v-.34Z"/>
      <path class="cls-6" d="M131.48,195.68c0-.97-.59-1.7-1.8-2.21l-.62-.26c-1.17-.49-1.41-.99-1.41-1.58,0-.95.73-1.29,1.35-1.29.81,0,1.47.62,1.86,1.75l.03.09h.33l-.22-2.13v-.04h-.33l-.02.11c-.03.13-.04.15-.05.15-.04,0-.16-.05-.27-.09-.29-.11-.73-.28-1.33-.28-1.26,0-2.22.95-2.22,2.21,0,.93.59,1.65,1.74,2.14l.62.26c1.01.42,1.46.92,1.46,1.61,0,.89-.66,1.47-1.68,1.47s-1.69-.64-2.14-1.96l-.03-.09h-.34l.26,2.27.02.12h.32l.02-.11c.03-.13.05-.15.06-.15.04,0,.17.04.29.08.34.11.86.29,1.54.29,1.45,0,2.54-1.01,2.54-2.36Z"/>
      <path class="cls-6" d="M140.28,195.04v-3.73c0-.71.17-.89.9-.95h.13v-.35h-2.76v.34h.13c.91.07,1.1.23,1.1.96v3.73c0,1.59-.72,2.4-2.13,2.4s-2.08-.84-2.08-2.42v-4.26c0-.27,0-.35.74-.4h.13v-.35h-2.83v.34h.13c.74.05.74.13.74.4v4.32c0,1.93.99,2.95,2.86,2.95s2.93-1.04,2.93-3Z"/>
      <path class="cls-6" d="M145.95,190.36h.13v-.35h-2.9v.34h.13c.77.05.77.13.77.4v6.42c0,.27,0,.35-.77.4h-.13v.35h2.9v-.34h-.13c-.77-.05-.77-.13-.77-.4v-6.42c0-.27,0-.35.77-.4Z"/>
      <path class="cls-6" d="M154.48,189.92l-.14.03c-.2.04-.55.06-.98.06h-3.86c-.43,0-.8-.02-.99-.06l-.14-.03-.42,2.1h.34l.03-.09c.53-1.3.87-1.48,1.93-1.48h.63v6.73c0,.27,0,.35-.74.4h-.13v.35h2.83v-.34h-.13c-.74-.05-.74-.13-.74-.4v-6.73h.63c1.06,0,1.4.17,1.93,1.48l.03.09h.35l-.42-2.05v-.05Z"/>
      <path class="cls-6" d="M156.8,190.35h.13c.74.05.74.13.74.4v6.42c0,.27,0,.35-.74.4h-.13v.35h5.61l.64-2.12h-.35l-.04.08c-.7,1.35-1.16,1.59-2.11,1.59h-1.46c-.24,0-.33-.08-.33-.29v-3.05h1.3c.86,0,1.03.27,1.2,1.21l.02.12h.33v-3.05h-.33l-.02.12c-.16.89-.35,1.17-1.2,1.17h-1.3v-3.24h1.53c1.1,0,1.47.28,1.96,1.48l.03.09h.35l-.38-1.9-.02-.11h-5.43v.34Z"/>
      <path class="cls-6" d="M169.13,197.57h-.13v.35h3.05v-.34h-.13c-.81-.05-.81-.13-.81-.4v-7.28h-.28l-.04.04c-.41.44-1,.71-1.65.76h-.13v.35h.14c.32.01.63.04.92.08v6.04c0,.26,0,.35-.93.4Z"/>
      <path class="cls-6" d="M51.09,222.38c-.99,0-1.69-.64-2.14-1.96l-.03-.09h-.34l.26,2.27.02.12h.32l.02-.11c.03-.13.05-.15.06-.15.05,0,.18.05.28.08.32.11.86.29,1.54.29,1.45,0,2.54-1.01,2.54-2.35,0-.97-.59-1.7-1.8-2.21l-.62-.26c-1.17-.49-1.41-.99-1.41-1.58,0-.89.68-1.29,1.35-1.29.81,0,1.47.62,1.86,1.75l.03.09h.33l-.22-2.13v-.04h-.33l-.02.11c-.03.13-.04.15-.05.15-.04,0-.16-.05-.27-.09-.29-.11-.73-.28-1.33-.28-1.26,0-2.22.95-2.22,2.21,0,.93.59,1.65,1.74,2.14l.62.26c1.01.42,1.46.92,1.46,1.61,0,.89-.66,1.47-1.68,1.47Z"/>
      <path class="cls-6" d="M56.65,215.54v4.33c0,1.93.99,2.95,2.86,2.95s2.93-1.04,2.93-3v-3.73c0-.71.17-.89.9-.95h.13v-.35h-2.76v.34h.13c.91.07,1.1.23,1.1.96v3.73c0,1.59-.72,2.4-2.13,2.4s-2.08-.84-2.08-2.42v-4.26c0-.27,0-.35.74-.4h.13v-.35h-2.83v.34h.13c.74.05.74.13.74.4Z"/>
      <path class="cls-6" d="M68.1,215.14h.13v-.35h-2.9v.34h.13c.77.05.77.13.77.4v6.43c0,.27,0,.35-.77.4h-.13v.35h2.9v-.34h-.13c-.77-.05-.77-.13-.77-.4v-6.43c0-.27,0-.35.77-.4Z"/>
      <path class="cls-6" d="M72.3,222.36h-.13v.35h2.83v-.34h-.13c-.74-.05-.74-.13-.74-.4v-6.73h.63c1.06,0,1.4.17,1.93,1.48l.03.09h.35l-.4-1.96-.03-.14-.14.03c-.19.04-.55.06-.98.06h-3.86c-.44,0-.8-.02-.99-.06l-.14-.03-.42,2.1h.34l.03-.09c.53-1.3.87-1.48,1.93-1.48h.63v6.73c0,.27,0,.35-.74.4Z"/>
      <path class="cls-6" d="M85.21,220.6h-.35l-.04.08c-.7,1.35-1.17,1.59-2.11,1.59h-1.46c-.24,0-.33-.08-.33-.29v-3.05h1.3c.86,0,1.03.27,1.2,1.21l.02.12h.33v-3.05h-.33l-.02.12c-.16.89-.35,1.17-1.2,1.17h-1.3v-3.24h1.53c1.1,0,1.47.28,1.96,1.48l.03.09h.35l-.38-1.9-.02-.11h-5.43v.34h.13c.74.05.74.13.74.4v6.43c0,.27,0,.35-.74.4h-.13v.35h5.61l.64-2.12Z"/>
      <path class="cls-6" d="M91.13,222.45v.27h4.38l.65-1.82.02-.07h-.37l-.04.07c-.42.77-.51.87-1.56.87h-1.85l.39-.4c1.5-1.45,2.96-3,2.96-4.64,0-1.19-.87-2.05-2.07-2.05-1.36,0-2.3.93-2.47,2.43l-.02.15h.34l.03-.1c.3-1.05.93-1.63,1.77-1.63s1.38.62,1.38,1.52c0,1.4-1.16,2.82-2.29,4.02l-1.28,1.36Z"/>
      <polygon class="cls-6" points="104.59 216.45 104.59 218.55 102.56 218.55 102.56 219.04 104.59 219.04 104.59 221.14 105.1 221.14 105.1 219.04 107.13 219.04 107.13 218.55 105.1 218.55 105.1 216.45 104.59 216.45"/>
      <path class="cls-6" d="M117.46,222.82c1.6,0,2.92-.89,3.62-2.44l.06-.13-.36-.14-.06.11c-.62,1.23-1.64,1.93-2.8,1.93-1.83,0-3.05-1.46-3.05-3.64,0-1.94,1.2-3.36,2.85-3.36,1.32,0,2.33.75,2.84,2.12l.03.09h.33l-.28-2.44-.02-.12h-.33l-.02.12c-.04.34-.11.34-.13.34-.04,0-.14-.05-.25-.09h-.02c-.37-.17-1.05-.47-2.16-.47-2.27,0-4.06,1.84-4.06,4.18s1.59,3.95,3.79,3.95Z"/>
      <path class="cls-6" d="M129.13,220.64l.02-.06h-.35l-.04.08c-.66,1.27-1.12,1.62-2.13,1.62h-1.16c-.25,0-.33-.07-.33-.29v-6.44c0-.27,0-.35.74-.4h.13v-.35h-2.83v.34h.13c.74.05.74.13.74.4v6.43c0,.26,0,.35-.74.4h-.13v.35h5.32l.62-2.07Z"/>
      <path class="cls-6" d="M134.79,222.82c2.35,0,4.06-1.75,4.06-4.16s-1.64-3.97-3.91-3.97-4,1.75-4,4.16,1.62,3.97,3.86,3.97ZM137.64,218.95c0,2.01-1.09,3.41-2.66,3.41s-2.84-1.64-2.84-3.81c0-2.01,1.08-3.41,2.62-3.41,1.64,0,2.88,1.64,2.88,3.81Z"/>
      <path class="cls-6" d="M144.42,218.26l-.62-.26c-1.17-.49-1.41-.99-1.41-1.58,0-.89.68-1.29,1.35-1.29.81,0,1.47.62,1.86,1.75l.03.09h.33l-.22-2.13v-.04h-.33l-.02.11c-.03.13-.04.15-.05.15-.04,0-.16-.05-.27-.09-.29-.11-.73-.28-1.33-.28-1.26,0-2.22.95-2.22,2.21,0,.93.59,1.65,1.74,2.14l.62.26c1.01.42,1.46.92,1.46,1.61,0,.89-.66,1.47-1.68,1.47s-1.69-.64-2.14-1.96l-.03-.09h-.34l.26,2.27.02.12h.32l.02-.11c.03-.13.05-.15.06-.15.05,0,.18.05.28.08.32.11.86.29,1.54.29,1.45,0,2.54-1.01,2.54-2.35,0-.97-.59-1.7-1.8-2.21Z"/>
      <path class="cls-6" d="M148.59,222.36h-.13v.35h5.61l.64-2.12h-.35l-.04.08c-.7,1.35-1.17,1.59-2.11,1.59h-1.46c-.24,0-.33-.08-.33-.29v-3.05h1.3c.86,0,1.03.27,1.2,1.21l.02.12h.33v-3.05h-.33l-.02.12c-.16.89-.35,1.17-1.2,1.17h-1.3v-3.24h1.53c1.1,0,1.47.28,1.96,1.48l.03.09h.35l-.38-1.9-.02-.11h-5.43v.34h.13c.74.05.74.13.74.4v6.43c0,.27,0,.35-.74.4Z"/>
      <path class="cls-6" d="M162.92,214.7l-.14.03c-.19.04-.55.06-.98.06h-3.86c-.44,0-.8-.02-.99-.06l-.14-.03-.42,2.1h.34l.03-.09c.53-1.3.87-1.48,1.93-1.48h.63v6.73c0,.27,0,.35-.74.4h-.13v.35h2.83v-.34h-.13c-.74-.05-.74-.13-.74-.4v-6.73h.63c1.06,0,1.4.17,1.93,1.48l.03.09h.35l-.4-1.96-.03-.14Z"/>
      <path class="cls-6" d="M54.39,245.19c0-1.33-1.04-1.82-1.77-2,.54-.22,1.29-.71,1.29-1.72,0-1.2-1-1.89-2.74-1.89h-2.63v.34h.13c.74.05.74.13.74.4v6.43c0,.27,0,.35-.74.4h-.13v.35h2.73c1.87,0,3.12-.93,3.12-2.31ZM50.5,243.5h.65c1.32,0,2.11.67,2.11,1.79s-.76,1.76-2.04,1.76c-.71,0-.71-.09-.71-.33v-3.22ZM50.5,243.05v-3.03h.57c1.13,0,1.77.57,1.77,1.56,0,.93-.66,1.47-1.81,1.47h-.53Z"/>
      <path class="cls-6" d="M58.36,247.15h-.13c-.41-.04-.66-.12-.76-.26-.08-.12-.07-.34.05-.66l.62-1.73h2.47l.76,2.13c.07.21.09.32.06.37-.08.12-.54.14-.68.14h-.13v.35h2.89v-.34h-.13c-.61-.07-.7-.16-1-.97l-2-5.51c-.25-.67-.3-.84-.38-1.2l-.03-.11h-.24l-.04.05c-.15.19-.45.33-.67.38l-.16.04.23.58-2.04,5.66c-.31.82-.62,1.01-1.05,1.07l-.12.02v.34h2.5v-.34ZM58.32,244.03l1.06-2.97,1.06,2.97h-2.12Z"/>
      <path class="cls-6" d="M64.24,241.59l.03-.09c.53-1.3.87-1.48,1.93-1.48h.63v6.73c0,.27,0,.35-.74.4h-.13v.35h2.83v-.34h-.13c-.74-.05-.74-.13-.74-.4v-6.73h.63c1.06,0,1.4.17,1.93,1.48l.03.09h.35l-.4-1.96-.03-.14-.14.03c-.19.04-.55.06-.98.06h-3.86c-.44,0-.8-.02-.99-.06l-.14-.03-.42,2.1h.34Z"/>
      <path class="cls-6" d="M80.48,239.93h.13v-.35h-2.83v.34h.13c.74.05.74.13.74.4v2.93h-3.94v-2.93c0-.27,0-.35.74-.4h.13v-.35h-2.83v.34h.13c.74.05.74.13.74.4v6.43c0,.27,0,.35-.74.4h-.13v.35h2.83v-.34h-.13c-.74-.05-.74-.13-.74-.4v-3.03h3.94v3.03c0,.27,0,.35-.74.4h-.13v.35h2.83v-.34h-.13c-.74-.05-.74-.13-.74-.4v-6.43c0-.27,0-.35.74-.4Z"/>
      <path class="cls-6" d="M85.19,243.72c.19,0,.26,0,.48.37l1.44,2.31c.6.98,1.02,1.15,1.67,1.15.21,0,.51-.02.7-.04l.12-.02v-.33h-.13c-.44-.05-.82-.4-1.42-1.31l-1.53-2.29c.86-.25,1.86-.8,1.86-2,0-.9-.53-1.97-3.07-1.97h-2.54v.34h.13c.74.06.74.13.74.39v6.44c0,.27,0,.35-.74.4h-.13v.35h2.96v-.35h-.13c-.87-.05-.87-.14-.87-.4v-3.03h.46ZM85.24,243.28h-.51v-3.26h.4c.97,0,2.13.29,2.13,1.68,0,.98-.77,1.58-2.01,1.58Z"/>
      <path class="cls-6" d="M95.03,239.47c-2.32,0-4,1.75-4,4.16s1.62,3.97,3.86,3.97c2.35,0,4.06-1.75,4.06-4.16s-1.64-3.97-3.91-3.97ZM94.85,239.93c1.64,0,2.88,1.64,2.88,3.81,0,2.01-1.1,3.41-2.66,3.41s-2.84-1.64-2.84-3.81c0-2.01,1.08-3.41,2.62-3.41Z"/>
      <path class="cls-6" d="M109.23,243.44c0-2.3-1.64-3.97-3.91-3.97s-4,1.75-4,4.16,1.62,3.97,3.86,3.97c2.35,0,4.06-1.75,4.06-4.16ZM105.15,239.93c1.64,0,2.88,1.64,2.88,3.81,0,2.01-1.09,3.41-2.66,3.41s-2.84-1.64-2.84-3.81c0-2.01,1.08-3.41,2.62-3.41Z"/>
      <path class="cls-6" d="M112.7,246.2l.12-5.4,2.49,6.61.03.09h.33l2.53-6.7.12,5.95c0,.28-.02.35-.73.39h-.13v.35h2.82v-.34h-.13c-.72-.05-.72-.13-.73-.41l-.13-6.43c0-.28.02-.35.73-.39h.13v-.35h-2.14l-.02.12c-.03.2-.17.64-.39,1.24l-1.78,4.79-1.86-5c-.16-.4-.28-.76-.38-1.05l-.03-.1h-2.27v.34h.13c.76.07.91.15.9.86l-.13,5.42c0,.73-.17.89-.9.95h-.13v.35h2.73v-.34h-.13c-.9-.07-1.07-.23-1.06-.96Z"/>
      <path class="cls-6" d="M131.48,245.25c0-.97-.59-1.7-1.8-2.21l-.62-.26c-1.17-.49-1.41-.99-1.41-1.58,0-.95.73-1.29,1.35-1.29.81,0,1.47.62,1.86,1.75l.03.09h.33l-.22-2.13v-.04h-.33l-.02.11c-.03.13-.04.15-.05.15-.04,0-.16-.05-.27-.09-.29-.11-.73-.28-1.33-.28-1.26,0-2.22.95-2.22,2.21,0,.93.59,1.65,1.74,2.14l.62.26c1.01.42,1.46.92,1.46,1.61,0,.89-.66,1.47-1.68,1.47s-1.69-.64-2.14-1.96l-.03-.09h-.34l.26,2.27.02.12h.32l.02-.11c.03-.13.05-.15.06-.15.04,0,.17.04.29.08.34.11.86.28,1.54.28,1.45,0,2.54-1.01,2.54-2.35Z"/>
      <path class="cls-6" d="M138.55,239.92h.13c.91.07,1.1.23,1.1.96v3.73c0,1.59-.72,2.4-2.13,2.4s-2.08-.84-2.08-2.42v-4.26c0-.27,0-.35.74-.4h.13v-.35h-2.83v.34h.13c.74.05.74.13.74.4v4.33c0,1.93.99,2.95,2.86,2.95s2.93-1.04,2.93-3v-3.73c0-.71.17-.89.9-.95h.13v-.35h-2.76v.34Z"/>
      <path class="cls-6" d="M143.17,239.92h.13c.77.05.77.13.77.4v6.43c0,.27,0,.35-.77.4h-.13v.35h2.9v-.34h-.13c-.77-.05-.77-.13-.77-.4v-6.43c0-.27,0-.35.77-.4h.13v-.35h-2.9v.34Z"/>
      <path class="cls-6" d="M154.48,239.49l-.14.03c-.19.04-.55.06-.98.06h-3.86c-.44,0-.8-.02-.99-.06l-.14-.03-.42,2.1h.34l.03-.09c.53-1.3.87-1.48,1.93-1.48h.63v6.73c0,.27,0,.35-.74.4h-.13v.35h2.83v-.34h-.13c-.74-.05-.74-.13-.74-.4v-6.73h.63c1.06,0,1.4.17,1.93,1.48l.03.09h.35l-.4-1.96-.03-.14Z"/>
      <path class="cls-6" d="M162.67,245.46c-.7,1.35-1.17,1.59-2.11,1.59h-1.46c-.24,0-.33-.08-.33-.29v-3.05h1.3c.86,0,1.03.27,1.2,1.21l.02.12h.33v-3.05h-.33l-.02.12c-.16.89-.35,1.17-1.2,1.17h-1.3v-3.24h1.53c1.1,0,1.47.28,1.96,1.48l.03.09h.35l-.38-1.9-.02-.11h-5.43v.34h.13c.74.05.74.13.74.4v6.43c0,.27,0,.35-.74.4h-.13v.35h5.61l.64-2.12h-.35l-.04.08Z"/>
      <path class="cls-6" d="M173.67,245.61l-.04.07c-.42.77-.51.87-1.56.87h-1.85l.39-.4c1.5-1.45,2.96-3,2.96-4.64,0-1.19-.87-2.05-2.07-2.05-1.36,0-2.3.93-2.47,2.43l-.02.15h.34l.03-.1c.3-1.05.93-1.63,1.77-1.63s1.38.62,1.38,1.52c0,1.4-1.16,2.82-2.29,4.02l-1.28,1.36v.27h4.38l.65-1.82.02-.07h-.37Z"/>
      <path class="cls-6" d="M56.06,269.95l.06-.13-.36-.14-.06.11c-.62,1.23-1.64,1.93-2.8,1.93-1.83,0-3.05-1.46-3.05-3.64,0-1.94,1.2-3.36,2.85-3.36,1.32,0,2.33.75,2.84,2.12l.03.09h.33l-.28-2.44-.02-.12h-.33l-.02.12c-.04.34-.11.34-.13.34-.04,0-.14-.05-.25-.09h-.02c-.37-.17-1.05-.48-2.16-.48-2.27,0-4.06,1.84-4.06,4.18s1.59,3.95,3.79,3.95c1.6,0,2.92-.89,3.62-2.44Z"/>
      <path class="cls-6" d="M60.9,264.72h.13v-.35h-2.9v.34h.13c.77.05.77.13.77.4v6.42c0,.27,0,.35-.77.4h-.13v.35h2.9v-.34h-.13c-.77-.05-.77-.13-.77-.4v-6.42c0-.27,0-.35.77-.4Z"/>
      <path class="cls-6" d="M66.11,271.94h-.13c-.87-.05-.87-.14-.87-.4v-3.03h.46c.19,0,.26,0,.48.37l1.44,2.31c.6.98,1.02,1.15,1.67,1.15.22,0,.53-.02.7-.04l.12-.02v-.33h-.13c-.44-.05-.82-.4-1.42-1.31l-1.53-2.29c.86-.25,1.86-.8,1.86-2.01,0-.9-.53-1.97-3.07-1.97h-2.54v.34h.13c.74.06.74.13.74.39v6.43c0,.27,0,.35-.74.4h-.13v.35h2.96v-.35ZM65.63,268.07h-.51v-3.26h.4c.97,0,2.13.29,2.13,1.68,0,.98-.77,1.58-2.01,1.58Z"/>
      <path class="cls-6" d="M75.19,272.39c1.6,0,2.92-.89,3.62-2.44l.06-.13-.36-.14-.06.11c-.62,1.23-1.64,1.93-2.8,1.93-1.83,0-3.05-1.46-3.05-3.64,0-1.94,1.2-3.36,2.85-3.36,1.32,0,2.33.75,2.84,2.12l.03.09h.33l-.28-2.44-.02-.12h-.33l-.02.12c-.04.34-.11.34-.13.34-.04,0-.14-.05-.25-.09h-.02c-.37-.17-1.05-.48-2.16-.48-2.27,0-4.06,1.84-4.06,4.18s1.59,3.95,3.79,3.95Z"/>
      <path class="cls-6" d="M84.53,272.39c1.92,0,2.93-1.04,2.93-3v-3.73c0-.71.17-.89.9-.95h.13v-.35h-2.76v.34h.13c.91.07,1.1.23,1.1.96v3.73c0,1.59-.72,2.4-2.13,2.4s-2.08-.84-2.08-2.42v-4.26c0-.27,0-.35.74-.4h.13v-.35h-2.83v.34h.13c.74.05.74.13.74.4v4.32c0,1.93.99,2.95,2.86,2.95Z"/>
      <path class="cls-6" d="M96.34,270.21l.02-.06h-.35l-.04.08c-.66,1.27-1.12,1.62-2.13,1.62h-1.16c-.25,0-.33-.07-.33-.29v-6.43c0-.27,0-.35.74-.4h.13v-.35h-2.83v.34h.13c.74.05.74.13.74.4v6.42c0,.26,0,.35-.74.4h-.13v.35h5.32l.62-2.07Z"/>
      <path class="cls-6" d="M102.67,271.93h-.13v.35h2.89v-.34h-.13c-.61-.07-.7-.16-1-.97l-2-5.51c-.25-.69-.3-.84-.38-1.2l-.03-.11h-.24l-.04.05c-.15.19-.45.33-.67.38l-.16.04.23.58-2.04,5.66c-.31.82-.62,1.01-1.05,1.07l-.12.02v.34h2.5v-.34h-.13c-.41-.04-.66-.12-.76-.26-.08-.12-.07-.34.05-.66l.62-1.73h2.47l.76,2.13c.07.21.09.32.06.37-.08.12-.54.14-.68.14ZM102.36,268.81h-2.12l1.06-2.97,1.06,2.97Z"/>
      <path class="cls-6" d="M112.35,264.28l-.14.03c-.2.04-.55.06-.98.06h-3.86c-.43,0-.8-.02-.99-.06l-.14-.03-.42,2.1h.34l.03-.09c.53-1.3.87-1.48,1.93-1.48h.63v6.73c0,.27,0,.35-.74.4h-.13v.35h2.83v-.34h-.13c-.74-.05-.74-.13-.74-.4v-6.73h.63c1.06,0,1.4.17,1.93,1.48l.03.09h.35l-.42-2.05v-.05Z"/>
      <path class="cls-6" d="M117.55,271.94h-.13c-.77-.05-.77-.13-.77-.4v-6.42c0-.27,0-.35.77-.4h.13v-.35h-2.9v.34h.13c.77.05.77.13.77.4v6.42c0,.27,0,.35-.77.4h-.13v.35h2.9v-.34Z"/>
      <path class="cls-6" d="M123.63,264.26c-2.32,0-4,1.75-4,4.16s1.62,3.97,3.86,3.97c2.35,0,4.06-1.75,4.06-4.16s-1.64-3.97-3.91-3.97ZM123.45,264.72c1.64,0,2.88,1.64,2.88,3.81,0,2.01-1.1,3.41-2.66,3.41s-2.84-1.64-2.84-3.81c0-2.01,1.08-3.41,2.62-3.41Z"/>
      <path class="cls-6" d="M134.43,264.71h.13c1.06.07,1.2.26,1.2.96v4.63l-4.23-5.87-.04-.06h-1.96v.34h.13c.73.07.9.25.9.96v5.31c0,.71-.17.89-.9.95h-.13v.35h2.86v-.34h-.13c-1.05-.07-1.19-.25-1.19-.96v-5.31l4.87,6.67.04.06h.29v-6.72c0-.71.17-.89.9-.95h.13v-.35h-2.86v.34Z"/>
      <path class="cls-6" d="M48.95,296.72h-.13v.35h2.73c1.87,0,3.12-.93,3.12-2.31s-1.04-1.82-1.77-2c.54-.22,1.29-.71,1.29-1.72,0-1.2-1-1.89-2.74-1.89h-2.63v.34h.13c.74.05.74.13.74.4v6.42c0,.27,0,.35-.74.4ZM50.78,293.07h.65c1.32,0,2.11.67,2.11,1.79s-.76,1.76-2.04,1.76c-.71,0-.71-.09-.71-.33v-3.22ZM50.78,292.62v-3.03h.58c1.12,0,1.77.57,1.77,1.56,0,.93-.66,1.47-1.81,1.47h-.53Z"/>
      <path class="cls-6" d="M58.64,296.73h-.13c-.41-.04-.66-.12-.75-.26-.08-.13-.07-.34.05-.66l.62-1.73h2.47l.76,2.13c.07.2.09.32.06.38-.08.12-.54.14-.68.14h-.13v.35h2.89v-.34h-.13c-.61-.07-.7-.16-1-.97l-2.01-5.51c-.26-.71-.3-.85-.38-1.2l-.03-.11h-.24l-.04.05c-.15.19-.45.33-.67.38l-.16.04.23.58-2.04,5.66c-.31.82-.62,1.01-1.05,1.07l-.12.02v.34h2.49v-.34ZM58.6,293.6l1.06-2.97,1.06,2.97h-2.12Z"/>
      <path class="cls-6" d="M71.48,295l.02-.06h-.35l-.04.08c-.66,1.27-1.12,1.62-2.13,1.62h-1.16c-.25,0-.33-.07-.33-.29v-6.43c0-.27,0-.35.74-.4h.13v-.35h-2.83v.34h.13c.74.05.74.13.74.4v6.42c0,.26,0,.35-.74.4h-.13v.35h5.33l.62-2.07Z"/>
      <path class="cls-6" d="M77.07,297.18c1.6,0,2.92-.89,3.62-2.44l.06-.13-.36-.14-.06.11c-.62,1.23-1.64,1.93-2.8,1.93-1.83,0-3.05-1.46-3.05-3.64,0-1.94,1.2-3.36,2.85-3.36,1.32,0,2.33.75,2.84,2.12l.03.09h.33l-.28-2.44-.02-.12h-.33l-.02.12c-.04.34-.11.34-.13.34-.04,0-.14-.05-.25-.09h-.02c-.37-.17-1.05-.48-2.16-.48-2.27,0-4.06,1.84-4.06,4.18s1.59,3.95,3.79,3.95Z"/>
      <path class="cls-6" d="M86.7,297.18c2.35,0,4.06-1.75,4.06-4.16s-1.64-3.97-3.91-3.97-4,1.75-4,4.16,1.62,3.97,3.86,3.97ZM89.56,293.31c0,2.01-1.09,3.41-2.66,3.41s-2.84-1.64-2.84-3.81c0-2.01,1.08-3.41,2.62-3.41,1.64,0,2.88,1.64,2.88,3.81Z"/>
      <path class="cls-6" d="M99.16,297.12l.04.06h.28v-6.72c0-.71.17-.89.9-.95h.13v-.35h-2.86v.34h.13c1.06.07,1.2.26,1.2.96v4.63l-4.23-5.87-.04-.06h-1.96v.34h.13c.73.07.9.25.9.96v5.31c0,.71-.17.89-.9.95h-.13v.35h2.86v-.34h-.13c-1.05-.07-1.19-.25-1.19-.96v-5.31l4.87,6.67Z"/>
      <path class="cls-6" d="M103.6,290.52l1.81,3.31v2.49c0,.27,0,.35-.74.4h-.13v.35h2.83v-.34h-.13c-.74-.05-.74-.13-.74-.4v-2.59l1.73-3.11c.49-.9.81-1.07,1.34-1.12h.12v-.35h-2.63v.34h.13c.42.04.67.12.74.25.06.12,0,.33-.17.66l-1.49,2.72-1.69-3.09c-.06-.1-.19-.34-.16-.4.01-.02.09-.09.57-.11h.13v-.35h-2.9v.34h.13c.61.07.81.18,1.25,1.03Z"/>
      <path class="cls-6" d="M115.29,296.72h-.13v.35h3.05v-.34h-.13c-.81-.05-.81-.13-.81-.4v-7.28h-.28l-.04.04c-.41.44-1,.71-1.65.76h-.13v.35h.14c.32.01.63.04.92.08v6.04c0,.26,0,.35-.93.4Z"/>
      <path class="cls-6" d="M54.67,319.54c0-1.33-1.04-1.82-1.77-2,.54-.22,1.29-.71,1.29-1.72,0-1.2-1-1.89-2.74-1.89h-2.63v.34h.13c.74.05.74.13.74.4v6.43c0,.27,0,.35-.74.4h-.13v.35h2.73c1.87,0,3.12-.93,3.12-2.31ZM50.78,317.86h.65c1.32,0,2.11.67,2.11,1.79s-.76,1.76-2.04,1.76c-.71,0-.71-.09-.71-.33v-3.22ZM50.78,317.41v-3.03h.57c1.13,0,1.77.57,1.77,1.56,0,.93-.66,1.47-1.81,1.47h-.53Z"/>
      <path class="cls-6" d="M61.03,321.5h-.13v.35h2.89v-.34h-.13c-.61-.07-.7-.16-1-.97l-2-5.51c-.25-.67-.3-.84-.38-1.2l-.03-.11h-.24l-.04.05c-.15.19-.45.33-.67.38l-.16.04.23.58-2.04,5.66c-.31.82-.62,1.01-1.05,1.07l-.12.02v.34h2.5v-.34h-.13c-.41-.04-.66-.12-.76-.26-.08-.12-.07-.34.05-.66l.62-1.73h2.47l.76,2.13c.07.21.09.32.06.37-.08.12-.54.14-.68.14ZM60.72,318.39h-2.12l1.06-2.97,1.06,2.97Z"/>
      <path class="cls-6" d="M71.48,319.78l.02-.06h-.35l-.04.08c-.66,1.27-1.12,1.62-2.13,1.62h-1.16c-.25,0-.33-.07-.33-.29v-6.44c0-.27,0-.35.74-.4h.13v-.35h-2.83v.34h.13c.74.05.74.13.74.4v6.43c0,.26,0,.35-.74.4h-.13v.35h5.32l.62-2.07Z"/>
      <path class="cls-6" d="M77.07,321.96c1.6,0,2.92-.89,3.62-2.44l.06-.13-.36-.14-.06.11c-.62,1.23-1.64,1.93-2.8,1.93-1.83,0-3.05-1.46-3.05-3.64,0-1.94,1.2-3.36,2.85-3.36,1.32,0,2.33.75,2.84,2.12l.03.09h.33l-.28-2.44-.02-.12h-.33l-.02.12c-.04.34-.11.34-.13.34-.04,0-.15-.05-.27-.1-.37-.16-1.05-.47-2.16-.47-2.27,0-4.06,1.84-4.06,4.18s1.59,3.95,3.79,3.95Z"/>
      <path class="cls-6" d="M86.85,313.83c-2.32,0-4,1.75-4,4.16s1.62,3.97,3.86,3.97c2.35,0,4.06-1.75,4.06-4.16s-1.64-3.97-3.91-3.97ZM86.67,314.29c1.64,0,2.88,1.64,2.88,3.81,0,2.01-1.1,3.41-2.66,3.41s-2.84-1.64-2.84-3.81c0-2.01,1.08-3.41,2.62-3.41Z"/>
      <path class="cls-6" d="M99.16,321.9l.04.06h.29v-6.72c0-.71.17-.89.9-.95h.13v-.35h-2.86v.34h.13c1.06.07,1.2.26,1.2.96v4.63l-4.23-5.87-.04-.06h-1.96v.34h.13c.73.07.9.25.9.96v5.31c0,.71-.17.89-.9.95h-.13v.35h2.86v-.34h-.13c-1.05-.07-1.19-.25-1.19-.96v-5.31l4.87,6.67Z"/>
      <path class="cls-6" d="M107.06,314.28h.13c.42.04.67.12.74.25.07.12,0,.33-.17.66l-1.49,2.72-1.69-3.09c-.05-.08-.19-.34-.16-.4.01-.02.09-.09.57-.11h.13v-.35h-2.9v.34h.13c.61.07.81.18,1.26,1.03l1.81,3.31v2.49c0,.27,0,.35-.74.4h-.13v.35h2.83v-.34h-.13c-.74-.05-.74-.13-.74-.4v-2.59l1.73-3.11c.49-.9.81-1.07,1.34-1.12h.12v-.35h-2.63v.34Z"/>
      <path class="cls-6" d="M119.79,320.04c-.42.77-.51.87-1.56.87h-1.85l.39-.4c1.5-1.45,2.96-3,2.96-4.64,0-1.19-.87-2.05-2.07-2.05-1.36,0-2.3.93-2.47,2.43l-.02.15h.34l.03-.1c.3-1.05.93-1.63,1.77-1.63s1.38.62,1.38,1.52c0,1.4-1.16,2.82-2.29,4.02l-1.28,1.36v.27h4.38l.65-1.82.02-.07h-.37l-.04.07Z"/>
      <path class="cls-6" d="M19.72,392.83c1.04-1.02,1.25-1.67,1.25-2.39,0-1.28-.97-2.07-2.54-2.07-1.15,0-2.11.39-2.71,1.09h-.01s.58.52.58.52v-.02c.5-.56,1.18-.84,2.07-.84,1.12,0,1.76.51,1.76,1.4,0,.53-.17,1.03-1.01,1.86l-3.16,3.09h0v.59h5.37v-.73h-4.15l2.55-2.5Z"/>
      <path class="cls-6" d="M28.64,388.43h-2.86v7.63h.84v-2.4h2.02c.95,0,1.74-.24,2.29-.69.55-.46.83-1.12.83-1.92,0-1.64-1.17-2.62-3.12-2.62ZM30.92,391.06c0,1.2-.82,1.87-2.3,1.87h-2v-3.76h2c1.48,0,2.3.67,2.3,1.89Z"/>
      <path class="cls-6" d="M34.99,392.81c-.83,0-2.22.21-2.22,1.64,0,1.02.83,1.68,2.1,1.68.88,0,1.57-.32,1.94-.89v.84h.78v-3.56c0-1.46-.81-2.23-2.33-2.23-.9,0-1.75.28-2.33.77h-.01s.36.6.36.6v.02s.03-.02.03-.02c.48-.42,1.17-.67,1.88-.67,1.04,0,1.6.51,1.6,1.49v.33h-1.79ZM35.01,393.42h1.77v.91c-.3.74-.94,1.14-1.79,1.14s-1.42-.39-1.42-1.05.47-1,1.44-1ZM34.03,393.59s.08-.03.12-.05c-.04.02-.08.03-.12.05ZM33.56,394.27s.02-.1.03-.14c-.01.05-.02.09-.03.14ZM33.69,393.88c.03-.05.08-.1.12-.14-.05.04-.09.09-.12.14Z"/>
      <path class="cls-6" d="M40.42,391.38v-1.05h-.78v5.75h.81v-2.93c0-1.33.69-2.09,1.9-2.09.02,0,.05,0,.08,0,.03,0,.07,0,.1,0h.02v-.79h-.02c-1.01,0-1.74.38-2.12,1.1Z"/>
      <polygon class="cls-6" points="44.72 394.43 46.04 393.21 48.33 396.06 48.34 396.07 49.33 396.07 46.65 392.68 49.08 390.36 49.11 390.32 48.1 390.32 44.72 393.41 44.72 387.98 43.91 387.98 43.91 396.07 44.72 396.07 44.72 394.43"/>
      <path class="cls-6" d="M51.34,388.53c0-.3-.26-.55-.58-.55s-.58.25-.58.56.26.57.58.57.58-.25.58-.58Z"/>
      <rect class="cls-6" x="50.35" y="390.32" width=".81" height="5.75"/>
      <path class="cls-6" d="M54.08,393.06c0-1.28.74-2.04,1.98-2.04,1.09,0,1.69.64,1.69,1.8v3.25h.81v-3.33c0-1.56-.86-2.46-2.36-2.46-.96,0-1.72.37-2.15,1.04v-1h-.78v5.75h.81v-3.01Z"/>
      <path class="cls-6" d="M65.96,395.35v-5.03h-.78v1.05c-.48-.71-1.27-1.09-2.24-1.09-1.67,0-2.88,1.17-2.88,2.78s1.21,2.8,2.88,2.8c.93,0,1.73-.39,2.2-1.06v.66c0,1.4-.66,2.05-2.08,2.05-.87,0-1.68-.28-2.23-.78l-.02-.02-.4.61h0s.01.03.01.03c.58.55,1.58.88,2.67.88,1.93,0,2.87-.94,2.87-2.87ZM65.17,393.06c0,1.22-.88,2.07-2.15,2.07s-2.14-.85-2.14-2.07.88-2.06,2.14-2.06,2.15.85,2.15,2.06Z"/>
      <path class="cls-6" d="M76.05,394.04c0-1.5-1.38-1.83-2.6-2.13-1.07-.26-2.08-.51-2.08-1.46,0-.32.14-1.36,1.99-1.36.71,0,1.46.23,2.07.63h.02s.28-.65.28-.65h0s-.01-.02-.01-.02c-.61-.42-1.49-.68-2.37-.68-2.08,0-2.82,1.09-2.82,2.1,0,1.53,1.39,1.86,2.61,2.16,1.06.26,2.06.5,2.06,1.45,0,.83-.75,1.33-2.02,1.33-.95,0-1.92-.36-2.49-.92l-.02-.02-.33.64h0s0,.02,0,.02c.57.59,1.71.99,2.84.99,2.1,0,2.85-1.08,2.85-2.09Z"/>
      <path class="cls-6" d="M77.8,395.33c.04.07.08.14.12.2.07.1.15.18.25.25.06.05.13.09.2.13.11.06.24.1.37.14.07.02.15.03.23.04.08,0,.15.04.24.04.23,0,.48-.04.7-.12h.01s-.06-.66-.06-.66v-.03s-.03.01-.03.01c-.1.05-.29.1-.51.1-.62,0-.93-.34-.93-1.02v-6.42h-.81v6.49c0,.09.03.15.04.24,0,.09.02.17.04.25.03.14.07.27.13.38Z"/>
      <path class="cls-6" d="M83.19,390.28c-1.7,0-2.93,1.23-2.93,2.92s1.23,2.93,2.93,2.93,2.92-1.23,2.92-2.93-1.23-2.92-2.92-2.92ZM85.29,393.2c0,1.3-.86,2.21-2.1,2.21s-2.11-.91-2.11-2.21.87-2.2,2.11-2.2,2.1.91,2.1,2.2Z"/>
      <path class="cls-6" d="M89.47,396.12c.48,0,.93-.15,1.22-.41h.01s-.28-.58-.28-.58v-.02s-.03.02-.03.02c-.2.18-.51.29-.83.29-.62,0-.97-.36-.97-1.02v-3.39h1.74v-.69h-1.74v-1.25h-.81v1.25h-1.02v.69h1.02v3.43c0,1.07.62,1.68,1.69,1.68Z"/>
      <path class="cls-6" d="M95.97,394.48c0-1.21-1.12-1.41-2.11-1.59-.82-.15-1.59-.29-1.59-.98,0-.59.54-.92,1.47-.92.64,0,1.21.17,1.67.49h.02s.35-.63.35-.63v-.02s0,0,0,0c-.48-.33-1.27-.53-2.03-.53-1.38,0-2.28.65-2.28,1.65,0,1.26,1.14,1.47,2.15,1.65.83.15,1.55.28,1.55.92,0,.61-.51.91-1.51.91-.73,0-1.53-.25-2.02-.64h-.02s-.36.61-.36.61h0s.01.03.01.03c.49.42,1.43.71,2.33.71,1.46,0,2.37-.63,2.37-1.65Z"/>
      <polygon class="cls-6" points="16.63 413.81 16.62 413.81 16.83 414.54 18.26 414.1 18.26 420.85 19.15 420.85 19.15 413.16 18.5 413.16 16.63 413.81"/>
      <path class="cls-6" d="M28.63,416.7c-1.07-.26-2.08-.51-2.08-1.46,0-.32.14-1.36,1.99-1.36.71,0,1.46.23,2.07.63h.02s.28-.65.28-.65h0s-.01-.02-.01-.02c-.61-.42-1.49-.68-2.37-.68-2.08,0-2.82,1.09-2.82,2.1,0,1.53,1.39,1.86,2.61,2.16,1.06.26,2.06.5,2.06,1.45,0,.83-.75,1.33-2.02,1.33-.95,0-1.92-.36-2.49-.92l-.02-.02-.33.64h0s0,.02,0,.02c.57.59,1.71.99,2.84.99,2.1,0,2.85-1.08,2.85-2.09,0-1.5-1.38-1.83-2.6-2.13Z"/>
      <path class="cls-6" d="M35.54,419.9l-.02.02c-.2.18-.51.29-.83.29-.62,0-.97-.36-.97-1.02v-3.39h1.74v-.69h-1.74v-1.25h-.81v1.25h-1.02v.69h1.02v3.43c0,1.07.62,1.68,1.69,1.68.48,0,.93-.15,1.22-.41h.01s-.28-.58-.28-.58v-.02Z"/>
      <path class="cls-6" d="M39.33,415.06c-1.7,0-2.93,1.23-2.93,2.92s1.23,2.93,2.93,2.93,2.92-1.23,2.92-2.93-1.23-2.92-2.92-2.92ZM41.43,417.98c0,1.3-.86,2.21-2.1,2.21s-2.11-.91-2.11-2.21.87-2.2,2.11-2.2,2.1.91,2.1,2.2Z"/>
      <path class="cls-6" d="M44.56,416.16v-1.05h-.78v5.75h.81v-2.93c0-1.33.69-2.09,1.9-2.09.03,0,.05,0,.08,0,.03,0,.07,0,.1,0h.02v-.79h-.02c-1.01,0-1.74.38-2.12,1.1Z"/>
      <path class="cls-6" d="M50.05,415.06c-.9,0-1.75.28-2.33.77h-.01s.36.6.36.6v.02s.03-.02.03-.02c.48-.42,1.17-.67,1.88-.67,1.04,0,1.6.51,1.6,1.49v.33h-1.79c-.83,0-2.22.21-2.22,1.64,0,1.02.83,1.68,2.1,1.68.88,0,1.57-.32,1.94-.89v.84h.78v-3.56c0-1.46-.81-2.23-2.33-2.23ZM49.8,418.21h1.77v.91c-.3.74-.94,1.14-1.79,1.14s-1.42-.39-1.42-1.05.47-1,1.44-1ZM48.82,418.37s.08-.03.12-.05c-.04.02-.08.03-.12.05ZM48.35,419.05s.02-.1.03-.14c-.01.05-.02.09-.03.14ZM48.49,418.67c.03-.05.08-.1.12-.14-.05.04-.09.09-.12.14Z"/>
      <path class="cls-6" d="M59.01,416.16c-.48-.71-1.27-1.09-2.24-1.09-1.67,0-2.88,1.17-2.88,2.78s1.21,2.8,2.88,2.8c.93,0,1.73-.39,2.2-1.06v.66c0,1.4-.66,2.05-2.08,2.05-.87,0-1.68-.28-2.23-.78l-.02-.02-.4.61h0s.01.03.01.03c.58.55,1.58.88,2.67.88,1.93,0,2.87-.94,2.87-2.87v-5.03h-.78v1.05ZM59,417.84c0,1.22-.88,2.07-2.15,2.07s-2.14-.85-2.14-2.07.88-2.06,2.14-2.06,2.15.85,2.15,2.06Z"/>
      <path class="cls-6" d="M64.14,415.06c-1.63,0-2.81,1.23-2.81,2.92s1.24,2.93,3.01,2.93c.92,0,1.71-.33,2.22-.94h.01s-.45-.52-.45-.52v-.02s-.03.02-.03.02c-.42.49-1.02.74-1.73.74-1.24,0-2.13-.78-2.22-1.95h4.77v-.02s0-.09,0-.13c0-.04,0-.07,0-.1,0-1.72-1.15-2.92-2.79-2.92ZM62.14,417.63c.11-1.1.92-1.86,2-1.86s1.9.75,2.01,1.86h-4Z"/>
      <path class="cls-6" d="M77.45,415.84c0-1.64-1.17-2.62-3.12-2.62h-2.86v7.63h.84v-2.41h2.02c.21,0,.4,0,.6-.03l1.73,2.43h0s.93,0,.93,0l-1.86-2.61c1.11-.37,1.72-1.22,1.72-2.4ZM76.61,415.84c0,1.21-.82,1.88-2.3,1.88h-2v-3.77h2c1.48,0,2.3.67,2.3,1.89Z"/>
      <path class="cls-6" d="M81.5,415.06c-1.7,0-2.93,1.23-2.93,2.92s1.23,2.93,2.93,2.93,2.92-1.23,2.92-2.93-1.23-2.92-2.92-2.92ZM83.6,417.98c0,1.3-.86,2.21-2.1,2.21s-2.11-.91-2.11-2.21.87-2.2,2.11-2.2,2.1.91,2.1,2.2Z"/>
      <path class="cls-6" d="M88.31,415.06c-1.7,0-2.93,1.23-2.93,2.92s1.23,2.93,2.93,2.93,2.92-1.23,2.92-2.93-1.23-2.92-2.92-2.92ZM90.4,417.98c0,1.3-.86,2.21-2.1,2.21s-2.11-.91-2.11-2.21.87-2.2,2.11-2.2,2.1.91,2.1,2.2Z"/>
      <path class="cls-6" d="M99.9,415.06c-1,0-1.82.43-2.25,1.18-.35-.76-1.07-1.18-2.03-1.18s-1.65.37-2.07,1.03v-.99h-.78v5.75h.81v-3.01c0-1.26.72-2.04,1.89-2.04,1.05,0,1.63.64,1.63,1.8v3.25h.81v-3.01c0-1.28.71-2.04,1.89-2.04,1.04,0,1.62.64,1.62,1.8v3.25h.81v-3.33c0-1.56-.84-2.46-2.32-2.46Z"/>
    </g>
  </g>
  <g>
    <rect class="cls-2" x="11.3" y="32.56" width="286.46" height=".6"/>
    <rect class="cls-5" x="11.3" y="57.56" width="286.46" height=".15"/>
    <rect class="cls-5" x="11.3" y="82.33" width="286.46" height=".15"/>
    <rect class="cls-5" x="11.3" y="107.11" width="286.46" height=".15"/>
    <rect class="cls-5" x="11.3" y="131.88" width="286.46" height=".15"/>
    <rect class="cls-5" x="11.3" y="156.65" width="286.46" height=".15"/>
    <rect class="cls-5" x="11.3" y="181.43" width="286.46" height=".15"/>
    <rect class="cls-5" x="11.3" y="206.2" width="286.46" height=".15"/>
    <rect class="cls-5" x="11.3" y="230.97" width="286.46" height=".15"/>
    <rect class="cls-5" x="11.3" y="255.74" width="286.46" height=".15"/>
    <rect class="cls-5" x="11.3" y="280.52" width="286.46" height=".15"/>
    <rect class="cls-5" x="11.3" y="305.29" width="286.46" height=".15"/>
    <rect class="cls-2" x="11.3" y="329.84" width="286.46" height=".6"/>
    <rect class="cls-5" x="11.3" y="404.38" width="286.46" height=".15"/>
    <rect class="cls-5" x="11.3" y="354.83" width="286.46" height=".15"/>
    <rect class="cls-5" x="11.3" y="379.61" width="286.46" height=".15"/>
  </g>
  <g>
    <g>
      <path class="cls-4" d="M180.12,16.15h.12c.96.07,1.17.25,1.17,1.03v3.91c0,1.68-.76,2.54-2.25,2.54s-2.2-.88-2.2-2.56v-4.47c0-.31.03-.39.79-.44h.12v-.33h-2.92v.32h.12c.76.05.79.13.79.44v4.53c0,2.04,1,3.07,2.97,3.07s3.05-1.08,3.05-3.12v-3.91c0-.77.18-.96.96-1.02h.12v-.33h-2.85v.32Z"/>
      <path class="cls-4" d="M188.53,19.46l-.65-.28c-1.23-.52-1.49-1.05-1.49-1.68,0-.95.72-1.37,1.44-1.37.86,0,1.56.66,1.97,1.85l.03.08h.3l-.23-2.2v-.04h-.31l-.02.1c-.04.18-.06.18-.08.18-.05,0-.18-.05-.29-.09-.3-.12-.76-.29-1.38-.29-1.31,0-2.3.99-2.3,2.29,0,.96.61,1.71,1.81,2.23l.65.28c1.07.45,1.54.98,1.54,1.71,0,.95-.7,1.56-1.78,1.56s-1.79-.68-2.26-2.07l-.03-.08h-.32l.28,2.42v.04h.3l.02-.1c.04-.18.07-.18.09-.18.05,0,.16.04.29.08h.02c.36.12.9.3,1.61.3,1.51,0,2.64-1.05,2.64-2.45,0-1.01-.61-1.76-1.87-2.29Z"/>
      <path class="cls-4" d="M199.15,21.99c-.74,1.43-1.23,1.68-2.23,1.68h-1.53c-.27,0-.37-.09-.37-.33v-3.22h1.38c.92,0,1.1.29,1.27,1.28l.02.1h.31v-3.15h-.3l-.02.1c-.17.95-.37,1.24-1.27,1.24h-1.38v-3.44h1.62c1.17,0,1.55.29,2.07,1.56l.03.08h.33l-.39-1.96-.02-.1h-5.65v.32h.12c.76.05.79.13.79.44v6.73c0,.31-.03.39-.8.44h-.12v.33h5.84l.61-2.02.05-.16h-.32l-.03.07Z"/>
      <path class="cls-4" d="M207.3,15.83h-5.45v.32h.12c.76.05.79.13.79.44v6.73c0,.31-.03.39-.8.44h-.12v.33h3.19v-.32h-.12c-1.06-.05-1.06-.15-1.06-.45v-3.2h1.27c.91,0,1.11.3,1.27,1.28l.02.1h.31v-3.15h-.31l-.02.1c-.17.95-.37,1.24-1.27,1.24h-1.27v-3.44h1.43c1.17,0,1.56.29,2.07,1.56l.03.08h.33l-.39-1.96-.02-.1Z"/>
      <path class="cls-4" d="M215.1,16.15h.12c.96.07,1.17.25,1.17,1.03v3.91c0,1.68-.76,2.54-2.25,2.54s-2.2-.88-2.2-2.56v-4.47c0-.31.03-.39.79-.44h.12v-.33h-2.92v.32h.12c.76.05.79.13.79.44v4.53c0,2.04,1,3.07,2.97,3.07s3.05-1.08,3.05-3.12v-3.91c0-.77.18-.96.96-1.02h.12v-.33h-2.85v.32Z"/>
      <path class="cls-4" d="M226.04,21.96c-.7,1.34-1.18,1.7-2.25,1.7h-1.21c-.28,0-.37-.08-.37-.33v-6.74c0-.31.03-.39.8-.44h.12v-.33h-2.92v.32h.12c.76.05.79.13.79.44v6.73c0,.3-.03.39-.79.44h-.12v.33h5.54l.61-2.04.05-.16h-.32l-.03.07Z"/>
      <path class="cls-4" d="M238.73,22.75l-2.1-5.78c-.26-.71-.32-.88-.4-1.26l-.02-.1h-.23l-.04.05c-.16.2-.47.35-.71.41l-.14.03.23.6-2.14,5.94c-.33.87-.66,1.07-1.12,1.13h-.11v.33h2.57v-.32h-.12c-.45-.04-.71-.13-.81-.28-.09-.14-.08-.36.05-.71l.65-1.83h2.62l.81,2.25c.08.23.1.35.05.41-.06.09-.3.14-.73.16h-.12v.33h2.99v-.32h-.11c-.65-.07-.75-.17-1.07-1.03ZM236.75,20.5h-2.29l1.14-3.2,1.14,3.2Z"/>
      <path class="cls-4" d="M247.5,22.39l-1.62-2.43c.91-.26,1.96-.83,1.96-2.09,0-.93-.55-2.04-3.19-2.04h-2.64v.32h.12c.77.07.8.14.8.44v6.74c0,.31-.03.39-.79.44h-.12v.33h3.06v-.32h-.12c-.93-.05-.93-.14-.93-.44v-3.2h.5c.2,0,.29,0,.52.39l1.51,2.42c.62,1.01,1.05,1.19,1.73,1.19.22,0,.54-.02.73-.04h.11v-.32h-.11c-.47-.05-.87-.42-1.5-1.39ZM246.7,18.04c0,1.04-.82,1.68-2.13,1.68h-.56v-3.46h.44c1.47,0,2.25.62,2.25,1.78Z"/>
      <path class="cls-4" d="M257.2,21.99c-.74,1.43-1.23,1.68-2.23,1.68h-1.53c-.27,0-.37-.09-.37-.33v-3.22h1.38c.92,0,1.1.29,1.27,1.28l.02.1h.31v-3.15h-.3l-.02.1c-.17.95-.37,1.24-1.27,1.24h-1.38v-3.44h1.62c1.17,0,1.55.29,2.07,1.56l.03.08h.33l-.39-1.96-.02-.1h-5.65v.32h.12c.76.05.79.13.79.44v6.73c0,.31-.03.39-.8.44h-.12v.33h5.84l.61-2.02.05-.16h-.32l-.03.07Z"/>
      <path class="cls-4" d="M261.07,23.49c-.09-.14-.08-.36.05-.71l.65-1.83h2.62l.81,2.25c.08.23.1.35.05.41-.06.09-.3.14-.73.16h-.12v.33h2.99v-.32h-.11c-.65-.07-.75-.17-1.07-1.03l-2.1-5.78c-.26-.71-.32-.88-.4-1.26l-.02-.1h-.23l-.04.05c-.16.2-.47.35-.71.41l-.14.03.23.6-2.14,5.94c-.33.87-.66,1.07-1.12,1.13h-.11v.33h2.57v-.32h-.12c-.45-.04-.71-.13-.81-.28ZM264.23,20.5h-2.29l1.14-3.2,1.14,3.2Z"/>
      <path class="cls-4" d="M274.69,25.2h.62l-.06-.1c-.72-1.22-1.07-2.67-1.07-4.41s.35-3.19,1.07-4.41l.06-.1h-.62s-.01.03-.01.03c-.71,1.14-1.09,2.73-1.09,4.49s.38,3.3,1.09,4.49l.02.03Z"/>
      <path class="cls-4" d="M280.4,20.43v2.93h.61v-2.71c0-1.15.67-1.86,1.75-1.86.95,0,1.48.58,1.48,1.64v2.93h.61v-2.97c0-1.38-.75-2.17-2.05-2.17-.88,0-1.62.41-2,1.09-.3-.71-.94-1.09-1.82-1.09-.8,0-1.46.33-1.83.9v-.86h-.59v5.1h.61v-2.71c0-1.15.67-1.86,1.75-1.86.95,0,1.48.58,1.48,1.64Z"/>
      <path class="cls-4" d="M285.89,20.47l-.03.03v.34h2.86v-.45h-2.11l1.26-1.25c.55-.54.66-.89.66-1.27,0-.68-.53-1.12-1.35-1.12-.6,0-1.09.2-1.41.57l-.06.08.35.31.07-.08c.25-.28.57-.42,1.04-.42.57,0,.88.25.88.69,0,.27-.09.52-.52.95l-1.64,1.63Z"/>
      <path class="cls-4" d="M289.18,25.2h.61l.02-.03c.72-1.18,1.1-2.73,1.1-4.49s-.39-3.35-1.11-4.5l-.02-.02h-.61l.06.1c.71,1.21,1.06,2.65,1.06,4.41s-.35,3.2-1.06,4.41l-.06.1Z"/>
      <polygon class="cls-4" points="258.75 339.37 258.98 340.16 260.4 339.72 260.4 346.47 261.34 346.47 261.34 338.71 260.67 338.71 258.75 339.37"/>
      <path class="cls-4" d="M265.77,341.66c-.46,0-.95.1-1.44.31l.15-2.3h3.63v-.89h-4.47l-.22,3.75v.03s.6.4.6.4l.02.02h.03c.53-.3,1.06-.44,1.57-.44.54,0,.99.15,1.33.43.34.29.51.66.51,1.11,0,.48-.17.88-.49,1.19-.33.31-.76.46-1.29.46-.71,0-1.42-.35-2.12-1.03l-.04-.04-.63.69.03.03c.81.81,1.73,1.22,2.75,1.22.8,0,1.47-.24,1.99-.71.51-.47.78-1.09.78-1.84s-.26-1.32-.76-1.75c-.5-.43-1.15-.65-1.92-.65Z"/>
      <path class="cls-4" d="M275.42,344.02c0-.71-.26-1.3-.78-1.74-.52-.44-1.16-.66-1.89-.66-.87,0-1.58.35-2.11,1.05.02-.91.22-1.67.6-2.25.39-.6.92-.9,1.57-.9.59,0,1.18.25,1.76.74l.04.03.53-.7.03-.04-.04-.03c-.71-.58-1.48-.88-2.28-.88-.98,0-1.77.4-2.35,1.19-.57.79-.86,1.79-.86,2.98,0,1.29.27,2.26.8,2.87.54.61,1.27.92,2.2.92.78,0,1.45-.25,1.98-.73.53-.49.8-1.11.8-1.85ZM274.44,344.03c0,.49-.17.9-.49,1.22-.32.32-.76.48-1.29.48s-1-.16-1.35-.48c-.35-.31-.53-.71-.53-1.18,0-.43.18-.82.52-1.14.35-.33.79-.49,1.33-.49s.96.15,1.3.45c.33.3.5.68.5,1.13Z"/>
      <rect class="cls-4" x="276.84" y="345.23" width="1.1" height="1.24"/>
      <path class="cls-4" d="M283.55,342.48c.81-.4,1.23-.99,1.23-1.74,0-.6-.26-1.1-.79-1.49-.52-.39-1.14-.58-1.86-.58s-1.34.2-1.86.58c-.52.39-.78.89-.78,1.47,0,.77.41,1.36,1.22,1.76-.43.17-.79.41-1.05.71-.29.33-.44.72-.44,1.16,0,.65.28,1.19.83,1.6.55.41,1.25.62,2.07.62s1.52-.21,2.07-.61c.55-.41.83-.95.83-1.6,0-.85-.5-1.48-1.49-1.88ZM283.34,341.75c-.32.25-.73.38-1.21.38s-.89-.13-1.21-.38c-.32-.25-.48-.57-.48-.96s.16-.68.47-.92c.32-.24.73-.36,1.21-.36s.89.12,1.21.36c.32.24.48.54.48.9,0,.4-.16.73-.48.98ZM280.74,343.34c.37-.27.84-.4,1.39-.4s1.01.13,1.38.4c.37.26.55.59.55,1s-.17.73-.52.99c-.35.27-.82.4-1.42.4s-1.07-.14-1.42-.4c-.34-.26-.52-.59-.52-.97,0-.41.18-.75.55-1.01Z"/>
      <polygon class="cls-4" points="286.85 346.47 287.91 346.47 291.38 339.48 291.38 338.77 286.13 338.77 286.13 339.65 290.28 339.65 286.88 346.39 286.85 346.47"/>
      <polygon class="cls-4" points="265.26 364.16 265.49 364.95 266.91 364.51 266.91 371.25 267.86 371.25 267.86 363.5 267.18 363.5 265.26 364.16"/>
      <polygon class="cls-4" points="269.14 364.16 269.38 364.95 270.8 364.51 270.8 371.25 271.74 371.25 271.74 363.5 271.06 363.5 269.14 364.16"/>
      <path class="cls-4" d="M278.02,367.47c-.46-.35-1.04-.56-1.72-.62l2.32-2.57h.01v-.71h-4.95v.87h3.65l-2.32,2.62-.02.02.18.54v.03h.54c.62,0,1.13.13,1.51.38.38.25.56.59.56,1.04s-.16.78-.46,1.05c-.31.27-.69.4-1.15.4-.85,0-1.58-.37-2.19-1.11l-.03-.04-.69.62.03.04c.7.91,1.67,1.38,2.87,1.38.73,0,1.34-.22,1.84-.66.5-.44.75-1,.75-1.68s-.25-1.21-.73-1.58Z"/>
      <rect class="cls-4" x="280.23" y="370.01" width="1.1" height="1.24"/>
      <polygon class="cls-4" points="281.8 364.16 282.03 364.95 283.45 364.51 283.45 371.25 284.4 371.25 284.4 363.5 283.72 363.5 281.8 364.16"/>
      <polygon class="cls-4" points="286.13 364.43 290.28 364.43 286.88 371.18 286.85 371.25 287.91 371.25 291.38 364.27 291.38 363.55 286.13 363.55 286.13 364.43"/>
    </g>
    <g>
      <path class="cls-1" d="M274.24,46.24c.91,0,1.62-.39,2.13-1.17v.03c0,.94-.21,1.72-.62,2.32-.41.6-.95.9-1.62.9-.62,0-1.25-.27-1.85-.81h-.02s-.51.67-.51.67h-.01s.01.03.01.03c.75.62,1.54.94,2.36.94.94,0,1.71-.39,2.29-1.16.59-.77.88-1.77.88-2.97,0-1.29-.27-2.25-.8-2.86-.53-.6-1.26-.91-2.16-.91-.8,0-1.46.25-1.98.75-.52.5-.78,1.12-.78,1.85s.25,1.28.74,1.72c.49.45,1.14.67,1.92.67ZM272.49,43.82c0-.49.17-.92.49-1.26.33-.34.77-.52,1.31-.52s1.02.17,1.38.49c.36.32.54.73.54,1.22,0,.46-.18.86-.52,1.2-.35.34-.8.52-1.35.52s-.99-.16-1.33-.46c-.34-.31-.52-.7-.52-1.18Z"/>
      <rect class="cls-1" x="278.64" y="47.83" width="1.04" height="1.18"/>
      <path class="cls-1" d="M284.14,49.14c.96,0,1.74-.39,2.34-1.15.59-.76.89-1.71.89-2.8s-.3-2.05-.88-2.81c-.59-.76-1.37-1.14-2.33-1.14s-1.75.39-2.34,1.15c-.6.76-.9,1.7-.9,2.8s.3,2.05.89,2.81c.59.76,1.38,1.14,2.33,1.14ZM281.85,45.19c0-.87.21-1.61.64-2.22.42-.6.98-.91,1.65-.91s1.24.31,1.66.92c.43.61.64,1.35.64,2.21s-.21,1.61-.63,2.22c-.42.6-.97.91-1.65.91s-1.24-.31-1.67-.92c-.43-.61-.65-1.36-.65-2.21Z"/>
      <polygon class="cls-1" points="289.95 42.25 289.95 49.01 290.83 49.01 290.83 41.32 290.18 41.32 288.32 41.96 288.3 41.97 288.52 42.7 289.95 42.25"/>
      <path class="cls-1" d="M268.78,73.92c.72,0,1.33-.22,1.82-.65.49-.43.74-.99.74-1.66s-.24-1.19-.72-1.55c-.47-.35-1.06-.56-1.77-.62l2.36-2.62h0v-.66h-4.89v.81h3.69l-2.37,2.67h0s.18.53.18.53h0s.5.01.5.01c.63,0,1.15.13,1.53.38.38.25.58.61.58,1.06s-.16.8-.47,1.07c-.31.27-.71.41-1.17.41-.86,0-1.6-.38-2.21-1.12v-.02s-.65.57-.65.57h-.01s.01.03.01.03c.69.91,1.65,1.37,2.85,1.37Z"/>
      <path class="cls-1" d="M277.88,66.81v-.66h-4.89v.81h3.69l-2.37,2.67h0s.18.53.18.53h0s.5.01.5.01c.63,0,1.15.13,1.53.38.38.25.58.61.58,1.06s-.16.8-.47,1.07c-.31.27-.71.41-1.17.41-.86,0-1.6-.38-2.21-1.12v-.02s-.65.57-.65.57h-.01s.01.03.01.03c.69.91,1.65,1.37,2.85,1.37.72,0,1.33-.22,1.82-.65.49-.43.74-.99.74-1.66s-.24-1.19-.72-1.55c-.47-.35-1.06-.56-1.77-.62l2.36-2.62h0Z"/>
      <rect class="cls-1" x="279.53" y="72.61" width="1.04" height="1.18"/>
      <path class="cls-1" d="M286.57,73.27c.49-.43.74-.99.74-1.66s-.24-1.19-.72-1.55c-.47-.35-1.06-.56-1.77-.62l2.36-2.62h0v-.66h-4.89v.81h3.69l-2.37,2.67h0s.18.53.18.53h0s.5.01.5.01c.63,0,1.15.13,1.53.38.38.25.58.61.58,1.06s-.16.8-.47,1.07c-.31.27-.71.41-1.17.41-.86,0-1.6-.38-2.21-1.12v-.02s-.65.57-.65.57h-.01s.01.03.01.03c.69.91,1.65,1.37,2.85,1.37.72,0,1.33-.22,1.82-.65Z"/>
      <polygon class="cls-1" points="289.95 67.04 289.95 73.79 290.83 73.79 290.83 66.1 290.18 66.1 288.32 66.74 288.3 66.75 288.52 67.48 289.95 67.04"/>
      <polygon class="cls-1" points="268.65 91.53 268.63 91.54 268.85 92.27 270.27 91.83 270.27 98.58 271.16 98.58 271.16 90.89 270.51 90.89 268.65 91.53"/>
      <path class="cls-1" d="M273.73,91.99c-.57.78-.85,1.78-.85,2.96,0,1.29.27,2.25.8,2.85s1.26.91,2.17.91c.78,0,1.43-.24,1.96-.72.52-.48.79-1.09.79-1.83s-.26-1.28-.77-1.72c-.51-.43-1.14-.66-1.87-.66-.89,0-1.61.38-2.14,1.12,0-.96.21-1.75.6-2.36.4-.61.94-.91,1.6-.91.59,0,1.19.25,1.78.75h.02s.51-.67.51-.67h.01s-.01-.03-.01-.03c-.71-.58-1.47-.87-2.26-.87-.97,0-1.75.4-2.32,1.18ZM273.96,96.23c0-.44.18-.83.53-1.16.35-.33.81-.5,1.35-.5s.98.15,1.32.46c.34.3.52.69.52,1.15,0,.5-.17.92-.5,1.24-.33.33-.77.49-1.32.49s-1.01-.16-1.37-.48c-.36-.32-.54-.72-.54-1.2Z"/>
      <rect class="cls-1" x="280.07" y="97.4" width="1.04" height="1.18"/>
      <polygon class="cls-1" points="284.18 98.58 284.18 90.89 283.53 90.89 281.67 91.53 281.65 91.54 281.87 92.27 283.3 91.83 283.3 98.58 284.18 98.58"/>
      <path class="cls-1" d="M291.07,91.6v-.66h-4.89v.81h3.69l-2.37,2.67h0s.18.53.18.53h0s.5.01.5.01c.63,0,1.14.13,1.53.38.38.25.58.61.58,1.06s-.16.8-.47,1.07c-.31.27-.71.41-1.17.41-.86,0-1.6-.38-2.21-1.12v-.02s-.65.57-.65.57h-.01s.01.03.01.03c.7.91,1.65,1.36,2.85,1.36.72,0,1.33-.22,1.82-.65s.74-.99.74-1.66-.24-1.19-.72-1.55c-.47-.35-1.06-.56-1.77-.62l2.36-2.62h0Z"/>
      <path class="cls-1" d="M274.33,116.39v-.66h-4.89v.81h3.69l-2.37,2.67h0s.18.53.18.53h0s.5.01.5.01c.63,0,1.15.13,1.53.38.38.25.58.61.58,1.06s-.16.8-.47,1.07c-.31.27-.71.41-1.17.41-.86,0-1.6-.38-2.21-1.12v-.02s-.65.57-.65.57h-.01s.01.03.01.03c.69.91,1.65,1.37,2.85,1.37.72,0,1.33-.22,1.82-.65.49-.43.74-.99.74-1.66s-.24-1.19-.72-1.55c-.47-.35-1.06-.56-1.77-.62l2.36-2.62h0Z"/>
      <rect class="cls-1" x="275.98" y="122.19" width="1.04" height="1.18"/>
      <path class="cls-1" d="M283.83,116.74c-.59-.76-1.37-1.14-2.33-1.14s-1.75.39-2.34,1.15c-.6.76-.9,1.71-.9,2.8s.3,2.05.89,2.81c.59.76,1.37,1.14,2.33,1.14s1.74-.39,2.34-1.15c.59-.76.89-1.7.89-2.8s-.3-2.05-.88-2.81ZM283.78,119.55c0,.87-.21,1.61-.63,2.22-.42.6-.97.91-1.65.91s-1.24-.31-1.67-.92c-.43-.61-.65-1.36-.65-2.21s.21-1.61.64-2.22c.42-.6.98-.91,1.65-.91s1.24.31,1.66.92c.43.61.64,1.36.64,2.21Z"/>
      <path class="cls-1" d="M288.64,122.67c-.86,0-1.6-.38-2.21-1.12v-.02s-.65.57-.65.57h-.01s.01.03.01.03c.69.91,1.65,1.37,2.85,1.37.72,0,1.33-.22,1.82-.65.49-.43.74-.99.74-1.66s-.24-1.19-.72-1.55c-.47-.35-1.06-.56-1.77-.62l2.36-2.62h0v-.66h-4.89v.81h3.69l-2.37,2.67h0s.18.53.18.53h0s.5.01.5.01c.63,0,1.15.13,1.53.38.38.25.58.61.58,1.06s-.16.8-.47,1.07c-.31.27-.71.41-1.17.41Z"/>
      <path class="cls-1" d="M268.11,145.71l.22.63h0s4,.01,4,.01v1.8h.86v-1.8h1.18v-.75h-1.18v-5.13h-.78l-4.3,5.24h0ZM269.21,145.59l3.13-3.84v3.84h-3.13Z"/>
      <rect class="cls-1" x="275.76" y="146.97" width="1.04" height="1.18"/>
      <path class="cls-1" d="M283.1,147.12c.59-.77.88-1.77.88-2.97,0-1.29-.27-2.25-.8-2.86-.53-.6-1.26-.91-2.16-.91-.8,0-1.46.25-1.98.75-.52.5-.78,1.12-.78,1.85s.25,1.28.74,1.72c.49.45,1.14.67,1.92.67.91,0,1.62-.39,2.13-1.17v.03c0,.94-.21,1.72-.62,2.32-.41.6-.95.9-1.62.9-.62,0-1.25-.27-1.85-.81h-.02s-.51.67-.51.67h-.01s.01.03.01.03c.75.62,1.54.94,2.36.94.94,0,1.71-.39,2.29-1.16ZM282.9,142.89c0,.46-.18.86-.52,1.2-.35.34-.8.52-1.35.52s-.99-.16-1.33-.46c-.34-.31-.52-.7-.52-1.18s.17-.92.49-1.26c.33-.34.77-.52,1.31-.52s1.02.17,1.38.49c.36.32.54.73.54,1.22Z"/>
      <path class="cls-1" d="M290.16,145.59v-5.13h-.78l-4.3,5.24h0s.22.64.22.64h0s4,.01,4,.01v1.8h.86v-1.8h1.18v-.75h-1.18ZM286.17,145.59l3.13-3.84v3.84h-3.13Z"/>
      <polygon class="cls-1" points="267.45 166.18 267.45 172.94 268.34 172.94 268.34 165.25 267.69 165.25 265.82 165.89 265.81 165.89 266.02 166.63 267.45 166.18"/>
      <path class="cls-1" d="M269.96,170.85c0,.64.28,1.17.82,1.58.54.41,1.23.61,2.05.61s1.51-.2,2.05-.61c.54-.4.82-.93.82-1.57,0-.85-.51-1.49-1.53-1.88.84-.4,1.27-.99,1.27-1.75,0-.59-.26-1.08-.77-1.47-.51-.38-1.13-.58-1.84-.58s-1.33.19-1.84.58c-.51.39-.77.87-.77,1.45,0,.77.43,1.37,1.27,1.77-.46.17-.83.42-1.1.73-.28.32-.43.71-.43,1.14ZM274.27,171.85c-.35.27-.84.41-1.44.41s-1.08-.14-1.44-.41c-.35-.27-.53-.6-.53-.99,0-.42.19-.77.56-1.04.37-.27.85-.41,1.41-.41s1.02.14,1.4.4c.38.27.57.61.57,1.02s-.18.75-.53,1.01ZM274.06,168.28c-.33.26-.74.39-1.22.39s-.9-.13-1.22-.39-.49-.59-.49-.98.16-.7.49-.95c.33-.25.74-.37,1.23-.37s.9.12,1.23.37c.33.25.49.56.49.92,0,.41-.17.75-.49,1Z"/>
      <rect class="cls-1" x="277.07" y="171.76" width="1.04" height="1.18"/>
      <path class="cls-1" d="M282.75,170.35c.72-.64,1.22-1.16,1.5-1.57.28-.41.43-.88.43-1.4,0-.63-.23-1.16-.67-1.57-.45-.41-1.02-.62-1.7-.62-.63,0-1.16.13-1.57.4-.41.26-.81.68-1.18,1.23v.02s.63.47.63.47h.02s.01,0,.01,0c.31-.44.63-.77.94-.98.31-.21.67-.31,1.08-.31s.78.13,1.07.4.44.61.44,1.04c0,.37-.12.73-.34,1.07s-.65.78-1.23,1.3l-2.76,2.43h0v.7h5.35v-.82h-3.99l1.99-1.77Z"/>
      <path class="cls-1" d="M288.67,169.81l-2.76,2.43h0v.7h5.35v-.82h-3.99l1.99-1.77c.72-.64,1.22-1.16,1.5-1.57.28-.41.43-.88.43-1.4,0-.63-.23-1.16-.67-1.57-.45-.41-1.02-.62-1.7-.62-.63,0-1.16.13-1.57.4-.41.26-.81.68-1.18,1.23v.02s.63.47.63.47h.02s.01,0,.01,0c.31-.44.63-.77.94-.98.31-.21.67-.31,1.08-.31s.78.13,1.07.4.44.61.44,1.04c0,.37-.12.73-.34,1.07s-.65.78-1.23,1.3Z"/>
      <path class="cls-1" d="M267.63,195.28l.22.63h0s4,.01,4,.01v1.8h.86v-1.8h1.18v-.75h-1.18v-5.13h-.78l-4.3,5.24h0ZM268.73,195.17l3.13-3.84v3.84h-3.13Z"/>
      <rect class="cls-1" x="275.29" y="196.54" width="1.04" height="1.18"/>
      <path class="cls-1" d="M282.63,196.69c.59-.77.88-1.77.88-2.97,0-1.29-.27-2.25-.8-2.86-.53-.6-1.26-.91-2.16-.91-.8,0-1.46.25-1.98.75-.52.5-.78,1.12-.78,1.85s.25,1.28.74,1.72c.49.45,1.14.67,1.92.67.91,0,1.62-.39,2.13-1.17v.03c0,.94-.21,1.72-.62,2.32-.41.6-.95.9-1.62.9-.62,0-1.25-.27-1.85-.81h-.02s-.51.67-.51.67h-.01s.01.03.01.03c.75.62,1.54.94,2.36.94.94,0,1.71-.39,2.29-1.16ZM282.43,192.46c0,.46-.18.86-.52,1.2-.35.34-.8.52-1.35.52s-.99-.16-1.33-.46c-.34-.31-.52-.7-.52-1.18s.17-.92.49-1.26c.33-.34.77-.52,1.31-.52s1.02.17,1.38.49c.36.32.54.73.54,1.22Z"/>
      <path class="cls-1" d="M284.8,193.9c0,1.11.3,2.05.89,2.81.59.76,1.38,1.14,2.33,1.14s1.74-.39,2.34-1.15c.59-.76.89-1.71.89-2.8s-.3-2.05-.88-2.81c-.59-.76-1.37-1.14-2.33-1.14s-1.75.39-2.34,1.15c-.6.76-.9,1.7-.9,2.8ZM285.73,193.9c0-.87.21-1.61.64-2.22.42-.6.98-.91,1.65-.91s1.24.31,1.66.92c.43.61.64,1.35.64,2.21s-.21,1.61-.63,2.22c-.42.6-.97.91-1.65.91s-1.24-.31-1.67-.92c-.43-.61-.65-1.36-.65-2.21Z"/>
      <polygon class="cls-1" points="267.85 222.51 267.85 214.82 267.2 214.82 265.34 215.46 265.32 215.46 265.54 216.2 266.96 215.75 266.96 222.51 267.85 222.51"/>
      <path class="cls-1" d="M272.7,215.56c.59,0,1.19.25,1.78.74h.02s.51-.67.51-.67h.01s-.01-.03-.01-.03c-.71-.58-1.47-.87-2.26-.87-.97,0-1.75.4-2.32,1.18-.57.78-.85,1.78-.85,2.96,0,1.29.27,2.25.8,2.85s1.26.91,2.17.91c.78,0,1.43-.24,1.96-.72.52-.48.79-1.09.79-1.83s-.26-1.28-.77-1.72c-.51-.43-1.14-.66-1.87-.66-.89,0-1.61.38-2.14,1.12,0-.96.21-1.76.6-2.36.4-.61.94-.91,1.6-.91ZM270.65,220.15c0-.44.18-.83.53-1.16.35-.33.81-.5,1.35-.5s.98.15,1.32.46c.34.3.52.69.52,1.15,0,.5-.17.92-.5,1.24-.33.33-.77.49-1.32.49s-1.01-.16-1.37-.48-.54-.72-.54-1.2Z"/>
      <rect class="cls-1" x="276.76" y="221.33" width="1.04" height="1.18"/>
      <path class="cls-1" d="M283.82,218.78c-.47-.35-1.06-.56-1.77-.62l2.36-2.62h0v-.66h-4.89v.81h3.69l-2.37,2.67h0s.18.53.18.53h0s.5.01.5.01c.63,0,1.14.13,1.53.38.38.25.58.61.58,1.06s-.16.8-.47,1.07c-.31.27-.71.41-1.17.41-.86,0-1.6-.38-2.21-1.12v-.02s-.65.57-.65.57h-.01s.01.03.01.03c.7.91,1.65,1.36,2.85,1.36.72,0,1.33-.22,1.82-.65s.74-.99.74-1.66-.24-1.19-.72-1.55Z"/>
      <path class="cls-1" d="M288.64,221.82c-.86,0-1.6-.38-2.21-1.12v-.02s-.65.57-.65.57h-.01s.01.03.01.03c.7.91,1.65,1.36,2.85,1.36.72,0,1.33-.22,1.82-.65s.74-.99.74-1.66-.24-1.19-.72-1.55c-.47-.35-1.06-.56-1.77-.62l2.36-2.62h0v-.66h-4.89v.81h3.69l-2.37,2.67h0s.18.53.18.53h0s.5.01.5.01c.63,0,1.14.13,1.53.38.38.25.58.61.58,1.06s-.16.8-.47,1.07c-.31.27-.71.41-1.17.41Z"/>
      <path class="cls-1" d="M268.34,245.49h4v1.8h.86v-1.8h1.18v-.75h-1.18v-5.13h-.78l-4.3,5.24h0s.22.64.22.64h0ZM269.21,244.74l3.13-3.84v3.84h-3.13Z"/>
      <rect class="cls-1" x="275.76" y="246.11" width="1.04" height="1.18"/>
      <path class="cls-1" d="M283.14,239.6h-.78l-4.3,5.24h0s.22.64.22.64h0s4,.01,4,.01v1.8h.86v-1.8h1.18v-.75h-1.18v-5.13ZM279.15,244.74l3.13-3.84v3.84h-3.13Z"/>
      <path class="cls-1" d="M286.33,246.52c.53.6,1.26.91,2.17.91.78,0,1.43-.24,1.96-.72.52-.48.79-1.09.79-1.83s-.26-1.28-.77-1.72c-.51-.43-1.14-.66-1.87-.66-.89,0-1.61.38-2.14,1.12,0-.96.21-1.76.6-2.36.4-.61.94-.91,1.6-.91.59,0,1.19.25,1.78.74h.02s.51-.67.51-.67h.01s-.01-.03-.01-.03c-.71-.58-1.47-.87-2.26-.87-.97,0-1.75.4-2.32,1.18-.57.78-.85,1.78-.85,2.96,0,1.29.27,2.25.8,2.85ZM286.61,244.94c0-.44.18-.83.53-1.16.35-.33.81-.5,1.35-.5s.98.15,1.32.46c.34.3.52.69.52,1.15,0,.5-.17.92-.5,1.24-.33.33-.77.49-1.32.49s-1.01-.16-1.37-.48-.54-.72-.54-1.2Z"/>
      <path class="cls-1" d="M274.48,271.26h-3.99l1.99-1.77c.72-.64,1.22-1.16,1.5-1.57.28-.41.43-.88.43-1.4,0-.63-.23-1.16-.67-1.57-.45-.41-1.02-.62-1.7-.62-.63,0-1.16.13-1.57.4-.41.26-.81.68-1.18,1.23v.02s.63.47.63.47h.02s.01,0,.01,0c.31-.44.63-.77.94-.98.31-.21.67-.31,1.08-.31s.78.13,1.07.4.44.61.44,1.04c0,.37-.12.73-.34,1.07-.23.34-.64.78-1.23,1.3l-2.76,2.43h0v.7h5.35v-.82Z"/>
      <rect class="cls-1" x="275.95" y="270.9" width="1.04" height="1.18"/>
      <path class="cls-1" d="M282.55,268.13c.84-.4,1.27-.99,1.27-1.75,0-.59-.26-1.08-.77-1.47-.51-.38-1.13-.58-1.84-.58s-1.33.19-1.84.58c-.51.38-.77.87-.77,1.45,0,.77.43,1.37,1.27,1.77-.46.17-.83.42-1.1.73-.28.32-.43.71-.43,1.14,0,.64.28,1.17.82,1.58.54.41,1.23.61,2.05.61s1.51-.2,2.05-.61c.54-.4.82-.93.82-1.57,0-.85-.51-1.49-1.53-1.88ZM282.43,267.42c-.33.26-.74.39-1.22.39s-.9-.13-1.22-.39-.49-.59-.49-.98.16-.7.49-.94c.32-.25.74-.37,1.23-.37s.9.12,1.23.37c.33.25.49.56.49.92,0,.41-.17.75-.49,1ZM282.65,270.99c-.35.27-.84.41-1.44.41s-1.08-.14-1.44-.41c-.35-.27-.53-.6-.53-.99,0-.42.19-.77.56-1.04.38-.27.85-.41,1.41-.41s1.02.14,1.4.4c.38.27.57.61.57,1.02s-.18.75-.53,1.02Z"/>
      <path class="cls-1" d="M290.16,264.39h-.78l-4.3,5.24h0s.22.64.22.64h0s4,.01,4,.01v1.8h.86v-1.8h1.18v-.75h-1.18v-5.13ZM286.17,269.52l3.13-3.84v3.84h-3.13Z"/>
      <polygon class="cls-1" points="268.91 296.86 269.79 296.86 269.79 289.17 269.14 289.17 267.28 289.81 267.26 289.82 267.48 290.55 268.91 290.11 268.91 296.86"/>
      <path class="cls-1" d="M276.4,295.06h1.18v-.75h-1.18v-5.13h-.78l-4.3,5.24h0s.22.64.22.64h0s4,.01,4,.01v1.8h.86v-1.8ZM272.41,294.31l3.13-3.84v3.84h-3.13Z"/>
      <rect class="cls-1" x="278.97" y="295.68" width="1.04" height="1.18"/>
      <polygon class="cls-1" points="283.07 296.86 283.07 289.17 282.43 289.17 280.56 289.81 280.55 289.82 280.76 290.55 282.19 290.11 282.19 296.86 283.07 296.86"/>
      <path class="cls-1" d="M288.05,289.1c-.96,0-1.75.39-2.34,1.15-.6.76-.9,1.71-.9,2.8s.3,2.05.89,2.81c.59.76,1.38,1.14,2.33,1.14s1.74-.39,2.34-1.15c.59-.76.89-1.71.89-2.8s-.3-2.05-.88-2.81c-.59-.76-1.37-1.14-2.33-1.14ZM290.33,293.05c0,.87-.21,1.61-.63,2.22-.42.6-.97.91-1.65.91s-1.24-.31-1.67-.92c-.43-.61-.65-1.36-.65-2.21s.21-1.61.64-2.22c.42-.6.98-.91,1.65-.91s1.24.31,1.66.92c.43.61.64,1.35.64,2.21Z"/>
      <path class="cls-1" d="M270.54,321.78c.78,0,1.43-.24,1.96-.72.52-.48.79-1.09.79-1.83s-.26-1.28-.77-1.72c-.51-.43-1.14-.66-1.87-.66-.89,0-1.61.38-2.14,1.12,0-.96.21-1.76.6-2.36.4-.61.94-.91,1.6-.91.59,0,1.19.25,1.78.74h.02s.51-.67.51-.67h.01s-.01-.03-.01-.03c-.71-.58-1.47-.87-2.26-.87-.97,0-1.75.4-2.32,1.18-.57.78-.85,1.78-.85,2.96,0,1.29.27,2.25.8,2.85s1.26.91,2.17.91ZM268.65,319.3c0-.44.18-.83.53-1.16.35-.33.81-.5,1.35-.5s.98.15,1.32.46c.34.3.52.69.52,1.15,0,.5-.17.92-.5,1.24-.33.33-.77.49-1.32.49s-1.01-.16-1.37-.48-.54-.72-.54-1.2Z"/>
      <rect class="cls-1" x="274.77" y="320.47" width="1.04" height="1.18"/>
      <path class="cls-1" d="M277.94,315.03c-.6.76-.9,1.71-.9,2.8s.3,2.05.89,2.81c.59.76,1.38,1.14,2.33,1.14s1.74-.39,2.34-1.15c.59-.76.89-1.71.89-2.8s-.3-2.05-.88-2.81c-.59-.76-1.37-1.14-2.33-1.14s-1.75.39-2.34,1.15ZM277.97,317.83c0-.87.21-1.61.64-2.22.42-.6.98-.91,1.65-.91s1.24.31,1.66.92c.43.61.64,1.35.64,2.21s-.21,1.61-.63,2.22c-.42.6-.97.91-1.65.91s-1.24-.31-1.67-.92c-.43-.61-.65-1.36-.65-2.21Z"/>
      <path class="cls-1" d="M288.05,313.88c-.96,0-1.75.39-2.34,1.15-.6.76-.9,1.71-.9,2.8s.3,2.05.89,2.81c.59.76,1.38,1.14,2.33,1.14s1.74-.39,2.34-1.15c.59-.76.89-1.71.89-2.8s-.3-2.05-.88-2.81c-.59-.76-1.37-1.14-2.33-1.14ZM290.33,317.83c0,.87-.21,1.61-.63,2.22-.42.6-.97.91-1.65.91s-1.24-.31-1.67-.92c-.43-.61-.65-1.36-.65-2.21s.21-1.61.64-2.22c.42-.6.98-.91,1.65-.91s1.24.31,1.66.92c.43.61.64,1.35.64,2.21Z"/>
      <path class="cls-1" d="M264.64,393.4c.72-.64,1.22-1.16,1.5-1.56.28-.41.42-.87.42-1.39,0-.63-.22-1.15-.67-1.56-.44-.41-1.01-.61-1.69-.61-.63,0-1.15.13-1.56.4-.41.26-.8.67-1.17,1.22l.63.46c.32-.45.64-.78.95-.99s.68-.31,1.09-.31.79.13,1.08.4.45.62.45,1.05c0,.38-.12.74-.35,1.08-.23.35-.64.78-1.24,1.3l-2.76,2.43v.66h5.31v-.78h-4.03l2.03-1.8Z"/>
      <path class="cls-1" d="M272.57,391.91c-.5-.42-1.12-.63-1.88-.63-.48,0-.98.11-1.5.34l.16-2.43h3.62v-.79h-4.37l-.22,3.7.58.38c.54-.29,1.07-.43,1.6-.43.56,0,1.01.15,1.36.44.35.3.53.68.53,1.15,0,.5-.17.91-.51,1.23s-.78.48-1.32.48c-.72,0-1.44-.35-2.16-1.04l-.56.62c.8.8,1.71,1.2,2.71,1.2.8,0,1.45-.23,1.95-.69.51-.46.76-1.06.76-1.8s-.25-1.29-.74-1.71Z"/>
      <rect class="cls-1" x="274.79" y="394.85" width="1" height="1.14"/>
      <path class="cls-1" d="M282.59,394.97c.59-.76.89-1.69.89-2.78s-.29-2.04-.88-2.79-1.36-1.13-2.31-1.13-1.73.38-2.33,1.15-.9,1.69-.9,2.78.29,2.04.88,2.79c.59.76,1.36,1.13,2.32,1.13s1.73-.38,2.32-1.14ZM278.6,394.41c-.43-.62-.65-1.36-.65-2.22s.21-1.62.64-2.23.98-.92,1.67-.92,1.25.31,1.68.93c.43.62.65,1.36.65,2.22s-.21,1.62-.64,2.23c-.42.61-.98.92-1.67.92s-1.25-.31-1.68-.93Z"/>
      <path class="cls-1" d="M288.02,396.12c.96,0,1.73-.38,2.32-1.14.59-.76.89-1.69.89-2.78s-.29-2.04-.88-2.79-1.36-1.13-2.31-1.13-1.73.38-2.33,1.15-.9,1.69-.9,2.78.29,2.04.88,2.79c.59.76,1.36,1.13,2.32,1.13ZM286.35,389.96c.43-.61.98-.92,1.67-.92s1.25.31,1.68.93c.43.62.65,1.36.65,2.22s-.21,1.62-.64,2.23c-.42.61-.98.92-1.67.92s-1.25-.31-1.68-.93c-.43-.62-.65-1.36-.65-2.22s.21-1.62.64-2.23Z"/>
      <path class="cls-1" d="M277.44,417.08c-.47-.36-1.07-.57-1.8-.62l2.39-2.65v-.63h-4.85v.77h3.71l-2.4,2.7.17.51h.49c.64,0,1.15.13,1.54.39.39.26.59.62.59,1.08s-.16.81-.48,1.08-.71.41-1.18.41c-.87,0-1.61-.38-2.22-1.13l-.62.55c.69.9,1.64,1.36,2.83,1.36.72,0,1.32-.21,1.81-.65.49-.43.73-.98.73-1.64s-.24-1.18-.71-1.54Z"/>
      <rect class="cls-1" x="279.72" y="419.63" width="1" height="1.14"/>
      <polygon class="cls-1" points="281.31 413.76 281.51 414.45 282.95 414.01 282.95 420.77 283.79 420.77 283.79 413.12 283.16 413.12 281.31 413.76"/>
      <path class="cls-1" d="M288.31,413.04c-.8,0-1.45.25-1.96.74-.51.5-.77,1.11-.77,1.84s.25,1.26.74,1.71c.49.44,1.13.67,1.91.67.93,0,1.64-.41,2.15-1.21v.1c0,.95-.21,1.72-.62,2.33-.42.6-.96.91-1.63.91-.63,0-1.25-.27-1.87-.81l-.5.66c.75.62,1.53.93,2.34.93.93,0,1.69-.38,2.28-1.15.59-.77.88-1.75.88-2.96,0-1.3-.27-2.24-.8-2.84-.53-.6-1.25-.9-2.14-.9ZM289.68,416.74c-.35.35-.8.52-1.36.52s-1-.16-1.35-.47c-.35-.31-.52-.71-.52-1.19s.17-.92.5-1.28c.33-.35.77-.53,1.32-.53s1.03.17,1.39.49c.36.33.54.74.54,1.23,0,.46-.17.87-.53,1.22Z"/>
    </g>
  </g>
</svg>