<svg width="172" height="90" viewBox="0 0 172 90" fill="none" xmlns="http://www.w3.org/2000/svg">
<g clip-path="url(#clip0_332_702)">
<g opacity="0.4">
<path d="M59.7554 28.9844V89.0691H0.735352V0.519043H47.3526V7.79841H48.191V28.9844H59.7554Z" fill="#C0D4DC"/>
</g>
<path d="M53.9399 22.5701L50.1738 24.4598L53.9399 26.1765V22.5701Z" fill="#C0D4DC"/>
<path d="M38.6496 73.7119H38.1173V65.8071H20.5111V68.0694H2.95809V73.7119H2.42578V67.5238H19.9655V65.2615H38.6496V73.7119Z" fill="#2E8EA9"/>
<path d="M151.62 14.8516H133.229V7.78516H133.774V14.306H151.074V9.86117H146.856V7.78516H147.388V9.31555H151.62V14.8516Z" fill="#2E8EA9"/>
<path d="M38.6496 14.8516H20.2715V9.31555H24.4901V7.78516H25.0357V9.86117H20.8038V14.306H38.1172V7.78516H38.6496V14.8516Z" fill="#2E8EA9"/>
<path d="M85.8795 16.9274H69.2314V8.90283H85.8795V16.9274ZM69.7771 16.3818H85.3339V9.44845H69.7771V16.3818Z" fill="#2E8EA9"/>
<path d="M122.236 20.3209H97.6299V8.90283H122.236V20.3209ZM98.1755 19.7753H121.704V9.44845H98.1755V19.7753Z" fill="#2E8EA9"/>
<path d="M170.49 73.4324H0.735352V73.978H170.49V73.4324Z" fill="#2E8EA9"/>
<path d="M115.129 89.0691H114.105V29.5033H93.6241V31.8721H68.4989V89.0691H67.4609V30.8474H92.5994V28.4653H115.129V89.0691Z" fill="#2E8EA9"/>
<path d="M47.3526 7.5188H0.735352V8.06442H47.3526V7.5188Z" fill="#2E8EA9"/>
<path d="M115.129 28.9844H114.104V20.8533H122.728V8.30407H121.45V0H170.995V7.78506H169.971V1.0247H122.475V7.27937H123.766V21.878H115.129V28.9844Z" fill="#2E8EA9"/>
<path d="M68.4986 14.439H49.6681V3.97905H47.3525V2.95435H50.6928V13.401H67.4606V7.27938H123.247V8.30408H68.4986V14.439Z" fill="#2E8EA9"/>
<path d="M170.476 7.5188H123.247V8.06442H170.476V7.5188Z" fill="#2E8EA9"/>
<path d="M170.996 89.5749H0.216797V7.78516H1.2415V88.5502H169.971V7.78516H170.996V89.5749Z" fill="#2E8EA9"/>
<path d="M60.2749 89.0691H59.2369V29.5034H47.6724V8.30407H46.834V1.0247H1.2415V7.78506H0.216797V0H47.872V7.27937H48.6971V28.4654H60.2749V89.0691Z" fill="#2E8EA9"/>
<path d="M169.466 73.7119H168.92V68.0694H151.367V65.8071H133.774V68.0694H86.7843V73.2728H84.7349V68.0694H39.7146V73.7119H39.1689V67.5238H85.2805V72.7272H86.2386V67.5238H133.228V65.2615H151.913V67.5238H169.466V73.7119Z" fill="#2E8EA9"/>
</g>
<defs>
<clipPath id="clip0_332_702">
<rect width="171.213" height="89.5748" fill="white"/>
</clipPath>
</defs>
</svg>
