<svg width="172" height="67" viewBox="0 0 172 67" fill="none" xmlns="http://www.w3.org/2000/svg">
<g clip-path="url(#clip0_332_1565)">
<g opacity="0.4">
<path d="M85.8789 60.1072V24.4793H93.5819V21.6987H116.757V30.772H132.044V66.0141H86.4643C86.4111 64.1117 86.3445 62.2225 86.2913 60.3201C86.1583 60.2535 86.0252 60.1737 85.8922 60.1072H85.8789Z" fill="#C4D4DB"/>
</g>
<path d="M94.5664 15.4326L96.4556 19.1976L98.1718 15.4326H94.5664Z" fill="#C4D4DB"/>
<path d="M0.241699 0V66.5197H170.971V0H0.241699ZM133.76 1.0244H146.838V2.58096H151.055V7.02448H133.76V1.0244ZM116.026 21.1799H93.1032V23.9471H78.6418V21.1799H55.3333V13.2773H68.4909V1.0244H122.718V13.57H116.026V21.1799ZM49.5328 1.0244H67.4798V12.2529H49.5328V1.0244ZM55.3466 31.2776V22.2043H77.6307V24.9715H85.3736V59.8278H39.9673V31.2776H55.3333H55.3466ZM39.9673 60.3733H84.7882V65.4953H39.9673V60.3733ZM85.8259 60.3733H86.0521V65.4953H85.8259V60.3733ZM87.0765 60.3733H131.911V65.4953H87.0765V60.3733ZM131.911 59.8278H86.398V24.9715H94.1409V22.2043H116.039V31.4372H131.924V59.8278H131.911ZM25.0535 1.0244H38.1313V7.02448H20.8362V2.58096H25.0535V1.0244ZM1.2661 1.0244H24.5081V2.0355H20.2907V7.55664H38.6768V1.0244H48.5084V13.2773H54.3222V30.2532H38.9562V65.4953H38.6768V57.5661H19.998V59.8278H2.45015V65.4953H1.27941V1.0244H1.2661ZM38.1313 65.4953H2.98231V60.3733H20.5169V58.1116H38.118V65.4953H38.1313ZM168.896 60.3733V65.4953H133.76V58.1116H151.361V60.3733H168.896ZM169.947 65.4953H169.441V59.8278H151.907V57.5661H133.228V65.4953H132.948V30.4128H117.064V14.5944H123.755V1.0244H133.215V7.56994H151.601V2.04881H147.383V1.03771H169.96V65.5086L169.947 65.4953Z" fill="#4B8CA6"/>
<path d="M69.2358 9.64532H85.8791V1.62305H69.2358V9.64532ZM69.7813 2.16851H85.3336V9.09986H69.7813V2.16851Z" fill="#4B8CA6"/>
<path d="M97.6265 13.0378H122.225V1.62305H97.6265V13.0378ZM98.1719 2.16851H121.693V12.4924H98.1719V2.16851Z" fill="#4B8CA6"/>
</g>
<defs>
<clipPath id="clip0_332_1565">
<rect width="171.213" height="66.5197" fill="white"/>
</clipPath>
</defs>
</svg>
