<svg width="202" height="44" viewBox="0 0 202 44" fill="none" xmlns="http://www.w3.org/2000/svg">
<g clip-path="url(#clip0_4_7607)">
<path d="M8.31146 21.2677H6.3651V27.4016H0V29.2452H6.3651V35.3273H8.31146V29.2452H14.6941V27.4016H8.31146V21.2677Z" fill="white"/>
<path d="M43.7141 1.02252L43.3459 1.40158C38.7167 6.00197 33.5089 8.06957 29.9493 8.99998L29.7389 9.05167L30.1072 10.2578L30.3176 10.2061C33.7719 9.22397 37.121 7.72497 39.611 6.07089V42.2365H28.6167V43.5116H54.6558V42.2365H43.7316V1.02252H43.7141Z" fill="white"/>
<path d="M77.2581 19.4414C81.3963 17.7873 84.2194 14.014 84.2194 10.0338C84.2194 4.91655 80.1513 1.6084 73.8739 1.6084C67.5965 1.6084 63.09 5.55405 63.09 11.4122C63.09 13.7038 64.0895 15.0133 65.8255 15.0133C67.5614 15.0133 68.3855 13.6694 68.3855 12.3254C68.3855 11.3605 68.2453 10.6024 68.105 9.87877C67.9647 9.17234 67.8419 8.5176 67.8419 7.67334C67.8419 4.81317 70.2617 2.88341 73.8914 2.88341C78.0472 2.88341 80.4143 5.48513 80.4143 10.0338C80.4143 14.2035 78.1524 17.7012 74.5227 19.1657C71.6119 19.1657 68.5083 19.8549 68.5083 20.8887C68.5083 21.0265 68.5609 21.2333 68.7888 21.3884C69.7708 22.0431 73.418 21.3022 75.5572 20.5096C80.3793 21.4573 83.3602 25.558 83.3602 31.2611C83.3602 37.998 79.4499 42.564 73.6459 42.6329C69.1045 42.6329 66.8074 40.8237 66.8074 37.2399C66.8074 36.3956 66.9301 35.7409 67.0354 35.0345C67.1581 34.3108 67.2808 33.5699 67.2808 32.5878C67.2808 31.2439 66.4918 29.9 64.7208 29.9C62.9498 29.9 61.9854 31.2094 61.9854 33.4838C61.9854 39.7038 66.6671 43.8907 73.6284 43.8907C82.2555 43.8907 87.8491 38.9284 87.8491 31.2439C87.8491 25.1617 83.9213 20.7853 77.2756 19.4242L77.2581 19.4414Z" fill="white"/>
<path d="M118.57 39.7383H98.1942C111.223 29.9689 118.377 20.0789 118.377 11.843C118.377 5.62297 113.59 1.6084 106.19 1.6084C103.104 1.6084 100.193 2.67665 98.0013 4.62364C95.7043 6.65677 94.4418 9.49971 94.4418 12.6183C94.4418 14.9099 95.4413 16.2194 97.1772 16.2194C98.9131 16.2194 99.7373 14.8755 99.7373 13.5315C99.7373 12.5666 99.6145 11.8085 99.4742 11.0849C99.3515 10.3784 99.2463 9.7237 99.2463 8.87943C99.2463 5.2956 102.017 2.88341 106.137 2.88341C111.258 2.88341 114.081 6.05372 114.081 11.843C114.081 20.3546 108.434 29.2625 96.3005 39.8416L95.7218 40.3241C94.6697 41.2028 92.9338 42.7018 92.3727 43.0809L91.8291 43.4771H118.622L121.235 36.2233H119.85L118.552 39.721L118.57 39.7383Z" fill="white"/>
<path d="M178.854 26.8674C178.854 20.6991 175.716 16.8741 170.648 16.8741C165.037 16.8741 162.267 21.5778 161.004 24.9894C160.408 19.8893 157.427 16.8741 152.885 16.8741C150.869 16.8741 146.064 17.6666 143.329 24.662V16.5984L143.084 16.6328C140.944 16.9602 138.928 17.2704 135.614 17.2704H135.403V18.5281H139.699V42.2365H135.403V43.4943H147.292V42.2365H143.364V31.3817C143.399 27.0053 145.03 22.7495 147.607 20.2511C149.08 18.8383 150.781 18.0802 152.5 18.1146C155.884 18.1663 157.462 20.9576 157.462 26.8674V42.2882H152.938V43.4771H165.651V42.2882H161.127V31.3817C161.162 27.0053 162.793 22.7495 165.37 20.2511C166.826 18.8555 168.491 18.1146 170.192 18.1146H170.262C173.647 18.1663 175.225 20.9576 175.225 26.8674V42.2365H171.297V43.4943H183.185V42.2365H178.889V26.8674H178.854Z" fill="white"/>
<path d="M201.018 18.7005L200.194 20.992H189.515C196.757 15.4612 200.281 10.5679 200.281 6.03645C200.281 2.31478 197.528 0.0748901 192.899 0.0748901C188.954 0.0748901 185.868 2.84891 185.868 6.39828C185.868 7.89728 186.587 8.79324 187.797 8.79324C189.007 8.79324 189.55 7.89728 189.55 7.00133C189.55 6.39828 189.462 5.93307 189.375 5.46786C189.287 5.01988 189.199 4.58913 189.199 4.02055C189.199 2.50431 190.339 0.953617 192.882 0.953617C195.6 0.953617 196.967 2.65938 196.967 6.00199C196.967 10.7747 193.531 16.3572 187.323 21.7157L186.955 22.0258C186.376 22.5083 185.412 23.3353 185.114 23.5421L184.57 23.9384H200.176L202.035 18.666H201.053L201.018 18.7005Z" fill="white"/>
</g>
<defs>
<clipPath id="clip0_4_7607">
<rect width="202" height="44" fill="white"/>
</clipPath>
</defs>
</svg>
