<svg width="91" height="57" viewBox="0 0 91 57" fill="none" xmlns="http://www.w3.org/2000/svg">
<path d="M1.1677 1.23204L0.0172992 17.8369L0 18.0487H1.5353L1.5526 17.8671C2.49108 6.72232 5.73901 2.77105 13.9604 2.77105H19.8595V55.3739H14.0037V56.9129H32.3754V55.3739H26.7619L26.6797 2.77105H32.6609C40.8218 2.77105 44.0481 6.72231 44.9866 17.8715L45.0039 18.053H46.5392L45.3715 1.23204H1.1677Z" fill="white"/>
<path d="M77.1026 55.374V0L76.7652 0.306937C68.7168 7.708 61.3863 10.4834 57.7361 11.4777L57.5372 11.5339L57.9826 12.9778L58.1729 12.9216C62.5323 11.6247 66.9912 9.54962 70.1959 7.34054V55.3696H56.4517V56.9086H90.7646V55.3696H77.1026V55.374Z" fill="white"/>
</svg>
