<svg width="93" height="57" viewBox="0 0 93 57" fill="none" xmlns="http://www.w3.org/2000/svg">
<path d="M1.1677 0.566284L0.0172992 17.1755L0 17.3873H1.53963L1.55693 17.2057C2.49108 6.05655 5.73901 2.10529 13.9648 2.10529H19.8638V54.7082H14.008V56.2472H32.3798V54.7082H26.7662L26.684 2.10529H32.6652C40.8304 2.10529 44.0524 6.05655 44.9909 17.2057L45.0082 17.3873H46.5435L45.3758 0.566284H1.1677Z" fill="white"/>
<path d="M76.938 23.954C83.1874 21.572 87.1878 16.6827 87.1878 11.3351C87.1878 4.2366 81.7602 0 72.6738 0C64.3572 0 58.3241 5.52056 58.3241 13.1248C58.3241 16.4017 59.8205 18.2822 62.4283 18.2822C65.2178 18.2822 66.2082 16.2936 66.2082 14.586C66.2082 13.1161 65.9401 11.9532 65.6806 10.8292C65.4514 9.83493 65.2308 8.89684 65.2308 7.83769C65.2308 3.95127 68.0852 1.53468 72.6738 1.53468C77.7684 1.53468 80.6876 5.07527 80.6876 11.2529C80.6876 16.6524 77.6127 21.745 73.2014 23.6514C68.9977 23.6601 65.3173 24.6976 65.3173 25.8821C65.3173 26.1242 65.4341 26.3317 65.6546 26.483C66.9002 27.339 71.718 26.3749 74.4037 25.3547C80.9341 26.5262 84.6751 31.8436 84.6751 39.945C84.6751 51.1114 78.123 55.1362 72.5138 55.1924C66.6839 55.1924 63.8512 52.9185 63.8512 48.2366C63.8512 47.1645 64.0544 46.2221 64.2664 45.2278C64.4999 44.1254 64.7464 42.9884 64.7464 41.5705C64.7464 39.7548 63.7777 37.6321 61.0487 37.6321C58.3198 37.6321 56.8623 39.6208 56.8623 42.9538C56.8623 51.2411 63.1506 56.8092 72.5138 56.8092C81.8769 56.8092 92.0705 51.4789 92.0705 39.7807C92.0705 31.7701 86.2969 25.7524 76.9423 23.9454L76.938 23.954Z" fill="white"/>
</svg>
