<svg width="30" height="30" viewBox="0 0 30 30" fill="none" xmlns="http://www.w3.org/2000/svg">
<g clip-path="url(#clip0_78_4369)">
<path d="M8.50618 26.2683V3.73169C4.62226 5.98288 2 10.1884 2 15.0124C2 19.8363 4.62226 24.0419 8.50618 26.2931V26.2683Z" fill="#689635"/>
<path d="M15.0125 2C12.6377 2 10.4359 2.6432 8.50635 3.73168V26.2436C10.4112 27.3568 12.6377 27.9753 15.0125 27.9753C22.1867 27.9753 28.0249 22.1618 28.0249 14.9629C28.0249 7.76403 22.1867 2 15.0125 2Z" fill="#E94D5C"/>
<path d="M8.50609 19.5641C5.98278 19.5641 3.95423 17.5356 3.95423 15.0123C3.95423 12.489 5.98278 10.4604 8.50609 10.4604C11.0294 10.4604 13.0579 12.489 13.0579 15.0123C13.0579 17.5356 11.0294 19.5641 8.50609 19.5641ZM8.50609 9.79248C5.63644 9.79248 3.31104 12.1179 3.31104 14.9875C3.31104 17.8572 5.63644 20.1826 8.50609 20.1826C11.3757 20.1826 13.7011 17.8572 13.7011 14.9875C13.7011 12.1179 11.3757 9.79248 8.50609 9.79248Z" fill="#FFE72D"/>
<path d="M10.2874 20.059C10.2874 20.059 10.0647 20.1332 9.99053 20.059L4.02859 12.2417C4.02859 12.2417 3.95437 12.0191 4.02859 11.9448L4.17702 11.7964C4.17702 11.7964 4.39967 11.7222 4.47388 11.7964L10.4111 19.6385C10.4111 19.6385 10.4853 19.8611 10.4111 19.9353L10.2627 20.0838L10.2874 20.059Z" fill="#FFE72D"/>
<path d="M8.60512 9.59473H8.40722C8.28425 9.59473 8.18457 9.69441 8.18457 9.81737V20.2075C8.18457 20.3304 8.28425 20.4301 8.40722 20.4301H8.60512C8.72809 20.4301 8.82777 20.3304 8.82777 20.2075V9.81737C8.82777 9.69441 8.72809 9.59473 8.60512 9.59473Z" fill="#FFE72D"/>
<path d="M13.6767 15.5813L8.50635 14.666V15.334L13.5777 16.2245C13.5777 16.2245 13.8004 16.1751 13.8251 16.0514L13.8746 15.8287C13.8746 15.8287 13.8251 15.6061 13.7014 15.5813H13.6767Z" fill="#FFE72D"/>
<path d="M8.50596 14.6166L4.42413 11.7716C4.42413 11.7716 4.20149 11.7222 4.12727 11.8211L4.00358 11.9943C4.00358 11.9943 3.9541 12.2169 4.05306 12.2912L8.50596 15.4082V14.6166Z" fill="#FFE72D"/>
<path d="M8.30833 14.1465L4.25125 18.2283C4.25125 18.2283 4.17703 18.451 4.25125 18.5252L4.39968 18.6736C4.39968 18.6736 4.62232 18.7478 4.69654 18.6736L8.30833 15.0618V14.1465Z" fill="#FFE72D"/>
<path d="M8.50608 12.217L3.06364 14.7404C3.06364 14.7404 2.91521 14.9135 2.96469 15.0372L3.06364 15.2351C3.06364 15.2351 3.23681 15.3835 3.3605 15.3341L8.50608 12.9345V12.217Z" fill="#FFE72D"/>
<path d="M13.3056 12.9097L8.13525 11.9944V12.6623L13.2066 13.5529C13.2066 13.5529 13.4293 13.5034 13.454 13.3797L13.5035 13.1571C13.5035 13.1571 13.454 12.9344 13.3303 12.9097H13.3056Z" fill="#FFE72D"/>
<path d="M8.45671 17.9811C8.45671 17.9811 8.30828 18.1543 8.35775 18.2779L8.45671 18.4759C8.45671 18.4759 8.62988 18.6243 8.75357 18.5748L13.0828 16.571L13.3054 15.7546L8.48145 18.0058L8.45671 17.9811Z" fill="#FFE72D"/>
<path d="M8.45663 16.5214L3.60791 14.7402V15.4329L8.45663 17.2141V16.5214Z" fill="#FFE72D"/>
<path d="M5.09212 17.9314V18.5746L11.4994 18.9951C11.7467 18.822 11.9694 18.6241 12.1673 18.4014L5.06738 17.9314H5.09212Z" fill="#FFE72D"/>
<path d="M6.3291 12.8354V15.8783C6.3291 17.0657 7.2939 18.0552 8.50608 18.0552C9.71826 18.0552 10.6831 17.0904 10.6831 15.8783V12.8354H6.35384H6.3291Z" fill="white"/>
<path d="M7.19506 13.7012V15.8782C7.19506 16.5956 7.78878 17.1894 8.5062 17.1894C9.22361 17.1894 9.81733 16.5956 9.81733 15.8782V13.7012H7.2198H7.19506ZM8.5062 18.8963C6.82399 18.8963 5.46338 17.5357 5.46338 15.8535V11.9448H11.5243V15.8535C11.5243 17.5357 10.1637 18.8963 8.48146 18.8963H8.5062Z" fill="#E94D5C"/>
<path d="M8.13525 13.8496V14.567C8.13525 14.567 8.23421 14.7649 8.33316 14.7649H8.6795C8.6795 14.7649 8.8774 14.666 8.8774 14.567V13.8496H8.13525Z" fill="#0871B8"/>
<path d="M8.13525 14.9382V15.6556C8.13525 15.6556 8.23421 15.8536 8.33316 15.8536H8.6795C8.6795 15.8536 8.8774 15.7546 8.8774 15.6556V14.9382H8.13525Z" fill="#0871B8"/>
<path d="M7.24463 14.9382V15.6556C7.24463 15.6556 7.34358 15.8536 7.44254 15.8536H7.78887C7.78887 15.8536 7.98678 15.7546 7.98678 15.6556V14.9382H7.24463Z" fill="#0871B8"/>
<path d="M9.00098 14.9382V15.6556C9.00098 15.6556 9.09993 15.8536 9.19888 15.8536H9.54522C9.54522 15.8536 9.74313 15.7546 9.74313 15.6556V14.9382H9.00098Z" fill="#0871B8"/>
<path d="M8.13525 16.002V16.7194C8.13525 16.7194 8.23421 16.9173 8.33316 16.9173H8.6795C8.6795 16.9173 8.8774 16.8183 8.8774 16.7194V16.002H8.13525Z" fill="#0871B8"/>
<path d="M8.50618 15.2844C8.50618 15.2844 8.60513 15.3339 8.60513 15.3834C8.60513 15.4329 8.55566 15.4823 8.50618 15.4823C8.4567 15.4823 8.40723 15.4329 8.40723 15.3834C8.40723 15.3339 8.4567 15.2844 8.50618 15.2844Z" fill="white"/>
<path d="M8.33284 15.5071C8.33284 15.5071 8.43179 15.5566 8.43179 15.606C8.43179 15.6555 8.38232 15.705 8.33284 15.705C8.28336 15.705 8.23389 15.6555 8.23389 15.606C8.23389 15.5566 8.28336 15.5071 8.33284 15.5071Z" fill="white"/>
<path d="M8.67952 15.5071C8.67952 15.5071 8.77847 15.5566 8.77847 15.606C8.77847 15.6555 8.729 15.705 8.67952 15.705C8.63004 15.705 8.58057 15.6555 8.58057 15.606C8.58057 15.5566 8.63004 15.5071 8.67952 15.5071Z" fill="white"/>
<path d="M8.33284 15.0867C8.33284 15.0867 8.43179 15.1361 8.43179 15.1856C8.43179 15.2351 8.38232 15.2846 8.33284 15.2846C8.28336 15.2846 8.23389 15.2351 8.23389 15.1856C8.23389 15.1361 8.28336 15.0867 8.33284 15.0867Z" fill="white"/>
<path d="M8.67952 15.0867C8.67952 15.0867 8.77847 15.1361 8.77847 15.1856C8.77847 15.2351 8.729 15.2846 8.67952 15.2846C8.63004 15.2846 8.58057 15.2351 8.58057 15.1856C8.58057 15.1361 8.63004 15.0867 8.67952 15.0867Z" fill="white"/>
<path d="M8.50618 14.196C8.50618 14.196 8.60513 14.2455 8.60513 14.295C8.60513 14.3445 8.55566 14.394 8.50618 14.394C8.4567 14.394 8.40723 14.3445 8.40723 14.295C8.40723 14.2455 8.4567 14.196 8.50618 14.196Z" fill="white"/>
<path d="M8.33284 14.4187C8.33284 14.4187 8.43179 14.4682 8.43179 14.5177C8.43179 14.5671 8.38232 14.6166 8.33284 14.6166C8.28336 14.6166 8.23389 14.5671 8.23389 14.5177C8.23389 14.4682 8.28336 14.4187 8.33284 14.4187Z" fill="white"/>
<path d="M8.67952 14.4187C8.67952 14.4187 8.77847 14.4682 8.77847 14.5177C8.77847 14.5671 8.729 14.6166 8.67952 14.6166C8.63004 14.6166 8.58057 14.5671 8.58057 14.5177C8.58057 14.4682 8.63004 14.4187 8.67952 14.4187Z" fill="white"/>
<path d="M8.33284 13.998C8.33284 13.998 8.43179 14.0475 8.43179 14.097C8.43179 14.1465 8.38232 14.196 8.33284 14.196C8.28336 14.196 8.23389 14.1465 8.23389 14.097C8.23389 14.0475 8.28336 13.998 8.33284 13.998Z" fill="white"/>
<path d="M8.67952 13.998C8.67952 13.998 8.77847 14.0475 8.77847 14.097C8.77847 14.1465 8.729 14.196 8.67952 14.196C8.63004 14.196 8.58057 14.1465 8.58057 14.097C8.58057 14.0475 8.63004 13.998 8.67952 13.998Z" fill="white"/>
<path d="M9.3719 15.2844C9.3719 15.2844 9.47086 15.3339 9.47086 15.3834C9.47086 15.4329 9.42138 15.4823 9.3719 15.4823C9.32243 15.4823 9.27295 15.4329 9.27295 15.3834C9.27295 15.3339 9.32243 15.2844 9.3719 15.2844Z" fill="white"/>
<path d="M9.19905 15.5071C9.19905 15.5071 9.298 15.5566 9.298 15.606C9.298 15.6555 9.24853 15.705 9.19905 15.705C9.14957 15.705 9.1001 15.6555 9.1001 15.606C9.1001 15.5566 9.14957 15.5071 9.19905 15.5071Z" fill="white"/>
<path d="M9.54524 15.5071C9.54524 15.5071 9.6442 15.5566 9.6442 15.606C9.6442 15.6555 9.59472 15.705 9.54524 15.705C9.49577 15.705 9.44629 15.6555 9.44629 15.606C9.44629 15.5566 9.49577 15.5071 9.54524 15.5071Z" fill="white"/>
<path d="M9.19905 15.0867C9.19905 15.0867 9.298 15.1361 9.298 15.1856C9.298 15.2351 9.24853 15.2846 9.19905 15.2846C9.14957 15.2846 9.1001 15.2351 9.1001 15.1856C9.1001 15.1361 9.14957 15.0867 9.19905 15.0867Z" fill="white"/>
<path d="M9.54524 15.0867C9.54524 15.0867 9.6442 15.1361 9.6442 15.1856C9.6442 15.2351 9.59472 15.2846 9.54524 15.2846C9.49577 15.2846 9.44629 15.2351 9.44629 15.1856C9.44629 15.1361 9.49577 15.0867 9.54524 15.0867Z" fill="white"/>
<path d="M7.64046 15.2844C7.64046 15.2844 7.73941 15.3339 7.73941 15.3834C7.73941 15.4329 7.68993 15.4823 7.64046 15.4823C7.59098 15.4823 7.5415 15.4329 7.5415 15.3834C7.5415 15.3339 7.59098 15.2844 7.64046 15.2844Z" fill="white"/>
<path d="M7.44221 15.5071C7.44221 15.5071 7.54117 15.5566 7.54117 15.606C7.54117 15.6555 7.49169 15.705 7.44221 15.705C7.39274 15.705 7.34326 15.6555 7.34326 15.606C7.34326 15.5566 7.39274 15.5071 7.44221 15.5071Z" fill="white"/>
<path d="M7.81331 15.5071C7.81331 15.5071 7.91226 15.5566 7.91226 15.606C7.91226 15.6555 7.86279 15.705 7.81331 15.705C7.76383 15.705 7.71436 15.6555 7.71436 15.606C7.71436 15.5566 7.76383 15.5071 7.81331 15.5071Z" fill="white"/>
<path d="M7.44221 15.0867C7.44221 15.0867 7.54117 15.1361 7.54117 15.1856C7.54117 15.2351 7.49169 15.2846 7.44221 15.2846C7.39274 15.2846 7.34326 15.2351 7.34326 15.1856C7.34326 15.1361 7.39274 15.0867 7.44221 15.0867Z" fill="white"/>
<path d="M7.81331 15.0867C7.81331 15.0867 7.91226 15.1361 7.91226 15.1856C7.91226 15.2351 7.86279 15.2846 7.81331 15.2846C7.76383 15.2846 7.71436 15.2351 7.71436 15.1856C7.71436 15.1361 7.76383 15.0867 7.81331 15.0867Z" fill="white"/>
<path d="M8.50618 16.3481C8.50618 16.3481 8.60513 16.3976 8.60513 16.4471C8.60513 16.4966 8.55566 16.5461 8.50618 16.5461C8.4567 16.5461 8.40723 16.4966 8.40723 16.4471C8.40723 16.3976 8.4567 16.3481 8.50618 16.3481Z" fill="white"/>
<path d="M8.33284 16.5708C8.33284 16.5708 8.43179 16.6203 8.43179 16.6698C8.43179 16.7192 8.38232 16.7687 8.33284 16.7687C8.28336 16.7687 8.23389 16.7192 8.23389 16.6698C8.23389 16.6203 8.28336 16.5708 8.33284 16.5708Z" fill="white"/>
<path d="M8.67952 16.5708C8.67952 16.5708 8.77847 16.6203 8.77847 16.6698C8.77847 16.7192 8.729 16.7687 8.67952 16.7687C8.63004 16.7687 8.58057 16.7192 8.58057 16.6698C8.58057 16.6203 8.63004 16.5708 8.67952 16.5708Z" fill="white"/>
<path d="M8.33284 16.1504C8.33284 16.1504 8.43179 16.1999 8.43179 16.2493C8.43179 16.2988 8.38232 16.3483 8.33284 16.3483C8.28336 16.3483 8.23389 16.2988 8.23389 16.2493C8.23389 16.1999 8.28336 16.1504 8.33284 16.1504Z" fill="white"/>
<path d="M8.67952 16.1504C8.67952 16.1504 8.77847 16.1999 8.77847 16.2493C8.77847 16.2988 8.729 16.3483 8.67952 16.3483C8.63004 16.3483 8.58057 16.2988 8.58057 16.2493C8.58057 16.1999 8.63004 16.1504 8.67952 16.1504Z" fill="white"/>
<path d="M8.06104 13.2808H8.92688L8.82792 12.8355V12.4149H8.92688V12.217H8.82792V12.316H8.75371V12.217H8.65476V12.316H8.5558V12.217H8.45685V12.316H8.35789V12.217H8.25894V12.316H8.18473V12.217H8.06104V12.4149H8.13525H8.18473V12.8355L8.06104 13.2808Z" fill="#FFE72D"/>
<path d="M8.62971 13.2806H8.58023V13.0827C8.58023 13.0827 8.53075 13.0085 8.50602 13.0085C8.48128 13.0085 8.4318 13.0579 8.4318 13.0827V13.2806H8.38232V13.0827C8.38232 13.0827 8.4318 12.959 8.50602 12.959C8.58023 12.959 8.62971 13.0085 8.62971 13.0827V13.2806Z" fill="#3E4347"/>
<path d="M8.28336 12.7611H8.45653V12.588C8.45653 12.588 8.40705 12.5138 8.38232 12.5138C8.35758 12.5138 8.3081 12.5632 8.3081 12.588V12.7611H8.28336ZM8.48127 12.8106H8.23389V12.6127C8.23389 12.6127 8.28336 12.489 8.35758 12.489C8.43179 12.489 8.48127 12.5385 8.48127 12.6127V12.8106Z" fill="#3E4347"/>
<path d="M8.5555 12.7611H8.72867V12.588C8.72867 12.588 8.67919 12.5138 8.65445 12.5138C8.62971 12.5138 8.58024 12.5632 8.58024 12.588V12.7611H8.5555ZM8.77814 12.8106H8.53076V12.6127C8.53076 12.6127 8.58024 12.489 8.65445 12.489C8.72867 12.489 8.77814 12.5385 8.77814 12.6127V12.8106Z" fill="#3E4347"/>
<path d="M5.90869 13.2808H6.77453L6.65084 12.8355V12.4149H6.77453V12.217H6.65084V12.316H6.57663V12.217H6.47767V12.316H6.37872V12.217H6.27977V12.316H6.18081V12.217H6.08186V12.316H6.00764V12.217H5.90869V12.4149H5.95817H6.00764V12.8355L5.90869 13.2808Z" fill="#FFE72D"/>
<path d="M6.45295 13.2806H6.40347V13.0827C6.40347 13.0827 6.354 13.0085 6.32926 13.0085C6.30452 13.0085 6.25504 13.0579 6.25504 13.0827V13.2806H6.20557V13.0827C6.20557 13.0827 6.25504 12.959 6.32926 12.959C6.40347 12.959 6.45295 13.0085 6.45295 13.0827V13.2806Z" fill="#3E4347"/>
<path d="M6.10677 12.7611H6.27994V12.588C6.27994 12.588 6.23046 12.5138 6.20572 12.5138C6.18098 12.5138 6.13151 12.5632 6.13151 12.588V12.7611H6.10677ZM6.32941 12.8106H6.08203V12.6127C6.08203 12.6127 6.13151 12.489 6.20572 12.489C6.27994 12.489 6.32941 12.5385 6.32941 12.6127V12.8106Z" fill="#3E4347"/>
<path d="M6.40348 12.7611H6.57665V12.588C6.57665 12.588 6.52717 12.5138 6.50243 12.5138C6.4777 12.5138 6.42822 12.5632 6.42822 12.588V12.7611H6.40348ZM6.60139 12.8106H6.354V12.6127C6.354 12.6127 6.40348 12.489 6.4777 12.489C6.55191 12.489 6.60139 12.5385 6.60139 12.6127V12.8106Z" fill="#3E4347"/>
<path d="M5.90869 15.8286H6.77453L6.67558 15.3834V14.9628H6.77453V14.7649H6.67558V14.8638H6.60136V14.7649H6.50241V14.8638H6.40346V14.7649H6.27977V14.8638H6.20555V14.7649H6.1066V14.8638H6.03238V14.7649H5.90869V14.9628H5.95817H6.03238V15.3834L5.90869 15.8286Z" fill="#FFE72D"/>
<path d="M6.47785 15.8287H6.42838V15.6308C6.42838 15.6308 6.3789 15.5566 6.35416 15.5566C6.32942 15.5566 6.27995 15.606 6.27995 15.6308V15.8287H6.23047V15.6308C6.23047 15.6308 6.27995 15.5071 6.35416 15.5071C6.42838 15.5071 6.47785 15.5566 6.47785 15.6308V15.8287Z" fill="#3E4347"/>
<path d="M6.13151 15.3092H6.30468V15.1361C6.30468 15.1361 6.2552 15.0618 6.23046 15.0618C6.20572 15.0618 6.15625 15.1113 6.15625 15.1361V15.3092H6.13151ZM6.32941 15.3587H6.08203V15.1608C6.08203 15.1608 6.13151 15.0371 6.20572 15.0371C6.27994 15.0371 6.32941 15.0866 6.32941 15.1608V15.3587Z" fill="#3E4347"/>
<path d="M6.40364 15.3092H6.57681V15.1361C6.57681 15.1361 6.52734 15.0618 6.5026 15.0618C6.47786 15.0618 6.42838 15.1113 6.42838 15.1361V15.3092H6.40364ZM6.62629 15.3587H6.37891V15.1608C6.37891 15.1608 6.42838 15.0371 6.5026 15.0371C6.57681 15.0371 6.62629 15.0866 6.62629 15.1608V15.3587Z" fill="#3E4347"/>
<path d="M10.2378 15.8782H11.1036L11.0047 15.4577V15.0124H11.1036V14.8145H10.9799V14.9134H10.9305V14.8145H10.8068V14.9134H10.7078V14.8145H10.6089V14.9134H10.5347V14.8145H10.411V14.9134H10.3367V14.8145H10.2378V15.0124H10.2873H10.3367V15.4577L10.2378 15.8782Z" fill="#FFE72D"/>
<path d="M10.807 15.8782H10.7575V15.6803C10.7575 15.6803 10.708 15.6061 10.6833 15.6061C10.6585 15.6061 10.609 15.6556 10.609 15.6803V15.8782H10.5596V15.6803C10.5596 15.6803 10.609 15.5566 10.6833 15.5566C10.7575 15.5566 10.807 15.6061 10.807 15.6803V15.8782Z" fill="#3E4347"/>
<path d="M10.4359 15.3588H10.609V15.1856C10.609 15.1856 10.5596 15.1114 10.5348 15.1114C10.5101 15.1114 10.4606 15.1609 10.4606 15.1856V15.3588H10.4359ZM10.6585 15.4083H10.4111V15.2104C10.4111 15.2104 10.4606 15.0867 10.5348 15.0867C10.609 15.0867 10.6585 15.1361 10.6585 15.2104V15.4083Z" fill="#3E4347"/>
<path d="M10.7326 15.3588H10.9058V15.1856C10.9058 15.1856 10.8563 15.1114 10.8315 15.1114C10.8068 15.1114 10.7573 15.1609 10.7573 15.1856V15.3588H10.7326ZM10.9305 15.4083H10.6831V15.2104C10.6831 15.2104 10.7326 15.0867 10.8068 15.0867C10.881 15.0867 10.9305 15.1361 10.9305 15.2104V15.4083Z" fill="#3E4347"/>
<path d="M10.2378 13.2808H11.1036L11.0047 12.8355V12.4149H11.1036V12.217H10.9799V12.316H10.9305V12.217H10.8068V12.316H10.7078V12.217H10.6089V12.316H10.5347V12.217H10.411V12.316H10.3367V12.217H10.2378V12.4149H10.2873H10.3367V12.8355L10.2378 13.2808Z" fill="#FFE72D"/>
<path d="M10.807 13.2806H10.7575V13.0827C10.7575 13.0827 10.708 13.0085 10.6833 13.0085C10.6585 13.0085 10.609 13.0579 10.609 13.0827V13.2806H10.5596V13.0827C10.5596 13.0827 10.609 12.959 10.6833 12.959C10.7575 12.959 10.807 13.0085 10.807 13.0827V13.2806Z" fill="#3E4347"/>
<path d="M10.4359 12.7611H10.609V12.588C10.609 12.588 10.5596 12.5138 10.5348 12.5138C10.5101 12.5138 10.4606 12.5632 10.4606 12.588V12.7611H10.4359ZM10.6585 12.8106H10.4111V12.6127C10.4111 12.6127 10.4606 12.489 10.5348 12.489C10.609 12.489 10.6585 12.5385 10.6585 12.6127V12.8106Z" fill="#3E4347"/>
<path d="M10.7326 12.7611H10.9058V12.588C10.9058 12.588 10.8563 12.5138 10.8315 12.5138C10.8068 12.5138 10.7573 12.5632 10.7573 12.588V12.7611H10.7326ZM10.9305 12.8106H10.6831V12.6127C10.6831 12.6127 10.7326 12.489 10.8068 12.489C10.881 12.489 10.9305 12.5385 10.9305 12.6127V12.8106Z" fill="#3E4347"/>
<path d="M7.29391 18.2778L7.91237 17.6594L7.51655 17.4367L7.21969 17.1399L7.29391 17.0657L7.14548 16.9172L7.07126 16.9915L7.14548 17.0657L7.096 17.1151L7.02179 17.0409L6.94757 17.1151L7.02179 17.1894L6.94757 17.2636L6.87336 17.1894L6.79914 17.2636L6.87336 17.3378L6.82388 17.3873L6.74966 17.313L6.67545 17.3873L6.74966 17.4615L6.70019 17.511L6.62597 17.4615L6.55176 17.5357L6.67545 17.6594L6.72493 17.6346L6.74966 17.5852L7.07126 17.9068L7.29391 18.2778Z" fill="#FFE72D"/>
<path d="M7.68992 17.882H7.66519L7.54149 17.783C7.51676 17.7583 7.46728 17.7583 7.4178 17.783C7.39306 17.8078 7.39306 17.8573 7.4178 17.9067L7.54149 18.0304H7.51676L7.39306 17.9315C7.34359 17.882 7.34359 17.8078 7.39306 17.7583C7.44254 17.7088 7.51676 17.7088 7.56623 17.7583L7.68992 17.882Z" fill="#3E4347"/>
<path d="M7.07146 17.7584L7.19515 17.6347L7.07146 17.511C7.07146 17.511 6.99725 17.4862 6.94777 17.511C6.92303 17.5357 6.92303 17.5852 6.94777 17.6347L7.07146 17.7584ZM7.26937 17.6594L7.0962 17.8326L6.94777 17.6842C6.94777 17.6842 6.89829 17.5605 6.94777 17.511C6.99725 17.4615 7.07146 17.4615 7.12094 17.511L7.26937 17.6594Z" fill="#3E4347"/>
<path d="M7.26922 17.5604L7.39291 17.4367L7.26922 17.313C7.26922 17.313 7.195 17.2882 7.14552 17.313C7.12079 17.3377 7.12079 17.3872 7.14552 17.4367L7.26922 17.5604ZM7.46712 17.4614L7.29396 17.6346L7.14552 17.4862C7.14552 17.4862 7.09605 17.3625 7.14552 17.313C7.195 17.2635 7.26922 17.2635 7.31869 17.313L7.46712 17.4614Z" fill="#3E4347"/>
<path d="M9.69382 18.2778L9.1001 17.6594L9.47117 17.4367L9.76803 17.1399L9.71856 17.0657L9.84225 16.9172L9.91646 16.9915L9.84225 17.0657L9.89172 17.1151L9.96594 17.0409L10.0402 17.1151L9.99068 17.1894L10.0402 17.2636L10.1144 17.1894L10.1886 17.2636L10.1144 17.3378L10.1886 17.3873L10.2381 17.313L10.337 17.3873L10.2628 17.4615L10.3123 17.511L10.3865 17.4615L10.4607 17.5357L10.3123 17.6594L10.2875 17.6346L10.2381 17.5852L9.9412 17.9068L9.69382 18.2778Z" fill="#FFE72D"/>
<path d="M9.29785 17.882H9.32259L9.44628 17.783C9.47102 17.7583 9.5205 17.7583 9.56997 17.783C9.61945 17.8078 9.59471 17.8573 9.56997 17.9067L9.44628 18.0304H9.47102L9.59471 17.9315C9.64419 17.882 9.64419 17.8078 9.59471 17.7583C9.54523 17.7088 9.47102 17.7088 9.42154 17.7583L9.29785 17.882Z" fill="#3E4347"/>
<path d="M10.04 17.6594C10.04 17.6594 10.0648 17.5852 10.04 17.5357C10.0153 17.511 9.96581 17.511 9.91633 17.5357L9.79264 17.6594L9.91633 17.7831L10.04 17.6594ZM9.89159 17.511C9.89159 17.511 10.0153 17.4615 10.0648 17.511C10.1142 17.5605 10.1142 17.6347 10.0648 17.6842L9.91633 17.8326L9.74316 17.6594L9.89159 17.511Z" fill="#3E4347"/>
<path d="M9.84227 17.4614C9.84227 17.4614 9.86701 17.3872 9.84227 17.3377C9.81753 17.313 9.76806 17.313 9.71858 17.3377L9.59489 17.4614L9.71858 17.5851L9.84227 17.4614ZM9.69384 17.313C9.69384 17.313 9.81753 17.2635 9.86701 17.313C9.91649 17.3625 9.91649 17.4367 9.86701 17.4862L9.71858 17.6346L9.54541 17.4614L9.69384 17.313Z" fill="#3E4347"/>
</g>
<rect x="1" y="1" width="28" height="28" rx="14" stroke="white" stroke-width="2"/>
<defs>
<clipPath id="clip0_78_4369">
<rect x="2" y="2" width="26" height="26" rx="13" fill="white"/>
</clipPath>
</defs>
</svg>
