<svg width="24" height="24" viewBox="0 0 24 24" fill="none" xmlns="http://www.w3.org/2000/svg">
<path d="M12 0.599609C18.2686 0.599609 23.4004 5.73137 23.4004 12C23.4004 18.2686 18.2686 23.4004 12 23.4004C9.94749 23.4004 7.89416 22.8291 6.18848 21.8057C6.08181 21.7417 5.959 21.7129 5.83691 21.7217L5.71484 21.7432L1.51855 22.9424C1.22093 23.0274 0.943595 22.7566 1.02148 22.457L2.14062 18.1514C2.1785 18.0057 2.1606 17.8506 2.08984 17.7178C1.16917 15.9915 0.599609 14.0476 0.599609 12C0.599609 5.73137 5.73137 0.599609 12 0.599609Z" stroke="white" stroke-width="1.2" stroke-miterlimit="10" stroke-linecap="round" stroke-linejoin="round"/>
<path d="M17 15.1773C17 15.3575 16.9599 15.5428 16.8748 15.7231C16.7897 15.9034 16.6795 16.0736 16.5343 16.2339C16.2889 16.5043 16.0185 16.6995 15.7131 16.8247C15.4126 16.9499 15.0871 17.015 14.7366 17.015C14.2258 17.015 13.68 16.8948 13.1042 16.6495C12.5283 16.4041 11.9524 16.0736 11.3816 15.658C10.8057 15.2374 10.2599 14.7717 9.73911 14.2559C9.22333 13.7351 8.75764 13.1893 8.34201 12.6184C7.9314 12.0476 7.6009 11.4767 7.36054 10.9109C7.12018 10.34 7 9.79419 7 9.27341C7 8.9329 7.06009 8.60741 7.18027 8.30696C7.30045 8.0015 7.49074 7.72108 7.75613 7.47071C8.07661 7.15523 8.42714 7 8.7977 7C8.93791 7 9.07812 7.03005 9.20331 7.09014C9.3335 7.15023 9.44867 7.24036 9.53881 7.37056L10.7006 9.00801C10.7907 9.1332 10.8558 9.24837 10.9009 9.35854C10.9459 9.4637 10.971 9.56885 10.971 9.664C10.971 9.78418 10.9359 9.90436 10.8658 10.0195C10.8007 10.1347 10.7056 10.2549 10.5854 10.3751L10.2048 10.7707C10.1497 10.8257 10.1247 10.8908 10.1247 10.971C10.1247 11.011 10.1297 11.0461 10.1397 11.0861C10.1547 11.1262 10.1698 11.1562 10.1798 11.1863C10.2699 11.3515 10.4251 11.5669 10.6455 11.8272C10.8708 12.0876 11.1112 12.353 11.3716 12.6184C11.642 12.8838 11.9024 13.1292 12.1678 13.3545C12.4281 13.5749 12.6435 13.7251 12.8137 13.8152C12.8388 13.8252 12.8688 13.8403 12.9039 13.8553C12.9439 13.8703 12.984 13.8753 13.029 13.8753C13.1142 13.8753 13.1793 13.8453 13.2344 13.7902L13.6149 13.4146C13.7401 13.2894 13.8603 13.1943 13.9755 13.1342C14.0906 13.0641 14.2058 13.029 14.331 13.029C14.4261 13.029 14.5263 13.0491 14.6365 13.0941C14.7466 13.1392 14.8618 13.2043 14.987 13.2894L16.6445 14.4662C16.7747 14.5563 16.8648 14.6615 16.9199 14.7867C16.97 14.9119 17 15.0371 17 15.1773Z" stroke="white" stroke-miterlimit="10"/>
</svg>
