<svg width="302" height="67" viewBox="0 0 302 67" fill="none" xmlns="http://www.w3.org/2000/svg">
<g clip-path="url(#clip0_332_7607)">
<path d="M12.023 32.455H9.515V41.7724H0V44.1891H9.515V53.4457H12.023V44.1891H21.538V41.7724H12.023V32.455Z" fill="white"/>
<path d="M65.1306 1.32599L64.4618 2.00997C57.5611 8.98663 49.7941 12.133 44.4742 13.5465L44.079 13.6529L44.687 15.5985L45.0518 15.4921C50.1589 14.0177 55.1444 11.7682 58.8531 9.26022V64.0247H42.4526V66.0919H81.455V64.0247H65.1458V1.32599H65.1306Z" fill="white"/>
<path d="M115.396 29.4758C121.476 26.907 125.625 21.2072 125.625 15.2033C125.625 7.39066 119.53 2.34436 110.107 2.34436C100.683 2.34436 93.9492 8.36344 93.9492 17.3161C93.9492 20.8272 95.4692 22.8487 98.0988 22.8487C100.728 22.8487 101.975 20.7664 101.975 18.6992C101.975 17.2249 101.762 16.0849 101.549 14.9753C101.351 13.9113 101.154 12.9081 101.154 11.6466C101.154 7.32986 104.756 4.42672 110.107 4.42672C116.262 4.42672 119.789 8.36344 119.789 15.2185C119.789 21.5416 116.43 26.8159 111.034 29.035C106.656 29.035 102.005 30.1294 102.005 31.7254C102.005 31.9533 102.081 32.2877 102.461 32.5461C103.935 33.5645 109.407 32.4397 112.614 31.2238C119.758 32.6525 124.197 38.8844 124.197 47.5026C124.197 57.7016 118.39 64.6175 109.742 64.7087C103.008 64.7087 99.5883 61.9727 99.5883 56.5768C99.5883 55.3001 99.7555 54.2969 99.9379 53.2329C100.12 52.1385 100.318 50.9986 100.318 49.5242C100.318 47.457 99.1171 45.3747 96.442 45.3747C93.7668 45.3747 92.2925 47.381 92.2925 50.8922C92.2925 60.392 99.2995 66.7758 109.727 66.7758C122.661 66.7758 131.021 59.2064 131.021 47.5026C131.021 38.2916 125.2 31.6494 115.381 29.5062L115.396 29.4758Z" fill="white"/>
<path d="M176.818 60.2856H146.647C166.011 45.4659 176.666 30.4638 176.666 17.9696C176.666 8.48503 169.492 2.35956 158.396 2.35956C147.3 2.35956 140.78 10.9018 140.78 19.1552C140.78 22.6663 142.3 24.6879 144.929 24.6879C147.559 24.6879 148.805 22.6055 148.805 20.5384C148.805 19.064 148.607 17.924 148.425 16.8297C148.243 15.7657 148.075 14.7625 148.075 13.4857C148.075 8.07464 152.195 4.44192 158.32 4.44192C165.935 4.44192 170.115 9.24502 170.115 17.9848C170.115 30.9046 161.679 44.4171 143.576 60.4832L142.725 61.2127C141.16 62.5655 138.56 64.8151 137.74 65.4079L136.767 66.1222H177.016L180.952 54.9809H178.748L176.818 60.3008V60.2856Z" fill="white"/>
<path d="M266.922 40.7844C266.922 31.3758 262.195 25.5239 254.595 25.5239C246.311 25.5239 242.161 32.4702 240.231 37.6533C239.273 30.023 234.82 25.5239 228.071 25.5239C225.077 25.5239 217.994 26.6943 213.86 37.0909V25.0983L213.404 25.1743C210.227 25.6759 207.217 26.1471 202.247 26.1471H201.852V28.1839H208.266V64.0703H201.852V66.1071H219.727V64.0703H213.844V47.6395C213.905 41.0124 216.322 34.5525 220.167 30.783C222.326 28.6703 224.803 27.5607 227.326 27.5607H227.418C232.434 27.6519 234.774 31.847 234.774 40.7844V64.1615H228.01V66.1071H247.132V64.1615H240.368V47.6395C240.429 41.0124 242.845 34.5525 246.691 30.783C248.88 28.6399 251.388 27.5303 253.941 27.5607C258.957 27.6519 261.298 31.847 261.298 40.7844V64.0703H255.415V66.1071H273.29V64.0703H266.876V40.7844H266.922Z" fill="white"/>
<path d="M299.92 28.3055L298.674 31.7862H282.972C293.703 23.4264 298.917 16.0089 298.917 9.13867C298.917 3.43879 294.767 0.0340576 287.836 0.0340576C281.909 0.0340576 277.273 4.28997 277.273 9.71626C277.273 12.0418 278.367 13.425 280.206 13.425C282.045 13.425 282.881 12.0266 282.881 10.6434C282.881 9.71626 282.745 9.00187 282.623 8.31789C282.486 7.6339 282.365 6.98031 282.365 6.12913C282.365 3.84918 284.036 1.53883 287.791 1.53883C291.804 1.53883 293.84 4.09237 293.84 9.13867C293.84 16.3585 288.733 24.8247 279.446 32.9718L278.929 33.4126C278.063 34.1573 276.604 35.4189 276.148 35.7533L275.175 36.4677H298.719L301.531 28.3207H299.92V28.3055Z" fill="white"/>
</g>
<defs>
<clipPath id="clip0_332_7607">
<rect width="301.516" height="66.7643" fill="white"/>
</clipPath>
</defs>
</svg>
