<svg width="486" height="76" viewBox="0 0 486 76" fill="none" xmlns="http://www.w3.org/2000/svg">
<g clip-path="url(#clip0_332_7592)">
<path d="M42.4259 3.91363C42.2991 3.78596 42.1089 3.74341 41.8131 3.74341H0.80288C0.316926 3.74341 0 4.06257 0 4.55195V23.659C0 24.0633 0.253541 24.3186 0.612724 24.3186C0.971907 24.3186 1.22545 24.0633 1.22545 23.659C1.30996 18.6163 1.90156 14.68 2.91572 11.999C3.92989 9.36064 5.30323 7.55206 7.01463 6.61586C8.74716 5.67965 10.9656 5.21155 13.6278 5.21155H18.6564V43.9151C18.6564 47.2344 18.4028 49.6175 17.9169 50.9792C17.4521 52.2984 16.6703 53.1282 15.4871 53.4899C14.2617 53.8942 12.1488 54.0857 9.16973 54.0857C8.36685 54.0857 8.30347 54.5964 8.30347 54.7453C8.30347 54.9581 8.40911 55.3411 9.16973 55.3411C12.2545 55.3411 14.8955 55.2985 17.0295 55.1921C17.6845 55.1496 18.6353 55.1283 19.8818 55.1283H22.7553C23.9596 55.1283 24.8893 55.1496 25.5443 55.1921C27.6571 55.2985 30.3404 55.3411 33.4674 55.3411C33.8055 55.3411 34.0379 55.256 34.1858 55.107C34.2914 54.9794 34.3337 54.8304 34.3125 54.6602C34.2914 54.49 34.1435 54.0857 33.4885 54.0857C30.5306 54.0857 28.3755 53.8942 27.1289 53.4899C25.9457 53.107 25.1428 52.2984 24.678 50.9792C24.192 49.5962 23.9385 47.2131 23.9385 43.9151V5.21155H28.9671C31.6292 5.21155 33.8477 5.67965 35.5803 6.61586C37.2917 7.53078 38.665 9.33936 39.6792 11.999C40.7145 14.68 41.2849 18.6163 41.3694 23.659C41.3694 24.0633 41.623 24.3186 41.9822 24.3186C42.3413 24.3186 42.5949 24.0633 42.5949 23.659V4.55195C42.5949 4.25407 42.5315 4.06257 42.4259 3.9349V3.91363Z" fill="white"/>
<path d="M57.8285 11.1479C58.8427 11.1479 59.6878 10.8075 60.3216 10.1266C60.9555 9.46703 61.2936 8.63721 61.2936 7.65845C61.2936 6.67969 60.9555 5.87115 60.2794 5.21155C59.6033 4.57323 58.7793 4.23279 57.8285 4.23279C56.8355 4.23279 55.9692 4.55195 55.3142 5.21155C54.6381 5.87115 54.3 6.67969 54.3 7.65845C54.3 8.63721 54.6592 9.46703 55.3565 10.1266C56.0537 10.7862 56.8777 11.1267 57.8496 11.1267L57.8285 11.1479Z" fill="white"/>
<path d="M66.0897 54.107C64.3361 54.107 63.0684 53.8942 62.3077 53.4687C61.5894 53.0644 61.1457 52.4473 60.9555 51.575C60.7442 50.6388 60.6386 49.1068 60.6386 47.0216V17.9354C60.6386 17.8078 60.5963 17.5311 60.216 17.3609C60.0047 17.2758 59.7723 17.2758 59.5822 17.3822C58.2511 18.1482 56.9411 18.7865 55.6734 19.3184C54.4057 19.8291 52.9267 20.2334 51.2787 20.5313C51.004 20.5313 50.7927 20.7228 50.7294 20.9994C50.666 21.276 50.7927 21.5313 51.0463 21.659H51.1731C52.5253 21.7866 53.4972 21.9781 54.1099 22.2334C54.6592 22.4675 55.0607 23.0633 55.3354 23.9995C55.6312 24.9995 55.7791 26.6591 55.7791 28.9145V47.0003C55.7791 49.0855 55.6734 50.6175 55.4621 51.5537C55.272 52.4261 54.8283 53.0431 54.131 53.4474C53.4127 53.8729 52.145 54.0857 50.3913 54.0857C49.9899 54.0857 49.7363 54.341 49.7363 54.7027C49.7363 55.0645 49.9899 55.3198 50.3913 55.3198C52.145 55.3198 53.6873 55.2772 54.9762 55.1708C55.2931 55.1283 55.8002 55.107 56.4974 55.107H59.878C60.5752 55.107 61.1245 55.1283 61.5049 55.1708C62.6669 55.2772 64.2093 55.3198 66.0686 55.3198C66.5968 55.3198 66.787 54.9793 66.787 54.7027C66.787 54.4261 66.5968 54.0857 66.0686 54.0857L66.0897 54.107Z" fill="white"/>
<path d="M105.283 19.1908H105.22C102.895 17.9993 100.529 17.4248 98.1837 17.4248C95.4582 17.4248 93.0284 17.9142 90.979 18.8716C88.9506 19.8291 87.197 21.0207 85.7814 22.425C84.5348 23.659 83.1403 25.2336 81.6191 27.1273C81.6191 25.191 81.5768 23.5314 81.4289 22.1909C81.2599 20.5951 80.7528 19.0419 79.9288 17.5737C79.802 17.3184 79.5485 17.1907 79.2949 17.2758C79.147 17.3184 79.0203 17.3822 78.9358 17.446C76.844 19.0844 74.6889 20.127 72.5338 20.5525H72.4493C72.2592 20.6802 72.1113 20.8504 72.069 21.0419C72.0056 21.276 72.1113 21.5739 72.5761 21.7228C73.7382 21.8079 74.6467 22.1271 75.2805 22.6165C75.9144 23.1058 76.337 23.9357 76.5905 25.0846C76.844 26.2762 76.9708 28.0209 76.9708 30.255V65.1287C76.9708 67.2139 76.8652 68.7458 76.6539 69.682C76.4637 70.5544 76.02 71.1715 75.3228 71.5757C74.6044 72.0013 73.3367 72.2141 71.6042 72.2141C71.2028 72.2141 70.9492 72.4694 70.9492 72.8311C70.9492 73.1928 71.2028 73.4481 71.6042 73.4481C73.4212 73.4481 74.9214 73.4056 76.1045 73.2992C76.4637 73.2566 77.0131 73.2354 77.7103 73.2354H81.0063C81.9149 73.2354 82.6121 73.2566 83.1403 73.2992C84.6827 73.4056 86.6476 73.4481 88.9718 73.4481C89.7324 73.4481 89.7746 72.9375 89.7746 72.8311C89.7746 72.7247 89.7324 72.2141 88.9718 72.2141C86.6476 72.2141 84.9574 72.0013 83.9854 71.5545C83.0558 71.1289 82.4642 70.5119 82.2107 69.6608C81.936 68.7246 81.7881 67.2139 81.7881 65.1287V51.6175C82.9713 52.6814 84.5137 53.6389 86.4152 54.4262C88.676 55.3836 91.2325 55.873 94.0003 55.873C96.9372 55.873 99.9374 54.9581 102.917 53.1495C105.896 51.3409 108.41 48.7664 110.375 45.4896C112.34 42.2129 113.333 38.4468 113.333 34.2977C113.333 30.4891 112.551 27.2762 111.009 24.7442C109.487 22.2335 107.544 20.3611 105.241 19.2121L105.283 19.1908ZM104.417 49.3409C102.283 52.3197 98.9866 53.8091 94.6342 53.8091C91.9931 53.8091 89.4366 52.9367 87.0491 51.192C84.6616 49.4685 82.929 47.4472 81.8515 45.1918V29.1273C84.0066 26.4677 86.0772 24.2974 87.9998 22.7441C89.9225 21.1909 92.1621 20.4036 94.6976 20.4036C97.233 20.4036 99.3881 21.0419 101.311 22.2973C103.255 23.5527 104.818 25.4463 105.959 27.9358C107.1 30.4253 107.692 33.4892 107.692 37.0425C107.692 42.1917 106.593 46.3407 104.417 49.3409Z" fill="white"/>
<path d="M149.716 19.6376C146.927 18.1269 143.631 17.3397 139.955 17.3397C136.278 17.3397 132.771 18.2333 129.686 19.9993C126.601 21.7654 124.15 24.191 122.376 27.2336C120.601 30.2763 119.692 33.6381 119.692 37.2553C119.692 40.8724 120.474 44.2768 122.038 47.0642C123.601 49.8728 125.82 52.0644 128.651 53.5751C131.461 55.0857 134.799 55.8517 138.518 55.8517C142.236 55.8517 145.617 54.9581 148.659 53.1921C151.702 51.426 154.132 49.0004 155.906 45.9577C157.681 42.9151 158.59 39.532 158.59 35.851C158.59 32.17 157.808 28.9146 156.287 26.1272C154.744 23.3186 152.547 21.127 149.737 19.6163L149.716 19.6376ZM151.047 46.7663C149.8 49.1919 148.131 51.0856 146.124 52.341C144.117 53.5963 141.983 54.2347 139.828 54.2347C136.997 54.2347 134.461 53.3623 132.285 51.6814C130.088 49.9792 128.376 47.6387 127.151 44.7449C125.925 41.8512 125.313 38.6596 125.313 35.2978C125.313 31.936 125.946 28.9358 127.214 26.4889C128.461 24.042 130.13 22.1696 132.116 20.9143C134.102 19.6589 136.215 19.0206 138.391 19.0206C141.264 19.0206 143.821 19.8929 145.997 21.5739C148.195 23.2973 149.906 25.6166 151.131 28.5103C152.357 31.4253 152.97 34.5956 152.97 37.9575C152.97 41.3193 152.336 44.3194 151.068 46.7663H151.047Z" fill="white"/>
<path d="M180.521 54.107C178.768 54.107 177.5 53.8942 176.739 53.4687C176.021 53.0644 175.577 52.4474 175.387 51.575C175.176 50.6388 175.07 49.1068 175.07 47.0216V0.785852C175.07 0.402859 174.859 0.23264 174.711 0.168808C174.479 0.0624209 174.204 0.104976 174.056 0.253917C173.105 0.870962 171.69 1.59439 169.83 2.42421C167.971 3.25403 166.323 3.91363 164.928 4.38173C164.569 4.40301 164.421 4.67962 164.421 4.93494C164.421 5.21155 164.59 5.4456 164.886 5.55199L164.971 5.59454H165.076C165.478 5.48816 166.027 5.4456 166.724 5.4456C168.055 5.4456 168.985 5.82859 169.471 6.5733C169.978 7.38184 170.232 8.61593 170.232 10.2756V47.0216C170.232 49.1068 170.126 50.6388 169.915 51.575C169.725 52.4474 169.281 53.0644 168.584 53.4687C167.865 53.8942 166.598 54.107 164.844 54.107C164.443 54.107 164.189 54.3623 164.189 54.724C164.189 55.0858 164.443 55.3411 164.844 55.3411C166.598 55.3411 168.14 55.2985 169.429 55.1921C169.746 55.1496 170.253 55.1283 170.95 55.1283H174.331C175.028 55.1283 175.577 55.1496 175.957 55.1921C177.12 55.2985 178.662 55.3411 180.521 55.3411C181.049 55.3411 181.24 55.0006 181.24 54.724C181.24 54.4474 181.049 54.107 180.521 54.107Z" fill="white"/>
<path d="M216.799 19.6376C214.01 18.1269 210.714 17.3397 207.037 17.3397C203.361 17.3397 199.854 18.2333 196.769 19.9993C193.684 21.7654 191.212 24.191 189.458 27.2336C187.684 30.2763 186.775 33.6381 186.775 37.2553C186.775 40.8724 187.557 44.2768 189.12 47.0642C190.684 49.8728 192.902 52.0644 195.734 53.5751C198.544 55.0857 201.882 55.8517 205.601 55.8517C209.319 55.8517 212.7 54.9581 215.742 53.1921C218.785 51.426 221.214 49.0004 222.989 45.9577C224.764 42.9151 225.673 39.532 225.673 35.851C225.673 32.17 224.891 28.9146 223.37 26.1272C221.827 23.3186 219.63 21.127 216.82 19.6163L216.799 19.6376ZM218.13 46.7663C216.883 49.1919 215.214 51.0643 213.207 52.341C211.2 53.5963 209.066 54.2347 206.889 54.2347C204.058 54.2347 201.523 53.3623 199.347 51.6814C197.149 49.9792 195.438 47.6387 194.212 44.7449C192.987 41.8512 192.374 38.6596 192.374 35.2978C192.374 31.936 193.008 28.9358 194.276 26.4889C195.522 24.042 197.17 22.1696 199.178 20.9143C201.164 19.6589 203.276 19.0206 205.453 19.0206C208.326 19.0206 210.883 19.8929 213.059 21.5739C215.256 23.2973 216.968 25.6166 218.193 28.5103C219.419 31.4253 220.031 34.5956 220.031 37.9575C220.031 41.3193 219.397 44.3194 218.13 46.7663Z" fill="white"/>
<path d="M267.591 12.5097C266.873 12.5097 266.218 12.6374 265.647 12.8927C264.338 13.4246 263.006 14.1693 261.654 15.1055C260.386 15.9779 258.844 17.2333 257.027 18.8078C255.062 17.8503 252.823 17.3609 250.329 17.3609C246.991 17.3609 244.054 17.9567 241.646 19.127C239.216 20.3185 237.357 21.9356 236.11 23.9569C234.863 25.9783 234.23 28.255 234.23 30.7444C234.23 33.5105 235.117 36.0638 236.849 38.3192C238.413 40.3192 240.42 41.8299 242.871 42.7874C241.35 43.5108 240.124 44.4045 239.216 45.4258C238.096 46.6812 237.547 47.7663 237.547 48.7451C237.547 51.043 238.983 52.575 241.857 53.2985L256.731 57.0645C262.035 58.4476 264.718 60.6179 264.718 63.5116C264.718 65.1925 264.021 66.767 262.668 68.2139C261.274 69.682 259.436 70.8523 257.175 71.7034C252.569 73.4269 247.308 73.4056 242.343 71.6396C239.829 70.7459 237.758 69.5544 236.152 68.0862C234.589 66.6607 233.786 65.1287 233.786 63.5116C233.786 63.1499 233.955 62.7243 234.272 62.235C234.631 61.703 235.349 60.7243 236.448 59.3412L236.659 59.0859L235.793 58.2135L235.54 58.4901C233.342 60.8945 231.927 62.6605 231.229 63.8733C230.511 65.1074 230.131 66.4904 230.131 68.0011C230.131 69.3203 230.87 70.597 232.307 71.8311C233.701 73.0226 235.603 74.0014 237.969 74.7673C240.315 75.512 242.913 75.895 245.66 75.895C249.146 75.895 252.738 75.1929 256.393 73.8099C260.048 72.4268 263.112 70.5757 265.542 68.299C267.993 66.0011 269.239 63.5116 269.239 60.8945C269.239 59.2136 268.415 57.5326 266.767 55.9156C265.14 54.341 262.14 53.0644 257.83 52.1282L243.611 48.9366C242.596 48.7025 242.258 48.4046 242.132 48.2557C241.92 47.9578 241.815 47.5961 241.815 47.1493C241.815 46.6599 242.11 46.0003 242.681 45.1918C243.23 44.4258 243.991 43.8087 244.921 43.4045C246.104 43.7236 247.477 43.8938 248.998 43.8938C252.294 43.8938 255.189 43.3194 257.598 42.1491C260.027 41.0001 261.887 39.383 263.133 37.383C264.38 35.3829 265.014 33.1062 265.014 30.638C265.014 28.1699 264.359 25.957 263.091 23.8931C261.908 21.9994 260.323 20.4887 258.358 19.361C259.14 18.7865 260.112 18.1695 261.295 17.5524C261.865 17.5524 262.288 17.5737 262.626 17.6163L264.359 17.6801C265.647 17.6801 266.746 17.4673 267.57 17.0843C269.113 16.5524 269.894 15.7013 269.894 14.5523C269.894 14.1055 269.831 13.7651 269.725 13.5736C269.472 12.8289 268.774 12.4459 267.655 12.4459L267.591 12.5097ZM259.837 31.4678C259.837 34.6382 259.013 37.2979 257.365 39.3405C255.738 41.3618 253.583 42.3832 250.942 42.3832C247.139 42.3832 244.244 41.2554 242.343 39C240.42 36.7446 239.448 33.702 239.448 29.9359C239.448 26.7017 240.293 24.0633 241.941 22.042C243.589 20.0419 245.829 19.0206 248.618 19.0206C252.231 19.0206 255.02 20.1483 256.921 22.4037C258.844 24.6591 259.816 27.7017 259.816 31.4466L259.837 31.4678Z" fill="white"/>
<path d="M289.861 54.107C288.107 54.107 286.839 53.8942 286.079 53.4687C285.36 53.0644 284.917 52.4473 284.727 51.575C284.515 50.6388 284.41 49.1068 284.41 47.0216V17.9354C284.41 17.8078 284.367 17.5311 283.987 17.3609C283.776 17.2758 283.564 17.2758 283.353 17.3822C282.022 18.1482 280.712 18.7865 279.444 19.3184C278.177 19.8291 276.698 20.2334 275.05 20.5313C274.775 20.5313 274.564 20.7228 274.5 20.9994C274.437 21.276 274.564 21.5313 274.817 21.659H274.944C276.296 21.7866 277.268 21.9781 277.881 22.2334C278.43 22.4675 278.832 23.0633 279.106 23.9995C279.402 24.9995 279.55 26.6591 279.55 28.9145V47.0003C279.55 49.0855 279.444 50.6175 279.233 51.5537C279.043 52.4261 278.599 53.0431 277.902 53.4474C277.184 53.8729 275.916 54.0857 274.162 54.0857C273.761 54.0857 273.507 54.341 273.507 54.7027C273.507 55.0645 273.761 55.3198 274.162 55.3198C275.916 55.3198 277.458 55.2772 278.747 55.1708C279.064 55.1283 279.571 55.107 280.268 55.107H283.649C284.346 55.107 284.896 55.1283 285.276 55.1708C286.438 55.2772 287.98 55.3198 289.84 55.3198C290.368 55.3198 290.558 54.9793 290.558 54.7027C290.558 54.4261 290.368 54.0857 289.84 54.0857L289.861 54.107Z" fill="white"/>
<path d="M281.599 11.1479C282.614 11.1479 283.459 10.8075 284.093 10.1266C284.727 9.46703 285.065 8.63721 285.065 7.65845C285.065 6.67969 284.727 5.87115 284.05 5.21155C283.374 4.57323 282.55 4.23279 281.599 4.23279C280.606 4.23279 279.74 4.55195 279.085 5.21155C278.409 5.84987 278.071 6.67969 278.071 7.65845C278.071 8.63721 278.43 9.46703 279.127 10.1266C279.825 10.7862 280.649 11.1267 281.621 11.1267L281.599 11.1479Z" fill="white"/>
<path d="M335.688 50.9154C335.561 50.9367 335.435 51.0218 335.392 51.1282C334.801 51.8941 334.23 52.4474 333.702 52.7665C333.195 53.0644 332.519 53.2133 331.737 53.2133C330.385 53.2133 329.73 52.2559 329.73 50.2558V29.1273C329.73 24.4676 328.42 21.2973 325.821 19.7015C323.286 18.1269 320.117 17.3397 316.44 17.3397C313.926 17.3397 311.391 17.829 308.897 18.8078C306.425 19.7866 304.355 21.0206 302.749 22.4675C301.101 23.9569 300.256 25.4463 300.256 26.9145C300.256 27.6379 300.509 28.2762 301.017 28.7656C301.524 29.2763 302.157 29.5316 302.939 29.5316C304.418 29.5316 305.559 28.7869 306.278 27.2975C306.932 25.957 307.545 23.8505 308.073 21.0206C309.32 20.4462 310.545 19.9568 311.686 19.5951C312.87 19.2121 314.222 19.0419 315.701 19.0419C317.074 19.0419 318.49 19.4036 319.884 20.0844C321.279 20.7653 322.462 21.8717 323.392 23.3612C324.321 24.8293 324.807 26.7655 324.807 29.0848V32.3828C315.574 33.7871 308.897 35.6808 304.989 38.0213C300.932 40.4469 298.883 43.4045 298.883 46.8088C298.883 49.5749 299.876 51.7878 301.819 53.4261C303.742 55.0432 306.32 55.873 309.447 55.873C312.003 55.873 314.391 55.1709 316.567 53.7878C318.722 52.4261 320.581 50.6601 322.082 48.5961C323.222 47.0003 324.173 45.3833 324.87 43.7449V50.0005C324.87 53.8942 326.561 55.873 329.899 55.873C332.054 55.873 334.23 54.5538 336.364 51.9792L336.449 51.8729V51.7452C336.449 51.4899 336.343 51.2558 336.132 51.0856C335.963 50.9579 335.794 50.9154 335.646 50.9367L335.688 50.9154ZM324.849 41.2342C323.539 44.2343 321.68 46.8088 319.335 48.894C316.99 50.9579 314.37 52.0218 311.496 52.0218C309.383 52.0218 307.587 51.4048 306.13 50.192C304.693 49.0004 303.953 47.4046 303.953 45.4471C303.953 43.1279 305.454 40.8512 308.39 38.7022C311.348 36.5531 316.863 34.9148 324.828 33.8722V41.2554L324.849 41.2342Z" fill="white"/>
<path d="M369.452 38.0638C367.296 36.5744 364.254 35.2765 360.409 34.2126L354.366 32.553C351.514 31.8083 349.549 30.9359 348.534 29.9571C347.541 29.0209 347.034 27.5741 347.034 25.6804C347.034 23.6165 347.816 21.9994 349.401 20.7653C351.006 19.5312 352.95 18.8929 355.211 18.8929C357.007 18.8929 358.908 19.4461 360.895 20.5525C362.881 21.659 364.698 23.3612 366.346 25.6166C367.973 27.872 369.198 30.6806 369.98 33.9573C370.085 34.1701 370.297 34.2977 370.571 34.2977C370.74 34.2977 370.867 34.2552 370.973 34.1488C371.078 34.0424 371.121 33.9147 371.121 33.7232L368.311 17.2758L368.247 17.1482C368.099 16.9354 367.93 16.8928 367.825 16.8716C367.656 16.8716 367.465 16.9354 367.296 17.1056L367.233 17.1907C367.233 17.1907 367.085 17.446 366.916 17.7439C366.768 17.978 366.515 18.2546 366.113 18.5312C365.754 18.7865 365.226 18.9355 364.529 18.9355C363.937 18.9355 362.775 18.7227 361.106 18.2971C358.465 17.6588 356.542 17.3397 355.274 17.3397C352.021 17.3397 349.084 18.1056 346.57 19.5951C343.992 21.127 342.682 23.6803 342.682 27.1911C342.682 32.0423 346.041 35.3616 352.654 37.1063L360.134 39.2128C363.367 40.1065 365.627 41.0852 366.811 42.1278C367.973 43.1279 368.543 44.7237 368.543 46.8727C368.543 49.0217 367.592 50.8515 365.712 52.2559C363.789 53.6814 361.254 54.3836 358.127 54.3836C356.183 54.3836 354.176 53.8304 352.169 52.724C350.14 51.6175 348.281 49.9153 346.612 47.6599C344.943 45.4045 343.675 42.5534 342.83 39.2341C342.724 38.9362 342.513 38.766 342.217 38.766C342.069 38.766 341.942 38.8298 341.837 38.9149C341.752 39 341.668 39.149 341.668 39.4256L344.562 56.1283C344.647 56.3837 344.816 56.4475 344.921 56.4901C344.964 56.4901 344.985 56.4901 345.027 56.4901C345.175 56.4901 345.344 56.4049 345.513 56.2135C345.598 56.0645 345.767 55.8517 345.978 55.5326C346.168 55.256 346.464 54.9581 346.823 54.6815C347.161 54.4261 347.689 54.2772 348.365 54.2772C349.147 54.2772 350.352 54.49 351.936 54.9155C354.535 55.5539 356.775 55.873 358.549 55.873C362.331 55.873 365.691 54.9581 368.48 53.1708C371.332 51.3409 372.79 48.4685 372.79 44.6385C372.79 41.8299 371.649 39.6171 369.43 38.0638H369.452Z" fill="white"/>
<path d="M445.831 3.91363C445.704 3.78596 445.514 3.74341 445.218 3.74341H404.208C403.722 3.74341 403.405 4.06257 403.405 4.55195V23.659C403.405 24.0633 403.658 24.3186 404.018 24.3186C404.377 24.3186 404.63 24.0633 404.63 23.659C404.715 18.6163 405.285 14.7013 406.321 11.999C407.335 9.36064 408.708 7.55206 410.419 6.61586C412.152 5.67965 414.392 5.21155 417.033 5.21155H422.061V43.9151C422.061 47.2344 421.808 49.6175 421.322 50.9792C420.857 52.2984 420.054 53.1282 418.892 53.4899C417.666 53.8942 415.554 54.0857 412.575 54.0857C411.772 54.0857 411.708 54.5964 411.708 54.7453C411.708 54.9581 411.814 55.3411 412.575 55.3411C415.659 55.3411 418.3 55.2985 420.434 55.1921C421.089 55.1496 422.04 55.1283 423.287 55.1283H426.16C427.343 55.1283 428.294 55.1496 428.949 55.1921C431.062 55.2985 433.745 55.3411 436.872 55.3411C437.21 55.3411 437.443 55.256 437.569 55.107C437.675 54.9794 437.717 54.8304 437.696 54.6602C437.675 54.49 437.527 54.0857 436.872 54.0857C433.893 54.0857 431.759 53.8942 430.513 53.4899C429.329 53.107 428.527 52.2984 428.062 50.9792C427.576 49.5962 427.322 47.2131 427.322 43.9151V5.21155H432.351C435.013 5.21155 437.231 5.67965 438.964 6.61586C440.675 7.53078 442.049 9.33936 443.063 11.999C444.098 14.7013 444.669 18.6163 444.753 23.659C444.753 24.0633 445.007 24.3186 445.366 24.3186C445.725 24.3186 445.979 24.0633 445.979 23.659V4.55195C445.979 4.25407 445.936 4.06257 445.81 3.9349L445.831 3.91363Z" fill="white"/>
<path d="M471.988 53.341V2.31783L471.354 2.95615C465.797 8.61593 459.522 11.1692 455.254 12.3182L454.874 12.4246L455.402 14.1055L455.74 13.9991C459.818 12.8289 463.832 10.999 466.811 8.99893V53.341H453.564V55.1283H485.151V53.341H471.988Z" fill="white"/>
</g>
<defs>
<clipPath id="clip0_332_7592">
<rect width="485.151" height="76" fill="white"/>
</clipPath>
</defs>
</svg>
