<svg width="44" height="63" viewBox="0 0 44 63" fill="none" xmlns="http://www.w3.org/2000/svg">
<g clip-path="url(#clip0_332_7618)">
<path d="M41.5855 51.9893L39.6777 57.2468H9.84512C28.9825 42.6009 39.5125 27.7747 39.5125 15.427C39.5275 6.05365 32.4374 0 21.4717 0C10.5061 0 4.06186 8.44206 4.06186 16.5987C4.06186 20.0687 5.564 22.0665 8.16271 22.0665C10.7614 22.0665 11.9932 20.0086 11.9932 17.9657C11.9932 16.5086 11.7979 15.382 11.6177 14.3004C11.4374 13.2489 11.2722 12.2575 11.2722 10.9957C11.2722 5.64807 15.343 2.05794 21.3966 2.05794C28.9224 2.05794 33.0533 6.80472 33.0533 15.4421C33.0533 28.2103 24.7164 41.5644 6.8258 57.4421L5.9846 58.1631C4.43739 59.5 1.86872 61.7232 1.05756 62.309L0.0961914 63.015H39.873L43.7636 52.0043H41.5855V51.9893Z" fill="white"/>
</g>
<defs>
<clipPath id="clip0_332_7618">
<rect width="43.8446" height="63" fill="white"/>
</clipPath>
</defs>
</svg>
