<svg width="219" height="34" viewBox="0 0 219 34" fill="none" xmlns="http://www.w3.org/2000/svg">
<path d="M19.1513 1.70115C19.0941 1.64404 19.0082 1.625 18.8747 1.625H0.362425C0.143062 1.625 0 1.76778 0 1.98672V10.5346C0 10.7155 0.11445 10.8297 0.276587 10.8297C0.438725 10.8297 0.553175 10.7155 0.553175 10.5346C0.591325 8.27866 0.858375 6.51768 1.31617 5.31831C1.77397 4.13797 2.39391 3.32887 3.16645 2.91004C3.94852 2.49121 4.94996 2.2818 6.15169 2.2818H8.42161V19.5966C8.42161 21.0815 8.30716 22.1476 8.0878 22.7568C7.87797 23.347 7.52508 23.7182 6.99098 23.88C6.43781 24.0609 5.48406 24.1466 4.13927 24.1466C3.77685 24.1466 3.74824 24.375 3.74824 24.4416C3.74824 24.5368 3.79592 24.7082 4.13927 24.7082C5.53175 24.7082 6.72394 24.6891 7.68722 24.6415C7.98288 24.6225 8.41207 24.613 8.97478 24.613H10.2719C10.8155 24.613 11.2352 24.6225 11.5308 24.6415C12.4846 24.6891 13.6958 24.7082 15.1074 24.7082C15.26 24.7082 15.3649 24.6701 15.4317 24.6035C15.4794 24.5463 15.4984 24.4797 15.4889 24.4036C15.4794 24.3274 15.4126 24.1466 15.1169 24.1466C13.7817 24.1466 12.8089 24.0609 12.2461 23.88C11.712 23.7087 11.3496 23.347 11.1398 22.7568C10.9204 22.1381 10.806 21.072 10.806 19.5966V2.2818H13.0759C14.2776 2.2818 15.2791 2.49121 16.0611 2.91004C16.8337 3.31935 17.4536 4.12845 17.9114 5.31831C18.3788 6.51768 18.6363 8.27866 18.6744 10.5346C18.6744 10.7155 18.7889 10.8297 18.951 10.8297C19.1131 10.8297 19.2276 10.7155 19.2276 10.5346V1.98672C19.2276 1.85345 19.199 1.76778 19.1513 1.71067V1.70115Z" fill="#E1B260"/>
<path d="M26.1045 4.93737C26.5623 4.93737 26.9438 4.78507 27.2299 4.48047C27.516 4.18538 27.6686 3.81415 27.6686 3.37628C27.6686 2.93842 27.516 2.5767 27.2108 2.28162C26.9056 1.99605 26.5337 1.84375 26.1045 1.84375C25.6562 1.84375 25.2652 1.98653 24.9695 2.28162C24.6643 2.5767 24.5117 2.93842 24.5117 3.37628C24.5117 3.81415 24.6739 4.18538 24.9886 4.48047C25.3033 4.77555 25.6753 4.92785 26.114 4.92785L26.1045 4.93737Z" fill="#E1B260"/>
<path d="M29.8332 24.154C29.0416 24.154 28.4693 24.0588 28.126 23.8684C27.8017 23.6876 27.6014 23.4115 27.5156 23.0212C27.4202 22.6024 27.3725 21.9171 27.3725 20.9842V7.97197C27.3725 7.91486 27.3534 7.79112 27.1818 7.71497C27.0864 7.67689 26.9815 7.67689 26.8956 7.72448C26.2948 8.06716 25.7035 8.35273 25.1312 8.5907C24.559 8.81915 23.8913 9.00001 23.1474 9.13327C23.0234 9.13327 22.928 9.21894 22.8994 9.34269C22.8708 9.46643 22.928 9.58066 23.0425 9.63777H23.0997C23.7101 9.69488 24.1488 9.78055 24.4254 9.89478C24.6734 9.99949 24.8546 10.266 24.9786 10.6848C25.1121 11.1322 25.1789 11.8747 25.1789 12.8837V20.9747C25.1789 21.9075 25.1312 22.5929 25.0358 23.0117C24.95 23.402 24.7497 23.678 24.435 23.8589C24.1107 24.0493 23.5384 24.1445 22.7468 24.1445C22.5656 24.1445 22.4512 24.2587 22.4512 24.4205C22.4512 24.5823 22.5656 24.6966 22.7468 24.6966C23.5384 24.6966 24.2347 24.6775 24.8165 24.6299C24.9595 24.6109 25.1884 24.6014 25.5032 24.6014H27.0292C27.3439 24.6014 27.5919 24.6109 27.7636 24.6299C28.2881 24.6775 28.9844 24.6966 29.8237 24.6966C30.0621 24.6966 30.1479 24.5443 30.1479 24.4205C30.1479 24.2968 30.0621 24.1445 29.8237 24.1445L29.8332 24.154Z" fill="#E1B260"/>
<path d="M47.5258 8.53641H47.4972C46.448 8.00336 45.3798 7.74635 44.3212 7.74635C43.0908 7.74635 41.994 7.96528 41.0689 8.39363C40.1533 8.82198 39.3617 9.35503 38.7227 9.98327C38.16 10.5354 37.5305 11.2398 36.8438 12.0869C36.8438 11.2207 36.8247 10.4783 36.7579 9.87857C36.6816 9.16465 36.4527 8.46978 36.0808 7.81298C36.0236 7.69875 35.9091 7.64164 35.7947 7.67972C35.7279 7.69875 35.6707 7.72731 35.6325 7.75587C34.6883 8.48882 33.7155 8.95524 32.7427 9.14562H32.7045C32.6187 9.20273 32.5519 9.27888 32.5328 9.36455C32.5042 9.46926 32.5519 9.60252 32.7617 9.66915C33.2863 9.70723 33.6964 9.85001 33.9825 10.0689C34.2687 10.2879 34.4594 10.6591 34.5739 11.1731C34.6883 11.7062 34.7455 12.4867 34.7455 13.4862V29.0876C34.7455 30.0204 34.6978 30.7058 34.6025 31.1246C34.5166 31.5149 34.3163 31.7909 34.0016 31.9718C33.6773 32.1622 33.1051 32.2573 32.323 32.2573C32.1418 32.2573 32.0273 32.3716 32.0273 32.5334C32.0273 32.6952 32.1418 32.8094 32.323 32.8094C33.1432 32.8094 33.8204 32.7904 34.3545 32.7428C34.5166 32.7238 34.7646 32.7142 35.0793 32.7142H36.5672C36.9773 32.7142 37.292 32.7238 37.5305 32.7428C38.2267 32.7904 39.1137 32.8094 40.1628 32.8094C40.5062 32.8094 40.5253 32.581 40.5253 32.5334C40.5253 32.4858 40.5062 32.2573 40.1628 32.2573C39.1137 32.2573 38.3507 32.1622 37.912 31.9623C37.4923 31.7719 37.2253 31.4958 37.1108 31.1151C36.9868 30.6963 36.9201 30.0204 36.9201 29.0876V23.0431C37.4542 23.5191 38.1504 23.9474 39.0088 24.2996C40.0293 24.7279 41.1833 24.9469 42.4328 24.9469C43.7585 24.9469 45.1128 24.5376 46.4576 23.7285C47.8024 22.9194 48.9373 21.7676 49.8243 20.3017C50.7113 18.8358 51.1596 17.151 51.1596 15.2948C51.1596 13.5909 50.8067 12.1536 50.1104 11.0208C49.4237 9.8976 48.5463 9.05995 47.5067 8.54593L47.5258 8.53641ZM47.1347 22.0246C46.1714 23.3572 44.6836 24.0236 42.7189 24.0236C41.5267 24.0236 40.3727 23.6333 39.2949 22.8527C38.2172 22.0817 37.4351 21.1774 36.9487 20.1684V12.9817C37.9215 11.7919 38.8562 10.8209 39.7241 10.1261C40.592 9.43118 41.603 9.07898 42.7475 9.07898C43.892 9.07898 44.8648 9.36455 45.7327 9.92616C46.6102 10.4878 47.316 11.3349 47.831 12.4487C48.346 13.5624 48.6131 14.9331 48.6131 16.5227C48.6131 18.8263 48.1171 20.6824 47.1347 22.0246Z" fill="#E1B260"/>
<path d="M67.5831 8.73507C66.3241 8.05923 64.8363 7.70703 63.1767 7.70703C61.5172 7.70703 59.934 8.10682 58.5415 8.89689C57.149 9.68695 56.0427 10.7721 55.2415 12.1333C54.4404 13.4945 54.0303 14.9985 54.0303 16.6167C54.0303 18.2349 54.3832 19.7579 55.0889 21.0048C55.7947 22.2613 56.7961 23.2418 58.0742 23.9176C59.3427 24.5934 60.8496 24.9361 62.5282 24.9361C64.2068 24.9361 65.7328 24.5363 67.1062 23.7463C68.4796 22.9562 69.5764 21.8711 70.3775 20.5099C71.1787 19.1487 71.5888 17.6352 71.5888 15.9884C71.5888 14.3417 71.2359 12.8853 70.5492 11.6383C69.853 10.3818 68.8611 9.40138 67.5926 8.72555L67.5831 8.73507ZM68.1839 20.8716C67.6212 21.9567 66.8677 22.8039 65.9617 23.3655C65.0556 23.9271 64.0923 24.2127 63.1195 24.2127C61.8415 24.2127 60.697 23.8224 59.7146 23.0704C58.7227 22.3089 57.9502 21.2618 57.397 19.9673C56.8438 18.6727 56.5672 17.2449 56.5672 15.7409C56.5672 14.237 56.8534 12.8948 57.4256 11.8001C57.9883 10.7055 58.7418 9.86781 59.6383 9.30619C60.5348 8.74458 61.4886 8.45902 62.471 8.45902C63.7681 8.45902 64.9221 8.84929 65.9045 9.60128C66.8964 10.3723 67.6689 11.4099 68.2221 12.7044C68.7752 14.0085 69.0518 15.4268 69.0518 16.9308C69.0518 18.4348 68.7657 19.7769 68.1935 20.8716H68.1839Z" fill="#E1B260"/>
<path d="M81.4887 24.1567C80.6971 24.1567 80.1248 24.0615 79.7815 23.8711C79.4572 23.6903 79.2569 23.4142 79.1711 23.0239C79.0757 22.6051 79.028 21.9198 79.028 20.9869V0.302484C79.028 0.131145 78.9327 0.0549947 78.8659 0.0264382C78.761 -0.021156 78.637 -0.00211831 78.5702 0.0645135C78.141 0.34056 77.502 0.6642 76.6627 1.03543C75.8234 1.40667 75.0795 1.70175 74.45 1.91117C74.2879 1.92069 74.2211 2.04443 74.2211 2.15866C74.2211 2.2824 74.2974 2.38711 74.431 2.4347L74.4691 2.45374H74.5168C74.698 2.40615 74.946 2.38711 75.2607 2.38711C75.8616 2.38711 76.2812 2.55845 76.5006 2.89161C76.7295 3.25332 76.8439 3.80542 76.8439 4.54788V20.9869C76.8439 21.9198 76.7962 22.6051 76.7009 23.0239C76.615 23.4142 76.4147 23.6903 76.1 23.8711C75.7757 24.0615 75.2035 24.1567 74.4119 24.1567C74.2307 24.1567 74.1162 24.2709 74.1162 24.4327C74.1162 24.5945 74.2307 24.7088 74.4119 24.7088C75.2035 24.7088 75.8997 24.6897 76.4815 24.6421C76.6246 24.6231 76.8535 24.6136 77.1682 24.6136H78.6942C79.009 24.6136 79.2569 24.6231 79.4286 24.6421C79.9532 24.6897 80.6494 24.7088 81.4887 24.7088C81.7271 24.7088 81.813 24.5565 81.813 24.4327C81.813 24.309 81.7271 24.1567 81.4887 24.1567Z" fill="#E1B260"/>
<path d="M97.8643 8.73507C96.6054 8.05923 95.1175 7.70703 93.458 7.70703C91.7985 7.70703 90.2152 8.10682 88.8228 8.89689C87.4303 9.68695 86.3144 10.7721 85.5228 12.1333C84.7216 13.4945 84.3115 14.9985 84.3115 16.6167C84.3115 18.2349 84.6644 19.7579 85.3702 21.0048C86.076 22.2613 87.0774 23.2418 88.3554 23.9176C89.6239 24.5934 91.1308 24.9361 92.8094 24.9361C94.488 24.9361 96.014 24.5363 97.3874 23.7463C98.7608 22.9562 99.8576 21.8711 100.659 20.5099C101.46 19.1487 101.87 17.6352 101.87 15.9884C101.87 14.3417 101.517 12.8853 100.83 11.6383C100.134 10.3818 99.1423 9.40138 97.8738 8.72555L97.8643 8.73507ZM98.4652 20.8716C97.9025 21.9567 97.149 22.7944 96.2429 23.3655C95.3369 23.9271 94.3736 24.2127 93.3912 24.2127C92.1132 24.2127 90.9687 23.8224 89.9863 23.0704C88.9944 22.3089 88.2219 21.2618 87.6687 19.9673C87.1155 18.6727 86.839 17.2449 86.839 15.7409C86.839 14.237 87.1251 12.8948 87.6973 11.8001C88.26 10.7055 89.004 9.86781 89.91 9.30619C90.8066 8.74458 91.7603 8.45902 92.7427 8.45902C94.0398 8.45902 95.1938 8.84929 96.1762 9.60128C97.1681 10.3723 97.9406 11.4099 98.4938 12.7044C99.047 14.0085 99.3235 15.4268 99.3235 16.9308C99.3235 18.4348 99.0374 19.7769 98.4652 20.8716Z" fill="#E1B260"/>
<path d="M120.793 5.54418C120.469 5.54418 120.173 5.60129 119.915 5.71552C119.324 5.95349 118.723 6.28665 118.113 6.70548C117.541 7.09575 116.844 7.65736 116.024 8.36176C115.137 7.93341 114.126 7.71447 113.001 7.71447C111.494 7.71447 110.168 7.981 109.081 8.50454C107.984 9.03759 107.145 9.76102 106.582 10.6653C106.019 11.5696 105.733 12.5881 105.733 13.7018C105.733 14.9393 106.134 16.0815 106.916 17.0905C107.622 17.9853 108.528 18.6611 109.634 19.0895C108.947 19.4131 108.394 19.8129 107.984 20.2698C107.478 20.8314 107.23 21.3169 107.23 21.7548C107.23 22.7828 107.879 23.4681 109.176 23.7918L115.891 25.4766C118.284 26.0953 119.496 27.0663 119.496 28.3608C119.496 29.1128 119.181 29.8172 118.571 30.4645C117.941 31.1213 117.111 31.6448 116.091 32.0256C114.012 32.7966 111.637 32.7871 109.395 31.997C108.261 31.5972 107.326 31.0642 106.601 30.4074C105.895 29.7696 105.533 29.0843 105.533 28.3608C105.533 28.199 105.609 28.0086 105.752 27.7897C105.914 27.5517 106.239 27.1139 106.735 26.4951L106.83 26.3809L106.439 25.9906L106.324 26.1144C105.333 27.19 104.694 27.9801 104.379 28.5226C104.054 29.0747 103.883 29.6935 103.883 30.3693C103.883 30.9595 104.217 31.5306 104.865 32.0827C105.495 32.6157 106.353 33.0536 107.421 33.3963C108.48 33.7294 109.653 33.9008 110.893 33.9008C112.467 33.9008 114.088 33.5867 115.738 32.9679C117.388 32.3492 118.771 31.5211 119.868 30.5026C120.974 29.4745 121.537 28.3608 121.537 27.19C121.537 26.438 121.165 25.686 120.421 24.9626C119.686 24.2582 118.332 23.6871 116.386 23.2682L109.968 21.8404C109.51 21.7357 109.357 21.6024 109.3 21.5358C109.205 21.4026 109.157 21.2407 109.157 21.0408C109.157 20.8219 109.291 20.5268 109.548 20.1651C109.796 19.8224 110.139 19.5464 110.559 19.3655C111.093 19.5083 111.713 19.5845 112.4 19.5845C113.888 19.5845 115.194 19.3274 116.282 18.8039C117.378 18.2899 118.218 17.5665 118.78 16.6717C119.343 15.7769 119.629 14.7584 119.629 13.6542C119.629 12.55 119.334 11.5601 118.761 10.6368C118.227 9.78958 117.512 9.11374 116.625 8.60925C116.978 8.35224 117.417 8.07619 117.951 7.80014C118.208 7.80014 118.399 7.80966 118.551 7.8287L119.334 7.85726C119.915 7.85726 120.411 7.76207 120.783 7.59073C121.479 7.35276 121.832 6.97201 121.832 6.45799C121.832 6.25809 121.804 6.10579 121.756 6.02012C121.642 5.68696 121.327 5.51562 120.821 5.51562L120.793 5.54418ZM117.293 14.0255C117.293 15.4438 116.921 16.6336 116.177 17.5474C115.442 18.4517 114.469 18.9086 113.277 18.9086C111.56 18.9086 110.254 18.4041 109.395 17.3951C108.528 16.3861 108.089 15.0249 108.089 13.3401C108.089 11.8932 108.47 10.7129 109.214 9.80862C109.958 8.91385 110.969 8.45694 112.228 8.45694C113.859 8.45694 115.118 8.96144 115.976 9.97044C116.844 10.9794 117.283 12.3406 117.283 14.0159L117.293 14.0255Z" fill="#E1B260"/>
<path d="M130.845 24.154C130.053 24.154 129.481 24.0588 129.138 23.8684C128.813 23.6876 128.613 23.4115 128.527 23.0212C128.432 22.6024 128.384 21.9171 128.384 20.9842V7.97197C128.384 7.91486 128.365 7.79112 128.193 7.71497C128.098 7.67689 128.003 7.67689 127.907 7.72448C127.307 8.06716 126.715 8.35273 126.143 8.5907C125.571 8.81915 124.903 9.00001 124.159 9.13327C124.035 9.13327 123.94 9.21894 123.911 9.34269C123.883 9.46643 123.94 9.58066 124.054 9.63777H124.111C124.722 9.69488 125.161 9.78055 125.437 9.89478C125.685 9.99949 125.866 10.266 125.99 10.6848C126.124 11.1322 126.191 11.8747 126.191 12.8837V20.9747C126.191 21.9075 126.143 22.5929 126.048 23.0117C125.962 23.402 125.761 23.678 125.447 23.8589C125.122 24.0493 124.55 24.1445 123.759 24.1445C123.577 24.1445 123.463 24.2587 123.463 24.4205C123.463 24.5823 123.577 24.6966 123.759 24.6966C124.55 24.6966 125.246 24.6775 125.828 24.6299C125.971 24.6109 126.2 24.6014 126.515 24.6014H128.041C128.356 24.6014 128.604 24.6109 128.775 24.6299C129.3 24.6775 129.996 24.6966 130.835 24.6966C131.074 24.6966 131.16 24.5443 131.16 24.4205C131.16 24.2968 131.074 24.1445 130.835 24.1445L130.845 24.154Z" fill="#E1B260"/>
<path d="M127.116 4.93737C127.574 4.93737 127.956 4.78507 128.242 4.48047C128.528 4.18538 128.68 3.81415 128.68 3.37628C128.68 2.93842 128.528 2.5767 128.223 2.28162C127.917 1.99605 127.545 1.84375 127.116 1.84375C126.668 1.84375 126.277 1.98653 125.981 2.28162C125.676 2.56718 125.523 2.93842 125.523 3.37628C125.523 3.81415 125.686 4.18538 126 4.48047C126.315 4.77555 126.687 4.92785 127.126 4.92785L127.116 4.93737Z" fill="#E1B260"/>
<path d="M151.531 22.7277C151.474 22.7373 151.417 22.7753 151.398 22.8229C151.131 23.1656 150.873 23.4131 150.635 23.5559C150.406 23.6891 150.101 23.7558 149.748 23.7558C149.137 23.7558 148.842 23.3274 148.842 22.4327V12.9805C148.842 10.8958 148.25 9.47753 147.077 8.76362C145.933 8.05923 144.502 7.70703 142.843 7.70703C141.708 7.70703 140.563 7.92596 139.438 8.36383C138.322 8.8017 137.387 9.35379 136.662 10.0011C135.918 10.6674 135.537 11.3337 135.537 11.9905C135.537 12.3141 135.651 12.5997 135.88 12.8186C136.109 13.0471 136.395 13.1613 136.748 13.1613C137.416 13.1613 137.931 12.8282 138.255 12.1618C138.551 11.5622 138.827 10.6198 139.066 9.35379C139.629 9.09678 140.182 8.87785 140.697 8.71603C141.231 8.54469 141.841 8.46854 142.509 8.46854C143.129 8.46854 143.768 8.63036 144.397 8.93496C145.027 9.23956 145.561 9.73454 145.98 10.4009C146.4 11.0577 146.619 11.9239 146.619 12.9614V14.4368C142.452 15.0651 139.438 15.9123 137.673 16.9593C135.842 18.0445 134.917 19.3676 134.917 20.8906C134.917 22.1281 135.365 23.118 136.243 23.851C137.111 24.5744 138.274 24.9456 139.686 24.9456C140.84 24.9456 141.918 24.6315 142.9 24.0128C143.873 23.4036 144.712 22.6135 145.389 21.6902C145.904 20.9763 146.333 20.2529 146.648 19.5199V22.3184C146.648 24.0604 147.411 24.9456 148.918 24.9456C149.891 24.9456 150.873 24.3555 151.837 23.2037L151.875 23.1561V23.099C151.875 22.9848 151.827 22.88 151.732 22.8039C151.655 22.7468 151.579 22.7277 151.512 22.7373L151.531 22.7277ZM146.639 18.3967C146.047 19.7388 145.208 20.8906 144.149 21.8235C143.091 22.7468 141.908 23.2227 140.611 23.2227C139.657 23.2227 138.846 22.9467 138.188 22.4041C137.54 21.8711 137.206 21.1571 137.206 20.2814C137.206 19.2439 137.883 18.2253 139.209 17.2639C140.544 16.3025 143.033 15.5696 146.629 15.1032V18.4062L146.639 18.3967Z" fill="#E1B260"/>
<path d="M166.772 16.9769C165.799 16.3105 164.426 15.7299 162.69 15.2539L159.962 14.5115C158.675 14.1783 157.788 13.788 157.33 13.3502C156.882 12.9313 156.653 12.2841 156.653 11.4369C156.653 10.5136 157.006 9.79013 157.721 9.23804C158.446 8.68595 159.323 8.40038 160.344 8.40038C161.155 8.40038 162.013 8.64787 162.91 9.14285C163.806 9.63783 164.626 10.3993 165.37 11.4083C166.105 12.4173 166.658 13.6738 167.011 15.1397C167.058 15.2349 167.154 15.292 167.278 15.292C167.354 15.292 167.411 15.273 167.459 15.2254C167.507 15.1778 167.526 15.1207 167.526 15.035L166.257 7.67695L166.229 7.61984C166.162 7.52465 166.086 7.50561 166.038 7.49609C165.962 7.49609 165.876 7.52465 165.799 7.6008L165.771 7.63888C165.771 7.63888 165.704 7.7531 165.628 7.88637C165.561 7.99107 165.447 8.11482 165.265 8.23856C165.103 8.35279 164.865 8.41942 164.55 8.41942C164.283 8.41942 163.758 8.32423 163.005 8.13386C161.813 7.84829 160.945 7.70551 160.373 7.70551C158.904 7.70551 157.578 8.04819 156.443 8.7145C155.28 9.39986 154.688 10.5421 154.688 12.1127C154.688 14.283 156.205 15.768 159.19 16.5485L162.566 17.4909C164.025 17.8907 165.046 18.3285 165.58 18.7949C166.105 19.2423 166.362 19.9562 166.362 20.9176C166.362 21.8791 165.933 22.6977 165.084 23.3259C164.216 23.9637 163.072 24.2778 161.66 24.2778C160.783 24.2778 159.877 24.0303 158.971 23.5353C158.055 23.0403 157.216 22.2788 156.462 21.2698C155.709 20.2608 155.137 18.9853 154.755 17.5004C154.707 17.3671 154.612 17.291 154.478 17.291C154.412 17.291 154.354 17.3195 154.307 17.3576C154.269 17.3957 154.23 17.4623 154.23 17.5861L155.537 25.0583C155.575 25.1726 155.652 25.2011 155.699 25.2202C155.718 25.2202 155.728 25.2202 155.747 25.2202C155.814 25.2202 155.89 25.1821 155.966 25.0964C156.004 25.0298 156.081 24.9346 156.176 24.7918C156.262 24.6681 156.395 24.5348 156.558 24.4111C156.71 24.2968 156.949 24.2302 157.254 24.2302C157.607 24.2302 158.15 24.3254 158.866 24.5158C160.039 24.8013 161.05 24.9441 161.851 24.9441C163.558 24.9441 165.075 24.5348 166.334 23.7352C167.621 22.9166 168.279 21.6316 168.279 19.9182C168.279 18.6617 167.764 17.6717 166.763 16.9769H166.772Z" fill="#E1B260"/>
<path d="M201.251 1.70115C201.194 1.64404 201.108 1.625 200.974 1.625H182.462C182.243 1.625 182.1 1.76778 182.1 1.98672V10.5346C182.1 10.7155 182.214 10.8297 182.376 10.8297C182.538 10.8297 182.653 10.7155 182.653 10.5346C182.691 8.27866 182.948 6.5272 183.416 5.31831C183.874 4.13797 184.494 3.32887 185.266 2.91004C186.048 2.49121 187.059 2.2818 188.251 2.2818H190.521V19.5966C190.521 21.0815 190.407 22.1476 190.187 22.7568C189.978 23.347 189.615 23.7182 189.091 23.88C188.537 24.0609 187.584 24.1466 186.239 24.1466C185.876 24.1466 185.848 24.375 185.848 24.4416C185.848 24.5368 185.896 24.7082 186.239 24.7082C187.631 24.7082 188.824 24.6891 189.787 24.6415C190.083 24.6225 190.512 24.613 191.074 24.613H192.371C192.906 24.613 193.335 24.6225 193.63 24.6415C194.584 24.6891 195.795 24.7082 197.207 24.7082C197.36 24.7082 197.465 24.6701 197.522 24.6035C197.569 24.5463 197.589 24.4797 197.579 24.4036C197.569 24.3274 197.503 24.1466 197.207 24.1466C195.862 24.1466 194.899 24.0609 194.336 23.88C193.802 23.7087 193.44 23.347 193.23 22.7568C193.011 22.1381 192.896 21.072 192.896 19.5966V2.2818H195.166C196.368 2.2818 197.369 2.49121 198.151 2.91004C198.924 3.31935 199.544 4.12845 200.001 5.31831C200.469 6.5272 200.726 8.27866 200.764 10.5346C200.764 10.7155 200.879 10.8297 201.041 10.8297C201.203 10.8297 201.318 10.7155 201.318 10.5346V1.98672C201.318 1.85345 201.299 1.76778 201.241 1.71067L201.251 1.70115Z" fill="#E1B260"/>
<path d="M213.058 23.8105V0.984375L212.772 1.26994C210.263 3.80195 207.431 4.94421 205.504 5.45823L205.333 5.50582L205.571 6.25781L205.724 6.21021C207.564 5.68668 209.376 4.86806 210.721 3.97329V23.8105H204.741V24.6101H219V23.8105H213.058Z" fill="#E1B260"/>
</svg>
