<svg width="33" height="47" viewBox="0 0 33 47" fill="none" xmlns="http://www.w3.org/2000/svg">
<path d="M29.8032 42.5747H7.74305C16.3665 35.9834 29.8068 23.751 29.8068 11.5402C29.8068 4.5293 24.4776 0 16.2294 0C9.78887 0 3.12464 4.64406 3.12464 12.4152C3.12464 15.0403 4.26842 16.5465 6.26372 16.5465C7.99202 16.5465 9.20074 15.2626 9.20074 13.4265C9.20074 12.3363 9.05642 11.4936 8.91931 10.6831C8.78581 9.90493 8.65952 9.16977 8.65952 8.24096C8.65952 4.30337 11.6759 1.66038 16.1608 1.66038C21.7426 1.66038 24.8131 5.17122 24.8131 11.5402C24.8131 21.0148 18.5855 30.9269 5.21375 42.7289L4.51739 43.3278C3.38443 44.2996 1.49377 45.9206 0.898425 46.3509L0 47H30.0341L33 38.6694H31.2212L29.7996 42.5783L29.8032 42.5747Z" fill="white"/>
</svg>
