<svg width="150" height="26" viewBox="0 0 150 26" fill="none" xmlns="http://www.w3.org/2000/svg">
<path d="M10.1104 12.1309L10.2516 12.1494C11.4471 11.6316 15.043 9.24612 15.1372 8.5804C15.1372 8.22905 14.7418 8.01639 14.4406 7.98865C12.9533 8.63587 9.29142 10.9936 9.26318 11.6686C9.26318 11.9275 9.37614 12.0199 10.1104 12.1309Z" fill="#B0C4CC"/>
<path d="M21.6321 21.0626C21.2555 21.0442 20.9355 21.2753 20.5778 21.4972L20.3142 21.6544C19.4764 22.1352 18.3656 22.7269 17.236 23.0598C16.7653 23.1985 16.3135 23.2632 15.8711 23.2632C13.3671 23.2632 12.4728 20.4894 12.4728 18.1224C12.4728 17.7341 12.5481 17.3642 12.614 17.0036C12.6799 16.6708 12.7458 16.3471 12.7458 16.042C12.7458 15.4873 12.5293 15.3855 12.1339 15.3855C11.3432 15.3855 9.77115 17.244 8.38737 18.8713C6.47645 21.1274 4.49021 23.4666 2.82403 23.4666C2.40984 23.4666 1.96741 23.1892 1.96741 22.4126C1.96741 20.776 3.47356 18.936 4.51845 17.7988C5.14915 17.1146 5.87399 16.4396 6.74944 16.0605C7.12597 15.9033 7.64371 15.7092 8.03908 15.8386C8.56623 16.0143 9.14986 17.244 9.83704 16.8834C10.5713 16.5043 9.91235 14.9972 9.56405 14.5534C8.62271 13.3699 6.7212 14.1558 5.66689 14.7291C4.58434 15.3208 3.643 16.1437 2.83345 17.0683C1.34612 18.7789 0 21.0719 0 23.3742C0 24.8813 0.856623 25.7874 2.28747 25.7874C4.44314 25.7874 8.44385 21.8393 9.90294 19.6942L10.5054 18.7974L10.656 19.8607C11.0231 22.3571 12.7081 24.8813 15.6545 24.8813C16.6147 24.8813 17.6596 24.5669 18.9493 23.8919C19.6176 23.5406 20.286 23.0875 21.1143 22.4033C21.4815 22.0982 21.8298 21.8116 21.8957 21.451C21.9145 21.3308 21.8957 21.2198 21.8392 21.1459C21.7921 21.0904 21.7168 21.0626 21.6227 21.0626H21.6321Z" fill="#B0C4CC"/>
<path d="M136.09 21.1458C136.043 21.0903 135.968 21.0626 135.874 21.0626C135.497 21.0441 135.177 21.2752 134.82 21.4972L134.556 21.6543C133.718 22.1351 132.607 22.7269 131.478 23.0597C131.007 23.1984 130.555 23.2632 130.113 23.2632C127.609 23.2632 126.715 20.4893 126.715 18.1223C126.715 17.734 126.79 17.3642 126.856 17.0036C126.922 16.6707 126.988 16.3471 126.988 16.042C126.988 15.4872 126.771 15.3855 126.376 15.3855C125.585 15.3855 124.013 17.244 122.629 18.8713C120.718 21.1273 118.732 23.4666 117.066 23.4666C116.652 23.4666 116.209 23.1892 116.209 22.4125C116.209 20.776 117.715 18.936 118.76 17.7987C119.391 17.1145 120.116 16.4395 120.991 16.0605C121.368 15.9033 121.886 15.7091 122.281 15.8385C122.808 16.0142 123.392 17.244 124.079 16.8834C124.813 16.5043 124.154 14.9972 123.806 14.5533C122.865 13.3698 120.963 14.1558 119.909 14.729C118.826 15.3208 117.885 16.1437 117.075 17.0683C116.953 17.207 116.831 17.3642 116.708 17.5121C116.275 17.9097 115.861 18.335 115.428 18.7141C114.844 19.2319 114.242 19.7312 113.63 20.2027C111.672 21.7006 109.224 23.3556 106.645 23.3556C105.939 23.3556 105.309 23.0782 104.847 22.542C104.094 21.6913 103.784 20.2304 104.019 18.6309L104.038 18.5014L104.122 18.409C111.446 10.596 115.004 5.22404 115.004 1.97866C115.004 0.776672 114.232 0 113.037 0C109.629 0 103.605 9.92105 102.296 17.6878L102.277 17.8172L102.183 17.9097C99.0674 20.9054 96.7988 22.7639 95.1138 22.7639C94.869 22.7639 94.6619 22.6622 94.5301 22.4772C94.4266 22.3385 94.3795 22.1536 94.3795 21.9317C94.3795 20.3969 97.0341 16.042 98.9638 16.042C99.8864 16.042 100.705 16.6337 101.072 17.4474C101.185 17.697 101.251 17.9651 101.374 18.2055C101.393 18.2518 101.421 18.2888 101.458 18.3073C101.524 18.335 101.59 18.2888 101.647 18.2425C101.844 18.0484 101.948 17.771 101.967 17.5028C101.986 17.2347 101.929 16.9573 101.863 16.6892C101.524 15.256 100.366 14.3592 98.8603 14.3592C97.7401 14.3592 96.4316 15.0989 95.1702 16.4488C91.7908 19.8236 87.9595 23.4018 85.2014 23.4018C83.8176 23.4018 83.78 21.6451 83.7329 19.7774C83.667 16.9203 83.4599 14.8862 81.4078 14.8862C79.3557 14.8862 76.8705 17.6323 74.9219 19.8329C73.8111 21.0903 72.851 22.1721 72.0885 22.5974L71.6743 22.8286L71.4954 22.394C71.2977 21.9317 71.6649 21.2475 72.4274 19.8698C73.1428 18.5939 74.2159 16.6614 73.8205 16.005C73.7076 15.8293 73.444 15.7368 73.0204 15.7368C72.7945 15.7368 72.6062 15.8201 72.4085 16.005L72.3144 16.0974L72.1826 16.1159C69.3774 19.2226 62.5244 23.9844 58.712 23.9844C57.2906 23.9844 56.5469 23.4296 56.1704 22.9765C55.6244 22.3016 55.5679 21.4787 55.6997 20.9331L55.775 20.6188H56.1045C61.1783 20.6188 62.8915 17.9097 62.8915 16.6707C62.8915 15.1266 61.9784 14.3684 60.1146 14.3684C58.9944 14.3684 57.5259 14.9972 56.2833 16.0142L56.1327 16.0882C54.8148 17.5583 52.5179 18.6679 50.7859 18.6679C49.3833 18.6679 48.4513 17.9651 48.1595 16.6984C48.0089 15.9772 48.1407 15.6444 48.3007 15.3208C48.376 15.1728 48.4137 15.0896 48.4137 14.9047C48.4137 14.4794 47.67 13.9893 47.0487 13.9893C46.4745 13.9893 45.9285 14.6643 45.6367 15.2468C43.9705 18.2425 38.859 22.4957 37.3529 22.4957H36.9387V22.0889C36.9387 20.5356 38.0118 19.0562 38.9532 17.7432C39.6686 16.7447 40.3464 15.8108 40.3464 15.1174C40.3464 14.655 39.9792 14.1465 39.4615 14.1465C37.447 14.1465 34.0864 21.7376 34.0864 23.7902C34.0864 24.7425 34.6701 25.7688 35.6208 25.7688C37.833 25.7688 43.6505 20.591 46.0791 17.771L46.5028 17.2809L46.7757 17.8634C47.4441 19.2688 48.922 20.0733 50.8423 20.0733C51.5954 20.0733 52.3862 19.9346 53.1675 19.6664L53.8264 19.4445L53.7134 20.1195C53.6758 20.3784 53.6476 20.6373 53.6476 20.9054C53.6476 22.6991 54.2783 25.7041 58.4861 25.7041C61.1406 25.7041 65.0002 23.7994 69.0762 20.4801L70.2905 19.4908L69.7351 20.9424C68.9256 23.0505 68.7561 24.5853 69.2456 25.288C69.4715 25.6117 69.8575 25.7596 70.4223 25.7596C71.5896 25.7596 73.5381 23.5313 75.2608 21.5619C77.2376 19.3058 78.9509 17.3549 80.3346 17.3549C81.7184 17.3549 81.7278 18.9545 81.8031 20.6465C81.9349 23.4573 82.2079 25.4452 84.5613 25.4452C86.1992 25.4452 88.6655 24.1415 91.5084 21.7838L92.3744 21.0626L92.1862 22.1629C92.1109 22.5974 92.0826 22.9395 92.0826 23.2539C92.0826 24.9829 93.0899 25.3435 93.9371 25.3435C95.4997 25.3435 98.5873 23.4203 101.449 20.6743L102.08 20.0733L102.155 20.9331C102.249 21.9595 102.805 25.2973 105.967 25.2973C108.198 25.2973 110.975 24.0213 113.771 21.7006C113.959 21.5434 114.157 21.3862 114.345 21.2198C114.477 21.1088 114.609 20.9886 114.741 20.8777C114.44 21.6821 114.261 22.5235 114.261 23.3649C114.261 24.872 115.117 25.7781 116.548 25.7781C118.704 25.7781 122.705 21.83 124.164 19.6849L124.766 18.788L124.917 19.8513C125.284 22.3478 126.969 24.872 129.915 24.872C130.875 24.872 131.92 24.5576 133.21 23.8826C133.878 23.5313 134.547 23.0782 135.375 22.394C135.742 22.0889 136.09 21.8023 136.156 21.4417C136.175 21.3215 136.156 21.2105 136.1 21.1366L136.09 21.1458ZM104.621 14.7568C106.08 9.4495 110.599 1.84922 112.284 1.84922C112.613 1.84922 112.877 2.0064 113.018 2.29303C113.696 3.69844 110.542 8.97795 105.346 15.1266L104.113 16.5875L104.612 14.7568H104.621ZM56.4998 18.298C56.7163 18.0853 58.6649 16.2084 59.9922 16.2084C60.4158 16.2084 60.7359 16.5228 60.7359 16.9388C60.7359 17.771 59.0791 19.0007 56.8011 19.0007H55.7938L56.5092 18.298H56.4998Z" fill="#B0C4CC"/>
<path d="M148.817 2.0249C148.695 2.06189 148.601 2.1451 148.488 2.30228C148.224 2.69062 147.98 3.13443 147.725 3.70769C147.368 4.54908 147.029 5.39972 146.69 6.26886C146.511 6.73116 146.332 7.18422 146.144 7.64652C145.617 8.98721 145.071 10.3279 144.534 11.6686C143.555 14.1003 142.576 16.5505 141.626 19.01C141.418 19.5277 141.343 20.175 141.287 20.7945C141.287 20.9331 141.39 21.0256 141.456 21.0811C141.597 21.1828 141.851 21.266 142.124 21.1828C142.124 21.1828 142.2 21.1273 142.237 21.0996C142.332 21.0349 142.473 20.9516 142.529 20.8684C142.708 20.6373 142.887 20.3229 143.028 19.9623C143.292 19.2689 143.574 18.5846 143.857 17.8912C144.129 17.2162 144.412 16.5413 144.666 15.8478L149.618 3.57824C149.796 3.22689 149.778 3.09745 149.768 3.06971C149.655 2.69987 149.326 1.86772 148.808 2.0249H148.817Z" fill="#B0C4CC"/>
<path d="M140.891 23.6978C140.844 23.6793 140.788 23.6608 140.731 23.6516C140.185 23.5591 139.752 23.7903 139.526 24.2896C139.385 24.6039 139.338 25.02 139.442 25.3621C139.545 25.7042 139.865 25.8614 140.167 25.9631C140.374 26.0371 140.647 25.9908 140.854 25.9169C141.296 25.7597 141.569 25.2234 141.579 24.7796C141.588 24.3173 141.334 23.8457 140.891 23.6886V23.6978Z" fill="#B0C4CC"/>
</svg>
