<svg width="142" height="39" viewBox="0 0 142 39" fill="none" xmlns="http://www.w3.org/2000/svg">
<path d="M20.6629 25.0546C20.6629 25.0546 20.6251 25.042 20.6 25.0294C19.7317 24.7148 20.5244 23.3306 20.751 22.7643C21.0907 21.9086 21.506 21.0781 21.9968 20.2979C22.5127 19.4799 23.0916 18.6997 23.7208 17.9572C24.0354 17.5797 24.35 17.1141 24.7023 16.7492C25.1679 16.271 25.5329 15.9564 26.1495 16.2962C26.6528 16.5856 27.0052 17.0889 27.0052 17.6678C27.0052 17.8943 26.9674 18.1082 26.9171 18.3222C26.4263 20.4111 24.7778 22.4749 23.1922 23.834C22.6511 24.2996 21.4934 25.2559 20.6755 25.0294M5.82638 32.5672C5.63762 32.8944 3.93878 35.7132 2.76847 35.7132C2.55455 35.7132 2.3532 35.6125 2.23995 35.4364C1.86243 34.8827 2.23995 33.7879 3.88845 29.7232C4.5554 28.0747 5.32302 26.1997 5.97738 24.3373L6.68209 22.563L7.16028 23.4313C8.97237 26.7157 6.594 31.2459 5.82638 32.5546M50.4365 22.2358C50.4365 22.2358 50.4114 22.2232 50.3988 22.2106C50.1974 22.1225 49.908 22.2987 49.7444 22.3994C48.6496 23.0412 47.6051 23.7459 46.4852 24.3499C45.7175 24.7652 44.8618 25.0798 43.981 25.0798C42.8862 25.0798 42.2318 24.3876 42.2318 23.2299C42.2318 22.3742 42.5841 21.5814 42.8987 20.8893C43.1504 20.3356 43.3895 19.8071 43.3895 19.3541C43.3895 18.5864 42.6596 18.0579 41.9675 17.5546C41.3761 17.1267 40.8224 16.724 40.6965 16.1451L40.6462 15.9312L40.7846 15.755C41.3257 15.0503 41.8543 14.3708 41.8543 13.7164C41.8543 13.0621 41.0615 12.4706 40.1051 12.4706C38.809 12.4706 37.475 13.8549 37.475 15.2139C37.475 15.6795 37.6512 16.0822 38.0287 16.4975L38.3937 16.8876L37.9532 17.2022C37.5254 17.5042 35.9776 18.4983 34.241 18.4983C30.73 18.4983 29.5346 16.5227 28.6663 15.0881C28.0874 14.1191 27.7225 13.578 27.0429 13.578C26.6025 13.578 26.1998 13.88 25.8097 14.182C24.4381 15.1384 22.8147 16.6988 21.5186 18.2844C19.2409 20.4992 16.636 21.6066 13.7543 21.6066C12.068 21.6066 10.3314 21.2542 8.59485 20.5747L8.05374 20.3608L8.38092 19.87C9.07304 18.8255 9.85324 17.7559 10.8348 16.5101C13.6033 13.6535 18.1838 8.94712 17.454 7.75164C17.1645 7.3112 16.8751 7.26086 16.6989 7.26086C14.912 7.26086 11.0991 11.8666 6.74501 19.266L6.43041 19.7945L6.01514 19.3918C5.77604 19.266 5.51178 19.1024 5.2601 18.9388C4.86999 18.6871 4.44214 18.3977 4.17788 18.3977C3.71227 18.3977 3.27183 19.0772 3.27183 19.5806C3.27183 19.7819 3.6116 20.1594 5.2601 20.8641L5.76346 21.0781L5.46144 21.5437C3.72485 24.287 0 34.2283 0 36.6318C0 37.7267 0.654366 38.4817 1.573 38.4817C1.82468 38.4817 2.32803 38.4314 2.80622 38.1168C5.31043 36.5186 8.45643 32.24 9.19888 28.1125C9.5764 26.0236 9.2618 24.2366 8.29283 22.9531L7.41196 21.7953L8.79619 22.2232C12.1435 23.2425 15.4909 23.0286 18.3852 21.745L19.4171 21.292L19.0144 22.349C18.7375 23.0789 18.5991 23.7459 18.5991 24.3373C18.5991 25.495 19.1276 26.7408 20.6251 26.7408C24.2367 26.7408 27.3324 22.1351 28.4398 19.2408L28.6663 18.6368L29.1696 19.0395C29.8492 19.5806 30.9188 19.8826 32.2527 19.8826C34.6437 19.8826 37.4499 18.9136 38.7838 17.6175L39.0606 17.3406L39.3752 17.5546C40.4449 18.2844 41.4768 18.9891 41.4768 20.1846C41.4768 20.7383 41.2377 21.3423 40.986 21.9715C40.6965 22.6888 40.3694 23.5068 40.3694 24.3373C40.3694 25.797 41.3761 26.7408 42.9491 26.7408C45.5162 26.7408 48.335 24.6519 50.1974 23.0915C50.3233 22.9908 50.4365 22.8902 50.512 22.7517C50.6001 22.6007 50.6127 22.3365 50.4617 22.2358" fill="#B0C4CC"/>
<path d="M109.606 2.60488H109.896L110.11 2.91948C110.11 2.91948 110.135 2.9824 110.147 3.00757C110.374 3.9262 109.141 5.28527 108.675 5.95222C107.744 7.2987 106.775 8.60743 105.793 9.91617C104.925 11.0865 103.868 12.521 102.32 14.2702C102.106 14.5093 101.213 15.5034 101.112 15.4154C101.074 15.3902 101.15 15.214 101.578 14.3583C102.056 13.3893 102.119 13.2761 102.119 13.2761C102.484 12.5588 102.861 11.8415 103.251 11.1368C104.019 9.73999 104.824 8.36834 105.705 7.02185C106.41 5.93963 107.152 4.84483 108.008 3.86328C108.361 3.46059 108.99 2.61746 109.594 2.61746M115.81 18.964C116.037 18.7375 118.038 16.7744 119.409 16.7744C119.862 16.7744 120.215 17.1142 120.215 17.5798C120.215 18.4481 118.591 19.7694 116.137 19.7694H114.992L115.798 18.964H115.81ZM125.777 22.6386C125.777 22.6386 125.726 22.5756 125.689 22.5505C125.563 22.4624 125.412 22.4498 125.261 22.4624C124.971 22.4875 124.694 22.626 124.43 22.7644C122.517 23.7585 120.303 24.9792 118.088 24.9792C116.616 24.9792 115.835 24.4003 115.458 23.9095C114.892 23.1922 114.841 22.324 114.967 21.7451L115.055 21.3802H115.433C120.592 21.3802 122.329 18.5865 122.329 17.3155C122.329 15.73 121.41 14.9623 119.535 14.9623C118.39 14.9623 116.88 15.6293 115.609 16.7115L115.143 17.1268C114.992 17.2778 114.879 17.391 114.778 17.5043C112.626 19.7191 107.605 24.8785 103.264 24.8785C102.018 24.8785 101.087 24.501 100.496 23.7459C99.7153 22.7518 99.5769 21.1536 100.093 18.9766L100.118 18.8508L100.206 18.7627C108.512 9.62673 113.319 2.46646 112.463 0.515943C112.413 0.390103 112.236 0 111.255 0C107.832 0 100.231 10.2182 98.3814 18.7124L98.2808 18.9137C96.6574 20.8894 93.4863 24.199 90.3906 24.199C87.7983 24.199 86.8797 21.2921 86.8797 18.8004C86.8797 18.3978 86.9552 18.0077 87.0307 17.6301C87.0936 17.2778 87.1565 16.9506 87.1565 16.636C87.1565 16.0949 86.9678 16.0068 86.5777 16.0068C85.7975 16.0068 84.1238 18.0077 82.7773 19.6184C80.8142 21.9842 78.7756 24.4129 77.0516 24.4129C76.6112 24.4129 76.133 24.1109 76.133 23.2803C76.133 21.4305 79.5055 16.3843 82.0852 16.3843C82.6766 16.3843 83.0164 16.6738 83.2429 16.8751C83.4065 17.0135 83.4568 17.0513 83.5198 17.0513C83.633 16.9758 83.8344 16.2711 83.6204 15.5034C83.4946 15.0756 83.2303 14.5596 82.6389 14.5596C80.852 14.5596 78.7253 15.8055 76.9635 17.8944C73.8301 20.6251 69.1489 22.1855 67.2739 22.7392L66.7076 22.9028L66.6824 22.3114C66.5943 20.688 66.3552 19.2157 66.1287 17.7811L65.9274 16.4976L66.3049 16.0571C66.8963 15.3776 67.8905 14.245 67.8905 13.4774C67.8905 12.7098 67.148 12.282 66.4181 12.282C64.9584 12.282 63.9014 14.3206 63.9014 15.6922C63.9014 16.5983 64.0398 17.6176 64.1908 18.8004C64.3544 20.0085 64.5305 21.3802 64.6186 22.9783L64.6438 23.3558L64.2789 23.4565C62.1773 24.0354 61.1958 24.7904 61.1958 25.8223C61.1958 26.2753 61.3342 27.345 62.6052 27.345C64.0649 27.345 65.726 26.1621 66.3804 24.6394L66.4685 24.4381L66.6824 24.3751C67.6136 24.0983 70.898 23.0664 73.9434 21.4431L74.9878 20.8894L74.6229 22.0094C74.346 22.8273 74.2202 23.5949 74.2202 24.2745C74.2202 25.8223 75.0759 26.7409 76.5231 26.7409C78.7127 26.7409 82.7899 22.6511 84.2748 20.4112L84.9543 19.3793L85.1305 20.6C85.4954 23.1797 87.2069 25.7845 90.2018 25.7845C92.0769 25.7845 94.7824 24.35 97.2866 22.0471L98.0039 21.3802L98.0794 22.3617C98.2933 25.2938 99.8663 26.7283 102.886 26.7283C105.265 26.7283 108.486 24.954 112.211 21.5815L112.979 20.8894L113.004 21.9087C113.054 23.683 113.746 26.6654 117.899 26.6654C119.422 26.6654 120.894 26.1621 122.228 25.4699C122.681 25.2309 126.267 23.1797 125.814 22.626" fill="#B0C4CC"/>
<path d="M141.242 2.20218C141.242 2.20218 141.192 2.1896 141.167 2.17702C141.029 2.13926 140.852 2.15185 140.739 2.25252C140.689 2.30285 140.651 2.35319 140.626 2.41611C140.135 3.27182 139.846 4.30371 139.481 5.23492C139.279 5.76345 139.065 6.27939 138.852 6.80791C138.248 8.31799 137.643 9.84065 137.027 11.3507C135.957 14.0185 134.888 16.6863 133.831 19.3667C133.604 19.9707 133.503 20.7132 133.44 21.355C133.44 21.4808 133.554 21.5941 133.604 21.6318C133.742 21.7451 133.994 21.8458 134.271 21.7577C134.309 21.7325 134.346 21.7073 134.384 21.6822C134.472 21.6192 134.636 21.5312 134.686 21.4557C134.888 21.204 135.076 20.8642 135.24 20.4615C135.529 19.7065 135.831 18.9514 136.146 18.1964C136.461 17.4414 136.763 16.6863 137.052 15.9187C137.228 15.4405 137.43 14.9749 137.618 14.5093C138.323 12.7601 139.04 11.011 139.745 9.26179L140.928 6.34231C141.23 5.61244 141.469 4.8574 141.721 4.10236C141.972 3.35991 142.274 2.8943 141.532 2.37836C141.431 2.30285 141.318 2.23994 141.205 2.1896" fill="#B0C4CC"/>
<path d="M132.798 24.4254H132.735C132.597 24.4254 132.446 24.4254 132.307 24.4632C131.64 24.652 131.313 25.6083 131.452 26.2375C131.477 26.376 131.552 26.5018 131.64 26.6151C131.905 26.9422 132.32 27.131 132.748 27.131C133.201 27.131 133.377 26.8667 133.566 26.5018C133.805 26.0236 133.792 25.4573 133.578 24.9666C133.478 24.7526 133.327 24.5387 133.1 24.4632C133.012 24.4254 132.911 24.4254 132.798 24.4254Z" fill="#B0C4CC"/>
</svg>
